<?xml version="1.0" encoding="UTF-8" standalone="no"?>
<!DOCTYPE svg PUBLIC "-//W3C//DTD SVG 1.1//EN"
 "http://www.w3.org/Graphics/SVG/1.1/DTD/svg11.dtd">
<!-- Generated by graphviz version 2.43.0 (0)
 -->
<!-- Title: JKQTAnnotationsSpecificStyleProperties Pages: 1 -->
<svg width="410pt" height="333pt"
 viewBox="0.00 0.00 410.00 333.00" xmlns="http://www.w3.org/2000/svg" xmlns:xlink="http://www.w3.org/1999/xlink">
<g id="graph0" class="graph" transform="scale(1 1) rotate(0) translate(4 329)">
<title>JKQTAnnotationsSpecificStyleProperties</title>
<!-- Node1 -->
<g id="Node000001" class="node">
<title>Node1</title>
<g id="a_Node000001"><a xlink:title="Support Class for JKQTBasePlotter, which summarizes all properties that define the visual styling of ...">
<polygon fill="#999999" stroke="#666666" points="364.5,-34 173.5,-34 173.5,0 364.5,0 364.5,-34"/>
<text text-anchor="start" x="181.5" y="-20.4" font-family="Helvetica,sans-Serif" font-size="12.00">JKQTAnnotationsSpecificStyle</text>
<text text-anchor="middle" x="269" y="-7.4" font-family="Helvetica,sans-Serif" font-size="12.00">Properties</text>
</a>
</g>
</g>
<!-- Node2 -->
<g id="Node000002" class="node">
<title>Node2</title>
<g id="a_Node000002"><a xlink:href="class_j_k_q_t_geometric_specific_style_properties.html" target="_top" xlink:title="Support Class for JKQTBasePlotter, which summarizes all properties that define the visual styling of ...">
<polygon fill="white" stroke="#666666" points="361,-105 177,-105 177,-71 361,-71 361,-105"/>
<text text-anchor="start" x="185" y="-91.4" font-family="Helvetica,sans-Serif" font-size="12.00">JKQTGeometricSpecificStyle</text>
<text text-anchor="middle" x="269" y="-78.4" font-family="Helvetica,sans-Serif" font-size="12.00">Properties</text>
</a>
</g>
</g>
<!-- Node2&#45;&gt;Node1 -->
<g id="edge1_Node000001_Node000002" class="edge">
<title>Node2&#45;&gt;Node1</title>
<g id="a_edge1_Node000001_Node000002"><a xlink:title=" ">
<path fill="none" stroke="#63b8ff" d="M269,-60.75C269,-51.89 269,-42.27 269,-34.4"/>
<polygon fill="#63b8ff" stroke="#63b8ff" points="265.5,-61 269,-71 272.5,-61 265.5,-61"/>
</a>
</g>
</g>
<!-- Node3 -->
<g id="Node000003" class="node">
<title>Node3</title>
<g id="a_Node000003"><a xlink:href="class_j_k_q_t_graphs_specific_style_properties.html" target="_top" xlink:title="Support Class for JKQTBasePlotter, which summarizes all properties that define the visual styling of ...">
<polygon fill="white" stroke="#666666" points="224,-181 0,-181 0,-160 224,-160 224,-181"/>
<text text-anchor="middle" x="112" y="-167.4" font-family="Helvetica,sans-Serif" font-size="12.00">JKQTGraphsSpecificStyleProperties</text>
</a>
</g>
</g>
<!-- Node3&#45;&gt;Node2 -->
<g id="edge2_Node000002_Node000003" class="edge">
<title>Node3&#45;&gt;Node2</title>
<g id="a_edge2_Node000002_Node000003"><a xlink:title=" ">
<path fill="none" stroke="#63b8ff" d="M139.68,-155.31C167.1,-141.25 209.04,-119.74 237.67,-105.06"/>
<polygon fill="#63b8ff" stroke="#63b8ff" points="137.93,-152.27 130.63,-159.95 141.12,-158.5 137.93,-152.27"/>
</a>
</g>
</g>
<!-- Node4 -->
<g id="Node000004" class="node">
<title>Node4</title>
<g id="a_Node000004"><a xlink:href="struct_j_k_q_t_p_color_derivation_mode.html" target="_top" xlink:title="Specifies how a fill&#45;color is derived from a given color.">
<polygon fill="white" stroke="#666666" points="201.5,-325 22.5,-325 22.5,-304 201.5,-304 201.5,-325"/>
<text text-anchor="middle" x="112" y="-311.4" font-family="Helvetica,sans-Serif" font-size="12.00">JKQTPColorDerivationMode</text>
</a>
</g>
</g>
<!-- Node4&#45;&gt;Node3 -->
<g id="edge3_Node000003_Node000004" class="edge">
<title>Node4&#45;&gt;Node3</title>
<g id="a_edge3_Node000003_Node000004"><a xlink:title=" ">
<path fill="none" stroke="#9a32cd" stroke-dasharray="5,2" d="M112,-293.34C112,-262.41 112,-204.4 112,-181.33"/>
<polygon fill="#9a32cd" stroke="#9a32cd" points="108.5,-293.74 112,-303.74 115.5,-293.74 108.5,-293.74"/>
</a>
</g>
<text text-anchor="start" x="115" y="-272.9" font-family="Helvetica,sans-Serif" font-size="12.00" fill="grey">errorColorDerivationMode</text>
<text text-anchor="start" x="115" y="-255.9" font-family="Helvetica,sans-Serif" font-size="12.00" fill="grey">errorFillColorDerivationMode</text>
<text text-anchor="start" x="115" y="-238.9" font-family="Helvetica,sans-Serif" font-size="12.00" fill="grey">fillColorDerivationMode</text>
<text text-anchor="start" x="115" y="-221.9" font-family="Helvetica,sans-Serif" font-size="12.00" fill="grey">graphColorDerivationMode</text>
<text text-anchor="start" x="115" y="-204.9" font-family="Helvetica,sans-Serif" font-size="12.00" fill="grey">symbolFillColorDerivationMode</text>
</g>
<!-- Node5 -->
<g id="Node000005" class="node">
<title>Node5</title>
<g id="a_Node000005"><a xlink:href="class_j_k_q_t_fill_style_summmary.html" target="_top" xlink:title="Support Class for JKQTBasePlotter, which summarizes a fill style.">
<polygon fill="white" stroke="#666666" points="402,-181 242,-181 242,-160 402,-160 402,-181"/>
<text text-anchor="middle" x="322" y="-167.4" font-family="Helvetica,sans-Serif" font-size="12.00">JKQTFillStyleSummmary</text>
</a>
</g>
</g>
<!-- Node5&#45;&gt;Node2 -->
<g id="edge4_Node000002_Node000005" class="edge">
<title>Node5&#45;&gt;Node2</title>
<g id="a_edge4_Node000002_Node000005"><a xlink:title=" ">
<path fill="none" stroke="#9a32cd" stroke-dasharray="5,2" d="M310.01,-151.29C300.89,-137.44 288.46,-118.55 279.68,-105.21"/>
<polygon fill="#9a32cd" stroke="#9a32cd" points="307.29,-153.52 315.71,-159.95 313.14,-149.67 307.29,-153.52"/>
</a>
</g>
<text text-anchor="start" x="306.5" y="-128.9" font-family="Helvetica,sans-Serif" font-size="12.00" fill="grey">defaultFillStyle</text>
</g>
</g>
</svg>
