<?xml version="1.0" encoding="UTF-8" standalone="no"?>
<!DOCTYPE svg PUBLIC "-//W3C//DTD SVG 1.1//EN"
 "http://www.w3.org/Graphics/SVG/1.1/DTD/svg11.dtd">
<!-- Generated by graphviz version 2.43.0 (0)
 -->
<!-- Title: JKQTMathTextMultiChildNode Pages: 1 -->
<svg width="483pt" height="105pt"
 viewBox="0.00 0.00 483.00 105.00" xmlns="http://www.w3.org/2000/svg" xmlns:xlink="http://www.w3.org/1999/xlink">

<svg id="main" version="1.1" xmlns="http://www.w3.org/2000/svg" xmlns:xlink="http://www.w3.org/1999/xlink" xml:space="preserve">

<style type="text/css"><![CDATA[
.node, .edge {opacity: 0.7;}
.node.selected, .edge.selected {opacity: 1;}
.edge:hover path { stroke: red; }
.edge:hover polygon { stroke: red; fill: red; }
]]></style>
<script type="application/ecmascript" xlink:href="svg.min.js"/>
<svg id="graph" class="graph">
<g id="graph0" class="graph" transform="scale(1 1) rotate(0) translate(4 101)">
<title>JKQTMathTextMultiChildNode</title>
<!-- Node1 -->
<g id="Node000001" class="node">
<title>Node1</title>
<g id="a_Node000001"><a xlink:title="subclass representing a node in the syntax tree, that has two children">
<polygon fill="#999999" stroke="#666666" points="188,-21 0,-21 0,0 188,0 188,-21"/>
<text text-anchor="middle" x="94" y="-7.4" font-family="Helvetica,sans-Serif" font-size="12.00">JKQTMathTextMultiChildNode</text>
</a>
</g>
</g>
<!-- Node2 -->
<g id="Node000002" class="node">
<title>Node2</title>
<g id="a_Node000002"><a xlink:href="class_j_k_q_t_math_text_node.html" target="_top" xlink:title="subclass representing one node in the syntax tree">
<polygon fill="white" stroke="#666666" points="192.5,-97 61.5,-97 61.5,-76 192.5,-76 192.5,-97"/>
<text text-anchor="middle" x="127" y="-83.4" font-family="Helvetica,sans-Serif" font-size="12.00">JKQTMathTextNode</text>
</a>
</g>
</g>
<!-- Node2&#45;&gt;Node1 -->
<g id="edge1_Node000001_Node000002" class="edge">
<title>Node2&#45;&gt;Node1</title>
<g id="a_edge1_Node000001_Node000002"><a xlink:title=" ">
<path fill="none" stroke="#63b8ff" d="M113.3,-67.34C111.36,-64.31 109.51,-61.14 108,-58 102.15,-45.84 98.14,-30.72 95.96,-21.08"/>
<polygon fill="#63b8ff" stroke="#63b8ff" points="110.58,-69.57 119.17,-75.78 116.33,-65.57 110.58,-69.57"/>
</a>
</g>
</g>
<!-- Node2&#45;&gt;Node2 -->
<g id="edge6_Node000002_Node000002" class="edge">
<title>Node2&#45;&gt;Node2</title>
<g id="a_edge6_Node000002_Node000002"><a xlink:title=" ">
<path fill="none" stroke="#9a32cd" stroke-dasharray="5,2" d="M203.02,-91.46C207.69,-90.29 210.5,-88.63 210.5,-86.5 210.5,-83.09 203.31,-80.9 192.81,-79.94"/>
<polygon fill="#9a32cd" stroke="#9a32cd" points="202.15,-88.06 192.81,-93.06 203.23,-94.97 202.15,-88.06"/>
</a>
</g>
<text text-anchor="start" x="214" y="-82.9" font-family="Helvetica,sans-Serif" font-size="12.00" fill="grey">parentNode</text>
</g>
<!-- Node3 -->
<g id="Node000003" class="node">
<title>Node3</title>
<g id="a_Node000003"><a xlink:href="class_j_k_q_t_math_text.html" target="_top" xlink:title="this class parses a mathematical markup string and can then draw the contained text/equation onto a Q...">
<polygon fill="white" stroke="#666666" points="349.5,-21 250.5,-21 250.5,0 349.5,0 349.5,-21"/>
<text text-anchor="middle" x="300" y="-7.4" font-family="Helvetica,sans-Serif" font-size="12.00">JKQTMathText</text>
</a>
</g>
</g>
<!-- Node2&#45;&gt;Node3 -->
<g id="edge4_Node000003_Node000002" class="edge">
<title>Node2&#45;&gt;Node3</title>
<g id="a_edge4_Node000003_Node000002"><a xlink:title=" ">
<path fill="none" stroke="#9a32cd" stroke-dasharray="5,2" d="M119.91,-65.82C117.95,-56.68 117.8,-46.24 124,-39 132.19,-29.43 201.31,-20.89 250.44,-15.96"/>
<polygon fill="#9a32cd" stroke="#9a32cd" points="116.63,-67.08 122.77,-75.71 123.35,-65.13 116.63,-67.08"/>
</a>
</g>
<text text-anchor="start" x="127.5" y="-44.9" font-family="Helvetica,sans-Serif" font-size="12.00" fill="grey">parsedNode</text>
</g>
<!-- Node3&#45;&gt;Node2 -->
<g id="edge2_Node000002_Node000003" class="edge">
<title>Node3&#45;&gt;Node2</title>
<g id="a_edge2_Node000002_Node000003"><a xlink:title=" ">
<path fill="none" stroke="#9a32cd" stroke-dasharray="5,2" d="M255.49,-24.51C245.4,-28.41 235,-33.22 226,-39 215.95,-45.45 217.13,-51.67 207,-58 194.54,-65.78 179.61,-71.68 166.04,-75.98"/>
<polygon fill="#9a32cd" stroke="#9a32cd" points="256.82,-27.76 265.03,-21.06 254.43,-21.17 256.82,-27.76"/>
</a>
</g>
<text text-anchor="start" x="229" y="-44.9" font-family="Helvetica,sans-Serif" font-size="12.00" fill="grey">parentMathText</text>
</g>
<!-- Node4 -->
<g id="Node000004" class="node">
<title>Node4</title>
<g id="a_Node000004"><a xlink:title=" ">
<polygon fill="white" stroke="#666666" points="376.5,-97 311.5,-97 311.5,-76 376.5,-76 376.5,-97"/>
<text text-anchor="middle" x="344" y="-83.4" font-family="Helvetica,sans-Serif" font-size="12.00">QObject</text>
</a>
</g>
</g>
<!-- Node4&#45;&gt;Node3 -->
<g id="edge3_Node000003_Node000004" class="edge">
<title>Node4&#45;&gt;Node3</title>
<g id="a_edge3_Node000003_Node000004"><a xlink:title=" ">
<path fill="none" stroke="#63b8ff" d="M340.57,-65.94C338.44,-57.23 335.11,-47.13 330,-39 325.72,-32.18 319.3,-25.98 313.5,-21.2"/>
<polygon fill="#63b8ff" stroke="#63b8ff" points="337.19,-66.9 342.66,-75.97 344.04,-65.47 337.19,-66.9"/>
</a>
</g>
</g>
<!-- Node5 -->
<g id="Node000005" class="node">
<title>Node5</title>
<g id="a_Node000005"><a xlink:title=" ">
<polygon fill="white" stroke="#666666" points="475,-97 395,-97 395,-76 475,-76 475,-97"/>
<text text-anchor="middle" x="435" y="-83.4" font-family="Helvetica,sans-Serif" font-size="12.00">std::mutex</text>
</a>
</g>
</g>
<!-- Node5&#45;&gt;Node3 -->
<g id="edge5_Node000003_Node000005" class="edge">
<title>Node5&#45;&gt;Node3</title>
<g id="a_edge5_Node000003_Node000005"><a xlink:title=" ">
<path fill="none" stroke="#9a32cd" stroke-dasharray="5,2" d="M408.78,-71.13C381.94,-56.42 340.98,-33.96 317.73,-21.22"/>
<polygon fill="#9a32cd" stroke="#9a32cd" points="407.18,-74.24 417.63,-75.98 410.54,-68.1 407.18,-74.24"/>
</a>
</g>
<text text-anchor="start" x="386.5" y="-44.9" font-family="Helvetica,sans-Serif" font-size="12.00" fill="grey">s_mutex</text>
</g>
</g>
</svg>
</svg>

<style type='text/css'>
<![CDATA[
[data-mouse-over-selected='false'] { opacity: 0.7; }
[data-mouse-over-selected='true']  { opacity: 1.0; }
]]>
</style>
<script type="application/ecmascript"><![CDATA[
document.addEventListener('DOMContentLoaded', (event) => {
  highlightEdges();
  highlightAdjacentNodes();
});
]]></script>
</svg>
