<?xml version="1.0" encoding="UTF-8" standalone="no"?>
<!DOCTYPE svg PUBLIC "-//W3C//DTD SVG 1.1//EN"
 "http://www.w3.org/Graphics/SVG/1.1/DTD/svg11.dtd">
<!-- Generated by graphviz version 2.43.0 (0)
 -->
<!-- Title: JKQTMathTextModifiedEnvironmentInstructionNode Pages: 1 -->
<svg width="591pt" height="189pt"
 viewBox="0.00 0.00 590.50 189.00" xmlns="http://www.w3.org/2000/svg" xmlns:xlink="http://www.w3.org/1999/xlink">
<g id="graph0" class="graph" transform="scale(1 1) rotate(0) translate(4 185)">
<title>JKQTMathTextModifiedEnvironmentInstructionNode</title>
<!-- Node1 -->
<g id="Node000001" class="node">
<title>Node1</title>
<g id="a_Node000001"><a xlink:title="subclass representing an instruction node which modify the current JKQTMathTextEnvironment,...">
<polygon fill="#999999" stroke="#666666" points="408.5,-34 182.5,-34 182.5,0 408.5,0 408.5,-34"/>
<text text-anchor="start" x="190.5" y="-20.4" font-family="Helvetica,sans-Serif" font-size="12.00">JKQTMathTextModifiedEnvironment</text>
<text text-anchor="middle" x="295.5" y="-7.4" font-family="Helvetica,sans-Serif" font-size="12.00">InstructionNode</text>
</a>
</g>
</g>
<!-- Node2 -->
<g id="Node000002" class="node">
<title>Node2</title>
<g id="a_Node000002"><a xlink:href="class_j_k_q_t_math_text_non_drawing_base_node.html" target="_top" xlink:title="base class for all derived classes that do not draw anything">
<polygon fill="white" stroke="#666666" points="233,-98.5 0,-98.5 0,-77.5 233,-77.5 233,-98.5"/>
<text text-anchor="middle" x="116.5" y="-84.9" font-family="Helvetica,sans-Serif" font-size="12.00">JKQTMathTextNonDrawingBaseNode</text>
</a>
</g>
</g>
<!-- Node2&#45;&gt;Node1 -->
<g id="edge1_Node000001_Node000002" class="edge">
<title>Node2&#45;&gt;Node1</title>
<g id="a_edge1_Node000001_Node000002"><a xlink:title=" ">
<path fill="none" stroke="#63b8ff" d="M150.83,-73.77C180.23,-62.43 222.67,-46.08 253.98,-34.01"/>
<polygon fill="#63b8ff" stroke="#63b8ff" points="149.46,-70.54 141.39,-77.41 151.98,-77.07 149.46,-70.54"/>
</a>
</g>
</g>
<!-- Node3 -->
<g id="Node000003" class="node">
<title>Node3</title>
<g id="a_Node000003"><a xlink:href="class_j_k_q_t_math_text_node.html" target="_top" xlink:title="subclass representing one node in the syntax tree">
<polygon fill="white" stroke="#666666" points="215,-181 84,-181 84,-160 215,-160 215,-181"/>
<text text-anchor="middle" x="149.5" y="-167.4" font-family="Helvetica,sans-Serif" font-size="12.00">JKQTMathTextNode</text>
</a>
</g>
</g>
<!-- Node3&#45;&gt;Node2 -->
<g id="edge2_Node000002_Node000003" class="edge">
<title>Node3&#45;&gt;Node2</title>
<g id="a_edge2_Node000002_Node000003"><a xlink:title=" ">
<path fill="none" stroke="#63b8ff" d="M135.7,-151.39C133.77,-148.35 131.96,-145.16 130.5,-142 123.89,-127.65 119.97,-109.62 118.02,-98.72"/>
<polygon fill="#63b8ff" stroke="#63b8ff" points="132.99,-153.61 141.58,-159.82 138.73,-149.61 132.99,-153.61"/>
</a>
</g>
</g>
<!-- Node3&#45;&gt;Node3 -->
<g id="edge7_Node000003_Node000003" class="edge">
<title>Node3&#45;&gt;Node3</title>
<g id="a_edge7_Node000003_Node000003"><a xlink:title=" ">
<path fill="none" stroke="#9a32cd" stroke-dasharray="5,2" d="M225.52,-175.46C230.19,-174.29 233,-172.63 233,-170.5 233,-167.09 225.81,-164.9 215.31,-163.94"/>
<polygon fill="#9a32cd" stroke="#9a32cd" points="224.65,-172.06 215.31,-177.06 225.73,-178.97 224.65,-172.06"/>
</a>
</g>
<text text-anchor="start" x="236.5" y="-166.9" font-family="Helvetica,sans-Serif" font-size="12.00" fill="grey">parentNode</text>
</g>
<!-- Node4 -->
<g id="Node000004" class="node">
<title>Node4</title>
<g id="a_Node000004"><a xlink:href="class_j_k_q_t_math_text.html" target="_top" xlink:title="this class parses a mathematical markup string and can then draw the contained text/equation onto a Q...">
<polygon fill="white" stroke="#666666" points="350,-98.5 251,-98.5 251,-77.5 350,-77.5 350,-98.5"/>
<text text-anchor="middle" x="300.5" y="-84.9" font-family="Helvetica,sans-Serif" font-size="12.00">JKQTMathText</text>
</a>
</g>
</g>
<!-- Node3&#45;&gt;Node4 -->
<g id="edge5_Node000004_Node000003" class="edge">
<title>Node3&#45;&gt;Node4</title>
<g id="a_edge5_Node000004_Node000003"><a xlink:title=" ">
<path fill="none" stroke="#9a32cd" stroke-dasharray="5,2" d="M142.51,-149.91C140.57,-140.78 140.42,-130.34 146.5,-123 173.91,-89.91 199.62,-114.63 241.5,-105 249.88,-103.07 258.86,-100.76 267.23,-98.51"/>
<polygon fill="#9a32cd" stroke="#9a32cd" points="139.21,-151.11 145.34,-159.76 145.94,-149.18 139.21,-151.11"/>
</a>
</g>
<text text-anchor="start" x="150" y="-128.9" font-family="Helvetica,sans-Serif" font-size="12.00" fill="grey">parsedNode</text>
</g>
<!-- Node4&#45;&gt;Node3 -->
<g id="edge3_Node000003_Node000004" class="edge">
<title>Node4&#45;&gt;Node3</title>
<g id="a_edge3_Node000003_Node000004"><a xlink:title=" ">
<path fill="none" stroke="#9a32cd" stroke-dasharray="5,2" d="M275.29,-104C266.53,-109.6 256.83,-116.24 248.5,-123 239.23,-130.53 239.63,-135.67 229.5,-142 217.04,-149.78 202.11,-155.68 188.54,-159.98"/>
<polygon fill="#9a32cd" stroke="#9a32cd" points="277.33,-106.85 283.97,-98.6 273.63,-100.91 277.33,-106.85"/>
</a>
</g>
<text text-anchor="start" x="251.5" y="-128.9" font-family="Helvetica,sans-Serif" font-size="12.00" fill="grey">parentMathText</text>
</g>
<!-- Node5 -->
<g id="Node000005" class="node">
<title>Node5</title>
<g id="a_Node000005"><a xlink:title=" ">
<polygon fill="white" stroke="#666666" points="399,-181 334,-181 334,-160 399,-160 399,-181"/>
<text text-anchor="middle" x="366.5" y="-167.4" font-family="Helvetica,sans-Serif" font-size="12.00">QObject</text>
</a>
</g>
</g>
<!-- Node5&#45;&gt;Node4 -->
<g id="edge4_Node000004_Node000005" class="edge">
<title>Node5&#45;&gt;Node4</title>
<g id="a_edge4_Node000004_Node000005"><a xlink:title=" ">
<path fill="none" stroke="#63b8ff" d="M363.73,-149.83C361.73,-140.97 358.31,-130.78 352.5,-123 344.62,-112.46 332.44,-104.25 321.85,-98.53"/>
<polygon fill="#63b8ff" stroke="#63b8ff" points="360.3,-150.51 365.53,-159.72 367.18,-149.25 360.3,-150.51"/>
</a>
</g>
</g>
<!-- Node6 -->
<g id="Node000006" class="node">
<title>Node6</title>
<g id="a_Node000006"><a xlink:title=" ">
<polygon fill="white" stroke="#666666" points="497.5,-181 417.5,-181 417.5,-160 497.5,-160 497.5,-181"/>
<text text-anchor="middle" x="457.5" y="-167.4" font-family="Helvetica,sans-Serif" font-size="12.00">std::mutex</text>
</a>
</g>
</g>
<!-- Node6&#45;&gt;Node4 -->
<g id="edge6_Node000004_Node000006" class="edge">
<title>Node6&#45;&gt;Node4</title>
<g id="a_edge6_Node000004_Node000006"><a xlink:title=" ">
<path fill="none" stroke="#9a32cd" stroke-dasharray="5,2" d="M431.71,-155.13C414.72,-145.76 391.92,-133.4 371.5,-123 354.69,-114.44 335.38,-105.23 321.14,-98.56"/>
<polygon fill="#9a32cd" stroke="#9a32cd" points="430.05,-158.21 440.5,-159.99 433.44,-152.08 430.05,-158.21"/>
</a>
</g>
<text text-anchor="start" x="411" y="-128.9" font-family="Helvetica,sans-Serif" font-size="12.00" fill="grey">s_mutex</text>
</g>
<!-- Node7 -->
<g id="Node000007" class="node">
<title>Node7</title>
<g id="a_Node000007"><a xlink:href="class_j_k_q_t_math_text_modify_environment_node_mix_in.html" target="_top" xlink:title="mixin extending a node that does not produce any output, but provides a function modifyEnvironment() ...">
<polygon fill="white" stroke="#666666" points="582.5,-105 368.5,-105 368.5,-71 582.5,-71 582.5,-105"/>
<text text-anchor="start" x="376.5" y="-91.4" font-family="Helvetica,sans-Serif" font-size="12.00">JKQTMathTextModifyEnvironment</text>
<text text-anchor="middle" x="475.5" y="-78.4" font-family="Helvetica,sans-Serif" font-size="12.00">NodeMixIn</text>
</a>
</g>
</g>
<!-- Node7&#45;&gt;Node1 -->
<g id="edge8_Node000001_Node000007" class="edge">
<title>Node7&#45;&gt;Node1</title>
<g id="a_edge8_Node000001_Node000007"><a xlink:title=" ">
<path fill="none" stroke="#63b8ff" d="M424.29,-67.37C396.77,-56.82 363.27,-43.98 337.33,-34.04"/>
<polygon fill="#63b8ff" stroke="#63b8ff" points="423.16,-70.69 433.75,-71 425.67,-64.15 423.16,-70.69"/>
</a>
</g>
</g>
</g>
</svg>
