<?xml version="1.0" encoding="UTF-8" standalone="no"?>
<!DOCTYPE svg PUBLIC "-//W3C//DTD SVG 1.1//EN"
 "http://www.w3.org/Graphics/SVG/1.1/DTD/svg11.dtd">
<!-- Generated by graphviz version 2.43.0 (0)
 -->
<!-- Title: JKQTPRGBMathImage Pages: 1 -->
<svg width="200pt" height="371pt"
 viewBox="0.00 0.00 200.00 371.00" xmlns="http://www.w3.org/2000/svg" xmlns:xlink="http://www.w3.org/1999/xlink">

<svg id="main" version="1.1" xmlns="http://www.w3.org/2000/svg" xmlns:xlink="http://www.w3.org/1999/xlink" xml:space="preserve">

<style type="text/css"><![CDATA[
.node, .edge {opacity: 0.7;}
.node.selected, .edge.selected {opacity: 1;}
.edge:hover path { stroke: red; }
.edge:hover polygon { stroke: red; fill: red; }
]]></style>
<script type="application/ecmascript" xlink:href="svg.min.js"/>
<svg id="graph" class="graph">
<g id="graph0" class="graph" transform="scale(1 1) rotate(0) translate(4 367)">
<title>JKQTPRGBMathImage</title>
<!-- Node1 -->
<g id="Node000001" class="node">
<title>Node1</title>
<g id="a_Node000001"><a xlink:title="class to plot an image from an 2&#45;dimensional array of RGB values">
<polygon fill="#999999" stroke="#666666" points="169,-78 23,-78 23,-57 169,-57 169,-78"/>
<text text-anchor="middle" x="96" y="-64.4" font-family="Helvetica,sans-Serif" font-size="12.00">JKQTPRGBMathImage</text>
</a>
</g>
</g>
<!-- Node7 -->
<g id="Node000007" class="node">
<title>Node7</title>
<g id="a_Node000007"><a xlink:href="class_j_k_q_t_p_column_r_g_b_math_image.html" target="_top" xlink:title="like JKQTPRGBMathImage but reads images from columns of the datastore">
<polygon fill="white" stroke="#666666" points="192,-21 0,-21 0,0 192,0 192,-21"/>
<text text-anchor="middle" x="96" y="-7.4" font-family="Helvetica,sans-Serif" font-size="12.00">JKQTPColumnRGBMathImage</text>
</a>
</g>
</g>
<!-- Node1&#45;&gt;Node7 -->
<g id="edge6_Node000001_Node000007" class="edge">
<title>Node1&#45;&gt;Node7</title>
<g id="a_edge6_Node000001_Node000007"><a xlink:title=" ">
<path fill="none" stroke="#63b8ff" d="M96,-46.86C96,-38.2 96,-28.42 96,-21.34"/>
<polygon fill="#63b8ff" stroke="#63b8ff" points="92.5,-46.92 96,-56.92 99.5,-46.92 92.5,-46.92"/>
</a>
</g>
</g>
<!-- Node2 -->
<g id="Node000002" class="node">
<title>Node2</title>
<g id="a_Node000002"><a xlink:href="class_j_k_q_t_p_math_image_base.html" target="_top" xlink:title="base class to hold an image from an 2&#45;dimensional array of values">
<polygon fill="white" stroke="#666666" points="171,-135 21,-135 21,-114 171,-114 171,-135"/>
<text text-anchor="middle" x="96" y="-121.4" font-family="Helvetica,sans-Serif" font-size="12.00">JKQTPMathImageBase</text>
</a>
</g>
</g>
<!-- Node2&#45;&gt;Node1 -->
<g id="edge1_Node000001_Node000002" class="edge">
<title>Node2&#45;&gt;Node1</title>
<g id="a_edge1_Node000001_Node000002"><a xlink:title=" ">
<path fill="none" stroke="#63b8ff" d="M96,-103.86C96,-95.2 96,-85.42 96,-78.34"/>
<polygon fill="#63b8ff" stroke="#63b8ff" points="92.5,-103.92 96,-113.92 99.5,-103.92 92.5,-103.92"/>
</a>
</g>
</g>
<!-- Node3 -->
<g id="Node000003" class="node">
<title>Node3</title>
<g id="a_Node000003"><a xlink:href="class_j_k_q_t_p_image_base.html" target="_top" xlink:title="base class for plotting an image">
<polygon fill="white" stroke="#666666" points="156,-192 36,-192 36,-171 156,-171 156,-192"/>
<text text-anchor="middle" x="96" y="-178.4" font-family="Helvetica,sans-Serif" font-size="12.00">JKQTPImageBase</text>
</a>
</g>
</g>
<!-- Node3&#45;&gt;Node2 -->
<g id="edge2_Node000002_Node000003" class="edge">
<title>Node3&#45;&gt;Node2</title>
<g id="a_edge2_Node000002_Node000003"><a xlink:title=" ">
<path fill="none" stroke="#63b8ff" d="M96,-160.86C96,-152.2 96,-142.42 96,-135.34"/>
<polygon fill="#63b8ff" stroke="#63b8ff" points="92.5,-160.92 96,-170.92 99.5,-160.92 92.5,-160.92"/>
</a>
</g>
</g>
<!-- Node4 -->
<g id="Node000004" class="node">
<title>Node4</title>
<g id="a_Node000004"><a xlink:href="class_j_k_q_t_p_graph.html" target="_top" xlink:title="this virtual base class of the (data&#45;column based) graphs, which are part of a JKQTPlotter plot and w...">
<polygon fill="white" stroke="#666666" points="140.5,-249 51.5,-249 51.5,-228 140.5,-228 140.5,-249"/>
<text text-anchor="middle" x="96" y="-235.4" font-family="Helvetica,sans-Serif" font-size="12.00">JKQTPGraph</text>
</a>
</g>
</g>
<!-- Node4&#45;&gt;Node3 -->
<g id="edge3_Node000003_Node000004" class="edge">
<title>Node4&#45;&gt;Node3</title>
<g id="a_edge3_Node000003_Node000004"><a xlink:title=" ">
<path fill="none" stroke="#63b8ff" d="M96,-217.86C96,-209.2 96,-199.42 96,-192.34"/>
<polygon fill="#63b8ff" stroke="#63b8ff" points="92.5,-217.92 96,-227.92 99.5,-217.92 92.5,-217.92"/>
</a>
</g>
</g>
<!-- Node5 -->
<g id="Node000005" class="node">
<title>Node5</title>
<g id="a_Node000005"><a xlink:href="class_j_k_q_t_p_plot_element.html" target="_top" xlink:title="this virtual base class of every element, which is part of a JKQTPlotter plot and may appear in its k...">
<polygon fill="white" stroke="#666666" points="158.5,-306 33.5,-306 33.5,-285 158.5,-285 158.5,-306"/>
<text text-anchor="middle" x="96" y="-292.4" font-family="Helvetica,sans-Serif" font-size="12.00">JKQTPPlotElement</text>
</a>
</g>
</g>
<!-- Node5&#45;&gt;Node4 -->
<g id="edge4_Node000004_Node000005" class="edge">
<title>Node5&#45;&gt;Node4</title>
<g id="a_edge4_Node000004_Node000005"><a xlink:title=" ">
<path fill="none" stroke="#63b8ff" d="M96,-274.86C96,-266.2 96,-256.42 96,-249.34"/>
<polygon fill="#63b8ff" stroke="#63b8ff" points="92.5,-274.92 96,-284.92 99.5,-274.92 92.5,-274.92"/>
</a>
</g>
</g>
<!-- Node6 -->
<g id="Node000006" class="node">
<title>Node6</title>
<g id="a_Node000006"><a xlink:title=" ">
<polygon fill="white" stroke="#666666" points="128.5,-363 63.5,-363 63.5,-342 128.5,-342 128.5,-363"/>
<text text-anchor="middle" x="96" y="-349.4" font-family="Helvetica,sans-Serif" font-size="12.00">QObject</text>
</a>
</g>
</g>
<!-- Node6&#45;&gt;Node5 -->
<g id="edge5_Node000005_Node000006" class="edge">
<title>Node6&#45;&gt;Node5</title>
<g id="a_edge5_Node000005_Node000006"><a xlink:title=" ">
<path fill="none" stroke="#63b8ff" d="M96,-331.86C96,-323.2 96,-313.42 96,-306.34"/>
<polygon fill="#63b8ff" stroke="#63b8ff" points="92.5,-331.92 96,-341.92 99.5,-331.92 92.5,-331.92"/>
</a>
</g>
</g>
</g>
</svg>
</svg>

<style type='text/css'>
<![CDATA[
[data-mouse-over-selected='false'] { opacity: 0.7; }
[data-mouse-over-selected='true']  { opacity: 1.0; }
]]>
</style>
<script type="application/ecmascript"><![CDATA[
document.addEventListener('DOMContentLoaded', (event) => {
  highlightEdges();
  highlightAdjacentNodes();
});
]]></script>
</svg>
