<?xml version="1.0" encoding="UTF-8" standalone="no"?>
<!DOCTYPE svg PUBLIC "-//W3C//DTD SVG 1.1//EN"
 "http://www.w3.org/Graphics/SVG/1.1/DTD/svg11.dtd">
<!-- Generated by graphviz version 2.43.0 (0)
 -->
<!-- Title: JKQTPGraphValueLabelStyleMixin Pages: 1 -->
<svg width="556pt" height="99pt"
 viewBox="0.00 0.00 555.50 99.00" xmlns="http://www.w3.org/2000/svg" xmlns:xlink="http://www.w3.org/1999/xlink">
<g id="graph0" class="graph" transform="scale(1 1) rotate(0) translate(4 95)">
<title>JKQTPGraphValueLabelStyleMixin</title>
<!-- Node1 -->
<g id="Node000001" class="node">
<title>Node1</title>
<g id="a_Node000001"><a xlink:title="This Mix&#45;In class provides setter/getter methods, storage and other facilities for value labels in gr...">
<polygon fill="#999999" stroke="#666666" points="370.5,-34 186.5,-34 186.5,0 370.5,0 370.5,-34"/>
<text text-anchor="start" x="194.5" y="-20.4" font-family="Helvetica,sans-Serif" font-size="12.00">JKQTPGraphValueLabelStyle</text>
<text text-anchor="middle" x="278.5" y="-7.4" font-family="Helvetica,sans-Serif" font-size="12.00">Mixin</text>
</a>
</g>
</g>
<!-- Node2 -->
<g id="Node000002" class="node">
<title>Node2</title>
<g id="a_Node000002"><a xlink:href="class_j_k_q_t_p_graph_text_style_mixin.html" target="_top" xlink:title="This Mix&#45;In class provides setter/getter methods, storage and other facilities for text in graphs.">
<polygon fill="white" stroke="#666666" points="173,-91 0,-91 0,-70 173,-70 173,-91"/>
<text text-anchor="middle" x="86.5" y="-77.4" font-family="Helvetica,sans-Serif" font-size="12.00">JKQTPGraphTextStyleMixin</text>
</a>
</g>
</g>
<!-- Node2&#45;&gt;Node1 -->
<g id="edge1_Node000001_Node000002" class="edge">
<title>Node2&#45;&gt;Node1</title>
<g id="a_edge1_Node000001_Node000002"><a xlink:title=" ">
<path fill="none" stroke="#63b8ff" d="M126.08,-66.82C155.65,-57.35 196.3,-44.33 228.18,-34.12"/>
<polygon fill="#63b8ff" stroke="#63b8ff" points="124.96,-63.51 116.5,-69.89 127.09,-70.17 124.96,-63.51"/>
</a>
</g>
</g>
<!-- Node3 -->
<g id="Node000003" class="node">
<title>Node3</title>
<g id="a_Node000003"><a xlink:href="class_j_k_q_t_p_graph_line_style_mixin.html" target="_top" xlink:title="This Mix&#45;In class provides setter/getter methods, storage and other facilities for the graph line sty...">
<polygon fill="white" stroke="#666666" points="365.5,-91 191.5,-91 191.5,-70 365.5,-70 365.5,-91"/>
<text text-anchor="middle" x="278.5" y="-77.4" font-family="Helvetica,sans-Serif" font-size="12.00">JKQTPGraphLineStyleMixin</text>
</a>
</g>
</g>
<!-- Node3&#45;&gt;Node1 -->
<g id="edge2_Node000001_Node000003" class="edge">
<title>Node3&#45;&gt;Node1</title>
<g id="a_edge2_Node000001_Node000003"><a xlink:title=" ">
<path fill="none" stroke="#63b8ff" d="M278.5,-59.77C278.5,-51.61 278.5,-42.26 278.5,-34.48"/>
<polygon fill="#63b8ff" stroke="#63b8ff" points="275,-59.89 278.5,-69.89 282,-59.89 275,-59.89"/>
</a>
</g>
</g>
<!-- Node4 -->
<g id="Node000004" class="node">
<title>Node4</title>
<g id="a_Node000004"><a xlink:href="class_j_k_q_t_p_graph_fill_style_mixin.html" target="_top" xlink:title="This Mix&#45;In class provides setter/getter methods, storage and other facilities for the graph filling ...">
<polygon fill="white" stroke="#666666" points="547.5,-91 383.5,-91 383.5,-70 547.5,-70 547.5,-91"/>
<text text-anchor="middle" x="465.5" y="-77.4" font-family="Helvetica,sans-Serif" font-size="12.00">JKQTPGraphFillStyleMixin</text>
</a>
</g>
</g>
<!-- Node4&#45;&gt;Node1 -->
<g id="edge3_Node000001_Node000004" class="edge">
<title>Node4&#45;&gt;Node1</title>
<g id="a_edge3_Node000001_Node000004"><a xlink:title=" ">
<path fill="none" stroke="#63b8ff" d="M426.58,-66.7C397.81,-57.24 358.43,-44.29 327.51,-34.12"/>
<polygon fill="#63b8ff" stroke="#63b8ff" points="425.69,-70.09 436.28,-69.89 427.88,-63.44 425.69,-70.09"/>
</a>
</g>
</g>
</g>
</svg>
