<?xml version="1.0" encoding="UTF-8" standalone="no"?>
<!DOCTYPE svg PUBLIC "-//W3C//DTD SVG 1.1//EN"
 "http://www.w3.org/Graphics/SVG/1.1/DTD/svg11.dtd">
<!-- Generated by graphviz version 2.43.0 (0)
 -->
<!-- Title: JKQTPXYGraphErrors Pages: 1 -->
<svg width="533pt" height="86pt"
 viewBox="0.00 0.00 533.00 86.00" xmlns="http://www.w3.org/2000/svg" xmlns:xlink="http://www.w3.org/1999/xlink">
<g id="graph0" class="graph" transform="scale(1 1) rotate(0) translate(4 82)">
<title>JKQTPXYGraphErrors</title>
<!-- Node1 -->
<g id="Node000001" class="node">
<title>Node1</title>
<g id="a_Node000001"><a xlink:title="This class is the base class for graphs that only display error indicators in x&#45; and y&#45;direction.">
<polygon fill="#999999" stroke="#666666" points="320.5,-21 180.5,-21 180.5,0 320.5,0 320.5,-21"/>
<text text-anchor="middle" x="250.5" y="-7.4" font-family="Helvetica,sans-Serif" font-size="12.00">JKQTPXYGraphErrors</text>
</a>
</g>
</g>
<!-- Node2 -->
<g id="Node000002" class="node">
<title>Node2</title>
<g id="a_Node000002"><a xlink:href="class_j_k_q_t_p_x_graph_error_data.html" target="_top" xlink:title="This class adds data fields for error indicators in x direction.">
<polygon fill="white" stroke="#666666" points="155,-78 0,-78 0,-57 155,-57 155,-78"/>
<text text-anchor="middle" x="77.5" y="-64.4" font-family="Helvetica,sans-Serif" font-size="12.00">JKQTPXGraphErrorData</text>
</a>
</g>
</g>
<!-- Node2&#45;&gt;Node1 -->
<g id="edge1_Node000001_Node000002" class="edge">
<title>Node2&#45;&gt;Node1</title>
<g id="a_edge1_Node000001_Node000002"><a xlink:title=" ">
<path fill="none" stroke="#63b8ff" d="M117.39,-53.82C148.79,-43.84 191.88,-30.14 220.42,-21.06"/>
<polygon fill="#63b8ff" stroke="#63b8ff" points="116.1,-50.55 107.63,-56.92 118.22,-57.23 116.1,-50.55"/>
</a>
</g>
</g>
<!-- Node3 -->
<g id="Node000003" class="node">
<title>Node3</title>
<g id="a_Node000003"><a xlink:href="class_j_k_q_t_p_y_graph_error_data.html" target="_top" xlink:title="This class adds data fields for error indicators in y direction.">
<polygon fill="white" stroke="#666666" points="327.5,-78 173.5,-78 173.5,-57 327.5,-57 327.5,-78"/>
<text text-anchor="middle" x="250.5" y="-64.4" font-family="Helvetica,sans-Serif" font-size="12.00">JKQTPYGraphErrorData</text>
</a>
</g>
</g>
<!-- Node3&#45;&gt;Node1 -->
<g id="edge2_Node000001_Node000003" class="edge">
<title>Node3&#45;&gt;Node1</title>
<g id="a_edge2_Node000001_Node000003"><a xlink:title=" ">
<path fill="none" stroke="#63b8ff" d="M250.5,-46.86C250.5,-38.2 250.5,-28.42 250.5,-21.34"/>
<polygon fill="#63b8ff" stroke="#63b8ff" points="247,-46.92 250.5,-56.92 254,-46.92 247,-46.92"/>
</a>
</g>
</g>
<!-- Node4 -->
<g id="Node000004" class="node">
<title>Node4</title>
<g id="a_Node000004"><a xlink:href="class_j_k_q_t_p_graph_error_style_mixin.html" target="_top" xlink:title="This mix&#45;in class assembles all styling properties applicable to error indicators.">
<polygon fill="white" stroke="#666666" points="525,-78 346,-78 346,-57 525,-57 525,-78"/>
<text text-anchor="middle" x="435.5" y="-64.4" font-family="Helvetica,sans-Serif" font-size="12.00">JKQTPGraphErrorStyleMixin</text>
</a>
</g>
</g>
<!-- Node4&#45;&gt;Node1 -->
<g id="edge3_Node000001_Node000004" class="edge">
<title>Node4&#45;&gt;Node1</title>
<g id="a_edge3_Node000001_Node000004"><a xlink:title=" ">
<path fill="none" stroke="#63b8ff" d="M393.28,-53.95C359.67,-43.96 313.32,-30.18 282.67,-21.06"/>
<polygon fill="#63b8ff" stroke="#63b8ff" points="392.69,-57.42 403.28,-56.92 394.69,-50.72 392.69,-57.42"/>
</a>
</g>
</g>
</g>
</svg>
