<?xml version="1.0" encoding="UTF-8" standalone="no"?>
<!DOCTYPE svg PUBLIC "-//W3C//DTD SVG 1.1//EN"
 "http://www.w3.org/Graphics/SVG/1.1/DTD/svg11.dtd">
<!-- Generated by graphviz version 2.43.0 (0)
 -->
<!-- Title: JKQTPParsedFunctionLineGraphBase Pages: 1 -->
<svg width="610pt" height="467pt"
 viewBox="0.00 0.00 610.00 467.00" xmlns="http://www.w3.org/2000/svg" xmlns:xlink="http://www.w3.org/1999/xlink">
<g id="graph0" class="graph" transform="scale(1 1) rotate(0) translate(4 463)">
<title>JKQTPParsedFunctionLineGraphBase</title>
<!-- Node1 -->
<g id="Node000001" class="node">
<title>Node1</title>
<g id="a_Node000001"><a xlink:title="extends JKQTPEvaluatedFunctionWithErrorsGraphDrawingBase with the capabilities to define functions fr...">
<polygon fill="#999999" stroke="#666666" points="338,-91 104,-91 104,-70 338,-70 338,-91"/>
<text text-anchor="middle" x="221" y="-77.4" font-family="Helvetica,sans-Serif" font-size="12.00">JKQTPParsedFunctionLineGraphBase</text>
</a>
</g>
</g>
<!-- Node11 -->
<g id="Node000011" class="node">
<title>Node11</title>
<g id="a_Node000011"><a xlink:href="class_j_k_q_t_p_x_parsed_function_line_graph.html" target="_top" xlink:title="This implements line plots where the data is taken from a user supplied function &#160;The function is def...">
<polygon fill="white" stroke="#666666" points="212,-34 36,-34 36,0 212,0 212,-34"/>
<text text-anchor="start" x="44" y="-20.4" font-family="Helvetica,sans-Serif" font-size="12.00">JKQTPXParsedFunctionLine</text>
<text text-anchor="middle" x="124" y="-7.4" font-family="Helvetica,sans-Serif" font-size="12.00">Graph</text>
</a>
</g>
</g>
<!-- Node1&#45;&gt;Node11 -->
<g id="edge10_Node000001_Node000011" class="edge">
<title>Node1&#45;&gt;Node11</title>
<g id="a_edge10_Node000001_Node000011"><a xlink:title=" ">
<path fill="none" stroke="#63b8ff" d="M197.02,-64.3C182.62,-55.16 164.3,-43.55 149.61,-34.24"/>
<polygon fill="#63b8ff" stroke="#63b8ff" points="195.52,-67.49 205.84,-69.89 199.27,-61.58 195.52,-67.49"/>
</a>
</g>
</g>
<!-- Node12 -->
<g id="Node000012" class="node">
<title>Node12</title>
<g id="a_Node000012"><a xlink:href="class_j_k_q_t_p_y_parsed_function_line_graph.html" target="_top" xlink:title="This implements line plots where the data is taken from a user supplied function &#160;The function is def...">
<polygon fill="white" stroke="#666666" points="405.5,-34 230.5,-34 230.5,0 405.5,0 405.5,-34"/>
<text text-anchor="start" x="238.5" y="-20.4" font-family="Helvetica,sans-Serif" font-size="12.00">JKQTPYParsedFunctionLine</text>
<text text-anchor="middle" x="318" y="-7.4" font-family="Helvetica,sans-Serif" font-size="12.00">Graph</text>
</a>
</g>
</g>
<!-- Node1&#45;&gt;Node12 -->
<g id="edge11_Node000001_Node000012" class="edge">
<title>Node1&#45;&gt;Node12</title>
<g id="a_edge11_Node000001_Node000012"><a xlink:title=" ">
<path fill="none" stroke="#63b8ff" d="M244.98,-64.3C259.38,-55.16 277.7,-43.55 292.39,-34.24"/>
<polygon fill="#63b8ff" stroke="#63b8ff" points="242.73,-61.58 236.16,-69.89 246.48,-67.49 242.73,-61.58"/>
</a>
</g>
</g>
<!-- Node2 -->
<g id="Node000002" class="node">
<title>Node2</title>
<g id="a_Node000002"><a xlink:href="class_j_k_q_t_p_evaluated_function_with_errors_graph_drawing_base.html" target="_top" xlink:title="This class extends JKQTPEvaluatedFunctionWithErrorsGraphBase with functions to draw the graphs and se...">
<polygon fill="white" stroke="#666666" points="315,-161 127,-161 127,-127 315,-127 315,-161"/>
<text text-anchor="start" x="135" y="-147.4" font-family="Helvetica,sans-Serif" font-size="12.00">JKQTPEvaluatedFunctionWith</text>
<text text-anchor="middle" x="221" y="-134.4" font-family="Helvetica,sans-Serif" font-size="12.00">ErrorsGraphDrawingBase</text>
</a>
</g>
</g>
<!-- Node2&#45;&gt;Node1 -->
<g id="edge1_Node000001_Node000002" class="edge">
<title>Node2&#45;&gt;Node1</title>
<g id="a_edge1_Node000001_Node000002"><a xlink:title=" ">
<path fill="none" stroke="#63b8ff" d="M221,-116.6C221,-107.51 221,-97.9 221,-91.04"/>
<polygon fill="#63b8ff" stroke="#63b8ff" points="217.5,-116.84 221,-126.84 224.5,-116.84 217.5,-116.84"/>
</a>
</g>
</g>
<!-- Node3 -->
<g id="Node000003" class="node">
<title>Node3</title>
<g id="a_Node000003"><a xlink:href="class_j_k_q_t_p_evaluated_function_with_errors_graph_base.html" target="_top" xlink:title="extends JKQTPEvaluatedFunctionGraphBase with some basic properties (e.g. function parameters) for a s...">
<polygon fill="white" stroke="#666666" points="214,-231 26,-231 26,-197 214,-197 214,-231"/>
<text text-anchor="start" x="34" y="-217.4" font-family="Helvetica,sans-Serif" font-size="12.00">JKQTPEvaluatedFunctionWith</text>
<text text-anchor="middle" x="120" y="-204.4" font-family="Helvetica,sans-Serif" font-size="12.00">ErrorsGraphBase</text>
</a>
</g>
</g>
<!-- Node3&#45;&gt;Node2 -->
<g id="edge2_Node000002_Node000003" class="edge">
<title>Node3&#45;&gt;Node2</title>
<g id="a_edge2_Node000002_Node000003"><a xlink:title=" ">
<path fill="none" stroke="#63b8ff" d="M152.57,-191.07C166.97,-181.37 183.62,-170.17 196.89,-161.24"/>
<polygon fill="#63b8ff" stroke="#63b8ff" points="150.28,-188.4 143.94,-196.88 154.19,-194.2 150.28,-188.4"/>
</a>
</g>
</g>
<!-- Node4 -->
<g id="Node000004" class="node">
<title>Node4</title>
<g id="a_Node000004"><a xlink:href="class_j_k_q_t_p_evaluated_function_graph_base.html" target="_top" xlink:title="Base class for graph classes that evaluate a mathematical function (e.g. defined as a C&#45;function),...">
<polygon fill="white" stroke="#666666" points="228,-288 0,-288 0,-267 228,-267 228,-288"/>
<text text-anchor="middle" x="114" y="-274.4" font-family="Helvetica,sans-Serif" font-size="12.00">JKQTPEvaluatedFunctionGraphBase</text>
</a>
</g>
</g>
<!-- Node4&#45;&gt;Node3 -->
<g id="edge3_Node000003_Node000004" class="edge">
<title>Node4&#45;&gt;Node3</title>
<g id="a_edge3_Node000003_Node000004"><a xlink:title=" ">
<path fill="none" stroke="#63b8ff" d="M115.93,-256.77C116.72,-248.61 117.63,-239.26 118.39,-231.48"/>
<polygon fill="#63b8ff" stroke="#63b8ff" points="112.43,-256.6 114.94,-266.89 119.39,-257.28 112.43,-256.6"/>
</a>
</g>
</g>
<!-- Node5 -->
<g id="Node000005" class="node">
<title>Node5</title>
<g id="a_Node000005"><a xlink:href="class_j_k_q_t_p_graph.html" target="_top" xlink:title="this virtual base class of the (data&#45;column based) graphs, which are part of a JKQTPlotter plot and w...">
<polygon fill="white" stroke="#666666" points="158.5,-345 69.5,-345 69.5,-324 158.5,-324 158.5,-345"/>
<text text-anchor="middle" x="114" y="-331.4" font-family="Helvetica,sans-Serif" font-size="12.00">JKQTPGraph</text>
</a>
</g>
</g>
<!-- Node5&#45;&gt;Node4 -->
<g id="edge4_Node000004_Node000005" class="edge">
<title>Node5&#45;&gt;Node4</title>
<g id="a_edge4_Node000004_Node000005"><a xlink:title=" ">
<path fill="none" stroke="#63b8ff" d="M114,-313.86C114,-305.2 114,-295.42 114,-288.34"/>
<polygon fill="#63b8ff" stroke="#63b8ff" points="110.5,-313.92 114,-323.92 117.5,-313.92 110.5,-313.92"/>
</a>
</g>
</g>
<!-- Node6 -->
<g id="Node000006" class="node">
<title>Node6</title>
<g id="a_Node000006"><a xlink:href="class_j_k_q_t_p_plot_element.html" target="_top" xlink:title="this virtual base class of every element, which is part of a JKQTPlotter plot and may appear in its k...">
<polygon fill="white" stroke="#666666" points="176.5,-402 51.5,-402 51.5,-381 176.5,-381 176.5,-402"/>
<text text-anchor="middle" x="114" y="-388.4" font-family="Helvetica,sans-Serif" font-size="12.00">JKQTPPlotElement</text>
</a>
</g>
</g>
<!-- Node6&#45;&gt;Node5 -->
<g id="edge5_Node000005_Node000006" class="edge">
<title>Node6&#45;&gt;Node5</title>
<g id="a_edge5_Node000005_Node000006"><a xlink:title=" ">
<path fill="none" stroke="#63b8ff" d="M114,-370.86C114,-362.2 114,-352.42 114,-345.34"/>
<polygon fill="#63b8ff" stroke="#63b8ff" points="110.5,-370.92 114,-380.92 117.5,-370.92 110.5,-370.92"/>
</a>
</g>
</g>
<!-- Node7 -->
<g id="Node000007" class="node">
<title>Node7</title>
<g id="a_Node000007"><a xlink:title=" ">
<polygon fill="white" stroke="#666666" points="146.5,-459 81.5,-459 81.5,-438 146.5,-438 146.5,-459"/>
<text text-anchor="middle" x="114" y="-445.4" font-family="Helvetica,sans-Serif" font-size="12.00">QObject</text>
</a>
</g>
</g>
<!-- Node7&#45;&gt;Node6 -->
<g id="edge6_Node000006_Node000007" class="edge">
<title>Node7&#45;&gt;Node6</title>
<g id="a_edge6_Node000006_Node000007"><a xlink:title=" ">
<path fill="none" stroke="#63b8ff" d="M114,-427.86C114,-419.2 114,-409.42 114,-402.34"/>
<polygon fill="#63b8ff" stroke="#63b8ff" points="110.5,-427.92 114,-437.92 117.5,-427.92 110.5,-427.92"/>
</a>
</g>
</g>
<!-- Node8 -->
<g id="Node000008" class="node">
<title>Node8</title>
<g id="a_Node000008"><a xlink:href="class_j_k_q_t_p_graph_line_and_fill_style_mixin.html" target="_top" xlink:title="This Mix&#45;In class provides setter/getter methods, storage and other facilities for the graph line and...">
<polygon fill="white" stroke="#666666" points="419,-231 237,-231 237,-197 419,-197 419,-231"/>
<text text-anchor="start" x="245" y="-217.4" font-family="Helvetica,sans-Serif" font-size="12.00">JKQTPGraphLineAndFillStyle</text>
<text text-anchor="middle" x="328" y="-204.4" font-family="Helvetica,sans-Serif" font-size="12.00">Mixin</text>
</a>
</g>
</g>
<!-- Node8&#45;&gt;Node2 -->
<g id="edge7_Node000002_Node000008" class="edge">
<title>Node8&#45;&gt;Node2</title>
<g id="a_edge7_Node000002_Node000008"><a xlink:title=" ">
<path fill="none" stroke="#63b8ff" d="M293.93,-191.35C278.57,-181.59 260.73,-170.25 246.55,-161.24"/>
<polygon fill="#63b8ff" stroke="#63b8ff" points="292.33,-194.48 302.64,-196.88 296.08,-188.57 292.33,-194.48"/>
</a>
</g>
</g>
<!-- Node9 -->
<g id="Node000009" class="node">
<title>Node9</title>
<g id="a_Node000009"><a xlink:href="class_j_k_q_t_p_graph_fill_style_mixin.html" target="_top" xlink:title="This Mix&#45;In class provides setter/getter methods, storage and other facilities for the graph filling ...">
<polygon fill="white" stroke="#666666" points="410,-288 246,-288 246,-267 410,-267 410,-288"/>
<text text-anchor="middle" x="328" y="-274.4" font-family="Helvetica,sans-Serif" font-size="12.00">JKQTPGraphFillStyleMixin</text>
</a>
</g>
</g>
<!-- Node9&#45;&gt;Node8 -->
<g id="edge8_Node000008_Node000009" class="edge">
<title>Node9&#45;&gt;Node8</title>
<g id="a_edge8_Node000008_Node000009"><a xlink:title=" ">
<path fill="none" stroke="#63b8ff" d="M328,-256.77C328,-248.61 328,-239.26 328,-231.48"/>
<polygon fill="#63b8ff" stroke="#63b8ff" points="324.5,-256.89 328,-266.89 331.5,-256.89 324.5,-256.89"/>
</a>
</g>
</g>
<!-- Node10 -->
<g id="Node000010" class="node">
<title>Node10</title>
<g id="a_Node000010"><a xlink:href="class_j_k_q_t_p_graph_line_style_mixin.html" target="_top" xlink:title="This Mix&#45;In class provides setter/getter methods, storage and other facilities for the graph line sty...">
<polygon fill="white" stroke="#666666" points="602,-288 428,-288 428,-267 602,-267 602,-288"/>
<text text-anchor="middle" x="515" y="-274.4" font-family="Helvetica,sans-Serif" font-size="12.00">JKQTPGraphLineStyleMixin</text>
</a>
</g>
</g>
<!-- Node10&#45;&gt;Node8 -->
<g id="edge9_Node000008_Node000010" class="edge">
<title>Node10&#45;&gt;Node8</title>
<g id="a_edge9_Node000008_Node000010"><a xlink:title=" ">
<path fill="none" stroke="#63b8ff" d="M476.08,-263.7C447.31,-254.24 407.93,-241.29 377.01,-231.12"/>
<polygon fill="#63b8ff" stroke="#63b8ff" points="475.19,-267.09 485.78,-266.89 477.38,-260.44 475.19,-267.09"/>
</a>
</g>
</g>
</g>
</svg>
