<?xml version="1.0" encoding="UTF-8" standalone="no"?>
<!DOCTYPE svg PUBLIC "-//W3C//DTD SVG 1.1//EN"
 "http://www.w3.org/Graphics/SVG/1.1/DTD/svg11.dtd">
<!-- Generated by graphviz version 2.43.0 (0)
 -->
<!-- Title: JKQTMathTextNode Pages: 1 -->
<!--zoomable 589 -->

<svg id="main" version="1.1" xmlns="http://www.w3.org/2000/svg" xmlns:xlink="http://www.w3.org/1999/xlink" xml:space="preserve" onload="init(evt)">

<style type="text/css"><![CDATA[
.node, .edge {opacity: 0.7;}
.node.selected, .edge.selected {opacity: 1;}
.edge:hover path { stroke: red; }
.edge:hover polygon { stroke: red; fill: red; }
]]></style>

<defs>
  <circle id="rim" cx="0" cy="0" r="7"/>
  <circle id="rim2" cx="0" cy="0" r="3.5"/>
  <g id="zoomPlus">
    <use xlink:href="#rim" fill="#404040"><set attributeName="fill" to="#808080" begin="zoomplus.mouseover" end="zoomplus.mouseout"/></use>
    <path d="M-4,0h8M0,-4v8" fill="none" stroke="white" stroke-width="1.5" pointer-events="none"/>
  </g>
  <g id="zoomMin">
    <use xlink:href="#rim" fill="#404040"><set attributeName="fill" to="#808080" begin="zoomminus.mouseover" end="zoomminus.mouseout"/></use>
    <path d="M-4,0h8" fill="none" stroke="white" stroke-width="1.5" pointer-events="none"/>
  </g>
  <g id="arrowUp" transform="translate(30 24)">
    <use xlink:href="#rim"/>
    <path pointer-events="none" fill="none" stroke="white" stroke-width="1.5" d="M0,-3.0v7 M-2.5,-0.5L0,-3.0L2.5,-0.5"/>
  </g>
  <g id="arrowRight" transform="rotate(90) translate(36 -43)">
    <use xlink:href="#rim"/>
    <path pointer-events="none" fill="none" stroke="white" stroke-width="1.5" d="M0,-3.0v7 M-2.5,-0.5L0,-3.0L2.5,-0.5"/>
  </g>
  <g id="arrowDown" transform="rotate(180) translate(-30 -48)">
    <use xlink:href="#rim"/>
    <path pointer-events="none" fill="none" stroke="white" stroke-width="1.5" d="M0,-3.0v7 M-2.5,-0.5L0,-3.0L2.5,-0.5"/>
  </g>
  <g id="arrowLeft" transform="rotate(270) translate(-36 17)">
    <use xlink:href="#rim"/>
    <path pointer-events="none" fill="none" stroke="white" stroke-width="1.5" d="M0,-3.0v7 M-2.5,-0.5L0,-3.0L2.5,-0.5"/>
  </g>
  <g id="resetDef">
    <use xlink:href="#rim2" fill="#404040"><set attributeName="fill" to="#808080" begin="reset.mouseover" end="reset.mouseout"/></use>
  </g>
</defs>
<script type="application/ecmascript">
var viewWidth = 924;
var viewHeight = 589;
var sectionId = 'dynsection-0';
</script>
<script type="application/ecmascript" xlink:href="svg.min.js"/>
<svg id="graph" class="graph">
<g id="viewport">
<title>JKQTMathTextNode</title>
<!-- Node1 -->
<g id="Node000001" class="node">
<title>Node1</title>
<g id="a_Node000001"><a xlink:title="subclass representing one node in the syntax tree">
<polygon fill="#999999" stroke="#666666" points="131,-235 0,-235 0,-214 131,-214 131,-235"/>
<text text-anchor="middle" x="65.5" y="-221.4" font-family="Helvetica,sans-Serif" font-size="12.00">JKQTMathTextNode</text>
</a>
</g>
</g>
<!-- Node2 -->
<g id="Node000002" class="node">
<title>Node2</title>
<g id="a_Node000002"><a xlink:href="class_j_k_q_t_math_text_empty_box_node.html" target="_top" xlink:title="subclass representing an empty bbox with defined width/height in the syntax tree">
<polygon fill="white" stroke="#666666" points="380,-503 189,-503 189,-482 380,-482 380,-503"/>
<text text-anchor="middle" x="284.5" y="-489.4" font-family="Helvetica,sans-Serif" font-size="12.00">JKQTMathTextEmptyBoxNode</text>
</a>
</g>
</g>
<!-- Node1&#45;&gt;Node2 -->
<g id="edge1_Node000001_Node000002" class="edge">
<title>Node1&#45;&gt;Node2</title>
<g id="a_edge1_Node000001_Node000002"><a xlink:title=" ">
<path fill="none" stroke="#63b8ff" d="M68.22,-245.34C73.43,-293.88 93.51,-414.75 167,-473.5 173.56,-478.75 181.01,-482.8 188.89,-485.91"/>
<polygon fill="#63b8ff" stroke="#63b8ff" points="71.68,-244.75 67.24,-235.14 64.72,-245.43 71.68,-244.75"/>
</a>
</g>
</g>
<!-- Node3 -->
<g id="Node000003" class="node">
<title>Node3</title>
<g id="a_Node000003"><a xlink:href="class_j_k_q_t_math_text_multi_child_node.html" target="_top" xlink:title="subclass representing a node in the syntax tree, that has two children">
<polygon fill="white" stroke="#666666" points="378.5,-464 190.5,-464 190.5,-443 378.5,-443 378.5,-464"/>
<text text-anchor="middle" x="284.5" y="-450.4" font-family="Helvetica,sans-Serif" font-size="12.00">JKQTMathTextMultiChildNode</text>
</a>
</g>
</g>
<!-- Node1&#45;&gt;Node3 -->
<g id="edge2_Node000001_Node000003" class="edge">
<title>Node1&#45;&gt;Node3</title>
<g id="a_edge2_Node000001_Node000003"><a xlink:title=" ">
<path fill="none" stroke="#63b8ff" d="M81.33,-243.09C100.45,-266.79 135.05,-308.72 167,-342.5 203.47,-381.06 249.98,-423.53 271.53,-442.86"/>
<polygon fill="#63b8ff" stroke="#63b8ff" points="84.01,-240.84 75.02,-235.24 78.55,-245.23 84.01,-240.84"/>
</a>
</g>
</g>
<!-- Node10 -->
<g id="Node000010" class="node">
<title>Node10</title>
<g id="a_Node000010"><a xlink:href="class_j_k_q_t_math_text_non_drawing_base_node.html" target="_top" xlink:title="base class for all derived classes that do not draw anything">
<polygon fill="white" stroke="#666666" points="401,-333 168,-333 168,-312 401,-312 401,-333"/>
<text text-anchor="middle" x="284.5" y="-319.4" font-family="Helvetica,sans-Serif" font-size="12.00">JKQTMathTextNonDrawingBaseNode</text>
</a>
</g>
</g>
<!-- Node1&#45;&gt;Node10 -->
<g id="edge9_Node000001_Node000010" class="edge">
<title>Node1&#45;&gt;Node10</title>
<g id="a_edge9_Node000001_Node000010"><a xlink:title=" ">
<path fill="none" stroke="#63b8ff" d="M99.32,-239.32C143.62,-259.33 221.47,-294.49 260.22,-311.99"/>
<polygon fill="#63b8ff" stroke="#63b8ff" points="100.69,-236.1 90.14,-235.17 97.81,-242.48 100.69,-236.1"/>
</a>
</g>
</g>
<!-- Node13 -->
<g id="Node000013" class="node">
<title>Node13</title>
<g id="a_Node000013"><a xlink:href="class_j_k_q_t_math_text_simple_instruction_node.html" target="_top" xlink:title="subclass representing a simple instruction node which only accepts string arguments,...">
<polygon fill="white" stroke="#666666" points="402,-255 167,-255 167,-234 402,-234 402,-255"/>
<text text-anchor="middle" x="284.5" y="-241.4" font-family="Helvetica,sans-Serif" font-size="12.00">JKQTMathTextSimpleInstructionNode</text>
</a>
</g>
</g>
<!-- Node1&#45;&gt;Node13 -->
<g id="edge12_Node000001_Node000013" class="edge">
<title>Node1&#45;&gt;Node13</title>
<g id="a_edge12_Node000001_Node000013"><a xlink:title=" ">
<path fill="none" stroke="#63b8ff" d="M141.14,-231.38C150.26,-232.22 159.72,-233.09 169.25,-233.97"/>
<polygon fill="#63b8ff" stroke="#63b8ff" points="141.3,-227.88 131.02,-230.45 140.66,-234.85 141.3,-227.88"/>
</a>
</g>
</g>
<!-- Node14 -->
<g id="Node000014" class="node">
<title>Node14</title>
<g id="a_Node000014"><a xlink:href="class_j_k_q_t_math_text_single_child_node.html" target="_top" xlink:title="subclass representing a node in the syntax tree, that has one child">
<polygon fill="white" stroke="#666666" points="382.5,-216 186.5,-216 186.5,-195 382.5,-195 382.5,-216"/>
<text text-anchor="middle" x="284.5" y="-202.4" font-family="Helvetica,sans-Serif" font-size="12.00">JKQTMathTextSingleChildNode</text>
</a>
</g>
</g>
<!-- Node1&#45;&gt;Node14 -->
<g id="edge13_Node000001_Node000014" class="edge">
<title>Node1&#45;&gt;Node14</title>
<g id="a_edge13_Node000001_Node000014"><a xlink:title=" ">
<path fill="none" stroke="#63b8ff" d="M141.39,-217.94C155.86,-216.68 171.22,-215.33 186.28,-214.01"/>
<polygon fill="#63b8ff" stroke="#63b8ff" points="140.68,-214.49 131.02,-218.85 141.29,-221.47 140.68,-214.49"/>
</a>
</g>
</g>
<!-- Node24 -->
<g id="Node000024" class="node">
<title>Node24</title>
<g id="a_Node000024"><a xlink:href="class_j_k_q_t_math_text_symbol_node.html" target="_top" xlink:title="subclass representing one symbol (e.g. \alpha , \cdot ...) node in the syntax tree">
<polygon fill="white" stroke="#666666" points="372,-177 197,-177 197,-156 372,-156 372,-177"/>
<text text-anchor="middle" x="284.5" y="-163.4" font-family="Helvetica,sans-Serif" font-size="12.00">JKQTMathTextSymbolNode</text>
</a>
</g>
</g>
<!-- Node1&#45;&gt;Node24 -->
<g id="edge23_Node000001_Node000024" class="edge">
<title>Node1&#45;&gt;Node24</title>
<g id="a_edge23_Node000001_Node000024"><a xlink:title=" ">
<path fill="none" stroke="#63b8ff" d="M99.71,-210.1C119.05,-202.19 144.06,-192.74 167,-186.5 180.56,-182.81 195.21,-179.66 209.39,-177.03"/>
<polygon fill="#63b8ff" stroke="#63b8ff" points="98.33,-206.89 90.44,-213.96 101.02,-213.35 98.33,-206.89"/>
</a>
</g>
</g>
<!-- Node25 -->
<g id="Node000025" class="node">
<title>Node25</title>
<g id="a_Node000025"><a xlink:href="class_j_k_q_t_math_text_text_base_node.html" target="_top" xlink:title="base class for nodes representing text in the syntax tree">
<polygon fill="white" stroke="#666666" points="376.5,-99 192.5,-99 192.5,-78 376.5,-78 376.5,-99"/>
<text text-anchor="middle" x="284.5" y="-85.4" font-family="Helvetica,sans-Serif" font-size="12.00">JKQTMathTextTextBaseNode</text>
</a>
</g>
</g>
<!-- Node1&#45;&gt;Node25 -->
<g id="edge24_Node000001_Node000025" class="edge">
<title>Node1&#45;&gt;Node25</title>
<g id="a_edge24_Node000001_Node000025"><a xlink:title=" ">
<path fill="none" stroke="#63b8ff" d="M86.34,-207.53C106.06,-191.1 137.53,-166.03 167,-147.5 197.71,-128.19 235.54,-109.97 259.59,-99.02"/>
<polygon fill="#63b8ff" stroke="#63b8ff" points="84.05,-204.88 78.65,-214 88.56,-210.24 84.05,-204.88"/>
</a>
</g>
</g>
<!-- Node28 -->
<g id="Node000028" class="node">
<title>Node28</title>
<g id="a_Node000028"><a xlink:href="class_j_k_q_t_math_text_whitespace_node.html" target="_top" xlink:title="subclass representing one whitepsace node in the syntax tree">
<polygon fill="white" stroke="#666666" points="384.5,-60 184.5,-60 184.5,-39 384.5,-39 384.5,-60"/>
<text text-anchor="middle" x="284.5" y="-46.4" font-family="Helvetica,sans-Serif" font-size="12.00">JKQTMathTextWhitespaceNode</text>
</a>
</g>
</g>
<!-- Node1&#45;&gt;Node28 -->
<g id="edge27_Node000001_Node000028" class="edge">
<title>Node1&#45;&gt;Node28</title>
<g id="a_edge27_Node000001_Node000028"><a xlink:title=" ">
<path fill="none" stroke="#63b8ff" d="M73.6,-203.87C86.45,-169.84 116.98,-102.47 167,-69.5 172.65,-65.77 178.79,-62.67 185.18,-60.1"/>
<polygon fill="#63b8ff" stroke="#63b8ff" points="70.17,-203.06 70.04,-213.65 76.75,-205.45 70.17,-203.06"/>
</a>
</g>
</g>
<!-- Node4 -->
<g id="Node000004" class="node">
<title>Node4</title>
<g id="a_Node000004"><a xlink:href="class_j_k_q_t_math_text_dual_child_node.html" target="_top" xlink:title="subclass representing a node in the syntax tree, that has two children">
<polygon fill="white" stroke="#666666" points="644.5,-581 457.5,-581 457.5,-560 644.5,-560 644.5,-581"/>
<text text-anchor="middle" x="551" y="-567.4" font-family="Helvetica,sans-Serif" font-size="12.00">JKQTMathTextDualChildNode</text>
</a>
</g>
</g>
<!-- Node3&#45;&gt;Node4 -->
<g id="edge3_Node000003_Node000004" class="edge">
<title>Node3&#45;&gt;Node4</title>
<g id="a_edge3_Node000003_Node000004"><a xlink:title=" ">
<path fill="none" stroke="#63b8ff" d="M387.9,-464.82C392.88,-467.27 397.62,-470.14 402,-473.5 432.3,-496.73 407.68,-528.3 438,-551.5 443.87,-555.99 450.43,-559.58 457.34,-562.43"/>
<polygon fill="#63b8ff" stroke="#63b8ff" points="389.27,-461.6 378.7,-460.84 386.49,-468.02 389.27,-461.6"/>
</a>
</g>
</g>
<!-- Node6 -->
<g id="Node000006" class="node">
<title>Node6</title>
<g id="a_Node000006"><a xlink:href="class_j_k_q_t_math_text_horizontal_list_node.html" target="_top" xlink:title="subclass representing a list of nodes in the syntax tree, layed out horizontally">
<polygon fill="white" stroke="#666666" points="657,-542 445,-542 445,-521 657,-521 657,-542"/>
<text text-anchor="middle" x="551" y="-528.4" font-family="Helvetica,sans-Serif" font-size="12.00">JKQTMathTextHorizontalListNode</text>
</a>
</g>
</g>
<!-- Node3&#45;&gt;Node6 -->
<g id="edge5_Node000003_Node000006" class="edge">
<title>Node3&#45;&gt;Node6</title>
<g id="a_edge5_Node000003_Node000006"><a xlink:title=" ">
<path fill="none" stroke="#63b8ff" d="M388.43,-467.2C393.11,-469.05 397.66,-471.14 402,-473.5 422.73,-484.76 417.26,-501.26 438,-512.5 444.16,-515.84 450.76,-518.61 457.56,-520.92"/>
<polygon fill="#63b8ff" stroke="#63b8ff" points="389.24,-463.78 378.65,-463.72 386.9,-470.37 389.24,-463.78"/>
</a>
</g>
</g>
<!-- Node7 -->
<g id="Node000007" class="node">
<title>Node7</title>
<g id="a_Node000007"><a xlink:href="class_j_k_q_t_math_text_matrix_node.html" target="_top" xlink:title="subclass representing a \begin{matrix} , \begin{tabular} , \begin{array} , ... node">
<polygon fill="white" stroke="#666666" points="635,-503 467,-503 467,-482 635,-482 635,-503"/>
<text text-anchor="middle" x="551" y="-489.4" font-family="Helvetica,sans-Serif" font-size="12.00">JKQTMathTextMatrixNode</text>
</a>
</g>
</g>
<!-- Node3&#45;&gt;Node7 -->
<g id="edge6_Node000003_Node000007" class="edge">
<title>Node3&#45;&gt;Node7</title>
<g id="a_edge6_Node000003_Node000007"><a xlink:title=" ">
<path fill="none" stroke="#63b8ff" d="M366.65,-465.47C402.42,-470.74 444.08,-476.88 478.64,-481.98"/>
<polygon fill="#63b8ff" stroke="#63b8ff" points="367.13,-462 356.73,-464 366.11,-468.92 367.13,-462"/>
</a>
</g>
</g>
<!-- Node8 -->
<g id="Node000008" class="node">
<title>Node8</title>
<g id="a_Node000008"><a xlink:href="class_j_k_q_t_math_text_sqrt_node.html" target="_top" xlink:title="subclass representing a sqrt node">
<polygon fill="white" stroke="#666666" points="628.5,-464 473.5,-464 473.5,-443 628.5,-443 628.5,-464"/>
<text text-anchor="middle" x="551" y="-450.4" font-family="Helvetica,sans-Serif" font-size="12.00">JKQTMathTextSqrtNode</text>
</a>
</g>
</g>
<!-- Node3&#45;&gt;Node8 -->
<g id="edge7_Node000003_Node000008" class="edge">
<title>Node3&#45;&gt;Node8</title>
<g id="a_edge7_Node000003_Node000008"><a xlink:title=" ">
<path fill="none" stroke="#63b8ff" d="M389.01,-453.5C417.09,-453.5 446.98,-453.5 473.3,-453.5"/>
<polygon fill="#63b8ff" stroke="#63b8ff" points="388.75,-450 378.75,-453.5 388.75,-457 388.75,-450"/>
</a>
</g>
</g>
<!-- Node9 -->
<g id="Node000009" class="node">
<title>Node9</title>
<g id="a_Node000009"><a xlink:href="class_j_k_q_t_math_text_vertical_list_node.html" target="_top" xlink:title="subclass representing a list of nodes in the syntax tree, layed out vertically">
<polygon fill="white" stroke="#666666" points="649,-425 453,-425 453,-404 649,-404 649,-425"/>
<text text-anchor="middle" x="551" y="-411.4" font-family="Helvetica,sans-Serif" font-size="12.00">JKQTMathTextVerticalListNode</text>
</a>
</g>
</g>
<!-- Node3&#45;&gt;Node9 -->
<g id="edge8_Node000003_Node000009" class="edge">
<title>Node3&#45;&gt;Node9</title>
<g id="a_edge8_Node000003_Node000009"><a xlink:title=" ">
<path fill="none" stroke="#63b8ff" d="M366.65,-441.53C402.42,-436.26 444.08,-430.12 478.64,-425.02"/>
<polygon fill="#63b8ff" stroke="#63b8ff" points="366.11,-438.08 356.73,-443 367.13,-445 366.11,-438.08"/>
</a>
</g>
</g>
<!-- Node5 -->
<g id="Node000005" class="node">
<title>Node5</title>
<g id="a_Node000005"><a xlink:href="class_j_k_q_t_math_text_frac_node.html" target="_top" xlink:title="subclass representing a \frac node">
<polygon fill="white" stroke="#666666" points="886,-581 730,-581 730,-560 886,-560 886,-581"/>
<text text-anchor="middle" x="808" y="-567.4" font-family="Helvetica,sans-Serif" font-size="12.00">JKQTMathTextFracNode</text>
</a>
</g>
</g>
<!-- Node4&#45;&gt;Node5 -->
<g id="edge4_Node000004_Node000005" class="edge">
<title>Node4&#45;&gt;Node5</title>
<g id="a_edge4_Node000004_Node000005"><a xlink:title=" ">
<path fill="none" stroke="#63b8ff" d="M655.02,-570.5C679.98,-570.5 706.25,-570.5 729.79,-570.5"/>
<polygon fill="#63b8ff" stroke="#63b8ff" points="654.78,-567 644.78,-570.5 654.78,-574 654.78,-567"/>
</a>
</g>
</g>
<!-- Node11 -->
<g id="Node000011" class="node">
<title>Node11</title>
<g id="a_Node000011"><a xlink:href="class_j_k_q_t_math_text_modified_environment_instruction_node.html" target="_top" xlink:title="subclass representing an instruction node which modify the current JKQTMathTextEnvironment,...">
<polygon fill="white" stroke="#666666" points="664,-385.5 438,-385.5 438,-351.5 664,-351.5 664,-385.5"/>
<text text-anchor="start" x="446" y="-371.9" font-family="Helvetica,sans-Serif" font-size="12.00">JKQTMathTextModifiedEnvironment</text>
<text text-anchor="middle" x="551" y="-358.9" font-family="Helvetica,sans-Serif" font-size="12.00">InstructionNode</text>
</a>
</g>
</g>
<!-- Node10&#45;&gt;Node11 -->
<g id="edge10_Node000010_Node000011" class="edge">
<title>Node10&#45;&gt;Node11</title>
<g id="a_edge10_Node000010_Node000011"><a xlink:title=" ">
<path fill="none" stroke="#63b8ff" d="M356.34,-334.82C385.72,-339.93 420.28,-345.94 452.02,-351.46"/>
<polygon fill="#63b8ff" stroke="#63b8ff" points="356.63,-331.32 346.18,-333.05 355.43,-338.22 356.63,-331.32"/>
</a>
</g>
</g>
<!-- Node12 -->
<g id="Node000012" class="node">
<title>Node12</title>
<g id="a_Node000012"><a xlink:href="class_j_k_q_t_math_text_noop_node.html" target="_top" xlink:title="subclass representing a node that outputs nothing">
<polygon fill="white" stroke="#666666" points="632,-333 470,-333 470,-312 632,-312 632,-333"/>
<text text-anchor="middle" x="551" y="-319.4" font-family="Helvetica,sans-Serif" font-size="12.00">JKQTMathTextNoopNode</text>
</a>
</g>
</g>
<!-- Node10&#45;&gt;Node12 -->
<g id="edge11_Node000010_Node000012" class="edge">
<title>Node10&#45;&gt;Node12</title>
<g id="a_edge11_Node000010_Node000012"><a xlink:title=" ">
<path fill="none" stroke="#63b8ff" d="M411.23,-322.5C431.21,-322.5 451.39,-322.5 469.93,-322.5"/>
<polygon fill="#63b8ff" stroke="#63b8ff" points="411.13,-319 401.13,-322.5 411.13,-326 411.13,-319"/>
</a>
</g>
</g>
<!-- Node15 -->
<g id="Node000015" class="node">
<title>Node15</title>
<g id="a_Node000015"><a xlink:href="class_j_k_q_t_math_text_block_node.html" target="_top" xlink:title="subclass representing a {...} block">
<polygon fill="white" stroke="#666666" points="632.5,-294 469.5,-294 469.5,-273 632.5,-273 632.5,-294"/>
<text text-anchor="middle" x="551" y="-280.4" font-family="Helvetica,sans-Serif" font-size="12.00">JKQTMathTextBlockNode</text>
</a>
</g>
</g>
<!-- Node14&#45;&gt;Node15 -->
<g id="edge14_Node000014_Node000015" class="edge">
<title>Node14&#45;&gt;Node15</title>
<g id="a_edge14_Node000014_Node000015"><a xlink:title=" ">
<path fill="none" stroke="#63b8ff" d="M389.31,-219.55C393.68,-221.32 397.93,-223.29 402,-225.5 422.73,-236.76 417.26,-253.26 438,-264.5 447.62,-269.72 458.34,-273.56 469.22,-276.39"/>
<polygon fill="#63b8ff" stroke="#63b8ff" points="390.15,-216.13 379.55,-216.01 387.76,-222.71 390.15,-216.13"/>
</a>
</g>
</g>
<!-- Node16 -->
<g id="Node000016" class="node">
<title>Node16</title>
<g id="a_Node000016"><a xlink:href="class_j_k_q_t_math_text_brace_node.html" target="_top" xlink:title="subclass representing a brace node">
<polygon fill="white" stroke="#666666" points="634,-255 468,-255 468,-234 634,-234 634,-255"/>
<text text-anchor="middle" x="551" y="-241.4" font-family="Helvetica,sans-Serif" font-size="12.00">JKQTMathTextBraceNode</text>
</a>
</g>
</g>
<!-- Node14&#45;&gt;Node16 -->
<g id="edge15_Node000014_Node000016" class="edge">
<title>Node14&#45;&gt;Node16</title>
<g id="a_edge15_Node000014_Node000016"><a xlink:title=" ">
<path fill="none" stroke="#63b8ff" d="M366.65,-217.47C402.42,-222.74 444.08,-228.88 478.64,-233.98"/>
<polygon fill="#63b8ff" stroke="#63b8ff" points="367.13,-214 356.73,-216 366.11,-220.92 367.13,-214"/>
</a>
</g>
</g>
<!-- Node17 -->
<g id="Node000017" class="node">
<title>Node17</title>
<g id="a_Node000017"><a xlink:href="class_j_k_q_t_math_text_decorated_node.html" target="_top" xlink:title="subclass representing a decorated text m (e.g. \vec \hat ...) node">
<polygon fill="white" stroke="#666666" points="648,-216 454,-216 454,-195 648,-195 648,-216"/>
<text text-anchor="middle" x="551" y="-202.4" font-family="Helvetica,sans-Serif" font-size="12.00">JKQTMathTextDecoratedNode</text>
</a>
</g>
</g>
<!-- Node14&#45;&gt;Node17 -->
<g id="edge16_Node000014_Node000017" class="edge">
<title>Node14&#45;&gt;Node17</title>
<g id="a_edge16_Node000014_Node000017"><a xlink:title=" ">
<path fill="none" stroke="#63b8ff" d="M392.98,-205.5C413.08,-205.5 433.98,-205.5 453.73,-205.5"/>
<polygon fill="#63b8ff" stroke="#63b8ff" points="392.86,-202 382.86,-205.5 392.86,-209 392.86,-202"/>
</a>
</g>
</g>
<!-- Node18 -->
<g id="Node000018" class="node">
<title>Node18</title>
<g id="a_Node000018"><a xlink:href="class_j_k_q_t_math_text_instruction1_node.html" target="_top" xlink:title="subclass representing an instruction node with exactly one argument and possibly additional parameter...">
<polygon fill="white" stroke="#666666" points="652,-177 450,-177 450,-156 652,-156 652,-177"/>
<text text-anchor="middle" x="551" y="-163.4" font-family="Helvetica,sans-Serif" font-size="12.00">JKQTMathTextInstruction1Node</text>
</a>
</g>
</g>
<!-- Node14&#45;&gt;Node18 -->
<g id="edge17_Node000014_Node000018" class="edge">
<title>Node14&#45;&gt;Node18</title>
<g id="a_edge17_Node000014_Node000018"><a xlink:title=" ">
<path fill="none" stroke="#63b8ff" d="M366.65,-193.53C402.42,-188.26 444.08,-182.12 478.64,-177.02"/>
<polygon fill="#63b8ff" stroke="#63b8ff" points="366.11,-190.08 356.73,-195 367.13,-197 366.11,-190.08"/>
</a>
</g>
</g>
<!-- Node22 -->
<g id="Node000022" class="node">
<title>Node22</title>
<g id="a_Node000022"><a xlink:href="class_j_k_q_t_math_text_subscript_node.html" target="_top" xlink:title="subclass representing an subscript node with exactly one argument in the syntax tree">
<polygon fill="white" stroke="#666666" points="644,-138 458,-138 458,-117 644,-117 644,-138"/>
<text text-anchor="middle" x="551" y="-124.4" font-family="Helvetica,sans-Serif" font-size="12.00">JKQTMathTextSubscriptNode</text>
</a>
</g>
</g>
<!-- Node14&#45;&gt;Node22 -->
<g id="edge21_Node000014_Node000022" class="edge">
<title>Node14&#45;&gt;Node22</title>
<g id="a_edge21_Node000014_Node000022"><a xlink:title=" ">
<path fill="none" stroke="#63b8ff" d="M391.74,-191.38C395.26,-189.9 398.69,-188.28 402,-186.5 422.77,-175.33 417.31,-158.83 438,-147.5 444.93,-143.7 452.43,-140.61 460.15,-138.08"/>
<polygon fill="#63b8ff" stroke="#63b8ff" points="390.36,-188.16 382.24,-194.96 392.83,-194.71 390.36,-188.16"/>
</a>
</g>
</g>
<!-- Node23 -->
<g id="Node000023" class="node">
<title>Node23</title>
<g id="a_Node000023"><a xlink:href="class_j_k_q_t_math_text_superscript_node.html" target="_top" xlink:title="subclass representing an superscript node with exactly one argument in the syntax tree">
<polygon fill="white" stroke="#666666" points="650.5,-99 451.5,-99 451.5,-78 650.5,-78 650.5,-99"/>
<text text-anchor="middle" x="551" y="-85.4" font-family="Helvetica,sans-Serif" font-size="12.00">JKQTMathTextSuperscriptNode</text>
</a>
</g>
</g>
<!-- Node14&#45;&gt;Node23 -->
<g id="edge22_Node000014_Node000023" class="edge">
<title>Node14&#45;&gt;Node23</title>
<g id="a_edge22_Node000014_Node000023"><a xlink:title=" ">
<path fill="none" stroke="#63b8ff" d="M391.83,-193.06C395.38,-191.12 398.79,-188.94 402,-186.5 432.39,-163.39 407.78,-131.84 438,-108.5 442.85,-104.76 448.16,-101.63 453.76,-99.02"/>
<polygon fill="#63b8ff" stroke="#63b8ff" points="390.24,-189.94 382.72,-197.41 393.26,-196.26 390.24,-189.94"/>
</a>
</g>
</g>
<!-- Node19 -->
<g id="Node000019" class="node">
<title>Node19</title>
<g id="a_Node000019"><a xlink:href="class_j_k_q_t_math_text_box_instruction_node.html" target="_top" xlink:title="subclass representing an instruction node which draws a (possibly colored) box around it&#39;s contents i...">
<polygon fill="white" stroke="#666666" points="916,-223 700,-223 700,-202 916,-202 916,-223"/>
<text text-anchor="middle" x="808" y="-209.4" font-family="Helvetica,sans-Serif" font-size="12.00">JKQTMathTextBoxInstructionNode</text>
</a>
</g>
</g>
<!-- Node18&#45;&gt;Node19 -->
<g id="edge18_Node000018_Node000019" class="edge">
<title>Node18&#45;&gt;Node19</title>
<g id="a_edge18_Node000018_Node000019"><a xlink:title=" ">
<path fill="none" stroke="#63b8ff" d="M621.18,-178.82C635.35,-181.35 650.16,-184.01 664,-186.5 692.06,-191.56 723.21,-197.21 749.26,-201.96"/>
<polygon fill="#63b8ff" stroke="#63b8ff" points="621.46,-175.31 611,-177 620.23,-182.2 621.46,-175.31"/>
</a>
</g>
</g>
<!-- Node20 -->
<g id="Node000020" class="node">
<title>Node20</title>
<g id="a_Node000020"><a xlink:href="class_j_k_q_t_math_text_modified_text_props_instruction_node.html" target="_top" xlink:title="subclass representing an instruction node which modifies the current font (as defined in JKQTMathText...">
<polygon fill="white" stroke="#666666" points="895,-183.5 721,-183.5 721,-149.5 895,-149.5 895,-183.5"/>
<text text-anchor="start" x="729" y="-169.9" font-family="Helvetica,sans-Serif" font-size="12.00">JKQTMathTextModifiedText</text>
<text text-anchor="middle" x="808" y="-156.9" font-family="Helvetica,sans-Serif" font-size="12.00">PropsInstructionNode</text>
</a>
</g>
</g>
<!-- Node18&#45;&gt;Node20 -->
<g id="edge19_Node000018_Node000020" class="edge">
<title>Node18&#45;&gt;Node20</title>
<g id="a_edge19_Node000018_Node000020"><a xlink:title=" ">
<path fill="none" stroke="#63b8ff" d="M662.25,-166.5C681.87,-166.5 702.04,-166.5 720.87,-166.5"/>
<polygon fill="#63b8ff" stroke="#63b8ff" points="662.05,-163 652.05,-166.5 662.05,-170 662.05,-163"/>
</a>
</g>
</g>
<!-- Node21 -->
<g id="Node000021" class="node">
<title>Node21</title>
<g id="a_Node000021"><a xlink:href="class_j_k_q_t_math_text_phantom_node.html" target="_top" xlink:title="generates whitespace with the size of the contained node">
<polygon fill="white" stroke="#666666" points="900.5,-131 715.5,-131 715.5,-110 900.5,-110 900.5,-131"/>
<text text-anchor="middle" x="808" y="-117.4" font-family="Helvetica,sans-Serif" font-size="12.00">JKQTMathTextPhantomNode</text>
</a>
</g>
</g>
<!-- Node18&#45;&gt;Node21 -->
<g id="edge20_Node000018_Node000021" class="edge">
<title>Node18&#45;&gt;Node21</title>
<g id="a_edge20_Node000018_Node000021"><a xlink:title=" ">
<path fill="none" stroke="#63b8ff" d="M625.83,-154.23C638.57,-152.04 651.68,-149.74 664,-147.5 680.04,-144.58 683.99,-143.55 700,-140.5 716.34,-137.39 734.08,-134.05 750.34,-131.01"/>
<polygon fill="#63b8ff" stroke="#63b8ff" points="624.99,-150.83 615.72,-155.96 626.17,-157.73 624.99,-150.83"/>
</a>
</g>
</g>
<!-- Node26 -->
<g id="Node000026" class="node">
<title>Node26</title>
<g id="a_Node000026"><a xlink:href="class_j_k_q_t_math_text_text_node.html" target="_top" xlink:title="subclass representing one text node in the syntax tree">
<polygon fill="white" stroke="#666666" points="628.5,-60 473.5,-60 473.5,-39 628.5,-39 628.5,-60"/>
<text text-anchor="middle" x="551" y="-46.4" font-family="Helvetica,sans-Serif" font-size="12.00">JKQTMathTextTextNode</text>
</a>
</g>
</g>
<!-- Node25&#45;&gt;Node26 -->
<g id="edge25_Node000025_Node000026" class="edge">
<title>Node25&#45;&gt;Node26</title>
<g id="a_edge25_Node000025_Node000026"><a xlink:title=" ">
<path fill="none" stroke="#63b8ff" d="M366.65,-76.53C402.42,-71.26 444.08,-65.12 478.64,-60.02"/>
<polygon fill="#63b8ff" stroke="#63b8ff" points="366.11,-73.08 356.73,-78 367.13,-80 366.11,-73.08"/>
</a>
</g>
</g>
<!-- Node27 -->
<g id="Node000027" class="node">
<title>Node27</title>
<g id="a_Node000027"><a xlink:href="class_j_k_q_t_math_text_verbatim_node.html" target="_top" xlink:title="subclass representing a verbatim (plain&#45;text) node with support for line&#45;breaks in the syntax tree">
<polygon fill="white" stroke="#666666" points="643.5,-21 458.5,-21 458.5,0 643.5,0 643.5,-21"/>
<text text-anchor="middle" x="551" y="-7.4" font-family="Helvetica,sans-Serif" font-size="12.00">JKQTMathTextVerbatimNode</text>
</a>
</g>
</g>
<!-- Node25&#45;&gt;Node27 -->
<g id="edge26_Node000025_Node000027" class="edge">
<title>Node25&#45;&gt;Node27</title>
<g id="a_edge26_Node000025_Node000027"><a xlink:title=" ">
<path fill="none" stroke="#63b8ff" d="M386.39,-76.49C391.8,-74.49 397.04,-72.17 402,-69.5 422.77,-58.33 417.31,-41.83 438,-30.5 444.93,-26.7 452.43,-23.61 460.15,-21.08"/>
<polygon fill="#63b8ff" stroke="#63b8ff" points="384.9,-73.3 376.52,-79.78 387.11,-79.94 384.9,-73.3"/>
</a>
</g>
</g>
</g>
</svg>

<g id="navigator" transform="translate(0 0)" fill="#404254">
  <rect fill="#f2f5e9" fill-opacity="0.5" stroke="#606060" stroke-width=".5" x="0" y="0" width="60" height="60"/>
  <use id="zoomplus" xlink:href="#zoomPlus" x="17" y="9" onmousedown="handleZoom(evt,'in')"/>
  <use id="zoomminus" xlink:href="#zoomMin" x="42" y="9" onmousedown="handleZoom(evt,'out')"/>
  <use id="reset" xlink:href="#resetDef" x="30" y="36" onmousedown="handleReset()"/>
   <use id="arrowup" xlink:href="#arrowUp" x="0" y="0" onmousedown="handlePan(0,-1)"/>
  <use id="arrowright" xlink:href="#arrowRight" x="0" y="0" onmousedown="handlePan(1,0)"/>
  <use id="arrowdown" xlink:href="#arrowDown" x="0" y="0" onmousedown="handlePan(0,1)"/>
  <use id="arrowleft" xlink:href="#arrowLeft" x="0" y="0" onmousedown="handlePan(-1,0)"/>
</g>
<svg viewBox="0 0 15 15" width="100%" height="30px" preserveAspectRatio="xMaxYMin meet">
 <g id="arrow_out" transform="scale(0.3 0.3)">
  <a xlink:href="class_j_k_q_t_math_text_node__inherit__graph_org.svg" target="_base">
   <rect id="button" ry="5" rx="5" y="6" x="6" height="38" width="38"
        fill="#f2f5e9" fill-opacity="0.5" stroke="#606060" stroke-width="1.0"/>
   <path id="arrow"
     d="M 11.500037,31.436501 C 11.940474,20.09759 22.043105,11.32322 32.158766,21.979434 L 37.068811,17.246167 C 37.068811,17.246167 37.088388,32 37.088388,32 L 22.160133,31.978069 C 22.160133,31.978069 26.997745,27.140456 26.997745,27.140456 C 18.528582,18.264221 13.291696,25.230495 11.500037,31.436501 z"
     style="fill:#404040;"/>
  </a>
 </g>
</svg>

<style type='text/css'>
<![CDATA[
[data-mouse-over-selected='false'] { opacity: 0.7; }
[data-mouse-over-selected='true']  { opacity: 1.0; }
]]>
</style>
<script type="application/ecmascript"><![CDATA[
document.addEventListener('DOMContentLoaded', (event) => {
  highlightEdges();
  highlightAdjacentNodes();
});
]]></script>
</svg>
