<?xml version="1.0" encoding="UTF-8" standalone="no"?>
<!DOCTYPE svg PUBLIC "-//W3C//DTD SVG 1.1//EN"
 "http://www.w3.org/Graphics/SVG/1.1/DTD/svg11.dtd">
<!-- Generated by graphviz version 2.43.0 (0)
 -->
<!-- Title: JKQTMathTextTextNode Pages: 1 -->
<svg width="481pt" height="163pt"
 viewBox="0.00 0.00 481.00 163.00" xmlns="http://www.w3.org/2000/svg" xmlns:xlink="http://www.w3.org/1999/xlink">
<g id="graph0" class="graph" transform="scale(1 1) rotate(0) translate(4 159)">
<title>JKQTMathTextTextNode</title>
<!-- Node1 -->
<g id="Node000001" class="node">
<title>Node1</title>
<g id="a_Node000001"><a xlink:title="subclass representing one text node in the syntax tree">
<polygon fill="#999999" stroke="#666666" points="169.5,-21 14.5,-21 14.5,0 169.5,0 169.5,-21"/>
<text text-anchor="middle" x="92" y="-7.4" font-family="Helvetica,sans-Serif" font-size="12.00">JKQTMathTextTextNode</text>
</a>
</g>
</g>
<!-- Node2 -->
<g id="Node000002" class="node">
<title>Node2</title>
<g id="a_Node000002"><a xlink:href="class_j_k_q_t_math_text_text_base_node.html" target="_top" xlink:title="base class for nodes representing text in the syntax tree">
<polygon fill="white" stroke="#666666" points="184,-79 0,-79 0,-58 184,-58 184,-79"/>
<text text-anchor="middle" x="92" y="-65.4" font-family="Helvetica,sans-Serif" font-size="12.00">JKQTMathTextTextBaseNode</text>
</a>
</g>
</g>
<!-- Node2&#45;&gt;Node1 -->
<g id="edge1_Node000001_Node000002" class="edge">
<title>Node2&#45;&gt;Node1</title>
<g id="a_edge1_Node000001_Node000002"><a xlink:title=" ">
<path fill="none" stroke="#63b8ff" d="M92,-47.66C92,-38.66 92,-28.42 92,-21.14"/>
<polygon fill="#63b8ff" stroke="#63b8ff" points="88.5,-47.75 92,-57.75 95.5,-47.75 88.5,-47.75"/>
</a>
</g>
</g>
<!-- Node3 -->
<g id="Node000003" class="node">
<title>Node3</title>
<g id="a_Node000003"><a xlink:href="class_j_k_q_t_math_text_node.html" target="_top" xlink:title="subclass representing one node in the syntax tree">
<polygon fill="white" stroke="#666666" points="190.5,-155 59.5,-155 59.5,-134 190.5,-134 190.5,-155"/>
<text text-anchor="middle" x="125" y="-141.4" font-family="Helvetica,sans-Serif" font-size="12.00">JKQTMathTextNode</text>
</a>
</g>
</g>
<!-- Node3&#45;&gt;Node2 -->
<g id="edge2_Node000002_Node000003" class="edge">
<title>Node3&#45;&gt;Node2</title>
<g id="a_edge2_Node000002_Node000003"><a xlink:title=" ">
<path fill="none" stroke="#63b8ff" d="M111.3,-125.34C109.36,-122.31 107.51,-119.14 106,-116 100.15,-103.84 96.14,-88.72 93.96,-79.08"/>
<polygon fill="#63b8ff" stroke="#63b8ff" points="108.58,-127.57 117.17,-133.78 114.33,-123.57 108.58,-127.57"/>
</a>
</g>
</g>
<!-- Node3&#45;&gt;Node3 -->
<g id="edge7_Node000003_Node000003" class="edge">
<title>Node3&#45;&gt;Node3</title>
<g id="a_edge7_Node000003_Node000003"><a xlink:title=" ">
<path fill="none" stroke="#9a32cd" stroke-dasharray="5,2" d="M201.02,-149.46C205.69,-148.29 208.5,-146.63 208.5,-144.5 208.5,-141.09 201.31,-138.9 190.81,-137.94"/>
<polygon fill="#9a32cd" stroke="#9a32cd" points="200.15,-146.06 190.81,-151.06 201.23,-152.97 200.15,-146.06"/>
</a>
</g>
<text text-anchor="start" x="212" y="-140.9" font-family="Helvetica,sans-Serif" font-size="12.00" fill="grey">parentNode</text>
</g>
<!-- Node4 -->
<g id="Node000004" class="node">
<title>Node4</title>
<g id="a_Node000004"><a xlink:href="class_j_k_q_t_math_text.html" target="_top" xlink:title="this class parses a mathematical markup string and can then draw the contained text/equation onto a Q...">
<polygon fill="white" stroke="#666666" points="346.5,-79 247.5,-79 247.5,-58 346.5,-58 346.5,-79"/>
<text text-anchor="middle" x="297" y="-65.4" font-family="Helvetica,sans-Serif" font-size="12.00">JKQTMathText</text>
</a>
</g>
</g>
<!-- Node3&#45;&gt;Node4 -->
<g id="edge5_Node000004_Node000003" class="edge">
<title>Node3&#45;&gt;Node4</title>
<g id="a_edge5_Node000004_Node000003"><a xlink:title=" ">
<path fill="none" stroke="#9a32cd" stroke-dasharray="5,2" d="M117.91,-123.83C115.95,-114.68 115.8,-104.25 122,-97 130.12,-87.5 198.44,-78.98 247.27,-74.03"/>
<polygon fill="#9a32cd" stroke="#9a32cd" points="114.63,-125.08 120.78,-133.71 121.35,-123.13 114.63,-125.08"/>
</a>
</g>
<text text-anchor="start" x="125.5" y="-102.9" font-family="Helvetica,sans-Serif" font-size="12.00" fill="grey">parsedNode</text>
</g>
<!-- Node4&#45;&gt;Node3 -->
<g id="edge3_Node000003_Node000004" class="edge">
<title>Node4&#45;&gt;Node3</title>
<g id="a_edge3_Node000003_Node000004"><a xlink:title=" ">
<path fill="none" stroke="#9a32cd" stroke-dasharray="5,2" d="M253.1,-82.58C243.14,-86.48 232.88,-91.27 224,-97 213.96,-103.47 215.13,-109.67 205,-116 192.54,-123.78 177.61,-129.68 164.04,-133.98"/>
<polygon fill="#9a32cd" stroke="#9a32cd" points="254.33,-85.86 262.5,-79.13 251.91,-79.29 254.33,-85.86"/>
</a>
</g>
<text text-anchor="start" x="227" y="-102.9" font-family="Helvetica,sans-Serif" font-size="12.00" fill="grey">parentMathText</text>
</g>
<!-- Node5 -->
<g id="Node000005" class="node">
<title>Node5</title>
<g id="a_Node000005"><a xlink:title=" ">
<polygon fill="white" stroke="#666666" points="374.5,-155 309.5,-155 309.5,-134 374.5,-134 374.5,-155"/>
<text text-anchor="middle" x="342" y="-141.4" font-family="Helvetica,sans-Serif" font-size="12.00">QObject</text>
</a>
</g>
</g>
<!-- Node5&#45;&gt;Node4 -->
<g id="edge4_Node000004_Node000005" class="edge">
<title>Node5&#45;&gt;Node4</title>
<g id="a_edge4_Node000004_Node000005"><a xlink:title=" ">
<path fill="none" stroke="#63b8ff" d="M338.63,-123.9C336.51,-115.19 333.17,-105.09 328,-97 323.58,-90.09 316.95,-83.88 310.96,-79.12"/>
<polygon fill="#63b8ff" stroke="#63b8ff" points="335.25,-124.86 340.7,-133.95 342.11,-123.45 335.25,-124.86"/>
</a>
</g>
</g>
<!-- Node6 -->
<g id="Node000006" class="node">
<title>Node6</title>
<g id="a_Node000006"><a xlink:title=" ">
<polygon fill="white" stroke="#666666" points="473,-155 393,-155 393,-134 473,-134 473,-155"/>
<text text-anchor="middle" x="433" y="-141.4" font-family="Helvetica,sans-Serif" font-size="12.00">std::mutex</text>
</a>
</g>
</g>
<!-- Node6&#45;&gt;Node4 -->
<g id="edge6_Node000004_Node000006" class="edge">
<title>Node6&#45;&gt;Node4</title>
<g id="a_edge6_Node000004_Node000006"><a xlink:title=" ">
<path fill="none" stroke="#9a32cd" stroke-dasharray="5,2" d="M406.58,-129.13C379.55,-114.42 338.28,-91.96 314.87,-79.22"/>
<polygon fill="#9a32cd" stroke="#9a32cd" points="405.04,-132.27 415.5,-133.98 408.39,-126.12 405.04,-132.27"/>
</a>
</g>
<text text-anchor="start" x="384.5" y="-102.9" font-family="Helvetica,sans-Serif" font-size="12.00" fill="grey">s_mutex</text>
</g>
</g>
</svg>
