<?xml version="1.0" encoding="UTF-8" standalone="no"?>
<!DOCTYPE svg PUBLIC "-//W3C//DTD SVG 1.1//EN"
 "http://www.w3.org/Graphics/SVG/1.1/DTD/svg11.dtd">
<!-- Generated by graphviz version 2.43.0 (0)
 -->
<!-- Title: JKQTPXGraphErrors Pages: 1 -->
<svg width="592pt" height="121pt"
 viewBox="0.00 0.00 592.00 120.50" xmlns="http://www.w3.org/2000/svg" xmlns:xlink="http://www.w3.org/1999/xlink">
<g id="graph0" class="graph" transform="scale(1 1) rotate(0) translate(4 116.5)">
<title>JKQTPXGraphErrors</title>
<!-- Node1 -->
<g id="Node000001" class="node">
<title>Node1</title>
<g id="a_Node000001"><a xlink:title="This class is the base class for graphs that only display error indicators in x&#45;direction.">
<polygon fill="#999999" stroke="#666666" points="348,-73.5 215,-73.5 215,-52.5 348,-52.5 348,-73.5"/>
<text text-anchor="middle" x="281.5" y="-59.9" font-family="Helvetica,sans-Serif" font-size="12.00">JKQTPXGraphErrors</text>
</a>
</g>
</g>
<!-- Node4 -->
<g id="Node000004" class="node">
<title>Node4</title>
<g id="a_Node000004"><a xlink:href="class_j_k_q_t_p_bar_horizontal_error_graph.html" target="_top" xlink:title="This implements a horizontal bar graph with bars between &#160;and &#160;and error indicator.">
<polygon fill="white" stroke="#666666" points="584,-112.5 384,-112.5 384,-91.5 584,-91.5 584,-112.5"/>
<text text-anchor="middle" x="484" y="-98.9" font-family="Helvetica,sans-Serif" font-size="12.00">JKQTPBarHorizontalErrorGraph</text>
</a>
</g>
</g>
<!-- Node1&#45;&gt;Node4 -->
<g id="edge3_Node000001_Node000004" class="edge">
<title>Node1&#45;&gt;Node4</title>
<g id="a_edge3_Node000001_Node000004"><a xlink:title=" ">
<path fill="none" stroke="#63b8ff" d="M345.72,-75.51C358.39,-78 371.62,-80.59 384,-83 398.26,-85.77 413.68,-88.75 428.01,-91.5"/>
<polygon fill="#63b8ff" stroke="#63b8ff" points="346.18,-72.03 335.69,-73.53 344.83,-78.9 346.18,-72.03"/>
</a>
</g>
</g>
<!-- Node5 -->
<g id="Node000005" class="node">
<title>Node5</title>
<g id="a_Node000005"><a xlink:href="class_j_k_q_t_p_filled_curve_y_error_graph.html" target="_top" xlink:title="This implements filled curve plots with y errors where the area is filled between the plot line and t...">
<polygon fill="white" stroke="#666666" points="579.5,-73.5 388.5,-73.5 388.5,-52.5 579.5,-52.5 579.5,-73.5"/>
<text text-anchor="middle" x="484" y="-59.9" font-family="Helvetica,sans-Serif" font-size="12.00">JKQTPFilledCurveYErrorGraph</text>
</a>
</g>
</g>
<!-- Node1&#45;&gt;Node5 -->
<g id="edge4_Node000001_Node000005" class="edge">
<title>Node1&#45;&gt;Node5</title>
<g id="a_edge4_Node000001_Node000005"><a xlink:title=" ">
<path fill="none" stroke="#63b8ff" d="M358.29,-63C368.15,-63 378.35,-63 388.47,-63"/>
<polygon fill="#63b8ff" stroke="#63b8ff" points="358.15,-59.5 348.15,-63 358.15,-66.5 358.15,-59.5"/>
</a>
</g>
</g>
<!-- Node6 -->
<g id="Node000006" class="node">
<title>Node6</title>
<g id="a_Node000006"><a xlink:href="class_j_k_q_t_p_impulses_horizontal_error_graph.html" target="_top" xlink:title="This implements an impulse plot with horizontal impulses in direction of the X axis (i....">
<polygon fill="white" stroke="#666666" points="582,-34 386,-34 386,0 582,0 582,-34"/>
<text text-anchor="start" x="394" y="-20.4" font-family="Helvetica,sans-Serif" font-size="12.00">JKQTPImpulsesHorizontalError</text>
<text text-anchor="middle" x="484" y="-7.4" font-family="Helvetica,sans-Serif" font-size="12.00">Graph</text>
</a>
</g>
</g>
<!-- Node1&#45;&gt;Node6 -->
<g id="edge5_Node000001_Node000006" class="edge">
<title>Node1&#45;&gt;Node6</title>
<g id="a_edge5_Node000001_Node000006"><a xlink:title=" ">
<path fill="none" stroke="#63b8ff" d="M338.52,-50.15C360.21,-45.17 385.36,-39.4 408.53,-34.08"/>
<polygon fill="#63b8ff" stroke="#63b8ff" points="337.46,-46.8 328.5,-52.45 339.03,-53.62 337.46,-46.8"/>
</a>
</g>
</g>
<!-- Node2 -->
<g id="Node000002" class="node">
<title>Node2</title>
<g id="a_Node000002"><a xlink:href="class_j_k_q_t_p_x_graph_error_data.html" target="_top" xlink:title="This class adds data fields for error indicators in x direction.">
<polygon fill="white" stroke="#666666" points="167,-93.5 12,-93.5 12,-72.5 167,-72.5 167,-93.5"/>
<text text-anchor="middle" x="89.5" y="-79.9" font-family="Helvetica,sans-Serif" font-size="12.00">JKQTPXGraphErrorData</text>
</a>
</g>
</g>
<!-- Node2&#45;&gt;Node1 -->
<g id="edge1_Node000001_Node000002" class="edge">
<title>Node2&#45;&gt;Node1</title>
<g id="a_edge1_Node000001_Node000002"><a xlink:title=" ">
<path fill="none" stroke="#63b8ff" d="M177.28,-73.87C189.88,-72.54 202.68,-71.19 214.77,-69.92"/>
<polygon fill="#63b8ff" stroke="#63b8ff" points="176.81,-70.4 167.23,-74.92 177.54,-77.36 176.81,-70.4"/>
</a>
</g>
</g>
<!-- Node3 -->
<g id="Node000003" class="node">
<title>Node3</title>
<g id="a_Node000003"><a xlink:href="class_j_k_q_t_p_graph_error_style_mixin.html" target="_top" xlink:title="This mix&#45;in class assembles all styling properties applicable to error indicators.">
<polygon fill="white" stroke="#666666" points="179,-54.5 0,-54.5 0,-33.5 179,-33.5 179,-54.5"/>
<text text-anchor="middle" x="89.5" y="-40.9" font-family="Helvetica,sans-Serif" font-size="12.00">JKQTPGraphErrorStyleMixin</text>
</a>
</g>
</g>
<!-- Node3&#45;&gt;Node1 -->
<g id="edge2_Node000001_Node000003" class="edge">
<title>Node3&#45;&gt;Node1</title>
<g id="a_edge2_Node000001_Node000003"><a xlink:title=" ">
<path fill="none" stroke="#63b8ff" d="M189.24,-53.87C197.87,-54.74 206.47,-55.6 214.73,-56.42"/>
<polygon fill="#63b8ff" stroke="#63b8ff" points="189.4,-50.37 179.1,-52.86 188.71,-57.34 189.4,-50.37"/>
</a>
</g>
</g>
</g>
</svg>
