<?xml version="1.0" encoding="UTF-8" standalone="no"?>
<!DOCTYPE svg PUBLIC "-//W3C//DTD SVG 1.1//EN"
 "http://www.w3.org/Graphics/SVG/1.1/DTD/svg11.dtd">
<!-- Generated by graphviz version 2.43.0 (0)
 -->
<!-- Title: JKQTPBarHorizontalGraph Pages: 1 -->
<svg width="538pt" height="441pt"
 viewBox="0.00 0.00 537.50 441.00" xmlns="http://www.w3.org/2000/svg" xmlns:xlink="http://www.w3.org/1999/xlink">
<g id="graph0" class="graph" transform="scale(1 1) rotate(0) translate(4 437)">
<title>JKQTPBarHorizontalGraph</title>
<!-- Node1 -->
<g id="Node000001" class="node">
<title>Node1</title>
<g id="a_Node000001"><a xlink:title="This implements a horizontal bar graph with bars between &#160;and .">
<polygon fill="#999999" stroke="#666666" points="346,-91 175,-91 175,-70 346,-70 346,-91"/>
<text text-anchor="middle" x="260.5" y="-77.4" font-family="Helvetica,sans-Serif" font-size="12.00">JKQTPBarHorizontalGraph</text>
</a>
</g>
</g>
<!-- Node10 -->
<g id="Node000010" class="node">
<title>Node10</title>
<g id="a_Node000010"><a xlink:href="class_j_k_q_t_p_bar_horizontal_error_graph.html" target="_top" xlink:title="This implements a horizontal bar graph with bars between &#160;and &#160;and error indicator.">
<polygon fill="white" stroke="#666666" points="253.5,-27.5 53.5,-27.5 53.5,-6.5 253.5,-6.5 253.5,-27.5"/>
<text text-anchor="middle" x="153.5" y="-13.9" font-family="Helvetica,sans-Serif" font-size="12.00">JKQTPBarHorizontalErrorGraph</text>
</a>
</g>
</g>
<!-- Node1&#45;&gt;Node10 -->
<g id="edge9_Node000001_Node000010" class="edge">
<title>Node1&#45;&gt;Node10</title>
<g id="a_edge9_Node000001_Node000010"><a xlink:title=" ">
<path fill="none" stroke="#63b8ff" d="M234.85,-64.76C214.76,-53.21 187.41,-37.49 170.1,-27.54"/>
<polygon fill="#63b8ff" stroke="#63b8ff" points="233.37,-67.94 243.78,-69.89 236.86,-61.87 233.37,-67.94"/>
</a>
</g>
</g>
<!-- Node11 -->
<g id="Node000011" class="node">
<title>Node11</title>
<g id="a_Node000011"><a xlink:href="class_j_k_q_t_p_bar_horizontal_stackable_graph.html" target="_top" xlink:title="This implements a horizontal bar graph with bars between &#160;and &#160;Optionally several graphs of this type...">
<polygon fill="white" stroke="#666666" points="465,-34 272,-34 272,0 465,0 465,-34"/>
<text text-anchor="start" x="280" y="-20.4" font-family="Helvetica,sans-Serif" font-size="12.00">JKQTPBarHorizontalStackable</text>
<text text-anchor="middle" x="368.5" y="-7.4" font-family="Helvetica,sans-Serif" font-size="12.00">Graph</text>
</a>
</g>
</g>
<!-- Node1&#45;&gt;Node11 -->
<g id="edge10_Node000001_Node000011" class="edge">
<title>Node1&#45;&gt;Node11</title>
<g id="a_edge10_Node000001_Node000011"><a xlink:title=" ">
<path fill="none" stroke="#63b8ff" d="M286.29,-64.82C302.46,-55.61 323.32,-43.73 339.98,-34.24"/>
<polygon fill="#63b8ff" stroke="#63b8ff" points="284.33,-61.9 277.38,-69.89 287.8,-67.98 284.33,-61.9"/>
</a>
</g>
</g>
<!-- Node2 -->
<g id="Node000002" class="node">
<title>Node2</title>
<g id="a_Node000002"><a xlink:href="class_j_k_q_t_p_bar_graph_base.html" target="_top" xlink:title="This is a base&#45;class for all bar graphs with vertical or horizontal orientation (the orientation is i...">
<polygon fill="white" stroke="#666666" points="330.5,-148 190.5,-148 190.5,-127 330.5,-127 330.5,-148"/>
<text text-anchor="middle" x="260.5" y="-134.4" font-family="Helvetica,sans-Serif" font-size="12.00">JKQTPBarGraphBase</text>
</a>
</g>
</g>
<!-- Node2&#45;&gt;Node1 -->
<g id="edge1_Node000001_Node000002" class="edge">
<title>Node2&#45;&gt;Node1</title>
<g id="a_edge1_Node000001_Node000002"><a xlink:title=" ">
<path fill="none" stroke="#63b8ff" d="M260.5,-116.86C260.5,-108.2 260.5,-98.42 260.5,-91.34"/>
<polygon fill="#63b8ff" stroke="#63b8ff" points="257,-116.92 260.5,-126.92 264,-116.92 257,-116.92"/>
</a>
</g>
</g>
<!-- Node3 -->
<g id="Node000003" class="node">
<title>Node3</title>
<g id="a_Node000003"><a xlink:href="class_j_k_q_t_p_x_y_baseline_graph.html" target="_top" xlink:title="This virtual JKQTPGraph descendent extends JKQTPXYGraph adds a baseline&#45;property, which is necessary,...">
<polygon fill="white" stroke="#666666" points="155,-205 0,-205 0,-184 155,-184 155,-205"/>
<text text-anchor="middle" x="77.5" y="-191.4" font-family="Helvetica,sans-Serif" font-size="12.00">JKQTPXYBaselineGraph</text>
</a>
</g>
</g>
<!-- Node3&#45;&gt;Node2 -->
<g id="edge2_Node000002_Node000003" class="edge">
<title>Node3&#45;&gt;Node2</title>
<g id="a_edge2_Node000002_Node000003"><a xlink:title=" ">
<path fill="none" stroke="#63b8ff" d="M119.26,-180.95C152.51,-170.96 198.36,-157.18 228.68,-148.06"/>
<polygon fill="#63b8ff" stroke="#63b8ff" points="117.95,-177.69 109.38,-183.92 119.96,-184.39 117.95,-177.69"/>
</a>
</g>
</g>
<!-- Node4 -->
<g id="Node000004" class="node">
<title>Node4</title>
<g id="a_Node000004"><a xlink:href="class_j_k_q_t_p_x_y_graph.html" target="_top" xlink:title="This virtual JKQTPGraph descendent may be used as base for all graphs that use at least two columns t...">
<polygon fill="white" stroke="#666666" points="130,-262 25,-262 25,-241 130,-241 130,-262"/>
<text text-anchor="middle" x="77.5" y="-248.4" font-family="Helvetica,sans-Serif" font-size="12.00">JKQTPXYGraph</text>
</a>
</g>
</g>
<!-- Node4&#45;&gt;Node3 -->
<g id="edge3_Node000003_Node000004" class="edge">
<title>Node4&#45;&gt;Node3</title>
<g id="a_edge3_Node000003_Node000004"><a xlink:title=" ">
<path fill="none" stroke="#63b8ff" d="M77.5,-230.86C77.5,-222.2 77.5,-212.42 77.5,-205.34"/>
<polygon fill="#63b8ff" stroke="#63b8ff" points="74,-230.92 77.5,-240.92 81,-230.92 74,-230.92"/>
</a>
</g>
</g>
<!-- Node5 -->
<g id="Node000005" class="node">
<title>Node5</title>
<g id="a_Node000005"><a xlink:href="class_j_k_q_t_p_graph.html" target="_top" xlink:title="this virtual base class of the (data&#45;column based) graphs, which are part of a JKQTPlotter plot and w...">
<polygon fill="white" stroke="#666666" points="122,-319 33,-319 33,-298 122,-298 122,-319"/>
<text text-anchor="middle" x="77.5" y="-305.4" font-family="Helvetica,sans-Serif" font-size="12.00">JKQTPGraph</text>
</a>
</g>
</g>
<!-- Node5&#45;&gt;Node4 -->
<g id="edge4_Node000004_Node000005" class="edge">
<title>Node5&#45;&gt;Node4</title>
<g id="a_edge4_Node000004_Node000005"><a xlink:title=" ">
<path fill="none" stroke="#63b8ff" d="M77.5,-287.86C77.5,-279.2 77.5,-269.42 77.5,-262.34"/>
<polygon fill="#63b8ff" stroke="#63b8ff" points="74,-287.92 77.5,-297.92 81,-287.92 74,-287.92"/>
</a>
</g>
</g>
<!-- Node6 -->
<g id="Node000006" class="node">
<title>Node6</title>
<g id="a_Node000006"><a xlink:href="class_j_k_q_t_p_plot_element.html" target="_top" xlink:title="this virtual base class of every element, which is part of a JKQTPlotter plot and may appear in its k...">
<polygon fill="white" stroke="#666666" points="140,-376 15,-376 15,-355 140,-355 140,-376"/>
<text text-anchor="middle" x="77.5" y="-362.4" font-family="Helvetica,sans-Serif" font-size="12.00">JKQTPPlotElement</text>
</a>
</g>
</g>
<!-- Node6&#45;&gt;Node5 -->
<g id="edge5_Node000005_Node000006" class="edge">
<title>Node6&#45;&gt;Node5</title>
<g id="a_edge5_Node000005_Node000006"><a xlink:title=" ">
<path fill="none" stroke="#63b8ff" d="M77.5,-344.86C77.5,-336.2 77.5,-326.42 77.5,-319.34"/>
<polygon fill="#63b8ff" stroke="#63b8ff" points="74,-344.92 77.5,-354.92 81,-344.92 74,-344.92"/>
</a>
</g>
</g>
<!-- Node7 -->
<g id="Node000007" class="node">
<title>Node7</title>
<g id="a_Node000007"><a xlink:title=" ">
<polygon fill="white" stroke="#666666" points="110,-433 45,-433 45,-412 110,-412 110,-433"/>
<text text-anchor="middle" x="77.5" y="-419.4" font-family="Helvetica,sans-Serif" font-size="12.00">QObject</text>
</a>
</g>
</g>
<!-- Node7&#45;&gt;Node6 -->
<g id="edge6_Node000006_Node000007" class="edge">
<title>Node7&#45;&gt;Node6</title>
<g id="a_edge6_Node000006_Node000007"><a xlink:title=" ">
<path fill="none" stroke="#63b8ff" d="M77.5,-401.86C77.5,-393.2 77.5,-383.42 77.5,-376.34"/>
<polygon fill="#63b8ff" stroke="#63b8ff" points="74,-401.92 77.5,-411.92 81,-401.92 74,-401.92"/>
</a>
</g>
</g>
<!-- Node8 -->
<g id="Node000008" class="node">
<title>Node8</title>
<g id="a_Node000008"><a xlink:href="class_j_k_q_t_p_graph_line_style_mixin.html" target="_top" xlink:title="This Mix&#45;In class provides setter/getter methods, storage and other facilities for the graph line sty...">
<polygon fill="white" stroke="#666666" points="347.5,-205 173.5,-205 173.5,-184 347.5,-184 347.5,-205"/>
<text text-anchor="middle" x="260.5" y="-191.4" font-family="Helvetica,sans-Serif" font-size="12.00">JKQTPGraphLineStyleMixin</text>
</a>
</g>
</g>
<!-- Node8&#45;&gt;Node2 -->
<g id="edge7_Node000002_Node000008" class="edge">
<title>Node8&#45;&gt;Node2</title>
<g id="a_edge7_Node000002_Node000008"><a xlink:title=" ">
<path fill="none" stroke="#63b8ff" d="M260.5,-173.86C260.5,-165.2 260.5,-155.42 260.5,-148.34"/>
<polygon fill="#63b8ff" stroke="#63b8ff" points="257,-173.92 260.5,-183.92 264,-173.92 257,-173.92"/>
</a>
</g>
</g>
<!-- Node9 -->
<g id="Node000009" class="node">
<title>Node9</title>
<g id="a_Node000009"><a xlink:href="class_j_k_q_t_p_graph_fill_style_mixin.html" target="_top" xlink:title="This Mix&#45;In class provides setter/getter methods, storage and other facilities for the graph filling ...">
<polygon fill="white" stroke="#666666" points="529.5,-205 365.5,-205 365.5,-184 529.5,-184 529.5,-205"/>
<text text-anchor="middle" x="447.5" y="-191.4" font-family="Helvetica,sans-Serif" font-size="12.00">JKQTPGraphFillStyleMixin</text>
</a>
</g>
</g>
<!-- Node9&#45;&gt;Node2 -->
<g id="edge8_Node000002_Node000009" class="edge">
<title>Node9&#45;&gt;Node2</title>
<g id="a_edge8_Node000002_Node000009"><a xlink:title=" ">
<path fill="none" stroke="#63b8ff" d="M405.27,-181.08C371.25,-171.07 324.14,-157.22 293.01,-148.06"/>
<polygon fill="#63b8ff" stroke="#63b8ff" points="404.35,-184.46 414.93,-183.92 406.32,-177.74 404.35,-184.46"/>
</a>
</g>
</g>
</g>
</svg>
