<?xml version="1.0" encoding="UTF-8" standalone="no"?>
<!DOCTYPE svg PUBLIC "-//W3C//DTD SVG 1.1//EN"
 "http://www.w3.org/Graphics/SVG/1.1/DTD/svg11.dtd">
<!-- Generated by graphviz version 2.43.0 (0)
 -->
<!-- Title: JKQTPGraphSymbolStyleMixin Pages: 1 -->
<!--zoomable 320 -->

<svg id="main" version="1.1" xmlns="http://www.w3.org/2000/svg" xmlns:xlink="http://www.w3.org/1999/xlink" xml:space="preserve" onload="init(evt)">

<style type="text/css"><![CDATA[
.node, .edge {opacity: 0.7;}
.node.selected, .edge.selected {opacity: 1;}
.edge:hover path { stroke: red; }
.edge:hover polygon { stroke: red; fill: red; }
]]></style>

<defs>
  <circle id="rim" cx="0" cy="0" r="7"/>
  <circle id="rim2" cx="0" cy="0" r="3.5"/>
  <g id="zoomPlus">
    <use xlink:href="#rim" fill="#404040"><set attributeName="fill" to="#808080" begin="zoomplus.mouseover" end="zoomplus.mouseout"/></use>
    <path d="M-4,0h8M0,-4v8" fill="none" stroke="white" stroke-width="1.5" pointer-events="none"/>
  </g>
  <g id="zoomMin">
    <use xlink:href="#rim" fill="#404040"><set attributeName="fill" to="#808080" begin="zoomminus.mouseover" end="zoomminus.mouseout"/></use>
    <path d="M-4,0h8" fill="none" stroke="white" stroke-width="1.5" pointer-events="none"/>
  </g>
  <g id="arrowUp" transform="translate(30 24)">
    <use xlink:href="#rim"/>
    <path pointer-events="none" fill="none" stroke="white" stroke-width="1.5" d="M0,-3.0v7 M-2.5,-0.5L0,-3.0L2.5,-0.5"/>
  </g>
  <g id="arrowRight" transform="rotate(90) translate(36 -43)">
    <use xlink:href="#rim"/>
    <path pointer-events="none" fill="none" stroke="white" stroke-width="1.5" d="M0,-3.0v7 M-2.5,-0.5L0,-3.0L2.5,-0.5"/>
  </g>
  <g id="arrowDown" transform="rotate(180) translate(-30 -48)">
    <use xlink:href="#rim"/>
    <path pointer-events="none" fill="none" stroke="white" stroke-width="1.5" d="M0,-3.0v7 M-2.5,-0.5L0,-3.0L2.5,-0.5"/>
  </g>
  <g id="arrowLeft" transform="rotate(270) translate(-36 17)">
    <use xlink:href="#rim"/>
    <path pointer-events="none" fill="none" stroke="white" stroke-width="1.5" d="M0,-3.0v7 M-2.5,-0.5L0,-3.0L2.5,-0.5"/>
  </g>
  <g id="resetDef">
    <use xlink:href="#rim2" fill="#404040"><set attributeName="fill" to="#808080" begin="reset.mouseover" end="reset.mouseout"/></use>
  </g>
</defs>
<script type="application/ecmascript">
var viewWidth = 901;
var viewHeight = 320;
var sectionId = 'dynsection-0';
</script>
<script type="application/ecmascript" xlink:href="svg.min.js"/>
<svg id="graph" class="graph">
<g id="viewport">
<title>JKQTPGraphSymbolStyleMixin</title>
<!-- Node1 -->
<g id="Node000001" class="node">
<title>Node1</title>
<g id="a_Node000001"><a xlink:title="This Mix&#45;In class provides setter/getter methods, storage and other facilities for the graph symbols ...">
<polygon fill="#999999" stroke="#666666" points="194,-159 0,-159 0,-138 194,-138 194,-159"/>
<text text-anchor="middle" x="97" y="-145.4" font-family="Helvetica,sans-Serif" font-size="12.00">JKQTPGraphSymbolStyleMixin</text>
</a>
</g>
</g>
<!-- Node2 -->
<g id="Node000002" class="node">
<title>Node2</title>
<g id="a_Node000002"><a xlink:href="class_j_k_q_t_p_geo_symbol.html" target="_top" xlink:title="This virtual JKQTPPlotAnnotationElement descendent may be used to display a single symbol (marker).">
<polygon fill="white" stroke="#666666" points="386.5,-293 265.5,-293 265.5,-272 386.5,-272 386.5,-293"/>
<text text-anchor="middle" x="326" y="-279.4" font-family="Helvetica,sans-Serif" font-size="12.00">JKQTPGeoSymbol</text>
</a>
</g>
</g>
<!-- Node1&#45;&gt;Node2 -->
<g id="edge1_Node000001_Node000002" class="edge">
<title>Node1&#45;&gt;Node2</title>
<g id="a_edge1_Node000001_Node000002"><a xlink:title=" ">
<path fill="none" stroke="#63b8ff" d="M113.18,-166.69C135.81,-192.54 181.02,-239.42 230,-263.5 240.94,-268.88 253.31,-272.74 265.41,-275.5"/>
<polygon fill="#63b8ff" stroke="#63b8ff" points="115.82,-164.4 106.65,-159.1 110.51,-168.96 115.82,-164.4"/>
</a>
</g>
</g>
<!-- Node3 -->
<g id="Node000003" class="node">
<title>Node3</title>
<g id="a_Node000003"><a xlink:href="class_j_k_q_t_p_impulses_graph_base.html" target="_top" xlink:title="This is a base class for all impulse graphs.">
<polygon fill="white" stroke="#666666" points="412,-254 240,-254 240,-233 412,-233 412,-254"/>
<text text-anchor="middle" x="326" y="-240.4" font-family="Helvetica,sans-Serif" font-size="12.00">JKQTPImpulsesGraphBase</text>
</a>
</g>
</g>
<!-- Node1&#45;&gt;Node3 -->
<g id="edge2_Node000001_Node000003" class="edge">
<title>Node1&#45;&gt;Node3</title>
<g id="a_edge2_Node000001_Node000003"><a xlink:title=" ">
<path fill="none" stroke="#63b8ff" d="M122.75,-164.57C148.59,-180.73 190.74,-205.34 230,-220.5 242.82,-225.45 257.04,-229.57 270.49,-232.89"/>
<polygon fill="#63b8ff" stroke="#63b8ff" points="124.32,-161.43 114,-159.04 120.58,-167.34 124.32,-161.43"/>
</a>
</g>
</g>
<!-- Node8 -->
<g id="Node000008" class="node">
<title>Node8</title>
<g id="a_Node000008"><a xlink:href="class_j_k_q_t_p_single_column_symbols_graph.html" target="_top" xlink:title="plots a 1&#45;column set of data&#45;values with symbols onto a JKQtPlotter/JKQtBasePlotter....">
<polygon fill="white" stroke="#666666" points="418.5,-211.5 233.5,-211.5 233.5,-177.5 418.5,-177.5 418.5,-211.5"/>
<text text-anchor="start" x="241.5" y="-197.9" font-family="Helvetica,sans-Serif" font-size="12.00">JKQTPSingleColumnSymbols</text>
<text text-anchor="middle" x="326" y="-184.9" font-family="Helvetica,sans-Serif" font-size="12.00">Graph</text>
</a>
</g>
</g>
<!-- Node1&#45;&gt;Node8 -->
<g id="edge7_Node000001_Node000008" class="edge">
<title>Node1&#45;&gt;Node8</title>
<g id="a_edge7_Node000001_Node000008"><a xlink:title=" ">
<path fill="none" stroke="#63b8ff" d="M160.1,-161.08C184.95,-166.12 213.98,-172 240.69,-177.42"/>
<polygon fill="#63b8ff" stroke="#63b8ff" points="160.57,-157.61 150.08,-159.05 159.18,-164.47 160.57,-157.61"/>
</a>
</g>
</g>
<!-- Node9 -->
<g id="Node000009" class="node">
<title>Node9</title>
<g id="a_Node000009"><a xlink:href="class_j_k_q_t_p_special_line_graph_base.html" target="_top" xlink:title="a Base class for special line graphs (steps ...) like e.g. JKQTPSpecialLineHorizontalGraph">
<polygon fill="white" stroke="#666666" points="419,-159 233,-159 233,-138 419,-138 419,-159"/>
<text text-anchor="middle" x="326" y="-145.4" font-family="Helvetica,sans-Serif" font-size="12.00">JKQTPSpecialLineGraphBase</text>
</a>
</g>
</g>
<!-- Node1&#45;&gt;Node9 -->
<g id="edge8_Node000001_Node000009" class="edge">
<title>Node1&#45;&gt;Node9</title>
<g id="a_edge8_Node000001_Node000009"><a xlink:title=" ">
<path fill="none" stroke="#63b8ff" d="M204.53,-148.5C214.01,-148.5 223.57,-148.5 232.92,-148.5"/>
<polygon fill="#63b8ff" stroke="#63b8ff" points="204.27,-145 194.27,-148.5 204.27,-152 204.27,-145"/>
</a>
</g>
</g>
<!-- Node12 -->
<g id="Node000012" class="node">
<title>Node12</title>
<g id="a_Node000012"><a xlink:href="class_j_k_q_t_p_x_y_line_graph.html" target="_top" xlink:title="This implements xy line plots. This also alows to draw symbols at the data points.">
<polygon fill="white" stroke="#666666" points="391,-117 261,-117 261,-96 391,-96 391,-117"/>
<text text-anchor="middle" x="326" y="-103.4" font-family="Helvetica,sans-Serif" font-size="12.00">JKQTPXYLineGraph</text>
</a>
</g>
</g>
<!-- Node1&#45;&gt;Node12 -->
<g id="edge11_Node000001_Node000012" class="edge">
<title>Node1&#45;&gt;Node12</title>
<g id="a_edge11_Node000001_Node000012"><a xlink:title=" ">
<path fill="none" stroke="#63b8ff" d="M164.93,-136.12C197.68,-130.06 236.68,-122.84 267.99,-117.05"/>
<polygon fill="#63b8ff" stroke="#63b8ff" points="164.18,-132.69 154.99,-137.96 165.46,-139.58 164.18,-132.69"/>
</a>
</g>
</g>
<!-- Node14 -->
<g id="Node000014" class="node">
<title>Node14</title>
<g id="a_Node000014"><a xlink:href="class_j_k_q_t_p_x_y_parametrized_scatter_graph.html" target="_top" xlink:title="This implements xy scatter plots (like JKQTPXYScatterGraph), but the color and size of the symbols ma...">
<polygon fill="white" stroke="#666666" points="422,-75.5 230,-75.5 230,-41.5 422,-41.5 422,-75.5"/>
<text text-anchor="start" x="238" y="-61.9" font-family="Helvetica,sans-Serif" font-size="12.00">JKQTPXYParametrizedScatter</text>
<text text-anchor="middle" x="326" y="-48.9" font-family="Helvetica,sans-Serif" font-size="12.00">Graph</text>
</a>
</g>
</g>
<!-- Node1&#45;&gt;Node14 -->
<g id="edge13_Node000001_Node000014" class="edge">
<title>Node1&#45;&gt;Node14</title>
<g id="a_edge13_Node000001_Node000014"><a xlink:title=" ">
<path fill="none" stroke="#63b8ff" d="M127.75,-133.33C154.18,-120.2 194.08,-101.21 230,-87.5 241.12,-83.26 253.14,-79.2 264.78,-75.52"/>
<polygon fill="#63b8ff" stroke="#63b8ff" points="126.03,-130.28 118.65,-137.88 129.16,-136.54 126.03,-130.28"/>
</a>
</g>
</g>
<!-- Node16 -->
<g id="Node000016" class="node">
<title>Node16</title>
<g id="a_Node000016"><a xlink:href="class_j_k_q_t_p_x_y_scatter_graph.html" target="_top" xlink:title="This implements xy scatter plots. This also alows to draw symbols at the data points.">
<polygon fill="white" stroke="#666666" points="400.5,-23 251.5,-23 251.5,-2 400.5,-2 400.5,-23"/>
<text text-anchor="middle" x="326" y="-9.4" font-family="Helvetica,sans-Serif" font-size="12.00">JKQTPXYScatterGraph</text>
</a>
</g>
</g>
<!-- Node1&#45;&gt;Node16 -->
<g id="edge15_Node000001_Node000016" class="edge">
<title>Node1&#45;&gt;Node16</title>
<g id="a_edge15_Node000001_Node000016"><a xlink:title=" ">
<path fill="none" stroke="#63b8ff" d="M113.17,-130.21C135.8,-104.22 181.02,-57.03 230,-32.5 237.69,-28.65 246.08,-25.54 254.6,-23.03"/>
<polygon fill="#63b8ff" stroke="#63b8ff" points="110.48,-127.98 106.64,-137.85 115.8,-132.52 110.48,-127.98"/>
</a>
</g>
</g>
<!-- Node4 -->
<g id="Node000004" class="node">
<title>Node4</title>
<g id="a_Node000004"><a xlink:href="class_j_k_q_t_p_impulses_horizontal_graph.html" target="_top" xlink:title="This implements an impulse plot with horizontal impulses in direction of the X axis (i....">
<polygon fill="white" stroke="#666666" points="661,-302 458,-302 458,-281 661,-281 661,-302"/>
<text text-anchor="middle" x="559.5" y="-288.4" font-family="Helvetica,sans-Serif" font-size="12.00">JKQTPImpulsesHorizontalGraph</text>
</a>
</g>
</g>
<!-- Node3&#45;&gt;Node4 -->
<g id="edge3_Node000003_Node000004" class="edge">
<title>Node3&#45;&gt;Node4</title>
<g id="a_edge3_Node000003_Node000004"><a xlink:title=" ">
<path fill="none" stroke="#63b8ff" d="M388.05,-256.16C425.38,-263.9 472.56,-273.68 507.81,-280.99"/>
<polygon fill="#63b8ff" stroke="#63b8ff" points="388.31,-252.64 377.8,-254.03 386.88,-259.49 388.31,-252.64"/>
</a>
</g>
</g>
<!-- Node6 -->
<g id="Node000006" class="node">
<title>Node6</title>
<g id="a_Node000006"><a xlink:href="class_j_k_q_t_p_impulses_vertical_graph.html" target="_top" xlink:title="This implements an impulse plot with impulses in direction of the Y axis (i.e. from y=0 to y=f(x) )">
<polygon fill="white" stroke="#666666" points="653.5,-257 465.5,-257 465.5,-236 653.5,-236 653.5,-257"/>
<text text-anchor="middle" x="559.5" y="-243.4" font-family="Helvetica,sans-Serif" font-size="12.00">JKQTPImpulsesVerticalGraph</text>
</a>
</g>
</g>
<!-- Node3&#45;&gt;Node6 -->
<g id="edge5_Node000003_Node000006" class="edge">
<title>Node3&#45;&gt;Node6</title>
<g id="a_edge5_Node000003_Node000006"><a xlink:title=" ">
<path fill="none" stroke="#63b8ff" d="M422.44,-244.74C436.59,-244.92 451.17,-245.11 465.28,-245.29"/>
<polygon fill="#63b8ff" stroke="#63b8ff" points="422.26,-241.23 412.22,-244.6 422.17,-248.23 422.26,-241.23"/>
</a>
</g>
</g>
<!-- Node5 -->
<g id="Node000005" class="node">
<title>Node5</title>
<g id="a_Node000005"><a xlink:href="class_j_k_q_t_p_impulses_horizontal_error_graph.html" target="_top" xlink:title="This implements an impulse plot with horizontal impulses in direction of the X axis (i....">
<polygon fill="white" stroke="#666666" points="893,-311.5 697,-311.5 697,-277.5 893,-277.5 893,-311.5"/>
<text text-anchor="start" x="705" y="-297.9" font-family="Helvetica,sans-Serif" font-size="12.00">JKQTPImpulsesHorizontalError</text>
<text text-anchor="middle" x="795" y="-284.9" font-family="Helvetica,sans-Serif" font-size="12.00">Graph</text>
</a>
</g>
</g>
<!-- Node4&#45;&gt;Node5 -->
<g id="edge4_Node000004_Node000005" class="edge">
<title>Node4&#45;&gt;Node5</title>
<g id="a_edge4_Node000004_Node000005"><a xlink:title=" ">
<path fill="none" stroke="#63b8ff" d="M671.26,-292.92C679.84,-293.03 688.46,-293.14 696.94,-293.25"/>
<polygon fill="#63b8ff" stroke="#63b8ff" points="671.26,-289.42 661.22,-292.79 671.17,-296.42 671.26,-289.42"/>
</a>
</g>
</g>
<!-- Node7 -->
<g id="Node000007" class="node">
<title>Node7</title>
<g id="a_Node000007"><a xlink:href="class_j_k_q_t_p_impulses_vertical_error_graph.html" target="_top" xlink:title="This implements an impulse plot with impulses in direction of the X axis (i.e. from x=0 to x=f(y) )">
<polygon fill="white" stroke="#666666" points="885,-259.5 705,-259.5 705,-225.5 885,-225.5 885,-259.5"/>
<text text-anchor="start" x="713" y="-245.9" font-family="Helvetica,sans-Serif" font-size="12.00">JKQTPImpulsesVerticalError</text>
<text text-anchor="middle" x="795" y="-232.9" font-family="Helvetica,sans-Serif" font-size="12.00">Graph</text>
</a>
</g>
</g>
<!-- Node6&#45;&gt;Node7 -->
<g id="edge6_Node000006_Node000007" class="edge">
<title>Node6&#45;&gt;Node7</title>
<g id="a_edge6_Node000006_Node000007"><a xlink:title=" ">
<path fill="none" stroke="#63b8ff" d="M664.08,-244.73C677.61,-244.49 691.38,-244.26 704.65,-244.03"/>
<polygon fill="#63b8ff" stroke="#63b8ff" points="663.73,-241.23 653.79,-244.9 663.85,-248.23 663.73,-241.23"/>
</a>
</g>
</g>
<!-- Node10 -->
<g id="Node000010" class="node">
<title>Node10</title>
<g id="a_Node000010"><a xlink:href="class_j_k_q_t_p_special_line_horizontal_graph.html" target="_top" xlink:title="This implements a step plot with values .">
<polygon fill="white" stroke="#666666" points="650,-217.5 469,-217.5 469,-183.5 650,-183.5 650,-217.5"/>
<text text-anchor="start" x="477" y="-203.9" font-family="Helvetica,sans-Serif" font-size="12.00">JKQTPSpecialLineHorizontal</text>
<text text-anchor="middle" x="559.5" y="-190.9" font-family="Helvetica,sans-Serif" font-size="12.00">Graph</text>
</a>
</g>
</g>
<!-- Node9&#45;&gt;Node10 -->
<g id="edge9_Node000009_Node000010" class="edge">
<title>Node9&#45;&gt;Node10</title>
<g id="a_edge9_Node000009_Node000010"><a xlink:title=" ">
<path fill="none" stroke="#63b8ff" d="M388.11,-161.15C399.39,-163.55 411.06,-166.07 422,-168.5 443.15,-173.2 466.09,-178.5 487.02,-183.42"/>
<polygon fill="#63b8ff" stroke="#63b8ff" points="388.83,-157.73 378.32,-159.08 387.38,-164.57 388.83,-157.73"/>
</a>
</g>
</g>
<!-- Node11 -->
<g id="Node000011" class="node">
<title>Node11</title>
<g id="a_Node000011"><a xlink:href="class_j_k_q_t_p_special_line_vertical_graph.html" target="_top" xlink:title="This implements a step plot with values .">
<polygon fill="white" stroke="#666666" points="642,-165.5 477,-165.5 477,-131.5 642,-131.5 642,-165.5"/>
<text text-anchor="start" x="485" y="-151.9" font-family="Helvetica,sans-Serif" font-size="12.00">JKQTPSpecialLineVertical</text>
<text text-anchor="middle" x="559.5" y="-138.9" font-family="Helvetica,sans-Serif" font-size="12.00">Graph</text>
</a>
</g>
</g>
<!-- Node9&#45;&gt;Node11 -->
<g id="edge10_Node000009_Node000011" class="edge">
<title>Node9&#45;&gt;Node11</title>
<g id="a_edge10_Node000009_Node000011"><a xlink:title=" ">
<path fill="none" stroke="#63b8ff" d="M429.5,-148.5C445.32,-148.5 461.48,-148.5 476.77,-148.5"/>
<polygon fill="#63b8ff" stroke="#63b8ff" points="429.16,-145 419.16,-148.5 429.16,-152 429.16,-145"/>
</a>
</g>
</g>
<!-- Node13 -->
<g id="Node000013" class="node">
<title>Node13</title>
<g id="a_Node000013"><a xlink:href="class_j_k_q_t_p_x_y_line_error_graph.html" target="_top" xlink:title="This implements xy line plots with x and y error indicators.">
<polygon fill="white" stroke="#666666" points="639,-113 480,-113 480,-92 639,-92 639,-113"/>
<text text-anchor="middle" x="559.5" y="-99.4" font-family="Helvetica,sans-Serif" font-size="12.00">JKQTPXYLineErrorGraph</text>
</a>
</g>
</g>
<!-- Node12&#45;&gt;Node13 -->
<g id="edge12_Node000012_Node000013" class="edge">
<title>Node12&#45;&gt;Node13</title>
<g id="a_edge12_Node000012_Node000013"><a xlink:title=" ">
<path fill="none" stroke="#63b8ff" d="M401.34,-105.22C426.38,-104.78 454.39,-104.3 479.76,-103.86"/>
<polygon fill="#63b8ff" stroke="#63b8ff" points="401.12,-101.72 391.18,-105.39 401.24,-108.72 401.12,-101.72"/>
</a>
</g>
</g>
<!-- Node15 -->
<g id="Node000015" class="node">
<title>Node15</title>
<g id="a_Node000015"><a xlink:href="class_j_k_q_t_p_x_y_parametrized_error_scatter_graph.html" target="_top" xlink:title="This implements xy scatter plots (like JKQTPXYScatterGraph), but the color and size of the symbols ma...">
<polygon fill="white" stroke="#666666" points="648.5,-73.5 470.5,-73.5 470.5,-39.5 648.5,-39.5 648.5,-73.5"/>
<text text-anchor="start" x="478.5" y="-59.9" font-family="Helvetica,sans-Serif" font-size="12.00">JKQTPXYParametrizedError</text>
<text text-anchor="middle" x="559.5" y="-46.9" font-family="Helvetica,sans-Serif" font-size="12.00">ScatterGraph</text>
</a>
</g>
</g>
<!-- Node14&#45;&gt;Node15 -->
<g id="edge14_Node000014_Node000015" class="edge">
<title>Node14&#45;&gt;Node15</title>
<g id="a_edge14_Node000014_Node000015"><a xlink:title=" ">
<path fill="none" stroke="#63b8ff" d="M432.32,-57.59C445.05,-57.48 457.95,-57.37 470.4,-57.26"/>
<polygon fill="#63b8ff" stroke="#63b8ff" points="432.13,-54.09 422.16,-57.68 432.19,-61.09 432.13,-54.09"/>
</a>
</g>
</g>
<!-- Node17 -->
<g id="Node000017" class="node">
<title>Node17</title>
<g id="a_Node000017"><a xlink:href="class_j_k_q_t_p_x_y_scatter_error_graph.html" target="_top" xlink:title="This implements xy scatter plots with x and y error indicators.">
<polygon fill="white" stroke="#666666" points="648.5,-21 470.5,-21 470.5,0 648.5,0 648.5,-21"/>
<text text-anchor="middle" x="559.5" y="-7.4" font-family="Helvetica,sans-Serif" font-size="12.00">JKQTPXYScatterErrorGraph</text>
</a>
</g>
</g>
<!-- Node16&#45;&gt;Node17 -->
<g id="edge16_Node000016_Node000017" class="edge">
<title>Node16&#45;&gt;Node17</title>
<g id="a_edge16_Node000016_Node000017"><a xlink:title=" ">
<path fill="none" stroke="#63b8ff" d="M410.82,-11.78C430.1,-11.61 450.66,-11.43 470.13,-11.26"/>
<polygon fill="#63b8ff" stroke="#63b8ff" points="410.54,-8.28 400.57,-11.86 410.6,-15.28 410.54,-8.28"/>
</a>
</g>
</g>
</g>
</svg>

<g id="navigator" transform="translate(0 0)" fill="#404254">
  <rect fill="#f2f5e9" fill-opacity="0.5" stroke="#606060" stroke-width=".5" x="0" y="0" width="60" height="60"/>
  <use id="zoomplus" xlink:href="#zoomPlus" x="17" y="9" onmousedown="handleZoom(evt,'in')"/>
  <use id="zoomminus" xlink:href="#zoomMin" x="42" y="9" onmousedown="handleZoom(evt,'out')"/>
  <use id="reset" xlink:href="#resetDef" x="30" y="36" onmousedown="handleReset()"/>
   <use id="arrowup" xlink:href="#arrowUp" x="0" y="0" onmousedown="handlePan(0,-1)"/>
  <use id="arrowright" xlink:href="#arrowRight" x="0" y="0" onmousedown="handlePan(1,0)"/>
  <use id="arrowdown" xlink:href="#arrowDown" x="0" y="0" onmousedown="handlePan(0,1)"/>
  <use id="arrowleft" xlink:href="#arrowLeft" x="0" y="0" onmousedown="handlePan(-1,0)"/>
</g>
<svg viewBox="0 0 15 15" width="100%" height="30px" preserveAspectRatio="xMaxYMin meet">
 <g id="arrow_out" transform="scale(0.3 0.3)">
  <a xlink:href="class_j_k_q_t_p_graph_symbol_style_mixin__inherit__graph_org.svg" target="_base">
   <rect id="button" ry="5" rx="5" y="6" x="6" height="38" width="38"
        fill="#f2f5e9" fill-opacity="0.5" stroke="#606060" stroke-width="1.0"/>
   <path id="arrow"
     d="M 11.500037,31.436501 C 11.940474,20.09759 22.043105,11.32322 32.158766,21.979434 L 37.068811,17.246167 C 37.068811,17.246167 37.088388,32 37.088388,32 L 22.160133,31.978069 C 22.160133,31.978069 26.997745,27.140456 26.997745,27.140456 C 18.528582,18.264221 13.291696,25.230495 11.500037,31.436501 z"
     style="fill:#404040;"/>
  </a>
 </g>
</svg>

<style type='text/css'>
<![CDATA[
[data-mouse-over-selected='false'] { opacity: 0.7; }
[data-mouse-over-selected='true']  { opacity: 1.0; }
]]>
</style>
<script type="application/ecmascript"><![CDATA[
document.addEventListener('DOMContentLoaded', (event) => {
  highlightEdges();
  highlightAdjacentNodes();
});
]]></script>
</svg>
