<?xml version="1.0" encoding="UTF-8" standalone="no"?>
<!DOCTYPE svg PUBLIC "-//W3C//DTD SVG 1.1//EN"
 "http://www.w3.org/Graphics/SVG/1.1/DTD/svg11.dtd">
<!-- Generated by graphviz version 2.43.0 (0)
 -->
<!-- Title: JKQTPSingleColumnSymbolsGraph Pages: 1 -->
<svg width="392pt" height="270pt"
 viewBox="0.00 0.00 391.50 270.00" xmlns="http://www.w3.org/2000/svg" xmlns:xlink="http://www.w3.org/1999/xlink">
<g id="graph0" class="graph" transform="scale(1 1) rotate(0) translate(4 266)">
<title>JKQTPSingleColumnSymbolsGraph</title>
<!-- Node1 -->
<g id="Node000001" class="node">
<title>Node1</title>
<g id="a_Node000001"><a xlink:title="plots a 1&#45;column set of data&#45;values with symbols onto a JKQtPlotter/JKQtBasePlotter....">
<polygon fill="#999999" stroke="#666666" points="278,-34 93,-34 93,0 278,0 278,-34"/>
<text text-anchor="start" x="101" y="-20.4" font-family="Helvetica,sans-Serif" font-size="12.00">JKQTPSingleColumnSymbols</text>
<text text-anchor="middle" x="185.5" y="-7.4" font-family="Helvetica,sans-Serif" font-size="12.00">Graph</text>
</a>
</g>
</g>
<!-- Node2 -->
<g id="Node000002" class="node">
<title>Node2</title>
<g id="a_Node000002"><a xlink:href="class_j_k_q_t_p_single_column_graph.html" target="_top" xlink:title="This virtual JKQTPGraph descendent may be used as base for all graphs that use at least one column of...">
<polygon fill="white" stroke="#666666" points="171,-91 0,-91 0,-70 171,-70 171,-91"/>
<text text-anchor="middle" x="85.5" y="-77.4" font-family="Helvetica,sans-Serif" font-size="12.00">JKQTPSingleColumnGraph</text>
</a>
</g>
</g>
<!-- Node2&#45;&gt;Node1 -->
<g id="edge1_Node000001_Node000002" class="edge">
<title>Node2&#45;&gt;Node1</title>
<g id="a_edge1_Node000001_Node000002"><a xlink:title=" ">
<path fill="none" stroke="#63b8ff" d="M109.8,-64.56C124.71,-55.39 143.81,-43.64 159.1,-34.24"/>
<polygon fill="#63b8ff" stroke="#63b8ff" points="107.81,-61.67 101.12,-69.89 111.48,-67.63 107.81,-61.67"/>
</a>
</g>
</g>
<!-- Node3 -->
<g id="Node000003" class="node">
<title>Node3</title>
<g id="a_Node000003"><a xlink:href="class_j_k_q_t_p_graph.html" target="_top" xlink:title="this virtual base class of the (data&#45;column based) graphs, which are part of a JKQTPlotter plot and w...">
<polygon fill="white" stroke="#666666" points="130,-148 41,-148 41,-127 130,-127 130,-148"/>
<text text-anchor="middle" x="85.5" y="-134.4" font-family="Helvetica,sans-Serif" font-size="12.00">JKQTPGraph</text>
</a>
</g>
</g>
<!-- Node3&#45;&gt;Node2 -->
<g id="edge2_Node000002_Node000003" class="edge">
<title>Node3&#45;&gt;Node2</title>
<g id="a_edge2_Node000002_Node000003"><a xlink:title=" ">
<path fill="none" stroke="#63b8ff" d="M85.5,-116.86C85.5,-108.2 85.5,-98.42 85.5,-91.34"/>
<polygon fill="#63b8ff" stroke="#63b8ff" points="82,-116.92 85.5,-126.92 89,-116.92 82,-116.92"/>
</a>
</g>
</g>
<!-- Node4 -->
<g id="Node000004" class="node">
<title>Node4</title>
<g id="a_Node000004"><a xlink:href="class_j_k_q_t_p_plot_element.html" target="_top" xlink:title="this virtual base class of every element, which is part of a JKQTPlotter plot and may appear in its k...">
<polygon fill="white" stroke="#666666" points="148,-205 23,-205 23,-184 148,-184 148,-205"/>
<text text-anchor="middle" x="85.5" y="-191.4" font-family="Helvetica,sans-Serif" font-size="12.00">JKQTPPlotElement</text>
</a>
</g>
</g>
<!-- Node4&#45;&gt;Node3 -->
<g id="edge3_Node000003_Node000004" class="edge">
<title>Node4&#45;&gt;Node3</title>
<g id="a_edge3_Node000003_Node000004"><a xlink:title=" ">
<path fill="none" stroke="#63b8ff" d="M85.5,-173.86C85.5,-165.2 85.5,-155.42 85.5,-148.34"/>
<polygon fill="#63b8ff" stroke="#63b8ff" points="82,-173.92 85.5,-183.92 89,-173.92 82,-173.92"/>
</a>
</g>
</g>
<!-- Node5 -->
<g id="Node000005" class="node">
<title>Node5</title>
<g id="a_Node000005"><a xlink:title=" ">
<polygon fill="white" stroke="#666666" points="118,-262 53,-262 53,-241 118,-241 118,-262"/>
<text text-anchor="middle" x="85.5" y="-248.4" font-family="Helvetica,sans-Serif" font-size="12.00">QObject</text>
</a>
</g>
</g>
<!-- Node5&#45;&gt;Node4 -->
<g id="edge4_Node000004_Node000005" class="edge">
<title>Node5&#45;&gt;Node4</title>
<g id="a_edge4_Node000004_Node000005"><a xlink:title=" ">
<path fill="none" stroke="#63b8ff" d="M85.5,-230.86C85.5,-222.2 85.5,-212.42 85.5,-205.34"/>
<polygon fill="#63b8ff" stroke="#63b8ff" points="82,-230.92 85.5,-240.92 89,-230.92 82,-230.92"/>
</a>
</g>
</g>
<!-- Node6 -->
<g id="Node000006" class="node">
<title>Node6</title>
<g id="a_Node000006"><a xlink:href="class_j_k_q_t_p_graph_symbol_style_mixin.html" target="_top" xlink:title="This Mix&#45;In class provides setter/getter methods, storage and other facilities for the graph symbols ...">
<polygon fill="white" stroke="#666666" points="383.5,-91 189.5,-91 189.5,-70 383.5,-70 383.5,-91"/>
<text text-anchor="middle" x="286.5" y="-77.4" font-family="Helvetica,sans-Serif" font-size="12.00">JKQTPGraphSymbolStyleMixin</text>
</a>
</g>
</g>
<!-- Node6&#45;&gt;Node1 -->
<g id="edge5_Node000001_Node000006" class="edge">
<title>Node6&#45;&gt;Node1</title>
<g id="a_edge5_Node000001_Node000006"><a xlink:title=" ">
<path fill="none" stroke="#63b8ff" d="M261.96,-64.56C246.9,-55.39 227.61,-43.64 212.17,-34.24"/>
<polygon fill="#63b8ff" stroke="#63b8ff" points="260.36,-67.68 270.72,-69.89 264,-61.7 260.36,-67.68"/>
</a>
</g>
</g>
</g>
</svg>
