<?xml version="1.0" encoding="UTF-8" standalone="no"?>
<!DOCTYPE svg PUBLIC "-//W3C//DTD SVG 1.1//EN"
 "http://www.w3.org/Graphics/SVG/1.1/DTD/svg11.dtd">
<!-- Generated by graphviz version 2.43.0 (0)
 -->
<!-- Title: JKQTPGraphFillStyleMixin Pages: 1 -->
<svg width="1272pt" height="754pt"
 viewBox="0.00 0.00 1272.00 754.00" xmlns="http://www.w3.org/2000/svg" xmlns:xlink="http://www.w3.org/1999/xlink">
<g id="graph0" class="graph" transform="scale(1 1) rotate(0) translate(4 750)">
<title>JKQTPGraphFillStyleMixin</title>
<!-- Node1 -->
<g id="Node000001" class="node">
<title>Node1</title>
<g id="a_Node000001"><a xlink:title="This Mix&#45;In class provides setter/getter methods, storage and other facilities for the graph filling ...">
<polygon fill="#999999" stroke="#666666" points="164,-275 0,-275 0,-254 164,-254 164,-275"/>
<text text-anchor="middle" x="82" y="-261.4" font-family="Helvetica,sans-Serif" font-size="12.00">JKQTPGraphFillStyleMixin</text>
</a>
</g>
</g>
<!-- Node2 -->
<g id="Node000002" class="node">
<title>Node2</title>
<g id="a_Node000002"><a xlink:href="class_j_k_q_t_p_bar_graph_base.html" target="_top" xlink:title="This is a base&#45;class for all bar graphs with vertical or horizontal orientation (the orientation is i...">
<polygon fill="white" stroke="#666666" points="367,-625 227,-625 227,-604 367,-604 367,-625"/>
<text text-anchor="middle" x="297" y="-611.4" font-family="Helvetica,sans-Serif" font-size="12.00">JKQTPBarGraphBase</text>
</a>
</g>
</g>
<!-- Node1&#45;&gt;Node2 -->
<g id="edge1_Node000001_Node000002" class="edge">
<title>Node1&#45;&gt;Node2</title>
<g id="a_edge1_Node000001_Node000002"><a xlink:title=" ">
<path fill="none" stroke="#63b8ff" d="M86.83,-285.22C97.11,-336.04 129.45,-468.83 200,-553.5 219.21,-576.56 249.46,-593.74 270.86,-603.89"/>
<polygon fill="#63b8ff" stroke="#63b8ff" points="90.22,-284.3 84.87,-275.16 83.35,-285.64 90.22,-284.3"/>
</a>
</g>
</g>
<!-- Node9 -->
<g id="Node000009" class="node">
<title>Node9</title>
<g id="a_Node000009"><a xlink:href="class_j_k_q_t_p_geo_base_filled.html" target="_top" xlink:title="This JKQTPGeometricPlotElement is used as base class for geometric drawing elements that only consist...">
<polygon fill="white" stroke="#666666" points="365,-544 229,-544 229,-523 365,-523 365,-544"/>
<text text-anchor="middle" x="297" y="-530.4" font-family="Helvetica,sans-Serif" font-size="12.00">JKQTPGeoBaseFilled</text>
</a>
</g>
</g>
<!-- Node1&#45;&gt;Node9 -->
<g id="edge8_Node000001_Node000009" class="edge">
<title>Node1&#45;&gt;Node9</title>
<g id="a_edge8_Node000001_Node000009"><a xlink:title=" ">
<path fill="none" stroke="#63b8ff" d="M94.3,-283.92C113.95,-317.02 156.49,-385.92 200,-438.5 227.36,-471.56 264.66,-505.9 283.71,-522.8"/>
<polygon fill="#63b8ff" stroke="#63b8ff" points="97.27,-282.05 89.17,-275.21 91.23,-285.6 97.27,-282.05"/>
</a>
</g>
</g>
<!-- Node15 -->
<g id="Node000015" class="node">
<title>Node15</title>
<g id="a_Node000015"><a xlink:href="class_j_k_q_t_p_graph_boxplot_style_mixin.html" target="_top" xlink:title="Styling Mix&#45;In for Boxplots.">
<polygon fill="white" stroke="#666666" points="394,-429 200,-429 200,-408 394,-408 394,-429"/>
<text text-anchor="middle" x="297" y="-415.4" font-family="Helvetica,sans-Serif" font-size="12.00">JKQTPGraphBoxplotStyleMixin</text>
</a>
</g>
</g>
<!-- Node1&#45;&gt;Node15 -->
<g id="edge14_Node000001_Node000015" class="edge">
<title>Node1&#45;&gt;Node15</title>
<g id="a_edge14_Node000001_Node000015"><a xlink:title=" ">
<path fill="none" stroke="#63b8ff" d="M105.96,-281.1C149.9,-312.87 244.74,-381.44 281.26,-407.84"/>
<polygon fill="#63b8ff" stroke="#63b8ff" points="107.79,-278.11 97.64,-275.09 103.69,-283.78 107.79,-278.11"/>
</a>
</g>
</g>
<!-- Node22 -->
<g id="Node000022" class="node">
<title>Node22</title>
<g id="a_Node000022"><a xlink:href="class_j_k_q_t_p_graph_line_and_fill_style_mixin.html" target="_top" xlink:title="This Mix&#45;In class provides setter/getter methods, storage and other facilities for the graph line and...">
<polygon fill="white" stroke="#666666" points="388,-281.5 206,-281.5 206,-247.5 388,-247.5 388,-281.5"/>
<text text-anchor="start" x="214" y="-267.9" font-family="Helvetica,sans-Serif" font-size="12.00">JKQTPGraphLineAndFillStyle</text>
<text text-anchor="middle" x="297" y="-254.9" font-family="Helvetica,sans-Serif" font-size="12.00">Mixin</text>
</a>
</g>
</g>
<!-- Node1&#45;&gt;Node22 -->
<g id="edge21_Node000001_Node000022" class="edge">
<title>Node1&#45;&gt;Node22</title>
<g id="a_edge21_Node000001_Node000022"><a xlink:title=" ">
<path fill="none" stroke="#63b8ff" d="M174.46,-264.5C184.86,-264.5 195.46,-264.5 205.85,-264.5"/>
<polygon fill="#63b8ff" stroke="#63b8ff" points="174.13,-261 164.13,-264.5 174.13,-268 174.13,-261"/>
</a>
</g>
</g>
<!-- Node40 -->
<g id="Node000040" class="node">
<title>Node40</title>
<g id="a_Node000040"><a xlink:href="class_j_k_q_t_p_graph_value_label_style_mixin.html" target="_top" xlink:title="This Mix&#45;In class provides setter/getter methods, storage and other facilities for value labels in gr...">
<polygon fill="white" stroke="#666666" points="389,-213.5 205,-213.5 205,-179.5 389,-179.5 389,-213.5"/>
<text text-anchor="start" x="213" y="-199.9" font-family="Helvetica,sans-Serif" font-size="12.00">JKQTPGraphValueLabelStyle</text>
<text text-anchor="middle" x="297" y="-186.9" font-family="Helvetica,sans-Serif" font-size="12.00">Mixin</text>
</a>
</g>
</g>
<!-- Node1&#45;&gt;Node40 -->
<g id="edge39_Node000001_Node000040" class="edge">
<title>Node1&#45;&gt;Node40</title>
<g id="a_edge39_Node000001_Node000040"><a xlink:title=" ">
<path fill="none" stroke="#63b8ff" d="M125.83,-250.83C159.49,-240.08 206.56,-225.05 242.66,-213.53"/>
<polygon fill="#63b8ff" stroke="#63b8ff" points="124.74,-247.5 116.28,-253.88 126.87,-254.17 124.74,-247.5"/>
</a>
</g>
</g>
<!-- Node42 -->
<g id="Node000042" class="node">
<title>Node42</title>
<g id="a_Node000042"><a xlink:href="class_j_k_q_t_p_graph_violinplot_style_mixin.html" target="_top" xlink:title="Styling Mix&#45;In for Violinplots.">
<polygon fill="white" stroke="#666666" points="383.5,-129.5 210.5,-129.5 210.5,-95.5 383.5,-95.5 383.5,-129.5"/>
<text text-anchor="start" x="218.5" y="-115.9" font-family="Helvetica,sans-Serif" font-size="12.00">JKQTPGraphViolinplotStyle</text>
<text text-anchor="middle" x="297" y="-102.9" font-family="Helvetica,sans-Serif" font-size="12.00">Mixin</text>
</a>
</g>
</g>
<!-- Node1&#45;&gt;Node42 -->
<g id="edge41_Node000001_Node000042" class="edge">
<title>Node1&#45;&gt;Node42</title>
<g id="a_edge41_Node000001_Node000042"><a xlink:title=" ">
<path fill="none" stroke="#63b8ff" d="M102.85,-247.2C125.63,-227.66 164.43,-195.37 200,-170.5 221.23,-155.66 246.31,-140.59 265.51,-129.52"/>
<polygon fill="#63b8ff" stroke="#63b8ff" points="100.5,-244.6 95.21,-253.78 105.07,-249.9 100.5,-244.6"/>
</a>
</g>
</g>
<!-- Node46 -->
<g id="Node000046" class="node">
<title>Node46</title>
<g id="a_Node000046"><a xlink:href="class_j_k_q_t_p_range_base.html" target="_top" xlink:title="simply marks a range (and possibly a centerline) in a plot. This may be used to display e....">
<polygon fill="white" stroke="#666666" points="357,-60 237,-60 237,-39 357,-39 357,-60"/>
<text text-anchor="middle" x="297" y="-46.4" font-family="Helvetica,sans-Serif" font-size="12.00">JKQTPRangeBase</text>
</a>
</g>
</g>
<!-- Node1&#45;&gt;Node46 -->
<g id="edge45_Node000001_Node000046" class="edge">
<title>Node1&#45;&gt;Node46</title>
<g id="a_edge45_Node000001_Node000046"><a xlink:title=" ">
<path fill="none" stroke="#63b8ff" d="M91.36,-244.03C107.26,-207.47 145.24,-130.66 200,-86.5 215.16,-74.28 234.81,-65.76 252.38,-60"/>
<polygon fill="#63b8ff" stroke="#63b8ff" points="87.98,-243.04 87.3,-253.61 94.42,-245.77 87.98,-243.04"/>
</a>
</g>
</g>
<!-- Node3 -->
<g id="Node000003" class="node">
<title>Node3</title>
<g id="a_Node000003"><a xlink:href="class_j_k_q_t_p_bar_horizontal_graph.html" target="_top" xlink:title="This implements a horizontal bar graph with bars between &#160;and .">
<polygon fill="white" stroke="#666666" points="609.5,-700 438.5,-700 438.5,-679 609.5,-679 609.5,-700"/>
<text text-anchor="middle" x="524" y="-686.4" font-family="Helvetica,sans-Serif" font-size="12.00">JKQTPBarHorizontalGraph</text>
</a>
</g>
</g>
<!-- Node2&#45;&gt;Node3 -->
<g id="edge2_Node000002_Node000003" class="edge">
<title>Node2&#45;&gt;Node3</title>
<g id="a_edge2_Node000002_Node000003"><a xlink:title=" ">
<path fill="none" stroke="#63b8ff" d="M339.27,-628.26C383.16,-642.89 451.61,-665.7 491.4,-678.97"/>
<polygon fill="#63b8ff" stroke="#63b8ff" points="340.35,-624.93 329.76,-625.09 338.14,-631.57 340.35,-624.93"/>
</a>
</g>
</g>
<!-- Node6 -->
<g id="Node000006" class="node">
<title>Node6</title>
<g id="a_Node000006"><a xlink:href="class_j_k_q_t_p_bar_vertical_graph.html" target="_top" xlink:title="This implements a vertical bar graph with bars between &#160;and .">
<polygon fill="white" stroke="#666666" points="601.5,-625 446.5,-625 446.5,-604 601.5,-604 601.5,-625"/>
<text text-anchor="middle" x="524" y="-611.4" font-family="Helvetica,sans-Serif" font-size="12.00">JKQTPBarVerticalGraph</text>
</a>
</g>
</g>
<!-- Node2&#45;&gt;Node6 -->
<g id="edge5_Node000002_Node000006" class="edge">
<title>Node2&#45;&gt;Node6</title>
<g id="a_edge5_Node000002_Node000006"><a xlink:title=" ">
<path fill="none" stroke="#63b8ff" d="M377.19,-614.5C399.61,-614.5 423.97,-614.5 446.24,-614.5"/>
<polygon fill="#63b8ff" stroke="#63b8ff" points="377.04,-611 367.04,-614.5 377.04,-618 377.04,-611"/>
</a>
</g>
</g>
<!-- Node4 -->
<g id="Node000004" class="node">
<title>Node4</title>
<g id="a_Node000004"><a xlink:href="class_j_k_q_t_p_bar_horizontal_error_graph.html" target="_top" xlink:title="This implements a horizontal bar graph with bars between &#160;and &#160;and error indicator.">
<polygon fill="white" stroke="#666666" points="871,-746 671,-746 671,-725 871,-725 871,-746"/>
<text text-anchor="middle" x="771" y="-732.4" font-family="Helvetica,sans-Serif" font-size="12.00">JKQTPBarHorizontalErrorGraph</text>
</a>
</g>
</g>
<!-- Node3&#45;&gt;Node4 -->
<g id="edge3_Node000003_Node000004" class="edge">
<title>Node3&#45;&gt;Node4</title>
<g id="a_edge3_Node000003_Node000004"><a xlink:title=" ">
<path fill="none" stroke="#63b8ff" d="M585.5,-702.06C607.09,-706.44 631.61,-711.31 654,-715.5 671.18,-718.71 689.82,-722.01 707.03,-724.98"/>
<polygon fill="#63b8ff" stroke="#63b8ff" points="585.98,-698.58 575.48,-700.02 584.58,-705.44 585.98,-698.58"/>
</a>
</g>
</g>
<!-- Node5 -->
<g id="Node000005" class="node">
<title>Node5</title>
<g id="a_Node000005"><a xlink:href="class_j_k_q_t_p_bar_horizontal_stackable_graph.html" target="_top" xlink:title="This implements a horizontal bar graph with bars between &#160;and &#160;Optionally several graphs of this type...">
<polygon fill="white" stroke="#666666" points="867.5,-706.5 674.5,-706.5 674.5,-672.5 867.5,-672.5 867.5,-706.5"/>
<text text-anchor="start" x="682.5" y="-692.9" font-family="Helvetica,sans-Serif" font-size="12.00">JKQTPBarHorizontalStackable</text>
<text text-anchor="middle" x="771" y="-679.9" font-family="Helvetica,sans-Serif" font-size="12.00">Graph</text>
</a>
</g>
</g>
<!-- Node3&#45;&gt;Node5 -->
<g id="edge4_Node000003_Node000005" class="edge">
<title>Node3&#45;&gt;Node5</title>
<g id="a_edge4_Node000003_Node000005"><a xlink:title=" ">
<path fill="none" stroke="#63b8ff" d="M619.81,-689.5C637.72,-689.5 656.48,-689.5 674.42,-689.5"/>
<polygon fill="#63b8ff" stroke="#63b8ff" points="619.66,-686 609.66,-689.5 619.66,-693 619.66,-686"/>
</a>
</g>
</g>
<!-- Node7 -->
<g id="Node000007" class="node">
<title>Node7</title>
<g id="a_Node000007"><a xlink:href="class_j_k_q_t_p_bar_vertical_error_graph.html" target="_top" xlink:title="This implements a vertical bar graph with bars between &#160;and &#160;and error indicator.">
<polygon fill="white" stroke="#666666" points="863.5,-654 678.5,-654 678.5,-633 863.5,-633 863.5,-654"/>
<text text-anchor="middle" x="771" y="-640.4" font-family="Helvetica,sans-Serif" font-size="12.00">JKQTPBarVerticalErrorGraph</text>
</a>
</g>
</g>
<!-- Node6&#45;&gt;Node7 -->
<g id="edge6_Node000006_Node000007" class="edge">
<title>Node6&#45;&gt;Node7</title>
<g id="a_edge6_Node000006_Node000007"><a xlink:title=" ">
<path fill="none" stroke="#63b8ff" d="M611.73,-624.77C634.27,-627.43 658.58,-630.31 681.22,-632.99"/>
<polygon fill="#63b8ff" stroke="#63b8ff" points="611.85,-621.26 601.51,-623.56 611.03,-628.21 611.85,-621.26"/>
</a>
</g>
</g>
<!-- Node8 -->
<g id="Node000008" class="node">
<title>Node8</title>
<g id="a_Node000008"><a xlink:href="class_j_k_q_t_p_bar_vertical_stackable_graph.html" target="_top" xlink:title="This implements a vertical bar graph with bars between &#160;and &#160;Optionally several graphs of this type m...">
<polygon fill="white" stroke="#666666" points="859.5,-614.5 682.5,-614.5 682.5,-580.5 859.5,-580.5 859.5,-614.5"/>
<text text-anchor="start" x="690.5" y="-600.9" font-family="Helvetica,sans-Serif" font-size="12.00">JKQTPBarVerticalStackable</text>
<text text-anchor="middle" x="771" y="-587.9" font-family="Helvetica,sans-Serif" font-size="12.00">Graph</text>
</a>
</g>
</g>
<!-- Node6&#45;&gt;Node8 -->
<g id="edge7_Node000006_Node000008" class="edge">
<title>Node6&#45;&gt;Node8</title>
<g id="a_edge7_Node000006_Node000008"><a xlink:title=" ">
<path fill="none" stroke="#63b8ff" d="M611.54,-608.5C634.42,-606.91 659.14,-605.19 682.09,-603.6"/>
<polygon fill="#63b8ff" stroke="#63b8ff" points="611.25,-605.01 601.51,-609.19 611.73,-611.99 611.25,-605.01"/>
</a>
</g>
</g>
<!-- Node10 -->
<g id="Node000010" class="node">
<title>Node10</title>
<g id="a_Node000010"><a xlink:href="class_j_k_q_t_p_geo_polygon.html" target="_top" xlink:title="This JKQTPGeometricPlotElement is used to draw a polygon.">
<polygon fill="white" stroke="#666666" points="585.5,-583 462.5,-583 462.5,-562 585.5,-562 585.5,-583"/>
<text text-anchor="middle" x="524" y="-569.4" font-family="Helvetica,sans-Serif" font-size="12.00">JKQTPGeoPolygon</text>
</a>
</g>
</g>
<!-- Node9&#45;&gt;Node10 -->
<g id="edge9_Node000009_Node000010" class="edge">
<title>Node9&#45;&gt;Node10</title>
<g id="a_edge9_Node000009_Node000010"><a xlink:title=" ">
<path fill="none" stroke="#63b8ff" d="M368.6,-545.74C398.67,-550.95 433.4,-556.97 462.3,-561.98"/>
<polygon fill="#63b8ff" stroke="#63b8ff" points="369.04,-542.26 358.59,-544 367.85,-549.16 369.04,-542.26"/>
</a>
</g>
</g>
<!-- Node11 -->
<g id="Node000011" class="node">
<title>Node11</title>
<g id="a_Node000011"><a xlink:href="class_j_k_q_t_p_geo_rectangle.html" target="_top" xlink:title="This JKQTPGeometricPlotElement is used to draw a rectangle.">
<polygon fill="white" stroke="#666666" points="592,-544 456,-544 456,-523 592,-523 592,-544"/>
<text text-anchor="middle" x="524" y="-530.4" font-family="Helvetica,sans-Serif" font-size="12.00">JKQTPGeoRectangle</text>
</a>
</g>
</g>
<!-- Node9&#45;&gt;Node11 -->
<g id="edge10_Node000009_Node000011" class="edge">
<title>Node9&#45;&gt;Node11</title>
<g id="a_edge10_Node000009_Node000011"><a xlink:title=" ">
<path fill="none" stroke="#63b8ff" d="M375.44,-533.5C401.56,-533.5 430.49,-533.5 455.76,-533.5"/>
<polygon fill="#63b8ff" stroke="#63b8ff" points="375.2,-530 365.2,-533.5 375.2,-537 375.2,-530"/>
</a>
</g>
</g>
<!-- Node12 -->
<g id="Node000012" class="node">
<title>Node12</title>
<g id="a_Node000012"><a xlink:href="class_j_k_q_t_p_geo_ellipse.html" target="_top" xlink:title="This JKQTPGeometricPlotElement is used to draw an ellipse.">
<polygon fill="white" stroke="#666666" points="828,-562 714,-562 714,-541 828,-541 828,-562"/>
<text text-anchor="middle" x="771" y="-548.4" font-family="Helvetica,sans-Serif" font-size="12.00">JKQTPGeoEllipse</text>
</a>
</g>
</g>
<!-- Node11&#45;&gt;Node12 -->
<g id="edge11_Node000011_Node000012" class="edge">
<title>Node11&#45;&gt;Node12</title>
<g id="a_edge11_Node000011_Node000012"><a xlink:title=" ">
<path fill="none" stroke="#63b8ff" d="M602.28,-539.18C638.4,-541.83 680.61,-544.93 713.65,-547.36"/>
<polygon fill="#63b8ff" stroke="#63b8ff" points="602.5,-535.68 592.27,-538.44 601.99,-542.67 602.5,-535.68"/>
</a>
</g>
</g>
<!-- Node13 -->
<g id="Node000013" class="node">
<title>Node13</title>
<g id="a_Node000013"><a xlink:href="class_j_k_q_t_p_geo_pie.html" target="_top" xlink:title="This JKQTPGeometricPlotElement is used to draw a pie.">
<polygon fill="white" stroke="#666666" points="1067,-562 973,-562 973,-541 1067,-541 1067,-562"/>
<text text-anchor="middle" x="1020" y="-548.4" font-family="Helvetica,sans-Serif" font-size="12.00">JKQTPGeoPie</text>
</a>
</g>
</g>
<!-- Node12&#45;&gt;Node13 -->
<g id="edge12_Node000012_Node000013" class="edge">
<title>Node12&#45;&gt;Node13</title>
<g id="a_edge12_Node000012_Node000013"><a xlink:title=" ">
<path fill="none" stroke="#63b8ff" d="M838.3,-551.5C880.77,-551.5 934.82,-551.5 972.69,-551.5"/>
<polygon fill="#63b8ff" stroke="#63b8ff" points="838.05,-548 828.05,-551.5 838.05,-555 838.05,-548"/>
</a>
</g>
</g>
<!-- Node14 -->
<g id="Node000014" class="node">
<title>Node14</title>
<g id="a_Node000014"><a xlink:href="class_j_k_q_t_p_geo_chord.html" target="_top" xlink:title="This JKQTPGeometricPlotElement is used to draw a chord.">
<polygon fill="white" stroke="#666666" points="1264,-562 1152,-562 1152,-541 1264,-541 1264,-562"/>
<text text-anchor="middle" x="1208" y="-548.4" font-family="Helvetica,sans-Serif" font-size="12.00">JKQTPGeoChord</text>
</a>
</g>
</g>
<!-- Node13&#45;&gt;Node14 -->
<g id="edge13_Node000013_Node000014" class="edge">
<title>Node13&#45;&gt;Node14</title>
<g id="a_edge13_Node000013_Node000014"><a xlink:title=" ">
<path fill="none" stroke="#63b8ff" d="M1077.65,-551.5C1101.22,-551.5 1128.48,-551.5 1151.88,-551.5"/>
<polygon fill="#63b8ff" stroke="#63b8ff" points="1077.46,-548 1067.46,-551.5 1077.46,-555 1077.46,-548"/>
</a>
</g>
</g>
<!-- Node16 -->
<g id="Node000016" class="node">
<title>Node16</title>
<g id="a_Node000016"><a xlink:href="class_j_k_q_t_p_boxplot_element_base.html" target="_top" xlink:title="Tbaseclass for a single (notched) boxplot as a &quot;geometric element&quot;, where the data is directly given ...">
<polygon fill="white" stroke="#666666" points="612,-484 436,-484 436,-463 612,-463 612,-484"/>
<text text-anchor="middle" x="524" y="-470.4" font-family="Helvetica,sans-Serif" font-size="12.00">JKQTPBoxplotElementBase</text>
</a>
</g>
</g>
<!-- Node15&#45;&gt;Node16 -->
<g id="edge15_Node000015_Node000016" class="edge">
<title>Node15&#45;&gt;Node16</title>
<g id="a_edge15_Node000015_Node000016"><a xlink:title=" ">
<path fill="none" stroke="#63b8ff" d="M351.06,-431.47C390.39,-441.09 443.33,-454.03 480.03,-463"/>
<polygon fill="#63b8ff" stroke="#63b8ff" points="351.66,-428.01 341.12,-429.04 350,-434.81 351.66,-428.01"/>
</a>
</g>
</g>
<!-- Node19 -->
<g id="Node000019" class="node">
<title>Node19</title>
<g id="a_Node000019"><a xlink:href="class_j_k_q_t_p_boxplot_graph_base.html" target="_top" xlink:title="Base class for graphs representing a series of boxplot, elements.">
<polygon fill="white" stroke="#666666" points="605.5,-429 442.5,-429 442.5,-408 605.5,-408 605.5,-429"/>
<text text-anchor="middle" x="524" y="-415.4" font-family="Helvetica,sans-Serif" font-size="12.00">JKQTPBoxplotGraphBase</text>
</a>
</g>
</g>
<!-- Node15&#45;&gt;Node19 -->
<g id="edge18_Node000015_Node000019" class="edge">
<title>Node15&#45;&gt;Node19</title>
<g id="a_edge18_Node000015_Node000019"><a xlink:title=" ">
<path fill="none" stroke="#63b8ff" d="M404.33,-418.5C417.15,-418.5 430.09,-418.5 442.46,-418.5"/>
<polygon fill="#63b8ff" stroke="#63b8ff" points="404.07,-415 394.07,-418.5 404.07,-422 404.07,-415"/>
</a>
</g>
</g>
<!-- Node17 -->
<g id="Node000017" class="node">
<title>Node17</title>
<g id="a_Node000017"><a xlink:href="class_j_k_q_t_p_boxplot_horizontal_element.html" target="_top" xlink:title="This implements a horizontal (notched) boxplot where the data is directly given to the object and not...">
<polygon fill="white" stroke="#666666" points="874.5,-523 667.5,-523 667.5,-502 874.5,-502 874.5,-523"/>
<text text-anchor="middle" x="771" y="-509.4" font-family="Helvetica,sans-Serif" font-size="12.00">JKQTPBoxplotHorizontalElement</text>
</a>
</g>
</g>
<!-- Node16&#45;&gt;Node17 -->
<g id="edge16_Node000016_Node000017" class="edge">
<title>Node16&#45;&gt;Node17</title>
<g id="a_edge16_Node000016_Node000017"><a xlink:title=" ">
<path fill="none" stroke="#63b8ff" d="M601.02,-485.6C633.96,-490.84 672.16,-496.93 703.9,-501.98"/>
<polygon fill="#63b8ff" stroke="#63b8ff" points="601.4,-482.12 590.98,-484 600.3,-489.03 601.4,-482.12"/>
</a>
</g>
</g>
<!-- Node18 -->
<g id="Node000018" class="node">
<title>Node18</title>
<g id="a_Node000018"><a xlink:href="class_j_k_q_t_p_boxplot_vertical_element.html" target="_top" xlink:title="This implements a single vertical (notched) boxplot as a &quot;geometric element&quot;, where the data is direc...">
<polygon fill="white" stroke="#666666" points="866.5,-484 675.5,-484 675.5,-463 866.5,-463 866.5,-484"/>
<text text-anchor="middle" x="771" y="-470.4" font-family="Helvetica,sans-Serif" font-size="12.00">JKQTPBoxplotVerticalElement</text>
</a>
</g>
</g>
<!-- Node16&#45;&gt;Node18 -->
<g id="edge17_Node000016_Node000018" class="edge">
<title>Node16&#45;&gt;Node18</title>
<g id="a_edge17_Node000016_Node000018"><a xlink:title=" ">
<path fill="none" stroke="#63b8ff" d="M622.26,-473.5C639.73,-473.5 657.92,-473.5 675.31,-473.5"/>
<polygon fill="#63b8ff" stroke="#63b8ff" points="622.07,-470 612.07,-473.5 622.07,-477 622.07,-470"/>
</a>
</g>
</g>
<!-- Node20 -->
<g id="Node000020" class="node">
<title>Node20</title>
<g id="a_Node000020"><a xlink:href="class_j_k_q_t_p_boxplot_horizontal_graph.html" target="_top" xlink:title="This implements horizontal boxplots, optionally also a notched boxplot.">
<polygon fill="white" stroke="#666666" points="868,-445 674,-445 674,-424 868,-424 868,-445"/>
<text text-anchor="middle" x="771" y="-431.4" font-family="Helvetica,sans-Serif" font-size="12.00">JKQTPBoxplotHorizontalGraph</text>
</a>
</g>
</g>
<!-- Node19&#45;&gt;Node20 -->
<g id="edge19_Node000019_Node000020" class="edge">
<title>Node19&#45;&gt;Node20</title>
<g id="a_edge19_Node000019_Node000020"><a xlink:title=" ">
<path fill="none" stroke="#63b8ff" d="M615.63,-424.42C634.53,-425.65 654.52,-426.96 673.61,-428.21"/>
<polygon fill="#63b8ff" stroke="#63b8ff" points="615.77,-420.92 605.56,-423.76 615.31,-427.91 615.77,-420.92"/>
</a>
</g>
</g>
<!-- Node21 -->
<g id="Node000021" class="node">
<title>Node21</title>
<g id="a_Node000021"><a xlink:href="class_j_k_q_t_p_boxplot_vertical_graph.html" target="_top" xlink:title="This implements vertical boxplots, optionally also a notched boxplot.">
<polygon fill="white" stroke="#666666" points="860.5,-406 681.5,-406 681.5,-385 860.5,-385 860.5,-406"/>
<text text-anchor="middle" x="771" y="-392.4" font-family="Helvetica,sans-Serif" font-size="12.00">JKQTPBoxplotVerticalGraph</text>
</a>
</g>
</g>
<!-- Node19&#45;&gt;Node21 -->
<g id="edge20_Node000019_Node000021" class="edge">
<title>Node19&#45;&gt;Node21</title>
<g id="a_edge20_Node000019_Node000021"><a xlink:title=" ">
<path fill="none" stroke="#63b8ff" d="M615.64,-409.99C637.11,-407.98 659.98,-405.83 681.36,-403.82"/>
<polygon fill="#63b8ff" stroke="#63b8ff" points="615.19,-406.52 605.56,-410.94 615.84,-413.49 615.19,-406.52"/>
</a>
</g>
</g>
<!-- Node23 -->
<g id="Node000023" class="node">
<title>Node23</title>
<g id="a_Node000023"><a xlink:href="class_j_k_q_t_p_evaluated_function_with_errors_graph_drawing_base.html" target="_top" xlink:title="This class extends JKQTPEvaluatedFunctionWithErrorsGraphBase with functions to draw the graphs and se...">
<polygon fill="white" stroke="#666666" points="618,-373.5 430,-373.5 430,-339.5 618,-339.5 618,-373.5"/>
<text text-anchor="start" x="438" y="-359.9" font-family="Helvetica,sans-Serif" font-size="12.00">JKQTPEvaluatedFunctionWith</text>
<text text-anchor="middle" x="524" y="-346.9" font-family="Helvetica,sans-Serif" font-size="12.00">ErrorsGraphDrawingBase</text>
</a>
</g>
</g>
<!-- Node22&#45;&gt;Node23 -->
<g id="edge22_Node000022_Node000023" class="edge">
<title>Node22&#45;&gt;Node23</title>
<g id="a_edge22_Node000022_Node000023"><a xlink:title=" ">
<path fill="none" stroke="#63b8ff" d="M337,-286.47C362.82,-300.4 397.75,-318.06 430,-330.5 438.29,-333.7 447.13,-336.69 455.95,-339.41"/>
<polygon fill="#63b8ff" stroke="#63b8ff" points="338.38,-283.24 327.92,-281.53 335.03,-289.39 338.38,-283.24"/>
</a>
</g>
</g>
<!-- Node30 -->
<g id="Node000030" class="node">
<title>Node30</title>
<g id="a_Node000030"><a xlink:href="class_j_k_q_t_p_filled_curve_graph_base.html" target="_top" xlink:title="a Base class for filled curve graphs like e.g. JKQTPFilledCurveXGraph">
<polygon fill="white" stroke="#666666" points="616,-321 432,-321 432,-300 616,-300 616,-321"/>
<text text-anchor="middle" x="524" y="-307.4" font-family="Helvetica,sans-Serif" font-size="12.00">JKQTPFilledCurveGraphBase</text>
</a>
</g>
</g>
<!-- Node22&#45;&gt;Node30 -->
<g id="edge29_Node000022_Node000030" class="edge">
<title>Node22&#45;&gt;Node30</title>
<g id="a_edge29_Node000022_Node000030"><a xlink:title=" ">
<path fill="none" stroke="#63b8ff" d="M391.45,-283.6C418.77,-289.19 447.64,-295.09 471.35,-299.94"/>
<polygon fill="#63b8ff" stroke="#63b8ff" points="391.96,-280.14 381.46,-281.56 390.56,-287 391.96,-280.14"/>
</a>
</g>
</g>
<!-- Node35 -->
<g id="Node000035" class="node">
<title>Node35</title>
<g id="a_Node000035"><a xlink:href="class_j_k_q_t_p_filled_horizontal_range_graph.html" target="_top" xlink:title="This implements filled curve plots where the area is filled between two data columns for each y&#45;value...">
<polygon fill="white" stroke="#666666" points="615,-281.5 433,-281.5 433,-247.5 615,-247.5 615,-281.5"/>
<text text-anchor="start" x="441" y="-267.9" font-family="Helvetica,sans-Serif" font-size="12.00">JKQTPFilledHorizontalRange</text>
<text text-anchor="middle" x="524" y="-254.9" font-family="Helvetica,sans-Serif" font-size="12.00">Graph</text>
</a>
</g>
</g>
<!-- Node22&#45;&gt;Node35 -->
<g id="edge34_Node000022_Node000035" class="edge">
<title>Node22&#45;&gt;Node35</title>
<g id="a_edge34_Node000022_Node000035"><a xlink:title=" ">
<path fill="none" stroke="#63b8ff" d="M398.26,-264.5C409.75,-264.5 421.41,-264.5 432.76,-264.5"/>
<polygon fill="#63b8ff" stroke="#63b8ff" points="398.22,-261 388.22,-264.5 398.22,-268 398.22,-261"/>
</a>
</g>
</g>
<!-- Node36 -->
<g id="Node000036" class="node">
<title>Node36</title>
<g id="a_Node000036"><a xlink:href="class_j_k_q_t_p_filled_vertical_range_graph.html" target="_top" xlink:title="This implements filled curve plots where the area is filled between two data columns for each x&#45;value...">
<polygon fill="white" stroke="#666666" points="607,-229.5 441,-229.5 441,-195.5 607,-195.5 607,-229.5"/>
<text text-anchor="start" x="449" y="-215.9" font-family="Helvetica,sans-Serif" font-size="12.00">JKQTPFilledVerticalRange</text>
<text text-anchor="middle" x="524" y="-202.9" font-family="Helvetica,sans-Serif" font-size="12.00">Graph</text>
</a>
</g>
</g>
<!-- Node22&#45;&gt;Node36 -->
<g id="edge35_Node000022_Node000036" class="edge">
<title>Node22&#45;&gt;Node36</title>
<g id="a_edge35_Node000022_Node000036"><a xlink:title=" ">
<path fill="none" stroke="#63b8ff" d="M381.42,-245.22C403.64,-240.08 427.49,-234.57 449.16,-229.56"/>
<polygon fill="#63b8ff" stroke="#63b8ff" points="380.63,-241.81 371.67,-247.47 382.2,-248.63 380.63,-241.81"/>
</a>
</g>
</g>
<!-- Node37 -->
<g id="Node000037" class="node">
<title>Node37</title>
<g id="a_Node000037"><a xlink:href="class_j_k_q_t_p_special_line_graph_base.html" target="_top" xlink:title="a Base class for special line graphs (steps ...) like e.g. JKQTPSpecialLineHorizontalGraph">
<polygon fill="white" stroke="#666666" points="617,-177 431,-177 431,-156 617,-156 617,-177"/>
<text text-anchor="middle" x="524" y="-163.4" font-family="Helvetica,sans-Serif" font-size="12.00">JKQTPSpecialLineGraphBase</text>
</a>
</g>
</g>
<!-- Node22&#45;&gt;Node37 -->
<g id="edge36_Node000022_Node000037" class="edge">
<title>Node22&#45;&gt;Node37</title>
<g id="a_edge36_Node000022_Node000037"><a xlink:title=" ">
<path fill="none" stroke="#63b8ff" d="M356.07,-243.25C369.05,-237.39 382.39,-230.42 394,-222.5 412.69,-209.74 410.13,-197.32 430,-186.5 436.96,-182.71 444.58,-179.64 452.37,-177.15"/>
<polygon fill="#63b8ff" stroke="#63b8ff" points="354.49,-240.12 346.72,-247.33 357.29,-246.54 354.49,-240.12"/>
</a>
</g>
</g>
<!-- Node24 -->
<g id="Node000024" class="node">
<title>Node24</title>
<g id="a_Node000024"><a xlink:href="class_j_k_q_t_p_functor_line_graph_base.html" target="_top" xlink:title="extends JKQTPEvaluatedFunctionWithErrorsGraphDrawingBase with the capabilities to define functions fr...">
<polygon fill="white" stroke="#666666" points="865,-367 677,-367 677,-346 865,-346 865,-367"/>
<text text-anchor="middle" x="771" y="-353.4" font-family="Helvetica,sans-Serif" font-size="12.00">JKQTPFunctorLineGraphBase</text>
</a>
</g>
</g>
<!-- Node23&#45;&gt;Node24 -->
<g id="edge23_Node000023_Node000024" class="edge">
<title>Node23&#45;&gt;Node24</title>
<g id="a_edge23_Node000023_Node000024"><a xlink:title=" ">
<path fill="none" stroke="#63b8ff" d="M628.76,-356.5C644.76,-356.5 661.19,-356.5 676.94,-356.5"/>
<polygon fill="#63b8ff" stroke="#63b8ff" points="628.32,-353 618.32,-356.5 628.32,-360 628.32,-353"/>
</a>
</g>
</g>
<!-- Node27 -->
<g id="Node000027" class="node">
<title>Node27</title>
<g id="a_Node000027"><a xlink:href="class_j_k_q_t_p_parsed_function_line_graph_base.html" target="_top" xlink:title="extends JKQTPEvaluatedFunctionWithErrorsGraphDrawingBase with the capabilities to define functions fr...">
<polygon fill="white" stroke="#666666" points="888,-328 654,-328 654,-307 888,-307 888,-328"/>
<text text-anchor="middle" x="771" y="-314.4" font-family="Helvetica,sans-Serif" font-size="12.00">JKQTPParsedFunctionLineGraphBase</text>
</a>
</g>
</g>
<!-- Node23&#45;&gt;Node27 -->
<g id="edge26_Node000023_Node000027" class="edge">
<title>Node23&#45;&gt;Node27</title>
<g id="a_edge26_Node000023_Node000027"><a xlink:title=" ">
<path fill="none" stroke="#63b8ff" d="M628.44,-340.03C654.01,-335.96 680.72,-331.71 703.96,-328.01"/>
<polygon fill="#63b8ff" stroke="#63b8ff" points="627.65,-336.62 618.32,-341.64 628.75,-343.53 627.65,-336.62"/>
</a>
</g>
</g>
<!-- Node25 -->
<g id="Node000025" class="node">
<title>Node25</title>
<g id="a_Node000025"><a xlink:href="class_j_k_q_t_p_x_function_line_graph.html" target="_top" xlink:title="This implements line plots where the data is taken from a user supplied function .">
<polygon fill="white" stroke="#666666" points="1106.5,-439 933.5,-439 933.5,-418 1106.5,-418 1106.5,-439"/>
<text text-anchor="middle" x="1020" y="-425.4" font-family="Helvetica,sans-Serif" font-size="12.00">JKQTPXFunctionLineGraph</text>
</a>
</g>
</g>
<!-- Node24&#45;&gt;Node25 -->
<g id="edge24_Node000024_Node000025" class="edge">
<title>Node24&#45;&gt;Node25</title>
<g id="a_edge24_Node000024_Node000025"><a xlink:title=" ">
<path fill="none" stroke="#63b8ff" d="M872.77,-370.13C878.02,-372 883.13,-374.11 888,-376.5 907.48,-386.06 904.65,-399.68 924,-409.5 930.6,-412.85 937.74,-415.61 945.03,-417.88"/>
<polygon fill="#63b8ff" stroke="#63b8ff" points="873.79,-366.79 863.2,-367.04 871.64,-373.45 873.79,-366.79"/>
</a>
</g>
</g>
<!-- Node26 -->
<g id="Node000026" class="node">
<title>Node26</title>
<g id="a_Node000026"><a xlink:href="class_j_k_q_t_p_y_function_line_graph.html" target="_top" xlink:title="This implements line plots where the data is taken from a user supplied function .">
<polygon fill="white" stroke="#666666" points="1105.5,-400 934.5,-400 934.5,-379 1105.5,-379 1105.5,-400"/>
<text text-anchor="middle" x="1020" y="-386.4" font-family="Helvetica,sans-Serif" font-size="12.00">JKQTPYFunctionLineGraph</text>
</a>
</g>
</g>
<!-- Node24&#45;&gt;Node26 -->
<g id="edge25_Node000024_Node000026" class="edge">
<title>Node24&#45;&gt;Node26</title>
<g id="a_edge25_Node000024_Node000026"><a xlink:title=" ">
<path fill="none" stroke="#63b8ff" d="M861,-368.39C886.85,-371.84 914.89,-375.59 940.07,-378.95"/>
<polygon fill="#63b8ff" stroke="#63b8ff" points="861.21,-364.89 850.83,-367.03 860.28,-371.83 861.21,-364.89"/>
</a>
</g>
</g>
<!-- Node28 -->
<g id="Node000028" class="node">
<title>Node28</title>
<g id="a_Node000028"><a xlink:href="class_j_k_q_t_p_x_parsed_function_line_graph.html" target="_top" xlink:title="This implements line plots where the data is taken from a user supplied function &#160;The function is def...">
<polygon fill="white" stroke="#666666" points="1108,-360.5 932,-360.5 932,-326.5 1108,-326.5 1108,-360.5"/>
<text text-anchor="start" x="940" y="-346.9" font-family="Helvetica,sans-Serif" font-size="12.00">JKQTPXParsedFunctionLine</text>
<text text-anchor="middle" x="1020" y="-333.9" font-family="Helvetica,sans-Serif" font-size="12.00">Graph</text>
</a>
</g>
</g>
<!-- Node27&#45;&gt;Node28 -->
<g id="edge27_Node000027_Node000028" class="edge">
<title>Node27&#45;&gt;Node28</title>
<g id="a_edge27_Node000027_Node000028"><a xlink:title=" ">
<path fill="none" stroke="#63b8ff" d="M882.1,-329.09C898.82,-330.85 915.86,-332.64 931.99,-334.34"/>
<polygon fill="#63b8ff" stroke="#63b8ff" points="882.06,-325.57 871.75,-328 881.33,-332.53 882.06,-325.57"/>
</a>
</g>
</g>
<!-- Node29 -->
<g id="Node000029" class="node">
<title>Node29</title>
<g id="a_Node000029"><a xlink:href="class_j_k_q_t_p_y_parsed_function_line_graph.html" target="_top" xlink:title="This implements line plots where the data is taken from a user supplied function &#160;The function is def...">
<polygon fill="white" stroke="#666666" points="1107.5,-308.5 932.5,-308.5 932.5,-274.5 1107.5,-274.5 1107.5,-308.5"/>
<text text-anchor="start" x="940.5" y="-294.9" font-family="Helvetica,sans-Serif" font-size="12.00">JKQTPYParsedFunctionLine</text>
<text text-anchor="middle" x="1020" y="-281.9" font-family="Helvetica,sans-Serif" font-size="12.00">Graph</text>
</a>
</g>
</g>
<!-- Node27&#45;&gt;Node29 -->
<g id="edge28_Node000027_Node000029" class="edge">
<title>Node27&#45;&gt;Node29</title>
<g id="a_edge28_Node000027_Node000029"><a xlink:title=" ">
<path fill="none" stroke="#63b8ff" d="M881.7,-305.95C898.67,-304.17 916,-302.34 932.38,-300.62"/>
<polygon fill="#63b8ff" stroke="#63b8ff" points="881.33,-302.47 871.75,-307 882.06,-309.43 881.33,-302.47"/>
</a>
</g>
</g>
<!-- Node31 -->
<g id="Node000031" class="node">
<title>Node31</title>
<g id="a_Node000031"><a xlink:href="class_j_k_q_t_p_filled_curve_x_graph.html" target="_top" xlink:title="This implements filled curve plots where the area is filled between the plot line and the x&#45;Axis.">
<polygon fill="white" stroke="#666666" points="852.5,-289 689.5,-289 689.5,-268 852.5,-268 852.5,-289"/>
<text text-anchor="middle" x="771" y="-275.4" font-family="Helvetica,sans-Serif" font-size="12.00">JKQTPFilledCurveXGraph</text>
</a>
</g>
</g>
<!-- Node30&#45;&gt;Node31 -->
<g id="edge30_Node000030_Node000031" class="edge">
<title>Node30&#45;&gt;Node31</title>
<g id="a_edge30_Node000030_Node000031"><a xlink:title=" ">
<path fill="none" stroke="#63b8ff" d="M615.79,-298.64C639.93,-295.49 665.83,-292.11 689.39,-289.03"/>
<polygon fill="#63b8ff" stroke="#63b8ff" points="615.02,-295.21 605.56,-299.98 615.93,-302.15 615.02,-295.21"/>
</a>
</g>
</g>
<!-- Node33 -->
<g id="Node000033" class="node">
<title>Node33</title>
<g id="a_Node000033"><a xlink:href="class_j_k_q_t_p_filled_curve_y_graph.html" target="_top" xlink:title="This implements filled curve plots where the area is filled between the plot line and y&#45;Axis.">
<polygon fill="white" stroke="#666666" points="852,-250 690,-250 690,-229 852,-229 852,-250"/>
<text text-anchor="middle" x="771" y="-236.4" font-family="Helvetica,sans-Serif" font-size="12.00">JKQTPFilledCurveYGraph</text>
</a>
</g>
</g>
<!-- Node30&#45;&gt;Node33 -->
<g id="edge32_Node000030_Node000033" class="edge">
<title>Node30&#45;&gt;Node33</title>
<g id="a_edge32_Node000030_Node000033"><a xlink:title=" ">
<path fill="none" stroke="#63b8ff" d="M603.28,-296.71C608.36,-294.89 613.31,-292.83 618,-290.5 636.91,-281.1 634.9,-268.51 654,-259.5 665.18,-254.22 677.56,-250.33 689.94,-247.45"/>
<polygon fill="#63b8ff" stroke="#63b8ff" points="601.83,-293.5 593.4,-299.92 603.99,-300.16 601.83,-293.5"/>
</a>
</g>
</g>
<!-- Node32 -->
<g id="Node000032" class="node">
<title>Node32</title>
<g id="a_Node000032"><a xlink:href="class_j_k_q_t_p_filled_curve_x_error_graph.html" target="_top" xlink:title="This implements filled curve plots with y errors where the area is filled between the plot line and t...">
<polygon fill="white" stroke="#666666" points="1116,-256 924,-256 924,-235 1116,-235 1116,-256"/>
<text text-anchor="middle" x="1020" y="-242.4" font-family="Helvetica,sans-Serif" font-size="12.00">JKQTPFilledCurveXErrorGraph</text>
</a>
</g>
</g>
<!-- Node31&#45;&gt;Node32 -->
<g id="edge31_Node000031_Node000032" class="edge">
<title>Node31&#45;&gt;Node32</title>
<g id="a_edge31_Node000031_Node000032"><a xlink:title=" ">
<path fill="none" stroke="#63b8ff" d="M861,-266.61C886.85,-263.16 914.89,-259.41 940.07,-256.05"/>
<polygon fill="#63b8ff" stroke="#63b8ff" points="860.28,-263.17 850.83,-267.97 861.21,-270.11 860.28,-263.17"/>
</a>
</g>
</g>
<!-- Node34 -->
<g id="Node000034" class="node">
<title>Node34</title>
<g id="a_Node000034"><a xlink:href="class_j_k_q_t_p_filled_curve_y_error_graph.html" target="_top" xlink:title="This implements filled curve plots with y errors where the area is filled between the plot line and t...">
<polygon fill="white" stroke="#666666" points="1115.5,-217 924.5,-217 924.5,-196 1115.5,-196 1115.5,-217"/>
<text text-anchor="middle" x="1020" y="-203.4" font-family="Helvetica,sans-Serif" font-size="12.00">JKQTPFilledCurveYErrorGraph</text>
</a>
</g>
</g>
<!-- Node33&#45;&gt;Node34 -->
<g id="edge33_Node000033_Node000034" class="edge">
<title>Node33&#45;&gt;Node34</title>
<g id="a_edge33_Node000033_Node000034"><a xlink:title=" ">
<path fill="none" stroke="#63b8ff" d="M861,-227.61C886.85,-224.16 914.89,-220.41 940.07,-217.05"/>
<polygon fill="#63b8ff" stroke="#63b8ff" points="860.28,-224.17 850.83,-228.97 861.21,-231.11 860.28,-224.17"/>
</a>
</g>
</g>
<!-- Node38 -->
<g id="Node000038" class="node">
<title>Node38</title>
<g id="a_Node000038"><a xlink:href="class_j_k_q_t_p_special_line_horizontal_graph.html" target="_top" xlink:title="This implements a step plot with values .">
<polygon fill="white" stroke="#666666" points="861.5,-210.5 680.5,-210.5 680.5,-176.5 861.5,-176.5 861.5,-210.5"/>
<text text-anchor="start" x="688.5" y="-196.9" font-family="Helvetica,sans-Serif" font-size="12.00">JKQTPSpecialLineHorizontal</text>
<text text-anchor="middle" x="771" y="-183.9" font-family="Helvetica,sans-Serif" font-size="12.00">Graph</text>
</a>
</g>
</g>
<!-- Node37&#45;&gt;Node38 -->
<g id="edge37_Node000037_Node000038" class="edge">
<title>Node37&#45;&gt;Node38</title>
<g id="a_edge37_Node000037_Node000038"><a xlink:title=" ">
<path fill="none" stroke="#63b8ff" d="M627.51,-177.8C645.02,-179.73 663.09,-181.72 680.24,-183.61"/>
<polygon fill="#63b8ff" stroke="#63b8ff" points="627.6,-174.29 617.27,-176.67 626.83,-181.24 627.6,-174.29"/>
</a>
</g>
</g>
<!-- Node39 -->
<g id="Node000039" class="node">
<title>Node39</title>
<g id="a_Node000039"><a xlink:href="class_j_k_q_t_p_special_line_vertical_graph.html" target="_top" xlink:title="This implements a step plot with values .">
<polygon fill="white" stroke="#666666" points="853.5,-158.5 688.5,-158.5 688.5,-124.5 853.5,-124.5 853.5,-158.5"/>
<text text-anchor="start" x="696.5" y="-144.9" font-family="Helvetica,sans-Serif" font-size="12.00">JKQTPSpecialLineVertical</text>
<text text-anchor="middle" x="771" y="-131.9" font-family="Helvetica,sans-Serif" font-size="12.00">Graph</text>
</a>
</g>
</g>
<!-- Node37&#45;&gt;Node39 -->
<g id="edge38_Node000037_Node000039" class="edge">
<title>Node37&#45;&gt;Node39</title>
<g id="a_edge38_Node000037_Node000039"><a xlink:title=" ">
<path fill="none" stroke="#63b8ff" d="M627.48,-156.04C647.76,-153.97 668.79,-151.83 688.27,-149.84"/>
<polygon fill="#63b8ff" stroke="#63b8ff" points="626.87,-152.59 617.27,-157.08 627.58,-159.55 626.87,-152.59"/>
</a>
</g>
</g>
<!-- Node41 -->
<g id="Node000041" class="node">
<title>Node41</title>
<g id="a_Node000041"><a xlink:href="class_j_k_q_t_p_x_y_graph_labels.html" target="_top" xlink:title="This graph plots a series of data labels. This can be used to add number&#45;labels to e....">
<polygon fill="white" stroke="#666666" points="595.5,-138 452.5,-138 452.5,-117 595.5,-117 595.5,-138"/>
<text text-anchor="middle" x="524" y="-124.4" font-family="Helvetica,sans-Serif" font-size="12.00">JKQTPXYGraphLabels</text>
</a>
</g>
</g>
<!-- Node40&#45;&gt;Node41 -->
<g id="edge40_Node000040_Node000041" class="edge">
<title>Node40&#45;&gt;Node41</title>
<g id="a_edge40_Node000040_Node000041"><a xlink:title=" ">
<path fill="none" stroke="#63b8ff" d="M348.77,-175.71C373.08,-166.26 402.76,-155.44 430,-147.5 442.05,-143.99 455.14,-140.8 467.59,-138.05"/>
<polygon fill="#63b8ff" stroke="#63b8ff" points="347.43,-172.48 339.4,-179.39 349.98,-178.99 347.43,-172.48"/>
</a>
</g>
</g>
<!-- Node43 -->
<g id="Node000043" class="node">
<title>Node43</title>
<g id="a_Node000043"><a xlink:href="class_j_k_q_t_p_violinplot_element_base.html" target="_top" xlink:title="This implements a single vertical Violin Plot as a &quot;geometric element&quot;.">
<polygon fill="white" stroke="#666666" points="617,-99 431,-99 431,-78 617,-78 617,-99"/>
<text text-anchor="middle" x="524" y="-85.4" font-family="Helvetica,sans-Serif" font-size="12.00">JKQTPViolinplotElementBase</text>
</a>
</g>
</g>
<!-- Node42&#45;&gt;Node43 -->
<g id="edge42_Node000042_Node000043" class="edge">
<title>Node42&#45;&gt;Node43</title>
<g id="a_edge42_Node000042_Node000043"><a xlink:title=" ">
<path fill="none" stroke="#63b8ff" d="M393.9,-102.27C406.13,-100.97 418.62,-99.63 430.79,-98.34"/>
<polygon fill="#63b8ff" stroke="#63b8ff" points="393.28,-98.82 383.7,-103.36 394.02,-105.78 393.28,-98.82"/>
</a>
</g>
</g>
<!-- Node44 -->
<g id="Node000044" class="node">
<title>Node44</title>
<g id="a_Node000044"><a xlink:href="class_j_k_q_t_p_violinplot_horizontal_element.html" target="_top" xlink:title="This implements a single horizontal Violin Plot as a &quot;geometric element&quot;.">
<polygon fill="white" stroke="#666666" points="855,-105.5 687,-105.5 687,-71.5 855,-71.5 855,-105.5"/>
<text text-anchor="start" x="695" y="-91.9" font-family="Helvetica,sans-Serif" font-size="12.00">JKQTPViolinplotHorizontal</text>
<text text-anchor="middle" x="771" y="-78.9" font-family="Helvetica,sans-Serif" font-size="12.00">Element</text>
</a>
</g>
</g>
<!-- Node43&#45;&gt;Node44 -->
<g id="edge43_Node000043_Node000044" class="edge">
<title>Node43&#45;&gt;Node44</title>
<g id="a_edge43_Node000043_Node000044"><a xlink:title=" ">
<path fill="none" stroke="#63b8ff" d="M627.51,-88.5C647.23,-88.5 667.66,-88.5 686.67,-88.5"/>
<polygon fill="#63b8ff" stroke="#63b8ff" points="627.27,-85 617.27,-88.5 627.27,-92 627.27,-85"/>
</a>
</g>
</g>
<!-- Node45 -->
<g id="Node000045" class="node">
<title>Node45</title>
<g id="a_Node000045"><a xlink:href="class_j_k_q_t_p_violinplot_vertical_element.html" target="_top" xlink:title="This implements a single vertical Violin Plot as a &quot;geometric element&quot;.">
<polygon fill="white" stroke="#666666" points="872,-53 670,-53 670,-32 872,-32 872,-53"/>
<text text-anchor="middle" x="771" y="-39.4" font-family="Helvetica,sans-Serif" font-size="12.00">JKQTPViolinplotVerticalElement</text>
</a>
</g>
</g>
<!-- Node43&#45;&gt;Node45 -->
<g id="edge44_Node000043_Node000045" class="edge">
<title>Node43&#45;&gt;Node45</title>
<g id="a_edge44_Node000043_Node000045"><a xlink:title=" ">
<path fill="none" stroke="#63b8ff" d="M586.45,-75.95C612.98,-70.56 640.91,-64.95 654,-62.5 671.18,-59.29 689.82,-55.99 707.03,-53.02"/>
<polygon fill="#63b8ff" stroke="#63b8ff" points="585.48,-72.57 576.38,-77.99 586.88,-79.43 585.48,-72.57"/>
</a>
</g>
</g>
<!-- Node47 -->
<g id="Node000047" class="node">
<title>Node47</title>
<g id="a_Node000047"><a xlink:href="class_j_k_q_t_p_horizontal_range.html" target="_top" xlink:title="simply marks a range (and possibly a centerline) in a plot. This may be used to display e....">
<polygon fill="white" stroke="#666666" points="600,-60 448,-60 448,-39 600,-39 600,-60"/>
<text text-anchor="middle" x="524" y="-46.4" font-family="Helvetica,sans-Serif" font-size="12.00">JKQTPHorizontalRange</text>
</a>
</g>
</g>
<!-- Node46&#45;&gt;Node47 -->
<g id="edge46_Node000046_Node000047" class="edge">
<title>Node46&#45;&gt;Node47</title>
<g id="a_edge46_Node000046_Node000047"><a xlink:title=" ">
<path fill="none" stroke="#63b8ff" d="M367.42,-49.5C392.87,-49.5 421.79,-49.5 447.73,-49.5"/>
<polygon fill="#63b8ff" stroke="#63b8ff" points="367.12,-46 357.12,-49.5 367.12,-53 367.12,-46"/>
</a>
</g>
</g>
<!-- Node48 -->
<g id="Node000048" class="node">
<title>Node48</title>
<g id="a_Node000048"><a xlink:href="class_j_k_q_t_p_vertical_range.html" target="_top" xlink:title="simply marks a range (and possibly a centerline) in a plot. This may be used to display e....">
<polygon fill="white" stroke="#666666" points="592,-21 456,-21 456,0 592,0 592,-21"/>
<text text-anchor="middle" x="524" y="-7.4" font-family="Helvetica,sans-Serif" font-size="12.00">JKQTPVerticalRange</text>
</a>
</g>
</g>
<!-- Node46&#45;&gt;Node48 -->
<g id="edge47_Node000046_Node000048" class="edge">
<title>Node46&#45;&gt;Node48</title>
<g id="a_edge47_Node000046_Node000048"><a xlink:title=" ">
<path fill="none" stroke="#63b8ff" d="M367.22,-37.5C397.61,-32.23 432.97,-26.1 462.32,-21.02"/>
<polygon fill="#63b8ff" stroke="#63b8ff" points="366.37,-34.1 357.12,-39.25 367.57,-40.99 366.37,-34.1"/>
</a>
</g>
</g>
</g>
</svg>
