<?xml version="1.0" encoding="UTF-8" standalone="no"?>
<!DOCTYPE svg PUBLIC "-//W3C//DTD SVG 1.1//EN"
 "http://www.w3.org/Graphics/SVG/1.1/DTD/svg11.dtd">
<!-- Generated by graphviz version 2.43.0 (0)
 -->
<!-- Title: JKQTPColorPaletteStyleAndToolsMixin Pages: 1 -->
<svg width="1044pt" height="159pt"
 viewBox="0.00 0.00 1044.00 158.50" xmlns="http://www.w3.org/2000/svg" xmlns:xlink="http://www.w3.org/1999/xlink">
<g id="graph0" class="graph" transform="scale(1 1) rotate(0) translate(4 154.5)">
<title>JKQTPColorPaletteStyleAndToolsMixin</title>
<!-- Node1 -->
<g id="Node000001" class="node">
<title>Node1</title>
<g id="a_Node000001"><a xlink:title="if a class is derived from this class, it may use color bars">
<polygon fill="#999999" stroke="#666666" points="178,-86 0,-86 0,-52 178,-52 178,-86"/>
<text text-anchor="start" x="8" y="-72.4" font-family="Helvetica,sans-Serif" font-size="12.00">JKQTPColorPaletteStyleAnd</text>
<text text-anchor="middle" x="89" y="-59.4" font-family="Helvetica,sans-Serif" font-size="12.00">ToolsMixin</text>
</a>
</g>
</g>
<!-- Node2 -->
<g id="Node000002" class="node">
<title>Node2</title>
<g id="a_Node000002"><a xlink:href="class_j_k_q_t_p_color_palette_with_modifier_style_and_tools_mixin.html" target="_top" xlink:title="if a class is derived from this class, it may use color bars that have 2 axes (one &quot;data&quot;/color axis ...">
<polygon fill="white" stroke="#666666" points="414,-138 214,-138 214,-104 414,-104 414,-138"/>
<text text-anchor="start" x="222" y="-124.4" font-family="Helvetica,sans-Serif" font-size="12.00">JKQTPColorPaletteWithModifier</text>
<text text-anchor="middle" x="314" y="-111.4" font-family="Helvetica,sans-Serif" font-size="12.00">StyleAndToolsMixin</text>
</a>
</g>
</g>
<!-- Node1&#45;&gt;Node2 -->
<g id="edge1_Node000001_Node000002" class="edge">
<title>Node1&#45;&gt;Node2</title>
<g id="a_edge1_Node000001_Node000002"><a xlink:title=" ">
<path fill="none" stroke="#63b8ff" d="M172.97,-88.35C194.92,-93.46 218.44,-98.95 239.82,-103.94"/>
<polygon fill="#63b8ff" stroke="#63b8ff" points="173.55,-84.89 163.02,-86.03 171.96,-91.71 173.55,-84.89"/>
</a>
</g>
</g>
<!-- Node7 -->
<g id="Node000007" class="node">
<title>Node7</title>
<g id="a_Node000007"><a xlink:href="class_j_k_q_t_p_parametrized_vector_field_graph.html" target="_top" xlink:title="This graph plots a vector field, i.e. a set of vectors (dx,dy) or (angle,length) at positions (x,...">
<polygon fill="white" stroke="#666666" points="413.5,-86 214.5,-86 214.5,-52 413.5,-52 413.5,-86"/>
<text text-anchor="start" x="222.5" y="-72.4" font-family="Helvetica,sans-Serif" font-size="12.00">JKQTPParametrizedVectorField</text>
<text text-anchor="middle" x="314" y="-59.4" font-family="Helvetica,sans-Serif" font-size="12.00">Graph</text>
</a>
</g>
</g>
<!-- Node1&#45;&gt;Node7 -->
<g id="edge6_Node000001_Node000007" class="edge">
<title>Node1&#45;&gt;Node7</title>
<g id="a_edge6_Node000001_Node000007"><a xlink:title=" ">
<path fill="none" stroke="#63b8ff" d="M188.28,-69C196.97,-69 205.77,-69 214.47,-69"/>
<polygon fill="#63b8ff" stroke="#63b8ff" points="188.14,-65.5 178.14,-69 188.14,-72.5 188.14,-65.5"/>
</a>
</g>
</g>
<!-- Node8 -->
<g id="Node000008" class="node">
<title>Node8</title>
<g id="a_Node000008"><a xlink:href="class_j_k_q_t_p_x_y_parametrized_scatter_graph.html" target="_top" xlink:title="This implements xy scatter plots (like JKQTPXYScatterGraph), but the color and size of the symbols ma...">
<polygon fill="white" stroke="#666666" points="410,-34 218,-34 218,0 410,0 410,-34"/>
<text text-anchor="start" x="226" y="-20.4" font-family="Helvetica,sans-Serif" font-size="12.00">JKQTPXYParametrizedScatter</text>
<text text-anchor="middle" x="314" y="-7.4" font-family="Helvetica,sans-Serif" font-size="12.00">Graph</text>
</a>
</g>
</g>
<!-- Node1&#45;&gt;Node8 -->
<g id="edge7_Node000001_Node000008" class="edge">
<title>Node1&#45;&gt;Node8</title>
<g id="a_edge7_Node000001_Node000008"><a xlink:title=" ">
<path fill="none" stroke="#63b8ff" d="M172.97,-49.65C194.92,-44.54 218.44,-39.05 239.82,-34.06"/>
<polygon fill="#63b8ff" stroke="#63b8ff" points="171.96,-46.29 163.02,-51.97 173.55,-53.11 171.96,-46.29"/>
</a>
</g>
</g>
<!-- Node3 -->
<g id="Node000003" class="node">
<title>Node3</title>
<g id="a_Node000003"><a xlink:href="class_j_k_q_t_p_math_image.html" target="_top" xlink:title="class to plot an image from an 2&#45;dimensional array of values">
<polygon fill="white" stroke="#666666" points="599.5,-131.5 478.5,-131.5 478.5,-110.5 599.5,-110.5 599.5,-131.5"/>
<text text-anchor="middle" x="539" y="-117.9" font-family="Helvetica,sans-Serif" font-size="12.00">JKQTPMathImage</text>
</a>
</g>
</g>
<!-- Node2&#45;&gt;Node3 -->
<g id="edge2_Node000002_Node000003" class="edge">
<title>Node2&#45;&gt;Node3</title>
<g id="a_edge2_Node000002_Node000003"><a xlink:title=" ">
<path fill="none" stroke="#63b8ff" d="M424.14,-121C442.77,-121 461.5,-121 478.23,-121"/>
<polygon fill="#63b8ff" stroke="#63b8ff" points="424.11,-117.5 414.11,-121 424.11,-124.5 424.11,-117.5"/>
</a>
</g>
</g>
<!-- Node4 -->
<g id="Node000004" class="node">
<title>Node4</title>
<g id="a_Node000004"><a xlink:href="class_j_k_q_t_p_column_math_image.html" target="_top" xlink:title="class to plot an image from an 2&#45;dimensional array of values stored in a column of the datastore">
<polygon fill="white" stroke="#666666" points="831,-150.5 664,-150.5 664,-129.5 831,-129.5 831,-150.5"/>
<text text-anchor="middle" x="747.5" y="-136.9" font-family="Helvetica,sans-Serif" font-size="12.00">JKQTPColumnMathImage</text>
</a>
</g>
</g>
<!-- Node3&#45;&gt;Node4 -->
<g id="edge3_Node000003_Node000004" class="edge">
<title>Node3&#45;&gt;Node4</title>
<g id="a_edge3_Node000003_Node000004"><a xlink:title=" ">
<path fill="none" stroke="#63b8ff" d="M609.78,-127.42C627.15,-129.02 645.94,-130.75 663.87,-132.4"/>
<polygon fill="#63b8ff" stroke="#63b8ff" points="610.01,-123.93 599.73,-126.5 609.37,-130.9 610.01,-123.93"/>
</a>
</g>
</g>
<!-- Node5 -->
<g id="Node000005" class="node">
<title>Node5</title>
<g id="a_Node000005"><a xlink:href="class_j_k_q_t_p_contour_plot.html" target="_top" xlink:title="class for a contour plot">
<polygon fill="white" stroke="#666666" points="809,-111.5 686,-111.5 686,-90.5 809,-90.5 809,-111.5"/>
<text text-anchor="middle" x="747.5" y="-97.9" font-family="Helvetica,sans-Serif" font-size="12.00">JKQTPContourPlot</text>
</a>
</g>
</g>
<!-- Node3&#45;&gt;Node5 -->
<g id="edge4_Node000003_Node000005" class="edge">
<title>Node3&#45;&gt;Node5</title>
<g id="a_edge4_Node000003_Node000005"><a xlink:title=" ">
<path fill="none" stroke="#63b8ff" d="M609.75,-114.24C634.43,-111.85 661.97,-109.19 685.83,-106.88"/>
<polygon fill="#63b8ff" stroke="#63b8ff" points="609.34,-110.77 599.73,-115.22 610.02,-117.73 609.34,-110.77"/>
</a>
</g>
</g>
<!-- Node6 -->
<g id="Node000006" class="node">
<title>Node6</title>
<g id="a_Node000006"><a xlink:href="class_j_k_q_t_p_column_contour_plot.html" target="_top" xlink:title="class for a contour plots (same as JKQTPContourPlot) of images stored in a JKQTPDatastore column">
<polygon fill="white" stroke="#666666" points="1036,-111.5 867,-111.5 867,-90.5 1036,-90.5 1036,-111.5"/>
<text text-anchor="middle" x="951.5" y="-97.9" font-family="Helvetica,sans-Serif" font-size="12.00">JKQTPColumnContourPlot</text>
</a>
</g>
</g>
<!-- Node5&#45;&gt;Node6 -->
<g id="edge5_Node000005_Node000006" class="edge">
<title>Node5&#45;&gt;Node6</title>
<g id="a_edge5_Node000005_Node000006"><a xlink:title=" ">
<path fill="none" stroke="#63b8ff" d="M819.5,-101C834.78,-101 851.07,-101 866.78,-101"/>
<polygon fill="#63b8ff" stroke="#63b8ff" points="819.11,-97.5 809.11,-101 819.11,-104.5 819.11,-97.5"/>
</a>
</g>
</g>
<!-- Node9 -->
<g id="Node000009" class="node">
<title>Node9</title>
<g id="a_Node000009"><a xlink:href="class_j_k_q_t_p_x_y_parametrized_error_scatter_graph.html" target="_top" xlink:title="This implements xy scatter plots (like JKQTPXYScatterGraph), but the color and size of the symbols ma...">
<polygon fill="white" stroke="#666666" points="628,-34 450,-34 450,0 628,0 628,-34"/>
<text text-anchor="start" x="458" y="-20.4" font-family="Helvetica,sans-Serif" font-size="12.00">JKQTPXYParametrizedError</text>
<text text-anchor="middle" x="539" y="-7.4" font-family="Helvetica,sans-Serif" font-size="12.00">ScatterGraph</text>
</a>
</g>
</g>
<!-- Node8&#45;&gt;Node9 -->
<g id="edge8_Node000008_Node000009" class="edge">
<title>Node8&#45;&gt;Node9</title>
<g id="a_edge8_Node000008_Node000009"><a xlink:title=" ">
<path fill="none" stroke="#63b8ff" d="M420.43,-17C430.26,-17 440.16,-17 449.81,-17"/>
<polygon fill="#63b8ff" stroke="#63b8ff" points="420.22,-13.5 410.22,-17 420.22,-20.5 420.22,-13.5"/>
</a>
</g>
</g>
</g>
</svg>
