<?xml version="1.0" encoding="UTF-8" standalone="no"?>
<!DOCTYPE svg PUBLIC "-//W3C//DTD SVG 1.1//EN"
 "http://www.w3.org/Graphics/SVG/1.1/DTD/svg11.dtd">
<!-- Generated by graphviz version 2.43.0 (0)
 -->
<!-- Title: JKQTPColumn Pages: 1 -->
<svg width="353pt" height="257pt"
 viewBox="0.00 0.00 352.50 257.00" xmlns="http://www.w3.org/2000/svg" xmlns:xlink="http://www.w3.org/1999/xlink">
<g id="graph0" class="graph" transform="scale(1 1) rotate(0) translate(4 253)">
<title>JKQTPColumn</title>
<!-- Node1 -->
<g id="Node000001" class="node">
<title>Node1</title>
<g id="a_Node000001"><a xlink:title="internally stores information about one data column. See JKQTPDatastore for more information.">
<polygon fill="#999999" stroke="#666666" points="115.5,-173 17.5,-173 17.5,-152 115.5,-152 115.5,-173"/>
<text text-anchor="middle" x="66.5" y="-159.4" font-family="Helvetica,sans-Serif" font-size="12.00">JKQTPColumn</text>
</a>
</g>
</g>
<!-- Node3 -->
<g id="Node000003" class="node">
<title>Node3</title>
<g id="a_Node000003"><a xlink:title=" ">
<polygon fill="white" stroke="#666666" points="337,-97 122,-97 122,-76 337,-76 337,-97"/>
<text text-anchor="middle" x="229.5" y="-83.4" font-family="Helvetica,sans-Serif" font-size="12.00">std::unique_ptr&lt; JKQTPColumn &gt;</text>
</a>
</g>
</g>
<!-- Node1&#45;&gt;Node3 -->
<g id="edge3_Node000003_Node000001" class="edge">
<title>Node1&#45;&gt;Node3</title>
<g id="a_edge3_Node000003_Node000001"><a xlink:title=" ">
<path fill="none" stroke="#9a32cd" stroke-dasharray="5,2" d="M96.92,-147.69C129.39,-132.95 179.97,-109.99 208.35,-97.1"/>
<polygon fill="#9a32cd" stroke="#9a32cd" points="95.13,-144.66 87.48,-151.98 98.03,-151.03 95.13,-144.66"/>
</a>
</g>
<text text-anchor="start" x="170.5" y="-120.9" font-family="Helvetica,sans-Serif" font-size="12.00" fill="grey">ptr</text>
</g>
<!-- Node2 -->
<g id="Node000002" class="node">
<title>Node2</title>
<g id="a_Node000002"><a xlink:href="class_j_k_q_t_p_datastore.html" target="_top" xlink:title="This class manages data columns (with entries of type double ), used by JKQTPlotter/JKQTBasePlotter t...">
<polygon fill="white" stroke="#666666" points="111,-21 0,-21 0,0 111,0 111,-21"/>
<text text-anchor="middle" x="55.5" y="-7.4" font-family="Helvetica,sans-Serif" font-size="12.00">JKQTPDatastore</text>
</a>
</g>
</g>
<!-- Node2&#45;&gt;Node1 -->
<g id="edge1_Node000001_Node000002" class="edge">
<title>Node2&#45;&gt;Node1</title>
<g id="a_edge1_Node000001_Node000002"><a xlink:title=" ">
<path fill="none" stroke="#9a32cd" stroke-dasharray="5,2" d="M51.49,-31.06C48.5,-48.44 45.42,-74.49 48.5,-97 51.21,-116.81 58.41,-139.12 62.83,-151.62"/>
<polygon fill="#9a32cd" stroke="#9a32cd" points="54.97,-31.5 53.37,-21.03 48.09,-30.21 54.97,-31.5"/>
</a>
</g>
<text text-anchor="start" x="51.5" y="-82.9" font-family="Helvetica,sans-Serif" font-size="12.00" fill="grey">datastore</text>
</g>
<!-- Node3&#45;&gt;Node2 -->
<g id="edge2_Node000002_Node000003" class="edge">
<title>Node3&#45;&gt;Node2</title>
<g id="a_edge2_Node000002_Node000003"><a xlink:title=" ">
<path fill="none" stroke="#9a32cd" stroke-dasharray="5,2" d="M197.47,-71.88C162.83,-57.15 108.51,-34.04 78.08,-21.1"/>
<polygon fill="#9a32cd" stroke="#9a32cd" points="196.54,-75.28 207.11,-75.98 199.28,-68.84 196.54,-75.28"/>
</a>
</g>
<text text-anchor="start" x="167" y="-44.9" font-family="Helvetica,sans-Serif" font-size="12.00" fill="grey">m_invalidColumn</text>
</g>
<!-- Node4 -->
<g id="Node000004" class="node">
<title>Node4</title>
<g id="a_Node000004"><a xlink:title=" ">
<polygon fill="white" stroke="#666666" points="299.5,-173 159.5,-173 159.5,-152 299.5,-152 299.5,-173"/>
<text text-anchor="middle" x="229.5" y="-159.4" font-family="Helvetica,sans-Serif" font-size="12.00">std::unique_ptr&lt; T &gt;</text>
</a>
</g>
</g>
<!-- Node4&#45;&gt;Node3 -->
<g id="edge4_Node000003_Node000004" class="edge">
<title>Node4&#45;&gt;Node3</title>
<g id="a_edge4_Node000003_Node000004"><a xlink:title=" ">
<path fill="none" stroke="orange" stroke-dasharray="5,2" d="M229.5,-141.53C229.5,-127.25 229.5,-108.65 229.5,-97.41"/>
<polygon fill="orange" stroke="orange" points="226,-141.83 229.5,-151.83 233,-141.83 226,-141.83"/>
</a>
</g>
<text text-anchor="start" x="233" y="-120.9" font-family="Helvetica,sans-Serif" font-size="12.00" fill="grey">&lt; JKQTPColumn &gt;</text>
</g>
<!-- Node5 -->
<g id="Node000005" class="node">
<title>Node5</title>
<g id="a_Node000005"><a xlink:title=" ">
<polygon fill="white" stroke="#666666" points="244,-249 215,-249 215,-228 244,-228 244,-249"/>
<text text-anchor="middle" x="229.5" y="-235.4" font-family="Helvetica,sans-Serif" font-size="12.00">T</text>
</a>
</g>
</g>
<!-- Node5&#45;&gt;Node4 -->
<g id="edge5_Node000004_Node000005" class="edge">
<title>Node5&#45;&gt;Node4</title>
<g id="a_edge5_Node000004_Node000005"><a xlink:title=" ">
<path fill="none" stroke="#9a32cd" stroke-dasharray="5,2" d="M229.5,-217.53C229.5,-203.25 229.5,-184.65 229.5,-173.41"/>
<polygon fill="#9a32cd" stroke="#9a32cd" points="226,-217.83 229.5,-227.83 233,-217.83 226,-217.83"/>
</a>
</g>
<text text-anchor="start" x="232.5" y="-196.9" font-family="Helvetica,sans-Serif" font-size="12.00" fill="grey">ptr</text>
</g>
</g>
</svg>
