<?xml version="1.0" encoding="UTF-8" standalone="no"?>
<!DOCTYPE svg PUBLIC "-//W3C//DTD SVG 1.1//EN"
 "http://www.w3.org/Graphics/SVG/1.1/DTD/svg11.dtd">
<!-- Generated by graphviz version 2.43.0 (0)
 -->
<!-- Title: JKQTPSynchronized&lt; T &gt; Pages: 1 -->
<!--zoomable 372 -->

<svg id="main" version="1.1" xmlns="http://www.w3.org/2000/svg" xmlns:xlink="http://www.w3.org/1999/xlink" xml:space="preserve" onload="init(evt)">

<style type="text/css"><![CDATA[
.node, .edge {opacity: 0.7;}
.node.selected, .edge.selected {opacity: 1;}
.edge:hover path { stroke: red; }
.edge:hover polygon { stroke: red; fill: red; }
]]></style>

<defs>
  <circle id="rim" cx="0" cy="0" r="7"/>
  <circle id="rim2" cx="0" cy="0" r="3.5"/>
  <g id="zoomPlus">
    <use xlink:href="#rim" fill="#404040"><set attributeName="fill" to="#808080" begin="zoomplus.mouseover" end="zoomplus.mouseout"/></use>
    <path d="M-4,0h8M0,-4v8" fill="none" stroke="white" stroke-width="1.5" pointer-events="none"/>
  </g>
  <g id="zoomMin">
    <use xlink:href="#rim" fill="#404040"><set attributeName="fill" to="#808080" begin="zoomminus.mouseover" end="zoomminus.mouseout"/></use>
    <path d="M-4,0h8" fill="none" stroke="white" stroke-width="1.5" pointer-events="none"/>
  </g>
  <g id="arrowUp" transform="translate(30 24)">
    <use xlink:href="#rim"/>
    <path pointer-events="none" fill="none" stroke="white" stroke-width="1.5" d="M0,-3.0v7 M-2.5,-0.5L0,-3.0L2.5,-0.5"/>
  </g>
  <g id="arrowRight" transform="rotate(90) translate(36 -43)">
    <use xlink:href="#rim"/>
    <path pointer-events="none" fill="none" stroke="white" stroke-width="1.5" d="M0,-3.0v7 M-2.5,-0.5L0,-3.0L2.5,-0.5"/>
  </g>
  <g id="arrowDown" transform="rotate(180) translate(-30 -48)">
    <use xlink:href="#rim"/>
    <path pointer-events="none" fill="none" stroke="white" stroke-width="1.5" d="M0,-3.0v7 M-2.5,-0.5L0,-3.0L2.5,-0.5"/>
  </g>
  <g id="arrowLeft" transform="rotate(270) translate(-36 17)">
    <use xlink:href="#rim"/>
    <path pointer-events="none" fill="none" stroke="white" stroke-width="1.5" d="M0,-3.0v7 M-2.5,-0.5L0,-3.0L2.5,-0.5"/>
  </g>
  <g id="resetDef">
    <use xlink:href="#rim2" fill="#404040"><set attributeName="fill" to="#808080" begin="reset.mouseover" end="reset.mouseout"/></use>
  </g>
</defs>
<script type="application/ecmascript">
var viewWidth = 675;
var viewHeight = 372;
var sectionId = 'dynsection-0';
</script>
<script type="application/ecmascript" xlink:href="svg.min.js"/>
<svg id="graph" class="graph">
<g id="viewport">
<title>JKQTPSynchronized&lt; T &gt;</title>
<!-- Node1 -->
<g id="Node000001" class="node">
<title>Node1</title>
<g id="a_Node000001"><a xlink:title="template class that wraps any datatype and combines it with a mutex, exposes the lock()/unlock() inte...">
<polygon fill="#999999" stroke="#666666" points="167,-188.37 0,-188.37 0,-167.37 167,-167.37 167,-188.37"/>
<text text-anchor="middle" x="83.5" y="-174.77" font-family="Helvetica,sans-Serif" font-size="12.00">JKQTPSynchronized&lt; T &gt;</text>
</a>
</g>
</g>
<!-- Node2 -->
<g id="Node000002" class="node">
<title>Node2</title>
<g id="a_Node000002"><a xlink:href="class_j_k_q_t_p_synchronized.html" target="_top" xlink:title=" ">
<polygon fill="white" stroke="#666666" points="601.5,-339.37 478.5,-339.37 478.5,-318.37 601.5,-318.37 601.5,-339.37"/>
<text text-anchor="middle" x="540" y="-325.77" font-family="Helvetica,sans-Serif" font-size="12.00">WriteLocker&lt; T &gt;</text>
</a>
</g>
</g>
<!-- Node1&#45;&gt;Node2 -->
<g id="edge1_Node000001_Node000002" class="edge">
<title>Node1&#45;&gt;Node2</title>
<g id="a_edge1_Node000001_Node000002"><a xlink:title=" ">
<path fill="none" stroke="orange" stroke-dasharray="5,2" d="M93.59,-197.79C108.17,-227.14 139.82,-281.09 185,-304.87 278.07,-353.86 404.48,-348.18 478.34,-338.96"/>
<polygon fill="orange" stroke="orange" points="96.62,-196.03 89.14,-188.53 90.31,-199.06 96.62,-196.03"/>
</a>
</g>
<text text-anchor="start" x="233" y="-350.77" font-family="Helvetica,sans-Serif" font-size="12.00" fill="grey">&lt; T &gt;::WriteLocker</text>
</g>
<!-- Node3 -->
<g id="Node000003" class="node">
<title>Node3</title>
<g id="a_Node000003"><a xlink:href="class_j_k_q_t_p_synchronized.html" target="_top" xlink:title=" ">
<polygon fill="white" stroke="#666666" points="655,-296.37 425,-296.37 425,-249.37 655,-249.37 655,-296.37"/>
<text text-anchor="start" x="433" y="-282.77" font-family="Helvetica,sans-Serif" font-size="12.00">JKQTPSynchronized&lt;</text>
<text text-anchor="start" x="433" y="-269.77" font-family="Helvetica,sans-Serif" font-size="12.00"> QVector&lt; JKQTPCustomGraph</text>
<text text-anchor="middle" x="540" y="-256.77" font-family="Helvetica,sans-Serif" font-size="12.00">SymbolFunctor &gt; &gt;::ReadLocker&lt;&gt;</text>
</a>
</g>
</g>
<!-- Node1&#45;&gt;Node3 -->
<g id="edge2_Node000001_Node000003" class="edge">
<title>Node1&#45;&gt;Node3</title>
<g id="a_edge2_Node000001_Node000003"><a xlink:title=" ">
<path fill="none" stroke="orange" stroke-dasharray="5,2" d="M105.64,-194.63C125.06,-209.03 155.27,-229 185,-238.87 228.14,-253.2 338.77,-262.29 424.98,-267.43"/>
<polygon fill="orange" stroke="orange" points="107.59,-191.72 97.51,-188.46 103.36,-197.29 107.59,-191.72"/>
</a>
</g>
<text text-anchor="start" x="189" y="-288.27" font-family="Helvetica,sans-Serif" font-size="12.00" fill="grey">&lt; QVector&lt; JKQTPCustomGraph</text>
<text text-anchor="start" x="189" y="-271.27" font-family="Helvetica,sans-Serif" font-size="12.00" fill="grey">  SymbolFunctor &gt; &gt;::ReadLocker</text>
</g>
<!-- Node4 -->
<g id="Node000004" class="node">
<title>Node4</title>
<g id="a_Node000004"><a xlink:href="class_j_k_q_t_p_synchronized.html" target="_top" xlink:title=" ">
<polygon fill="white" stroke="#666666" points="656,-231.37 424,-231.37 424,-184.37 656,-184.37 656,-231.37"/>
<text text-anchor="start" x="432" y="-217.77" font-family="Helvetica,sans-Serif" font-size="12.00">JKQTPSynchronized&lt;</text>
<text text-anchor="start" x="432" y="-204.77" font-family="Helvetica,sans-Serif" font-size="12.00"> QVector&lt; JKQTPCustomGraph</text>
<text text-anchor="middle" x="540" y="-191.77" font-family="Helvetica,sans-Serif" font-size="12.00">SymbolFunctor &gt; &gt;::WriteLocker&lt;&gt;</text>
</a>
</g>
</g>
<!-- Node1&#45;&gt;Node4 -->
<g id="edge3_Node000001_Node000004" class="edge">
<title>Node1&#45;&gt;Node4</title>
<g id="a_edge3_Node000001_Node000004"><a xlink:title=" ">
<path fill="none" stroke="orange" stroke-dasharray="5,2" d="M177.23,-185.31C179.85,-185.5 182.44,-185.69 185,-185.87 264.7,-191.52 354.54,-197.09 423.78,-201.22"/>
<polygon fill="orange" stroke="orange" points="177.26,-181.8 167.03,-184.55 176.75,-188.78 177.26,-181.8"/>
</a>
</g>
<text text-anchor="start" x="188" y="-222.27" font-family="Helvetica,sans-Serif" font-size="12.00" fill="grey">&lt; QVector&lt; JKQTPCustomGraph</text>
<text text-anchor="start" x="188" y="-205.27" font-family="Helvetica,sans-Serif" font-size="12.00" fill="grey">  SymbolFunctor &gt; &gt;::WriteLocker</text>
</g>
<!-- Node5 -->
<g id="Node000005" class="node">
<title>Node5</title>
<g id="a_Node000005"><a xlink:href="class_j_k_q_t_p_synchronized.html" target="_top" xlink:title=" ">
<polygon fill="white" stroke="#666666" points="667,-165.87 413,-165.87 413,-131.87 667,-131.87 667,-165.87"/>
<text text-anchor="start" x="421" y="-152.27" font-family="Helvetica,sans-Serif" font-size="12.00">JKQTPSynchronized&lt;</text>
<text text-anchor="middle" x="540" y="-139.27" font-family="Helvetica,sans-Serif" font-size="12.00"> QList&lt; JKQTPPaintDeviceAdapter * &gt; &gt;</text>
</a>
</g>
</g>
<!-- Node1&#45;&gt;Node5 -->
<g id="edge4_Node000001_Node000005" class="edge">
<title>Node1&#45;&gt;Node5</title>
<g id="a_edge4_Node000001_Node000005"><a xlink:title=" ">
<path fill="none" stroke="orange" stroke-dasharray="5,2" d="M124.13,-164.18C142.42,-158.55 164.56,-152.69 185,-149.87 260.04,-139.5 344.87,-138.89 412.68,-141.04"/>
<polygon fill="orange" stroke="orange" points="122.87,-160.9 114.4,-167.26 124.99,-167.57 122.87,-160.9"/>
</a>
</g>
<text text-anchor="start" x="209" y="-173.27" font-family="Helvetica,sans-Serif" font-size="12.00" fill="grey">&lt; QList&lt; JKQTPPaintDevice</text>
<text text-anchor="start" x="209" y="-156.27" font-family="Helvetica,sans-Serif" font-size="12.00" fill="grey">  Adapter * &gt; &gt;</text>
</g>
<!-- Node6 -->
<g id="Node000006" class="node">
<title>Node6</title>
<g id="a_Node000006"><a xlink:href="class_j_k_q_t_p_synchronized.html" target="_top" xlink:title=" ">
<polygon fill="white" stroke="#666666" points="661,-106.87 419,-106.87 419,-72.87 661,-72.87 661,-106.87"/>
<text text-anchor="start" x="427" y="-93.27" font-family="Helvetica,sans-Serif" font-size="12.00">JKQTPSynchronized&lt;</text>
<text text-anchor="middle" x="540" y="-80.27" font-family="Helvetica,sans-Serif" font-size="12.00"> QList&lt; JKQTPSaveDataAdapter * &gt; &gt;</text>
</a>
</g>
</g>
<!-- Node1&#45;&gt;Node6 -->
<g id="edge5_Node000001_Node000006" class="edge">
<title>Node1&#45;&gt;Node6</title>
<g id="a_edge5_Node000001_Node000006"><a xlink:title=" ">
<path fill="none" stroke="orange" stroke-dasharray="5,2" d="M100.73,-159.8C119.05,-140.84 150.8,-112.13 185,-99.87 259.52,-73.16 348.62,-70.79 418.79,-75.03"/>
<polygon fill="orange" stroke="orange" points="98.03,-157.56 93.73,-167.25 103.13,-162.36 98.03,-157.56"/>
</a>
</g>
<text text-anchor="start" x="191" y="-123.27" font-family="Helvetica,sans-Serif" font-size="12.00" fill="grey">&lt; QList&lt; JKQTPSaveDataAdapter</text>
<text text-anchor="start" x="191" y="-106.27" font-family="Helvetica,sans-Serif" font-size="12.00" fill="grey">   * &gt; &gt;</text>
</g>
<!-- Node7 -->
<g id="Node000007" class="node">
<title>Node7</title>
<g id="a_Node000007"><a xlink:href="class_j_k_q_t_p_synchronized.html" target="_top" xlink:title=" ">
<polygon fill="white" stroke="#666666" points="640.5,-54.37 439.5,-54.37 439.5,-7.37 640.5,-7.37 640.5,-54.37"/>
<text text-anchor="start" x="447.5" y="-40.77" font-family="Helvetica,sans-Serif" font-size="12.00">JKQTPSynchronized&lt;</text>
<text text-anchor="start" x="447.5" y="-27.77" font-family="Helvetica,sans-Serif" font-size="12.00"> QVector&lt; JKQTPCustomGraph</text>
<text text-anchor="middle" x="540" y="-14.77" font-family="Helvetica,sans-Serif" font-size="12.00">SymbolFunctor &gt; &gt;</text>
</a>
</g>
</g>
<!-- Node1&#45;&gt;Node7 -->
<g id="edge6_Node000001_Node000007" class="edge">
<title>Node1&#45;&gt;Node7</title>
<g id="a_edge6_Node000001_Node000007"><a xlink:title=" ">
<path fill="none" stroke="orange" stroke-dasharray="5,2" d="M91.52,-157.8C104.26,-124.88 134.62,-60.42 185,-33.87 263.03,7.25 364.81,3.21 439.2,-8.28"/>
<polygon fill="orange" stroke="orange" points="88.19,-156.7 88,-167.3 94.76,-159.14 88.19,-156.7"/>
</a>
</g>
<text text-anchor="start" x="193" y="-57.27" font-family="Helvetica,sans-Serif" font-size="12.00" fill="grey">&lt; QVector&lt; JKQTPCustomGraph</text>
<text text-anchor="start" x="193" y="-40.27" font-family="Helvetica,sans-Serif" font-size="12.00" fill="grey">  SymbolFunctor &gt; &gt;</text>
</g>
</g>
</svg>

<g id="navigator" transform="translate(0 0)" fill="#404254">
  <rect fill="#f2f5e9" fill-opacity="0.5" stroke="#606060" stroke-width=".5" x="0" y="0" width="60" height="60"/>
  <use id="zoomplus" xlink:href="#zoomPlus" x="17" y="9" onmousedown="handleZoom(evt,'in')"/>
  <use id="zoomminus" xlink:href="#zoomMin" x="42" y="9" onmousedown="handleZoom(evt,'out')"/>
  <use id="reset" xlink:href="#resetDef" x="30" y="36" onmousedown="handleReset()"/>
   <use id="arrowup" xlink:href="#arrowUp" x="0" y="0" onmousedown="handlePan(0,-1)"/>
  <use id="arrowright" xlink:href="#arrowRight" x="0" y="0" onmousedown="handlePan(1,0)"/>
  <use id="arrowdown" xlink:href="#arrowDown" x="0" y="0" onmousedown="handlePan(0,1)"/>
  <use id="arrowleft" xlink:href="#arrowLeft" x="0" y="0" onmousedown="handlePan(-1,0)"/>
</g>
<svg viewBox="0 0 15 15" width="100%" height="30px" preserveAspectRatio="xMaxYMin meet">
 <g id="arrow_out" transform="scale(0.3 0.3)">
  <a xlink:href="class_j_k_q_t_p_synchronized__inherit__graph_org.svg" target="_base">
   <rect id="button" ry="5" rx="5" y="6" x="6" height="38" width="38"
        fill="#f2f5e9" fill-opacity="0.5" stroke="#606060" stroke-width="1.0"/>
   <path id="arrow"
     d="M 11.500037,31.436501 C 11.940474,20.09759 22.043105,11.32322 32.158766,21.979434 L 37.068811,17.246167 C 37.068811,17.246167 37.088388,32 37.088388,32 L 22.160133,31.978069 C 22.160133,31.978069 26.997745,27.140456 26.997745,27.140456 C 18.528582,18.264221 13.291696,25.230495 11.500037,31.436501 z"
     style="fill:#404040;"/>
  </a>
 </g>
</svg>

<style type='text/css'>
<![CDATA[
[data-mouse-over-selected='false'] { opacity: 0.7; }
[data-mouse-over-selected='true']  { opacity: 1.0; }
]]>
</style>
<script type="application/ecmascript"><![CDATA[
document.addEventListener('DOMContentLoaded', (event) => {
  highlightEdges();
  highlightAdjacentNodes();
});
]]></script>
</svg>
