<?xml version="1.0" encoding="UTF-8" standalone="no"?>
<!DOCTYPE svg PUBLIC "-//W3C//DTD SVG 1.1//EN"
 "http://www.w3.org/Graphics/SVG/1.1/DTD/svg11.dtd">
<!-- Generated by graphviz version 2.43.0 (0)
 -->
<!-- Title: JKQTPGraphDecoratedLineStyleMixin Pages: 1 -->
<svg width="1036pt" height="160pt"
 viewBox="0.00 0.00 1036.00 159.50" xmlns="http://www.w3.org/2000/svg" xmlns:xlink="http://www.w3.org/1999/xlink">
<g id="graph0" class="graph" transform="scale(1 1) rotate(0) translate(4 155.5)">
<title>JKQTPGraphDecoratedLineStyleMixin</title>
<!-- Node1 -->
<g id="Node000001" class="node">
<title>Node1</title>
<g id="a_Node000001"><a xlink:title="This Mix&#45;In class provides setter/getter methods, storage and other facilities for the graph line sty...">
<polygon fill="#999999" stroke="#666666" points="416,-76 210,-76 210,-42 416,-42 416,-76"/>
<text text-anchor="start" x="218" y="-62.4" font-family="Helvetica,sans-Serif" font-size="12.00">JKQTPGraphDecoratedLineStyle</text>
<text text-anchor="middle" x="313" y="-49.4" font-family="Helvetica,sans-Serif" font-size="12.00">Mixin</text>
</a>
</g>
</g>
<!-- Node3 -->
<g id="Node000003" class="node">
<title>Node3</title>
<g id="a_Node000003"><a xlink:href="class_j_k_q_t_p_geo_base_decorated_line.html" target="_top" xlink:title="This JKQTPGeometricPlotElement is used as base class for geometric drawing elements that consist of l...">
<polygon fill="white" stroke="#666666" points="646,-92.5 452,-92.5 452,-71.5 646,-71.5 646,-92.5"/>
<text text-anchor="middle" x="549" y="-78.9" font-family="Helvetica,sans-Serif" font-size="12.00">JKQTPGeoBaseDecoratedLine</text>
</a>
</g>
</g>
<!-- Node1&#45;&gt;Node3 -->
<g id="edge2_Node000001_Node000003" class="edge">
<title>Node1&#45;&gt;Node3</title>
<g id="a_edge2_Node000001_Node000003"><a xlink:title=" ">
<path fill="none" stroke="#63b8ff" d="M426.29,-70.04C434.83,-70.88 443.41,-71.72 451.83,-72.55"/>
<polygon fill="#63b8ff" stroke="#63b8ff" points="426.59,-66.55 416.3,-69.05 425.91,-73.52 426.59,-66.55"/>
</a>
</g>
</g>
<!-- Node8 -->
<g id="Node000008" class="node">
<title>Node8</title>
<g id="a_Node000008"><a xlink:href="class_j_k_q_t_p_vector_field_graph.html" target="_top" xlink:title="This graph plots a vector field, i.e. a set of vectors (dx,dy) or (angle,length) at positions (x,...">
<polygon fill="white" stroke="#666666" points="626.5,-50.5 471.5,-50.5 471.5,-29.5 626.5,-29.5 626.5,-50.5"/>
<text text-anchor="middle" x="549" y="-36.9" font-family="Helvetica,sans-Serif" font-size="12.00">JKQTPVectorFieldGraph</text>
</a>
</g>
</g>
<!-- Node1&#45;&gt;Node8 -->
<g id="edge7_Node000001_Node000008" class="edge">
<title>Node1&#45;&gt;Node8</title>
<g id="a_edge7_Node000001_Node000008"><a xlink:title=" ">
<path fill="none" stroke="#63b8ff" d="M426.28,-49.88C441.51,-48.65 456.84,-47.4 471.25,-46.23"/>
<polygon fill="#63b8ff" stroke="#63b8ff" points="425.98,-46.4 416.3,-50.69 426.55,-53.37 425.98,-46.4"/>
</a>
</g>
</g>
<!-- Node2 -->
<g id="Node000002" class="node">
<title>Node2</title>
<g id="a_Node000002"><a xlink:href="class_j_k_q_t_p_graph_line_style_mixin.html" target="_top" xlink:title="This Mix&#45;In class provides setter/getter methods, storage and other facilities for the graph line sty...">
<polygon fill="white" stroke="#666666" points="174,-69.5 0,-69.5 0,-48.5 174,-48.5 174,-69.5"/>
<text text-anchor="middle" x="87" y="-55.9" font-family="Helvetica,sans-Serif" font-size="12.00">JKQTPGraphLineStyleMixin</text>
</a>
</g>
</g>
<!-- Node2&#45;&gt;Node1 -->
<g id="edge1_Node000001_Node000002" class="edge">
<title>Node2&#45;&gt;Node1</title>
<g id="a_edge1_Node000001_Node000002"><a xlink:title=" ">
<path fill="none" stroke="#63b8ff" d="M184.41,-59C192.78,-59 201.26,-59 209.67,-59"/>
<polygon fill="#63b8ff" stroke="#63b8ff" points="184.28,-55.5 174.28,-59 184.28,-62.5 184.28,-55.5"/>
</a>
</g>
</g>
<!-- Node4 -->
<g id="Node000004" class="node">
<title>Node4</title>
<g id="a_Node000004"><a xlink:href="class_j_k_q_t_p_geo_bezier_curve.html" target="_top" xlink:title="This JKQTPGeometricPlotElement is used to draw a bezier curve.">
<polygon fill="white" stroke="#666666" points="856,-151.5 707,-151.5 707,-130.5 856,-130.5 856,-151.5"/>
<text text-anchor="middle" x="781.5" y="-137.9" font-family="Helvetica,sans-Serif" font-size="12.00">JKQTPGeoBezierCurve</text>
</a>
</g>
</g>
<!-- Node3&#45;&gt;Node4 -->
<g id="edge3_Node000003_Node000004" class="edge">
<title>Node3&#45;&gt;Node4</title>
<g id="a_edge3_Node000003_Node000004"><a xlink:title=" ">
<path fill="none" stroke="#63b8ff" d="M592.68,-95.63C618.4,-103.6 651.91,-113.51 682,-121 695.63,-124.39 710.43,-127.63 724.31,-130.47"/>
<polygon fill="#63b8ff" stroke="#63b8ff" points="593.46,-92.21 582.87,-92.58 591.38,-98.9 593.46,-92.21"/>
</a>
</g>
</g>
<!-- Node5 -->
<g id="Node000005" class="node">
<title>Node5</title>
<g id="a_Node000005"><a xlink:href="class_j_k_q_t_p_geo_line.html" target="_top" xlink:title="This JKQTPGeometricPlotElement is used to draw a line, optionally line&#45;end decorations (aka arrows) a...">
<polygon fill="white" stroke="#666666" points="832,-112.5 731,-112.5 731,-91.5 832,-91.5 832,-112.5"/>
<text text-anchor="middle" x="781.5" y="-98.9" font-family="Helvetica,sans-Serif" font-size="12.00">JKQTPGeoLine</text>
</a>
</g>
</g>
<!-- Node3&#45;&gt;Node5 -->
<g id="edge4_Node000003_Node000005" class="edge">
<title>Node3&#45;&gt;Node5</title>
<g id="a_edge4_Node000003_Node000005"><a xlink:title=" ">
<path fill="none" stroke="#63b8ff" d="M656.39,-91.23C682.38,-93.49 708.98,-95.79 730.85,-97.69"/>
<polygon fill="#63b8ff" stroke="#63b8ff" points="656.35,-87.71 646.08,-90.34 655.74,-94.69 656.35,-87.71"/>
</a>
</g>
</g>
<!-- Node7 -->
<g id="Node000007" class="node">
<title>Node7</title>
<g id="a_Node000007"><a xlink:href="class_j_k_q_t_p_geo_poly_lines.html" target="_top" xlink:title="This JKQTPGeometricPlotElement is used to draw a poly line.">
<polygon fill="white" stroke="#666666" points="847,-73.5 716,-73.5 716,-52.5 847,-52.5 847,-73.5"/>
<text text-anchor="middle" x="781.5" y="-59.9" font-family="Helvetica,sans-Serif" font-size="12.00">JKQTPGeoPolyLines</text>
</a>
</g>
</g>
<!-- Node3&#45;&gt;Node7 -->
<g id="edge6_Node000003_Node000007" class="edge">
<title>Node3&#45;&gt;Node7</title>
<g id="a_edge6_Node000003_Node000007"><a xlink:title=" ">
<path fill="none" stroke="#63b8ff" d="M656.32,-73.24C676.59,-71.57 697.24,-69.86 715.73,-68.34"/>
<polygon fill="#63b8ff" stroke="#63b8ff" points="655.76,-69.77 646.08,-74.08 656.34,-76.75 655.76,-69.77"/>
</a>
</g>
</g>
<!-- Node6 -->
<g id="Node000006" class="node">
<title>Node6</title>
<g id="a_Node000006"><a xlink:href="class_j_k_q_t_p_geo_arrow.html" target="_top" xlink:title="This convenience specialisation of JKQTPGeoLine is used to draw a line with decorations (e....">
<polygon fill="white" stroke="#666666" points="1028,-112.5 917,-112.5 917,-91.5 1028,-91.5 1028,-112.5"/>
<text text-anchor="middle" x="972.5" y="-98.9" font-family="Helvetica,sans-Serif" font-size="12.00">JKQTPGeoArrow</text>
</a>
</g>
</g>
<!-- Node5&#45;&gt;Node6 -->
<g id="edge5_Node000005_Node000006" class="edge">
<title>Node5&#45;&gt;Node6</title>
<g id="a_edge5_Node000005_Node000006"><a xlink:title=" ">
<path fill="none" stroke="#63b8ff" d="M842.17,-102C866.09,-102 893.47,-102 916.86,-102"/>
<polygon fill="#63b8ff" stroke="#63b8ff" points="842.16,-98.5 832.16,-102 842.16,-105.5 842.16,-98.5"/>
</a>
</g>
</g>
<!-- Node9 -->
<g id="Node000009" class="node">
<title>Node9</title>
<g id="a_Node000009"><a xlink:href="class_j_k_q_t_p_parametrized_vector_field_graph.html" target="_top" xlink:title="This graph plots a vector field, i.e. a set of vectors (dx,dy) or (angle,length) at positions (x,...">
<polygon fill="white" stroke="#666666" points="881,-34 682,-34 682,0 881,0 881,-34"/>
<text text-anchor="start" x="690" y="-20.4" font-family="Helvetica,sans-Serif" font-size="12.00">JKQTPParametrizedVectorField</text>
<text text-anchor="middle" x="781.5" y="-7.4" font-family="Helvetica,sans-Serif" font-size="12.00">Graph</text>
</a>
</g>
</g>
<!-- Node8&#45;&gt;Node9 -->
<g id="edge8_Node000008_Node000009" class="edge">
<title>Node8&#45;&gt;Node9</title>
<g id="a_edge8_Node000008_Node000009"><a xlink:title=" ">
<path fill="none" stroke="#63b8ff" d="M636.83,-31.34C651.55,-29.87 666.94,-28.33 681.94,-26.83"/>
<polygon fill="#63b8ff" stroke="#63b8ff" points="636.36,-27.87 626.75,-32.34 637.05,-34.83 636.36,-27.87"/>
</a>
</g>
</g>
</g>
</svg>
