<?xml version="1.0" encoding="UTF-8" standalone="no"?>
<!DOCTYPE svg PUBLIC "-//W3C//DTD SVG 1.1//EN"
 "http://www.w3.org/Graphics/SVG/1.1/DTD/svg11.dtd">
<!-- Generated by graphviz version 2.43.0 (0)
 -->
<!-- Title: JKQTPColorPaletteWithModifierStyleAndToolsMixin Pages: 1 -->
<svg width="339pt" height="283pt"
 viewBox="0.00 0.00 339.00 283.00" xmlns="http://www.w3.org/2000/svg" xmlns:xlink="http://www.w3.org/1999/xlink">
<g id="graph0" class="graph" transform="scale(1 1) rotate(0) translate(4 279)">
<title>JKQTPColorPaletteWithModifierStyleAndToolsMixin</title>
<!-- Node1 -->
<g id="Node000001" class="node">
<title>Node1</title>
<g id="a_Node000001"><a xlink:title="if a class is derived from this class, it may use color bars that have 2 axes (one &quot;data&quot;/color axis ...">
<polygon fill="#999999" stroke="#666666" points="264.5,-205 64.5,-205 64.5,-171 264.5,-171 264.5,-205"/>
<text text-anchor="start" x="72.5" y="-191.4" font-family="Helvetica,sans-Serif" font-size="12.00">JKQTPColorPaletteWithModifier</text>
<text text-anchor="middle" x="164.5" y="-178.4" font-family="Helvetica,sans-Serif" font-size="12.00">StyleAndToolsMixin</text>
</a>
</g>
</g>
<!-- Node3 -->
<g id="Node000003" class="node">
<title>Node3</title>
<g id="a_Node000003"><a xlink:href="class_j_k_q_t_p_math_image.html" target="_top" xlink:title="class to plot an image from an 2&#45;dimensional array of values">
<polygon fill="white" stroke="#666666" points="225,-135 104,-135 104,-114 225,-114 225,-135"/>
<text text-anchor="middle" x="164.5" y="-121.4" font-family="Helvetica,sans-Serif" font-size="12.00">JKQTPMathImage</text>
</a>
</g>
</g>
<!-- Node1&#45;&gt;Node3 -->
<g id="edge2_Node000001_Node000003" class="edge">
<title>Node1&#45;&gt;Node3</title>
<g id="a_edge2_Node000001_Node000003"><a xlink:title=" ">
<path fill="none" stroke="#63b8ff" d="M164.5,-160.6C164.5,-151.51 164.5,-141.9 164.5,-135.04"/>
<polygon fill="#63b8ff" stroke="#63b8ff" points="161,-160.84 164.5,-170.84 168,-160.84 161,-160.84"/>
</a>
</g>
</g>
<!-- Node2 -->
<g id="Node000002" class="node">
<title>Node2</title>
<g id="a_Node000002"><a xlink:href="class_j_k_q_t_p_color_palette_style_and_tools_mixin.html" target="_top" xlink:title="if a class is derived from this class, it may use color bars">
<polygon fill="white" stroke="#666666" points="253.5,-275 75.5,-275 75.5,-241 253.5,-241 253.5,-275"/>
<text text-anchor="start" x="83.5" y="-261.4" font-family="Helvetica,sans-Serif" font-size="12.00">JKQTPColorPaletteStyleAnd</text>
<text text-anchor="middle" x="164.5" y="-248.4" font-family="Helvetica,sans-Serif" font-size="12.00">ToolsMixin</text>
</a>
</g>
</g>
<!-- Node2&#45;&gt;Node1 -->
<g id="edge1_Node000001_Node000002" class="edge">
<title>Node2&#45;&gt;Node1</title>
<g id="a_edge1_Node000001_Node000002"><a xlink:title=" ">
<path fill="none" stroke="#63b8ff" d="M164.5,-230.67C164.5,-222.19 164.5,-213.03 164.5,-205.47"/>
<polygon fill="#63b8ff" stroke="#63b8ff" points="161,-230.88 164.5,-240.88 168,-230.88 161,-230.88"/>
</a>
</g>
</g>
<!-- Node4 -->
<g id="Node000004" class="node">
<title>Node4</title>
<g id="a_Node000004"><a xlink:href="class_j_k_q_t_p_column_math_image.html" target="_top" xlink:title="class to plot an image from an 2&#45;dimensional array of values stored in a column of the datastore">
<polygon fill="white" stroke="#666666" points="167,-78 0,-78 0,-57 167,-57 167,-78"/>
<text text-anchor="middle" x="83.5" y="-64.4" font-family="Helvetica,sans-Serif" font-size="12.00">JKQTPColumnMathImage</text>
</a>
</g>
</g>
<!-- Node3&#45;&gt;Node4 -->
<g id="edge3_Node000003_Node000004" class="edge">
<title>Node3&#45;&gt;Node4</title>
<g id="a_edge3_Node000003_Node000004"><a xlink:title=" ">
<path fill="none" stroke="#63b8ff" d="M141.72,-108.03C127.59,-98.44 109.87,-86.41 97.72,-78.16"/>
<polygon fill="#63b8ff" stroke="#63b8ff" points="140.15,-111.2 150.39,-113.92 144.08,-105.41 140.15,-111.2"/>
</a>
</g>
</g>
<!-- Node5 -->
<g id="Node000005" class="node">
<title>Node5</title>
<g id="a_Node000005"><a xlink:href="class_j_k_q_t_p_contour_plot.html" target="_top" xlink:title="class for a contour plot">
<polygon fill="white" stroke="#666666" points="308,-78 185,-78 185,-57 308,-57 308,-78"/>
<text text-anchor="middle" x="246.5" y="-64.4" font-family="Helvetica,sans-Serif" font-size="12.00">JKQTPContourPlot</text>
</a>
</g>
</g>
<!-- Node3&#45;&gt;Node5 -->
<g id="edge4_Node000003_Node000005" class="edge">
<title>Node3&#45;&gt;Node5</title>
<g id="a_edge4_Node000003_Node000005"><a xlink:title=" ">
<path fill="none" stroke="#63b8ff" d="M187.16,-108.3C201.53,-98.67 219.68,-86.49 232.11,-78.16"/>
<polygon fill="#63b8ff" stroke="#63b8ff" points="185.14,-105.44 178.78,-113.92 189.04,-111.26 185.14,-105.44"/>
</a>
</g>
</g>
<!-- Node6 -->
<g id="Node000006" class="node">
<title>Node6</title>
<g id="a_Node000006"><a xlink:href="class_j_k_q_t_p_column_contour_plot.html" target="_top" xlink:title="class for a contour plots (same as JKQTPContourPlot) of images stored in a JKQTPDatastore column">
<polygon fill="white" stroke="#666666" points="331,-21 162,-21 162,0 331,0 331,-21"/>
<text text-anchor="middle" x="246.5" y="-7.4" font-family="Helvetica,sans-Serif" font-size="12.00">JKQTPColumnContourPlot</text>
</a>
</g>
</g>
<!-- Node5&#45;&gt;Node6 -->
<g id="edge5_Node000005_Node000006" class="edge">
<title>Node5&#45;&gt;Node6</title>
<g id="a_edge5_Node000005_Node000006"><a xlink:title=" ">
<path fill="none" stroke="#63b8ff" d="M246.5,-46.86C246.5,-38.2 246.5,-28.42 246.5,-21.34"/>
<polygon fill="#63b8ff" stroke="#63b8ff" points="243,-46.92 246.5,-56.92 250,-46.92 243,-46.92"/>
</a>
</g>
</g>
</g>
</svg>
