<?xml version="1.0" encoding="UTF-8" standalone="no"?>
<!DOCTYPE svg PUBLIC "-//W3C//DTD SVG 1.1//EN"
 "http://www.w3.org/Graphics/SVG/1.1/DTD/svg11.dtd">
<!-- Generated by graphviz version 2.43.0 (0)
 -->
<!-- Title: JKQTPMathParser::jkmpConstantNode Pages: 1 -->
<svg width="2110pt" height="474pt"
 viewBox="0.00 0.00 2110.00 474.20" xmlns="http://www.w3.org/2000/svg" xmlns:xlink="http://www.w3.org/1999/xlink">
<g id="graph0" class="graph" transform="scale(1 1) rotate(0) translate(4 470.2)">
<title>JKQTPMathParser::jkmpConstantNode</title>
<!-- Node1 -->
<g id="Node000001" class="node">
<title>Node1</title>
<g id="a_Node000001"><a xlink:title="This class represents a number, a string contant or a boolean contant (true / false )">
<polygon fill="#999999" stroke="#666666" points="2102,-55.7 1860,-55.7 1860,-34.7 2102,-34.7 2102,-55.7"/>
<text text-anchor="middle" x="1981" y="-42.1" font-family="Helvetica,sans-Serif" font-size="12.00">JKQTPMathParser::jkmpConstantNode</text>
</a>
</g>
</g>
<!-- Node2 -->
<g id="Node000002" class="node">
<title>Node2</title>
<g id="a_Node000002"><a xlink:href="class_j_k_q_t_p_math_parser_1_1jkmp_node.html" target="_top" xlink:title="This class is the abstract base class for nodes. All allowed node types must inherit from jkmpNode.">
<polygon fill="white" stroke="#666666" points="1823,-108.7 1635,-108.7 1635,-87.7 1823,-87.7 1823,-108.7"/>
<text text-anchor="middle" x="1729" y="-95.1" font-family="Helvetica,sans-Serif" font-size="12.00">JKQTPMathParser::jkmpNode</text>
</a>
</g>
</g>
<!-- Node2&#45;&gt;Node1 -->
<g id="edge1_Node000001_Node000002" class="edge">
<title>Node2&#45;&gt;Node1</title>
<g id="a_edge1_Node000001_Node000002"><a xlink:title=" ">
<path fill="none" stroke="#63b8ff" d="M1789.73,-85.53C1832.7,-76.42 1889.96,-64.28 1930.4,-55.71"/>
<polygon fill="#63b8ff" stroke="#63b8ff" points="1788.75,-82.16 1779.69,-87.66 1790.2,-89.01 1788.75,-82.16"/>
</a>
</g>
</g>
<!-- Node2&#45;&gt;Node2 -->
<g id="edge29_Node000002_Node000002" class="edge">
<title>Node2&#45;&gt;Node2</title>
<g id="a_edge29_Node000002_Node000002"><a xlink:title=" ">
<path fill="none" stroke="#9a32cd" stroke-dasharray="5,2" d="M1708.49,-118.63C1710.3,-123.28 1717.14,-126.7 1729,-126.7 1748.47,-126.7 1754.4,-117.51 1746.8,-108.72"/>
<polygon fill="#9a32cd" stroke="#9a32cd" points="1711.94,-119.29 1711.2,-108.72 1705.19,-117.44 1711.94,-119.29"/>
</a>
</g>
<text text-anchor="start" x="1709" y="-132.6" font-family="Helvetica,sans-Serif" font-size="12.00" fill="grey">parent</text>
</g>
<!-- Node3 -->
<g id="Node000003" class="node">
<title>Node3</title>
<g id="a_Node000003"><a xlink:href="class_j_k_q_t_p_math_parser.html" target="_top" xlink:title="A simple function parser to parse (build memory tree representation) and evaluate simple mathematical...">
<polygon fill="white" stroke="#666666" points="1553,-224.7 1432,-224.7 1432,-203.7 1553,-203.7 1553,-224.7"/>
<text text-anchor="middle" x="1492.5" y="-211.1" font-family="Helvetica,sans-Serif" font-size="12.00">JKQTPMathParser</text>
</a>
</g>
</g>
<!-- Node3&#45;&gt;Node2 -->
<g id="edge2_Node000002_Node000003" class="edge">
<title>Node3&#45;&gt;Node2</title>
<g id="a_edge2_Node000002_Node000003"><a xlink:title=" ">
<path fill="none" stroke="#9a32cd" stroke-dasharray="5,2" d="M1524.19,-199.02C1572.5,-175.12 1665.08,-129.32 1706.75,-108.71"/>
<polygon fill="#9a32cd" stroke="#9a32cd" points="1522.55,-195.92 1515.14,-203.49 1525.66,-202.19 1522.55,-195.92"/>
</a>
</g>
<text text-anchor="start" x="1574" y="-180.1" font-family="Helvetica,sans-Serif" font-size="12.00" fill="grey">parser</text>
</g>
<!-- Node4 -->
<g id="Node000004" class="node">
<title>Node4</title>
<g id="a_Node000004"><a xlink:title=" ">
<polygon fill="white" stroke="#666666" points="272.5,-142.7 196.5,-142.7 196.5,-121.7 272.5,-121.7 272.5,-142.7"/>
<text text-anchor="middle" x="234.5" y="-129.1" font-family="Helvetica,sans-Serif" font-size="12.00">std::string</text>
</a>
</g>
</g>
<!-- Node4&#45;&gt;Node3 -->
<g id="edge3_Node000003_Node000004" class="edge">
<title>Node4&#45;&gt;Node3</title>
<g id="a_edge3_Node000003_Node000004"><a xlink:title=" ">
<path fill="none" stroke="#9a32cd" stroke-dasharray="5,2" d="M247.72,-113.07C263.32,-90.44 292.6,-53.64 328,-36.2 344.22,-28.2 435.48,-14.82 632,-5.2 948.58,10.31 1041.44,-5.65 1335,-125.2 1389.71,-147.48 1448.94,-185.37 1476.19,-203.68"/>
<polygon fill="#9a32cd" stroke="#9a32cd" points="244.71,-111.27 242.06,-121.52 250.53,-115.15 244.71,-111.27"/>
</a>
</g>
<text text-anchor="start" x="842.5" y="-61.1" font-family="Helvetica,sans-Serif" font-size="12.00" fill="grey">StringValue</text>
<text text-anchor="start" x="842.5" y="-44.1" font-family="Helvetica,sans-Serif" font-size="12.00" fill="grey">jkmathparser_exception</text>
<text text-anchor="start" x="842.5" y="-27.1" font-family="Helvetica,sans-Serif" font-size="12.00" fill="grey">  _function</text>
</g>
<!-- Node12 -->
<g id="Node000012" class="node">
<title>Node12</title>
<g id="a_Node000012"><a xlink:href="struct_j_k_q_t_p_math_parser_1_1jkmp_temp_variable.html" target="_top" xlink:title="This struct is for managing temporary variables. It is generally like jkmpVariable.">
<polygon fill="white" stroke="#666666" points="605.5,-203.2 416.5,-203.2 416.5,-169.2 605.5,-169.2 605.5,-203.2"/>
<text text-anchor="start" x="424.5" y="-189.6" font-family="Helvetica,sans-Serif" font-size="12.00">JKQTPMathParser::jkmpTemp</text>
<text text-anchor="middle" x="511" y="-176.6" font-family="Helvetica,sans-Serif" font-size="12.00">Variable</text>
</a>
</g>
</g>
<!-- Node4&#45;&gt;Node12 -->
<g id="edge12_Node000012_Node000004" class="edge">
<title>Node4&#45;&gt;Node12</title>
<g id="a_edge12_Node000012_Node000004"><a xlink:title=" ">
<path fill="none" stroke="#9a32cd" stroke-dasharray="5,2" d="M282.44,-141.43C321.04,-149.02 376.79,-159.99 423.44,-169.17"/>
<polygon fill="#9a32cd" stroke="#9a32cd" points="283.01,-137.97 272.52,-139.48 281.66,-144.84 283.01,-137.97"/>
</a>
</g>
<text text-anchor="start" x="342" y="-186.6" font-family="Helvetica,sans-Serif" font-size="12.00" fill="grey">name</text>
<text text-anchor="start" x="342" y="-169.6" font-family="Helvetica,sans-Serif" font-size="12.00" fill="grey">str</text>
</g>
<!-- Node15 -->
<g id="Node000015" class="node">
<title>Node15</title>
<g id="a_Node000015"><a xlink:title=" ">
<polygon fill="white" stroke="#666666" points="1026,-296.2 803,-296.2 803,-262.2 1026,-262.2 1026,-296.2"/>
<text text-anchor="start" x="811" y="-282.6" font-family="Helvetica,sans-Serif" font-size="12.00">std::map&lt; std::string,</text>
<text text-anchor="middle" x="914.5" y="-269.6" font-family="Helvetica,sans-Serif" font-size="12.00"> JKQTPMathParser::jkmpVariable &gt;</text>
</a>
</g>
</g>
<!-- Node4&#45;&gt;Node15 -->
<g id="edge16_Node000015_Node000004" class="edge">
<title>Node4&#45;&gt;Node15</title>
<g id="a_edge16_Node000015_Node000004"><a xlink:title=" ">
<path fill="none" stroke="#9a32cd" stroke-dasharray="5,2" d="M252.56,-149.85C269.88,-166.58 298.31,-190.93 328,-203.2 370.84,-220.9 645.42,-251.52 802.9,-267.98"/>
<polygon fill="#9a32cd" stroke="#9a32cd" points="254.99,-147.33 245.42,-142.77 250.06,-152.3 254.99,-147.33"/>
</a>
</g>
<text text-anchor="start" x="497" y="-253.1" font-family="Helvetica,sans-Serif" font-size="12.00" fill="grey">keys</text>
</g>
<!-- Node16 -->
<g id="Node000016" class="node">
<title>Node16</title>
<g id="a_Node000016"><a xlink:href="struct_j_k_q_t_p_math_parser_1_1jkmp_variable.html" target="_top" xlink:title="This struct is for managing variables. Unlike jkmpResult this struct only contains pointers to the da...">
<polygon fill="white" stroke="#666666" points="614,-297.7 408,-297.7 408,-276.7 614,-276.7 614,-297.7"/>
<text text-anchor="middle" x="511" y="-284.1" font-family="Helvetica,sans-Serif" font-size="12.00">JKQTPMathParser::jkmpVariable</text>
</a>
</g>
</g>
<!-- Node4&#45;&gt;Node16 -->
<g id="edge18_Node000016_Node000004" class="edge">
<title>Node4&#45;&gt;Node16</title>
<g id="a_edge18_Node000016_Node000004"><a xlink:title=" ">
<path fill="none" stroke="#9a32cd" stroke-dasharray="5,2" d="M244.83,-152.12C258.81,-179.6 287.88,-228.52 328,-253.2 351.82,-267.85 380.47,-276.47 407.92,-281.46"/>
<polygon fill="#9a32cd" stroke="#9a32cd" points="247.93,-150.49 240.38,-143.06 241.65,-153.57 247.93,-150.49"/>
</a>
</g>
<text text-anchor="start" x="351" y="-284.1" font-family="Helvetica,sans-Serif" font-size="12.00" fill="grey">str</text>
</g>
<!-- Node19 -->
<g id="Node000019" class="node">
<title>Node19</title>
<g id="a_Node000019"><a xlink:title=" ">
<polygon fill="white" stroke="#666666" points="1335,-181.7 1124,-181.7 1124,-134.7 1335,-134.7 1335,-181.7"/>
<text text-anchor="start" x="1132" y="-168.1" font-family="Helvetica,sans-Serif" font-size="12.00">std::map&lt; std::string,</text>
<text text-anchor="start" x="1132" y="-155.1" font-family="Helvetica,sans-Serif" font-size="12.00"> JKQTPMathParser::jkmpFunction</text>
<text text-anchor="middle" x="1229.5" y="-142.1" font-family="Helvetica,sans-Serif" font-size="12.00">Descriptor &gt;</text>
</a>
</g>
</g>
<!-- Node4&#45;&gt;Node19 -->
<g id="edge23_Node000019_Node000004" class="edge">
<title>Node4&#45;&gt;Node19</title>
<g id="a_edge23_Node000019_Node000004"><a xlink:title=" ">
<path fill="none" stroke="#9a32cd" stroke-dasharray="5,2" d="M282.89,-126.68C405.95,-113.3 745.56,-82.41 1026,-113.2 1064.48,-117.42 1106.35,-126.03 1141.98,-134.6"/>
<polygon fill="#9a32cd" stroke="#9a32cd" points="282.25,-123.23 272.69,-127.8 283.01,-130.19 282.25,-123.23"/>
</a>
</g>
<text text-anchor="start" x="694.5" y="-108.1" font-family="Helvetica,sans-Serif" font-size="12.00" fill="grey">keys</text>
</g>
<!-- Node20 -->
<g id="Node000020" class="node">
<title>Node20</title>
<g id="a_Node000020"><a xlink:href="struct_j_k_q_t_p_math_parser_1_1jkmp_function_descriptor.html" target="_top" xlink:title="description of a user registered function">
<polygon fill="white" stroke="#666666" points="1018,-156.2 811,-156.2 811,-122.2 1018,-122.2 1018,-156.2"/>
<text text-anchor="start" x="819" y="-142.6" font-family="Helvetica,sans-Serif" font-size="12.00">JKQTPMathParser::jkmpFunction</text>
<text text-anchor="middle" x="914.5" y="-129.6" font-family="Helvetica,sans-Serif" font-size="12.00">Descriptor</text>
</a>
</g>
</g>
<!-- Node4&#45;&gt;Node20 -->
<g id="edge27_Node000020_Node000004" class="edge">
<title>Node4&#45;&gt;Node20</title>
<g id="a_edge27_Node000020_Node000004"><a xlink:title=" ">
<path fill="none" stroke="#9a32cd" stroke-dasharray="5,2" d="M282.95,-132.69C391.86,-133.81 661.85,-136.6 810.78,-138.14"/>
<polygon fill="#9a32cd" stroke="#9a32cd" points="282.95,-129.19 272.92,-132.58 282.88,-136.19 282.95,-129.19"/>
</a>
</g>
<text text-anchor="start" x="494" y="-142.1" font-family="Helvetica,sans-Serif" font-size="12.00" fill="grey">name</text>
</g>
<!-- Node21 -->
<g id="Node000021" class="node">
<title>Node21</title>
<g id="a_Node000021"><a xlink:href="struct_j_k_q_t_p_math_parser_1_1jkmp_result.html" target="_top" xlink:title="result of any expression">
<polygon fill="white" stroke="#666666" points="607.5,-57.7 414.5,-57.7 414.5,-36.7 607.5,-36.7 607.5,-57.7"/>
<text text-anchor="middle" x="511" y="-44.1" font-family="Helvetica,sans-Serif" font-size="12.00">JKQTPMathParser::jkmpResult</text>
</a>
</g>
</g>
<!-- Node4&#45;&gt;Node21 -->
<g id="edge26_Node000021_Node000004" class="edge">
<title>Node4&#45;&gt;Node21</title>
<g id="a_edge26_Node000021_Node000004"><a xlink:title=" ">
<path fill="none" stroke="#9a32cd" stroke-dasharray="5,2" d="M250.31,-113.69C266.91,-94.53 295.75,-65.7 328,-53.2 354.82,-42.8 385.57,-39.03 414.07,-38.5"/>
<polygon fill="#9a32cd" stroke="#9a32cd" points="247.53,-111.56 243.78,-121.47 252.89,-116.07 247.53,-111.56"/>
</a>
</g>
<text text-anchor="start" x="351" y="-59.1" font-family="Helvetica,sans-Serif" font-size="12.00" fill="grey">str</text>
</g>
<!-- Node5 -->
<g id="Node000005" class="node">
<title>Node5</title>
<g id="a_Node000005"><a xlink:title=" ">
<polygon fill="white" stroke="#666666" points="122,-149.2 0,-149.2 0,-115.2 122,-115.2 122,-149.2"/>
<text text-anchor="start" x="8" y="-135.6" font-family="Helvetica,sans-Serif" font-size="12.00">std::basic_string&lt;</text>
<text text-anchor="middle" x="61" y="-122.6" font-family="Helvetica,sans-Serif" font-size="12.00"> Char &gt;</text>
</a>
</g>
</g>
<!-- Node5&#45;&gt;Node4 -->
<g id="edge4_Node000004_Node000005" class="edge">
<title>Node5&#45;&gt;Node4</title>
<g id="a_edge4_Node000004_Node000005"><a xlink:title=" ">
<path fill="none" stroke="#63b8ff" d="M132.74,-132.2C154.63,-132.2 177.86,-132.2 196.5,-132.2"/>
<polygon fill="#63b8ff" stroke="#63b8ff" points="132.46,-128.7 122.46,-132.2 132.46,-135.7 132.46,-128.7"/>
</a>
</g>
</g>
<!-- Node6 -->
<g id="Node000006" class="node">
<title>Node6</title>
<g id="a_Node000006"><a xlink:title=" ">
<polygon fill="white" stroke="#666666" points="1290,-395.7 1169,-395.7 1169,-374.7 1290,-374.7 1290,-395.7"/>
<text text-anchor="middle" x="1229.5" y="-382.1" font-family="Helvetica,sans-Serif" font-size="12.00">std::istringstream</text>
</a>
</g>
</g>
<!-- Node6&#45;&gt;Node3 -->
<g id="edge5_Node000003_Node000006" class="edge">
<title>Node6&#45;&gt;Node3</title>
<g id="a_edge5_Node000003_Node000006"><a xlink:title=" ">
<path fill="none" stroke="#9a32cd" stroke-dasharray="5,2" d="M1268.22,-370.95C1306.86,-355.36 1367.67,-328.03 1414,-294.2 1442.58,-273.32 1469.9,-241.41 1483.16,-224.91"/>
<polygon fill="#9a32cd" stroke="#9a32cd" points="1266.89,-367.71 1258.89,-374.65 1269.48,-374.21 1266.89,-367.71"/>
</a>
</g>
<text text-anchor="start" x="1357.5" y="-336.1" font-family="Helvetica,sans-Serif" font-size="12.00" fill="grey">program</text>
</g>
<!-- Node7 -->
<g id="Node000007" class="node">
<title>Node7</title>
<g id="a_Node000007"><a xlink:title=" ">
<polygon fill="white" stroke="#666666" points="993.5,-459.2 835.5,-459.2 835.5,-425.2 993.5,-425.2 993.5,-459.2"/>
<text text-anchor="start" x="843.5" y="-445.6" font-family="Helvetica,sans-Serif" font-size="12.00">std::basic_istringstream</text>
<text text-anchor="middle" x="914.5" y="-432.6" font-family="Helvetica,sans-Serif" font-size="12.00">&lt; Char &gt;</text>
</a>
</g>
</g>
<!-- Node7&#45;&gt;Node6 -->
<g id="edge6_Node000006_Node000007" class="edge">
<title>Node7&#45;&gt;Node6</title>
<g id="a_edge6_Node000006_Node000007"><a xlink:title=" ">
<path fill="none" stroke="#63b8ff" d="M1003.82,-426.11C1057.2,-416.39 1123.72,-404.28 1170.48,-395.76"/>
<polygon fill="#63b8ff" stroke="#63b8ff" points="1002.89,-422.72 993.68,-427.96 1004.14,-429.61 1002.89,-422.72"/>
</a>
</g>
</g>
<!-- Node8 -->
<g id="Node000008" class="node">
<title>Node8</title>
<g id="a_Node000008"><a xlink:title=" ">
<polygon fill="white" stroke="#666666" points="573,-466.2 449,-466.2 449,-432.2 573,-432.2 573,-466.2"/>
<text text-anchor="start" x="457" y="-452.6" font-family="Helvetica,sans-Serif" font-size="12.00">std::basic_istream</text>
<text text-anchor="middle" x="511" y="-439.6" font-family="Helvetica,sans-Serif" font-size="12.00">&lt; Char &gt;</text>
</a>
</g>
</g>
<!-- Node8&#45;&gt;Node7 -->
<g id="edge7_Node000007_Node000008" class="edge">
<title>Node8&#45;&gt;Node7</title>
<g id="a_edge7_Node000007_Node000008"><a xlink:title=" ">
<path fill="none" stroke="#63b8ff" d="M583.57,-447.95C654.3,-446.71 762.21,-444.83 835.19,-443.56"/>
<polygon fill="#63b8ff" stroke="#63b8ff" points="583.35,-444.45 573.42,-448.12 583.48,-451.45 583.35,-444.45"/>
</a>
</g>
</g>
<!-- Node9 -->
<g id="Node000009" class="node">
<title>Node9</title>
<g id="a_Node000009"><a xlink:title=" ">
<polygon fill="white" stroke="#666666" points="310,-459.7 159,-459.7 159,-438.7 310,-438.7 310,-459.7"/>
<text text-anchor="middle" x="234.5" y="-446.1" font-family="Helvetica,sans-Serif" font-size="12.00">std::basic_ios&lt; Char &gt;</text>
</a>
</g>
</g>
<!-- Node9&#45;&gt;Node8 -->
<g id="edge8_Node000008_Node000009" class="edge">
<title>Node9&#45;&gt;Node8</title>
<g id="a_edge8_Node000008_Node000009"><a xlink:title=" ">
<path fill="none" stroke="#63b8ff" d="M320.26,-449.2C361.82,-449.2 410.94,-449.2 448.79,-449.2"/>
<polygon fill="#63b8ff" stroke="#63b8ff" points="320.15,-445.7 310.15,-449.2 320.15,-452.7 320.15,-445.7"/>
</a>
</g>
</g>
<!-- Node10 -->
<g id="Node000010" class="node">
<title>Node10</title>
<g id="a_Node000010"><a xlink:title=" ">
<polygon fill="white" stroke="#666666" points="107.5,-459.7 14.5,-459.7 14.5,-438.7 107.5,-438.7 107.5,-459.7"/>
<text text-anchor="middle" x="61" y="-446.1" font-family="Helvetica,sans-Serif" font-size="12.00">std::ios_base</text>
</a>
</g>
</g>
<!-- Node10&#45;&gt;Node9 -->
<g id="edge9_Node000009_Node000010" class="edge">
<title>Node10&#45;&gt;Node9</title>
<g id="a_edge9_Node000009_Node000010"><a xlink:title=" ">
<path fill="none" stroke="#63b8ff" d="M117.78,-449.2C130.91,-449.2 145.11,-449.2 158.91,-449.2"/>
<polygon fill="#63b8ff" stroke="#63b8ff" points="117.51,-445.7 107.51,-449.2 117.51,-452.7 117.51,-445.7"/>
</a>
</g>
</g>
<!-- Node11 -->
<g id="Node000011" class="node">
<title>Node11</title>
<g id="a_Node000011"><a xlink:title=" ">
<polygon fill="white" stroke="#666666" points="1013.5,-242.2 815.5,-242.2 815.5,-208.2 1013.5,-208.2 1013.5,-242.2"/>
<text text-anchor="start" x="823.5" y="-228.6" font-family="Helvetica,sans-Serif" font-size="12.00">std::vector&lt; JKQTPMathParser</text>
<text text-anchor="middle" x="914.5" y="-215.6" font-family="Helvetica,sans-Serif" font-size="12.00">::jkmpTempVariable &gt;</text>
</a>
</g>
</g>
<!-- Node11&#45;&gt;Node3 -->
<g id="edge10_Node000003_Node000011" class="edge">
<title>Node11&#45;&gt;Node3</title>
<g id="a_edge10_Node000003_Node000011"><a xlink:title=" ">
<path fill="none" stroke="#9a32cd" stroke-dasharray="5,2" d="M1023.55,-223.13C1144.31,-220.83 1335.49,-217.18 1431.83,-215.34"/>
<polygon fill="#9a32cd" stroke="#9a32cd" points="1023.47,-219.63 1013.54,-223.32 1023.6,-226.63 1023.47,-219.63"/>
</a>
</g>
<text text-anchor="start" x="1186.5" y="-227.1" font-family="Helvetica,sans-Serif" font-size="12.00" fill="grey">tempvariables</text>
</g>
<!-- Node12&#45;&gt;Node11 -->
<g id="edge11_Node000011_Node000012" class="edge">
<title>Node12&#45;&gt;Node11</title>
<g id="a_edge11_Node000011_Node000012"><a xlink:title=" ">
<path fill="none" stroke="#9a32cd" stroke-dasharray="5,2" d="M615.71,-191.99C666.77,-195.3 729.2,-200.04 785,-206.2 794.86,-207.28 805.13,-208.56 815.37,-209.93"/>
<polygon fill="#9a32cd" stroke="#9a32cd" points="615.86,-188.49 605.66,-191.35 615.41,-195.48 615.86,-188.49"/>
</a>
</g>
<text text-anchor="start" x="680.5" y="-212.1" font-family="Helvetica,sans-Serif" font-size="12.00" fill="grey">elements</text>
</g>
<!-- Node13 -->
<g id="Node000013" class="node">
<title>Node13</title>
<g id="a_Node000013"><a xlink:title=" ">
<polygon fill="white" stroke="#666666" points="568.5,-336.7 453.5,-336.7 453.5,-315.7 568.5,-315.7 568.5,-336.7"/>
<text text-anchor="middle" x="511" y="-323.1" font-family="Helvetica,sans-Serif" font-size="12.00">std::vector&lt; T &gt;</text>
</a>
</g>
</g>
<!-- Node13&#45;&gt;Node11 -->
<g id="edge13_Node000011_Node000013" class="edge">
<title>Node13&#45;&gt;Node11</title>
<g id="a_edge13_Node000011_Node000013"><a xlink:title=" ">
<path fill="none" stroke="orange" stroke-dasharray="5,2" d="M578.83,-319.51C656.95,-311.45 776.73,-298.24 785,-292.2 800.41,-280.93 788.32,-265.4 803,-253.2 808.1,-248.96 813.76,-245.35 819.74,-242.28"/>
<polygon fill="orange" stroke="orange" points="578.16,-316.06 568.57,-320.56 578.88,-323.02 578.16,-316.06"/>
</a>
</g>
<text text-anchor="start" x="642.5" y="-337.6" font-family="Helvetica,sans-Serif" font-size="12.00" fill="grey">&lt; JKQTPMathParser::</text>
<text text-anchor="start" x="642.5" y="-320.6" font-family="Helvetica,sans-Serif" font-size="12.00" fill="grey">  jkmpTempVariable &gt;</text>
</g>
<!-- Node14 -->
<g id="Node000014" class="node">
<title>Node14</title>
<g id="a_Node000014"><a xlink:title=" ">
<polygon fill="white" stroke="#666666" points="249,-357.7 220,-357.7 220,-336.7 249,-336.7 249,-357.7"/>
<text text-anchor="middle" x="234.5" y="-344.1" font-family="Helvetica,sans-Serif" font-size="12.00">T</text>
</a>
</g>
</g>
<!-- Node14&#45;&gt;Node13 -->
<g id="edge14_Node000013_Node000014" class="edge">
<title>Node14&#45;&gt;Node13</title>
<g id="a_edge14_Node000013_Node000014"><a xlink:title=" ">
<path fill="none" stroke="#9a32cd" stroke-dasharray="5,2" d="M259.06,-340.69C277.62,-335.9 304.24,-329.8 328,-327.2 369.77,-322.62 417.27,-322.52 453.26,-323.49"/>
<polygon fill="#9a32cd" stroke="#9a32cd" points="257.91,-337.37 249.14,-343.31 259.71,-344.13 257.91,-337.37"/>
</a>
</g>
<text text-anchor="start" x="331" y="-333.1" font-family="Helvetica,sans-Serif" font-size="12.00" fill="grey">elements</text>
</g>
<!-- Node17 -->
<g id="Node000017" class="node">
<title>Node17</title>
<g id="a_Node000017"><a xlink:title=" ">
<polygon fill="white" stroke="#666666" points="570.5,-398.7 451.5,-398.7 451.5,-377.7 570.5,-377.7 570.5,-398.7"/>
<text text-anchor="middle" x="511" y="-385.1" font-family="Helvetica,sans-Serif" font-size="12.00">std::map&lt; K, T &gt;</text>
</a>
</g>
</g>
<!-- Node14&#45;&gt;Node17 -->
<g id="edge21_Node000017_Node000014" class="edge">
<title>Node14&#45;&gt;Node17</title>
<g id="a_edge21_Node000017_Node000014"><a xlink:title=" ">
<path fill="none" stroke="#9a32cd" stroke-dasharray="5,2" d="M259.02,-350.71C301.31,-357.03 391.37,-370.48 451.31,-379.43"/>
<polygon fill="#9a32cd" stroke="#9a32cd" points="259.52,-347.24 249.11,-349.23 258.49,-354.17 259.52,-347.24"/>
</a>
</g>
<text text-anchor="start" x="331" y="-376.1" font-family="Helvetica,sans-Serif" font-size="12.00" fill="grey">elements</text>
</g>
<!-- Node15&#45;&gt;Node3 -->
<g id="edge15_Node000003_Node000015" class="edge">
<title>Node15&#45;&gt;Node3</title>
<g id="a_edge15_Node000003_Node000015"><a xlink:title=" ">
<path fill="none" stroke="#9a32cd" stroke-dasharray="5,2" d="M1036.24,-271.69C1120.21,-265.84 1234.64,-256.62 1335,-244.2 1370.31,-239.82 1379.05,-237.9 1414,-231.2 1424.15,-229.25 1435,-226.98 1445.27,-224.75"/>
<polygon fill="#9a32cd" stroke="#9a32cd" points="1035.89,-268.2 1026.15,-272.38 1036.37,-275.19 1035.89,-268.2"/>
</a>
</g>
<text text-anchor="start" x="1202.5" y="-271.1" font-family="Helvetica,sans-Serif" font-size="12.00" fill="grey">variables</text>
</g>
<!-- Node16&#45;&gt;Node15 -->
<g id="edge17_Node000015_Node000016" class="edge">
<title>Node16&#45;&gt;Node15</title>
<g id="a_edge17_Node000015_Node000016"><a xlink:title=" ">
<path fill="none" stroke="#9a32cd" stroke-dasharray="5,2" d="M600.94,-275.65C611.4,-274.64 621.92,-273.78 632,-273.2 688.24,-269.93 750.9,-270.82 802.79,-272.78"/>
<polygon fill="#9a32cd" stroke="#9a32cd" points="600.55,-272.17 590.96,-276.66 601.26,-279.14 600.55,-272.17"/>
</a>
</g>
<text text-anchor="start" x="680.5" y="-279.1" font-family="Helvetica,sans-Serif" font-size="12.00" fill="grey">elements</text>
</g>
<!-- Node17&#45;&gt;Node15 -->
<g id="edge19_Node000015_Node000017" class="edge">
<title>Node17&#45;&gt;Node15</title>
<g id="a_edge19_Node000015_Node000017"><a xlink:title=" ">
<path fill="none" stroke="orange" stroke-dasharray="5,2" d="M580.75,-379.84C658.54,-370.24 775.7,-355.29 785,-351.2 794.53,-347 794.32,-341.95 803,-336.2 826.03,-320.93 853.65,-306.68 875.52,-296.24"/>
<polygon fill="orange" stroke="orange" points="580.02,-376.4 570.53,-381.1 580.88,-383.35 580.02,-376.4"/>
</a>
</g>
<text text-anchor="start" x="635.5" y="-396.6" font-family="Helvetica,sans-Serif" font-size="12.00" fill="grey">&lt; std::string, JKQTPMath</text>
<text text-anchor="start" x="635.5" y="-379.6" font-family="Helvetica,sans-Serif" font-size="12.00" fill="grey">  Parser::jkmpVariable &gt;</text>
</g>
<!-- Node17&#45;&gt;Node19 -->
<g id="edge28_Node000019_Node000017" class="edge">
<title>Node17&#45;&gt;Node19</title>
<g id="a_edge28_Node000019_Node000017"><a xlink:title=" ">
<path fill="none" stroke="orange" stroke-dasharray="5,2" d="M546.11,-402.5C600.54,-422.91 708.65,-453.42 785,-410.2 798.53,-402.53 790.88,-389.94 803,-380.2 884.48,-314.66 936.12,-358.63 1026,-305.2 1077.09,-274.82 1075.63,-248.74 1124,-214.2 1140.83,-202.17 1160.56,-190.96 1178.3,-181.77"/>
<polygon fill="orange" stroke="orange" points="547.18,-399.16 536.59,-398.82 544.66,-405.69 547.18,-399.16"/>
</a>
</g>
<text text-anchor="start" x="810.5" y="-403.6" font-family="Helvetica,sans-Serif" font-size="12.00" fill="grey">&lt; std::string, JKQTPMath</text>
<text text-anchor="start" x="810.5" y="-386.6" font-family="Helvetica,sans-Serif" font-size="12.00" fill="grey">  Parser::jkmpFunctionDescriptor &gt;</text>
</g>
<!-- Node18 -->
<g id="Node000018" class="node">
<title>Node18</title>
<g id="a_Node000018"><a xlink:title=" ">
<polygon fill="white" stroke="#666666" points="249,-420.7 220,-420.7 220,-399.7 249,-399.7 249,-420.7"/>
<text text-anchor="middle" x="234.5" y="-407.1" font-family="Helvetica,sans-Serif" font-size="12.00">K</text>
</a>
</g>
</g>
<!-- Node18&#45;&gt;Node17 -->
<g id="edge20_Node000017_Node000018" class="edge">
<title>Node18&#45;&gt;Node17</title>
<g id="a_edge20_Node000017_Node000018"><a xlink:title=" ">
<path fill="none" stroke="#9a32cd" stroke-dasharray="5,2" d="M259.29,-408.29C301.7,-404.89 391.5,-397.69 451.31,-392.9"/>
<polygon fill="#9a32cd" stroke="#9a32cd" points="258.8,-404.82 249.11,-409.1 259.36,-411.79 258.8,-404.82"/>
</a>
</g>
<text text-anchor="start" x="345" y="-409.1" font-family="Helvetica,sans-Serif" font-size="12.00" fill="grey">keys</text>
</g>
<!-- Node19&#45;&gt;Node3 -->
<g id="edge22_Node000003_Node000019" class="edge">
<title>Node19&#45;&gt;Node3</title>
<g id="a_edge22_Node000003_Node000019"><a xlink:title=" ">
<path fill="none" stroke="#9a32cd" stroke-dasharray="5,2" d="M1345.25,-177.75C1368.11,-182.13 1391.88,-187.02 1414,-192.2 1428.16,-195.51 1443.61,-199.76 1456.96,-203.64"/>
<polygon fill="#9a32cd" stroke="#9a32cd" points="1345.65,-174.26 1335.17,-175.84 1344.35,-181.14 1345.65,-174.26"/>
</a>
</g>
<text text-anchor="start" x="1356.5" y="-198.1" font-family="Helvetica,sans-Serif" font-size="12.00" fill="grey">functions</text>
</g>
<!-- Node20&#45;&gt;Node19 -->
<g id="edge24_Node000019_Node000020" class="edge">
<title>Node20&#45;&gt;Node19</title>
<g id="a_edge24_Node000019_Node000020"><a xlink:title=" ">
<path fill="none" stroke="#9a32cd" stroke-dasharray="5,2" d="M1028.44,-146.05C1059.6,-147.94 1093.25,-149.99 1123.91,-151.85"/>
<polygon fill="#9a32cd" stroke="#9a32cd" points="1028.62,-142.56 1018.42,-145.44 1028.19,-149.54 1028.62,-142.56"/>
</a>
</g>
<text text-anchor="start" x="1047" y="-157.1" font-family="Helvetica,sans-Serif" font-size="12.00" fill="grey">elements</text>
</g>
<!-- Node21&#45;&gt;Node1 -->
<g id="edge30_Node000001_Node000021" class="edge">
<title>Node21&#45;&gt;Node1</title>
<g id="a_edge30_Node000001_Node000021"><a xlink:title=" ">
<path fill="none" stroke="#9a32cd" stroke-dasharray="5,2" d="M605.82,-35.64C614.66,-34.74 623.5,-33.9 632,-33.2 756.84,-22.82 788.23,-19.2 913.5,-19.2 913.5,-19.2 913.5,-19.2 1730,-19.2 1793.06,-19.2 1864.58,-27.48 1914.92,-34.7"/>
<polygon fill="#9a32cd" stroke="#9a32cd" points="605.43,-32.17 595.85,-36.69 606.16,-39.13 605.43,-32.17"/>
</a>
</g>
<text text-anchor="start" x="1369.5" y="-25.1" font-family="Helvetica,sans-Serif" font-size="12.00" fill="grey">data</text>
</g>
<!-- Node21&#45;&gt;Node20 -->
<g id="edge25_Node000020_Node000021" class="edge">
<title>Node21&#45;&gt;Node20</title>
<g id="a_edge25_Node000020_Node000021"><a xlink:title=" ">
<path fill="none" stroke="#9a32cd" stroke-dasharray="5,2" d="M611.68,-36.14C664.38,-33.57 729.47,-35.66 785,-53.2 829.03,-67.1 871.9,-101.14 895.3,-121.99"/>
<polygon fill="#9a32cd" stroke="#9a32cd" points="611.45,-32.65 601.66,-36.69 611.83,-39.64 611.45,-32.65"/>
</a>
</g>
<text text-anchor="start" x="684.5" y="-59.1" font-family="Helvetica,sans-Serif" font-size="12.00" fill="grey">function</text>
</g>
</g>
</svg>
