<?xml version="1.0" encoding="UTF-8" standalone="no"?>
<!DOCTYPE svg PUBLIC "-//W3C//DTD SVG 1.1//EN"
 "http://www.w3.org/Graphics/SVG/1.1/DTD/svg11.dtd">
<!-- Generated by graphviz version 2.43.0 (0)
 -->
<!-- Title: JKQTFastPlotter Pages: 1 -->
<svg width="223pt" height="102pt"
 viewBox="0.00 0.00 222.50 102.00" xmlns="http://www.w3.org/2000/svg" xmlns:xlink="http://www.w3.org/1999/xlink">
<g id="graph0" class="graph" transform="scale(1 1) rotate(0) translate(4 98)">
<title>JKQTFastPlotter</title>
<!-- Node1 -->
<g id="Node000001" class="node">
<title>Node1</title>
<g id="a_Node000001"><a xlink:title="a speed optimized plotter class">
<polygon fill="#999999" stroke="#666666" points="111.5,-28.5 2.5,-28.5 2.5,-7.5 111.5,-7.5 111.5,-28.5"/>
<text text-anchor="middle" x="57" y="-14.9" font-family="Helvetica,sans-Serif" font-size="12.00">JKQTFastPlotter</text>
</a>
</g>
</g>
<!-- Node1&#45;&gt;Node1 -->
<g id="edge2_Node000001_Node000001" class="edge">
<title>Node1&#45;&gt;Node1</title>
<g id="a_edge2_Node000001_Node000001"><a xlink:title=" ">
<path fill="none" stroke="#9a32cd" stroke-dasharray="5,2" d="M121.91,-22.98C126.62,-21.86 129.5,-20.2 129.5,-18 129.5,-14.48 122.12,-12.34 111.7,-11.57"/>
<polygon fill="#9a32cd" stroke="#9a32cd" points="121.11,-19.56 111.7,-24.43 122.09,-26.49 121.11,-19.56"/>
</a>
</g>
<text text-anchor="start" x="133" y="-23.4" font-family="Helvetica,sans-Serif" font-size="12.00" fill="grey">synchronizeX</text>
<text text-anchor="start" x="133" y="-6.4" font-family="Helvetica,sans-Serif" font-size="12.00" fill="grey">synchronizeY</text>
</g>
<!-- Node2 -->
<g id="Node000002" class="node">
<title>Node2</title>
<g id="a_Node000002"><a xlink:title=" ">
<polygon fill="white" stroke="#666666" points="114,-94 0,-94 0,-73 114,-73 114,-94"/>
<text text-anchor="middle" x="57" y="-80.4" font-family="Helvetica,sans-Serif" font-size="12.00">QOpenGLWidget</text>
</a>
</g>
</g>
<!-- Node2&#45;&gt;Node1 -->
<g id="edge1_Node000001_Node000002" class="edge">
<title>Node2&#45;&gt;Node1</title>
<g id="a_edge1_Node000001_Node000002"><a xlink:title=" ">
<path fill="none" stroke="#63b8ff" d="M57,-62.61C57,-51.33 57,-37.72 57,-28.74"/>
<polygon fill="#63b8ff" stroke="#63b8ff" points="53.5,-62.86 57,-72.86 60.5,-62.86 53.5,-62.86"/>
</a>
</g>
</g>
</g>
</svg>
