<?xml version="1.0" encoding="UTF-8" standalone="no"?>
<!DOCTYPE svg PUBLIC "-//W3C//DTD SVG 1.1//EN"
 "http://www.w3.org/Graphics/SVG/1.1/DTD/svg11.dtd">
<!-- Generated by graphviz version 2.43.0 (0)
 -->
<!-- Title: JKQTMathTextBoxInstructionNode Pages: 1 -->
<svg width="531pt" height="221pt"
 viewBox="0.00 0.00 531.00 221.00" xmlns="http://www.w3.org/2000/svg" xmlns:xlink="http://www.w3.org/1999/xlink">
<g id="graph0" class="graph" transform="scale(1 1) rotate(0) translate(4 217)">
<title>JKQTMathTextBoxInstructionNode</title>
<!-- Node1 -->
<g id="Node000001" class="node">
<title>Node1</title>
<g id="a_Node000001"><a xlink:title="subclass representing an instruction node which draws a (possibly colored) box around it&#39;s contents i...">
<polygon fill="#999999" stroke="#666666" points="216,-21 0,-21 0,0 216,0 216,-21"/>
<text text-anchor="middle" x="108" y="-7.4" font-family="Helvetica,sans-Serif" font-size="12.00">JKQTMathTextBoxInstructionNode</text>
</a>
</g>
</g>
<!-- Node2 -->
<g id="Node000002" class="node">
<title>Node2</title>
<g id="a_Node000002"><a xlink:href="class_j_k_q_t_math_text_instruction1_node.html" target="_top" xlink:title="subclass representing an instruction node with exactly one argument and possibly additional parameter...">
<polygon fill="white" stroke="#666666" points="209,-79 7,-79 7,-58 209,-58 209,-79"/>
<text text-anchor="middle" x="108" y="-65.4" font-family="Helvetica,sans-Serif" font-size="12.00">JKQTMathTextInstruction1Node</text>
</a>
</g>
</g>
<!-- Node2&#45;&gt;Node1 -->
<g id="edge1_Node000001_Node000002" class="edge">
<title>Node2&#45;&gt;Node1</title>
<g id="a_edge1_Node000001_Node000002"><a xlink:title=" ">
<path fill="none" stroke="#63b8ff" d="M108,-47.66C108,-38.66 108,-28.42 108,-21.14"/>
<polygon fill="#63b8ff" stroke="#63b8ff" points="104.5,-47.75 108,-57.75 111.5,-47.75 104.5,-47.75"/>
</a>
</g>
</g>
<!-- Node3 -->
<g id="Node000003" class="node">
<title>Node3</title>
<g id="a_Node000003"><a xlink:href="class_j_k_q_t_math_text_single_child_node.html" target="_top" xlink:title="subclass representing a node in the syntax tree, that has one child">
<polygon fill="white" stroke="#666666" points="206,-137 10,-137 10,-116 206,-116 206,-137"/>
<text text-anchor="middle" x="108" y="-123.4" font-family="Helvetica,sans-Serif" font-size="12.00">JKQTMathTextSingleChildNode</text>
</a>
</g>
</g>
<!-- Node3&#45;&gt;Node2 -->
<g id="edge2_Node000002_Node000003" class="edge">
<title>Node3&#45;&gt;Node2</title>
<g id="a_edge2_Node000002_Node000003"><a xlink:title=" ">
<path fill="none" stroke="#63b8ff" d="M108,-105.66C108,-96.66 108,-86.42 108,-79.14"/>
<polygon fill="#63b8ff" stroke="#63b8ff" points="104.5,-105.75 108,-115.75 111.5,-105.75 104.5,-105.75"/>
</a>
</g>
</g>
<!-- Node4 -->
<g id="Node000004" class="node">
<title>Node4</title>
<g id="a_Node000004"><a xlink:href="class_j_k_q_t_math_text_node.html" target="_top" xlink:title="subclass representing one node in the syntax tree">
<polygon fill="white" stroke="#666666" points="212.5,-213 81.5,-213 81.5,-192 212.5,-192 212.5,-213"/>
<text text-anchor="middle" x="147" y="-199.4" font-family="Helvetica,sans-Serif" font-size="12.00">JKQTMathTextNode</text>
</a>
</g>
</g>
<!-- Node4&#45;&gt;Node3 -->
<g id="edge3_Node000003_Node000004" class="edge">
<title>Node4&#45;&gt;Node3</title>
<g id="a_edge3_Node000003_Node000004"><a xlink:title=" ">
<path fill="none" stroke="#63b8ff" d="M110.61,-186.48C105.97,-183.06 101.86,-178.93 99,-174 92.32,-162.47 97.7,-146.92 102.55,-137.04"/>
<polygon fill="#63b8ff" stroke="#63b8ff" points="109.01,-189.61 119.35,-191.92 112.71,-183.67 109.01,-189.61"/>
</a>
</g>
</g>
<!-- Node4&#45;&gt;Node3 -->
<g id="edge9_Node000003_Node000004" class="edge">
<title>Node4&#45;&gt;Node3</title>
<g id="a_edge9_Node000003_Node000004"><a xlink:title=" ">
<path fill="none" stroke="#9a32cd" stroke-dasharray="5,2" d="M127.17,-184.9C124.07,-181.56 121.18,-177.87 119,-174 112.48,-162.44 109.81,-147.16 108.73,-137.34"/>
<polygon fill="#9a32cd" stroke="#9a32cd" points="124.89,-187.57 134.52,-192 129.76,-182.54 124.89,-187.57"/>
</a>
</g>
<text text-anchor="start" x="122" y="-160.9" font-family="Helvetica,sans-Serif" font-size="12.00" fill="grey">child</text>
</g>
<!-- Node4&#45;&gt;Node4 -->
<g id="edge8_Node000004_Node000004" class="edge">
<title>Node4&#45;&gt;Node4</title>
<g id="a_edge8_Node000004_Node000004"><a xlink:title=" ">
<path fill="none" stroke="#9a32cd" stroke-dasharray="5,2" d="M223.02,-207.46C227.69,-206.29 230.5,-204.63 230.5,-202.5 230.5,-199.09 223.31,-196.9 212.81,-195.94"/>
<polygon fill="#9a32cd" stroke="#9a32cd" points="222.15,-204.06 212.81,-209.06 223.23,-210.97 222.15,-204.06"/>
</a>
</g>
<text text-anchor="start" x="234" y="-198.9" font-family="Helvetica,sans-Serif" font-size="12.00" fill="grey">parentNode</text>
</g>
<!-- Node5 -->
<g id="Node000005" class="node">
<title>Node5</title>
<g id="a_Node000005"><a xlink:href="class_j_k_q_t_math_text.html" target="_top" xlink:title="this class parses a mathematical markup string and can then draw the contained text/equation onto a Q...">
<polygon fill="white" stroke="#666666" points="336.5,-137 237.5,-137 237.5,-116 336.5,-116 336.5,-137"/>
<text text-anchor="middle" x="287" y="-123.4" font-family="Helvetica,sans-Serif" font-size="12.00">JKQTMathText</text>
</a>
</g>
</g>
<!-- Node4&#45;&gt;Node5 -->
<g id="edge6_Node000005_Node000004" class="edge">
<title>Node4&#45;&gt;Node5</title>
<g id="a_edge6_Node000005_Node000004"><a xlink:title=" ">
<path fill="none" stroke="#9a32cd" stroke-dasharray="5,2" d="M153.1,-182.2C157.06,-172.69 163.15,-161.82 172,-155 182.41,-146.99 211.16,-140.11 237.31,-135.24"/>
<polygon fill="#9a32cd" stroke="#9a32cd" points="149.76,-181.15 149.63,-191.74 156.34,-183.54 149.76,-181.15"/>
</a>
</g>
<text text-anchor="start" x="175.5" y="-160.9" font-family="Helvetica,sans-Serif" font-size="12.00" fill="grey">parsedNode</text>
</g>
<!-- Node5&#45;&gt;Node4 -->
<g id="edge4_Node000004_Node000005" class="edge">
<title>Node5&#45;&gt;Node4</title>
<g id="a_edge4_Node000004_Node000005"><a xlink:title=" ">
<path fill="none" stroke="#9a32cd" stroke-dasharray="5,2" d="M278.27,-146.18C272.85,-155.83 265.01,-167.02 255,-174 242.46,-182.74 227.37,-188.7 212.51,-192.77"/>
<polygon fill="#9a32cd" stroke="#9a32cd" points="281.4,-147.74 282.86,-137.25 275.18,-144.54 281.4,-147.74"/>
</a>
</g>
<text text-anchor="start" x="276" y="-160.9" font-family="Helvetica,sans-Serif" font-size="12.00" fill="grey">parentMathText</text>
</g>
<!-- Node6 -->
<g id="Node000006" class="node">
<title>Node6</title>
<g id="a_Node000006"><a xlink:title=" ">
<polygon fill="white" stroke="#666666" points="424.5,-213 359.5,-213 359.5,-192 424.5,-192 424.5,-213"/>
<text text-anchor="middle" x="392" y="-199.4" font-family="Helvetica,sans-Serif" font-size="12.00">QObject</text>
</a>
</g>
</g>
<!-- Node6&#45;&gt;Node5 -->
<g id="edge5_Node000005_Node000006" class="edge">
<title>Node6&#45;&gt;Node5</title>
<g id="a_edge5_Node000005_Node000006"><a xlink:title=" ">
<path fill="none" stroke="#63b8ff" d="M390.37,-181.97C388.63,-172.7 385.11,-162.12 378,-155 366.92,-143.91 351.53,-137.26 336.56,-133.29"/>
<polygon fill="#63b8ff" stroke="#63b8ff" points="386.91,-182.52 391.69,-191.97 393.85,-181.6 386.91,-182.52"/>
</a>
</g>
</g>
<!-- Node7 -->
<g id="Node000007" class="node">
<title>Node7</title>
<g id="a_Node000007"><a xlink:title=" ">
<polygon fill="white" stroke="#666666" points="523,-213 443,-213 443,-192 523,-192 523,-213"/>
<text text-anchor="middle" x="483" y="-199.4" font-family="Helvetica,sans-Serif" font-size="12.00">std::mutex</text>
</a>
</g>
</g>
<!-- Node7&#45;&gt;Node5 -->
<g id="edge7_Node000005_Node000007" class="edge">
<title>Node7&#45;&gt;Node5</title>
<g id="a_edge7_Node000005_Node000007"><a xlink:title=" ">
<path fill="none" stroke="#9a32cd" stroke-dasharray="5,2" d="M459.39,-186.64C442.53,-176.55 419.03,-163.55 397,-155 377.64,-147.48 355.56,-141.49 336.28,-137.04"/>
<polygon fill="#9a32cd" stroke="#9a32cd" points="457.66,-189.68 468.02,-191.89 461.3,-183.7 457.66,-189.68"/>
</a>
</g>
<text text-anchor="start" x="438.5" y="-160.9" font-family="Helvetica,sans-Serif" font-size="12.00" fill="grey">s_mutex</text>
</g>
</g>
</svg>
