<?xml version="1.0" encoding="UTF-8" standalone="no"?>
<!DOCTYPE svg PUBLIC "-//W3C//DTD SVG 1.1//EN"
 "http://www.w3.org/Graphics/SVG/1.1/DTD/svg11.dtd">
<!-- Generated by graphviz version 2.43.0 (0)
 -->
<!-- Title: JKQTPXFunctionLineGraph Pages: 1 -->
<svg width="610pt" height="454pt"
 viewBox="0.00 0.00 610.00 454.00" xmlns="http://www.w3.org/2000/svg" xmlns:xlink="http://www.w3.org/1999/xlink">
<g id="graph0" class="graph" transform="scale(1 1) rotate(0) translate(4 450)">
<title>JKQTPXFunctionLineGraph</title>
<!-- Node1 -->
<g id="Node000001" class="node">
<title>Node1</title>
<g id="a_Node000001"><a xlink:title="This implements line plots where the data is taken from a user supplied function .">
<polygon fill="#999999" stroke="#666666" points="312.5,-21 139.5,-21 139.5,0 312.5,0 312.5,-21"/>
<text text-anchor="middle" x="226" y="-7.4" font-family="Helvetica,sans-Serif" font-size="12.00">JKQTPXFunctionLineGraph</text>
</a>
</g>
</g>
<!-- Node2 -->
<g id="Node000002" class="node">
<title>Node2</title>
<g id="a_Node000002"><a xlink:href="class_j_k_q_t_p_functor_line_graph_base.html" target="_top" xlink:title="extends JKQTPEvaluatedFunctionWithErrorsGraphDrawingBase with the capabilities to define functions fr...">
<polygon fill="white" stroke="#666666" points="320,-78 132,-78 132,-57 320,-57 320,-78"/>
<text text-anchor="middle" x="226" y="-64.4" font-family="Helvetica,sans-Serif" font-size="12.00">JKQTPFunctorLineGraphBase</text>
</a>
</g>
</g>
<!-- Node2&#45;&gt;Node1 -->
<g id="edge1_Node000001_Node000002" class="edge">
<title>Node2&#45;&gt;Node1</title>
<g id="a_edge1_Node000001_Node000002"><a xlink:title=" ">
<path fill="none" stroke="#63b8ff" d="M226,-46.86C226,-38.2 226,-28.42 226,-21.34"/>
<polygon fill="#63b8ff" stroke="#63b8ff" points="222.5,-46.92 226,-56.92 229.5,-46.92 222.5,-46.92"/>
</a>
</g>
</g>
<!-- Node3 -->
<g id="Node000003" class="node">
<title>Node3</title>
<g id="a_Node000003"><a xlink:href="class_j_k_q_t_p_evaluated_function_with_errors_graph_drawing_base.html" target="_top" xlink:title="This class extends JKQTPEvaluatedFunctionWithErrorsGraphBase with functions to draw the graphs and se...">
<polygon fill="white" stroke="#666666" points="320,-148 132,-148 132,-114 320,-114 320,-148"/>
<text text-anchor="start" x="140" y="-134.4" font-family="Helvetica,sans-Serif" font-size="12.00">JKQTPEvaluatedFunctionWith</text>
<text text-anchor="middle" x="226" y="-121.4" font-family="Helvetica,sans-Serif" font-size="12.00">ErrorsGraphDrawingBase</text>
</a>
</g>
</g>
<!-- Node3&#45;&gt;Node2 -->
<g id="edge2_Node000002_Node000003" class="edge">
<title>Node3&#45;&gt;Node2</title>
<g id="a_edge2_Node000002_Node000003"><a xlink:title=" ">
<path fill="none" stroke="#63b8ff" d="M226,-103.6C226,-94.51 226,-84.9 226,-78.04"/>
<polygon fill="#63b8ff" stroke="#63b8ff" points="222.5,-103.84 226,-113.84 229.5,-103.84 222.5,-103.84"/>
</a>
</g>
</g>
<!-- Node4 -->
<g id="Node000004" class="node">
<title>Node4</title>
<g id="a_Node000004"><a xlink:href="class_j_k_q_t_p_evaluated_function_with_errors_graph_base.html" target="_top" xlink:title="extends JKQTPEvaluatedFunctionGraphBase with some basic properties (e.g. function parameters) for a s...">
<polygon fill="white" stroke="#666666" points="213,-218 25,-218 25,-184 213,-184 213,-218"/>
<text text-anchor="start" x="33" y="-204.4" font-family="Helvetica,sans-Serif" font-size="12.00">JKQTPEvaluatedFunctionWith</text>
<text text-anchor="middle" x="119" y="-191.4" font-family="Helvetica,sans-Serif" font-size="12.00">ErrorsGraphBase</text>
</a>
</g>
</g>
<!-- Node4&#45;&gt;Node3 -->
<g id="edge3_Node000003_Node000004" class="edge">
<title>Node4&#45;&gt;Node3</title>
<g id="a_edge3_Node000003_Node000004"><a xlink:title=" ">
<path fill="none" stroke="#63b8ff" d="M153.07,-178.35C168.43,-168.59 186.27,-157.25 200.45,-148.24"/>
<polygon fill="#63b8ff" stroke="#63b8ff" points="150.92,-175.57 144.36,-183.88 154.67,-181.48 150.92,-175.57"/>
</a>
</g>
</g>
<!-- Node5 -->
<g id="Node000005" class="node">
<title>Node5</title>
<g id="a_Node000005"><a xlink:href="class_j_k_q_t_p_evaluated_function_graph_base.html" target="_top" xlink:title="Base class for graph classes that evaluate a mathematical function (e.g. defined as a C&#45;function),...">
<polygon fill="white" stroke="#666666" points="228,-275 0,-275 0,-254 228,-254 228,-275"/>
<text text-anchor="middle" x="114" y="-261.4" font-family="Helvetica,sans-Serif" font-size="12.00">JKQTPEvaluatedFunctionGraphBase</text>
</a>
</g>
</g>
<!-- Node5&#45;&gt;Node4 -->
<g id="edge4_Node000004_Node000005" class="edge">
<title>Node5&#45;&gt;Node4</title>
<g id="a_edge4_Node000004_Node000005"><a xlink:title=" ">
<path fill="none" stroke="#63b8ff" d="M115.6,-243.77C116.27,-235.61 117.03,-226.26 117.66,-218.48"/>
<polygon fill="#63b8ff" stroke="#63b8ff" points="112.1,-243.64 114.78,-253.89 119.08,-244.21 112.1,-243.64"/>
</a>
</g>
</g>
<!-- Node6 -->
<g id="Node000006" class="node">
<title>Node6</title>
<g id="a_Node000006"><a xlink:href="class_j_k_q_t_p_graph.html" target="_top" xlink:title="this virtual base class of the (data&#45;column based) graphs, which are part of a JKQTPlotter plot and w...">
<polygon fill="white" stroke="#666666" points="158.5,-332 69.5,-332 69.5,-311 158.5,-311 158.5,-332"/>
<text text-anchor="middle" x="114" y="-318.4" font-family="Helvetica,sans-Serif" font-size="12.00">JKQTPGraph</text>
</a>
</g>
</g>
<!-- Node6&#45;&gt;Node5 -->
<g id="edge5_Node000005_Node000006" class="edge">
<title>Node6&#45;&gt;Node5</title>
<g id="a_edge5_Node000005_Node000006"><a xlink:title=" ">
<path fill="none" stroke="#63b8ff" d="M114,-300.86C114,-292.2 114,-282.42 114,-275.34"/>
<polygon fill="#63b8ff" stroke="#63b8ff" points="110.5,-300.92 114,-310.92 117.5,-300.92 110.5,-300.92"/>
</a>
</g>
</g>
<!-- Node7 -->
<g id="Node000007" class="node">
<title>Node7</title>
<g id="a_Node000007"><a xlink:href="class_j_k_q_t_p_plot_element.html" target="_top" xlink:title="this virtual base class of every element, which is part of a JKQTPlotter plot and may appear in its k...">
<polygon fill="white" stroke="#666666" points="176.5,-389 51.5,-389 51.5,-368 176.5,-368 176.5,-389"/>
<text text-anchor="middle" x="114" y="-375.4" font-family="Helvetica,sans-Serif" font-size="12.00">JKQTPPlotElement</text>
</a>
</g>
</g>
<!-- Node7&#45;&gt;Node6 -->
<g id="edge6_Node000006_Node000007" class="edge">
<title>Node7&#45;&gt;Node6</title>
<g id="a_edge6_Node000006_Node000007"><a xlink:title=" ">
<path fill="none" stroke="#63b8ff" d="M114,-357.86C114,-349.2 114,-339.42 114,-332.34"/>
<polygon fill="#63b8ff" stroke="#63b8ff" points="110.5,-357.92 114,-367.92 117.5,-357.92 110.5,-357.92"/>
</a>
</g>
</g>
<!-- Node8 -->
<g id="Node000008" class="node">
<title>Node8</title>
<g id="a_Node000008"><a xlink:title=" ">
<polygon fill="white" stroke="#666666" points="146.5,-446 81.5,-446 81.5,-425 146.5,-425 146.5,-446"/>
<text text-anchor="middle" x="114" y="-432.4" font-family="Helvetica,sans-Serif" font-size="12.00">QObject</text>
</a>
</g>
</g>
<!-- Node8&#45;&gt;Node7 -->
<g id="edge7_Node000007_Node000008" class="edge">
<title>Node8&#45;&gt;Node7</title>
<g id="a_edge7_Node000007_Node000008"><a xlink:title=" ">
<path fill="none" stroke="#63b8ff" d="M114,-414.86C114,-406.2 114,-396.42 114,-389.34"/>
<polygon fill="#63b8ff" stroke="#63b8ff" points="110.5,-414.92 114,-424.92 117.5,-414.92 110.5,-414.92"/>
</a>
</g>
</g>
<!-- Node9 -->
<g id="Node000009" class="node">
<title>Node9</title>
<g id="a_Node000009"><a xlink:href="class_j_k_q_t_p_graph_line_and_fill_style_mixin.html" target="_top" xlink:title="This Mix&#45;In class provides setter/getter methods, storage and other facilities for the graph line and...">
<polygon fill="white" stroke="#666666" points="419,-218 237,-218 237,-184 419,-184 419,-218"/>
<text text-anchor="start" x="245" y="-204.4" font-family="Helvetica,sans-Serif" font-size="12.00">JKQTPGraphLineAndFillStyle</text>
<text text-anchor="middle" x="328" y="-191.4" font-family="Helvetica,sans-Serif" font-size="12.00">Mixin</text>
</a>
</g>
</g>
<!-- Node9&#45;&gt;Node3 -->
<g id="edge8_Node000003_Node000009" class="edge">
<title>Node9&#45;&gt;Node3</title>
<g id="a_edge8_Node000003_Node000009"><a xlink:title=" ">
<path fill="none" stroke="#63b8ff" d="M295.11,-178.07C280.56,-168.37 263.75,-157.17 250.35,-148.24"/>
<polygon fill="#63b8ff" stroke="#63b8ff" points="293.57,-181.25 303.83,-183.88 297.45,-175.43 293.57,-181.25"/>
</a>
</g>
</g>
<!-- Node10 -->
<g id="Node000010" class="node">
<title>Node10</title>
<g id="a_Node000010"><a xlink:href="class_j_k_q_t_p_graph_fill_style_mixin.html" target="_top" xlink:title="This Mix&#45;In class provides setter/getter methods, storage and other facilities for the graph filling ...">
<polygon fill="white" stroke="#666666" points="410,-275 246,-275 246,-254 410,-254 410,-275"/>
<text text-anchor="middle" x="328" y="-261.4" font-family="Helvetica,sans-Serif" font-size="12.00">JKQTPGraphFillStyleMixin</text>
</a>
</g>
</g>
<!-- Node10&#45;&gt;Node9 -->
<g id="edge9_Node000009_Node000010" class="edge">
<title>Node10&#45;&gt;Node9</title>
<g id="a_edge9_Node000009_Node000010"><a xlink:title=" ">
<path fill="none" stroke="#63b8ff" d="M328,-243.77C328,-235.61 328,-226.26 328,-218.48"/>
<polygon fill="#63b8ff" stroke="#63b8ff" points="324.5,-243.89 328,-253.89 331.5,-243.89 324.5,-243.89"/>
</a>
</g>
</g>
<!-- Node11 -->
<g id="Node000011" class="node">
<title>Node11</title>
<g id="a_Node000011"><a xlink:href="class_j_k_q_t_p_graph_line_style_mixin.html" target="_top" xlink:title="This Mix&#45;In class provides setter/getter methods, storage and other facilities for the graph line sty...">
<polygon fill="white" stroke="#666666" points="602,-275 428,-275 428,-254 602,-254 602,-275"/>
<text text-anchor="middle" x="515" y="-261.4" font-family="Helvetica,sans-Serif" font-size="12.00">JKQTPGraphLineStyleMixin</text>
</a>
</g>
</g>
<!-- Node11&#45;&gt;Node9 -->
<g id="edge10_Node000009_Node000011" class="edge">
<title>Node11&#45;&gt;Node9</title>
<g id="a_edge10_Node000009_Node000011"><a xlink:title=" ">
<path fill="none" stroke="#63b8ff" d="M476.08,-250.7C447.31,-241.24 407.93,-228.29 377.01,-218.12"/>
<polygon fill="#63b8ff" stroke="#63b8ff" points="475.19,-254.09 485.78,-253.89 477.38,-247.44 475.19,-254.09"/>
</a>
</g>
</g>
</g>
</svg>
