<?xml version="1.0" encoding="UTF-8" standalone="no"?>
<!DOCTYPE svg PUBLIC "-//W3C//DTD SVG 1.1//EN"
 "http://www.w3.org/Graphics/SVG/1.1/DTD/svg11.dtd">
<!-- Generated by graphviz version 2.43.0 (0)
 -->
<!-- Title: JKQTPXYScatterErrorGraph Pages: 1 -->
<svg width="988pt" height="185pt"
 viewBox="0.00 0.00 988.00 185.00" xmlns="http://www.w3.org/2000/svg" xmlns:xlink="http://www.w3.org/1999/xlink">
<g id="graph0" class="graph" transform="scale(1 1) rotate(0) translate(4 181)">
<title>JKQTPXYScatterErrorGraph</title>
<!-- Node1 -->
<g id="Node000001" class="node">
<title>Node1</title>
<g id="a_Node000001"><a xlink:title="This implements xy scatter plots with x and y error indicators.">
<polygon fill="#999999" stroke="#666666" points="980,-99 802,-99 802,-78 980,-78 980,-99"/>
<text text-anchor="middle" x="891" y="-85.4" font-family="Helvetica,sans-Serif" font-size="12.00">JKQTPXYScatterErrorGraph</text>
</a>
</g>
</g>
<!-- Node2 -->
<g id="Node000002" class="node">
<title>Node2</title>
<g id="a_Node000002"><a xlink:href="class_j_k_q_t_p_x_y_scatter_graph.html" target="_top" xlink:title="This implements xy scatter plots. This also alows to draw symbols at the data points.">
<polygon fill="white" stroke="#666666" points="766,-138 617,-138 617,-117 766,-117 766,-138"/>
<text text-anchor="middle" x="691.5" y="-124.4" font-family="Helvetica,sans-Serif" font-size="12.00">JKQTPXYScatterGraph</text>
</a>
</g>
</g>
<!-- Node2&#45;&gt;Node1 -->
<g id="edge1_Node000001_Node000002" class="edge">
<title>Node2&#45;&gt;Node1</title>
<g id="a_edge1_Node000001_Node000002"><a xlink:title=" ">
<path fill="none" stroke="#63b8ff" d="M755.5,-115.06C781.66,-109.89 811.68,-103.97 836.72,-99.02"/>
<polygon fill="#63b8ff" stroke="#63b8ff" points="754.82,-111.63 745.69,-117 756.17,-118.49 754.82,-111.63"/>
</a>
</g>
</g>
<!-- Node3 -->
<g id="Node000003" class="node">
<title>Node3</title>
<g id="a_Node000003"><a xlink:href="class_j_k_q_t_p_x_y_graph.html" target="_top" xlink:title="This virtual JKQTPGraph descendent may be used as base for all graphs that use at least two columns t...">
<polygon fill="white" stroke="#666666" points="536.5,-177 431.5,-177 431.5,-156 536.5,-156 536.5,-177"/>
<text text-anchor="middle" x="484" y="-163.4" font-family="Helvetica,sans-Serif" font-size="12.00">JKQTPXYGraph</text>
</a>
</g>
</g>
<!-- Node3&#45;&gt;Node2 -->
<g id="edge2_Node000002_Node000003" class="edge">
<title>Node3&#45;&gt;Node2</title>
<g id="a_edge2_Node000002_Node000003"><a xlink:title=" ">
<path fill="none" stroke="#63b8ff" d="M546.68,-154.79C574.72,-149.47 607.65,-143.22 634.92,-138.05"/>
<polygon fill="#63b8ff" stroke="#63b8ff" points="545.76,-151.41 536.59,-156.71 547.07,-158.28 545.76,-151.41"/>
</a>
</g>
</g>
<!-- Node4 -->
<g id="Node000004" class="node">
<title>Node4</title>
<g id="a_Node000004"><a xlink:href="class_j_k_q_t_p_graph.html" target="_top" xlink:title="this virtual base class of the (data&#45;column based) graphs, which are part of a JKQTPlotter plot and w...">
<polygon fill="white" stroke="#666666" points="351,-177 262,-177 262,-156 351,-156 351,-177"/>
<text text-anchor="middle" x="306.5" y="-163.4" font-family="Helvetica,sans-Serif" font-size="12.00">JKQTPGraph</text>
</a>
</g>
</g>
<!-- Node4&#45;&gt;Node3 -->
<g id="edge3_Node000003_Node000004" class="edge">
<title>Node4&#45;&gt;Node3</title>
<g id="a_edge3_Node000003_Node000004"><a xlink:title=" ">
<path fill="none" stroke="#63b8ff" d="M361.6,-166.5C383.79,-166.5 409.37,-166.5 431.31,-166.5"/>
<polygon fill="#63b8ff" stroke="#63b8ff" points="361.33,-163 351.33,-166.5 361.33,-170 361.33,-163"/>
</a>
</g>
</g>
<!-- Node5 -->
<g id="Node000005" class="node">
<title>Node5</title>
<g id="a_Node000005"><a xlink:href="class_j_k_q_t_p_plot_element.html" target="_top" xlink:title="this virtual base class of every element, which is part of a JKQTPlotter plot and may appear in its k...">
<polygon fill="white" stroke="#666666" points="226,-177 101,-177 101,-156 226,-156 226,-177"/>
<text text-anchor="middle" x="163.5" y="-163.4" font-family="Helvetica,sans-Serif" font-size="12.00">JKQTPPlotElement</text>
</a>
</g>
</g>
<!-- Node5&#45;&gt;Node4 -->
<g id="edge4_Node000004_Node000005" class="edge">
<title>Node5&#45;&gt;Node4</title>
<g id="a_edge4_Node000004_Node000005"><a xlink:title=" ">
<path fill="none" stroke="#63b8ff" d="M236.51,-166.5C245.18,-166.5 253.82,-166.5 261.91,-166.5"/>
<polygon fill="#63b8ff" stroke="#63b8ff" points="236.34,-163 226.34,-166.5 236.34,-170 236.34,-163"/>
</a>
</g>
</g>
<!-- Node6 -->
<g id="Node000006" class="node">
<title>Node6</title>
<g id="a_Node000006"><a xlink:title=" ">
<polygon fill="white" stroke="#666666" points="65,-177 0,-177 0,-156 65,-156 65,-177"/>
<text text-anchor="middle" x="32.5" y="-163.4" font-family="Helvetica,sans-Serif" font-size="12.00">QObject</text>
</a>
</g>
</g>
<!-- Node6&#45;&gt;Node5 -->
<g id="edge5_Node000005_Node000006" class="edge">
<title>Node6&#45;&gt;Node5</title>
<g id="a_edge5_Node000005_Node000006"><a xlink:title=" ">
<path fill="none" stroke="#63b8ff" d="M75.09,-166.5C83.29,-166.5 92.05,-166.5 100.75,-166.5"/>
<polygon fill="#63b8ff" stroke="#63b8ff" points="75.06,-163 65.06,-166.5 75.06,-170 75.06,-163"/>
</a>
</g>
</g>
<!-- Node7 -->
<g id="Node000007" class="node">
<title>Node7</title>
<g id="a_Node000007"><a xlink:href="class_j_k_q_t_p_graph_symbol_style_mixin.html" target="_top" xlink:title="This Mix&#45;In class provides setter/getter methods, storage and other facilities for the graph symbols ...">
<polygon fill="white" stroke="#666666" points="581,-138 387,-138 387,-117 581,-117 581,-138"/>
<text text-anchor="middle" x="484" y="-124.4" font-family="Helvetica,sans-Serif" font-size="12.00">JKQTPGraphSymbolStyleMixin</text>
</a>
</g>
</g>
<!-- Node7&#45;&gt;Node2 -->
<g id="edge6_Node000002_Node000007" class="edge">
<title>Node7&#45;&gt;Node2</title>
<g id="a_edge6_Node000002_Node000007"><a xlink:title=" ">
<path fill="none" stroke="#63b8ff" d="M591.28,-127.5C599.93,-127.5 608.54,-127.5 616.87,-127.5"/>
<polygon fill="#63b8ff" stroke="#63b8ff" points="591.13,-124 581.13,-127.5 591.13,-131 591.13,-124"/>
</a>
</g>
</g>
<!-- Node8 -->
<g id="Node000008" class="node">
<title>Node8</title>
<g id="a_Node000008"><a xlink:href="class_j_k_q_t_p_x_y_graph_errors.html" target="_top" xlink:title="This class is the base class for graphs that only display error indicators in x&#45; and y&#45;direction.">
<polygon fill="white" stroke="#666666" points="761.5,-80 621.5,-80 621.5,-59 761.5,-59 761.5,-80"/>
<text text-anchor="middle" x="691.5" y="-66.4" font-family="Helvetica,sans-Serif" font-size="12.00">JKQTPXYGraphErrors</text>
</a>
</g>
</g>
<!-- Node8&#45;&gt;Node1 -->
<g id="edge7_Node000001_Node000008" class="edge">
<title>Node8&#45;&gt;Node1</title>
<g id="a_edge7_Node000001_Node000008"><a xlink:title=" ">
<path fill="none" stroke="#63b8ff" d="M771.78,-77.13C781.67,-78.08 791.85,-79.06 801.87,-80.02"/>
<polygon fill="#63b8ff" stroke="#63b8ff" points="771.87,-73.62 761.58,-76.15 771.19,-80.59 771.87,-73.62"/>
</a>
</g>
</g>
<!-- Node9 -->
<g id="Node000009" class="node">
<title>Node9</title>
<g id="a_Node000009"><a xlink:href="class_j_k_q_t_p_x_graph_error_data.html" target="_top" xlink:title="This class adds data fields for error indicators in x direction.">
<polygon fill="white" stroke="#666666" points="561.5,-99 406.5,-99 406.5,-78 561.5,-78 561.5,-99"/>
<text text-anchor="middle" x="484" y="-85.4" font-family="Helvetica,sans-Serif" font-size="12.00">JKQTPXGraphErrorData</text>
</a>
</g>
</g>
<!-- Node9&#45;&gt;Node8 -->
<g id="edge8_Node000008_Node000009" class="edge">
<title>Node9&#45;&gt;Node8</title>
<g id="a_edge8_Node000008_Node000009"><a xlink:title=" ">
<path fill="none" stroke="#63b8ff" d="M571.75,-80.48C588.31,-78.95 605.45,-77.36 621.37,-75.89"/>
<polygon fill="#63b8ff" stroke="#63b8ff" points="571.16,-77.02 561.52,-81.43 571.8,-83.99 571.16,-77.02"/>
</a>
</g>
</g>
<!-- Node10 -->
<g id="Node000010" class="node">
<title>Node10</title>
<g id="a_Node000010"><a xlink:href="class_j_k_q_t_p_y_graph_error_data.html" target="_top" xlink:title="This class adds data fields for error indicators in y direction.">
<polygon fill="white" stroke="#666666" points="561,-60 407,-60 407,-39 561,-39 561,-60"/>
<text text-anchor="middle" x="484" y="-46.4" font-family="Helvetica,sans-Serif" font-size="12.00">JKQTPYGraphErrorData</text>
</a>
</g>
</g>
<!-- Node10&#45;&gt;Node8 -->
<g id="edge9_Node000008_Node000010" class="edge">
<title>Node10&#45;&gt;Node8</title>
<g id="a_edge9_Node000008_Node000010"><a xlink:title=" ">
<path fill="none" stroke="#63b8ff" d="M571.47,-57.92C588.05,-59.53 605.22,-61.2 621.18,-62.75"/>
<polygon fill="#63b8ff" stroke="#63b8ff" points="571.52,-54.4 561.23,-56.92 570.84,-61.37 571.52,-54.4"/>
</a>
</g>
</g>
<!-- Node11 -->
<g id="Node000011" class="node">
<title>Node11</title>
<g id="a_Node000011"><a xlink:href="class_j_k_q_t_p_graph_error_style_mixin.html" target="_top" xlink:title="This mix&#45;in class assembles all styling properties applicable to error indicators.">
<polygon fill="white" stroke="#666666" points="573.5,-21 394.5,-21 394.5,0 573.5,0 573.5,-21"/>
<text text-anchor="middle" x="484" y="-7.4" font-family="Helvetica,sans-Serif" font-size="12.00">JKQTPGraphErrorStyleMixin</text>
</a>
</g>
</g>
<!-- Node11&#45;&gt;Node8 -->
<g id="edge10_Node000008_Node000011" class="edge">
<title>Node11&#45;&gt;Node8</title>
<g id="a_edge10_Node000008_Node000011"><a xlink:title=" ">
<path fill="none" stroke="#63b8ff" d="M555.76,-23.21C564.31,-25.13 572.89,-27.23 581,-29.5 610.43,-37.73 643.24,-50.17 665.2,-58.99"/>
<polygon fill="#63b8ff" stroke="#63b8ff" points="556.28,-19.74 545.77,-21.05 554.8,-26.58 556.28,-19.74"/>
</a>
</g>
</g>
</g>
</svg>
