<?xml version="1.0" encoding="UTF-8" standalone="no"?>
<!DOCTYPE svg PUBLIC "-//W3C//DTD SVG 1.1//EN"
 "http://www.w3.org/Graphics/SVG/1.1/DTD/svg11.dtd">
<!-- Generated by graphviz version 2.43.0 (0)
 -->
<!-- Title: JKQTPPeakStreamGraph Pages: 1 -->
<svg width="372pt" height="257pt"
 viewBox="0.00 0.00 371.50 257.00" xmlns="http://www.w3.org/2000/svg" xmlns:xlink="http://www.w3.org/1999/xlink">

<svg id="main" version="1.1" xmlns="http://www.w3.org/2000/svg" xmlns:xlink="http://www.w3.org/1999/xlink" xml:space="preserve">

<style type="text/css"><![CDATA[
.node, .edge {opacity: 0.7;}
.node.selected, .edge.selected {opacity: 1;}
.edge:hover path { stroke: red; }
.edge:hover polygon { stroke: red; fill: red; }
]]></style>
<script type="application/ecmascript" xlink:href="svg.min.js"/>
<svg id="graph" class="graph">
<g id="graph0" class="graph" transform="scale(1 1) rotate(0) translate(4 253)">
<title>JKQTPPeakStreamGraph</title>
<!-- Node1 -->
<g id="Node000001" class="node">
<title>Node1</title>
<g id="a_Node000001"><a xlink:title="interprets data as a stream of x&#45; or y&#45;positions &#160;(depending in yPeaks ) ans plots a line on the heig...">
<polygon fill="#999999" stroke="#666666" points="261,-21 100,-21 100,0 261,0 261,-21"/>
<text text-anchor="middle" x="180.5" y="-7.4" font-family="Helvetica,sans-Serif" font-size="12.00">JKQTPPeakStreamGraph</text>
</a>
</g>
</g>
<!-- Node2 -->
<g id="Node000002" class="node">
<title>Node2</title>
<g id="a_Node000002"><a xlink:href="class_j_k_q_t_p_single_column_graph.html" target="_top" xlink:title="This virtual JKQTPGraph descendent may be used as base for all graphs that use at least one column of...">
<polygon fill="white" stroke="#666666" points="171,-78 0,-78 0,-57 171,-57 171,-78"/>
<text text-anchor="middle" x="85.5" y="-64.4" font-family="Helvetica,sans-Serif" font-size="12.00">JKQTPSingleColumnGraph</text>
</a>
</g>
</g>
<!-- Node2&#45;&gt;Node1 -->
<g id="edge1_Node000001_Node000002" class="edge">
<title>Node2&#45;&gt;Node1</title>
<g id="a_edge1_Node000001_Node000002"><a xlink:title=" ">
<path fill="none" stroke="#63b8ff" d="M110.81,-51.85C127.6,-42.13 149.16,-29.64 163.82,-21.16"/>
<polygon fill="#63b8ff" stroke="#63b8ff" points="108.95,-48.88 102.05,-56.92 112.46,-54.94 108.95,-48.88"/>
</a>
</g>
</g>
<!-- Node3 -->
<g id="Node000003" class="node">
<title>Node3</title>
<g id="a_Node000003"><a xlink:href="class_j_k_q_t_p_graph.html" target="_top" xlink:title="this virtual base class of the (data&#45;column based) graphs, which are part of a JKQTPlotter plot and w...">
<polygon fill="white" stroke="#666666" points="130,-135 41,-135 41,-114 130,-114 130,-135"/>
<text text-anchor="middle" x="85.5" y="-121.4" font-family="Helvetica,sans-Serif" font-size="12.00">JKQTPGraph</text>
</a>
</g>
</g>
<!-- Node3&#45;&gt;Node2 -->
<g id="edge2_Node000002_Node000003" class="edge">
<title>Node3&#45;&gt;Node2</title>
<g id="a_edge2_Node000002_Node000003"><a xlink:title=" ">
<path fill="none" stroke="#63b8ff" d="M85.5,-103.86C85.5,-95.2 85.5,-85.42 85.5,-78.34"/>
<polygon fill="#63b8ff" stroke="#63b8ff" points="82,-103.92 85.5,-113.92 89,-103.92 82,-103.92"/>
</a>
</g>
</g>
<!-- Node4 -->
<g id="Node000004" class="node">
<title>Node4</title>
<g id="a_Node000004"><a xlink:href="class_j_k_q_t_p_plot_element.html" target="_top" xlink:title="this virtual base class of every element, which is part of a JKQTPlotter plot and may appear in its k...">
<polygon fill="white" stroke="#666666" points="148,-192 23,-192 23,-171 148,-171 148,-192"/>
<text text-anchor="middle" x="85.5" y="-178.4" font-family="Helvetica,sans-Serif" font-size="12.00">JKQTPPlotElement</text>
</a>
</g>
</g>
<!-- Node4&#45;&gt;Node3 -->
<g id="edge3_Node000003_Node000004" class="edge">
<title>Node4&#45;&gt;Node3</title>
<g id="a_edge3_Node000003_Node000004"><a xlink:title=" ">
<path fill="none" stroke="#63b8ff" d="M85.5,-160.86C85.5,-152.2 85.5,-142.42 85.5,-135.34"/>
<polygon fill="#63b8ff" stroke="#63b8ff" points="82,-160.92 85.5,-170.92 89,-160.92 82,-160.92"/>
</a>
</g>
</g>
<!-- Node5 -->
<g id="Node000005" class="node">
<title>Node5</title>
<g id="a_Node000005"><a xlink:title=" ">
<polygon fill="white" stroke="#666666" points="118,-249 53,-249 53,-228 118,-228 118,-249"/>
<text text-anchor="middle" x="85.5" y="-235.4" font-family="Helvetica,sans-Serif" font-size="12.00">QObject</text>
</a>
</g>
</g>
<!-- Node5&#45;&gt;Node4 -->
<g id="edge4_Node000004_Node000005" class="edge">
<title>Node5&#45;&gt;Node4</title>
<g id="a_edge4_Node000004_Node000005"><a xlink:title=" ">
<path fill="none" stroke="#63b8ff" d="M85.5,-217.86C85.5,-209.2 85.5,-199.42 85.5,-192.34"/>
<polygon fill="#63b8ff" stroke="#63b8ff" points="82,-217.92 85.5,-227.92 89,-217.92 82,-217.92"/>
</a>
</g>
</g>
<!-- Node6 -->
<g id="Node000006" class="node">
<title>Node6</title>
<g id="a_Node000006"><a xlink:href="class_j_k_q_t_p_graph_line_style_mixin.html" target="_top" xlink:title="This Mix&#45;In class provides setter/getter methods, storage and other facilities for the graph line sty...">
<polygon fill="white" stroke="#666666" points="363.5,-78 189.5,-78 189.5,-57 363.5,-57 363.5,-78"/>
<text text-anchor="middle" x="276.5" y="-64.4" font-family="Helvetica,sans-Serif" font-size="12.00">JKQTPGraphLineStyleMixin</text>
</a>
</g>
</g>
<!-- Node6&#45;&gt;Node1 -->
<g id="edge5_Node000001_Node000006" class="edge">
<title>Node6&#45;&gt;Node1</title>
<g id="a_edge5_Node000001_Node000006"><a xlink:title=" ">
<path fill="none" stroke="#63b8ff" d="M250.92,-51.85C233.96,-42.13 212.17,-29.64 197.35,-21.16"/>
<polygon fill="#63b8ff" stroke="#63b8ff" points="249.36,-54.99 259.78,-56.92 252.84,-48.91 249.36,-54.99"/>
</a>
</g>
</g>
</g>
</svg>
</svg>

<style type='text/css'>
<![CDATA[
[data-mouse-over-selected='false'] { opacity: 0.7; }
[data-mouse-over-selected='true']  { opacity: 1.0; }
]]>
</style>
<script type="application/ecmascript"><![CDATA[
document.addEventListener('DOMContentLoaded', (event) => {
  highlightEdges();
  highlightAdjacentNodes();
});
]]></script>
</svg>
