<?xml version="1.0" encoding="UTF-8" standalone="no"?>
<!DOCTYPE svg PUBLIC "-//W3C//DTD SVG 1.1//EN"
 "http://www.w3.org/Graphics/SVG/1.1/DTD/svg11.dtd">
<!-- Generated by graphviz version 2.43.0 (0)
 -->
<!-- Title: JKQTPParametrizedVectorFieldGraph Pages: 1 -->
<svg width="468pt" height="410pt"
 viewBox="0.00 0.00 467.50 410.00" xmlns="http://www.w3.org/2000/svg" xmlns:xlink="http://www.w3.org/1999/xlink">

<svg id="main" version="1.1" xmlns="http://www.w3.org/2000/svg" xmlns:xlink="http://www.w3.org/1999/xlink" xml:space="preserve">

<style type="text/css"><![CDATA[
.node, .edge {opacity: 0.7;}
.node.selected, .edge.selected {opacity: 1;}
.edge:hover path { stroke: red; }
.edge:hover polygon { stroke: red; fill: red; }
]]></style>
<script type="application/ecmascript" xlink:href="svg.min.js"/>
<svg id="graph" class="graph">
<g id="graph0" class="graph" transform="scale(1 1) rotate(0) translate(4 406)">
<title>JKQTPParametrizedVectorFieldGraph</title>
<!-- Node1 -->
<g id="Node000001" class="node">
<title>Node1</title>
<g id="a_Node000001"><a xlink:title="This graph plots a vector field, i.e. a set of vectors (dx,dy) or (angle,length) at positions (x,...">
<polygon fill="#999999" stroke="#666666" points="377,-34 178,-34 178,0 377,0 377,-34"/>
<text text-anchor="start" x="186" y="-20.4" font-family="Helvetica,sans-Serif" font-size="12.00">JKQTPParametrizedVectorField</text>
<text text-anchor="middle" x="277.5" y="-7.4" font-family="Helvetica,sans-Serif" font-size="12.00">Graph</text>
</a>
</g>
</g>
<!-- Node2 -->
<g id="Node000002" class="node">
<title>Node2</title>
<g id="a_Node000002"><a xlink:href="class_j_k_q_t_p_vector_field_graph.html" target="_top" xlink:title="This graph plots a vector field, i.e. a set of vectors (dx,dy) or (angle,length) at positions (x,...">
<polygon fill="white" stroke="#666666" points="263,-97.5 108,-97.5 108,-76.5 263,-76.5 263,-97.5"/>
<text text-anchor="middle" x="185.5" y="-83.9" font-family="Helvetica,sans-Serif" font-size="12.00">JKQTPVectorFieldGraph</text>
</a>
</g>
</g>
<!-- Node2&#45;&gt;Node1 -->
<g id="edge1_Node000001_Node000002" class="edge">
<title>Node2&#45;&gt;Node1</title>
<g id="a_edge1_Node000001_Node000002"><a xlink:title=" ">
<path fill="none" stroke="#63b8ff" d="M207.13,-70.01C221.81,-59.16 241.13,-44.88 255.82,-34.03"/>
<polygon fill="#63b8ff" stroke="#63b8ff" points="204.64,-67.5 198.68,-76.26 208.8,-73.13 204.64,-67.5"/>
</a>
</g>
</g>
<!-- Node3 -->
<g id="Node000003" class="node">
<title>Node3</title>
<g id="a_Node000003"><a xlink:href="class_j_k_q_t_p_x_y_and_vector_graph.html" target="_top" xlink:title="This virtual JKQTPGraph descendent extends JKQTPXYGraph with two additional columns that encode for a...">
<polygon fill="white" stroke="#666666" points="167,-167.5 0,-167.5 0,-146.5 167,-146.5 167,-167.5"/>
<text text-anchor="middle" x="83.5" y="-153.9" font-family="Helvetica,sans-Serif" font-size="12.00">JKQTPXYAndVectorGraph</text>
</a>
</g>
</g>
<!-- Node3&#45;&gt;Node2 -->
<g id="edge2_Node000002_Node000003" class="edge">
<title>Node3&#45;&gt;Node2</title>
<g id="a_edge2_Node000002_Node000003"><a xlink:title=" ">
<path fill="none" stroke="#63b8ff" d="M106.6,-140.6C126.46,-127.36 154.49,-108.67 171.24,-97.51"/>
<polygon fill="#63b8ff" stroke="#63b8ff" points="104.49,-137.8 98.11,-146.26 108.38,-143.62 104.49,-137.8"/>
</a>
</g>
</g>
<!-- Node4 -->
<g id="Node000004" class="node">
<title>Node4</title>
<g id="a_Node000004"><a xlink:href="class_j_k_q_t_p_x_y_graph.html" target="_top" xlink:title="This virtual JKQTPGraph descendent may be used as base for all graphs that use at least two columns t...">
<polygon fill="white" stroke="#666666" points="136,-231 31,-231 31,-210 136,-210 136,-231"/>
<text text-anchor="middle" x="83.5" y="-217.4" font-family="Helvetica,sans-Serif" font-size="12.00">JKQTPXYGraph</text>
</a>
</g>
</g>
<!-- Node4&#45;&gt;Node3 -->
<g id="edge3_Node000003_Node000004" class="edge">
<title>Node4&#45;&gt;Node3</title>
<g id="a_edge3_Node000003_Node000004"><a xlink:title=" ">
<path fill="none" stroke="#63b8ff" d="M83.5,-199.75C83.5,-189.05 83.5,-176.31 83.5,-167.74"/>
<polygon fill="#63b8ff" stroke="#63b8ff" points="80,-199.89 83.5,-209.89 87,-199.89 80,-199.89"/>
</a>
</g>
</g>
<!-- Node5 -->
<g id="Node000005" class="node">
<title>Node5</title>
<g id="a_Node000005"><a xlink:href="class_j_k_q_t_p_graph.html" target="_top" xlink:title="this virtual base class of the (data&#45;column based) graphs, which are part of a JKQTPlotter plot and w...">
<polygon fill="white" stroke="#666666" points="128,-288 39,-288 39,-267 128,-267 128,-288"/>
<text text-anchor="middle" x="83.5" y="-274.4" font-family="Helvetica,sans-Serif" font-size="12.00">JKQTPGraph</text>
</a>
</g>
</g>
<!-- Node5&#45;&gt;Node4 -->
<g id="edge4_Node000004_Node000005" class="edge">
<title>Node5&#45;&gt;Node4</title>
<g id="a_edge4_Node000004_Node000005"><a xlink:title=" ">
<path fill="none" stroke="#63b8ff" d="M83.5,-256.86C83.5,-248.2 83.5,-238.42 83.5,-231.34"/>
<polygon fill="#63b8ff" stroke="#63b8ff" points="80,-256.92 83.5,-266.92 87,-256.92 80,-256.92"/>
</a>
</g>
</g>
<!-- Node6 -->
<g id="Node000006" class="node">
<title>Node6</title>
<g id="a_Node000006"><a xlink:href="class_j_k_q_t_p_plot_element.html" target="_top" xlink:title="this virtual base class of every element, which is part of a JKQTPlotter plot and may appear in its k...">
<polygon fill="white" stroke="#666666" points="146,-345 21,-345 21,-324 146,-324 146,-345"/>
<text text-anchor="middle" x="83.5" y="-331.4" font-family="Helvetica,sans-Serif" font-size="12.00">JKQTPPlotElement</text>
</a>
</g>
</g>
<!-- Node6&#45;&gt;Node5 -->
<g id="edge5_Node000005_Node000006" class="edge">
<title>Node6&#45;&gt;Node5</title>
<g id="a_edge5_Node000005_Node000006"><a xlink:title=" ">
<path fill="none" stroke="#63b8ff" d="M83.5,-313.86C83.5,-305.2 83.5,-295.42 83.5,-288.34"/>
<polygon fill="#63b8ff" stroke="#63b8ff" points="80,-313.92 83.5,-323.92 87,-313.92 80,-313.92"/>
</a>
</g>
</g>
<!-- Node7 -->
<g id="Node000007" class="node">
<title>Node7</title>
<g id="a_Node000007"><a xlink:title=" ">
<polygon fill="white" stroke="#666666" points="116,-402 51,-402 51,-381 116,-381 116,-402"/>
<text text-anchor="middle" x="83.5" y="-388.4" font-family="Helvetica,sans-Serif" font-size="12.00">QObject</text>
</a>
</g>
</g>
<!-- Node7&#45;&gt;Node6 -->
<g id="edge6_Node000006_Node000007" class="edge">
<title>Node7&#45;&gt;Node6</title>
<g id="a_edge6_Node000006_Node000007"><a xlink:title=" ">
<path fill="none" stroke="#63b8ff" d="M83.5,-370.86C83.5,-362.2 83.5,-352.42 83.5,-345.34"/>
<polygon fill="#63b8ff" stroke="#63b8ff" points="80,-370.92 83.5,-380.92 87,-370.92 80,-370.92"/>
</a>
</g>
</g>
<!-- Node8 -->
<g id="Node000008" class="node">
<title>Node8</title>
<g id="a_Node000008"><a xlink:href="class_j_k_q_t_p_graph_decorated_line_style_mixin.html" target="_top" xlink:title="This Mix&#45;In class provides setter/getter methods, storage and other facilities for the graph line sty...">
<polygon fill="white" stroke="#666666" points="391.5,-174 185.5,-174 185.5,-140 391.5,-140 391.5,-174"/>
<text text-anchor="start" x="193.5" y="-160.4" font-family="Helvetica,sans-Serif" font-size="12.00">JKQTPGraphDecoratedLineStyle</text>
<text text-anchor="middle" x="288.5" y="-147.4" font-family="Helvetica,sans-Serif" font-size="12.00">Mixin</text>
</a>
</g>
</g>
<!-- Node8&#45;&gt;Node2 -->
<g id="edge7_Node000002_Node000008" class="edge">
<title>Node8&#45;&gt;Node2</title>
<g id="a_edge7_Node000002_Node000008"><a xlink:title=" ">
<path fill="none" stroke="#63b8ff" d="M255.57,-134.26C236.93,-121.96 214.56,-107.18 200.19,-97.7"/>
<polygon fill="#63b8ff" stroke="#63b8ff" points="253.82,-137.3 264.09,-139.88 257.67,-131.45 253.82,-137.3"/>
</a>
</g>
</g>
<!-- Node9 -->
<g id="Node000009" class="node">
<title>Node9</title>
<g id="a_Node000009"><a xlink:href="class_j_k_q_t_p_graph_line_style_mixin.html" target="_top" xlink:title="This Mix&#45;In class provides setter/getter methods, storage and other facilities for the graph line sty...">
<polygon fill="white" stroke="#666666" points="375.5,-231 201.5,-231 201.5,-210 375.5,-210 375.5,-231"/>
<text text-anchor="middle" x="288.5" y="-217.4" font-family="Helvetica,sans-Serif" font-size="12.00">JKQTPGraphLineStyleMixin</text>
</a>
</g>
</g>
<!-- Node9&#45;&gt;Node8 -->
<g id="edge8_Node000008_Node000009" class="edge">
<title>Node9&#45;&gt;Node8</title>
<g id="a_edge8_Node000008_Node000009"><a xlink:title=" ">
<path fill="none" stroke="#63b8ff" d="M288.5,-199.77C288.5,-191.61 288.5,-182.26 288.5,-174.48"/>
<polygon fill="#63b8ff" stroke="#63b8ff" points="285,-199.89 288.5,-209.89 292,-199.89 285,-199.89"/>
</a>
</g>
</g>
<!-- Node10 -->
<g id="Node000010" class="node">
<title>Node10</title>
<g id="a_Node000010"><a xlink:href="class_j_k_q_t_p_color_palette_style_and_tools_mixin.html" target="_top" xlink:title="if a class is derived from this class, it may use color bars">
<polygon fill="white" stroke="#666666" points="459.5,-104 281.5,-104 281.5,-70 459.5,-70 459.5,-104"/>
<text text-anchor="start" x="289.5" y="-90.4" font-family="Helvetica,sans-Serif" font-size="12.00">JKQTPColorPaletteStyleAnd</text>
<text text-anchor="middle" x="370.5" y="-77.4" font-family="Helvetica,sans-Serif" font-size="12.00">ToolsMixin</text>
</a>
</g>
</g>
<!-- Node10&#45;&gt;Node1 -->
<g id="edge9_Node000001_Node000010" class="edge">
<title>Node10&#45;&gt;Node1</title>
<g id="a_edge9_Node000001_Node000010"><a xlink:title=" ">
<path fill="none" stroke="#63b8ff" d="M340.14,-63.8C326.96,-54.16 311.8,-43.08 299.7,-34.24"/>
<polygon fill="#63b8ff" stroke="#63b8ff" points="338.32,-66.81 348.46,-69.88 342.45,-61.16 338.32,-66.81"/>
</a>
</g>
</g>
</g>
</svg>
</svg>

<style type='text/css'>
<![CDATA[
[data-mouse-over-selected='false'] { opacity: 0.7; }
[data-mouse-over-selected='true']  { opacity: 1.0; }
]]>
</style>
<script type="application/ecmascript"><![CDATA[
document.addEventListener('DOMContentLoaded', (event) => {
  highlightEdges();
  highlightAdjacentNodes();
});
]]></script>
</svg>
