<?xml version="1.0" encoding="UTF-8" standalone="no"?>
<!DOCTYPE svg PUBLIC "-//W3C//DTD SVG 1.1//EN"
 "http://www.w3.org/Graphics/SVG/1.1/DTD/svg11.dtd">
<!-- Generated by graphviz version 2.43.0 (0)
 -->
<!-- Title: JKQTPXYGraphLabels Pages: 1 -->
<svg width="858pt" height="146pt"
 viewBox="0.00 0.00 858.00 146.00" xmlns="http://www.w3.org/2000/svg" xmlns:xlink="http://www.w3.org/1999/xlink">
<g id="graph0" class="graph" transform="scale(1 1) rotate(0) translate(4 142)">
<title>JKQTPXYGraphLabels</title>
<!-- Node1 -->
<g id="Node000001" class="node">
<title>Node1</title>
<g id="a_Node000001"><a xlink:title="This graph plots a series of data labels. This can be used to add number&#45;labels to e....">
<polygon fill="#999999" stroke="#666666" points="850,-68 707,-68 707,-47 850,-47 850,-68"/>
<text text-anchor="middle" x="778.5" y="-54.4" font-family="Helvetica,sans-Serif" font-size="12.00">JKQTPXYGraphLabels</text>
</a>
</g>
</g>
<!-- Node2 -->
<g id="Node000002" class="node">
<title>Node2</title>
<g id="a_Node000002"><a xlink:href="class_j_k_q_t_p_x_y_graph.html" target="_top" xlink:title="This virtual JKQTPGraph descendent may be used as base for all graphs that use at least two columns t...">
<polygon fill="white" stroke="#666666" points="624,-130 519,-130 519,-109 624,-109 624,-130"/>
<text text-anchor="middle" x="571.5" y="-116.4" font-family="Helvetica,sans-Serif" font-size="12.00">JKQTPXYGraph</text>
</a>
</g>
</g>
<!-- Node2&#45;&gt;Node1 -->
<g id="edge1_Node000001_Node000002" class="edge">
<title>Node2&#45;&gt;Node1</title>
<g id="a_edge1_Node000001_Node000002"><a xlink:title=" ">
<path fill="none" stroke="#63b8ff" d="M616.97,-106.05C654.64,-94.66 707.89,-78.55 742.55,-68.07"/>
<polygon fill="#63b8ff" stroke="#63b8ff" points="615.83,-102.74 607.28,-108.98 617.86,-109.44 615.83,-102.74"/>
</a>
</g>
</g>
<!-- Node3 -->
<g id="Node000003" class="node">
<title>Node3</title>
<g id="a_Node000003"><a xlink:href="class_j_k_q_t_p_graph.html" target="_top" xlink:title="this virtual base class of the (data&#45;column based) graphs, which are part of a JKQTPlotter plot and w...">
<polygon fill="white" stroke="#666666" points="393.5,-138 304.5,-138 304.5,-117 393.5,-117 393.5,-138"/>
<text text-anchor="middle" x="349" y="-124.4" font-family="Helvetica,sans-Serif" font-size="12.00">JKQTPGraph</text>
</a>
</g>
</g>
<!-- Node3&#45;&gt;Node2 -->
<g id="edge2_Node000002_Node000003" class="edge">
<title>Node3&#45;&gt;Node2</title>
<g id="a_edge2_Node000002_Node000003"><a xlink:title=" ">
<path fill="none" stroke="#63b8ff" d="M403.62,-125.55C438.68,-124.28 484.24,-122.63 518.89,-121.37"/>
<polygon fill="#63b8ff" stroke="#63b8ff" points="403.43,-122.06 393.56,-125.92 403.68,-129.05 403.43,-122.06"/>
</a>
</g>
</g>
<!-- Node4 -->
<g id="Node000004" class="node">
<title>Node4</title>
<g id="a_Node000004"><a xlink:href="class_j_k_q_t_p_plot_element.html" target="_top" xlink:title="this virtual base class of every element, which is part of a JKQTPlotter plot and may appear in its k...">
<polygon fill="white" stroke="#666666" points="226,-138 101,-138 101,-117 226,-117 226,-138"/>
<text text-anchor="middle" x="163.5" y="-124.4" font-family="Helvetica,sans-Serif" font-size="12.00">JKQTPPlotElement</text>
</a>
</g>
</g>
<!-- Node4&#45;&gt;Node3 -->
<g id="edge3_Node000003_Node000004" class="edge">
<title>Node4&#45;&gt;Node3</title>
<g id="a_edge3_Node000003_Node000004"><a xlink:title=" ">
<path fill="none" stroke="#63b8ff" d="M236.17,-127.5C259.14,-127.5 283.88,-127.5 304.23,-127.5"/>
<polygon fill="#63b8ff" stroke="#63b8ff" points="236.11,-124 226.11,-127.5 236.11,-131 236.11,-124"/>
</a>
</g>
</g>
<!-- Node5 -->
<g id="Node000005" class="node">
<title>Node5</title>
<g id="a_Node000005"><a xlink:title=" ">
<polygon fill="white" stroke="#666666" points="65,-138 0,-138 0,-117 65,-117 65,-138"/>
<text text-anchor="middle" x="32.5" y="-124.4" font-family="Helvetica,sans-Serif" font-size="12.00">QObject</text>
</a>
</g>
</g>
<!-- Node5&#45;&gt;Node4 -->
<g id="edge4_Node000004_Node000005" class="edge">
<title>Node5&#45;&gt;Node4</title>
<g id="a_edge4_Node000004_Node000005"><a xlink:title=" ">
<path fill="none" stroke="#63b8ff" d="M75.09,-127.5C83.29,-127.5 92.05,-127.5 100.75,-127.5"/>
<polygon fill="#63b8ff" stroke="#63b8ff" points="75.06,-124 65.06,-127.5 75.06,-131 75.06,-124"/>
</a>
</g>
</g>
<!-- Node6 -->
<g id="Node000006" class="node">
<title>Node6</title>
<g id="a_Node000006"><a xlink:href="class_j_k_q_t_p_graph_value_label_style_mixin.html" target="_top" xlink:title="This Mix&#45;In class provides setter/getter methods, storage and other facilities for value labels in gr...">
<polygon fill="white" stroke="#666666" points="663.5,-74.5 479.5,-74.5 479.5,-40.5 663.5,-40.5 663.5,-74.5"/>
<text text-anchor="start" x="487.5" y="-60.9" font-family="Helvetica,sans-Serif" font-size="12.00">JKQTPGraphValueLabelStyle</text>
<text text-anchor="middle" x="571.5" y="-47.9" font-family="Helvetica,sans-Serif" font-size="12.00">Mixin</text>
</a>
</g>
</g>
<!-- Node6&#45;&gt;Node1 -->
<g id="edge5_Node000001_Node000006" class="edge">
<title>Node6&#45;&gt;Node1</title>
<g id="a_edge5_Node000001_Node000006"><a xlink:title=" ">
<path fill="none" stroke="#63b8ff" d="M673.87,-57.5C685.07,-57.5 696.28,-57.5 706.98,-57.5"/>
<polygon fill="#63b8ff" stroke="#63b8ff" points="673.61,-54 663.61,-57.5 673.61,-61 673.61,-54"/>
</a>
</g>
</g>
<!-- Node7 -->
<g id="Node000007" class="node">
<title>Node7</title>
<g id="a_Node000007"><a xlink:href="class_j_k_q_t_p_graph_text_style_mixin.html" target="_top" xlink:title="This Mix&#45;In class provides setter/getter methods, storage and other facilities for text in graphs.">
<polygon fill="white" stroke="#666666" points="435.5,-99 262.5,-99 262.5,-78 435.5,-78 435.5,-99"/>
<text text-anchor="middle" x="349" y="-85.4" font-family="Helvetica,sans-Serif" font-size="12.00">JKQTPGraphTextStyleMixin</text>
</a>
</g>
</g>
<!-- Node7&#45;&gt;Node6 -->
<g id="edge6_Node000006_Node000007" class="edge">
<title>Node7&#45;&gt;Node6</title>
<g id="a_edge6_Node000006_Node000007"><a xlink:title=" ">
<path fill="none" stroke="#63b8ff" d="M434.92,-76.56C449.46,-74.52 464.63,-72.38 479.33,-70.32"/>
<polygon fill="#63b8ff" stroke="#63b8ff" points="434.37,-73.1 424.96,-77.96 435.35,-80.04 434.37,-73.1"/>
</a>
</g>
</g>
<!-- Node8 -->
<g id="Node000008" class="node">
<title>Node8</title>
<g id="a_Node000008"><a xlink:href="class_j_k_q_t_p_graph_line_style_mixin.html" target="_top" xlink:title="This Mix&#45;In class provides setter/getter methods, storage and other facilities for the graph line sty...">
<polygon fill="white" stroke="#666666" points="436,-60 262,-60 262,-39 436,-39 436,-60"/>
<text text-anchor="middle" x="349" y="-46.4" font-family="Helvetica,sans-Serif" font-size="12.00">JKQTPGraphLineStyleMixin</text>
</a>
</g>
</g>
<!-- Node8&#45;&gt;Node6 -->
<g id="edge7_Node000006_Node000008" class="edge">
<title>Node8&#45;&gt;Node6</title>
<g id="a_edge7_Node000006_Node000008"><a xlink:title=" ">
<path fill="none" stroke="#63b8ff" d="M446.21,-52.99C457.19,-53.39 468.36,-53.79 479.27,-54.19"/>
<polygon fill="#63b8ff" stroke="#63b8ff" points="446.32,-49.49 436.2,-52.63 446.06,-56.49 446.32,-49.49"/>
</a>
</g>
</g>
<!-- Node9 -->
<g id="Node000009" class="node">
<title>Node9</title>
<g id="a_Node000009"><a xlink:href="class_j_k_q_t_p_graph_fill_style_mixin.html" target="_top" xlink:title="This Mix&#45;In class provides setter/getter methods, storage and other facilities for the graph filling ...">
<polygon fill="white" stroke="#666666" points="431,-21 267,-21 267,0 431,0 431,-21"/>
<text text-anchor="middle" x="349" y="-7.4" font-family="Helvetica,sans-Serif" font-size="12.00">JKQTPGraphFillStyleMixin</text>
</a>
</g>
</g>
<!-- Node9&#45;&gt;Node6 -->
<g id="edge8_Node000006_Node000009" class="edge">
<title>Node9&#45;&gt;Node6</title>
<g id="a_edge8_Node000006_Node000009"><a xlink:title=" ">
<path fill="none" stroke="#63b8ff" d="M409.51,-23.18C434.4,-28.49 463.71,-34.74 490.46,-40.44"/>
<polygon fill="#63b8ff" stroke="#63b8ff" points="409.99,-19.71 399.48,-21.05 408.54,-26.56 409.99,-19.71"/>
</a>
</g>
</g>
<!-- Node10 -->
<g id="Node000010" class="node">
<title>Node10</title>
<g id="a_Node000010"><a xlink:href="class_j_k_q_t_p_x_y_labels_generator_mixin.html" target="_top" xlink:title="This Mix&#45;In class provides setter/getter methods, and tools for x&#45; and y&#45;value label formatting (i....">
<polygon fill="white" stroke="#666666" points="671,-22 472,-22 472,-1 671,-1 671,-22"/>
<text text-anchor="middle" x="571.5" y="-8.4" font-family="Helvetica,sans-Serif" font-size="12.00">JKQTPXYLabelsGeneratorMixin</text>
</a>
</g>
</g>
<!-- Node10&#45;&gt;Node1 -->
<g id="edge9_Node000001_Node000010" class="edge">
<title>Node10&#45;&gt;Node1</title>
<g id="a_edge9_Node000001_Node000010"><a xlink:title=" ">
<path fill="none" stroke="#63b8ff" d="M636.3,-24.07C647.86,-26.46 659.8,-29 671,-31.5 692.55,-36.32 716.43,-42.11 736.12,-47"/>
<polygon fill="#63b8ff" stroke="#63b8ff" points="636.76,-20.6 626.26,-22.02 635.35,-27.45 636.76,-20.6"/>
</a>
</g>
</g>
</g>
</svg>
