<?xml version="1.0" encoding="UTF-8" standalone="no"?>
<!DOCTYPE svg PUBLIC "-//W3C//DTD SVG 1.1//EN"
 "http://www.w3.org/Graphics/SVG/1.1/DTD/svg11.dtd">
<!-- Generated by graphviz version 2.43.0 (0)
 -->
<!-- Title: JKQTMathTextVerbatimNode Pages: 1 -->
<svg width="482pt" height="163pt"
 viewBox="0.00 0.00 481.50 163.00" xmlns="http://www.w3.org/2000/svg" xmlns:xlink="http://www.w3.org/1999/xlink">

<svg id="main" version="1.1" xmlns="http://www.w3.org/2000/svg" xmlns:xlink="http://www.w3.org/1999/xlink" xml:space="preserve">

<style type="text/css"><![CDATA[
.node, .edge {opacity: 0.7;}
.node.selected, .edge.selected {opacity: 1;}
.edge:hover path { stroke: red; }
.edge:hover polygon { stroke: red; fill: red; }
]]></style>
<script type="application/ecmascript" xlink:href="svg.min.js"/>
<svg id="graph" class="graph">
<g id="graph0" class="graph" transform="scale(1 1) rotate(0) translate(4 159)">
<title>JKQTMathTextVerbatimNode</title>
<!-- Node1 -->
<g id="Node000001" class="node">
<title>Node1</title>
<g id="a_Node000001"><a xlink:title="subclass representing a verbatim (plain&#45;text) node with support for line&#45;breaks in the syntax tree">
<polygon fill="#999999" stroke="#666666" points="185,-21 0,-21 0,0 185,0 185,-21"/>
<text text-anchor="middle" x="92.5" y="-7.4" font-family="Helvetica,sans-Serif" font-size="12.00">JKQTMathTextVerbatimNode</text>
</a>
</g>
</g>
<!-- Node2 -->
<g id="Node000002" class="node">
<title>Node2</title>
<g id="a_Node000002"><a xlink:href="class_j_k_q_t_math_text_text_base_node.html" target="_top" xlink:title="base class for nodes representing text in the syntax tree">
<polygon fill="white" stroke="#666666" points="184.5,-79 0.5,-79 0.5,-58 184.5,-58 184.5,-79"/>
<text text-anchor="middle" x="92.5" y="-65.4" font-family="Helvetica,sans-Serif" font-size="12.00">JKQTMathTextTextBaseNode</text>
</a>
</g>
</g>
<!-- Node2&#45;&gt;Node1 -->
<g id="edge1_Node000001_Node000002" class="edge">
<title>Node2&#45;&gt;Node1</title>
<g id="a_edge1_Node000001_Node000002"><a xlink:title=" ">
<path fill="none" stroke="#63b8ff" d="M92.5,-47.66C92.5,-38.66 92.5,-28.42 92.5,-21.14"/>
<polygon fill="#63b8ff" stroke="#63b8ff" points="89,-47.75 92.5,-57.75 96,-47.75 89,-47.75"/>
</a>
</g>
</g>
<!-- Node3 -->
<g id="Node000003" class="node">
<title>Node3</title>
<g id="a_Node000003"><a xlink:href="class_j_k_q_t_math_text_node.html" target="_top" xlink:title="subclass representing one node in the syntax tree">
<polygon fill="white" stroke="#666666" points="191,-155 60,-155 60,-134 191,-134 191,-155"/>
<text text-anchor="middle" x="125.5" y="-141.4" font-family="Helvetica,sans-Serif" font-size="12.00">JKQTMathTextNode</text>
</a>
</g>
</g>
<!-- Node3&#45;&gt;Node2 -->
<g id="edge2_Node000002_Node000003" class="edge">
<title>Node3&#45;&gt;Node2</title>
<g id="a_edge2_Node000002_Node000003"><a xlink:title=" ">
<path fill="none" stroke="#63b8ff" d="M111.8,-125.34C109.86,-122.31 108.01,-119.14 106.5,-116 100.65,-103.84 96.64,-88.72 94.46,-79.08"/>
<polygon fill="#63b8ff" stroke="#63b8ff" points="109.08,-127.57 117.67,-133.78 114.83,-123.57 109.08,-127.57"/>
</a>
</g>
</g>
<!-- Node3&#45;&gt;Node3 -->
<g id="edge7_Node000003_Node000003" class="edge">
<title>Node3&#45;&gt;Node3</title>
<g id="a_edge7_Node000003_Node000003"><a xlink:title=" ">
<path fill="none" stroke="#9a32cd" stroke-dasharray="5,2" d="M201.52,-149.46C206.19,-148.29 209,-146.63 209,-144.5 209,-141.09 201.81,-138.9 191.31,-137.94"/>
<polygon fill="#9a32cd" stroke="#9a32cd" points="200.65,-146.06 191.31,-151.06 201.73,-152.97 200.65,-146.06"/>
</a>
</g>
<text text-anchor="start" x="212.5" y="-140.9" font-family="Helvetica,sans-Serif" font-size="12.00" fill="grey">parentNode</text>
</g>
<!-- Node4 -->
<g id="Node000004" class="node">
<title>Node4</title>
<g id="a_Node000004"><a xlink:href="class_j_k_q_t_math_text.html" target="_top" xlink:title="this class parses a mathematical markup string and can then draw the contained text/equation onto a Q...">
<polygon fill="white" stroke="#666666" points="347,-79 248,-79 248,-58 347,-58 347,-79"/>
<text text-anchor="middle" x="297.5" y="-65.4" font-family="Helvetica,sans-Serif" font-size="12.00">JKQTMathText</text>
</a>
</g>
</g>
<!-- Node3&#45;&gt;Node4 -->
<g id="edge5_Node000004_Node000003" class="edge">
<title>Node3&#45;&gt;Node4</title>
<g id="a_edge5_Node000004_Node000003"><a xlink:title=" ">
<path fill="none" stroke="#9a32cd" stroke-dasharray="5,2" d="M118.41,-123.83C116.45,-114.68 116.3,-104.25 122.5,-97 130.62,-87.5 198.94,-78.98 247.77,-74.03"/>
<polygon fill="#9a32cd" stroke="#9a32cd" points="115.13,-125.08 121.28,-133.71 121.85,-123.13 115.13,-125.08"/>
</a>
</g>
<text text-anchor="start" x="126" y="-102.9" font-family="Helvetica,sans-Serif" font-size="12.00" fill="grey">parsedNode</text>
</g>
<!-- Node4&#45;&gt;Node3 -->
<g id="edge3_Node000003_Node000004" class="edge">
<title>Node4&#45;&gt;Node3</title>
<g id="a_edge3_Node000003_Node000004"><a xlink:title=" ">
<path fill="none" stroke="#9a32cd" stroke-dasharray="5,2" d="M253.6,-82.58C243.64,-86.48 233.38,-91.27 224.5,-97 214.46,-103.47 215.63,-109.67 205.5,-116 193.04,-123.78 178.11,-129.68 164.54,-133.98"/>
<polygon fill="#9a32cd" stroke="#9a32cd" points="254.83,-85.86 263,-79.13 252.41,-79.29 254.83,-85.86"/>
</a>
</g>
<text text-anchor="start" x="227.5" y="-102.9" font-family="Helvetica,sans-Serif" font-size="12.00" fill="grey">parentMathText</text>
</g>
<!-- Node5 -->
<g id="Node000005" class="node">
<title>Node5</title>
<g id="a_Node000005"><a xlink:title=" ">
<polygon fill="white" stroke="#666666" points="375,-155 310,-155 310,-134 375,-134 375,-155"/>
<text text-anchor="middle" x="342.5" y="-141.4" font-family="Helvetica,sans-Serif" font-size="12.00">QObject</text>
</a>
</g>
</g>
<!-- Node5&#45;&gt;Node4 -->
<g id="edge4_Node000004_Node000005" class="edge">
<title>Node5&#45;&gt;Node4</title>
<g id="a_edge4_Node000004_Node000005"><a xlink:title=" ">
<path fill="none" stroke="#63b8ff" d="M339.13,-123.9C337.01,-115.19 333.67,-105.09 328.5,-97 324.08,-90.09 317.45,-83.88 311.46,-79.12"/>
<polygon fill="#63b8ff" stroke="#63b8ff" points="335.75,-124.86 341.2,-133.95 342.61,-123.45 335.75,-124.86"/>
</a>
</g>
</g>
<!-- Node6 -->
<g id="Node000006" class="node">
<title>Node6</title>
<g id="a_Node000006"><a xlink:title=" ">
<polygon fill="white" stroke="#666666" points="473.5,-155 393.5,-155 393.5,-134 473.5,-134 473.5,-155"/>
<text text-anchor="middle" x="433.5" y="-141.4" font-family="Helvetica,sans-Serif" font-size="12.00">std::mutex</text>
</a>
</g>
</g>
<!-- Node6&#45;&gt;Node4 -->
<g id="edge6_Node000004_Node000006" class="edge">
<title>Node6&#45;&gt;Node4</title>
<g id="a_edge6_Node000004_Node000006"><a xlink:title=" ">
<path fill="none" stroke="#9a32cd" stroke-dasharray="5,2" d="M407.08,-129.13C380.05,-114.42 338.78,-91.96 315.37,-79.22"/>
<polygon fill="#9a32cd" stroke="#9a32cd" points="405.54,-132.27 416,-133.98 408.89,-126.12 405.54,-132.27"/>
</a>
</g>
<text text-anchor="start" x="385" y="-102.9" font-family="Helvetica,sans-Serif" font-size="12.00" fill="grey">s_mutex</text>
</g>
</g>
</svg>
</svg>

<style type='text/css'>
<![CDATA[
[data-mouse-over-selected='false'] { opacity: 0.7; }
[data-mouse-over-selected='true']  { opacity: 1.0; }
]]>
</style>
<script type="application/ecmascript"><![CDATA[
document.addEventListener('DOMContentLoaded', (event) => {
  highlightEdges();
  highlightAdjacentNodes();
});
]]></script>
</svg>
