<?xml version="1.0" encoding="UTF-8" standalone="no"?>
<!DOCTYPE svg PUBLIC "-//W3C//DTD SVG 1.1//EN"
 "http://www.w3.org/Graphics/SVG/1.1/DTD/svg11.dtd">
<!-- Generated by graphviz version 2.43.0 (0)
 -->
<!-- Title: JKQTMathTextSingleChildNode Pages: 1 -->
<svg width="521pt" height="105pt"
 viewBox="0.00 0.00 521.00 105.00" xmlns="http://www.w3.org/2000/svg" xmlns:xlink="http://www.w3.org/1999/xlink">
<g id="graph0" class="graph" transform="scale(1 1) rotate(0) translate(4 101)">
<title>JKQTMathTextSingleChildNode</title>
<!-- Node1 -->
<g id="Node000001" class="node">
<title>Node1</title>
<g id="a_Node000001"><a xlink:title="subclass representing a node in the syntax tree, that has one child">
<polygon fill="#999999" stroke="#666666" points="196,-21 0,-21 0,0 196,0 196,-21"/>
<text text-anchor="middle" x="98" y="-7.4" font-family="Helvetica,sans-Serif" font-size="12.00">JKQTMathTextSingleChildNode</text>
</a>
</g>
</g>
<!-- Node2 -->
<g id="Node000002" class="node">
<title>Node2</title>
<g id="a_Node000002"><a xlink:href="class_j_k_q_t_math_text_node.html" target="_top" xlink:title="subclass representing one node in the syntax tree">
<polygon fill="white" stroke="#666666" points="202.5,-97 71.5,-97 71.5,-76 202.5,-76 202.5,-97"/>
<text text-anchor="middle" x="137" y="-83.4" font-family="Helvetica,sans-Serif" font-size="12.00">JKQTMathTextNode</text>
</a>
</g>
</g>
<!-- Node2&#45;&gt;Node1 -->
<g id="edge1_Node000001_Node000002" class="edge">
<title>Node2&#45;&gt;Node1</title>
<g id="a_edge1_Node000001_Node000002"><a xlink:title=" ">
<path fill="none" stroke="#63b8ff" d="M100.61,-70.48C95.97,-67.06 91.86,-62.93 89,-58 82.32,-46.47 87.7,-30.92 92.55,-21.04"/>
<polygon fill="#63b8ff" stroke="#63b8ff" points="99.01,-73.61 109.35,-75.92 102.71,-67.67 99.01,-73.61"/>
</a>
</g>
</g>
<!-- Node2&#45;&gt;Node1 -->
<g id="edge7_Node000001_Node000002" class="edge">
<title>Node2&#45;&gt;Node1</title>
<g id="a_edge7_Node000001_Node000002"><a xlink:title=" ">
<path fill="none" stroke="#9a32cd" stroke-dasharray="5,2" d="M117.17,-68.9C114.07,-65.56 111.18,-61.87 109,-58 102.48,-46.44 99.81,-31.16 98.73,-21.34"/>
<polygon fill="#9a32cd" stroke="#9a32cd" points="114.89,-71.57 124.52,-76 119.76,-66.54 114.89,-71.57"/>
</a>
</g>
<text text-anchor="start" x="112" y="-44.9" font-family="Helvetica,sans-Serif" font-size="12.00" fill="grey">child</text>
</g>
<!-- Node2&#45;&gt;Node2 -->
<g id="edge6_Node000002_Node000002" class="edge">
<title>Node2&#45;&gt;Node2</title>
<g id="a_edge6_Node000002_Node000002"><a xlink:title=" ">
<path fill="none" stroke="#9a32cd" stroke-dasharray="5,2" d="M213.02,-91.46C217.69,-90.29 220.5,-88.63 220.5,-86.5 220.5,-83.09 213.31,-80.9 202.81,-79.94"/>
<polygon fill="#9a32cd" stroke="#9a32cd" points="212.15,-88.06 202.81,-93.06 213.23,-94.97 212.15,-88.06"/>
</a>
</g>
<text text-anchor="start" x="224" y="-82.9" font-family="Helvetica,sans-Serif" font-size="12.00" fill="grey">parentNode</text>
</g>
<!-- Node3 -->
<g id="Node000003" class="node">
<title>Node3</title>
<g id="a_Node000003"><a xlink:href="class_j_k_q_t_math_text.html" target="_top" xlink:title="this class parses a mathematical markup string and can then draw the contained text/equation onto a Q...">
<polygon fill="white" stroke="#666666" points="326.5,-21 227.5,-21 227.5,0 326.5,0 326.5,-21"/>
<text text-anchor="middle" x="277" y="-7.4" font-family="Helvetica,sans-Serif" font-size="12.00">JKQTMathText</text>
</a>
</g>
</g>
<!-- Node2&#45;&gt;Node3 -->
<g id="edge4_Node000003_Node000002" class="edge">
<title>Node2&#45;&gt;Node3</title>
<g id="a_edge4_Node000003_Node000002"><a xlink:title=" ">
<path fill="none" stroke="#9a32cd" stroke-dasharray="5,2" d="M143.1,-66.2C147.06,-56.69 153.15,-45.82 162,-39 172.41,-30.99 201.16,-24.11 227.31,-19.24"/>
<polygon fill="#9a32cd" stroke="#9a32cd" points="139.76,-65.15 139.63,-75.74 146.34,-67.54 139.76,-65.15"/>
</a>
</g>
<text text-anchor="start" x="165.5" y="-44.9" font-family="Helvetica,sans-Serif" font-size="12.00" fill="grey">parsedNode</text>
</g>
<!-- Node3&#45;&gt;Node2 -->
<g id="edge2_Node000002_Node000003" class="edge">
<title>Node3&#45;&gt;Node2</title>
<g id="a_edge2_Node000002_Node000003"><a xlink:title=" ">
<path fill="none" stroke="#9a32cd" stroke-dasharray="5,2" d="M268.27,-30.18C262.85,-39.83 255.01,-51.02 245,-58 232.46,-66.74 217.37,-72.7 202.51,-76.77"/>
<polygon fill="#9a32cd" stroke="#9a32cd" points="271.4,-31.74 272.86,-21.25 265.18,-28.54 271.4,-31.74"/>
</a>
</g>
<text text-anchor="start" x="266" y="-44.9" font-family="Helvetica,sans-Serif" font-size="12.00" fill="grey">parentMathText</text>
</g>
<!-- Node4 -->
<g id="Node000004" class="node">
<title>Node4</title>
<g id="a_Node000004"><a xlink:title=" ">
<polygon fill="white" stroke="#666666" points="414.5,-97 349.5,-97 349.5,-76 414.5,-76 414.5,-97"/>
<text text-anchor="middle" x="382" y="-83.4" font-family="Helvetica,sans-Serif" font-size="12.00">QObject</text>
</a>
</g>
</g>
<!-- Node4&#45;&gt;Node3 -->
<g id="edge3_Node000003_Node000004" class="edge">
<title>Node4&#45;&gt;Node3</title>
<g id="a_edge3_Node000003_Node000004"><a xlink:title=" ">
<path fill="none" stroke="#63b8ff" d="M380.37,-65.97C378.63,-56.7 375.11,-46.12 368,-39 356.92,-27.91 341.53,-21.26 326.56,-17.29"/>
<polygon fill="#63b8ff" stroke="#63b8ff" points="376.91,-66.52 381.69,-75.97 383.85,-65.6 376.91,-66.52"/>
</a>
</g>
</g>
<!-- Node5 -->
<g id="Node000005" class="node">
<title>Node5</title>
<g id="a_Node000005"><a xlink:title=" ">
<polygon fill="white" stroke="#666666" points="513,-97 433,-97 433,-76 513,-76 513,-97"/>
<text text-anchor="middle" x="473" y="-83.4" font-family="Helvetica,sans-Serif" font-size="12.00">std::mutex</text>
</a>
</g>
</g>
<!-- Node5&#45;&gt;Node3 -->
<g id="edge5_Node000003_Node000005" class="edge">
<title>Node5&#45;&gt;Node3</title>
<g id="a_edge5_Node000003_Node000005"><a xlink:title=" ">
<path fill="none" stroke="#9a32cd" stroke-dasharray="5,2" d="M449.39,-70.64C432.53,-60.55 409.03,-47.55 387,-39 367.64,-31.48 345.56,-25.49 326.28,-21.04"/>
<polygon fill="#9a32cd" stroke="#9a32cd" points="447.66,-73.68 458.02,-75.89 451.3,-67.7 447.66,-73.68"/>
</a>
</g>
<text text-anchor="start" x="428.5" y="-44.9" font-family="Helvetica,sans-Serif" font-size="12.00" fill="grey">s_mutex</text>
</g>
</g>
</svg>
