<?xml version="1.0" encoding="UTF-8" standalone="no"?>
<!DOCTYPE svg PUBLIC "-//W3C//DTD SVG 1.1//EN"
 "http://www.w3.org/Graphics/SVG/1.1/DTD/svg11.dtd">
<!-- Generated by graphviz version 2.43.0 (0)
 -->
<!-- Title: JKQTMathTextTextBaseNode Pages: 1 -->
<svg width="481pt" height="105pt"
 viewBox="0.00 0.00 481.00 105.00" xmlns="http://www.w3.org/2000/svg" xmlns:xlink="http://www.w3.org/1999/xlink">

<svg id="main" version="1.1" xmlns="http://www.w3.org/2000/svg" xmlns:xlink="http://www.w3.org/1999/xlink" xml:space="preserve">

<style type="text/css"><![CDATA[
.node, .edge {opacity: 0.7;}
.node.selected, .edge.selected {opacity: 1;}
.edge:hover path { stroke: red; }
.edge:hover polygon { stroke: red; fill: red; }
]]></style>
<script type="application/ecmascript" xlink:href="svg.min.js"/>
<svg id="graph" class="graph">
<g id="graph0" class="graph" transform="scale(1 1) rotate(0) translate(4 101)">
<title>JKQTMathTextTextBaseNode</title>
<!-- Node1 -->
<g id="Node000001" class="node">
<title>Node1</title>
<g id="a_Node000001"><a xlink:title="base class for nodes representing text in the syntax tree">
<polygon fill="#999999" stroke="#666666" points="184,-21 0,-21 0,0 184,0 184,-21"/>
<text text-anchor="middle" x="92" y="-7.4" font-family="Helvetica,sans-Serif" font-size="12.00">JKQTMathTextTextBaseNode</text>
</a>
</g>
</g>
<!-- Node2 -->
<g id="Node000002" class="node">
<title>Node2</title>
<g id="a_Node000002"><a xlink:href="class_j_k_q_t_math_text_node.html" target="_top" xlink:title="subclass representing one node in the syntax tree">
<polygon fill="white" stroke="#666666" points="190.5,-97 59.5,-97 59.5,-76 190.5,-76 190.5,-97"/>
<text text-anchor="middle" x="125" y="-83.4" font-family="Helvetica,sans-Serif" font-size="12.00">JKQTMathTextNode</text>
</a>
</g>
</g>
<!-- Node2&#45;&gt;Node1 -->
<g id="edge1_Node000001_Node000002" class="edge">
<title>Node2&#45;&gt;Node1</title>
<g id="a_edge1_Node000001_Node000002"><a xlink:title=" ">
<path fill="none" stroke="#63b8ff" d="M111.3,-67.34C109.36,-64.31 107.51,-61.14 106,-58 100.15,-45.84 96.14,-30.72 93.96,-21.08"/>
<polygon fill="#63b8ff" stroke="#63b8ff" points="108.58,-69.57 117.17,-75.78 114.33,-65.57 108.58,-69.57"/>
</a>
</g>
</g>
<!-- Node2&#45;&gt;Node2 -->
<g id="edge6_Node000002_Node000002" class="edge">
<title>Node2&#45;&gt;Node2</title>
<g id="a_edge6_Node000002_Node000002"><a xlink:title=" ">
<path fill="none" stroke="#9a32cd" stroke-dasharray="5,2" d="M201.02,-91.46C205.69,-90.29 208.5,-88.63 208.5,-86.5 208.5,-83.09 201.31,-80.9 190.81,-79.94"/>
<polygon fill="#9a32cd" stroke="#9a32cd" points="200.15,-88.06 190.81,-93.06 201.23,-94.97 200.15,-88.06"/>
</a>
</g>
<text text-anchor="start" x="212" y="-82.9" font-family="Helvetica,sans-Serif" font-size="12.00" fill="grey">parentNode</text>
</g>
<!-- Node3 -->
<g id="Node000003" class="node">
<title>Node3</title>
<g id="a_Node000003"><a xlink:href="class_j_k_q_t_math_text.html" target="_top" xlink:title="this class parses a mathematical markup string and can then draw the contained text/equation onto a Q...">
<polygon fill="white" stroke="#666666" points="346.5,-21 247.5,-21 247.5,0 346.5,0 346.5,-21"/>
<text text-anchor="middle" x="297" y="-7.4" font-family="Helvetica,sans-Serif" font-size="12.00">JKQTMathText</text>
</a>
</g>
</g>
<!-- Node2&#45;&gt;Node3 -->
<g id="edge4_Node000003_Node000002" class="edge">
<title>Node2&#45;&gt;Node3</title>
<g id="a_edge4_Node000003_Node000002"><a xlink:title=" ">
<path fill="none" stroke="#9a32cd" stroke-dasharray="5,2" d="M117.91,-65.83C115.95,-56.68 115.8,-46.25 122,-39 130.12,-29.5 198.44,-20.98 247.27,-16.03"/>
<polygon fill="#9a32cd" stroke="#9a32cd" points="114.63,-67.08 120.78,-75.71 121.35,-65.13 114.63,-67.08"/>
</a>
</g>
<text text-anchor="start" x="125.5" y="-44.9" font-family="Helvetica,sans-Serif" font-size="12.00" fill="grey">parsedNode</text>
</g>
<!-- Node3&#45;&gt;Node2 -->
<g id="edge2_Node000002_Node000003" class="edge">
<title>Node3&#45;&gt;Node2</title>
<g id="a_edge2_Node000002_Node000003"><a xlink:title=" ">
<path fill="none" stroke="#9a32cd" stroke-dasharray="5,2" d="M253.1,-24.58C243.14,-28.48 232.88,-33.27 224,-39 213.96,-45.47 215.13,-51.67 205,-58 192.54,-65.78 177.61,-71.68 164.04,-75.98"/>
<polygon fill="#9a32cd" stroke="#9a32cd" points="254.33,-27.86 262.5,-21.13 251.91,-21.29 254.33,-27.86"/>
</a>
</g>
<text text-anchor="start" x="227" y="-44.9" font-family="Helvetica,sans-Serif" font-size="12.00" fill="grey">parentMathText</text>
</g>
<!-- Node4 -->
<g id="Node000004" class="node">
<title>Node4</title>
<g id="a_Node000004"><a xlink:title=" ">
<polygon fill="white" stroke="#666666" points="374.5,-97 309.5,-97 309.5,-76 374.5,-76 374.5,-97"/>
<text text-anchor="middle" x="342" y="-83.4" font-family="Helvetica,sans-Serif" font-size="12.00">QObject</text>
</a>
</g>
</g>
<!-- Node4&#45;&gt;Node3 -->
<g id="edge3_Node000003_Node000004" class="edge">
<title>Node4&#45;&gt;Node3</title>
<g id="a_edge3_Node000003_Node000004"><a xlink:title=" ">
<path fill="none" stroke="#63b8ff" d="M338.63,-65.9C336.51,-57.19 333.17,-47.09 328,-39 323.58,-32.09 316.95,-25.88 310.96,-21.12"/>
<polygon fill="#63b8ff" stroke="#63b8ff" points="335.25,-66.86 340.7,-75.95 342.11,-65.45 335.25,-66.86"/>
</a>
</g>
</g>
<!-- Node5 -->
<g id="Node000005" class="node">
<title>Node5</title>
<g id="a_Node000005"><a xlink:title=" ">
<polygon fill="white" stroke="#666666" points="473,-97 393,-97 393,-76 473,-76 473,-97"/>
<text text-anchor="middle" x="433" y="-83.4" font-family="Helvetica,sans-Serif" font-size="12.00">std::mutex</text>
</a>
</g>
</g>
<!-- Node5&#45;&gt;Node3 -->
<g id="edge5_Node000003_Node000005" class="edge">
<title>Node5&#45;&gt;Node3</title>
<g id="a_edge5_Node000003_Node000005"><a xlink:title=" ">
<path fill="none" stroke="#9a32cd" stroke-dasharray="5,2" d="M406.58,-71.13C379.55,-56.42 338.28,-33.96 314.87,-21.22"/>
<polygon fill="#9a32cd" stroke="#9a32cd" points="405.04,-74.27 415.5,-75.98 408.39,-68.12 405.04,-74.27"/>
</a>
</g>
<text text-anchor="start" x="384.5" y="-44.9" font-family="Helvetica,sans-Serif" font-size="12.00" fill="grey">s_mutex</text>
</g>
</g>
</svg>
</svg>

<style type='text/css'>
<![CDATA[
[data-mouse-over-selected='false'] { opacity: 0.7; }
[data-mouse-over-selected='true']  { opacity: 1.0; }
]]>
</style>
<script type="application/ecmascript"><![CDATA[
document.addEventListener('DOMContentLoaded', (event) => {
  highlightEdges();
  highlightAdjacentNodes();
});
]]></script>
</svg>
