<?xml version="1.0" encoding="UTF-8" standalone="no"?>
<!DOCTYPE svg PUBLIC "-//W3C//DTD SVG 1.1//EN"
 "http://www.w3.org/Graphics/SVG/1.1/DTD/svg11.dtd">
<!-- Generated by graphviz version 2.43.0 (0)
 -->
<!-- Title: JKQTPMathParser::jkmpNode Pages: 1 -->
<!--zoomable 499 -->

<svg id="main" version="1.1" xmlns="http://www.w3.org/2000/svg" xmlns:xlink="http://www.w3.org/1999/xlink" xml:space="preserve" onload="init(evt)">

<style type="text/css"><![CDATA[
.node, .edge {opacity: 0.7;}
.node.selected, .edge.selected {opacity: 1;}
.edge:hover path { stroke: red; }
.edge:hover polygon { stroke: red; fill: red; }
]]></style>

<defs>
  <circle id="rim" cx="0" cy="0" r="7"/>
  <circle id="rim2" cx="0" cy="0" r="3.5"/>
  <g id="zoomPlus">
    <use xlink:href="#rim" fill="#404040"><set attributeName="fill" to="#808080" begin="zoomplus.mouseover" end="zoomplus.mouseout"/></use>
    <path d="M-4,0h8M0,-4v8" fill="none" stroke="white" stroke-width="1.5" pointer-events="none"/>
  </g>
  <g id="zoomMin">
    <use xlink:href="#rim" fill="#404040"><set attributeName="fill" to="#808080" begin="zoomminus.mouseover" end="zoomminus.mouseout"/></use>
    <path d="M-4,0h8" fill="none" stroke="white" stroke-width="1.5" pointer-events="none"/>
  </g>
  <g id="arrowUp" transform="translate(30 24)">
    <use xlink:href="#rim"/>
    <path pointer-events="none" fill="none" stroke="white" stroke-width="1.5" d="M0,-3.0v7 M-2.5,-0.5L0,-3.0L2.5,-0.5"/>
  </g>
  <g id="arrowRight" transform="rotate(90) translate(36 -43)">
    <use xlink:href="#rim"/>
    <path pointer-events="none" fill="none" stroke="white" stroke-width="1.5" d="M0,-3.0v7 M-2.5,-0.5L0,-3.0L2.5,-0.5"/>
  </g>
  <g id="arrowDown" transform="rotate(180) translate(-30 -48)">
    <use xlink:href="#rim"/>
    <path pointer-events="none" fill="none" stroke="white" stroke-width="1.5" d="M0,-3.0v7 M-2.5,-0.5L0,-3.0L2.5,-0.5"/>
  </g>
  <g id="arrowLeft" transform="rotate(270) translate(-36 17)">
    <use xlink:href="#rim"/>
    <path pointer-events="none" fill="none" stroke="white" stroke-width="1.5" d="M0,-3.0v7 M-2.5,-0.5L0,-3.0L2.5,-0.5"/>
  </g>
  <g id="resetDef">
    <use xlink:href="#rim2" fill="#404040"><set attributeName="fill" to="#808080" begin="reset.mouseover" end="reset.mouseout"/></use>
  </g>
</defs>
<script type="application/ecmascript">
var viewWidth = 1831;
var viewHeight = 499;
var sectionId = 'dynsection-1';
</script>
<script type="application/ecmascript" xlink:href="svg.min.js"/>
<svg id="graph" class="graph">
<g id="viewport">
<title>JKQTPMathParser::jkmpNode</title>
<!-- Node1 -->
<g id="Node000001" class="node">
<title>Node1</title>
<g id="a_Node000001"><a xlink:title="This class is the abstract base class for nodes. All allowed node types must inherit from jkmpNode.">
<polygon fill="#999999" stroke="#666666" points="1823,-241.5 1635,-241.5 1635,-220.5 1823,-220.5 1823,-241.5"/>
<text text-anchor="middle" x="1729" y="-227.9" font-family="Helvetica,sans-Serif" font-size="12.00">JKQTPMathParser::jkmpNode</text>
</a>
</g>
</g>
<!-- Node1&#45;&gt;Node1 -->
<g id="edge28_Node000001_Node000001" class="edge">
<title>Node1&#45;&gt;Node1</title>
<g id="a_edge28_Node000001_Node000001"><a xlink:title=" ">
<path fill="none" stroke="#9a32cd" stroke-dasharray="5,2" d="M1704.31,-251.07C1706.21,-255.91 1714.44,-259.5 1729,-259.5 1752.29,-259.5 1759.39,-250.31 1750.29,-241.52"/>
<polygon fill="#9a32cd" stroke="#9a32cd" points="1707.65,-252.12 1707.71,-241.52 1701.06,-249.77 1707.65,-252.12"/>
</a>
</g>
<text text-anchor="start" x="1709" y="-265.4" font-family="Helvetica,sans-Serif" font-size="12.00" fill="grey">parent</text>
</g>
<!-- Node2 -->
<g id="Node000002" class="node">
<title>Node2</title>
<g id="a_Node000002"><a xlink:href="class_j_k_q_t_p_math_parser.html" target="_top" xlink:title="A simple function parser to parse (build memory tree representation) and evaluate simple mathematical...">
<polygon fill="white" stroke="#666666" points="1553,-241.5 1432,-241.5 1432,-220.5 1553,-220.5 1553,-241.5"/>
<text text-anchor="middle" x="1492.5" y="-227.9" font-family="Helvetica,sans-Serif" font-size="12.00">JKQTPMathParser</text>
</a>
</g>
</g>
<!-- Node2&#45;&gt;Node1 -->
<g id="edge1_Node000001_Node000002" class="edge">
<title>Node2&#45;&gt;Node1</title>
<g id="a_edge1_Node000001_Node000002"><a xlink:title=" ">
<path fill="none" stroke="#9a32cd" stroke-dasharray="5,2" d="M1563.35,-231C1585.71,-231 1610.83,-231 1634.6,-231"/>
<polygon fill="#9a32cd" stroke="#9a32cd" points="1563.28,-227.5 1553.28,-231 1563.28,-234.5 1563.28,-227.5"/>
</a>
</g>
<text text-anchor="start" x="1574" y="-236.9" font-family="Helvetica,sans-Serif" font-size="12.00" fill="grey">parser</text>
</g>
<!-- Node3 -->
<g id="Node000003" class="node">
<title>Node3</title>
<g id="a_Node000003"><a xlink:title=" ">
<polygon fill="white" stroke="#666666" points="272.5,-259.5 196.5,-259.5 196.5,-238.5 272.5,-238.5 272.5,-259.5"/>
<text text-anchor="middle" x="234.5" y="-245.9" font-family="Helvetica,sans-Serif" font-size="12.00">std::string</text>
</a>
</g>
</g>
<!-- Node3&#45;&gt;Node2 -->
<g id="edge2_Node000002_Node000003" class="edge">
<title>Node3&#45;&gt;Node2</title>
<g id="a_edge2_Node000002_Node000003"><a xlink:title=" ">
<path fill="none" stroke="#9a32cd" stroke-dasharray="5,2" d="M246.02,-268.77C267.46,-308.74 315.28,-396.16 328,-405 395.5,-451.92 427.79,-438 510,-438 510,-438 510,-438 1230.5,-438 1358.31,-438 1459.96,-283.73 1485.37,-241.55"/>
<polygon fill="#9a32cd" stroke="#9a32cd" points="249.09,-267.08 241.29,-259.92 242.92,-270.38 249.09,-267.08"/>
</a>
</g>
<text text-anchor="start" x="842.5" y="-477.9" font-family="Helvetica,sans-Serif" font-size="12.00" fill="grey">StringValue</text>
<text text-anchor="start" x="842.5" y="-460.9" font-family="Helvetica,sans-Serif" font-size="12.00" fill="grey">jkmathparser_exception</text>
<text text-anchor="start" x="842.5" y="-443.9" font-family="Helvetica,sans-Serif" font-size="12.00" fill="grey">  _function</text>
</g>
<!-- Node11 -->
<g id="Node000011" class="node">
<title>Node11</title>
<g id="a_Node000011"><a xlink:href="struct_j_k_q_t_p_math_parser_1_1jkmp_temp_variable.html" target="_top" xlink:title="This struct is for managing temporary variables. It is generally like jkmpVariable.">
<polygon fill="white" stroke="#666666" points="605.5,-126 416.5,-126 416.5,-92 605.5,-92 605.5,-126"/>
<text text-anchor="start" x="424.5" y="-112.4" font-family="Helvetica,sans-Serif" font-size="12.00">JKQTPMathParser::jkmpTemp</text>
<text text-anchor="middle" x="511" y="-99.4" font-family="Helvetica,sans-Serif" font-size="12.00">Variable</text>
</a>
</g>
</g>
<!-- Node3&#45;&gt;Node11 -->
<g id="edge11_Node000011_Node000003" class="edge">
<title>Node3&#45;&gt;Node11</title>
<g id="a_edge11_Node000011_Node000003"><a xlink:title=" ">
<path fill="none" stroke="#9a32cd" stroke-dasharray="5,2" d="M253.06,-231.1C269.47,-213.61 293.81,-185.66 310,-158 321.09,-139.05 309.97,-124.53 328,-112 358.24,-91 398.64,-88.49 433.7,-91.99"/>
<polygon fill="#9a32cd" stroke="#9a32cd" points="250.5,-228.71 246.13,-238.36 255.56,-233.54 250.5,-228.71"/>
</a>
</g>
<text text-anchor="start" x="342" y="-135.4" font-family="Helvetica,sans-Serif" font-size="12.00" fill="grey">name</text>
<text text-anchor="start" x="342" y="-118.4" font-family="Helvetica,sans-Serif" font-size="12.00" fill="grey">str</text>
</g>
<!-- Node14 -->
<g id="Node000014" class="node">
<title>Node14</title>
<g id="a_Node000014"><a xlink:title=" ">
<polygon fill="white" stroke="#666666" points="1026,-376 803,-376 803,-342 1026,-342 1026,-376"/>
<text text-anchor="start" x="811" y="-362.4" font-family="Helvetica,sans-Serif" font-size="12.00">std::map&lt; std::string,</text>
<text text-anchor="middle" x="914.5" y="-349.4" font-family="Helvetica,sans-Serif" font-size="12.00"> JKQTPMathParser::jkmpVariable &gt;</text>
</a>
</g>
</g>
<!-- Node3&#45;&gt;Node14 -->
<g id="edge15_Node000014_Node000003" class="edge">
<title>Node3&#45;&gt;Node14</title>
<g id="a_edge15_Node000014_Node000003"><a xlink:title=" ">
<path fill="none" stroke="#9a32cd" stroke-dasharray="5,2" d="M246.77,-268.3C261.93,-292.31 291.26,-332.51 328,-352 417.83,-399.67 683.52,-382.68 785,-376 790.84,-375.62 796.82,-375.13 802.84,-374.58"/>
<polygon fill="#9a32cd" stroke="#9a32cd" points="249.71,-266.39 241.5,-259.68 243.74,-270.04 249.71,-266.39"/>
</a>
</g>
<text text-anchor="start" x="497" y="-389.9" font-family="Helvetica,sans-Serif" font-size="12.00" fill="grey">keys</text>
</g>
<!-- Node15 -->
<g id="Node000015" class="node">
<title>Node15</title>
<g id="a_Node000015"><a xlink:href="struct_j_k_q_t_p_math_parser_1_1jkmp_variable.html" target="_top" xlink:title="This struct is for managing variables. Unlike jkmpResult this struct only contains pointers to the da...">
<polygon fill="white" stroke="#666666" points="614,-353.5 408,-353.5 408,-332.5 614,-332.5 614,-353.5"/>
<text text-anchor="middle" x="511" y="-339.9" font-family="Helvetica,sans-Serif" font-size="12.00">JKQTPMathParser::jkmpVariable</text>
</a>
</g>
</g>
<!-- Node3&#45;&gt;Node15 -->
<g id="edge17_Node000015_Node000003" class="edge">
<title>Node3&#45;&gt;Node15</title>
<g id="a_edge17_Node000015_Node000003"><a xlink:title=" ">
<path fill="none" stroke="#9a32cd" stroke-dasharray="5,2" d="M255.29,-266.24C273.1,-280.79 300.59,-300.95 328,-312 352.97,-322.07 381.15,-328.87 407.74,-333.46"/>
<polygon fill="#9a32cd" stroke="#9a32cd" points="257.29,-263.35 247.38,-259.62 252.8,-268.72 257.29,-263.35"/>
</a>
</g>
<text text-anchor="start" x="351" y="-334.9" font-family="Helvetica,sans-Serif" font-size="12.00" fill="grey">str</text>
</g>
<!-- Node18 -->
<g id="Node000018" class="node">
<title>Node18</title>
<g id="a_Node000018"><a xlink:title=" ">
<polygon fill="white" stroke="#666666" points="1335,-254.5 1124,-254.5 1124,-207.5 1335,-207.5 1335,-254.5"/>
<text text-anchor="start" x="1132" y="-240.9" font-family="Helvetica,sans-Serif" font-size="12.00">std::map&lt; std::string,</text>
<text text-anchor="start" x="1132" y="-227.9" font-family="Helvetica,sans-Serif" font-size="12.00"> JKQTPMathParser::jkmpFunction</text>
<text text-anchor="middle" x="1229.5" y="-214.9" font-family="Helvetica,sans-Serif" font-size="12.00">Descriptor &gt;</text>
</a>
</g>
</g>
<!-- Node3&#45;&gt;Node18 -->
<g id="edge22_Node000018_Node000003" class="edge">
<title>Node3&#45;&gt;Node18</title>
<g id="a_edge22_Node000018_Node000003"><a xlink:title=" ">
<path fill="none" stroke="#9a32cd" stroke-dasharray="5,2" d="M282.98,-248.14C434.78,-245.39 910.84,-236.76 1123.77,-232.9"/>
<polygon fill="#9a32cd" stroke="#9a32cd" points="282.55,-244.65 272.61,-248.33 282.68,-251.65 282.55,-244.65"/>
</a>
</g>
<text text-anchor="start" x="694.5" y="-246.9" font-family="Helvetica,sans-Serif" font-size="12.00" fill="grey">keys</text>
</g>
<!-- Node19 -->
<g id="Node000019" class="node">
<title>Node19</title>
<g id="a_Node000019"><a xlink:href="struct_j_k_q_t_p_math_parser_1_1jkmp_function_descriptor.html" target="_top" xlink:title="description of a user registered function">
<polygon fill="white" stroke="#666666" points="1018,-203 811,-203 811,-169 1018,-169 1018,-203"/>
<text text-anchor="start" x="819" y="-189.4" font-family="Helvetica,sans-Serif" font-size="12.00">JKQTPMathParser::jkmpFunction</text>
<text text-anchor="middle" x="914.5" y="-176.4" font-family="Helvetica,sans-Serif" font-size="12.00">Descriptor</text>
</a>
</g>
</g>
<!-- Node3&#45;&gt;Node19 -->
<g id="edge26_Node000019_Node000003" class="edge">
<title>Node3&#45;&gt;Node19</title>
<g id="a_edge26_Node000019_Node000003"><a xlink:title=" ">
<path fill="none" stroke="#9a32cd" stroke-dasharray="5,2" d="M261.13,-233.02C293.77,-213.77 352.6,-182.67 408,-172 545.5,-145.52 707.89,-157.47 810.78,-170.24"/>
<polygon fill="#9a32cd" stroke="#9a32cd" points="259.03,-230.2 252.25,-238.35 262.63,-236.2 259.03,-230.2"/>
</a>
</g>
<text text-anchor="start" x="494" y="-177.9" font-family="Helvetica,sans-Serif" font-size="12.00" fill="grey">name</text>
</g>
<!-- Node20 -->
<g id="Node000020" class="node">
<title>Node20</title>
<g id="a_Node000020"><a xlink:href="struct_j_k_q_t_p_math_parser_1_1jkmp_result.html" target="_top" xlink:title="result of any expression">
<polygon fill="white" stroke="#666666" points="607.5,-220.5 414.5,-220.5 414.5,-199.5 607.5,-199.5 607.5,-220.5"/>
<text text-anchor="middle" x="511" y="-206.9" font-family="Helvetica,sans-Serif" font-size="12.00">JKQTPMathParser::jkmpResult</text>
</a>
</g>
</g>
<!-- Node3&#45;&gt;Node20 -->
<g id="edge25_Node000020_Node000003" class="edge">
<title>Node3&#45;&gt;Node20</title>
<g id="a_edge25_Node000020_Node000003"><a xlink:title=" ">
<path fill="none" stroke="#9a32cd" stroke-dasharray="5,2" d="M268.54,-234.4C285.88,-227.46 307.7,-219.86 328,-216 355.8,-210.72 386.4,-208.39 414.46,-207.61"/>
<polygon fill="#9a32cd" stroke="#9a32cd" points="266.81,-231.33 258.89,-238.37 269.47,-237.8 266.81,-231.33"/>
</a>
</g>
<text text-anchor="start" x="351" y="-221.9" font-family="Helvetica,sans-Serif" font-size="12.00" fill="grey">str</text>
</g>
<!-- Node4 -->
<g id="Node000004" class="node">
<title>Node4</title>
<g id="a_Node000004"><a xlink:title=" ">
<polygon fill="white" stroke="#666666" points="122,-266 0,-266 0,-232 122,-232 122,-266"/>
<text text-anchor="start" x="8" y="-252.4" font-family="Helvetica,sans-Serif" font-size="12.00">std::basic_string&lt;</text>
<text text-anchor="middle" x="61" y="-239.4" font-family="Helvetica,sans-Serif" font-size="12.00"> Char &gt;</text>
</a>
</g>
</g>
<!-- Node4&#45;&gt;Node3 -->
<g id="edge3_Node000003_Node000004" class="edge">
<title>Node4&#45;&gt;Node3</title>
<g id="a_edge3_Node000003_Node000004"><a xlink:title=" ">
<path fill="none" stroke="#63b8ff" d="M132.74,-249C154.63,-249 177.86,-249 196.5,-249"/>
<polygon fill="#63b8ff" stroke="#63b8ff" points="132.46,-245.5 122.46,-249 132.46,-252.5 132.46,-245.5"/>
</a>
</g>
</g>
<!-- Node5 -->
<g id="Node000005" class="node">
<title>Node5</title>
<g id="a_Node000005"><a xlink:title=" ">
<polygon fill="white" stroke="#666666" points="1290,-105.5 1169,-105.5 1169,-84.5 1290,-84.5 1290,-105.5"/>
<text text-anchor="middle" x="1229.5" y="-91.9" font-family="Helvetica,sans-Serif" font-size="12.00">std::istringstream</text>
</a>
</g>
</g>
<!-- Node5&#45;&gt;Node2 -->
<g id="edge4_Node000002_Node000005" class="edge">
<title>Node5&#45;&gt;Node2</title>
<g id="a_edge4_Node000002_Node000005"><a xlink:title=" ">
<path fill="none" stroke="#9a32cd" stroke-dasharray="5,2" d="M1300.32,-92.55C1336.58,-94.28 1380.24,-101.33 1414,-122 1453.21,-146.01 1478.13,-198.08 1487.41,-220.45"/>
<polygon fill="#9a32cd" stroke="#9a32cd" points="1300.43,-89.05 1290.31,-92.19 1300.18,-96.04 1300.43,-89.05"/>
</a>
</g>
<text text-anchor="start" x="1357.5" y="-127.9" font-family="Helvetica,sans-Serif" font-size="12.00" fill="grey">program</text>
</g>
<!-- Node6 -->
<g id="Node000006" class="node">
<title>Node6</title>
<g id="a_Node000006"><a xlink:title=" ">
<polygon fill="white" stroke="#666666" points="993.5,-67 835.5,-67 835.5,-33 993.5,-33 993.5,-67"/>
<text text-anchor="start" x="843.5" y="-53.4" font-family="Helvetica,sans-Serif" font-size="12.00">std::basic_istringstream</text>
<text text-anchor="middle" x="914.5" y="-40.4" font-family="Helvetica,sans-Serif" font-size="12.00">&lt; Char &gt;</text>
</a>
</g>
</g>
<!-- Node6&#45;&gt;Node5 -->
<g id="edge5_Node000005_Node000006" class="edge">
<title>Node6&#45;&gt;Node5</title>
<g id="a_edge5_Node000005_Node000006"><a xlink:title=" ">
<path fill="none" stroke="#63b8ff" d="M1003.72,-62.68C1056.55,-70.28 1122.29,-79.73 1169,-86.45"/>
<polygon fill="#63b8ff" stroke="#63b8ff" points="1004.07,-59.2 993.68,-61.24 1003.08,-66.13 1004.07,-59.2"/>
</a>
</g>
</g>
<!-- Node7 -->
<g id="Node000007" class="node">
<title>Node7</title>
<g id="a_Node000007"><a xlink:title=" ">
<polygon fill="white" stroke="#666666" points="573,-34 449,-34 449,0 573,0 573,-34"/>
<text text-anchor="start" x="457" y="-20.4" font-family="Helvetica,sans-Serif" font-size="12.00">std::basic_istream</text>
<text text-anchor="middle" x="511" y="-7.4" font-family="Helvetica,sans-Serif" font-size="12.00">&lt; Char &gt;</text>
</a>
</g>
</g>
<!-- Node7&#45;&gt;Node6 -->
<g id="edge6_Node000006_Node000007" class="edge">
<title>Node7&#45;&gt;Node6</title>
<g id="a_edge6_Node000006_Node000007"><a xlink:title=" ">
<path fill="none" stroke="#63b8ff" d="M583.57,-22.88C654.3,-28.7 762.21,-37.57 835.19,-43.56"/>
<polygon fill="#63b8ff" stroke="#63b8ff" points="583.67,-19.38 573.42,-22.05 583.1,-26.36 583.67,-19.38"/>
</a>
</g>
</g>
<!-- Node8 -->
<g id="Node000008" class="node">
<title>Node8</title>
<g id="a_Node000008"><a xlink:title=" ">
<polygon fill="white" stroke="#666666" points="310,-27.5 159,-27.5 159,-6.5 310,-6.5 310,-27.5"/>
<text text-anchor="middle" x="234.5" y="-13.9" font-family="Helvetica,sans-Serif" font-size="12.00">std::basic_ios&lt; Char &gt;</text>
</a>
</g>
</g>
<!-- Node8&#45;&gt;Node7 -->
<g id="edge7_Node000007_Node000008" class="edge">
<title>Node8&#45;&gt;Node7</title>
<g id="a_edge7_Node000007_Node000008"><a xlink:title=" ">
<path fill="none" stroke="#63b8ff" d="M320.26,-17C361.82,-17 410.94,-17 448.79,-17"/>
<polygon fill="#63b8ff" stroke="#63b8ff" points="320.15,-13.5 310.15,-17 320.15,-20.5 320.15,-13.5"/>
</a>
</g>
</g>
<!-- Node9 -->
<g id="Node000009" class="node">
<title>Node9</title>
<g id="a_Node000009"><a xlink:title=" ">
<polygon fill="white" stroke="#666666" points="107.5,-27.5 14.5,-27.5 14.5,-6.5 107.5,-6.5 107.5,-27.5"/>
<text text-anchor="middle" x="61" y="-13.9" font-family="Helvetica,sans-Serif" font-size="12.00">std::ios_base</text>
</a>
</g>
</g>
<!-- Node9&#45;&gt;Node8 -->
<g id="edge8_Node000008_Node000009" class="edge">
<title>Node9&#45;&gt;Node8</title>
<g id="a_edge8_Node000008_Node000009"><a xlink:title=" ">
<path fill="none" stroke="#63b8ff" d="M117.78,-17C130.91,-17 145.11,-17 158.91,-17"/>
<polygon fill="#63b8ff" stroke="#63b8ff" points="117.51,-13.5 107.51,-17 117.51,-20.5 117.51,-13.5"/>
</a>
</g>
</g>
<!-- Node10 -->
<g id="Node000010" class="node">
<title>Node10</title>
<g id="a_Node000010"><a xlink:title=" ">
<polygon fill="white" stroke="#666666" points="1013.5,-139 815.5,-139 815.5,-105 1013.5,-105 1013.5,-139"/>
<text text-anchor="start" x="823.5" y="-125.4" font-family="Helvetica,sans-Serif" font-size="12.00">std::vector&lt; JKQTPMathParser</text>
<text text-anchor="middle" x="914.5" y="-112.4" font-family="Helvetica,sans-Serif" font-size="12.00">::jkmpTempVariable &gt;</text>
</a>
</g>
</g>
<!-- Node10&#45;&gt;Node2 -->
<g id="edge9_Node000002_Node000010" class="edge">
<title>Node10&#45;&gt;Node2</title>
<g id="a_edge9_Node000002_Node000010"><a xlink:title=" ">
<path fill="none" stroke="#9a32cd" stroke-dasharray="5,2" d="M1023.83,-131.64C1109.11,-140.5 1230.59,-155.97 1335,-180 1381.23,-190.64 1433.31,-208.92 1464.21,-220.47"/>
<polygon fill="#9a32cd" stroke="#9a32cd" points="1024.18,-128.15 1013.87,-130.62 1023.46,-135.12 1024.18,-128.15"/>
</a>
</g>
<text text-anchor="start" x="1186.5" y="-185.9" font-family="Helvetica,sans-Serif" font-size="12.00" fill="grey">tempvariables</text>
</g>
<!-- Node11&#45;&gt;Node10 -->
<g id="edge10_Node000010_Node000011" class="edge">
<title>Node11&#45;&gt;Node10</title>
<g id="a_edge10_Node000010_Node000011"><a xlink:title=" ">
<path fill="none" stroke="#9a32cd" stroke-dasharray="5,2" d="M615.74,-112.36C677.22,-114.35 754.67,-116.86 815.17,-118.82"/>
<polygon fill="#9a32cd" stroke="#9a32cd" points="615.74,-108.86 605.63,-112.03 615.51,-115.85 615.74,-108.86"/>
</a>
</g>
<text text-anchor="start" x="680.5" y="-122.9" font-family="Helvetica,sans-Serif" font-size="12.00" fill="grey">elements</text>
</g>
<!-- Node12 -->
<g id="Node000012" class="node">
<title>Node12</title>
<g id="a_Node000012"><a xlink:title=" ">
<polygon fill="white" stroke="#666666" points="568.5,-73.5 453.5,-73.5 453.5,-52.5 568.5,-52.5 568.5,-73.5"/>
<text text-anchor="middle" x="511" y="-59.9" font-family="Helvetica,sans-Serif" font-size="12.00">std::vector&lt; T &gt;</text>
</a>
</g>
</g>
<!-- Node12&#45;&gt;Node10 -->
<g id="edge12_Node000010_Node000012" class="edge">
<title>Node12&#45;&gt;Node10</title>
<g id="a_edge12_Node000010_Node000012"><a xlink:title=" ">
<path fill="none" stroke="orange" stroke-dasharray="5,2" d="M578.68,-59.41C634.4,-57.85 715.65,-58.91 785,-73 817.64,-79.63 852.86,-93.59 878.16,-104.91"/>
<polygon fill="orange" stroke="orange" points="578.46,-55.92 568.58,-59.73 578.68,-62.91 578.46,-55.92"/>
</a>
</g>
<text text-anchor="start" x="642.5" y="-96.4" font-family="Helvetica,sans-Serif" font-size="12.00" fill="grey">&lt; JKQTPMathParser::</text>
<text text-anchor="start" x="642.5" y="-79.4" font-family="Helvetica,sans-Serif" font-size="12.00" fill="grey">  jkmpTempVariable &gt;</text>
</g>
<!-- Node13 -->
<g id="Node000013" class="node">
<title>Node13</title>
<g id="a_Node000013"><a xlink:title=" ">
<polygon fill="white" stroke="#666666" points="249,-148.5 220,-148.5 220,-127.5 249,-127.5 249,-148.5"/>
<text text-anchor="middle" x="234.5" y="-134.9" font-family="Helvetica,sans-Serif" font-size="12.00">T</text>
</a>
</g>
</g>
<!-- Node13&#45;&gt;Node12 -->
<g id="edge13_Node000012_Node000013" class="edge">
<title>Node13&#45;&gt;Node12</title>
<g id="a_edge13_Node000012_Node000013"><a xlink:title=" ">
<path fill="none" stroke="#9a32cd" stroke-dasharray="5,2" d="M252.43,-120.23C269.64,-103.51 297.99,-79.51 328,-69 368.28,-54.89 416.69,-53.99 453.45,-56.3"/>
<polygon fill="#9a32cd" stroke="#9a32cd" points="249.93,-117.78 245.33,-127.32 254.88,-122.73 249.93,-117.78"/>
</a>
</g>
<text text-anchor="start" x="331" y="-74.9" font-family="Helvetica,sans-Serif" font-size="12.00" fill="grey">elements</text>
</g>
<!-- Node16 -->
<g id="Node000016" class="node">
<title>Node16</title>
<g id="a_Node000016"><a xlink:title=" ">
<polygon fill="white" stroke="#666666" points="570.5,-312.5 451.5,-312.5 451.5,-291.5 570.5,-291.5 570.5,-312.5"/>
<text text-anchor="middle" x="511" y="-298.9" font-family="Helvetica,sans-Serif" font-size="12.00">std::map&lt; K, T &gt;</text>
</a>
</g>
</g>
<!-- Node13&#45;&gt;Node16 -->
<g id="edge20_Node000016_Node000013" class="edge">
<title>Node13&#45;&gt;Node16</title>
<g id="a_edge20_Node000016_Node000013"><a xlink:title=" ">
<path fill="none" stroke="#9a32cd" stroke-dasharray="5,2" d="M248.47,-157.17C264.64,-179.71 294.29,-216.85 328,-239 368.1,-265.35 420.43,-281.95 458.68,-291.46"/>
<polygon fill="#9a32cd" stroke="#9a32cd" points="251.19,-154.94 242.58,-148.76 245.45,-158.96 251.19,-154.94"/>
</a>
</g>
<text text-anchor="start" x="331" y="-274.9" font-family="Helvetica,sans-Serif" font-size="12.00" fill="grey">elements</text>
</g>
<!-- Node14&#45;&gt;Node2 -->
<g id="edge14_Node000002_Node000014" class="edge">
<title>Node14&#45;&gt;Node2</title>
<g id="a_edge14_Node000002_Node000014"><a xlink:title=" ">
<path fill="none" stroke="#9a32cd" stroke-dasharray="5,2" d="M1017.34,-340.05C1118.48,-320.65 1277.71,-288.52 1414,-254 1428.56,-250.31 1444.49,-245.69 1458.09,-241.56"/>
<polygon fill="#9a32cd" stroke="#9a32cd" points="1016.6,-336.63 1007.43,-341.95 1017.91,-343.51 1016.6,-336.63"/>
</a>
</g>
<text text-anchor="start" x="1202.5" y="-322.9" font-family="Helvetica,sans-Serif" font-size="12.00" fill="grey">variables</text>
</g>
<!-- Node15&#45;&gt;Node14 -->
<g id="edge16_Node000014_Node000015" class="edge">
<title>Node15&#45;&gt;Node14</title>
<g id="a_edge16_Node000014_Node000015"><a xlink:title=" ">
<path fill="none" stroke="#9a32cd" stroke-dasharray="5,2" d="M624.37,-347.48C680.11,-349.7 747.21,-352.37 802.74,-354.59"/>
<polygon fill="#9a32cd" stroke="#9a32cd" points="624.23,-343.97 614.09,-347.07 623.95,-350.96 624.23,-343.97"/>
</a>
</g>
<text text-anchor="start" x="680.5" y="-358.9" font-family="Helvetica,sans-Serif" font-size="12.00" fill="grey">elements</text>
</g>
<!-- Node16&#45;&gt;Node14 -->
<g id="edge18_Node000014_Node000016" class="edge">
<title>Node16&#45;&gt;Node14</title>
<g id="a_edge18_Node000014_Node000016"><a xlink:title=" ">
<path fill="none" stroke="orange" stroke-dasharray="5,2" d="M580.9,-295.26C636.77,-291.76 717.1,-291.18 785,-308 793.68,-310.15 794.81,-313.41 803,-317 823.2,-325.86 845.92,-334.69 865.49,-341.95"/>
<polygon fill="orange" stroke="orange" points="580.5,-291.78 570.76,-295.95 580.97,-298.77 580.5,-291.78"/>
</a>
</g>
<text text-anchor="start" x="635.5" y="-331.4" font-family="Helvetica,sans-Serif" font-size="12.00" fill="grey">&lt; std::string, JKQTPMath</text>
<text text-anchor="start" x="635.5" y="-314.4" font-family="Helvetica,sans-Serif" font-size="12.00" fill="grey">  Parser::jkmpVariable &gt;</text>
</g>
<!-- Node16&#45;&gt;Node18 -->
<g id="edge27_Node000018_Node000016" class="edge">
<title>Node16&#45;&gt;Node18</title>
<g id="a_edge27_Node000018_Node000016"><a xlink:title=" ">
<path fill="none" stroke="orange" stroke-dasharray="5,2" d="M580.83,-294.36C597.57,-292.55 615.42,-290.67 632,-289 842.51,-267.83 895.55,-266.79 1106,-245 1111.86,-244.39 1117.87,-243.76 1123.93,-243.1"/>
<polygon fill="orange" stroke="orange" points="580.14,-290.91 570.57,-295.47 580.89,-297.87 580.14,-290.91"/>
</a>
</g>
<text text-anchor="start" x="810.5" y="-295.4" font-family="Helvetica,sans-Serif" font-size="12.00" fill="grey">&lt; std::string, JKQTPMath</text>
<text text-anchor="start" x="810.5" y="-278.4" font-family="Helvetica,sans-Serif" font-size="12.00" fill="grey">  Parser::jkmpFunctionDescriptor &gt;</text>
</g>
<!-- Node17 -->
<g id="Node000017" class="node">
<title>Node17</title>
<g id="a_Node000017"><a xlink:title=" ">
<polygon fill="white" stroke="#666666" points="249,-414.5 220,-414.5 220,-393.5 249,-393.5 249,-414.5"/>
<text text-anchor="middle" x="234.5" y="-400.9" font-family="Helvetica,sans-Serif" font-size="12.00">K</text>
</a>
</g>
</g>
<!-- Node17&#45;&gt;Node16 -->
<g id="edge19_Node000016_Node000017" class="edge">
<title>Node17&#45;&gt;Node16</title>
<g id="a_edge19_Node000016_Node000017"><a xlink:title=" ">
<path fill="none" stroke="#9a32cd" stroke-dasharray="5,2" d="M259.28,-401C291.76,-395.86 350.49,-382.79 390,-352 401.67,-342.91 395.84,-332.43 408,-324 420.73,-315.18 436.34,-309.8 451.47,-306.54"/>
<polygon fill="#9a32cd" stroke="#9a32cd" points="258.72,-397.54 249.33,-402.45 259.73,-404.47 258.72,-397.54"/>
</a>
</g>
<text text-anchor="start" x="345" y="-387.9" font-family="Helvetica,sans-Serif" font-size="12.00" fill="grey">keys</text>
</g>
<!-- Node18&#45;&gt;Node2 -->
<g id="edge21_Node000002_Node000018" class="edge">
<title>Node18&#45;&gt;Node2</title>
<g id="a_edge21_Node000002_Node000018"><a xlink:title=" ">
<path fill="none" stroke="#9a32cd" stroke-dasharray="5,2" d="M1345.24,-231C1375.14,-231 1406.15,-231 1431.89,-231"/>
<polygon fill="#9a32cd" stroke="#9a32cd" points="1345.15,-227.5 1335.15,-231 1345.15,-234.5 1345.15,-227.5"/>
</a>
</g>
<text text-anchor="start" x="1356.5" y="-236.9" font-family="Helvetica,sans-Serif" font-size="12.00" fill="grey">functions</text>
</g>
<!-- Node19&#45;&gt;Node18 -->
<g id="edge23_Node000018_Node000019" class="edge">
<title>Node19&#45;&gt;Node18</title>
<g id="a_edge23_Node000018_Node000019"><a xlink:title=" ">
<path fill="none" stroke="#9a32cd" stroke-dasharray="5,2" d="M1028.38,-189.37C1054.01,-191.17 1081.03,-193.89 1106,-198 1120.45,-200.38 1135.66,-203.75 1150.26,-207.43"/>
<polygon fill="#9a32cd" stroke="#9a32cd" points="1028.46,-185.86 1018.25,-188.7 1028,-192.85 1028.46,-185.86"/>
</a>
</g>
<text text-anchor="start" x="1047" y="-203.9" font-family="Helvetica,sans-Serif" font-size="12.00" fill="grey">elements</text>
</g>
<!-- Node20&#45;&gt;Node19 -->
<g id="edge24_Node000019_Node000020" class="edge">
<title>Node20&#45;&gt;Node19</title>
<g id="a_edge24_Node000019_Node000020"><a xlink:title=" ">
<path fill="none" stroke="#9a32cd" stroke-dasharray="5,2" d="M604.57,-198.44C613.83,-197.52 623.09,-196.68 632,-196 691.12,-191.51 757.39,-189.03 810.77,-187.66"/>
<polygon fill="#9a32cd" stroke="#9a32cd" points="604.13,-194.97 594.54,-199.48 604.85,-201.93 604.13,-194.97"/>
</a>
</g>
<text text-anchor="start" x="684.5" y="-201.9" font-family="Helvetica,sans-Serif" font-size="12.00" fill="grey">function</text>
</g>
</g>
</svg>

<g id="navigator" transform="translate(0 0)" fill="#404254">
  <rect fill="#f2f5e9" fill-opacity="0.5" stroke="#606060" stroke-width=".5" x="0" y="0" width="60" height="60"/>
  <use id="zoomplus" xlink:href="#zoomPlus" x="17" y="9" onmousedown="handleZoom(evt,'in')"/>
  <use id="zoomminus" xlink:href="#zoomMin" x="42" y="9" onmousedown="handleZoom(evt,'out')"/>
  <use id="reset" xlink:href="#resetDef" x="30" y="36" onmousedown="handleReset()"/>
   <use id="arrowup" xlink:href="#arrowUp" x="0" y="0" onmousedown="handlePan(0,-1)"/>
  <use id="arrowright" xlink:href="#arrowRight" x="0" y="0" onmousedown="handlePan(1,0)"/>
  <use id="arrowdown" xlink:href="#arrowDown" x="0" y="0" onmousedown="handlePan(0,1)"/>
  <use id="arrowleft" xlink:href="#arrowLeft" x="0" y="0" onmousedown="handlePan(-1,0)"/>
</g>
<svg viewBox="0 0 15 15" width="100%" height="30px" preserveAspectRatio="xMaxYMin meet">
 <g id="arrow_out" transform="scale(0.3 0.3)">
  <a xlink:href="class_j_k_q_t_p_math_parser_1_1jkmp_node__coll__graph_org.svg" target="_base">
   <rect id="button" ry="5" rx="5" y="6" x="6" height="38" width="38"
        fill="#f2f5e9" fill-opacity="0.5" stroke="#606060" stroke-width="1.0"/>
   <path id="arrow"
     d="M 11.500037,31.436501 C 11.940474,20.09759 22.043105,11.32322 32.158766,21.979434 L 37.068811,17.246167 C 37.068811,17.246167 37.088388,32 37.088388,32 L 22.160133,31.978069 C 22.160133,31.978069 26.997745,27.140456 26.997745,27.140456 C 18.528582,18.264221 13.291696,25.230495 11.500037,31.436501 z"
     style="fill:#404040;"/>
  </a>
 </g>
</svg>

<style type='text/css'>
<![CDATA[
[data-mouse-over-selected='false'] { opacity: 0.7; }
[data-mouse-over-selected='true']  { opacity: 1.0; }
]]>
</style>
<script type="application/ecmascript"><![CDATA[
document.addEventListener('DOMContentLoaded', (event) => {
  highlightEdges();
  highlightAdjacentNodes();
});
]]></script>
</svg>
