<?xml version="1.0" encoding="UTF-8" standalone="no"?>
<!DOCTYPE svg PUBLIC "-//W3C//DTD SVG 1.1//EN"
 "http://www.w3.org/Graphics/SVG/1.1/DTD/svg11.dtd">
<!-- Generated by graphviz version 2.43.0 (0)
 -->
<!-- Title: JKQTPVectorFieldGraph Pages: 1 -->
<svg width="400pt" height="397pt"
 viewBox="0.00 0.00 399.50 397.00" xmlns="http://www.w3.org/2000/svg" xmlns:xlink="http://www.w3.org/1999/xlink">
<g id="graph0" class="graph" transform="scale(1 1) rotate(0) translate(4 393)">
<title>JKQTPVectorFieldGraph</title>
<!-- Node1 -->
<g id="Node000001" class="node">
<title>Node1</title>
<g id="a_Node000001"><a xlink:title="This graph plots a vector field, i.e. a set of vectors (dx,dy) or (angle,length) at positions (x,...">
<polygon fill="#999999" stroke="#666666" points="263,-91 108,-91 108,-70 263,-70 263,-91"/>
<text text-anchor="middle" x="185.5" y="-77.4" font-family="Helvetica,sans-Serif" font-size="12.00">JKQTPVectorFieldGraph</text>
</a>
</g>
</g>
<!-- Node9 -->
<g id="Node000009" class="node">
<title>Node9</title>
<g id="a_Node000009"><a xlink:href="class_j_k_q_t_p_parametrized_vector_field_graph.html" target="_top" xlink:title="This graph plots a vector field, i.e. a set of vectors (dx,dy) or (angle,length) at positions (x,...">
<polygon fill="white" stroke="#666666" points="285,-34 86,-34 86,0 285,0 285,-34"/>
<text text-anchor="start" x="94" y="-20.4" font-family="Helvetica,sans-Serif" font-size="12.00">JKQTPParametrizedVectorField</text>
<text text-anchor="middle" x="185.5" y="-7.4" font-family="Helvetica,sans-Serif" font-size="12.00">Graph</text>
</a>
</g>
</g>
<!-- Node1&#45;&gt;Node9 -->
<g id="edge8_Node000001_Node000009" class="edge">
<title>Node1&#45;&gt;Node9</title>
<g id="a_edge8_Node000001_Node000009"><a xlink:title=" ">
<path fill="none" stroke="#63b8ff" d="M185.5,-59.77C185.5,-51.61 185.5,-42.26 185.5,-34.48"/>
<polygon fill="#63b8ff" stroke="#63b8ff" points="182,-59.89 185.5,-69.89 189,-59.89 182,-59.89"/>
</a>
</g>
</g>
<!-- Node2 -->
<g id="Node000002" class="node">
<title>Node2</title>
<g id="a_Node000002"><a xlink:href="class_j_k_q_t_p_x_y_and_vector_graph.html" target="_top" xlink:title="This virtual JKQTPGraph descendent extends JKQTPXYGraph with two additional columns that encode for a...">
<polygon fill="white" stroke="#666666" points="167,-154.5 0,-154.5 0,-133.5 167,-133.5 167,-154.5"/>
<text text-anchor="middle" x="83.5" y="-140.9" font-family="Helvetica,sans-Serif" font-size="12.00">JKQTPXYAndVectorGraph</text>
</a>
</g>
</g>
<!-- Node2&#45;&gt;Node1 -->
<g id="edge1_Node000001_Node000002" class="edge">
<title>Node2&#45;&gt;Node1</title>
<g id="a_edge1_Node000001_Node000002"><a xlink:title=" ">
<path fill="none" stroke="#63b8ff" d="M108.21,-128.1C127.34,-116.57 153.25,-100.95 169.67,-91.04"/>
<polygon fill="#63b8ff" stroke="#63b8ff" points="106.19,-125.23 99.44,-133.39 109.81,-131.22 106.19,-125.23"/>
</a>
</g>
</g>
<!-- Node3 -->
<g id="Node000003" class="node">
<title>Node3</title>
<g id="a_Node000003"><a xlink:href="class_j_k_q_t_p_x_y_graph.html" target="_top" xlink:title="This virtual JKQTPGraph descendent may be used as base for all graphs that use at least two columns t...">
<polygon fill="white" stroke="#666666" points="136,-218 31,-218 31,-197 136,-197 136,-218"/>
<text text-anchor="middle" x="83.5" y="-204.4" font-family="Helvetica,sans-Serif" font-size="12.00">JKQTPXYGraph</text>
</a>
</g>
</g>
<!-- Node3&#45;&gt;Node2 -->
<g id="edge2_Node000002_Node000003" class="edge">
<title>Node3&#45;&gt;Node2</title>
<g id="a_edge2_Node000002_Node000003"><a xlink:title=" ">
<path fill="none" stroke="#63b8ff" d="M83.5,-186.75C83.5,-176.05 83.5,-163.31 83.5,-154.74"/>
<polygon fill="#63b8ff" stroke="#63b8ff" points="80,-186.89 83.5,-196.89 87,-186.89 80,-186.89"/>
</a>
</g>
</g>
<!-- Node4 -->
<g id="Node000004" class="node">
<title>Node4</title>
<g id="a_Node000004"><a xlink:href="class_j_k_q_t_p_graph.html" target="_top" xlink:title="this virtual base class of the (data&#45;column based) graphs, which are part of a JKQTPlotter plot and w...">
<polygon fill="white" stroke="#666666" points="128,-275 39,-275 39,-254 128,-254 128,-275"/>
<text text-anchor="middle" x="83.5" y="-261.4" font-family="Helvetica,sans-Serif" font-size="12.00">JKQTPGraph</text>
</a>
</g>
</g>
<!-- Node4&#45;&gt;Node3 -->
<g id="edge3_Node000003_Node000004" class="edge">
<title>Node4&#45;&gt;Node3</title>
<g id="a_edge3_Node000003_Node000004"><a xlink:title=" ">
<path fill="none" stroke="#63b8ff" d="M83.5,-243.86C83.5,-235.2 83.5,-225.42 83.5,-218.34"/>
<polygon fill="#63b8ff" stroke="#63b8ff" points="80,-243.92 83.5,-253.92 87,-243.92 80,-243.92"/>
</a>
</g>
</g>
<!-- Node5 -->
<g id="Node000005" class="node">
<title>Node5</title>
<g id="a_Node000005"><a xlink:href="class_j_k_q_t_p_plot_element.html" target="_top" xlink:title="this virtual base class of every element, which is part of a JKQTPlotter plot and may appear in its k...">
<polygon fill="white" stroke="#666666" points="146,-332 21,-332 21,-311 146,-311 146,-332"/>
<text text-anchor="middle" x="83.5" y="-318.4" font-family="Helvetica,sans-Serif" font-size="12.00">JKQTPPlotElement</text>
</a>
</g>
</g>
<!-- Node5&#45;&gt;Node4 -->
<g id="edge4_Node000004_Node000005" class="edge">
<title>Node5&#45;&gt;Node4</title>
<g id="a_edge4_Node000004_Node000005"><a xlink:title=" ">
<path fill="none" stroke="#63b8ff" d="M83.5,-300.86C83.5,-292.2 83.5,-282.42 83.5,-275.34"/>
<polygon fill="#63b8ff" stroke="#63b8ff" points="80,-300.92 83.5,-310.92 87,-300.92 80,-300.92"/>
</a>
</g>
</g>
<!-- Node6 -->
<g id="Node000006" class="node">
<title>Node6</title>
<g id="a_Node000006"><a xlink:title=" ">
<polygon fill="white" stroke="#666666" points="116,-389 51,-389 51,-368 116,-368 116,-389"/>
<text text-anchor="middle" x="83.5" y="-375.4" font-family="Helvetica,sans-Serif" font-size="12.00">QObject</text>
</a>
</g>
</g>
<!-- Node6&#45;&gt;Node5 -->
<g id="edge5_Node000005_Node000006" class="edge">
<title>Node6&#45;&gt;Node5</title>
<g id="a_edge5_Node000005_Node000006"><a xlink:title=" ">
<path fill="none" stroke="#63b8ff" d="M83.5,-357.86C83.5,-349.2 83.5,-339.42 83.5,-332.34"/>
<polygon fill="#63b8ff" stroke="#63b8ff" points="80,-357.92 83.5,-367.92 87,-357.92 80,-357.92"/>
</a>
</g>
</g>
<!-- Node7 -->
<g id="Node000007" class="node">
<title>Node7</title>
<g id="a_Node000007"><a xlink:href="class_j_k_q_t_p_graph_decorated_line_style_mixin.html" target="_top" xlink:title="This Mix&#45;In class provides setter/getter methods, storage and other facilities for the graph line sty...">
<polygon fill="white" stroke="#666666" points="391.5,-161 185.5,-161 185.5,-127 391.5,-127 391.5,-161"/>
<text text-anchor="start" x="193.5" y="-147.4" font-family="Helvetica,sans-Serif" font-size="12.00">JKQTPGraphDecoratedLineStyle</text>
<text text-anchor="middle" x="288.5" y="-134.4" font-family="Helvetica,sans-Serif" font-size="12.00">Mixin</text>
</a>
</g>
</g>
<!-- Node7&#45;&gt;Node1 -->
<g id="edge6_Node000001_Node000007" class="edge">
<title>Node7&#45;&gt;Node1</title>
<g id="a_edge6_Node000001_Node000007"><a xlink:title=" ">
<path fill="none" stroke="#63b8ff" d="M252.61,-121.57C235.17,-111.16 215.1,-99.17 201.48,-91.04"/>
<polygon fill="#63b8ff" stroke="#63b8ff" points="251.06,-124.72 261.44,-126.84 254.65,-118.71 251.06,-124.72"/>
</a>
</g>
</g>
<!-- Node8 -->
<g id="Node000008" class="node">
<title>Node8</title>
<g id="a_Node000008"><a xlink:href="class_j_k_q_t_p_graph_line_style_mixin.html" target="_top" xlink:title="This Mix&#45;In class provides setter/getter methods, storage and other facilities for the graph line sty...">
<polygon fill="white" stroke="#666666" points="375.5,-218 201.5,-218 201.5,-197 375.5,-197 375.5,-218"/>
<text text-anchor="middle" x="288.5" y="-204.4" font-family="Helvetica,sans-Serif" font-size="12.00">JKQTPGraphLineStyleMixin</text>
</a>
</g>
</g>
<!-- Node8&#45;&gt;Node7 -->
<g id="edge7_Node000007_Node000008" class="edge">
<title>Node8&#45;&gt;Node7</title>
<g id="a_edge7_Node000007_Node000008"><a xlink:title=" ">
<path fill="none" stroke="#63b8ff" d="M288.5,-186.77C288.5,-178.61 288.5,-169.26 288.5,-161.48"/>
<polygon fill="#63b8ff" stroke="#63b8ff" points="285,-186.89 288.5,-196.89 292,-186.89 285,-186.89"/>
</a>
</g>
</g>
</g>
</svg>
