<?xml version="1.0" encoding="UTF-8" standalone="no"?>
<!DOCTYPE svg PUBLIC "-//W3C//DTD SVG 1.1//EN"
 "http://www.w3.org/Graphics/SVG/1.1/DTD/svg11.dtd">
<!-- Generated by graphviz version 2.43.0 (0)
 -->
<!-- Title: JKQTPBoxplotGraphBase Pages: 1 -->
<svg width="560pt" height="257pt"
 viewBox="0.00 0.00 560.00 257.00" xmlns="http://www.w3.org/2000/svg" xmlns:xlink="http://www.w3.org/1999/xlink">
<g id="graph0" class="graph" transform="scale(1 1) rotate(0) translate(4 253)">
<title>JKQTPBoxplotGraphBase</title>
<!-- Node1 -->
<g id="Node000001" class="node">
<title>Node1</title>
<g id="a_Node000001"><a xlink:title="Base class for graphs representing a series of boxplot, elements.">
<polygon fill="#999999" stroke="#666666" points="280.5,-78 117.5,-78 117.5,-57 280.5,-57 280.5,-78"/>
<text text-anchor="middle" x="199" y="-64.4" font-family="Helvetica,sans-Serif" font-size="12.00">JKQTPBoxplotGraphBase</text>
</a>
</g>
</g>
<!-- Node8 -->
<g id="Node000008" class="node">
<title>Node8</title>
<g id="a_Node000008"><a xlink:href="class_j_k_q_t_p_boxplot_horizontal_graph.html" target="_top" xlink:title="This implements horizontal boxplots, optionally also a notched boxplot.">
<polygon fill="white" stroke="#666666" points="194,-21 0,-21 0,0 194,0 194,-21"/>
<text text-anchor="middle" x="97" y="-7.4" font-family="Helvetica,sans-Serif" font-size="12.00">JKQTPBoxplotHorizontalGraph</text>
</a>
</g>
</g>
<!-- Node1&#45;&gt;Node8 -->
<g id="edge7_Node000001_Node000008" class="edge">
<title>Node1&#45;&gt;Node8</title>
<g id="a_edge7_Node000001_Node000008"><a xlink:title=" ">
<path fill="none" stroke="#63b8ff" d="M172.32,-52.12C154.23,-42.36 130.79,-29.72 114.91,-21.16"/>
<polygon fill="#63b8ff" stroke="#63b8ff" points="170.77,-55.25 181.23,-56.92 174.09,-49.09 170.77,-55.25"/>
</a>
</g>
</g>
<!-- Node9 -->
<g id="Node000009" class="node">
<title>Node9</title>
<g id="a_Node000009"><a xlink:href="class_j_k_q_t_p_boxplot_vertical_graph.html" target="_top" xlink:title="This implements vertical boxplots, optionally also a notched boxplot.">
<polygon fill="white" stroke="#666666" points="391.5,-21 212.5,-21 212.5,0 391.5,0 391.5,-21"/>
<text text-anchor="middle" x="302" y="-7.4" font-family="Helvetica,sans-Serif" font-size="12.00">JKQTPBoxplotVerticalGraph</text>
</a>
</g>
</g>
<!-- Node1&#45;&gt;Node9 -->
<g id="edge8_Node000001_Node000009" class="edge">
<title>Node1&#45;&gt;Node9</title>
<g id="a_edge8_Node000001_Node000009"><a xlink:title=" ">
<path fill="none" stroke="#63b8ff" d="M225.94,-52.12C244.21,-42.36 267.87,-29.72 283.92,-21.16"/>
<polygon fill="#63b8ff" stroke="#63b8ff" points="224.11,-49.12 216.94,-56.92 227.41,-55.3 224.11,-49.12"/>
</a>
</g>
</g>
<!-- Node2 -->
<g id="Node000002" class="node">
<title>Node2</title>
<g id="a_Node000002"><a xlink:href="class_j_k_q_t_p_graph.html" target="_top" xlink:title="this virtual base class of the (data&#45;column based) graphs, which are part of a JKQTPlotter plot and w...">
<polygon fill="white" stroke="#666666" points="164.5,-135 75.5,-135 75.5,-114 164.5,-114 164.5,-135"/>
<text text-anchor="middle" x="120" y="-121.4" font-family="Helvetica,sans-Serif" font-size="12.00">JKQTPGraph</text>
</a>
</g>
</g>
<!-- Node2&#45;&gt;Node1 -->
<g id="edge1_Node000001_Node000002" class="edge">
<title>Node2&#45;&gt;Node1</title>
<g id="a_edge1_Node000001_Node000002"><a xlink:title=" ">
<path fill="none" stroke="#63b8ff" d="M142.22,-108.03C156,-98.44 173.28,-86.41 185.13,-78.16"/>
<polygon fill="#63b8ff" stroke="#63b8ff" points="139.97,-105.33 133.76,-113.92 143.97,-111.08 139.97,-105.33"/>
</a>
</g>
</g>
<!-- Node3 -->
<g id="Node000003" class="node">
<title>Node3</title>
<g id="a_Node000003"><a xlink:href="class_j_k_q_t_p_plot_element.html" target="_top" xlink:title="this virtual base class of every element, which is part of a JKQTPlotter plot and may appear in its k...">
<polygon fill="white" stroke="#666666" points="177.5,-192 52.5,-192 52.5,-171 177.5,-171 177.5,-192"/>
<text text-anchor="middle" x="115" y="-178.4" font-family="Helvetica,sans-Serif" font-size="12.00">JKQTPPlotElement</text>
</a>
</g>
</g>
<!-- Node3&#45;&gt;Node2 -->
<g id="edge2_Node000002_Node000003" class="edge">
<title>Node3&#45;&gt;Node2</title>
<g id="a_edge2_Node000002_Node000003"><a xlink:title=" ">
<path fill="none" stroke="#63b8ff" d="M116.79,-160.86C117.57,-152.2 118.46,-142.42 119.11,-135.34"/>
<polygon fill="#63b8ff" stroke="#63b8ff" points="113.29,-160.64 115.87,-170.92 120.26,-161.28 113.29,-160.64"/>
</a>
</g>
</g>
<!-- Node4 -->
<g id="Node000004" class="node">
<title>Node4</title>
<g id="a_Node000004"><a xlink:title=" ">
<polygon fill="white" stroke="#666666" points="147.5,-249 82.5,-249 82.5,-228 147.5,-228 147.5,-249"/>
<text text-anchor="middle" x="115" y="-235.4" font-family="Helvetica,sans-Serif" font-size="12.00">QObject</text>
</a>
</g>
</g>
<!-- Node4&#45;&gt;Node3 -->
<g id="edge3_Node000003_Node000004" class="edge">
<title>Node4&#45;&gt;Node3</title>
<g id="a_edge3_Node000003_Node000004"><a xlink:title=" ">
<path fill="none" stroke="#63b8ff" d="M115,-217.86C115,-209.2 115,-199.42 115,-192.34"/>
<polygon fill="#63b8ff" stroke="#63b8ff" points="111.5,-217.92 115,-227.92 118.5,-217.92 111.5,-217.92"/>
</a>
</g>
</g>
<!-- Node5 -->
<g id="Node000005" class="node">
<title>Node5</title>
<g id="a_Node000005"><a xlink:href="class_j_k_q_t_p_graph_boxplot_style_mixin.html" target="_top" xlink:title="Styling Mix&#45;In for Boxplots.">
<polygon fill="white" stroke="#666666" points="380,-135 186,-135 186,-114 380,-114 380,-135"/>
<text text-anchor="middle" x="283" y="-121.4" font-family="Helvetica,sans-Serif" font-size="12.00">JKQTPGraphBoxplotStyleMixin</text>
</a>
</g>
</g>
<!-- Node5&#45;&gt;Node1 -->
<g id="edge4_Node000001_Node000005" class="edge">
<title>Node5&#45;&gt;Node1</title>
<g id="a_edge4_Node000001_Node000005"><a xlink:title=" ">
<path fill="none" stroke="#63b8ff" d="M259.79,-108.3C245.07,-98.67 226.47,-86.49 213.75,-78.16"/>
<polygon fill="#63b8ff" stroke="#63b8ff" points="258.08,-111.37 268.37,-113.92 261.92,-105.51 258.08,-111.37"/>
</a>
</g>
</g>
<!-- Node6 -->
<g id="Node000006" class="node">
<title>Node6</title>
<g id="a_Node000006"><a xlink:href="class_j_k_q_t_p_graph_line_style_mixin.html" target="_top" xlink:title="This Mix&#45;In class provides setter/getter methods, storage and other facilities for the graph line sty...">
<polygon fill="white" stroke="#666666" points="370,-192 196,-192 196,-171 370,-171 370,-192"/>
<text text-anchor="middle" x="283" y="-178.4" font-family="Helvetica,sans-Serif" font-size="12.00">JKQTPGraphLineStyleMixin</text>
</a>
</g>
</g>
<!-- Node6&#45;&gt;Node5 -->
<g id="edge5_Node000005_Node000006" class="edge">
<title>Node6&#45;&gt;Node5</title>
<g id="a_edge5_Node000005_Node000006"><a xlink:title=" ">
<path fill="none" stroke="#63b8ff" d="M283,-160.86C283,-152.2 283,-142.42 283,-135.34"/>
<polygon fill="#63b8ff" stroke="#63b8ff" points="279.5,-160.92 283,-170.92 286.5,-160.92 279.5,-160.92"/>
</a>
</g>
</g>
<!-- Node7 -->
<g id="Node000007" class="node">
<title>Node7</title>
<g id="a_Node000007"><a xlink:href="class_j_k_q_t_p_graph_fill_style_mixin.html" target="_top" xlink:title="This Mix&#45;In class provides setter/getter methods, storage and other facilities for the graph filling ...">
<polygon fill="white" stroke="#666666" points="552,-192 388,-192 388,-171 552,-171 552,-192"/>
<text text-anchor="middle" x="470" y="-178.4" font-family="Helvetica,sans-Serif" font-size="12.00">JKQTPGraphFillStyleMixin</text>
</a>
</g>
</g>
<!-- Node7&#45;&gt;Node5 -->
<g id="edge6_Node000005_Node000007" class="edge">
<title>Node7&#45;&gt;Node5</title>
<g id="a_edge6_Node000005_Node000007"><a xlink:title=" ">
<path fill="none" stroke="#63b8ff" d="M427.77,-168.08C393.75,-158.07 346.64,-144.22 315.51,-135.06"/>
<polygon fill="#63b8ff" stroke="#63b8ff" points="426.85,-171.46 437.43,-170.92 428.82,-164.74 426.85,-171.46"/>
</a>
</g>
</g>
</g>
</svg>
