<?xml version="1.0" encoding="UTF-8" standalone="no"?>
<!DOCTYPE svg PUBLIC "-//W3C//DTD SVG 1.1//EN"
 "http://www.w3.org/Graphics/SVG/1.1/DTD/svg11.dtd">
<!-- Generated by graphviz version 2.43.0 (0)
 -->
<!-- Title: JKQTPXXYGraph Pages: 1 -->
<svg width="190pt" height="327pt"
 viewBox="0.00 0.00 190.00 327.00" xmlns="http://www.w3.org/2000/svg" xmlns:xlink="http://www.w3.org/1999/xlink">

<svg id="main" version="1.1" xmlns="http://www.w3.org/2000/svg" xmlns:xlink="http://www.w3.org/1999/xlink" xml:space="preserve">

<style type="text/css"><![CDATA[
.node, .edge {opacity: 0.7;}
.node.selected, .edge.selected {opacity: 1;}
.edge:hover path { stroke: red; }
.edge:hover polygon { stroke: red; fill: red; }
]]></style>
<script type="application/ecmascript" xlink:href="svg.min.js"/>
<svg id="graph" class="graph">
<g id="graph0" class="graph" transform="scale(1 1) rotate(0) translate(4 323)">
<title>JKQTPXXYGraph</title>
<!-- Node1 -->
<g id="Node000001" class="node">
<title>Node1</title>
<g id="a_Node000001"><a xlink:title="This virtual JKQTPGraph descendent extends JKQTPXYGraph to two columns for x&#45;values (e....">
<polygon fill="#999999" stroke="#666666" points="147.5,-91 34.5,-91 34.5,-70 147.5,-70 147.5,-91"/>
<text text-anchor="middle" x="91" y="-77.4" font-family="Helvetica,sans-Serif" font-size="12.00">JKQTPXXYGraph</text>
</a>
</g>
</g>
<!-- Node6 -->
<g id="Node000006" class="node">
<title>Node6</title>
<g id="a_Node000006"><a xlink:href="class_j_k_q_t_p_filled_horizontal_range_graph.html" target="_top" xlink:title="This implements filled curve plots where the area is filled between two data columns for each y&#45;value...">
<polygon fill="white" stroke="#666666" points="182,-34 0,-34 0,0 182,0 182,-34"/>
<text text-anchor="start" x="8" y="-20.4" font-family="Helvetica,sans-Serif" font-size="12.00">JKQTPFilledHorizontalRange</text>
<text text-anchor="middle" x="91" y="-7.4" font-family="Helvetica,sans-Serif" font-size="12.00">Graph</text>
</a>
</g>
</g>
<!-- Node1&#45;&gt;Node6 -->
<g id="edge5_Node000001_Node000006" class="edge">
<title>Node1&#45;&gt;Node6</title>
<g id="a_edge5_Node000001_Node000006"><a xlink:title=" ">
<path fill="none" stroke="#63b8ff" d="M91,-59.77C91,-51.61 91,-42.26 91,-34.48"/>
<polygon fill="#63b8ff" stroke="#63b8ff" points="87.5,-59.89 91,-69.89 94.5,-59.89 87.5,-59.89"/>
</a>
</g>
</g>
<!-- Node2 -->
<g id="Node000002" class="node">
<title>Node2</title>
<g id="a_Node000002"><a xlink:href="class_j_k_q_t_p_x_y_graph.html" target="_top" xlink:title="This virtual JKQTPGraph descendent may be used as base for all graphs that use at least two columns t...">
<polygon fill="white" stroke="#666666" points="143.5,-148 38.5,-148 38.5,-127 143.5,-127 143.5,-148"/>
<text text-anchor="middle" x="91" y="-134.4" font-family="Helvetica,sans-Serif" font-size="12.00">JKQTPXYGraph</text>
</a>
</g>
</g>
<!-- Node2&#45;&gt;Node1 -->
<g id="edge1_Node000001_Node000002" class="edge">
<title>Node2&#45;&gt;Node1</title>
<g id="a_edge1_Node000001_Node000002"><a xlink:title=" ">
<path fill="none" stroke="#63b8ff" d="M91,-116.86C91,-108.2 91,-98.42 91,-91.34"/>
<polygon fill="#63b8ff" stroke="#63b8ff" points="87.5,-116.92 91,-126.92 94.5,-116.92 87.5,-116.92"/>
</a>
</g>
</g>
<!-- Node3 -->
<g id="Node000003" class="node">
<title>Node3</title>
<g id="a_Node000003"><a xlink:href="class_j_k_q_t_p_graph.html" target="_top" xlink:title="this virtual base class of the (data&#45;column based) graphs, which are part of a JKQTPlotter plot and w...">
<polygon fill="white" stroke="#666666" points="135.5,-205 46.5,-205 46.5,-184 135.5,-184 135.5,-205"/>
<text text-anchor="middle" x="91" y="-191.4" font-family="Helvetica,sans-Serif" font-size="12.00">JKQTPGraph</text>
</a>
</g>
</g>
<!-- Node3&#45;&gt;Node2 -->
<g id="edge2_Node000002_Node000003" class="edge">
<title>Node3&#45;&gt;Node2</title>
<g id="a_edge2_Node000002_Node000003"><a xlink:title=" ">
<path fill="none" stroke="#63b8ff" d="M91,-173.86C91,-165.2 91,-155.42 91,-148.34"/>
<polygon fill="#63b8ff" stroke="#63b8ff" points="87.5,-173.92 91,-183.92 94.5,-173.92 87.5,-173.92"/>
</a>
</g>
</g>
<!-- Node4 -->
<g id="Node000004" class="node">
<title>Node4</title>
<g id="a_Node000004"><a xlink:href="class_j_k_q_t_p_plot_element.html" target="_top" xlink:title="this virtual base class of every element, which is part of a JKQTPlotter plot and may appear in its k...">
<polygon fill="white" stroke="#666666" points="153.5,-262 28.5,-262 28.5,-241 153.5,-241 153.5,-262"/>
<text text-anchor="middle" x="91" y="-248.4" font-family="Helvetica,sans-Serif" font-size="12.00">JKQTPPlotElement</text>
</a>
</g>
</g>
<!-- Node4&#45;&gt;Node3 -->
<g id="edge3_Node000003_Node000004" class="edge">
<title>Node4&#45;&gt;Node3</title>
<g id="a_edge3_Node000003_Node000004"><a xlink:title=" ">
<path fill="none" stroke="#63b8ff" d="M91,-230.86C91,-222.2 91,-212.42 91,-205.34"/>
<polygon fill="#63b8ff" stroke="#63b8ff" points="87.5,-230.92 91,-240.92 94.5,-230.92 87.5,-230.92"/>
</a>
</g>
</g>
<!-- Node5 -->
<g id="Node000005" class="node">
<title>Node5</title>
<g id="a_Node000005"><a xlink:title=" ">
<polygon fill="white" stroke="#666666" points="123.5,-319 58.5,-319 58.5,-298 123.5,-298 123.5,-319"/>
<text text-anchor="middle" x="91" y="-305.4" font-family="Helvetica,sans-Serif" font-size="12.00">QObject</text>
</a>
</g>
</g>
<!-- Node5&#45;&gt;Node4 -->
<g id="edge4_Node000004_Node000005" class="edge">
<title>Node5&#45;&gt;Node4</title>
<g id="a_edge4_Node000004_Node000005"><a xlink:title=" ">
<path fill="none" stroke="#63b8ff" d="M91,-287.86C91,-279.2 91,-269.42 91,-262.34"/>
<polygon fill="#63b8ff" stroke="#63b8ff" points="87.5,-287.92 91,-297.92 94.5,-287.92 87.5,-287.92"/>
</a>
</g>
</g>
</g>
</svg>
</svg>

<style type='text/css'>
<![CDATA[
[data-mouse-over-selected='false'] { opacity: 0.7; }
[data-mouse-over-selected='true']  { opacity: 1.0; }
]]>
</style>
<script type="application/ecmascript"><![CDATA[
document.addEventListener('DOMContentLoaded', (event) => {
  highlightEdges();
  highlightAdjacentNodes();
});
]]></script>
</svg>
