<?xml version="1.0" encoding="UTF-8" standalone="no"?>
<!DOCTYPE svg PUBLIC "-//W3C//DTD SVG 1.1//EN"
 "http://www.w3.org/Graphics/SVG/1.1/DTD/svg11.dtd">
<!-- Generated by graphviz version 2.43.0 (0)
 -->
<!-- Title: JKQTMathTextWhitespaceNode Pages: 1 -->
<svg width="637pt" height="118pt"
 viewBox="0.00 0.00 637.00 118.00" xmlns="http://www.w3.org/2000/svg" xmlns:xlink="http://www.w3.org/1999/xlink">
<g id="graph0" class="graph" transform="scale(1 1) rotate(0) translate(4 114)">
<title>JKQTMathTextWhitespaceNode</title>
<!-- Node1 -->
<g id="Node000001" class="node">
<title>Node1</title>
<g id="a_Node000001"><a xlink:title="subclass representing one whitepsace node in the syntax tree">
<polygon fill="#999999" stroke="#666666" points="288,-21 88,-21 88,0 288,0 288,-21"/>
<text text-anchor="middle" x="188" y="-7.4" font-family="Helvetica,sans-Serif" font-size="12.00">JKQTMathTextWhitespaceNode</text>
</a>
</g>
</g>
<!-- Node2 -->
<g id="Node000002" class="node">
<title>Node2</title>
<g id="a_Node000002"><a xlink:href="class_j_k_q_t_math_text_node.html" target="_top" xlink:title="subclass representing one node in the syntax tree">
<polygon fill="white" stroke="#666666" points="349.5,-103.5 218.5,-103.5 218.5,-82.5 349.5,-82.5 349.5,-103.5"/>
<text text-anchor="middle" x="284" y="-89.9" font-family="Helvetica,sans-Serif" font-size="12.00">JKQTMathTextNode</text>
</a>
</g>
</g>
<!-- Node2&#45;&gt;Node1 -->
<g id="edge1_Node000001_Node000002" class="edge">
<title>Node2&#45;&gt;Node1</title>
<g id="a_edge1_Node000001_Node000002"><a xlink:title=" ">
<path fill="none" stroke="#63b8ff" d="M264.92,-76C245.34,-59.58 215.53,-34.59 199.37,-21.04"/>
<polygon fill="#63b8ff" stroke="#63b8ff" points="262.7,-78.71 272.61,-82.45 267.2,-73.34 262.7,-78.71"/>
</a>
</g>
</g>
<!-- Node2&#45;&gt;Node2 -->
<g id="edge6_Node000002_Node000002" class="edge">
<title>Node2&#45;&gt;Node2</title>
<g id="a_edge6_Node000002_Node000002"><a xlink:title=" ">
<path fill="none" stroke="#9a32cd" stroke-dasharray="5,2" d="M359.67,-98.85C364.55,-97.48 367.5,-95.53 367.5,-93 367.5,-89.05 360.31,-86.51 349.81,-85.4"/>
<polygon fill="#9a32cd" stroke="#9a32cd" points="359.04,-95.4 349.81,-100.6 360.27,-102.3 359.04,-95.4"/>
</a>
</g>
<text text-anchor="start" x="371" y="-89.4" font-family="Helvetica,sans-Serif" font-size="12.00" fill="grey">parentNode</text>
</g>
<!-- Node3 -->
<g id="Node000003" class="node">
<title>Node3</title>
<g id="a_Node000003"><a xlink:href="class_j_k_q_t_math_text.html" target="_top" xlink:title="this class parses a mathematical markup string and can then draw the contained text/equation onto a Q...">
<polygon fill="white" stroke="#666666" points="462.5,-21 363.5,-21 363.5,0 462.5,0 462.5,-21"/>
<text text-anchor="middle" x="413" y="-7.4" font-family="Helvetica,sans-Serif" font-size="12.00">JKQTMathText</text>
</a>
</g>
</g>
<!-- Node2&#45;&gt;Node3 -->
<g id="edge4_Node000003_Node000002" class="edge">
<title>Node2&#45;&gt;Node3</title>
<g id="a_edge4_Node000003_Node000002"><a xlink:title=" ">
<path fill="none" stroke="#9a32cd" stroke-dasharray="5,2" d="M275.44,-72.6C272.02,-61.6 270.45,-48.24 278,-39 288.78,-25.8 329.39,-18.78 363.28,-15.14"/>
<polygon fill="#9a32cd" stroke="#9a32cd" points="272.26,-74.07 279.05,-82.2 278.81,-71.61 272.26,-74.07"/>
</a>
</g>
<text text-anchor="start" x="281.5" y="-44.9" font-family="Helvetica,sans-Serif" font-size="12.00" fill="grey">parsedNode</text>
</g>
<!-- Node3&#45;&gt;Node2 -->
<g id="edge2_Node000002_Node000003" class="edge">
<title>Node3&#45;&gt;Node2</title>
<g id="a_edge2_Node000002_Node000003"><a xlink:title=" ">
<path fill="none" stroke="#9a32cd" stroke-dasharray="5,2" d="M392.92,-27.74C388.59,-31.37 384.09,-35.26 380,-39 371.18,-47.05 370.85,-51.25 361,-58 346.05,-68.24 327.52,-76.54 312.38,-82.37"/>
<polygon fill="#9a32cd" stroke="#9a32cd" points="395.39,-30.24 400.86,-21.17 390.93,-24.85 395.39,-30.24"/>
</a>
</g>
<text text-anchor="start" x="383" y="-44.9" font-family="Helvetica,sans-Serif" font-size="12.00" fill="grey">parentMathText</text>
</g>
<!-- Node4 -->
<g id="Node000004" class="node">
<title>Node4</title>
<g id="a_Node000004"><a xlink:title=" ">
<polygon fill="white" stroke="#666666" points="530.5,-103.5 465.5,-103.5 465.5,-82.5 530.5,-82.5 530.5,-103.5"/>
<text text-anchor="middle" x="498" y="-89.9" font-family="Helvetica,sans-Serif" font-size="12.00">QObject</text>
</a>
</g>
</g>
<!-- Node4&#45;&gt;Node3 -->
<g id="edge3_Node000003_Node000004" class="edge">
<title>Node4&#45;&gt;Node3</title>
<g id="a_edge3_Node000003_Node000004"><a xlink:title=" ">
<path fill="none" stroke="#63b8ff" d="M497.07,-72.18C495.59,-61.23 492.09,-48.04 484,-39 476.77,-30.92 466.89,-25.2 456.8,-21.15"/>
<polygon fill="#63b8ff" stroke="#63b8ff" points="493.59,-72.51 497.97,-82.16 500.56,-71.88 493.59,-72.51"/>
</a>
</g>
</g>
<!-- Node5 -->
<g id="Node000005" class="node">
<title>Node5</title>
<g id="a_Node000005"><a xlink:title=" ">
<polygon fill="white" stroke="#666666" points="629,-103.5 549,-103.5 549,-82.5 629,-82.5 629,-103.5"/>
<text text-anchor="middle" x="589" y="-89.9" font-family="Helvetica,sans-Serif" font-size="12.00">std::mutex</text>
</a>
</g>
</g>
<!-- Node5&#45;&gt;Node3 -->
<g id="edge5_Node000003_Node000005" class="edge">
<title>Node5&#45;&gt;Node3</title>
<g id="a_edge5_Node000003_Node000005"><a xlink:title=" ">
<path fill="none" stroke="#9a32cd" stroke-dasharray="5,2" d="M567.05,-76.52C549.94,-64.99 525.26,-49.48 502,-39 485.93,-31.76 467.41,-25.7 451.44,-21.12"/>
<polygon fill="#9a32cd" stroke="#9a32cd" points="565.49,-79.69 575.71,-82.46 569.45,-73.92 565.49,-79.69"/>
</a>
</g>
<text text-anchor="start" x="539.5" y="-44.9" font-family="Helvetica,sans-Serif" font-size="12.00" fill="grey">s_mutex</text>
</g>
<!-- Node6 -->
<g id="Node000006" class="node">
<title>Node6</title>
<g id="a_Node000006"><a xlink:href="struct_j_k_q_t_math_text_whitespace_node_1_1_whitespace_props.html" target="_top" xlink:title="describes a whitespace">
<polygon fill="white" stroke="#666666" points="200,-110 0,-110 0,-76 200,-76 200,-110"/>
<text text-anchor="start" x="8" y="-96.4" font-family="Helvetica,sans-Serif" font-size="12.00">JKQTMathTextWhitespaceNode</text>
<text text-anchor="middle" x="100" y="-83.4" font-family="Helvetica,sans-Serif" font-size="12.00">::WhitespaceProps</text>
</a>
</g>
</g>
<!-- Node6&#45;&gt;Node1 -->
<g id="edge7_Node000001_Node000006" class="edge">
<title>Node6&#45;&gt;Node1</title>
<g id="a_edge7_Node000001_Node000006"><a xlink:title=" ">
<path fill="none" stroke="#9a32cd" stroke-dasharray="5,2" d="M110.83,-66.77C115.89,-57.17 122.66,-46.7 131,-39 139.31,-31.32 150.17,-25.37 160.17,-21"/>
<polygon fill="#9a32cd" stroke="#9a32cd" points="107.6,-65.42 106.35,-75.94 113.89,-68.49 107.6,-65.42"/>
</a>
</g>
<text text-anchor="start" x="134" y="-44.9" font-family="Helvetica,sans-Serif" font-size="12.00" fill="grey">whitespace</text>
</g>
</g>
</svg>
