<?xml version="1.0" encoding="UTF-8" standalone="no"?>
<!DOCTYPE svg PUBLIC "-//W3C//DTD SVG 1.1//EN"
 "http://www.w3.org/Graphics/SVG/1.1/DTD/svg11.dtd">
<!-- Generated by graphviz version 2.43.0 (0)
 -->
<!-- Title: JKQTMathTextNonDrawingBaseNode Pages: 1 -->
<svg width="506pt" height="105pt"
 viewBox="0.00 0.00 505.50 105.00" xmlns="http://www.w3.org/2000/svg" xmlns:xlink="http://www.w3.org/1999/xlink">
<g id="graph0" class="graph" transform="scale(1 1) rotate(0) translate(4 101)">
<title>JKQTMathTextNonDrawingBaseNode</title>
<!-- Node1 -->
<g id="Node000001" class="node">
<title>Node1</title>
<g id="a_Node000001"><a xlink:title="base class for all derived classes that do not draw anything">
<polygon fill="#999999" stroke="#666666" points="233,-21 0,-21 0,0 233,0 233,-21"/>
<text text-anchor="middle" x="116.5" y="-7.4" font-family="Helvetica,sans-Serif" font-size="12.00">JKQTMathTextNonDrawingBaseNode</text>
</a>
</g>
</g>
<!-- Node2 -->
<g id="Node000002" class="node">
<title>Node2</title>
<g id="a_Node000002"><a xlink:href="class_j_k_q_t_math_text_node.html" target="_top" xlink:title="subclass representing one node in the syntax tree">
<polygon fill="white" stroke="#666666" points="215,-97 84,-97 84,-76 215,-76 215,-97"/>
<text text-anchor="middle" x="149.5" y="-83.4" font-family="Helvetica,sans-Serif" font-size="12.00">JKQTMathTextNode</text>
</a>
</g>
</g>
<!-- Node2&#45;&gt;Node1 -->
<g id="edge1_Node000001_Node000002" class="edge">
<title>Node2&#45;&gt;Node1</title>
<g id="a_edge1_Node000001_Node000002"><a xlink:title=" ">
<path fill="none" stroke="#63b8ff" d="M135.8,-67.34C133.86,-64.31 132.01,-61.14 130.5,-58 124.65,-45.84 120.64,-30.72 118.46,-21.08"/>
<polygon fill="#63b8ff" stroke="#63b8ff" points="133.08,-69.57 141.67,-75.78 138.83,-65.57 133.08,-69.57"/>
</a>
</g>
</g>
<!-- Node2&#45;&gt;Node2 -->
<g id="edge6_Node000002_Node000002" class="edge">
<title>Node2&#45;&gt;Node2</title>
<g id="a_edge6_Node000002_Node000002"><a xlink:title=" ">
<path fill="none" stroke="#9a32cd" stroke-dasharray="5,2" d="M225.52,-91.46C230.19,-90.29 233,-88.63 233,-86.5 233,-83.09 225.81,-80.9 215.31,-79.94"/>
<polygon fill="#9a32cd" stroke="#9a32cd" points="224.65,-88.06 215.31,-93.06 225.73,-94.97 224.65,-88.06"/>
</a>
</g>
<text text-anchor="start" x="236.5" y="-82.9" font-family="Helvetica,sans-Serif" font-size="12.00" fill="grey">parentNode</text>
</g>
<!-- Node3 -->
<g id="Node000003" class="node">
<title>Node3</title>
<g id="a_Node000003"><a xlink:href="class_j_k_q_t_math_text.html" target="_top" xlink:title="this class parses a mathematical markup string and can then draw the contained text/equation onto a Q...">
<polygon fill="white" stroke="#666666" points="383,-21 284,-21 284,0 383,0 383,-21"/>
<text text-anchor="middle" x="333.5" y="-7.4" font-family="Helvetica,sans-Serif" font-size="12.00">JKQTMathText</text>
</a>
</g>
</g>
<!-- Node2&#45;&gt;Node3 -->
<g id="edge4_Node000003_Node000002" class="edge">
<title>Node2&#45;&gt;Node3</title>
<g id="a_edge4_Node000003_Node000002"><a xlink:title=" ">
<path fill="none" stroke="#9a32cd" stroke-dasharray="5,2" d="M142.38,-65.8C140.41,-56.65 140.27,-46.22 146.5,-39 151,-33.78 230.13,-23.57 284,-17.17"/>
<polygon fill="#9a32cd" stroke="#9a32cd" points="139.1,-67.07 145.26,-75.69 145.82,-65.11 139.1,-67.07"/>
</a>
</g>
<text text-anchor="start" x="150" y="-44.9" font-family="Helvetica,sans-Serif" font-size="12.00" fill="grey">parsedNode</text>
</g>
<!-- Node3&#45;&gt;Node2 -->
<g id="edge2_Node000002_Node000003" class="edge">
<title>Node3&#45;&gt;Node2</title>
<g id="a_edge2_Node000002_Node000003"><a xlink:title=" ">
<path fill="none" stroke="#9a32cd" stroke-dasharray="5,2" d="M281,-24.19C269.83,-28.05 258.43,-32.93 248.5,-39 238.31,-45.23 239.63,-51.67 229.5,-58 217.04,-65.78 202.11,-71.68 188.54,-75.98"/>
<polygon fill="#9a32cd" stroke="#9a32cd" points="282.27,-27.46 290.71,-21.06 280.12,-20.8 282.27,-27.46"/>
</a>
</g>
<text text-anchor="start" x="251.5" y="-44.9" font-family="Helvetica,sans-Serif" font-size="12.00" fill="grey">parentMathText</text>
</g>
<!-- Node4 -->
<g id="Node000004" class="node">
<title>Node4</title>
<g id="a_Node000004"><a xlink:title=" ">
<polygon fill="white" stroke="#666666" points="399,-97 334,-97 334,-76 399,-76 399,-97"/>
<text text-anchor="middle" x="366.5" y="-83.4" font-family="Helvetica,sans-Serif" font-size="12.00">QObject</text>
</a>
</g>
</g>
<!-- Node4&#45;&gt;Node3 -->
<g id="edge3_Node000003_Node000004" class="edge">
<title>Node4&#45;&gt;Node3</title>
<g id="a_edge3_Node000003_Node000004"><a xlink:title=" ">
<path fill="none" stroke="#63b8ff" d="M362.11,-66.1C359.81,-57.56 356.61,-47.55 352.5,-39 349.48,-32.73 345.12,-26.29 341.33,-21.22"/>
<polygon fill="#63b8ff" stroke="#63b8ff" points="358.74,-67.05 364.54,-75.92 365.53,-65.37 358.74,-67.05"/>
</a>
</g>
</g>
<!-- Node5 -->
<g id="Node000005" class="node">
<title>Node5</title>
<g id="a_Node000005"><a xlink:title=" ">
<polygon fill="white" stroke="#666666" points="497.5,-97 417.5,-97 417.5,-76 497.5,-76 497.5,-97"/>
<text text-anchor="middle" x="457.5" y="-83.4" font-family="Helvetica,sans-Serif" font-size="12.00">std::mutex</text>
</a>
</g>
</g>
<!-- Node5&#45;&gt;Node3 -->
<g id="edge5_Node000003_Node000005" class="edge">
<title>Node5&#45;&gt;Node3</title>
<g id="a_edge5_Node000003_Node000005"><a xlink:title=" ">
<path fill="none" stroke="#9a32cd" stroke-dasharray="5,2" d="M432.77,-70.74C408.11,-56.03 370.95,-33.85 349.79,-21.22"/>
<polygon fill="#9a32cd" stroke="#9a32cd" points="431.16,-73.86 441.54,-75.98 434.75,-67.85 431.16,-73.86"/>
</a>
</g>
<text text-anchor="start" x="413" y="-44.9" font-family="Helvetica,sans-Serif" font-size="12.00" fill="grey">s_mutex</text>
</g>
</g>
</svg>
