<?xml version="1.0" encoding="UTF-8" standalone="no"?>
<!DOCTYPE svg PUBLIC "-//W3C//DTD SVG 1.1//EN"
 "http://www.w3.org/Graphics/SVG/1.1/DTD/svg11.dtd">
<!-- Generated by graphviz version 2.43.0 (0)
 -->
<!-- Title: JKQTMathTextLabel Pages: 1 -->
<svg width="430pt" height="181pt"
 viewBox="0.00 0.00 430.00 181.00" xmlns="http://www.w3.org/2000/svg" xmlns:xlink="http://www.w3.org/1999/xlink">
<g id="graph0" class="graph" transform="scale(1 1) rotate(0) translate(4 177)">
<title>JKQTMathTextLabel</title>
<!-- Node1 -->
<g id="Node000001" class="node">
<title>Node1</title>
<g id="a_Node000001"><a xlink:title="A QLabel&#45;derived class that draws an equation with LaTeX markup using JKQTMathText.">
<polygon fill="#999999" stroke="#666666" points="131,-21 0,-21 0,0 131,0 131,-21"/>
<text text-anchor="middle" x="65.5" y="-7.4" font-family="Helvetica,sans-Serif" font-size="12.00">JKQTMathTextLabel</text>
</a>
</g>
</g>
<!-- Node2 -->
<g id="Node000002" class="node">
<title>Node2</title>
<g id="a_Node000002"><a xlink:title=" ">
<polygon fill="white" stroke="#666666" points="79,-97 20,-97 20,-76 79,-76 79,-97"/>
<text text-anchor="middle" x="49.5" y="-83.4" font-family="Helvetica,sans-Serif" font-size="12.00">QLabel</text>
</a>
</g>
</g>
<!-- Node2&#45;&gt;Node1 -->
<g id="edge1_Node000001_Node000002" class="edge">
<title>Node2&#45;&gt;Node1</title>
<g id="a_edge1_Node000001_Node000002"><a xlink:title=" ">
<path fill="none" stroke="#63b8ff" d="M53.73,-65.95C56.83,-51.62 60.9,-32.76 63.36,-21.41"/>
<polygon fill="#63b8ff" stroke="#63b8ff" points="50.28,-65.31 51.59,-75.83 57.13,-66.79 50.28,-65.31"/>
</a>
</g>
</g>
<!-- Node3 -->
<g id="Node000003" class="node">
<title>Node3</title>
<g id="a_Node000003"><a xlink:href="class_j_k_q_t_math_text.html" target="_top" xlink:title="this class parses a mathematical markup string and can then draw the contained text/equation onto a Q...">
<polygon fill="white" stroke="#666666" points="235,-97 136,-97 136,-76 235,-76 235,-97"/>
<text text-anchor="middle" x="185.5" y="-83.4" font-family="Helvetica,sans-Serif" font-size="12.00">JKQTMathText</text>
</a>
</g>
</g>
<!-- Node3&#45;&gt;Node1 -->
<g id="edge2_Node000001_Node000003" class="edge">
<title>Node3&#45;&gt;Node1</title>
<g id="a_edge2_Node000001_Node000003"><a xlink:title=" ">
<path fill="none" stroke="#9a32cd" stroke-dasharray="5,2" d="M125.9,-74.23C114.75,-70.32 103.72,-65.06 94.5,-58 81.96,-48.4 73.49,-31.7 69.08,-21.14"/>
<polygon fill="#9a32cd" stroke="#9a32cd" points="125.09,-77.64 135.68,-77.33 127.21,-70.97 125.09,-77.64"/>
</a>
</g>
<text text-anchor="start" x="97.5" y="-44.9" font-family="Helvetica,sans-Serif" font-size="12.00" fill="grey">m_mathText</text>
</g>
<!-- Node5 -->
<g id="Node000005" class="node">
<title>Node5</title>
<g id="a_Node000005"><a xlink:href="class_j_k_q_t_math_text_node.html" target="_top" xlink:title="subclass representing one node in the syntax tree">
<polygon fill="white" stroke="#666666" points="327,-21 196,-21 196,0 327,0 327,-21"/>
<text text-anchor="middle" x="261.5" y="-7.4" font-family="Helvetica,sans-Serif" font-size="12.00">JKQTMathTextNode</text>
</a>
</g>
</g>
<!-- Node3&#45;&gt;Node5 -->
<g id="edge5_Node000005_Node000003" class="edge">
<title>Node3&#45;&gt;Node5</title>
<g id="a_edge5_Node000005_Node000003"><a xlink:title=" ">
<path fill="none" stroke="#9a32cd" stroke-dasharray="5,2" d="M179,-66.29C177.17,-57.25 176.98,-46.77 182.5,-39 188.31,-30.83 196.72,-25.07 205.92,-21.01"/>
<polygon fill="#9a32cd" stroke="#9a32cd" points="175.64,-67.26 181.64,-75.99 182.39,-65.42 175.64,-67.26"/>
</a>
</g>
<text text-anchor="start" x="185.5" y="-44.9" font-family="Helvetica,sans-Serif" font-size="12.00" fill="grey">parentMathText</text>
</g>
<!-- Node4 -->
<g id="Node000004" class="node">
<title>Node4</title>
<g id="a_Node000004"><a xlink:title=" ">
<polygon fill="white" stroke="#666666" points="173,-173 108,-173 108,-152 173,-152 173,-173"/>
<text text-anchor="middle" x="140.5" y="-159.4" font-family="Helvetica,sans-Serif" font-size="12.00">QObject</text>
</a>
</g>
</g>
<!-- Node4&#45;&gt;Node3 -->
<g id="edge3_Node000003_Node000004" class="edge">
<title>Node4&#45;&gt;Node3</title>
<g id="a_edge3_Node000003_Node000004"><a xlink:title=" ">
<path fill="none" stroke="#63b8ff" d="M151.63,-143.2C160.42,-128.73 172.37,-109.09 179.47,-97.41"/>
<polygon fill="#63b8ff" stroke="#63b8ff" points="148.59,-141.46 146.38,-151.83 154.57,-145.1 148.59,-141.46"/>
</a>
</g>
</g>
<!-- Node5&#45;&gt;Node3 -->
<g id="edge4_Node000003_Node000005" class="edge">
<title>Node5&#45;&gt;Node3</title>
<g id="a_edge4_Node000003_Node000005"><a xlink:title=" ">
<path fill="none" stroke="#9a32cd" stroke-dasharray="5,2" d="M280.14,-28.69C287.77,-37.82 293.39,-48.99 286.5,-58 279.88,-66.66 257.27,-73.25 235.12,-77.8"/>
<polygon fill="#9a32cd" stroke="#9a32cd" points="282.57,-26.17 273.17,-21.3 277.48,-30.97 282.57,-26.17"/>
</a>
</g>
<text text-anchor="start" x="293" y="-44.9" font-family="Helvetica,sans-Serif" font-size="12.00" fill="grey">parsedNode</text>
</g>
<!-- Node5&#45;&gt;Node5 -->
<g id="edge6_Node000005_Node000005" class="edge">
<title>Node5&#45;&gt;Node5</title>
<g id="a_edge6_Node000005_Node000005"><a xlink:title=" ">
<path fill="none" stroke="#9a32cd" stroke-dasharray="5,2" d="M337.52,-15.46C342.19,-14.29 345,-12.63 345,-10.5 345,-7.09 337.81,-4.9 327.31,-3.94"/>
<polygon fill="#9a32cd" stroke="#9a32cd" points="336.65,-12.06 327.31,-17.06 337.73,-18.97 336.65,-12.06"/>
</a>
</g>
<text text-anchor="start" x="348.5" y="-6.9" font-family="Helvetica,sans-Serif" font-size="12.00" fill="grey">parentNode</text>
</g>
<!-- Node6 -->
<g id="Node000006" class="node">
<title>Node6</title>
<g id="a_Node000006"><a xlink:title=" ">
<polygon fill="white" stroke="#666666" points="271.5,-173 191.5,-173 191.5,-152 271.5,-152 271.5,-173"/>
<text text-anchor="middle" x="231.5" y="-159.4" font-family="Helvetica,sans-Serif" font-size="12.00">std::mutex</text>
</a>
</g>
</g>
<!-- Node6&#45;&gt;Node3 -->
<g id="edge7_Node000003_Node000006" class="edge">
<title>Node6&#45;&gt;Node3</title>
<g id="a_edge7_Node000003_Node000006"><a xlink:title=" ">
<path fill="none" stroke="#9a32cd" stroke-dasharray="5,2" d="M220.13,-143.2C211.13,-128.73 198.92,-109.09 191.66,-97.41"/>
<polygon fill="#9a32cd" stroke="#9a32cd" points="217.23,-145.18 225.49,-151.83 223.18,-141.49 217.23,-145.18"/>
</a>
</g>
<text text-anchor="start" x="217" y="-120.9" font-family="Helvetica,sans-Serif" font-size="12.00" fill="grey">s_mutex</text>
</g>
</g>
</svg>
