<?xml version="1.0" encoding="UTF-8" standalone="no"?>
<!DOCTYPE svg PUBLIC "-//W3C//DTD SVG 1.1//EN"
 "http://www.w3.org/Graphics/SVG/1.1/DTD/svg11.dtd">
<!-- Generated by graphviz version 2.43.0 (0)
 -->
<!-- Title: JKQTPDatastore Pages: 1 -->
<svg width="409pt" height="181pt"
 viewBox="0.00 0.00 409.00 181.00" xmlns="http://www.w3.org/2000/svg" xmlns:xlink="http://www.w3.org/1999/xlink">

<svg id="main" version="1.1" xmlns="http://www.w3.org/2000/svg" xmlns:xlink="http://www.w3.org/1999/xlink" xml:space="preserve">

<style type="text/css"><![CDATA[
.node, .edge {opacity: 0.7;}
.node.selected, .edge.selected {opacity: 1;}
.edge:hover path { stroke: red; }
.edge:hover polygon { stroke: red; fill: red; }
]]></style>
<script type="application/ecmascript" xlink:href="svg.min.js"/>
<svg id="graph" class="graph">
<g id="graph0" class="graph" transform="scale(1 1) rotate(0) translate(4 177)">
<title>JKQTPDatastore</title>
<!-- Node1 -->
<g id="Node000001" class="node">
<title>Node1</title>
<g id="a_Node000001"><a xlink:title="This class manages data columns (with entries of type double ), used by JKQTPlotter/JKQTBasePlotter t...">
<polygon fill="#999999" stroke="#666666" points="146.5,-173 35.5,-173 35.5,-152 146.5,-152 146.5,-173"/>
<text text-anchor="middle" x="91" y="-159.4" font-family="Helvetica,sans-Serif" font-size="12.00">JKQTPDatastore</text>
</a>
</g>
</g>
<!-- Node3 -->
<g id="Node000003" class="node">
<title>Node3</title>
<g id="a_Node000003"><a xlink:href="class_j_k_q_t_p_column.html" target="_top" xlink:title="internally stores information about one data column. See JKQTPDatastore for more information.">
<polygon fill="white" stroke="#666666" points="98,-97 0,-97 0,-76 98,-76 98,-97"/>
<text text-anchor="middle" x="49" y="-83.4" font-family="Helvetica,sans-Serif" font-size="12.00">JKQTPColumn</text>
</a>
</g>
</g>
<!-- Node1&#45;&gt;Node3 -->
<g id="edge3_Node000003_Node000001" class="edge">
<title>Node1&#45;&gt;Node3</title>
<g id="a_edge3_Node000003_Node000001"><a xlink:title=" ">
<path fill="none" stroke="#9a32cd" stroke-dasharray="5,2" d="M65.69,-145.53C61.93,-142.15 58.49,-138.28 56,-134 49.35,-122.57 48.31,-106.98 48.45,-97.08"/>
<polygon fill="#9a32cd" stroke="#9a32cd" points="63.62,-148.35 73.64,-151.79 67.95,-142.85 63.62,-148.35"/>
</a>
</g>
<text text-anchor="start" x="59" y="-120.9" font-family="Helvetica,sans-Serif" font-size="12.00" fill="grey">datastore</text>
</g>
<!-- Node2 -->
<g id="Node000002" class="node">
<title>Node2</title>
<g id="a_Node000002"><a xlink:title=" ">
<polygon fill="white" stroke="#666666" points="241.5,-21 26.5,-21 26.5,0 241.5,0 241.5,-21"/>
<text text-anchor="middle" x="134" y="-7.4" font-family="Helvetica,sans-Serif" font-size="12.00">std::unique_ptr&lt; JKQTPColumn &gt;</text>
</a>
</g>
</g>
<!-- Node2&#45;&gt;Node1 -->
<g id="edge1_Node000001_Node000002" class="edge">
<title>Node2&#45;&gt;Node1</title>
<g id="a_edge1_Node000001_Node000002"><a xlink:title=" ">
<path fill="none" stroke="#9a32cd" stroke-dasharray="5,2" d="M135.74,-31.14C137.12,-56.35 136.58,-100.78 120,-134 116.53,-140.95 110.55,-147.09 104.91,-151.79"/>
<polygon fill="#9a32cd" stroke="#9a32cd" points="139.22,-30.75 135.03,-21.02 132.24,-31.24 139.22,-30.75"/>
</a>
</g>
<text text-anchor="start" x="138.5" y="-82.9" font-family="Helvetica,sans-Serif" font-size="12.00" fill="grey">m_invalidColumn</text>
</g>
<!-- Node3&#45;&gt;Node2 -->
<g id="edge2_Node000002_Node000003" class="edge">
<title>Node3&#45;&gt;Node2</title>
<g id="a_edge2_Node000002_Node000003"><a xlink:title=" ">
<path fill="none" stroke="#9a32cd" stroke-dasharray="5,2" d="M65,-68.45C73.82,-59.36 85.17,-48.19 96,-39 103.45,-32.68 112.27,-26.24 119.53,-21.19"/>
<polygon fill="#9a32cd" stroke="#9a32cd" points="62.35,-66.15 57.96,-75.8 67.4,-70.99 62.35,-66.15"/>
</a>
</g>
<text text-anchor="start" x="99" y="-44.9" font-family="Helvetica,sans-Serif" font-size="12.00" fill="grey">ptr</text>
</g>
<!-- Node4 -->
<g id="Node000004" class="node">
<title>Node4</title>
<g id="a_Node000004"><a xlink:title=" ">
<polygon fill="white" stroke="#666666" points="401,-97 261,-97 261,-76 401,-76 401,-97"/>
<text text-anchor="middle" x="331" y="-83.4" font-family="Helvetica,sans-Serif" font-size="12.00">std::unique_ptr&lt; T &gt;</text>
</a>
</g>
</g>
<!-- Node4&#45;&gt;Node2 -->
<g id="edge4_Node000002_Node000004" class="edge">
<title>Node4&#45;&gt;Node2</title>
<g id="a_edge4_Node000002_Node000004"><a xlink:title=" ">
<path fill="none" stroke="orange" stroke-dasharray="5,2" d="M296.24,-72.44C257.11,-57.74 194.46,-34.21 159.57,-21.1"/>
<polygon fill="orange" stroke="orange" points="295.06,-75.74 305.65,-75.98 297.52,-69.18 295.06,-75.74"/>
</a>
</g>
<text text-anchor="start" x="258.5" y="-44.9" font-family="Helvetica,sans-Serif" font-size="12.00" fill="grey">&lt; JKQTPColumn &gt;</text>
</g>
<!-- Node5 -->
<g id="Node000005" class="node">
<title>Node5</title>
<g id="a_Node000005"><a xlink:title=" ">
<polygon fill="white" stroke="#666666" points="345.5,-173 316.5,-173 316.5,-152 345.5,-152 345.5,-173"/>
<text text-anchor="middle" x="331" y="-159.4" font-family="Helvetica,sans-Serif" font-size="12.00">T</text>
</a>
</g>
</g>
<!-- Node5&#45;&gt;Node4 -->
<g id="edge5_Node000004_Node000005" class="edge">
<title>Node5&#45;&gt;Node4</title>
<g id="a_edge5_Node000004_Node000005"><a xlink:title=" ">
<path fill="none" stroke="#9a32cd" stroke-dasharray="5,2" d="M331,-141.53C331,-127.25 331,-108.65 331,-97.41"/>
<polygon fill="#9a32cd" stroke="#9a32cd" points="327.5,-141.83 331,-151.83 334.5,-141.83 327.5,-141.83"/>
</a>
</g>
<text text-anchor="start" x="334" y="-120.9" font-family="Helvetica,sans-Serif" font-size="12.00" fill="grey">ptr</text>
</g>
</g>
</svg>
</svg>

<style type='text/css'>
<![CDATA[
[data-mouse-over-selected='false'] { opacity: 0.7; }
[data-mouse-over-selected='true']  { opacity: 1.0; }
]]>
</style>
<script type="application/ecmascript"><![CDATA[
document.addEventListener('DOMContentLoaded', (event) => {
  highlightEdges();
  highlightAdjacentNodes();
});
]]></script>
</svg>
