<?xml version="1.0" encoding="UTF-8" standalone="no"?>
<!DOCTYPE svg PUBLIC "-//W3C//DTD SVG 1.1//EN"
 "http://www.w3.org/Graphics/SVG/1.1/DTD/svg11.dtd">
<!-- Generated by graphviz version 2.43.0 (0)
 -->
<!-- Title: JKQTPEvaluatedFunctionGraphBase Pages: 1 -->
<svg width="1574pt" height="173pt"
 viewBox="0.00 0.00 1574.00 172.50" xmlns="http://www.w3.org/2000/svg" xmlns:xlink="http://www.w3.org/1999/xlink">
<g id="graph0" class="graph" transform="scale(1 1) rotate(0) translate(4 168.5)">
<title>JKQTPEvaluatedFunctionGraphBase</title>
<!-- Node1 -->
<g id="Node000001" class="node">
<title>Node1</title>
<g id="a_Node000001"><a xlink:title="Base class for graph classes that evaluate a mathematical function (e.g. defined as a C&#45;function),...">
<polygon fill="#999999" stroke="#666666" points="615,-79.5 387,-79.5 387,-58.5 615,-58.5 615,-79.5"/>
<text text-anchor="middle" x="501" y="-65.9" font-family="Helvetica,sans-Serif" font-size="12.00">JKQTPEvaluatedFunctionGraphBase</text>
</a>
</g>
</g>
<!-- Node5 -->
<g id="Node000005" class="node">
<title>Node5</title>
<g id="a_Node000005"><a xlink:href="class_j_k_q_t_p_evaluated_function_with_errors_graph_base.html" target="_top" xlink:title="extends JKQTPEvaluatedFunctionGraphBase with some basic properties (e.g. function parameters) for a s...">
<polygon fill="white" stroke="#666666" points="849.5,-109 661.5,-109 661.5,-75 849.5,-75 849.5,-109"/>
<text text-anchor="start" x="669.5" y="-95.4" font-family="Helvetica,sans-Serif" font-size="12.00">JKQTPEvaluatedFunctionWith</text>
<text text-anchor="middle" x="755.5" y="-82.4" font-family="Helvetica,sans-Serif" font-size="12.00">ErrorsGraphBase</text>
</a>
</g>
</g>
<!-- Node1&#45;&gt;Node5 -->
<g id="edge4_Node000001_Node000005" class="edge">
<title>Node1&#45;&gt;Node5</title>
<g id="a_edge4_Node000001_Node000005"><a xlink:title=" ">
<path fill="none" stroke="#63b8ff" d="M625.42,-80.24C637.46,-81.34 649.53,-82.44 661.2,-83.5"/>
<polygon fill="#63b8ff" stroke="#63b8ff" points="625.6,-76.74 615.32,-79.32 624.97,-83.72 625.6,-76.74"/>
</a>
</g>
</g>
<!-- Node13 -->
<g id="Node000013" class="node">
<title>Node13</title>
<g id="a_Node000013"><a xlink:href="class_j_k_q_t_p_x_y_function_line_graph_base.html" target="_top" xlink:title="Base class for line plots where the data is taken from a user supplied function &#160;The function is eval...">
<polygon fill="white" stroke="#666666" points="860,-56.5 651,-56.5 651,-35.5 860,-35.5 860,-56.5"/>
<text text-anchor="middle" x="755.5" y="-42.9" font-family="Helvetica,sans-Serif" font-size="12.00">JKQTPXYFunctionLineGraphBase</text>
</a>
</g>
</g>
<!-- Node1&#45;&gt;Node13 -->
<g id="edge12_Node000001_Node000013" class="edge">
<title>Node1&#45;&gt;Node13</title>
<g id="a_edge12_Node000001_Node000013"><a xlink:title=" ">
<path fill="none" stroke="#63b8ff" d="M625.31,-57.77C633.83,-56.99 642.36,-56.21 650.76,-55.45"/>
<polygon fill="#63b8ff" stroke="#63b8ff" points="624.97,-54.28 615.32,-58.68 625.6,-61.26 624.97,-54.28"/>
</a>
</g>
</g>
<!-- Node2 -->
<g id="Node000002" class="node">
<title>Node2</title>
<g id="a_Node000002"><a xlink:href="class_j_k_q_t_p_graph.html" target="_top" xlink:title="this virtual base class of the (data&#45;column based) graphs, which are part of a JKQTPlotter plot and w...">
<polygon fill="white" stroke="#666666" points="351,-79.5 262,-79.5 262,-58.5 351,-58.5 351,-79.5"/>
<text text-anchor="middle" x="306.5" y="-65.9" font-family="Helvetica,sans-Serif" font-size="12.00">JKQTPGraph</text>
</a>
</g>
</g>
<!-- Node2&#45;&gt;Node1 -->
<g id="edge1_Node000001_Node000002" class="edge">
<title>Node2&#45;&gt;Node1</title>
<g id="a_edge1_Node000001_Node000002"><a xlink:title=" ">
<path fill="none" stroke="#63b8ff" d="M361.45,-69C369.5,-69 378.04,-69 386.77,-69"/>
<polygon fill="#63b8ff" stroke="#63b8ff" points="361.18,-65.5 351.18,-69 361.18,-72.5 361.18,-65.5"/>
</a>
</g>
</g>
<!-- Node3 -->
<g id="Node000003" class="node">
<title>Node3</title>
<g id="a_Node000003"><a xlink:href="class_j_k_q_t_p_plot_element.html" target="_top" xlink:title="this virtual base class of every element, which is part of a JKQTPlotter plot and may appear in its k...">
<polygon fill="white" stroke="#666666" points="226,-79.5 101,-79.5 101,-58.5 226,-58.5 226,-79.5"/>
<text text-anchor="middle" x="163.5" y="-65.9" font-family="Helvetica,sans-Serif" font-size="12.00">JKQTPPlotElement</text>
</a>
</g>
</g>
<!-- Node3&#45;&gt;Node2 -->
<g id="edge2_Node000002_Node000003" class="edge">
<title>Node3&#45;&gt;Node2</title>
<g id="a_edge2_Node000002_Node000003"><a xlink:title=" ">
<path fill="none" stroke="#63b8ff" d="M236.51,-69C245.18,-69 253.82,-69 261.91,-69"/>
<polygon fill="#63b8ff" stroke="#63b8ff" points="236.34,-65.5 226.34,-69 236.34,-72.5 236.34,-65.5"/>
</a>
</g>
</g>
<!-- Node4 -->
<g id="Node000004" class="node">
<title>Node4</title>
<g id="a_Node000004"><a xlink:title=" ">
<polygon fill="white" stroke="#666666" points="65,-79.5 0,-79.5 0,-58.5 65,-58.5 65,-79.5"/>
<text text-anchor="middle" x="32.5" y="-65.9" font-family="Helvetica,sans-Serif" font-size="12.00">QObject</text>
</a>
</g>
</g>
<!-- Node4&#45;&gt;Node3 -->
<g id="edge3_Node000003_Node000004" class="edge">
<title>Node4&#45;&gt;Node3</title>
<g id="a_edge3_Node000003_Node000004"><a xlink:title=" ">
<path fill="none" stroke="#63b8ff" d="M75.09,-69C83.29,-69 92.05,-69 100.75,-69"/>
<polygon fill="#63b8ff" stroke="#63b8ff" points="75.06,-65.5 65.06,-69 75.06,-72.5 75.06,-65.5"/>
</a>
</g>
</g>
<!-- Node6 -->
<g id="Node000006" class="node">
<title>Node6</title>
<g id="a_Node000006"><a xlink:href="class_j_k_q_t_p_evaluated_function_with_errors_graph_drawing_base.html" target="_top" xlink:title="This class extends JKQTPEvaluatedFunctionWithErrorsGraphBase with functions to draw the graphs and se...">
<polygon fill="white" stroke="#666666" points="1084,-109 896,-109 896,-75 1084,-75 1084,-109"/>
<text text-anchor="start" x="904" y="-95.4" font-family="Helvetica,sans-Serif" font-size="12.00">JKQTPEvaluatedFunctionWith</text>
<text text-anchor="middle" x="990" y="-82.4" font-family="Helvetica,sans-Serif" font-size="12.00">ErrorsGraphDrawingBase</text>
</a>
</g>
</g>
<!-- Node5&#45;&gt;Node6 -->
<g id="edge5_Node000005_Node000006" class="edge">
<title>Node5&#45;&gt;Node6</title>
<g id="a_edge5_Node000005_Node000006"><a xlink:title=" ">
<path fill="none" stroke="#63b8ff" d="M859.74,-92C871.73,-92 883.91,-92 895.75,-92"/>
<polygon fill="#63b8ff" stroke="#63b8ff" points="859.73,-88.5 849.73,-92 859.73,-95.5 859.73,-88.5"/>
</a>
</g>
</g>
<!-- Node7 -->
<g id="Node000007" class="node">
<title>Node7</title>
<g id="a_Node000007"><a xlink:href="class_j_k_q_t_p_functor_line_graph_base.html" target="_top" xlink:title="extends JKQTPEvaluatedFunctionWithErrorsGraphDrawingBase with the capabilities to define functions fr...">
<polygon fill="white" stroke="#666666" points="1331,-125.5 1143,-125.5 1143,-104.5 1331,-104.5 1331,-125.5"/>
<text text-anchor="middle" x="1237" y="-111.9" font-family="Helvetica,sans-Serif" font-size="12.00">JKQTPFunctorLineGraphBase</text>
</a>
</g>
</g>
<!-- Node6&#45;&gt;Node7 -->
<g id="edge6_Node000006_Node000007" class="edge">
<title>Node6&#45;&gt;Node7</title>
<g id="a_edge6_Node000006_Node000007"><a xlink:title=" ">
<path fill="none" stroke="#63b8ff" d="M1094.3,-101.7C1110.44,-103.21 1127.04,-104.77 1142.94,-106.26"/>
<polygon fill="#63b8ff" stroke="#63b8ff" points="1094.61,-98.21 1084.32,-100.76 1093.95,-105.18 1094.61,-98.21"/>
</a>
</g>
</g>
<!-- Node10 -->
<g id="Node000010" class="node">
<title>Node10</title>
<g id="a_Node000010"><a xlink:href="class_j_k_q_t_p_parsed_function_line_graph_base.html" target="_top" xlink:title="extends JKQTPEvaluatedFunctionWithErrorsGraphDrawingBase with the capabilities to define functions fr...">
<polygon fill="white" stroke="#666666" points="1354,-79.5 1120,-79.5 1120,-58.5 1354,-58.5 1354,-79.5"/>
<text text-anchor="middle" x="1237" y="-65.9" font-family="Helvetica,sans-Serif" font-size="12.00">JKQTPParsedFunctionLineGraphBase</text>
</a>
</g>
</g>
<!-- Node6&#45;&gt;Node10 -->
<g id="edge9_Node000006_Node000010" class="edge">
<title>Node6&#45;&gt;Node10</title>
<g id="a_edge9_Node000006_Node000010"><a xlink:title=" ">
<path fill="none" stroke="#63b8ff" d="M1094.45,-82.29C1104.23,-81.37 1114.17,-80.44 1124.03,-79.51"/>
<polygon fill="#63b8ff" stroke="#63b8ff" points="1093.95,-78.82 1084.32,-83.24 1094.61,-85.79 1093.95,-78.82"/>
</a>
</g>
</g>
<!-- Node8 -->
<g id="Node000008" class="node">
<title>Node8</title>
<g id="a_Node000008"><a xlink:href="class_j_k_q_t_p_x_function_line_graph.html" target="_top" xlink:title="This implements line plots where the data is taken from a user supplied function .">
<polygon fill="white" stroke="#666666" points="1564.5,-164.5 1391.5,-164.5 1391.5,-143.5 1564.5,-143.5 1564.5,-164.5"/>
<text text-anchor="middle" x="1478" y="-150.9" font-family="Helvetica,sans-Serif" font-size="12.00">JKQTPXFunctionLineGraph</text>
</a>
</g>
</g>
<!-- Node7&#45;&gt;Node8 -->
<g id="edge7_Node000007_Node000008" class="edge">
<title>Node7&#45;&gt;Node8</title>
<g id="a_edge7_Node000007_Node000008"><a xlink:title=" ">
<path fill="none" stroke="#63b8ff" d="M1312.57,-127.17C1344.61,-132.4 1381.69,-138.45 1412.52,-143.48"/>
<polygon fill="#63b8ff" stroke="#63b8ff" points="1312.8,-123.66 1302.36,-125.5 1311.67,-130.57 1312.8,-123.66"/>
</a>
</g>
</g>
<!-- Node9 -->
<g id="Node000009" class="node">
<title>Node9</title>
<g id="a_Node000009"><a xlink:href="class_j_k_q_t_p_y_function_line_graph.html" target="_top" xlink:title="This implements line plots where the data is taken from a user supplied function .">
<polygon fill="white" stroke="#666666" points="1563.5,-125.5 1392.5,-125.5 1392.5,-104.5 1563.5,-104.5 1563.5,-125.5"/>
<text text-anchor="middle" x="1478" y="-111.9" font-family="Helvetica,sans-Serif" font-size="12.00">JKQTPYFunctionLineGraph</text>
</a>
</g>
</g>
<!-- Node7&#45;&gt;Node9 -->
<g id="edge8_Node000007_Node000009" class="edge">
<title>Node7&#45;&gt;Node9</title>
<g id="a_edge8_Node000007_Node000009"><a xlink:title=" ">
<path fill="none" stroke="#63b8ff" d="M1341.1,-115C1358.21,-115 1375.77,-115 1392.35,-115"/>
<polygon fill="#63b8ff" stroke="#63b8ff" points="1341.09,-111.5 1331.09,-115 1341.09,-118.5 1341.09,-111.5"/>
</a>
</g>
</g>
<!-- Node11 -->
<g id="Node000011" class="node">
<title>Node11</title>
<g id="a_Node000011"><a xlink:href="class_j_k_q_t_p_x_parsed_function_line_graph.html" target="_top" xlink:title="This implements line plots where the data is taken from a user supplied function &#160;The function is def...">
<polygon fill="white" stroke="#666666" points="1566,-86 1390,-86 1390,-52 1566,-52 1566,-86"/>
<text text-anchor="start" x="1398" y="-72.4" font-family="Helvetica,sans-Serif" font-size="12.00">JKQTPXParsedFunctionLine</text>
<text text-anchor="middle" x="1478" y="-59.4" font-family="Helvetica,sans-Serif" font-size="12.00">Graph</text>
</a>
</g>
</g>
<!-- Node10&#45;&gt;Node11 -->
<g id="edge10_Node000010_Node000011" class="edge">
<title>Node10&#45;&gt;Node11</title>
<g id="a_edge10_Node000010_Node000011"><a xlink:title=" ">
<path fill="none" stroke="#63b8ff" d="M1364.47,-69C1373.07,-69 1381.63,-69 1389.96,-69"/>
<polygon fill="#63b8ff" stroke="#63b8ff" points="1364.35,-65.5 1354.35,-69 1364.35,-72.5 1364.35,-65.5"/>
</a>
</g>
</g>
<!-- Node12 -->
<g id="Node000012" class="node">
<title>Node12</title>
<g id="a_Node000012"><a xlink:href="class_j_k_q_t_p_y_parsed_function_line_graph.html" target="_top" xlink:title="This implements line plots where the data is taken from a user supplied function &#160;The function is def...">
<polygon fill="white" stroke="#666666" points="1565.5,-34 1390.5,-34 1390.5,0 1565.5,0 1565.5,-34"/>
<text text-anchor="start" x="1398.5" y="-20.4" font-family="Helvetica,sans-Serif" font-size="12.00">JKQTPYParsedFunctionLine</text>
<text text-anchor="middle" x="1478" y="-7.4" font-family="Helvetica,sans-Serif" font-size="12.00">Graph</text>
</a>
</g>
</g>
<!-- Node10&#45;&gt;Node12 -->
<g id="edge11_Node000010_Node000012" class="edge">
<title>Node10&#45;&gt;Node12</title>
<g id="a_edge11_Node000010_Node000012"><a xlink:title=" ">
<path fill="none" stroke="#63b8ff" d="M1296.49,-56.27C1327.23,-49.59 1365.33,-41.3 1398.6,-34.06"/>
<polygon fill="#63b8ff" stroke="#63b8ff" points="1295.39,-52.93 1286.37,-58.48 1296.88,-59.77 1295.39,-52.93"/>
</a>
</g>
</g>
<!-- Node14 -->
<g id="Node000014" class="node">
<title>Node14</title>
<g id="a_Node000014"><a xlink:href="class_j_k_q_t_p_x_y_function_line_graph.html" target="_top" xlink:title="This implements line plots where the data is taken from a user supplied function &#160;The function is eva...">
<polygon fill="white" stroke="#666666" points="1080,-56.5 900,-56.5 900,-35.5 1080,-35.5 1080,-56.5"/>
<text text-anchor="middle" x="990" y="-42.9" font-family="Helvetica,sans-Serif" font-size="12.00">JKQTPXYFunctionLineGraph</text>
</a>
</g>
</g>
<!-- Node13&#45;&gt;Node14 -->
<g id="edge13_Node000013_Node000014" class="edge">
<title>Node13&#45;&gt;Node14</title>
<g id="a_edge13_Node000013_Node000014"><a xlink:title=" ">
<path fill="none" stroke="#63b8ff" d="M870.41,-46C880.26,-46 890.13,-46 899.73,-46"/>
<polygon fill="#63b8ff" stroke="#63b8ff" points="870.17,-42.5 860.17,-46 870.17,-49.5 870.17,-42.5"/>
</a>
</g>
</g>
</g>
</svg>
