<?xml version="1.0" encoding="UTF-8" standalone="no"?>
<!DOCTYPE svg PUBLIC "-//W3C//DTD SVG 1.1//EN"
 "http://www.w3.org/Graphics/SVG/1.1/DTD/svg11.dtd">
<!-- Generated by graphviz version 2.43.0 (0)
 -->
<!-- Title: JKQTFinancialSpecificStyleProperties Pages: 1 -->
<svg width="723pt" height="279pt"
 viewBox="0.00 0.00 722.50 279.00" xmlns="http://www.w3.org/2000/svg" xmlns:xlink="http://www.w3.org/1999/xlink">
<g id="graph0" class="graph" transform="scale(1 1) rotate(0) translate(4 275)">
<title>JKQTFinancialSpecificStyleProperties</title>
<!-- Node1 -->
<g id="Node000001" class="node">
<title>Node1</title>
<g id="a_Node000001"><a xlink:title="Support Class for JKQTBasePlotter, which summarizes all properties that define the visual styling of ...">
<polygon fill="#999999" stroke="#666666" points="511,-34 338,-34 338,0 511,0 511,-34"/>
<text text-anchor="start" x="346" y="-20.4" font-family="Helvetica,sans-Serif" font-size="12.00">JKQTFinancialSpecificStyle</text>
<text text-anchor="middle" x="424.5" y="-7.4" font-family="Helvetica,sans-Serif" font-size="12.00">Properties</text>
</a>
</g>
</g>
<!-- Node2 -->
<g id="Node000002" class="node">
<title>Node2</title>
<g id="a_Node000002"><a xlink:href="class_j_k_q_t_graphs_specific_style_properties.html" target="_top" xlink:title="Support Class for JKQTBasePlotter, which summarizes all properties that define the visual styling of ...">
<polygon fill="white" stroke="#666666" points="536.5,-127 312.5,-127 312.5,-106 536.5,-106 536.5,-127"/>
<text text-anchor="middle" x="424.5" y="-113.4" font-family="Helvetica,sans-Serif" font-size="12.00">JKQTGraphsSpecificStyleProperties</text>
</a>
</g>
</g>
<!-- Node2&#45;&gt;Node1 -->
<g id="edge1_Node000001_Node000002" class="edge">
<title>Node2&#45;&gt;Node1</title>
<g id="a_edge1_Node000001_Node000002"><a xlink:title=" ">
<path fill="none" stroke="#63b8ff" d="M424.5,-95.74C424.5,-77.58 424.5,-50.99 424.5,-34.09"/>
<polygon fill="#63b8ff" stroke="#63b8ff" points="421,-95.79 424.5,-105.79 428,-95.79 421,-95.79"/>
</a>
</g>
</g>
<!-- Node3 -->
<g id="Node000003" class="node">
<title>Node3</title>
<g id="a_Node000003"><a xlink:href="struct_j_k_q_t_p_color_derivation_mode.html" target="_top" xlink:title="Specifies how a fill&#45;color is derived from a given color.">
<polygon fill="white" stroke="#666666" points="179,-271 0,-271 0,-250 179,-250 179,-271"/>
<text text-anchor="middle" x="89.5" y="-257.4" font-family="Helvetica,sans-Serif" font-size="12.00">JKQTPColorDerivationMode</text>
</a>
</g>
</g>
<!-- Node3&#45;&gt;Node1 -->
<g id="edge3_Node000001_Node000003" class="edge">
<title>Node3&#45;&gt;Node1</title>
<g id="a_edge3_Node000001_Node000003"><a xlink:title=" ">
<path fill="none" stroke="#9a32cd" stroke-dasharray="5,2" d="M81.56,-240.59C69.73,-209.07 51.96,-145.4 82.5,-106 113.54,-65.97 247.01,-40.95 337.74,-28.24"/>
<polygon fill="#9a32cd" stroke="#9a32cd" points="78.34,-241.95 85.27,-249.96 84.85,-239.37 78.34,-241.95"/>
</a>
</g>
<text text-anchor="start" x="86" y="-112.9" font-family="Helvetica,sans-Serif" font-size="12.00" fill="grey">negativeGraphColorDerivationMode</text>
</g>
<!-- Node3&#45;&gt;Node2 -->
<g id="edge2_Node000002_Node000003" class="edge">
<title>Node3&#45;&gt;Node2</title>
<g id="a_edge2_Node000002_Node000003"><a xlink:title=" ">
<path fill="none" stroke="#9a32cd" stroke-dasharray="5,2" d="M121.24,-246.04C188.35,-217.6 343.25,-151.94 401.66,-127.18"/>
<polygon fill="#9a32cd" stroke="#9a32cd" points="119.84,-242.84 112,-249.96 122.57,-249.28 119.84,-242.84"/>
</a>
</g>
<text text-anchor="start" x="355.5" y="-218.9" font-family="Helvetica,sans-Serif" font-size="12.00" fill="grey">errorColorDerivationMode</text>
<text text-anchor="start" x="355.5" y="-201.9" font-family="Helvetica,sans-Serif" font-size="12.00" fill="grey">errorFillColorDerivationMode</text>
<text text-anchor="start" x="355.5" y="-184.9" font-family="Helvetica,sans-Serif" font-size="12.00" fill="grey">fillColorDerivationMode</text>
<text text-anchor="start" x="355.5" y="-167.9" font-family="Helvetica,sans-Serif" font-size="12.00" fill="grey">graphColorDerivationMode</text>
<text text-anchor="start" x="355.5" y="-150.9" font-family="Helvetica,sans-Serif" font-size="12.00" fill="grey">symbolFillColorDerivationMode</text>
</g>
<!-- Node4 -->
<g id="Node000004" class="node">
<title>Node4</title>
<g id="a_Node000004"><a xlink:href="class_j_k_q_t_fill_style_summmary.html" target="_top" xlink:title="Support Class for JKQTBasePlotter, which summarizes a fill style.">
<polygon fill="white" stroke="#666666" points="714.5,-127 554.5,-127 554.5,-106 714.5,-106 714.5,-127"/>
<text text-anchor="middle" x="634.5" y="-113.4" font-family="Helvetica,sans-Serif" font-size="12.00">JKQTFillStyleSummmary</text>
</a>
</g>
</g>
<!-- Node4&#45;&gt;Node1 -->
<g id="edge4_Node000001_Node000004" class="edge">
<title>Node4&#45;&gt;Node1</title>
<g id="a_edge4_Node000001_Node000004"><a xlink:title=" ">
<path fill="none" stroke="#9a32cd" stroke-dasharray="5,2" d="M604.89,-101.75C566.59,-83.97 499.99,-53.05 459.31,-34.16"/>
<polygon fill="#9a32cd" stroke="#9a32cd" points="603.44,-104.94 613.98,-105.97 606.39,-98.59 603.44,-104.94"/>
</a>
</g>
<text text-anchor="start" x="576" y="-75.4" font-family="Helvetica,sans-Serif" font-size="12.00" fill="grey">negativeFillStyle</text>
<text text-anchor="start" x="576" y="-58.4" font-family="Helvetica,sans-Serif" font-size="12.00" fill="grey">positiveFillStyle</text>
</g>
</g>
</svg>
