<?xml version="1.0" encoding="UTF-8" standalone="no"?>
<!DOCTYPE svg PUBLIC "-//W3C//DTD SVG 1.1//EN"
 "http://www.w3.org/Graphics/SVG/1.1/DTD/svg11.dtd">
<!-- Generated by graphviz version 2.43.0 (0)
 -->
<!-- Title: JKQTPXGraph Pages: 1 -->
<svg width="149pt" height="257pt"
 viewBox="0.00 0.00 149.00 257.00" xmlns="http://www.w3.org/2000/svg" xmlns:xlink="http://www.w3.org/1999/xlink">

<svg id="main" version="1.1" xmlns="http://www.w3.org/2000/svg" xmlns:xlink="http://www.w3.org/1999/xlink" xml:space="preserve">

<style type="text/css"><![CDATA[
.node, .edge {opacity: 0.7;}
.node.selected, .edge.selected {opacity: 1;}
.edge:hover path { stroke: red; }
.edge:hover polygon { stroke: red; fill: red; }
]]></style>
<script type="application/ecmascript" xlink:href="svg.min.js"/>
<svg id="graph" class="graph">
<g id="graph0" class="graph" transform="scale(1 1) rotate(0) translate(4 253)">
<title>JKQTPXGraph</title>
<!-- Node1 -->
<g id="Node000001" class="node">
<title>Node1</title>
<g id="a_Node000001"><a xlink:title="This virtual JKQTPGraph descendent may be used as base for all graphs that use at least one column th...">
<polygon fill="#999999" stroke="#666666" points="119.5,-78 21.5,-78 21.5,-57 119.5,-57 119.5,-78"/>
<text text-anchor="middle" x="70.5" y="-64.4" font-family="Helvetica,sans-Serif" font-size="12.00">JKQTPXGraph</text>
</a>
</g>
</g>
<!-- Node5 -->
<g id="Node000005" class="node">
<title>Node5</title>
<g id="a_Node000005"><a xlink:href="class_j_k_q_t_p_financial_graph.html" target="_top" xlink:title="This class draws an Open&#45;High&#45;Low&#45;Close (OHLC) or candle&#45;stick graph typically representing financial...">
<polygon fill="white" stroke="#666666" points="141,-21 0,-21 0,0 141,0 141,-21"/>
<text text-anchor="middle" x="70.5" y="-7.4" font-family="Helvetica,sans-Serif" font-size="12.00">JKQTPFinancialGraph</text>
</a>
</g>
</g>
<!-- Node1&#45;&gt;Node5 -->
<g id="edge4_Node000001_Node000005" class="edge">
<title>Node1&#45;&gt;Node5</title>
<g id="a_edge4_Node000001_Node000005"><a xlink:title=" ">
<path fill="none" stroke="#63b8ff" d="M70.5,-46.86C70.5,-38.2 70.5,-28.42 70.5,-21.34"/>
<polygon fill="#63b8ff" stroke="#63b8ff" points="67,-46.92 70.5,-56.92 74,-46.92 67,-46.92"/>
</a>
</g>
</g>
<!-- Node2 -->
<g id="Node000002" class="node">
<title>Node2</title>
<g id="a_Node000002"><a xlink:href="class_j_k_q_t_p_graph.html" target="_top" xlink:title="this virtual base class of the (data&#45;column based) graphs, which are part of a JKQTPlotter plot and w...">
<polygon fill="white" stroke="#666666" points="115,-135 26,-135 26,-114 115,-114 115,-135"/>
<text text-anchor="middle" x="70.5" y="-121.4" font-family="Helvetica,sans-Serif" font-size="12.00">JKQTPGraph</text>
</a>
</g>
</g>
<!-- Node2&#45;&gt;Node1 -->
<g id="edge1_Node000001_Node000002" class="edge">
<title>Node2&#45;&gt;Node1</title>
<g id="a_edge1_Node000001_Node000002"><a xlink:title=" ">
<path fill="none" stroke="#63b8ff" d="M70.5,-103.86C70.5,-95.2 70.5,-85.42 70.5,-78.34"/>
<polygon fill="#63b8ff" stroke="#63b8ff" points="67,-103.92 70.5,-113.92 74,-103.92 67,-103.92"/>
</a>
</g>
</g>
<!-- Node3 -->
<g id="Node000003" class="node">
<title>Node3</title>
<g id="a_Node000003"><a xlink:href="class_j_k_q_t_p_plot_element.html" target="_top" xlink:title="this virtual base class of every element, which is part of a JKQTPlotter plot and may appear in its k...">
<polygon fill="white" stroke="#666666" points="133,-192 8,-192 8,-171 133,-171 133,-192"/>
<text text-anchor="middle" x="70.5" y="-178.4" font-family="Helvetica,sans-Serif" font-size="12.00">JKQTPPlotElement</text>
</a>
</g>
</g>
<!-- Node3&#45;&gt;Node2 -->
<g id="edge2_Node000002_Node000003" class="edge">
<title>Node3&#45;&gt;Node2</title>
<g id="a_edge2_Node000002_Node000003"><a xlink:title=" ">
<path fill="none" stroke="#63b8ff" d="M70.5,-160.86C70.5,-152.2 70.5,-142.42 70.5,-135.34"/>
<polygon fill="#63b8ff" stroke="#63b8ff" points="67,-160.92 70.5,-170.92 74,-160.92 67,-160.92"/>
</a>
</g>
</g>
<!-- Node4 -->
<g id="Node000004" class="node">
<title>Node4</title>
<g id="a_Node000004"><a xlink:title=" ">
<polygon fill="white" stroke="#666666" points="103,-249 38,-249 38,-228 103,-228 103,-249"/>
<text text-anchor="middle" x="70.5" y="-235.4" font-family="Helvetica,sans-Serif" font-size="12.00">QObject</text>
</a>
</g>
</g>
<!-- Node4&#45;&gt;Node3 -->
<g id="edge3_Node000003_Node000004" class="edge">
<title>Node4&#45;&gt;Node3</title>
<g id="a_edge3_Node000003_Node000004"><a xlink:title=" ">
<path fill="none" stroke="#63b8ff" d="M70.5,-217.86C70.5,-209.2 70.5,-199.42 70.5,-192.34"/>
<polygon fill="#63b8ff" stroke="#63b8ff" points="67,-217.92 70.5,-227.92 74,-217.92 67,-217.92"/>
</a>
</g>
</g>
</g>
</svg>
</svg>

<style type='text/css'>
<![CDATA[
[data-mouse-over-selected='false'] { opacity: 0.7; }
[data-mouse-over-selected='true']  { opacity: 1.0; }
]]>
</style>
<script type="application/ecmascript"><![CDATA[
document.addEventListener('DOMContentLoaded', (event) => {
  highlightEdges();
  highlightAdjacentNodes();
});
]]></script>
</svg>
