<?xml version="1.0" encoding="UTF-8" standalone="no"?>
<!DOCTYPE svg PUBLIC "-//W3C//DTD SVG 1.1//EN"
 "http://www.w3.org/Graphics/SVG/1.1/DTD/svg11.dtd">
<!-- Generated by graphviz version 2.43.0 (0)
 -->
<!-- Title: JKQTPXGraphErrorData Pages: 1 -->
<svg width="575pt" height="252pt"
 viewBox="0.00 0.00 575.00 252.00" xmlns="http://www.w3.org/2000/svg" xmlns:xlink="http://www.w3.org/1999/xlink">
<g id="graph0" class="graph" transform="scale(1 1) rotate(0) translate(4 248)">
<title>JKQTPXGraphErrorData</title>
<!-- Node1 -->
<g id="Node000001" class="node">
<title>Node1</title>
<g id="a_Node000001"><a xlink:title="This class adds data fields for error indicators in x direction.">
<polygon fill="#999999" stroke="#666666" points="155,-113 0,-113 0,-92 155,-92 155,-113"/>
<text text-anchor="middle" x="77.5" y="-99.4" font-family="Helvetica,sans-Serif" font-size="12.00">JKQTPXGraphErrorData</text>
</a>
</g>
</g>
<!-- Node2 -->
<g id="Node000002" class="node">
<title>Node2</title>
<g id="a_Node000002"><a xlink:href="class_j_k_q_t_p_x_graph_errors.html" target="_top" xlink:title="This class is the base class for graphs that only display error indicators in x&#45;direction.">
<polygon fill="white" stroke="#666666" points="327.5,-182 194.5,-182 194.5,-161 327.5,-161 327.5,-182"/>
<text text-anchor="middle" x="261" y="-168.4" font-family="Helvetica,sans-Serif" font-size="12.00">JKQTPXGraphErrors</text>
</a>
</g>
</g>
<!-- Node1&#45;&gt;Node2 -->
<g id="edge1_Node000001_Node000002" class="edge">
<title>Node1&#45;&gt;Node2</title>
<g id="a_edge1_Node000001_Node000002"><a xlink:title=" ">
<path fill="none" stroke="#63b8ff" d="M116.21,-116.84C150.82,-129.99 201.28,-149.18 232.3,-160.97"/>
<polygon fill="#63b8ff" stroke="#63b8ff" points="117.05,-113.41 106.46,-113.13 114.57,-119.96 117.05,-113.41"/>
</a>
</g>
</g>
<!-- Node6 -->
<g id="Node000006" class="node">
<title>Node6</title>
<g id="a_Node000006"><a xlink:href="class_j_k_q_t_p_x_y_graph_errors.html" target="_top" xlink:title="This class is the base class for graphs that only display error indicators in x&#45; and y&#45;direction.">
<polygon fill="white" stroke="#666666" points="331,-90 191,-90 191,-69 331,-69 331,-90"/>
<text text-anchor="middle" x="261" y="-76.4" font-family="Helvetica,sans-Serif" font-size="12.00">JKQTPXYGraphErrors</text>
</a>
</g>
</g>
<!-- Node1&#45;&gt;Node6 -->
<g id="edge5_Node000001_Node000006" class="edge">
<title>Node1&#45;&gt;Node6</title>
<g id="a_edge5_Node000001_Node000006"><a xlink:title=" ">
<path fill="none" stroke="#63b8ff" d="M165.23,-91.51C173.8,-90.42 182.41,-89.33 190.77,-88.27"/>
<polygon fill="#63b8ff" stroke="#63b8ff" points="164.69,-88.05 155.21,-92.78 165.57,-94.99 164.69,-88.05"/>
</a>
</g>
</g>
<!-- Node3 -->
<g id="Node000003" class="node">
<title>Node3</title>
<g id="a_Node000003"><a xlink:href="class_j_k_q_t_p_bar_horizontal_error_graph.html" target="_top" xlink:title="This implements a horizontal bar graph with bars between &#160;and &#160;and error indicator.">
<polygon fill="white" stroke="#666666" points="567,-244 367,-244 367,-223 567,-223 567,-244"/>
<text text-anchor="middle" x="467" y="-230.4" font-family="Helvetica,sans-Serif" font-size="12.00">JKQTPBarHorizontalErrorGraph</text>
</a>
</g>
</g>
<!-- Node2&#45;&gt;Node3 -->
<g id="edge2_Node000002_Node000003" class="edge">
<title>Node2&#45;&gt;Node3</title>
<g id="a_edge2_Node000002_Node000003"><a xlink:title=" ">
<path fill="none" stroke="#63b8ff" d="M293.26,-186.22C313.84,-195.43 341.57,-206.94 367,-214.5 377.9,-217.74 389.65,-220.57 401.11,-222.97"/>
<polygon fill="#63b8ff" stroke="#63b8ff" points="294.62,-182.99 284.07,-182.05 291.72,-189.37 294.62,-182.99"/>
</a>
</g>
</g>
<!-- Node4 -->
<g id="Node000004" class="node">
<title>Node4</title>
<g id="a_Node000004"><a xlink:href="class_j_k_q_t_p_filled_curve_y_error_graph.html" target="_top" xlink:title="This implements filled curve plots with y errors where the area is filled between the plot line and t...">
<polygon fill="white" stroke="#666666" points="562.5,-205 371.5,-205 371.5,-184 562.5,-184 562.5,-205"/>
<text text-anchor="middle" x="467" y="-191.4" font-family="Helvetica,sans-Serif" font-size="12.00">JKQTPFilledCurveYErrorGraph</text>
</a>
</g>
</g>
<!-- Node2&#45;&gt;Node4 -->
<g id="edge3_Node000002_Node000004" class="edge">
<title>Node2&#45;&gt;Node4</title>
<g id="a_edge3_Node000002_Node000004"><a xlink:title=" ">
<path fill="none" stroke="#63b8ff" d="M337.91,-180.06C349.21,-181.33 360.98,-182.66 372.59,-183.97"/>
<polygon fill="#63b8ff" stroke="#63b8ff" points="338,-176.55 327.67,-178.9 337.21,-183.5 338,-176.55"/>
</a>
</g>
</g>
<!-- Node5 -->
<g id="Node000005" class="node">
<title>Node5</title>
<g id="a_Node000005"><a xlink:href="class_j_k_q_t_p_impulses_horizontal_error_graph.html" target="_top" xlink:title="This implements an impulse plot with horizontal impulses in direction of the X axis (i....">
<polygon fill="white" stroke="#666666" points="565,-165.5 369,-165.5 369,-131.5 565,-131.5 565,-165.5"/>
<text text-anchor="start" x="377" y="-151.9" font-family="Helvetica,sans-Serif" font-size="12.00">JKQTPImpulsesHorizontalError</text>
<text text-anchor="middle" x="467" y="-138.9" font-family="Helvetica,sans-Serif" font-size="12.00">Graph</text>
</a>
</g>
</g>
<!-- Node2&#45;&gt;Node5 -->
<g id="edge4_Node000002_Node000005" class="edge">
<title>Node2&#45;&gt;Node5</title>
<g id="a_edge4_Node000002_Node000005"><a xlink:title=" ">
<path fill="none" stroke="#63b8ff" d="M337.7,-162.97C347.87,-161.82 358.41,-160.63 368.89,-159.45"/>
<polygon fill="#63b8ff" stroke="#63b8ff" points="337.21,-159.5 327.67,-164.1 338,-166.45 337.21,-159.5"/>
</a>
</g>
</g>
<!-- Node7 -->
<g id="Node000007" class="node">
<title>Node7</title>
<g id="a_Node000007"><a xlink:href="class_j_k_q_t_p_x_y_line_error_graph.html" target="_top" xlink:title="This implements xy line plots with x and y error indicators.">
<polygon fill="white" stroke="#666666" points="546.5,-113 387.5,-113 387.5,-92 546.5,-92 546.5,-113"/>
<text text-anchor="middle" x="467" y="-99.4" font-family="Helvetica,sans-Serif" font-size="12.00">JKQTPXYLineErrorGraph</text>
</a>
</g>
</g>
<!-- Node6&#45;&gt;Node7 -->
<g id="edge6_Node000006_Node000007" class="edge">
<title>Node6&#45;&gt;Node7</title>
<g id="a_edge6_Node000006_Node000007"><a xlink:title=" ">
<path fill="none" stroke="#63b8ff" d="M341.35,-88.45C356.4,-90.14 372.14,-91.92 387.16,-93.61"/>
<polygon fill="#63b8ff" stroke="#63b8ff" points="341.39,-84.93 331.07,-87.29 340.61,-91.89 341.39,-84.93"/>
</a>
</g>
</g>
<!-- Node8 -->
<g id="Node000008" class="node">
<title>Node8</title>
<g id="a_Node000008"><a xlink:href="class_j_k_q_t_p_x_y_parametrized_error_scatter_graph.html" target="_top" xlink:title="This implements xy scatter plots (like JKQTPXYScatterGraph), but the color and size of the symbols ma...">
<polygon fill="white" stroke="#666666" points="556,-73.5 378,-73.5 378,-39.5 556,-39.5 556,-73.5"/>
<text text-anchor="start" x="386" y="-59.9" font-family="Helvetica,sans-Serif" font-size="12.00">JKQTPXYParametrizedError</text>
<text text-anchor="middle" x="467" y="-46.9" font-family="Helvetica,sans-Serif" font-size="12.00">ScatterGraph</text>
</a>
</g>
</g>
<!-- Node6&#45;&gt;Node8 -->
<g id="edge7_Node000006_Node000008" class="edge">
<title>Node6&#45;&gt;Node8</title>
<g id="a_edge7_Node000006_Node000008"><a xlink:title=" ">
<path fill="none" stroke="#63b8ff" d="M341.06,-70.59C353.11,-69.23 365.61,-67.82 377.84,-66.44"/>
<polygon fill="#63b8ff" stroke="#63b8ff" points="340.61,-67.11 331.07,-71.71 341.39,-74.07 340.61,-67.11"/>
</a>
</g>
</g>
<!-- Node9 -->
<g id="Node000009" class="node">
<title>Node9</title>
<g id="a_Node000009"><a xlink:href="class_j_k_q_t_p_x_y_scatter_error_graph.html" target="_top" xlink:title="This implements xy scatter plots with x and y error indicators.">
<polygon fill="white" stroke="#666666" points="556,-21 378,-21 378,0 556,0 556,-21"/>
<text text-anchor="middle" x="467" y="-7.4" font-family="Helvetica,sans-Serif" font-size="12.00">JKQTPXYScatterErrorGraph</text>
</a>
</g>
</g>
<!-- Node6&#45;&gt;Node9 -->
<g id="edge8_Node000006_Node000009" class="edge">
<title>Node6&#45;&gt;Node9</title>
<g id="a_edge8_Node000006_Node000009"><a xlink:title=" ">
<path fill="none" stroke="#63b8ff" d="M290.06,-64.17C310.8,-53.4 339.99,-39.39 367,-30.5 378.24,-26.8 390.44,-23.66 402.31,-21.04"/>
<polygon fill="#63b8ff" stroke="#63b8ff" points="288.39,-61.1 281.17,-68.86 291.65,-67.29 288.39,-61.1"/>
</a>
</g>
</g>
</g>
</svg>
