<?xml version="1.0" encoding="UTF-8" standalone="no"?>
<!DOCTYPE svg PUBLIC "-//W3C//DTD SVG 1.1//EN"
 "http://www.w3.org/Graphics/SVG/1.1/DTD/svg11.dtd">
<!-- Generated by graphviz version 2.43.0 (0)
 -->
<!-- Title: JKQTPGraphBoxplotStyleMixin Pages: 1 -->
<svg width="867pt" height="146pt"
 viewBox="0.00 0.00 867.00 146.00" xmlns="http://www.w3.org/2000/svg" xmlns:xlink="http://www.w3.org/1999/xlink">
<g id="graph0" class="graph" transform="scale(1 1) rotate(0) translate(4 142)">
<title>JKQTPGraphBoxplotStyleMixin</title>
<!-- Node1 -->
<g id="Node000001" class="node">
<title>Node1</title>
<g id="a_Node000001"><a xlink:title="Styling Mix&#45;In for Boxplots.">
<polygon fill="#999999" stroke="#666666" points="404,-79 210,-79 210,-58 404,-58 404,-79"/>
<text text-anchor="middle" x="307" y="-65.4" font-family="Helvetica,sans-Serif" font-size="12.00">JKQTPGraphBoxplotStyleMixin</text>
</a>
</g>
</g>
<!-- Node4 -->
<g id="Node000004" class="node">
<title>Node4</title>
<g id="a_Node000004"><a xlink:href="class_j_k_q_t_p_boxplot_element_base.html" target="_top" xlink:title="Tbaseclass for a single (notched) boxplot as a &quot;geometric element&quot;, where the data is directly given ...">
<polygon fill="white" stroke="#666666" points="616,-99 440,-99 440,-78 616,-78 616,-99"/>
<text text-anchor="middle" x="528" y="-85.4" font-family="Helvetica,sans-Serif" font-size="12.00">JKQTPBoxplotElementBase</text>
</a>
</g>
</g>
<!-- Node1&#45;&gt;Node4 -->
<g id="edge3_Node000001_Node000004" class="edge">
<title>Node1&#45;&gt;Node4</title>
<g id="a_edge3_Node000001_Node000004"><a xlink:title=" ">
<path fill="none" stroke="#63b8ff" d="M414.18,-78.2C422.83,-78.99 431.5,-79.78 439.98,-80.55"/>
<polygon fill="#63b8ff" stroke="#63b8ff" points="414.33,-74.7 404.06,-77.27 413.7,-81.67 414.33,-74.7"/>
</a>
</g>
</g>
<!-- Node7 -->
<g id="Node000007" class="node">
<title>Node7</title>
<g id="a_Node000007"><a xlink:href="class_j_k_q_t_p_boxplot_graph_base.html" target="_top" xlink:title="Base class for graphs representing a series of boxplot, elements.">
<polygon fill="white" stroke="#666666" points="609.5,-60 446.5,-60 446.5,-39 609.5,-39 609.5,-60"/>
<text text-anchor="middle" x="528" y="-46.4" font-family="Helvetica,sans-Serif" font-size="12.00">JKQTPBoxplotGraphBase</text>
</a>
</g>
</g>
<!-- Node1&#45;&gt;Node7 -->
<g id="edge6_Node000001_Node000007" class="edge">
<title>Node1&#45;&gt;Node7</title>
<g id="a_edge6_Node000001_Node000007"><a xlink:title=" ">
<path fill="none" stroke="#63b8ff" d="M414.03,-59.3C424.92,-58.36 435.86,-57.41 446.41,-56.49"/>
<polygon fill="#63b8ff" stroke="#63b8ff" points="413.72,-55.81 404.06,-60.17 414.32,-62.79 413.72,-55.81"/>
</a>
</g>
</g>
<!-- Node2 -->
<g id="Node000002" class="node">
<title>Node2</title>
<g id="a_Node000002"><a xlink:href="class_j_k_q_t_p_graph_line_style_mixin.html" target="_top" xlink:title="This Mix&#45;In class provides setter/getter methods, storage and other facilities for the graph line sty...">
<polygon fill="white" stroke="#666666" points="174,-99 0,-99 0,-78 174,-78 174,-99"/>
<text text-anchor="middle" x="87" y="-85.4" font-family="Helvetica,sans-Serif" font-size="12.00">JKQTPGraphLineStyleMixin</text>
</a>
</g>
</g>
<!-- Node2&#45;&gt;Node1 -->
<g id="edge1_Node000001_Node000002" class="edge">
<title>Node2&#45;&gt;Node1</title>
<g id="a_edge1_Node000001_Node000002"><a xlink:title=" ">
<path fill="none" stroke="#63b8ff" d="M184.35,-79.66C192.76,-78.89 201.27,-78.11 209.68,-77.34"/>
<polygon fill="#63b8ff" stroke="#63b8ff" points="183.8,-76.2 174.16,-80.6 184.44,-83.17 183.8,-76.2"/>
</a>
</g>
</g>
<!-- Node3 -->
<g id="Node000003" class="node">
<title>Node3</title>
<g id="a_Node000003"><a xlink:href="class_j_k_q_t_p_graph_fill_style_mixin.html" target="_top" xlink:title="This Mix&#45;In class provides setter/getter methods, storage and other facilities for the graph filling ...">
<polygon fill="white" stroke="#666666" points="169,-60 5,-60 5,-39 169,-39 169,-60"/>
<text text-anchor="middle" x="87" y="-46.4" font-family="Helvetica,sans-Serif" font-size="12.00">JKQTPGraphFillStyleMixin</text>
</a>
</g>
</g>
<!-- Node3&#45;&gt;Node1 -->
<g id="edge2_Node000001_Node000003" class="edge">
<title>Node3&#45;&gt;Node1</title>
<g id="a_edge2_Node000001_Node000003"><a xlink:title=" ">
<path fill="none" stroke="#63b8ff" d="M179.17,-57.45C189.24,-58.32 199.53,-59.22 209.66,-60.1"/>
<polygon fill="#63b8ff" stroke="#63b8ff" points="179.44,-53.96 169.18,-56.57 178.83,-60.93 179.44,-53.96"/>
</a>
</g>
</g>
<!-- Node5 -->
<g id="Node000005" class="node">
<title>Node5</title>
<g id="a_Node000005"><a xlink:href="class_j_k_q_t_p_boxplot_horizontal_element.html" target="_top" xlink:title="This implements a horizontal (notched) boxplot where the data is directly given to the object and not...">
<polygon fill="white" stroke="#666666" points="859,-138 652,-138 652,-117 859,-117 859,-138"/>
<text text-anchor="middle" x="755.5" y="-124.4" font-family="Helvetica,sans-Serif" font-size="12.00">JKQTPBoxplotHorizontalElement</text>
</a>
</g>
</g>
<!-- Node4&#45;&gt;Node5 -->
<g id="edge4_Node000004_Node000005" class="edge">
<title>Node4&#45;&gt;Node5</title>
<g id="a_edge4_Node000004_Node000005"><a xlink:title=" ">
<path fill="none" stroke="#63b8ff" d="M599.75,-100.74C629.89,-105.95 664.7,-111.97 693.67,-116.98"/>
<polygon fill="#63b8ff" stroke="#63b8ff" points="600.18,-97.26 589.73,-99 598.98,-104.16 600.18,-97.26"/>
</a>
</g>
</g>
<!-- Node6 -->
<g id="Node000006" class="node">
<title>Node6</title>
<g id="a_Node000006"><a xlink:href="class_j_k_q_t_p_boxplot_vertical_element.html" target="_top" xlink:title="This implements a single vertical (notched) boxplot as a &quot;geometric element&quot;, where the data is direc...">
<polygon fill="white" stroke="#666666" points="851,-99 660,-99 660,-78 851,-78 851,-99"/>
<text text-anchor="middle" x="755.5" y="-85.4" font-family="Helvetica,sans-Serif" font-size="12.00">JKQTPBoxplotVerticalElement</text>
</a>
</g>
</g>
<!-- Node4&#45;&gt;Node6 -->
<g id="edge5_Node000004_Node000006" class="edge">
<title>Node4&#45;&gt;Node6</title>
<g id="a_edge5_Node000004_Node000006"><a xlink:title=" ">
<path fill="none" stroke="#63b8ff" d="M626.29,-88.5C637.37,-88.5 648.65,-88.5 659.69,-88.5"/>
<polygon fill="#63b8ff" stroke="#63b8ff" points="626.18,-85 616.18,-88.5 626.18,-92 626.18,-85"/>
</a>
</g>
</g>
<!-- Node8 -->
<g id="Node000008" class="node">
<title>Node8</title>
<g id="a_Node000008"><a xlink:href="class_j_k_q_t_p_boxplot_horizontal_graph.html" target="_top" xlink:title="This implements horizontal boxplots, optionally also a notched boxplot.">
<polygon fill="white" stroke="#666666" points="852.5,-60 658.5,-60 658.5,-39 852.5,-39 852.5,-60"/>
<text text-anchor="middle" x="755.5" y="-46.4" font-family="Helvetica,sans-Serif" font-size="12.00">JKQTPBoxplotHorizontalGraph</text>
</a>
</g>
</g>
<!-- Node7&#45;&gt;Node8 -->
<g id="edge7_Node000007_Node000008" class="edge">
<title>Node7&#45;&gt;Node8</title>
<g id="a_edge7_Node000007_Node000008"><a xlink:title=" ">
<path fill="none" stroke="#63b8ff" d="M619.8,-49.5C632.41,-49.5 645.41,-49.5 658.13,-49.5"/>
<polygon fill="#63b8ff" stroke="#63b8ff" points="619.77,-46 609.77,-49.5 619.77,-53 619.77,-46"/>
</a>
</g>
</g>
<!-- Node9 -->
<g id="Node000009" class="node">
<title>Node9</title>
<g id="a_Node000009"><a xlink:href="class_j_k_q_t_p_boxplot_vertical_graph.html" target="_top" xlink:title="This implements vertical boxplots, optionally also a notched boxplot.">
<polygon fill="white" stroke="#666666" points="845,-21 666,-21 666,0 845,0 845,-21"/>
<text text-anchor="middle" x="755.5" y="-7.4" font-family="Helvetica,sans-Serif" font-size="12.00">JKQTPBoxplotVerticalGraph</text>
</a>
</g>
</g>
<!-- Node7&#45;&gt;Node9 -->
<g id="edge8_Node000007_Node000009" class="edge">
<title>Node7&#45;&gt;Node9</title>
<g id="a_edge8_Node000007_Node000009"><a xlink:title=" ">
<path fill="none" stroke="#63b8ff" d="M599.75,-37.26C629.89,-32.05 664.7,-26.03 693.67,-21.02"/>
<polygon fill="#63b8ff" stroke="#63b8ff" points="598.98,-33.84 589.73,-39 600.18,-40.74 598.98,-33.84"/>
</a>
</g>
</g>
</g>
</svg>
