<?xml version="1.0" encoding="UTF-8" standalone="no"?>
<!DOCTYPE svg PUBLIC "-//W3C//DTD SVG 1.1//EN"
 "http://www.w3.org/Graphics/SVG/1.1/DTD/svg11.dtd">
<!-- Generated by graphviz version 2.43.0 (0)
 -->
<!-- Title: JKQTPBoxplotVerticalGraph Pages: 1 -->
<svg width="508pt" height="257pt"
 viewBox="0.00 0.00 507.50 257.00" xmlns="http://www.w3.org/2000/svg" xmlns:xlink="http://www.w3.org/1999/xlink">
<g id="graph0" class="graph" transform="scale(1 1) rotate(0) translate(4 253)">
<title>JKQTPBoxplotVerticalGraph</title>
<!-- Node1 -->
<g id="Node000001" class="node">
<title>Node1</title>
<g id="a_Node000001"><a xlink:title="This implements vertical boxplots, optionally also a notched boxplot.">
<polygon fill="#999999" stroke="#666666" points="236,-21 57,-21 57,0 236,0 236,-21"/>
<text text-anchor="middle" x="146.5" y="-7.4" font-family="Helvetica,sans-Serif" font-size="12.00">JKQTPBoxplotVerticalGraph</text>
</a>
</g>
</g>
<!-- Node2 -->
<g id="Node000002" class="node">
<title>Node2</title>
<g id="a_Node000002"><a xlink:href="class_j_k_q_t_p_boxplot_graph_base.html" target="_top" xlink:title="Base class for graphs representing a series of boxplot, elements.">
<polygon fill="white" stroke="#666666" points="228,-78 65,-78 65,-57 228,-57 228,-78"/>
<text text-anchor="middle" x="146.5" y="-64.4" font-family="Helvetica,sans-Serif" font-size="12.00">JKQTPBoxplotGraphBase</text>
</a>
</g>
</g>
<!-- Node2&#45;&gt;Node1 -->
<g id="edge1_Node000001_Node000002" class="edge">
<title>Node2&#45;&gt;Node1</title>
<g id="a_edge1_Node000001_Node000002"><a xlink:title=" ">
<path fill="none" stroke="#63b8ff" d="M146.5,-46.86C146.5,-38.2 146.5,-28.42 146.5,-21.34"/>
<polygon fill="#63b8ff" stroke="#63b8ff" points="143,-46.92 146.5,-56.92 150,-46.92 143,-46.92"/>
</a>
</g>
</g>
<!-- Node3 -->
<g id="Node000003" class="node">
<title>Node3</title>
<g id="a_Node000003"><a xlink:href="class_j_k_q_t_p_graph.html" target="_top" xlink:title="this virtual base class of the (data&#45;column based) graphs, which are part of a JKQTPlotter plot and w...">
<polygon fill="white" stroke="#666666" points="112,-135 23,-135 23,-114 112,-114 112,-135"/>
<text text-anchor="middle" x="67.5" y="-121.4" font-family="Helvetica,sans-Serif" font-size="12.00">JKQTPGraph</text>
</a>
</g>
</g>
<!-- Node3&#45;&gt;Node2 -->
<g id="edge2_Node000002_Node000003" class="edge">
<title>Node3&#45;&gt;Node2</title>
<g id="a_edge2_Node000002_Node000003"><a xlink:title=" ">
<path fill="none" stroke="#63b8ff" d="M89.72,-108.03C103.5,-98.44 120.78,-86.41 132.63,-78.16"/>
<polygon fill="#63b8ff" stroke="#63b8ff" points="87.47,-105.33 81.26,-113.92 91.47,-111.08 87.47,-105.33"/>
</a>
</g>
</g>
<!-- Node4 -->
<g id="Node000004" class="node">
<title>Node4</title>
<g id="a_Node000004"><a xlink:href="class_j_k_q_t_p_plot_element.html" target="_top" xlink:title="this virtual base class of every element, which is part of a JKQTPlotter plot and may appear in its k...">
<polygon fill="white" stroke="#666666" points="125,-192 0,-192 0,-171 125,-171 125,-192"/>
<text text-anchor="middle" x="62.5" y="-178.4" font-family="Helvetica,sans-Serif" font-size="12.00">JKQTPPlotElement</text>
</a>
</g>
</g>
<!-- Node4&#45;&gt;Node3 -->
<g id="edge3_Node000003_Node000004" class="edge">
<title>Node4&#45;&gt;Node3</title>
<g id="a_edge3_Node000003_Node000004"><a xlink:title=" ">
<path fill="none" stroke="#63b8ff" d="M64.29,-160.86C65.07,-152.2 65.96,-142.42 66.61,-135.34"/>
<polygon fill="#63b8ff" stroke="#63b8ff" points="60.79,-160.64 63.37,-170.92 67.76,-161.28 60.79,-160.64"/>
</a>
</g>
</g>
<!-- Node5 -->
<g id="Node000005" class="node">
<title>Node5</title>
<g id="a_Node000005"><a xlink:title=" ">
<polygon fill="white" stroke="#666666" points="95,-249 30,-249 30,-228 95,-228 95,-249"/>
<text text-anchor="middle" x="62.5" y="-235.4" font-family="Helvetica,sans-Serif" font-size="12.00">QObject</text>
</a>
</g>
</g>
<!-- Node5&#45;&gt;Node4 -->
<g id="edge4_Node000004_Node000005" class="edge">
<title>Node5&#45;&gt;Node4</title>
<g id="a_edge4_Node000004_Node000005"><a xlink:title=" ">
<path fill="none" stroke="#63b8ff" d="M62.5,-217.86C62.5,-209.2 62.5,-199.42 62.5,-192.34"/>
<polygon fill="#63b8ff" stroke="#63b8ff" points="59,-217.92 62.5,-227.92 66,-217.92 59,-217.92"/>
</a>
</g>
</g>
<!-- Node6 -->
<g id="Node000006" class="node">
<title>Node6</title>
<g id="a_Node000006"><a xlink:href="class_j_k_q_t_p_graph_boxplot_style_mixin.html" target="_top" xlink:title="Styling Mix&#45;In for Boxplots.">
<polygon fill="white" stroke="#666666" points="327.5,-135 133.5,-135 133.5,-114 327.5,-114 327.5,-135"/>
<text text-anchor="middle" x="230.5" y="-121.4" font-family="Helvetica,sans-Serif" font-size="12.00">JKQTPGraphBoxplotStyleMixin</text>
</a>
</g>
</g>
<!-- Node6&#45;&gt;Node2 -->
<g id="edge5_Node000002_Node000006" class="edge">
<title>Node6&#45;&gt;Node2</title>
<g id="a_edge5_Node000002_Node000006"><a xlink:title=" ">
<path fill="none" stroke="#63b8ff" d="M207.29,-108.3C192.57,-98.67 173.97,-86.49 161.25,-78.16"/>
<polygon fill="#63b8ff" stroke="#63b8ff" points="205.58,-111.37 215.87,-113.92 209.42,-105.51 205.58,-111.37"/>
</a>
</g>
</g>
<!-- Node7 -->
<g id="Node000007" class="node">
<title>Node7</title>
<g id="a_Node000007"><a xlink:href="class_j_k_q_t_p_graph_line_style_mixin.html" target="_top" xlink:title="This Mix&#45;In class provides setter/getter methods, storage and other facilities for the graph line sty...">
<polygon fill="white" stroke="#666666" points="317.5,-192 143.5,-192 143.5,-171 317.5,-171 317.5,-192"/>
<text text-anchor="middle" x="230.5" y="-178.4" font-family="Helvetica,sans-Serif" font-size="12.00">JKQTPGraphLineStyleMixin</text>
</a>
</g>
</g>
<!-- Node7&#45;&gt;Node6 -->
<g id="edge6_Node000006_Node000007" class="edge">
<title>Node7&#45;&gt;Node6</title>
<g id="a_edge6_Node000006_Node000007"><a xlink:title=" ">
<path fill="none" stroke="#63b8ff" d="M230.5,-160.86C230.5,-152.2 230.5,-142.42 230.5,-135.34"/>
<polygon fill="#63b8ff" stroke="#63b8ff" points="227,-160.92 230.5,-170.92 234,-160.92 227,-160.92"/>
</a>
</g>
</g>
<!-- Node8 -->
<g id="Node000008" class="node">
<title>Node8</title>
<g id="a_Node000008"><a xlink:href="class_j_k_q_t_p_graph_fill_style_mixin.html" target="_top" xlink:title="This Mix&#45;In class provides setter/getter methods, storage and other facilities for the graph filling ...">
<polygon fill="white" stroke="#666666" points="499.5,-192 335.5,-192 335.5,-171 499.5,-171 499.5,-192"/>
<text text-anchor="middle" x="417.5" y="-178.4" font-family="Helvetica,sans-Serif" font-size="12.00">JKQTPGraphFillStyleMixin</text>
</a>
</g>
</g>
<!-- Node8&#45;&gt;Node6 -->
<g id="edge7_Node000006_Node000008" class="edge">
<title>Node8&#45;&gt;Node6</title>
<g id="a_edge7_Node000006_Node000008"><a xlink:title=" ">
<path fill="none" stroke="#63b8ff" d="M375.27,-168.08C341.25,-158.07 294.14,-144.22 263.01,-135.06"/>
<polygon fill="#63b8ff" stroke="#63b8ff" points="374.35,-171.46 384.93,-170.92 376.32,-164.74 374.35,-171.46"/>
</a>
</g>
</g>
</g>
</svg>
