<?xml version="1.0" encoding="UTF-8" standalone="no"?>
<!DOCTYPE svg PUBLIC "-//W3C//DTD SVG 1.1//EN"
 "http://www.w3.org/Graphics/SVG/1.1/DTD/svg11.dtd">
<!-- Generated by graphviz version 2.43.0 (0)
 -->
<!-- Title: JKQTMathTextBraceNode Pages: 1 -->
<svg width="521pt" height="163pt"
 viewBox="0.00 0.00 521.00 163.00" xmlns="http://www.w3.org/2000/svg" xmlns:xlink="http://www.w3.org/1999/xlink">
<g id="graph0" class="graph" transform="scale(1 1) rotate(0) translate(4 159)">
<title>JKQTMathTextBraceNode</title>
<!-- Node1 -->
<g id="Node000001" class="node">
<title>Node1</title>
<g id="a_Node000001"><a xlink:title="subclass representing a brace node">
<polygon fill="#999999" stroke="#666666" points="181,-21 15,-21 15,0 181,0 181,-21"/>
<text text-anchor="middle" x="98" y="-7.4" font-family="Helvetica,sans-Serif" font-size="12.00">JKQTMathTextBraceNode</text>
</a>
</g>
</g>
<!-- Node2 -->
<g id="Node000002" class="node">
<title>Node2</title>
<g id="a_Node000002"><a xlink:href="class_j_k_q_t_math_text_single_child_node.html" target="_top" xlink:title="subclass representing a node in the syntax tree, that has one child">
<polygon fill="white" stroke="#666666" points="196,-79 0,-79 0,-58 196,-58 196,-79"/>
<text text-anchor="middle" x="98" y="-65.4" font-family="Helvetica,sans-Serif" font-size="12.00">JKQTMathTextSingleChildNode</text>
</a>
</g>
</g>
<!-- Node2&#45;&gt;Node1 -->
<g id="edge1_Node000001_Node000002" class="edge">
<title>Node2&#45;&gt;Node1</title>
<g id="a_edge1_Node000001_Node000002"><a xlink:title=" ">
<path fill="none" stroke="#63b8ff" d="M98,-47.66C98,-38.66 98,-28.42 98,-21.14"/>
<polygon fill="#63b8ff" stroke="#63b8ff" points="94.5,-47.75 98,-57.75 101.5,-47.75 94.5,-47.75"/>
</a>
</g>
</g>
<!-- Node3 -->
<g id="Node000003" class="node">
<title>Node3</title>
<g id="a_Node000003"><a xlink:href="class_j_k_q_t_math_text_node.html" target="_top" xlink:title="subclass representing one node in the syntax tree">
<polygon fill="white" stroke="#666666" points="202.5,-155 71.5,-155 71.5,-134 202.5,-134 202.5,-155"/>
<text text-anchor="middle" x="137" y="-141.4" font-family="Helvetica,sans-Serif" font-size="12.00">JKQTMathTextNode</text>
</a>
</g>
</g>
<!-- Node3&#45;&gt;Node2 -->
<g id="edge2_Node000002_Node000003" class="edge">
<title>Node3&#45;&gt;Node2</title>
<g id="a_edge2_Node000002_Node000003"><a xlink:title=" ">
<path fill="none" stroke="#63b8ff" d="M100.61,-128.48C95.97,-125.06 91.86,-120.93 89,-116 82.32,-104.47 87.7,-88.92 92.55,-79.04"/>
<polygon fill="#63b8ff" stroke="#63b8ff" points="99.01,-131.61 109.35,-133.92 102.71,-125.67 99.01,-131.61"/>
</a>
</g>
</g>
<!-- Node3&#45;&gt;Node2 -->
<g id="edge8_Node000002_Node000003" class="edge">
<title>Node3&#45;&gt;Node2</title>
<g id="a_edge8_Node000002_Node000003"><a xlink:title=" ">
<path fill="none" stroke="#9a32cd" stroke-dasharray="5,2" d="M117.17,-126.9C114.07,-123.56 111.18,-119.87 109,-116 102.48,-104.44 99.81,-89.16 98.73,-79.34"/>
<polygon fill="#9a32cd" stroke="#9a32cd" points="114.89,-129.57 124.52,-134 119.76,-124.54 114.89,-129.57"/>
</a>
</g>
<text text-anchor="start" x="112" y="-102.9" font-family="Helvetica,sans-Serif" font-size="12.00" fill="grey">child</text>
</g>
<!-- Node3&#45;&gt;Node3 -->
<g id="edge7_Node000003_Node000003" class="edge">
<title>Node3&#45;&gt;Node3</title>
<g id="a_edge7_Node000003_Node000003"><a xlink:title=" ">
<path fill="none" stroke="#9a32cd" stroke-dasharray="5,2" d="M213.02,-149.46C217.69,-148.29 220.5,-146.63 220.5,-144.5 220.5,-141.09 213.31,-138.9 202.81,-137.94"/>
<polygon fill="#9a32cd" stroke="#9a32cd" points="212.15,-146.06 202.81,-151.06 213.23,-152.97 212.15,-146.06"/>
</a>
</g>
<text text-anchor="start" x="224" y="-140.9" font-family="Helvetica,sans-Serif" font-size="12.00" fill="grey">parentNode</text>
</g>
<!-- Node4 -->
<g id="Node000004" class="node">
<title>Node4</title>
<g id="a_Node000004"><a xlink:href="class_j_k_q_t_math_text.html" target="_top" xlink:title="this class parses a mathematical markup string and can then draw the contained text/equation onto a Q...">
<polygon fill="white" stroke="#666666" points="326.5,-79 227.5,-79 227.5,-58 326.5,-58 326.5,-79"/>
<text text-anchor="middle" x="277" y="-65.4" font-family="Helvetica,sans-Serif" font-size="12.00">JKQTMathText</text>
</a>
</g>
</g>
<!-- Node3&#45;&gt;Node4 -->
<g id="edge5_Node000004_Node000003" class="edge">
<title>Node3&#45;&gt;Node4</title>
<g id="a_edge5_Node000004_Node000003"><a xlink:title=" ">
<path fill="none" stroke="#9a32cd" stroke-dasharray="5,2" d="M143.1,-124.2C147.06,-114.69 153.15,-103.82 162,-97 172.41,-88.99 201.16,-82.11 227.31,-77.24"/>
<polygon fill="#9a32cd" stroke="#9a32cd" points="139.76,-123.15 139.63,-133.74 146.34,-125.54 139.76,-123.15"/>
</a>
</g>
<text text-anchor="start" x="165.5" y="-102.9" font-family="Helvetica,sans-Serif" font-size="12.00" fill="grey">parsedNode</text>
</g>
<!-- Node4&#45;&gt;Node3 -->
<g id="edge3_Node000003_Node000004" class="edge">
<title>Node4&#45;&gt;Node3</title>
<g id="a_edge3_Node000003_Node000004"><a xlink:title=" ">
<path fill="none" stroke="#9a32cd" stroke-dasharray="5,2" d="M268.27,-88.18C262.85,-97.83 255.01,-109.02 245,-116 232.46,-124.74 217.37,-130.7 202.51,-134.77"/>
<polygon fill="#9a32cd" stroke="#9a32cd" points="271.4,-89.74 272.86,-79.25 265.18,-86.54 271.4,-89.74"/>
</a>
</g>
<text text-anchor="start" x="266" y="-102.9" font-family="Helvetica,sans-Serif" font-size="12.00" fill="grey">parentMathText</text>
</g>
<!-- Node5 -->
<g id="Node000005" class="node">
<title>Node5</title>
<g id="a_Node000005"><a xlink:title=" ">
<polygon fill="white" stroke="#666666" points="414.5,-155 349.5,-155 349.5,-134 414.5,-134 414.5,-155"/>
<text text-anchor="middle" x="382" y="-141.4" font-family="Helvetica,sans-Serif" font-size="12.00">QObject</text>
</a>
</g>
</g>
<!-- Node5&#45;&gt;Node4 -->
<g id="edge4_Node000004_Node000005" class="edge">
<title>Node5&#45;&gt;Node4</title>
<g id="a_edge4_Node000004_Node000005"><a xlink:title=" ">
<path fill="none" stroke="#63b8ff" d="M380.37,-123.97C378.63,-114.7 375.11,-104.12 368,-97 356.92,-85.91 341.53,-79.26 326.56,-75.29"/>
<polygon fill="#63b8ff" stroke="#63b8ff" points="376.91,-124.52 381.69,-133.97 383.85,-123.6 376.91,-124.52"/>
</a>
</g>
</g>
<!-- Node6 -->
<g id="Node000006" class="node">
<title>Node6</title>
<g id="a_Node000006"><a xlink:title=" ">
<polygon fill="white" stroke="#666666" points="513,-155 433,-155 433,-134 513,-134 513,-155"/>
<text text-anchor="middle" x="473" y="-141.4" font-family="Helvetica,sans-Serif" font-size="12.00">std::mutex</text>
</a>
</g>
</g>
<!-- Node6&#45;&gt;Node4 -->
<g id="edge6_Node000004_Node000006" class="edge">
<title>Node6&#45;&gt;Node4</title>
<g id="a_edge6_Node000004_Node000006"><a xlink:title=" ">
<path fill="none" stroke="#9a32cd" stroke-dasharray="5,2" d="M449.39,-128.64C432.53,-118.55 409.03,-105.55 387,-97 367.64,-89.48 345.56,-83.49 326.28,-79.04"/>
<polygon fill="#9a32cd" stroke="#9a32cd" points="447.66,-131.68 458.02,-133.89 451.3,-125.7 447.66,-131.68"/>
</a>
</g>
<text text-anchor="start" x="428.5" y="-102.9" font-family="Helvetica,sans-Serif" font-size="12.00" fill="grey">s_mutex</text>
</g>
</g>
</svg>
