<?xml version="1.0" encoding="UTF-8" standalone="no"?>
<!DOCTYPE svg PUBLIC "-//W3C//DTD SVG 1.1//EN"
 "http://www.w3.org/Graphics/SVG/1.1/DTD/svg11.dtd">
<!-- Generated by graphviz version 2.43.0 (0)
 -->
<!-- Title: JKQTPHorizontalAxisBase Pages: 1 -->
<svg width="221pt" height="257pt"
 viewBox="0.00 0.00 221.00 257.00" xmlns="http://www.w3.org/2000/svg" xmlns:xlink="http://www.w3.org/1999/xlink">

<svg id="main" version="1.1" xmlns="http://www.w3.org/2000/svg" xmlns:xlink="http://www.w3.org/1999/xlink" xml:space="preserve">

<style type="text/css"><![CDATA[
.node, .edge {opacity: 0.7;}
.node.selected, .edge.selected {opacity: 1;}
.edge:hover path { stroke: red; }
.edge:hover polygon { stroke: red; fill: red; }
]]></style>
<script type="application/ecmascript" xlink:href="svg.min.js"/>
<svg id="graph" class="graph">
<g id="graph0" class="graph" transform="scale(1 1) rotate(0) translate(4 253)">
<title>JKQTPHorizontalAxisBase</title>
<!-- Node1 -->
<g id="Node000001" class="node">
<title>Node1</title>
<g id="a_Node000001"><a xlink:title="base class for horizontal axes, based on JKQTPCoordinateAxis (for most of documentation: see JKQTPCoo...">
<polygon fill="#999999" stroke="#666666" points="190,-135 23,-135 23,-114 190,-114 190,-135"/>
<text text-anchor="middle" x="106.5" y="-121.4" font-family="Helvetica,sans-Serif" font-size="12.00">JKQTPHorizontalAxisBase</text>
</a>
</g>
</g>
<!-- Node4 -->
<g id="Node000004" class="node">
<title>Node4</title>
<g id="a_Node000004"><a xlink:href="class_j_k_q_t_p_horizontal_axis.html" target="_top" xlink:title="implements a horizontal axis, based on JKQTPCoordinateAxis (for most of documentation: see JKQTPCoord...">
<polygon fill="white" stroke="#666666" points="175,-78 38,-78 38,-57 175,-57 175,-78"/>
<text text-anchor="middle" x="106.5" y="-64.4" font-family="Helvetica,sans-Serif" font-size="12.00">JKQTPHorizontalAxis</text>
</a>
</g>
</g>
<!-- Node1&#45;&gt;Node4 -->
<g id="edge3_Node000001_Node000004" class="edge">
<title>Node1&#45;&gt;Node4</title>
<g id="a_edge3_Node000001_Node000004"><a xlink:title=" ">
<path fill="none" stroke="#63b8ff" d="M106.5,-103.86C106.5,-95.2 106.5,-85.42 106.5,-78.34"/>
<polygon fill="#63b8ff" stroke="#63b8ff" points="103,-103.92 106.5,-113.92 110,-103.92 103,-103.92"/>
</a>
</g>
</g>
<!-- Node2 -->
<g id="Node000002" class="node">
<title>Node2</title>
<g id="a_Node000002"><a xlink:href="class_j_k_q_t_p_coordinate_axis.html" target="_top" xlink:title="this virtual class is the base for any type of coordinate axis, to be drawn by JKQTBasePlotter.">
<polygon fill="white" stroke="#666666" points="177.5,-192 35.5,-192 35.5,-171 177.5,-171 177.5,-192"/>
<text text-anchor="middle" x="106.5" y="-178.4" font-family="Helvetica,sans-Serif" font-size="12.00">JKQTPCoordinateAxis</text>
</a>
</g>
</g>
<!-- Node2&#45;&gt;Node1 -->
<g id="edge1_Node000001_Node000002" class="edge">
<title>Node2&#45;&gt;Node1</title>
<g id="a_edge1_Node000001_Node000002"><a xlink:title=" ">
<path fill="none" stroke="#63b8ff" d="M106.5,-160.86C106.5,-152.2 106.5,-142.42 106.5,-135.34"/>
<polygon fill="#63b8ff" stroke="#63b8ff" points="103,-160.92 106.5,-170.92 110,-160.92 103,-160.92"/>
</a>
</g>
</g>
<!-- Node3 -->
<g id="Node000003" class="node">
<title>Node3</title>
<g id="a_Node000003"><a xlink:title=" ">
<polygon fill="white" stroke="#666666" points="139,-249 74,-249 74,-228 139,-228 139,-249"/>
<text text-anchor="middle" x="106.5" y="-235.4" font-family="Helvetica,sans-Serif" font-size="12.00">QObject</text>
</a>
</g>
</g>
<!-- Node3&#45;&gt;Node2 -->
<g id="edge2_Node000002_Node000003" class="edge">
<title>Node3&#45;&gt;Node2</title>
<g id="a_edge2_Node000002_Node000003"><a xlink:title=" ">
<path fill="none" stroke="#63b8ff" d="M106.5,-217.86C106.5,-209.2 106.5,-199.42 106.5,-192.34"/>
<polygon fill="#63b8ff" stroke="#63b8ff" points="103,-217.92 106.5,-227.92 110,-217.92 103,-217.92"/>
</a>
</g>
</g>
<!-- Node5 -->
<g id="Node000005" class="node">
<title>Node5</title>
<g id="a_Node000005"><a xlink:href="class_j_k_q_t_p_horizontal_independent_axis.html" target="_top" xlink:title="implements a position&#45;indipendent horizontal axis, based on JKQTPCoordinateAxis (for most of document...">
<polygon fill="white" stroke="#666666" points="213,-21 0,-21 0,0 213,0 213,-21"/>
<text text-anchor="middle" x="106.5" y="-7.4" font-family="Helvetica,sans-Serif" font-size="12.00">JKQTPHorizontalIndependentAxis</text>
</a>
</g>
</g>
<!-- Node4&#45;&gt;Node5 -->
<g id="edge4_Node000004_Node000005" class="edge">
<title>Node4&#45;&gt;Node5</title>
<g id="a_edge4_Node000004_Node000005"><a xlink:title=" ">
<path fill="none" stroke="#63b8ff" d="M106.5,-46.86C106.5,-38.2 106.5,-28.42 106.5,-21.34"/>
<polygon fill="#63b8ff" stroke="#63b8ff" points="103,-46.92 106.5,-56.92 110,-46.92 103,-46.92"/>
</a>
</g>
</g>
</g>
</svg>
</svg>

<style type='text/css'>
<![CDATA[
[data-mouse-over-selected='false'] { opacity: 0.7; }
[data-mouse-over-selected='true']  { opacity: 1.0; }
]]>
</style>
<script type="application/ecmascript"><![CDATA[
document.addEventListener('DOMContentLoaded', (event) => {
  highlightEdges();
  highlightAdjacentNodes();
});
]]></script>
</svg>
