<?xml version="1.0" encoding="UTF-8" standalone="no"?>
<!DOCTYPE svg PUBLIC "-//W3C//DTD SVG 1.1//EN"
 "http://www.w3.org/Graphics/SVG/1.1/DTD/svg11.dtd">
<!-- Generated by graphviz version 2.43.0 (0)
 -->
<!-- Title: JKQTPGraphBoxplotStyleMixin Pages: 1 -->
<svg width="364pt" height="86pt"
 viewBox="0.00 0.00 364.00 86.00" xmlns="http://www.w3.org/2000/svg" xmlns:xlink="http://www.w3.org/1999/xlink">
<g id="graph0" class="graph" transform="scale(1 1) rotate(0) translate(4 82)">
<title>JKQTPGraphBoxplotStyleMixin</title>
<!-- Node1 -->
<g id="Node000001" class="node">
<title>Node1</title>
<g id="a_Node000001"><a xlink:title="Styling Mix&#45;In for Boxplots.">
<polygon fill="#999999" stroke="#666666" points="277,-21 83,-21 83,0 277,0 277,-21"/>
<text text-anchor="middle" x="180" y="-7.4" font-family="Helvetica,sans-Serif" font-size="12.00">JKQTPGraphBoxplotStyleMixin</text>
</a>
</g>
</g>
<!-- Node2 -->
<g id="Node000002" class="node">
<title>Node2</title>
<g id="a_Node000002"><a xlink:href="class_j_k_q_t_p_graph_line_style_mixin.html" target="_top" xlink:title="This Mix&#45;In class provides setter/getter methods, storage and other facilities for the graph line sty...">
<polygon fill="white" stroke="#666666" points="174,-78 0,-78 0,-57 174,-57 174,-78"/>
<text text-anchor="middle" x="87" y="-64.4" font-family="Helvetica,sans-Serif" font-size="12.00">JKQTPGraphLineStyleMixin</text>
</a>
</g>
</g>
<!-- Node2&#45;&gt;Node1 -->
<g id="edge1_Node000001_Node000002" class="edge">
<title>Node2&#45;&gt;Node1</title>
<g id="a_edge1_Node000001_Node000002"><a xlink:title=" ">
<path fill="none" stroke="#63b8ff" d="M112.24,-51.58C128.6,-41.9 149.45,-29.57 163.67,-21.16"/>
<polygon fill="#63b8ff" stroke="#63b8ff" points="110.03,-48.82 103.2,-56.92 113.59,-54.84 110.03,-48.82"/>
</a>
</g>
</g>
<!-- Node3 -->
<g id="Node000003" class="node">
<title>Node3</title>
<g id="a_Node000003"><a xlink:href="class_j_k_q_t_p_graph_fill_style_mixin.html" target="_top" xlink:title="This Mix&#45;In class provides setter/getter methods, storage and other facilities for the graph filling ...">
<polygon fill="white" stroke="#666666" points="356,-78 192,-78 192,-57 356,-57 356,-78"/>
<text text-anchor="middle" x="274" y="-64.4" font-family="Helvetica,sans-Serif" font-size="12.00">JKQTPGraphFillStyleMixin</text>
</a>
</g>
</g>
<!-- Node3&#45;&gt;Node1 -->
<g id="edge2_Node000001_Node000003" class="edge">
<title>Node3&#45;&gt;Node1</title>
<g id="a_edge2_Node000001_Node000003"><a xlink:title=" ">
<path fill="none" stroke="#63b8ff" d="M248.96,-51.85C232.34,-42.13 211.01,-29.64 196.5,-21.16"/>
<polygon fill="#63b8ff" stroke="#63b8ff" points="247.23,-54.89 257.63,-56.92 250.76,-48.85 247.23,-54.89"/>
</a>
</g>
</g>
</g>
</svg>
