<?xml version="1.0" encoding="UTF-8" standalone="no"?>
<!DOCTYPE svg PUBLIC "-//W3C//DTD SVG 1.1//EN"
 "http://www.w3.org/Graphics/SVG/1.1/DTD/svg11.dtd">
<!-- Generated by graphviz version 2.43.0 (0)
 -->
<!-- Title: JKQTFPVBarPlot Pages: 1 -->
<svg width="303pt" height="294pt"
 viewBox="0.00 0.00 303.00 294.00" xmlns="http://www.w3.org/2000/svg" xmlns:xlink="http://www.w3.org/1999/xlink">
<g id="graph0" class="graph" transform="scale(1 1) rotate(0) translate(4 290)">
<title>JKQTFPVBarPlot</title>
<!-- Node1 -->
<g id="Node000001" class="node">
<title>Node1</title>
<g id="a_Node000001"><a xlink:title="a simple vertical bar plot for JKQTFastPlotter">
<polygon fill="#999999" stroke="#666666" points="122,-21 11,-21 11,0 122,0 122,-21"/>
<text text-anchor="middle" x="66.5" y="-7.4" font-family="Helvetica,sans-Serif" font-size="12.00">JKQTFPVBarPlot</text>
</a>
</g>
</g>
<!-- Node2 -->
<g id="Node000002" class="node">
<title>Node2</title>
<g id="a_Node000002"><a xlink:href="class_j_k_q_t_f_p_line_plot.html" target="_top" xlink:title="a simple line plot for JKQTFastPlotter">
<polygon fill="white" stroke="#666666" points="120,-79 13,-79 13,-58 120,-58 120,-79"/>
<text text-anchor="middle" x="66.5" y="-65.4" font-family="Helvetica,sans-Serif" font-size="12.00">JKQTFPLinePlot</text>
</a>
</g>
</g>
<!-- Node2&#45;&gt;Node1 -->
<g id="edge1_Node000001_Node000002" class="edge">
<title>Node2&#45;&gt;Node1</title>
<g id="a_edge1_Node000001_Node000002"><a xlink:title=" ">
<path fill="none" stroke="#63b8ff" d="M66.5,-47.66C66.5,-38.66 66.5,-28.42 66.5,-21.14"/>
<polygon fill="#63b8ff" stroke="#63b8ff" points="63,-47.75 66.5,-57.75 70,-47.75 63,-47.75"/>
</a>
</g>
</g>
<!-- Node3 -->
<g id="Node000003" class="node">
<title>Node3</title>
<g id="a_Node000003"><a xlink:href="class_j_k_q_t_f_p_plot.html" target="_top" xlink:title="base class for all plots that may be plotted by JKQTFastPlotter">
<polygon fill="white" stroke="#666666" points="107.5,-137 25.5,-137 25.5,-116 107.5,-116 107.5,-137"/>
<text text-anchor="middle" x="66.5" y="-123.4" font-family="Helvetica,sans-Serif" font-size="12.00">JKQTFPPlot</text>
</a>
</g>
</g>
<!-- Node3&#45;&gt;Node2 -->
<g id="edge2_Node000002_Node000003" class="edge">
<title>Node3&#45;&gt;Node2</title>
<g id="a_edge2_Node000002_Node000003"><a xlink:title=" ">
<path fill="none" stroke="#63b8ff" d="M66.5,-105.66C66.5,-96.66 66.5,-86.42 66.5,-79.14"/>
<polygon fill="#63b8ff" stroke="#63b8ff" points="63,-105.75 66.5,-115.75 70,-105.75 63,-105.75"/>
</a>
</g>
</g>
<!-- Node4 -->
<g id="Node000004" class="node">
<title>Node4</title>
<g id="a_Node000004"><a xlink:title=" ">
<polygon fill="white" stroke="#666666" points="65,-220.5 0,-220.5 0,-199.5 65,-199.5 65,-220.5"/>
<text text-anchor="middle" x="32.5" y="-206.9" font-family="Helvetica,sans-Serif" font-size="12.00">QObject</text>
</a>
</g>
</g>
<!-- Node4&#45;&gt;Node3 -->
<g id="edge3_Node000003_Node000004" class="edge">
<title>Node4&#45;&gt;Node3</title>
<g id="a_edge3_Node000003_Node000004"><a xlink:title=" ">
<path fill="none" stroke="#63b8ff" d="M40.4,-190.06C47.31,-173.5 57.06,-150.14 62.47,-137.16"/>
<polygon fill="#63b8ff" stroke="#63b8ff" points="37.15,-188.75 36.53,-199.33 43.61,-191.45 37.15,-188.75"/>
</a>
</g>
</g>
<!-- Node5 -->
<g id="Node000005" class="node">
<title>Node5</title>
<g id="a_Node000005"><a xlink:href="class_j_k_q_t_fast_plotter.html" target="_top" xlink:title="a speed optimized plotter class">
<polygon fill="white" stroke="#666666" points="192,-220.5 83,-220.5 83,-199.5 192,-199.5 192,-220.5"/>
<text text-anchor="middle" x="137.5" y="-206.9" font-family="Helvetica,sans-Serif" font-size="12.00">JKQTFastPlotter</text>
</a>
</g>
</g>
<!-- Node5&#45;&gt;Node3 -->
<g id="edge4_Node000003_Node000005" class="edge">
<title>Node5&#45;&gt;Node3</title>
<g id="a_edge4_Node000003_Node000005"><a xlink:title=" ">
<path fill="none" stroke="#9a32cd" stroke-dasharray="5,2" d="M122.21,-191.45C107.73,-174.83 86.54,-150.51 74.91,-137.16"/>
<polygon fill="#9a32cd" stroke="#9a32cd" points="119.87,-194.09 129.08,-199.33 125.15,-189.49 119.87,-194.09"/>
</a>
</g>
<text text-anchor="start" x="108.5" y="-160.9" font-family="Helvetica,sans-Serif" font-size="12.00" fill="grey">parent</text>
</g>
<!-- Node5&#45;&gt;Node5 -->
<g id="edge6_Node000005_Node000005" class="edge">
<title>Node5&#45;&gt;Node5</title>
<g id="a_edge6_Node000005_Node000005"><a xlink:title=" ">
<path fill="none" stroke="#9a32cd" stroke-dasharray="5,2" d="M202.41,-214.98C207.12,-213.86 210,-212.2 210,-210 210,-206.48 202.62,-204.34 192.2,-203.57"/>
<polygon fill="#9a32cd" stroke="#9a32cd" points="201.61,-211.56 192.2,-216.43 202.59,-218.49 201.61,-211.56"/>
</a>
</g>
<text text-anchor="start" x="213.5" y="-215.4" font-family="Helvetica,sans-Serif" font-size="12.00" fill="grey">synchronizeX</text>
<text text-anchor="start" x="213.5" y="-198.4" font-family="Helvetica,sans-Serif" font-size="12.00" fill="grey">synchronizeY</text>
</g>
<!-- Node6 -->
<g id="Node000006" class="node">
<title>Node6</title>
<g id="a_Node000006"><a xlink:title=" ">
<polygon fill="white" stroke="#666666" points="194.5,-286 80.5,-286 80.5,-265 194.5,-265 194.5,-286"/>
<text text-anchor="middle" x="137.5" y="-272.4" font-family="Helvetica,sans-Serif" font-size="12.00">QOpenGLWidget</text>
</a>
</g>
</g>
<!-- Node6&#45;&gt;Node5 -->
<g id="edge5_Node000005_Node000006" class="edge">
<title>Node6&#45;&gt;Node5</title>
<g id="a_edge5_Node000005_Node000006"><a xlink:title=" ">
<path fill="none" stroke="#63b8ff" d="M137.5,-254.61C137.5,-243.33 137.5,-229.72 137.5,-220.74"/>
<polygon fill="#63b8ff" stroke="#63b8ff" points="134,-254.86 137.5,-264.86 141,-254.86 134,-254.86"/>
</a>
</g>
</g>
</g>
</svg>
