<?xml version="1.0" encoding="UTF-8" standalone="no"?>
<!DOCTYPE svg PUBLIC "-//W3C//DTD SVG 1.1//EN"
 "http://www.w3.org/Graphics/SVG/1.1/DTD/svg11.dtd">
<!-- Generated by graphviz version 2.43.0 (0)
 -->
<!-- Title: JKQTPXYParametrizedErrorScatterGraph Pages: 1 -->
<svg width="1031pt" height="277pt"
 viewBox="0.00 0.00 1031.00 277.00" xmlns="http://www.w3.org/2000/svg" xmlns:xlink="http://www.w3.org/1999/xlink">
<g id="graph0" class="graph" transform="scale(1 1) rotate(0) translate(4 273)">
<title>JKQTPXYParametrizedErrorScatterGraph</title>
<!-- Node1 -->
<g id="Node000001" class="node">
<title>Node1</title>
<g id="a_Node000001"><a xlink:title="This implements xy scatter plots (like JKQTPXYScatterGraph), but the color and size of the symbols ma...">
<polygon fill="#999999" stroke="#666666" points="1023,-132.5 845,-132.5 845,-98.5 1023,-98.5 1023,-132.5"/>
<text text-anchor="start" x="853" y="-118.9" font-family="Helvetica,sans-Serif" font-size="12.00">JKQTPXYParametrizedError</text>
<text text-anchor="middle" x="934" y="-105.9" font-family="Helvetica,sans-Serif" font-size="12.00">ScatterGraph</text>
</a>
</g>
</g>
<!-- Node2 -->
<g id="Node000002" class="node">
<title>Node2</title>
<g id="a_Node000002"><a xlink:href="class_j_k_q_t_p_x_y_parametrized_scatter_graph.html" target="_top" xlink:title="This implements xy scatter plots (like JKQTPXYScatterGraph), but the color and size of the symbols ma...">
<polygon fill="white" stroke="#666666" points="809,-197.5 617,-197.5 617,-163.5 809,-163.5 809,-197.5"/>
<text text-anchor="start" x="625" y="-183.9" font-family="Helvetica,sans-Serif" font-size="12.00">JKQTPXYParametrizedScatter</text>
<text text-anchor="middle" x="713" y="-170.9" font-family="Helvetica,sans-Serif" font-size="12.00">Graph</text>
</a>
</g>
</g>
<!-- Node2&#45;&gt;Node1 -->
<g id="edge1_Node000001_Node000002" class="edge">
<title>Node2&#45;&gt;Node1</title>
<g id="a_edge1_Node000001_Node000002"><a xlink:title=" ">
<path fill="none" stroke="#63b8ff" d="M781.14,-160.57C811.3,-151.62 846.53,-141.16 875.46,-132.58"/>
<polygon fill="#63b8ff" stroke="#63b8ff" points="780.13,-157.22 771.54,-163.42 782.12,-163.93 780.13,-157.22"/>
</a>
</g>
</g>
<!-- Node3 -->
<g id="Node000003" class="node">
<title>Node3</title>
<g id="a_Node000003"><a xlink:href="class_j_k_q_t_p_x_y_graph.html" target="_top" xlink:title="This virtual JKQTPGraph descendent may be used as base for all graphs that use at least two columns t...">
<polygon fill="white" stroke="#666666" points="536.5,-269 431.5,-269 431.5,-248 536.5,-248 536.5,-269"/>
<text text-anchor="middle" x="484" y="-255.4" font-family="Helvetica,sans-Serif" font-size="12.00">JKQTPXYGraph</text>
</a>
</g>
</g>
<!-- Node3&#45;&gt;Node2 -->
<g id="edge2_Node000002_Node000003" class="edge">
<title>Node3&#45;&gt;Node2</title>
<g id="a_edge2_Node000002_Node000003"><a xlink:title=" ">
<path fill="none" stroke="#63b8ff" d="M546.84,-248.42C558.31,-245.94 570.11,-242.98 581,-239.5 615.81,-228.38 653.68,-210.66 679.71,-197.54"/>
<polygon fill="#63b8ff" stroke="#63b8ff" points="545.95,-245.03 536.87,-250.47 547.37,-251.88 545.95,-245.03"/>
</a>
</g>
</g>
<!-- Node4 -->
<g id="Node000004" class="node">
<title>Node4</title>
<g id="a_Node000004"><a xlink:href="class_j_k_q_t_p_graph.html" target="_top" xlink:title="this virtual base class of the (data&#45;column based) graphs, which are part of a JKQTPlotter plot and w...">
<polygon fill="white" stroke="#666666" points="351,-269 262,-269 262,-248 351,-248 351,-269"/>
<text text-anchor="middle" x="306.5" y="-255.4" font-family="Helvetica,sans-Serif" font-size="12.00">JKQTPGraph</text>
</a>
</g>
</g>
<!-- Node4&#45;&gt;Node3 -->
<g id="edge3_Node000003_Node000004" class="edge">
<title>Node4&#45;&gt;Node3</title>
<g id="a_edge3_Node000003_Node000004"><a xlink:title=" ">
<path fill="none" stroke="#63b8ff" d="M361.6,-258.5C383.79,-258.5 409.37,-258.5 431.31,-258.5"/>
<polygon fill="#63b8ff" stroke="#63b8ff" points="361.33,-255 351.33,-258.5 361.33,-262 361.33,-255"/>
</a>
</g>
</g>
<!-- Node5 -->
<g id="Node000005" class="node">
<title>Node5</title>
<g id="a_Node000005"><a xlink:href="class_j_k_q_t_p_plot_element.html" target="_top" xlink:title="this virtual base class of every element, which is part of a JKQTPlotter plot and may appear in its k...">
<polygon fill="white" stroke="#666666" points="226,-269 101,-269 101,-248 226,-248 226,-269"/>
<text text-anchor="middle" x="163.5" y="-255.4" font-family="Helvetica,sans-Serif" font-size="12.00">JKQTPPlotElement</text>
</a>
</g>
</g>
<!-- Node5&#45;&gt;Node4 -->
<g id="edge4_Node000004_Node000005" class="edge">
<title>Node5&#45;&gt;Node4</title>
<g id="a_edge4_Node000004_Node000005"><a xlink:title=" ">
<path fill="none" stroke="#63b8ff" d="M236.51,-258.5C245.18,-258.5 253.82,-258.5 261.91,-258.5"/>
<polygon fill="#63b8ff" stroke="#63b8ff" points="236.34,-255 226.34,-258.5 236.34,-262 236.34,-255"/>
</a>
</g>
</g>
<!-- Node6 -->
<g id="Node000006" class="node">
<title>Node6</title>
<g id="a_Node000006"><a xlink:title=" ">
<polygon fill="white" stroke="#666666" points="65,-269 0,-269 0,-248 65,-248 65,-269"/>
<text text-anchor="middle" x="32.5" y="-255.4" font-family="Helvetica,sans-Serif" font-size="12.00">QObject</text>
</a>
</g>
</g>
<!-- Node6&#45;&gt;Node5 -->
<g id="edge5_Node000005_Node000006" class="edge">
<title>Node6&#45;&gt;Node5</title>
<g id="a_edge5_Node000005_Node000006"><a xlink:title=" ">
<path fill="none" stroke="#63b8ff" d="M75.09,-258.5C83.29,-258.5 92.05,-258.5 100.75,-258.5"/>
<polygon fill="#63b8ff" stroke="#63b8ff" points="75.06,-255 65.06,-258.5 75.06,-262 75.06,-255"/>
</a>
</g>
</g>
<!-- Node7 -->
<g id="Node000007" class="node">
<title>Node7</title>
<g id="a_Node000007"><a xlink:href="class_j_k_q_t_p_graph_line_style_mixin.html" target="_top" xlink:title="This Mix&#45;In class provides setter/getter methods, storage and other facilities for the graph line sty...">
<polygon fill="white" stroke="#666666" points="571,-230 397,-230 397,-209 571,-209 571,-230"/>
<text text-anchor="middle" x="484" y="-216.4" font-family="Helvetica,sans-Serif" font-size="12.00">JKQTPGraphLineStyleMixin</text>
</a>
</g>
</g>
<!-- Node7&#45;&gt;Node2 -->
<g id="edge6_Node000002_Node000007" class="edge">
<title>Node7&#45;&gt;Node2</title>
<g id="a_edge6_Node000002_Node000007"><a xlink:title=" ">
<path fill="none" stroke="#63b8ff" d="M556.04,-207.29C575.36,-203.98 596.59,-200.33 617,-196.82"/>
<polygon fill="#63b8ff" stroke="#63b8ff" points="555.39,-203.85 546.13,-209 556.58,-210.75 555.39,-203.85"/>
</a>
</g>
</g>
<!-- Node8 -->
<g id="Node000008" class="node">
<title>Node8</title>
<g id="a_Node000008"><a xlink:href="class_j_k_q_t_p_graph_symbol_style_mixin.html" target="_top" xlink:title="This Mix&#45;In class provides setter/getter methods, storage and other facilities for the graph symbols ...">
<polygon fill="white" stroke="#666666" points="581,-191 387,-191 387,-170 581,-170 581,-191"/>
<text text-anchor="middle" x="484" y="-177.4" font-family="Helvetica,sans-Serif" font-size="12.00">JKQTPGraphSymbolStyleMixin</text>
</a>
</g>
</g>
<!-- Node8&#45;&gt;Node2 -->
<g id="edge7_Node000002_Node000008" class="edge">
<title>Node8&#45;&gt;Node2</title>
<g id="a_edge7_Node000002_Node000008"><a xlink:title=" ">
<path fill="none" stroke="#63b8ff" d="M591.48,-180.5C599.89,-180.5 608.35,-180.5 616.67,-180.5"/>
<polygon fill="#63b8ff" stroke="#63b8ff" points="591.27,-177 581.27,-180.5 591.27,-184 591.27,-177"/>
</a>
</g>
</g>
<!-- Node9 -->
<g id="Node000009" class="node">
<title>Node9</title>
<g id="a_Node000009"><a xlink:href="class_j_k_q_t_p_color_palette_style_and_tools_mixin.html" target="_top" xlink:title="if a class is derived from this class, it may use color bars">
<polygon fill="white" stroke="#666666" points="573,-151.5 395,-151.5 395,-117.5 573,-117.5 573,-151.5"/>
<text text-anchor="start" x="403" y="-137.9" font-family="Helvetica,sans-Serif" font-size="12.00">JKQTPColorPaletteStyleAnd</text>
<text text-anchor="middle" x="484" y="-124.9" font-family="Helvetica,sans-Serif" font-size="12.00">ToolsMixin</text>
</a>
</g>
</g>
<!-- Node9&#45;&gt;Node2 -->
<g id="edge8_Node000002_Node000009" class="edge">
<title>Node9&#45;&gt;Node2</title>
<g id="a_edge8_Node000002_Node000009"><a xlink:title=" ">
<path fill="none" stroke="#63b8ff" d="M579.19,-153.59C595.35,-156.86 612.05,-160.25 627.93,-163.46"/>
<polygon fill="#63b8ff" stroke="#63b8ff" points="579.7,-150.12 569.2,-151.56 578.31,-156.98 579.7,-150.12"/>
</a>
</g>
</g>
<!-- Node10 -->
<g id="Node000010" class="node">
<title>Node10</title>
<g id="a_Node000010"><a xlink:href="class_j_k_q_t_p_x_y_graph_errors.html" target="_top" xlink:title="This class is the base class for graphs that only display error indicators in x&#45; and y&#45;direction.">
<polygon fill="white" stroke="#666666" points="783,-80 643,-80 643,-59 783,-59 783,-80"/>
<text text-anchor="middle" x="713" y="-66.4" font-family="Helvetica,sans-Serif" font-size="12.00">JKQTPXYGraphErrors</text>
</a>
</g>
</g>
<!-- Node10&#45;&gt;Node1 -->
<g id="edge9_Node000001_Node000010" class="edge">
<title>Node10&#45;&gt;Node1</title>
<g id="a_edge9_Node000001_Node000010"><a xlink:title=" ">
<path fill="none" stroke="#63b8ff" d="M774.23,-82.15C798.14,-87.17 826.01,-93.03 851.66,-98.42"/>
<polygon fill="#63b8ff" stroke="#63b8ff" points="774.75,-78.68 764.24,-80.05 773.31,-85.53 774.75,-78.68"/>
</a>
</g>
</g>
<!-- Node11 -->
<g id="Node000011" class="node">
<title>Node11</title>
<g id="a_Node000011"><a xlink:href="class_j_k_q_t_p_x_graph_error_data.html" target="_top" xlink:title="This class adds data fields for error indicators in x direction.">
<polygon fill="white" stroke="#666666" points="561.5,-99 406.5,-99 406.5,-78 561.5,-78 561.5,-99"/>
<text text-anchor="middle" x="484" y="-85.4" font-family="Helvetica,sans-Serif" font-size="12.00">JKQTPXGraphErrorData</text>
</a>
</g>
</g>
<!-- Node11&#45;&gt;Node10 -->
<g id="edge10_Node000010_Node000011" class="edge">
<title>Node11&#45;&gt;Node10</title>
<g id="a_edge10_Node000010_Node000011"><a xlink:title=" ">
<path fill="none" stroke="#63b8ff" d="M571.51,-81.26C595.04,-79.29 620.22,-77.18 642.67,-75.3"/>
<polygon fill="#63b8ff" stroke="#63b8ff" points="571.21,-77.77 561.54,-82.09 571.79,-84.75 571.21,-77.77"/>
</a>
</g>
</g>
<!-- Node12 -->
<g id="Node000012" class="node">
<title>Node12</title>
<g id="a_Node000012"><a xlink:href="class_j_k_q_t_p_y_graph_error_data.html" target="_top" xlink:title="This class adds data fields for error indicators in y direction.">
<polygon fill="white" stroke="#666666" points="561,-60 407,-60 407,-39 561,-39 561,-60"/>
<text text-anchor="middle" x="484" y="-46.4" font-family="Helvetica,sans-Serif" font-size="12.00">JKQTPYGraphErrorData</text>
</a>
</g>
</g>
<!-- Node12&#45;&gt;Node10 -->
<g id="edge11_Node000010_Node000012" class="edge">
<title>Node12&#45;&gt;Node10</title>
<g id="a_edge11_Node000010_Node000012"><a xlink:title=" ">
<path fill="none" stroke="#63b8ff" d="M571.25,-57.1C594.92,-59.18 620.28,-61.42 642.86,-63.41"/>
<polygon fill="#63b8ff" stroke="#63b8ff" points="571.49,-53.61 561.22,-56.22 570.87,-60.58 571.49,-53.61"/>
</a>
</g>
</g>
<!-- Node13 -->
<g id="Node000013" class="node">
<title>Node13</title>
<g id="a_Node000013"><a xlink:href="class_j_k_q_t_p_graph_error_style_mixin.html" target="_top" xlink:title="This mix&#45;in class assembles all styling properties applicable to error indicators.">
<polygon fill="white" stroke="#666666" points="573.5,-21 394.5,-21 394.5,0 573.5,0 573.5,-21"/>
<text text-anchor="middle" x="484" y="-7.4" font-family="Helvetica,sans-Serif" font-size="12.00">JKQTPGraphErrorStyleMixin</text>
</a>
</g>
</g>
<!-- Node13&#45;&gt;Node10 -->
<g id="edge12_Node000010_Node000013" class="edge">
<title>Node13&#45;&gt;Node10</title>
<g id="a_edge12_Node000010_Node000013"><a xlink:title=" ">
<path fill="none" stroke="#63b8ff" d="M552.89,-23.05C562.36,-25.06 571.95,-27.23 581,-29.5 615.48,-38.15 654.37,-50.34 680.75,-58.98"/>
<polygon fill="#63b8ff" stroke="#63b8ff" points="553.58,-19.62 543.08,-21.01 552.16,-26.47 553.58,-19.62"/>
</a>
</g>
</g>
</g>
</svg>
