<?xml version="1.0" encoding="UTF-8" standalone="no"?>
<!DOCTYPE svg PUBLIC "-//W3C//DTD SVG 1.1//EN"
 "http://www.w3.org/Graphics/SVG/1.1/DTD/svg11.dtd">
<!-- Generated by graphviz version 2.43.0 (0)
 -->
<!-- Title: JKQTFPQScaleBarXPlot Pages: 1 -->
<svg width="313pt" height="236pt"
 viewBox="0.00 0.00 313.00 236.00" xmlns="http://www.w3.org/2000/svg" xmlns:xlink="http://www.w3.org/1999/xlink">
<g id="graph0" class="graph" transform="scale(1 1) rotate(0) translate(4 232)">
<title>JKQTFPQScaleBarXPlot</title>
<!-- Node1 -->
<g id="Node000001" class="node">
<title>Node1</title>
<g id="a_Node000001"><a xlink:title="plot a horizontal scale bar">
<polygon fill="#999999" stroke="#666666" points="153,-21 0,-21 0,0 153,0 153,-21"/>
<text text-anchor="middle" x="76.5" y="-7.4" font-family="Helvetica,sans-Serif" font-size="12.00">JKQTFPQScaleBarXPlot</text>
</a>
</g>
</g>
<!-- Node2 -->
<g id="Node000002" class="node">
<title>Node2</title>
<g id="a_Node000002"><a xlink:href="class_j_k_q_t_f_p_plot.html" target="_top" xlink:title="base class for all plots that may be plotted by JKQTFastPlotter">
<polygon fill="white" stroke="#666666" points="117.5,-79 35.5,-79 35.5,-58 117.5,-58 117.5,-79"/>
<text text-anchor="middle" x="76.5" y="-65.4" font-family="Helvetica,sans-Serif" font-size="12.00">JKQTFPPlot</text>
</a>
</g>
</g>
<!-- Node2&#45;&gt;Node1 -->
<g id="edge1_Node000001_Node000002" class="edge">
<title>Node2&#45;&gt;Node1</title>
<g id="a_edge1_Node000001_Node000002"><a xlink:title=" ">
<path fill="none" stroke="#63b8ff" d="M76.5,-47.66C76.5,-38.66 76.5,-28.42 76.5,-21.14"/>
<polygon fill="#63b8ff" stroke="#63b8ff" points="73,-47.75 76.5,-57.75 80,-47.75 73,-47.75"/>
</a>
</g>
</g>
<!-- Node3 -->
<g id="Node000003" class="node">
<title>Node3</title>
<g id="a_Node000003"><a xlink:title=" ">
<polygon fill="white" stroke="#666666" points="75,-162.5 10,-162.5 10,-141.5 75,-141.5 75,-162.5"/>
<text text-anchor="middle" x="42.5" y="-148.9" font-family="Helvetica,sans-Serif" font-size="12.00">QObject</text>
</a>
</g>
</g>
<!-- Node3&#45;&gt;Node2 -->
<g id="edge2_Node000002_Node000003" class="edge">
<title>Node3&#45;&gt;Node2</title>
<g id="a_edge2_Node000002_Node000003"><a xlink:title=" ">
<path fill="none" stroke="#63b8ff" d="M50.4,-132.06C57.31,-115.5 67.06,-92.14 72.47,-79.16"/>
<polygon fill="#63b8ff" stroke="#63b8ff" points="47.15,-130.75 46.53,-141.33 53.61,-133.45 47.15,-130.75"/>
</a>
</g>
</g>
<!-- Node4 -->
<g id="Node000004" class="node">
<title>Node4</title>
<g id="a_Node000004"><a xlink:href="class_j_k_q_t_fast_plotter.html" target="_top" xlink:title="a speed optimized plotter class">
<polygon fill="white" stroke="#666666" points="202,-162.5 93,-162.5 93,-141.5 202,-141.5 202,-162.5"/>
<text text-anchor="middle" x="147.5" y="-148.9" font-family="Helvetica,sans-Serif" font-size="12.00">JKQTFastPlotter</text>
</a>
</g>
</g>
<!-- Node4&#45;&gt;Node2 -->
<g id="edge3_Node000002_Node000004" class="edge">
<title>Node4&#45;&gt;Node2</title>
<g id="a_edge3_Node000002_Node000004"><a xlink:title=" ">
<path fill="none" stroke="#9a32cd" stroke-dasharray="5,2" d="M132.21,-133.45C117.73,-116.83 96.54,-92.51 84.91,-79.16"/>
<polygon fill="#9a32cd" stroke="#9a32cd" points="129.87,-136.09 139.08,-141.33 135.15,-131.49 129.87,-136.09"/>
</a>
</g>
<text text-anchor="start" x="118.5" y="-102.9" font-family="Helvetica,sans-Serif" font-size="12.00" fill="grey">parent</text>
</g>
<!-- Node4&#45;&gt;Node4 -->
<g id="edge5_Node000004_Node000004" class="edge">
<title>Node4&#45;&gt;Node4</title>
<g id="a_edge5_Node000004_Node000004"><a xlink:title=" ">
<path fill="none" stroke="#9a32cd" stroke-dasharray="5,2" d="M212.41,-156.98C217.12,-155.86 220,-154.2 220,-152 220,-148.48 212.62,-146.34 202.2,-145.57"/>
<polygon fill="#9a32cd" stroke="#9a32cd" points="211.61,-153.56 202.2,-158.43 212.59,-160.49 211.61,-153.56"/>
</a>
</g>
<text text-anchor="start" x="223.5" y="-157.4" font-family="Helvetica,sans-Serif" font-size="12.00" fill="grey">synchronizeX</text>
<text text-anchor="start" x="223.5" y="-140.4" font-family="Helvetica,sans-Serif" font-size="12.00" fill="grey">synchronizeY</text>
</g>
<!-- Node5 -->
<g id="Node000005" class="node">
<title>Node5</title>
<g id="a_Node000005"><a xlink:title=" ">
<polygon fill="white" stroke="#666666" points="204.5,-228 90.5,-228 90.5,-207 204.5,-207 204.5,-228"/>
<text text-anchor="middle" x="147.5" y="-214.4" font-family="Helvetica,sans-Serif" font-size="12.00">QOpenGLWidget</text>
</a>
</g>
</g>
<!-- Node5&#45;&gt;Node4 -->
<g id="edge4_Node000004_Node000005" class="edge">
<title>Node5&#45;&gt;Node4</title>
<g id="a_edge4_Node000004_Node000005"><a xlink:title=" ">
<path fill="none" stroke="#63b8ff" d="M147.5,-196.61C147.5,-185.33 147.5,-171.72 147.5,-162.74"/>
<polygon fill="#63b8ff" stroke="#63b8ff" points="144,-196.86 147.5,-206.86 151,-196.86 144,-196.86"/>
</a>
</g>
</g>
</g>
</svg>
