<?xml version="1.0" encoding="UTF-8" standalone="no"?>
<!DOCTYPE svg PUBLIC "-//W3C//DTD SVG 1.1//EN"
 "http://www.w3.org/Graphics/SVG/1.1/DTD/svg11.dtd">
<!-- Generated by graphviz version 2.43.0 (0)
 -->
<!-- Title: JKQTPColumnBackInserter Pages: 1 -->
<svg width="603pt" height="181pt"
 viewBox="0.00 0.00 602.50 181.00" xmlns="http://www.w3.org/2000/svg" xmlns:xlink="http://www.w3.org/1999/xlink">
<g id="graph0" class="graph" transform="scale(1 1) rotate(0) translate(4 177)">
<title>JKQTPColumnBackInserter</title>
<!-- Node1 -->
<g id="Node000001" class="node">
<title>Node1</title>
<g id="a_Node000001"><a xlink:title="iterator, which allows to insert into a column of a JKQTPDatastore">
<polygon fill="#999999" stroke="#666666" points="175,-97 0,-97 0,-76 175,-76 175,-97"/>
<text text-anchor="middle" x="87.5" y="-83.4" font-family="Helvetica,sans-Serif" font-size="12.00">JKQTPColumnBackInserter</text>
</a>
</g>
</g>
<!-- Node2 -->
<g id="Node000002" class="node">
<title>Node2</title>
<g id="a_Node000002"><a xlink:href="class_j_k_q_t_p_datastore.html" target="_top" xlink:title="This class manages data columns (with entries of type double ), used by JKQTPlotter/JKQTBasePlotter t...">
<polygon fill="white" stroke="#666666" points="298,-173 187,-173 187,-152 298,-152 298,-173"/>
<text text-anchor="middle" x="242.5" y="-159.4" font-family="Helvetica,sans-Serif" font-size="12.00">JKQTPDatastore</text>
</a>
</g>
</g>
<!-- Node2&#45;&gt;Node1 -->
<g id="edge1_Node000001_Node000002" class="edge">
<title>Node2&#45;&gt;Node1</title>
<g id="a_edge1_Node000001_Node000002"><a xlink:title=" ">
<path fill="none" stroke="#9a32cd" stroke-dasharray="5,2" d="M213.2,-147.51C182.41,-132.81 134.78,-110.07 107.86,-97.22"/>
<polygon fill="#9a32cd" stroke="#9a32cd" points="212.02,-150.83 222.55,-151.98 215.04,-144.51 212.02,-150.83"/>
</a>
</g>
<text text-anchor="start" x="186.5" y="-120.9" font-family="Helvetica,sans-Serif" font-size="12.00" fill="grey">ds_</text>
</g>
<!-- Node4 -->
<g id="Node000004" class="node">
<title>Node4</title>
<g id="a_Node000004"><a xlink:href="class_j_k_q_t_p_column.html" target="_top" xlink:title="internally stores information about one data column. See JKQTPDatastore for more information.">
<polygon fill="white" stroke="#666666" points="291.5,-97 193.5,-97 193.5,-76 291.5,-76 291.5,-97"/>
<text text-anchor="middle" x="242.5" y="-83.4" font-family="Helvetica,sans-Serif" font-size="12.00">JKQTPColumn</text>
</a>
</g>
</g>
<!-- Node2&#45;&gt;Node4 -->
<g id="edge4_Node000004_Node000002" class="edge">
<title>Node2&#45;&gt;Node4</title>
<g id="a_edge4_Node000004_Node000002"><a xlink:title=" ">
<path fill="none" stroke="#9a32cd" stroke-dasharray="5,2" d="M242.5,-141.53C242.5,-127.25 242.5,-108.65 242.5,-97.41"/>
<polygon fill="#9a32cd" stroke="#9a32cd" points="239,-141.83 242.5,-151.83 246,-141.83 239,-141.83"/>
</a>
</g>
<text text-anchor="start" x="245.5" y="-120.9" font-family="Helvetica,sans-Serif" font-size="12.00" fill="grey">datastore</text>
</g>
<!-- Node3 -->
<g id="Node000003" class="node">
<title>Node3</title>
<g id="a_Node000003"><a xlink:title=" ">
<polygon fill="white" stroke="#666666" points="435,-21 220,-21 220,0 435,0 435,-21"/>
<text text-anchor="middle" x="327.5" y="-7.4" font-family="Helvetica,sans-Serif" font-size="12.00">std::unique_ptr&lt; JKQTPColumn &gt;</text>
</a>
</g>
</g>
<!-- Node3&#45;&gt;Node2 -->
<g id="edge2_Node000002_Node000003" class="edge">
<title>Node3&#45;&gt;Node2</title>
<g id="a_edge2_Node000002_Node000003"><a xlink:title=" ">
<path fill="none" stroke="#9a32cd" stroke-dasharray="5,2" d="M330.41,-31.59C333.06,-57.96 333.61,-104.35 310.5,-134 304.16,-142.13 295.02,-147.87 285.49,-151.92"/>
<polygon fill="#9a32cd" stroke="#9a32cd" points="333.84,-30.82 329.16,-21.32 326.89,-31.67 333.84,-30.82"/>
</a>
</g>
<text text-anchor="start" x="335" y="-82.9" font-family="Helvetica,sans-Serif" font-size="12.00" fill="grey">m_invalidColumn</text>
</g>
<!-- Node4&#45;&gt;Node3 -->
<g id="edge3_Node000003_Node000004" class="edge">
<title>Node4&#45;&gt;Node3</title>
<g id="a_edge3_Node000003_Node000004"><a xlink:title=" ">
<path fill="none" stroke="#9a32cd" stroke-dasharray="5,2" d="M258.5,-68.45C267.32,-59.36 278.67,-48.19 289.5,-39 296.95,-32.68 305.77,-26.24 313.03,-21.19"/>
<polygon fill="#9a32cd" stroke="#9a32cd" points="255.85,-66.15 251.46,-75.8 260.9,-70.99 255.85,-66.15"/>
</a>
</g>
<text text-anchor="start" x="292.5" y="-44.9" font-family="Helvetica,sans-Serif" font-size="12.00" fill="grey">ptr</text>
</g>
<!-- Node5 -->
<g id="Node000005" class="node">
<title>Node5</title>
<g id="a_Node000005"><a xlink:title=" ">
<polygon fill="white" stroke="#666666" points="594.5,-97 454.5,-97 454.5,-76 594.5,-76 594.5,-97"/>
<text text-anchor="middle" x="524.5" y="-83.4" font-family="Helvetica,sans-Serif" font-size="12.00">std::unique_ptr&lt; T &gt;</text>
</a>
</g>
</g>
<!-- Node5&#45;&gt;Node3 -->
<g id="edge5_Node000003_Node000005" class="edge">
<title>Node5&#45;&gt;Node3</title>
<g id="a_edge5_Node000003_Node000005"><a xlink:title=" ">
<path fill="none" stroke="orange" stroke-dasharray="5,2" d="M489.74,-72.44C450.61,-57.74 387.96,-34.21 353.07,-21.1"/>
<polygon fill="orange" stroke="orange" points="488.56,-75.74 499.15,-75.98 491.02,-69.18 488.56,-75.74"/>
</a>
</g>
<text text-anchor="start" x="453" y="-44.9" font-family="Helvetica,sans-Serif" font-size="12.00" fill="grey">&lt; JKQTPColumn &gt;</text>
</g>
<!-- Node6 -->
<g id="Node000006" class="node">
<title>Node6</title>
<g id="a_Node000006"><a xlink:title=" ">
<polygon fill="white" stroke="#666666" points="539,-173 510,-173 510,-152 539,-152 539,-173"/>
<text text-anchor="middle" x="524.5" y="-159.4" font-family="Helvetica,sans-Serif" font-size="12.00">T</text>
</a>
</g>
</g>
<!-- Node6&#45;&gt;Node5 -->
<g id="edge6_Node000005_Node000006" class="edge">
<title>Node6&#45;&gt;Node5</title>
<g id="a_edge6_Node000005_Node000006"><a xlink:title=" ">
<path fill="none" stroke="#9a32cd" stroke-dasharray="5,2" d="M524.5,-141.53C524.5,-127.25 524.5,-108.65 524.5,-97.41"/>
<polygon fill="#9a32cd" stroke="#9a32cd" points="521,-141.83 524.5,-151.83 528,-141.83 521,-141.83"/>
</a>
</g>
<text text-anchor="start" x="527.5" y="-120.9" font-family="Helvetica,sans-Serif" font-size="12.00" fill="grey">ptr</text>
</g>
</g>
</svg>
