<?xml version="1.0" encoding="UTF-8" standalone="no"?>
<!DOCTYPE svg PUBLIC "-//W3C//DTD SVG 1.1//EN"
 "http://www.w3.org/Graphics/SVG/1.1/DTD/svg11.dtd">
<!-- Generated by graphviz version 2.43.0 (0)
 -->
<!-- Title: JKQTPMathImage Pages: 1 -->
<svg width="376pt" height="454pt"
 viewBox="0.00 0.00 376.00 454.00" xmlns="http://www.w3.org/2000/svg" xmlns:xlink="http://www.w3.org/1999/xlink">
<g id="graph0" class="graph" transform="scale(1 1) rotate(0) translate(4 450)">
<title>JKQTPMathImage</title>
<!-- Node1 -->
<g id="Node000001" class="node">
<title>Node1</title>
<g id="a_Node000001"><a xlink:title="class to plot an image from an 2&#45;dimensional array of values">
<polygon fill="#999999" stroke="#666666" points="231.5,-135 110.5,-135 110.5,-114 231.5,-114 231.5,-135"/>
<text text-anchor="middle" x="171" y="-121.4" font-family="Helvetica,sans-Serif" font-size="12.00">JKQTPMathImage</text>
</a>
</g>
</g>
<!-- Node9 -->
<g id="Node000009" class="node">
<title>Node9</title>
<g id="a_Node000009"><a xlink:href="class_j_k_q_t_p_column_math_image.html" target="_top" xlink:title="class to plot an image from an 2&#45;dimensional array of values stored in a column of the datastore">
<polygon fill="white" stroke="#666666" points="173.5,-78 6.5,-78 6.5,-57 173.5,-57 173.5,-78"/>
<text text-anchor="middle" x="90" y="-64.4" font-family="Helvetica,sans-Serif" font-size="12.00">JKQTPColumnMathImage</text>
</a>
</g>
</g>
<!-- Node1&#45;&gt;Node9 -->
<g id="edge8_Node000001_Node000009" class="edge">
<title>Node1&#45;&gt;Node9</title>
<g id="a_edge8_Node000001_Node000009"><a xlink:title=" ">
<path fill="none" stroke="#63b8ff" d="M148.22,-108.03C134.09,-98.44 116.37,-86.41 104.22,-78.16"/>
<polygon fill="#63b8ff" stroke="#63b8ff" points="146.65,-111.2 156.89,-113.92 150.58,-105.41 146.65,-111.2"/>
</a>
</g>
</g>
<!-- Node10 -->
<g id="Node000010" class="node">
<title>Node10</title>
<g id="a_Node000010"><a xlink:href="class_j_k_q_t_p_contour_plot.html" target="_top" xlink:title="class for a contour plot">
<polygon fill="white" stroke="#666666" points="314.5,-78 191.5,-78 191.5,-57 314.5,-57 314.5,-78"/>
<text text-anchor="middle" x="253" y="-64.4" font-family="Helvetica,sans-Serif" font-size="12.00">JKQTPContourPlot</text>
</a>
</g>
</g>
<!-- Node1&#45;&gt;Node10 -->
<g id="edge9_Node000001_Node000010" class="edge">
<title>Node1&#45;&gt;Node10</title>
<g id="a_edge9_Node000001_Node000010"><a xlink:title=" ">
<path fill="none" stroke="#63b8ff" d="M193.66,-108.3C208.03,-98.67 226.18,-86.49 238.61,-78.16"/>
<polygon fill="#63b8ff" stroke="#63b8ff" points="191.64,-105.44 185.28,-113.92 195.54,-111.26 191.64,-105.44"/>
</a>
</g>
</g>
<!-- Node2 -->
<g id="Node000002" class="node">
<title>Node2</title>
<g id="a_Node000002"><a xlink:href="class_j_k_q_t_p_math_image_base.html" target="_top" xlink:title="base class to hold an image from an 2&#45;dimensional array of values">
<polygon fill="white" stroke="#666666" points="150,-198.5 0,-198.5 0,-177.5 150,-177.5 150,-198.5"/>
<text text-anchor="middle" x="75" y="-184.9" font-family="Helvetica,sans-Serif" font-size="12.00">JKQTPMathImageBase</text>
</a>
</g>
</g>
<!-- Node2&#45;&gt;Node1 -->
<g id="edge1_Node000001_Node000002" class="edge">
<title>Node2&#45;&gt;Node1</title>
<g id="a_edge1_Node000001_Node000002"><a xlink:title=" ">
<path fill="none" stroke="#63b8ff" d="M98.75,-171.79C116.7,-160.29 140.79,-144.85 156.11,-135.04"/>
<polygon fill="#63b8ff" stroke="#63b8ff" points="96.53,-169.05 90,-177.39 100.31,-174.94 96.53,-169.05"/>
</a>
</g>
</g>
<!-- Node3 -->
<g id="Node000003" class="node">
<title>Node3</title>
<g id="a_Node000003"><a xlink:href="class_j_k_q_t_p_image_base.html" target="_top" xlink:title="base class for plotting an image">
<polygon fill="white" stroke="#666666" points="135,-268.5 15,-268.5 15,-247.5 135,-247.5 135,-268.5"/>
<text text-anchor="middle" x="75" y="-254.9" font-family="Helvetica,sans-Serif" font-size="12.00">JKQTPImageBase</text>
</a>
</g>
</g>
<!-- Node3&#45;&gt;Node2 -->
<g id="edge2_Node000002_Node000003" class="edge">
<title>Node3&#45;&gt;Node2</title>
<g id="a_edge2_Node000002_Node000003"><a xlink:title=" ">
<path fill="none" stroke="#63b8ff" d="M75,-237.2C75,-224.55 75,-208.72 75,-198.72"/>
<polygon fill="#63b8ff" stroke="#63b8ff" points="71.5,-237.26 75,-247.26 78.5,-237.26 71.5,-237.26"/>
</a>
</g>
</g>
<!-- Node4 -->
<g id="Node000004" class="node">
<title>Node4</title>
<g id="a_Node000004"><a xlink:href="class_j_k_q_t_p_graph.html" target="_top" xlink:title="this virtual base class of the (data&#45;column based) graphs, which are part of a JKQTPlotter plot and w...">
<polygon fill="white" stroke="#666666" points="119.5,-332 30.5,-332 30.5,-311 119.5,-311 119.5,-332"/>
<text text-anchor="middle" x="75" y="-318.4" font-family="Helvetica,sans-Serif" font-size="12.00">JKQTPGraph</text>
</a>
</g>
</g>
<!-- Node4&#45;&gt;Node3 -->
<g id="edge3_Node000003_Node000004" class="edge">
<title>Node4&#45;&gt;Node3</title>
<g id="a_edge3_Node000003_Node000004"><a xlink:title=" ">
<path fill="none" stroke="#63b8ff" d="M75,-300.75C75,-290.05 75,-277.31 75,-268.74"/>
<polygon fill="#63b8ff" stroke="#63b8ff" points="71.5,-300.89 75,-310.89 78.5,-300.89 71.5,-300.89"/>
</a>
</g>
</g>
<!-- Node5 -->
<g id="Node000005" class="node">
<title>Node5</title>
<g id="a_Node000005"><a xlink:href="class_j_k_q_t_p_plot_element.html" target="_top" xlink:title="this virtual base class of every element, which is part of a JKQTPlotter plot and may appear in its k...">
<polygon fill="white" stroke="#666666" points="137.5,-389 12.5,-389 12.5,-368 137.5,-368 137.5,-389"/>
<text text-anchor="middle" x="75" y="-375.4" font-family="Helvetica,sans-Serif" font-size="12.00">JKQTPPlotElement</text>
</a>
</g>
</g>
<!-- Node5&#45;&gt;Node4 -->
<g id="edge4_Node000004_Node000005" class="edge">
<title>Node5&#45;&gt;Node4</title>
<g id="a_edge4_Node000004_Node000005"><a xlink:title=" ">
<path fill="none" stroke="#63b8ff" d="M75,-357.86C75,-349.2 75,-339.42 75,-332.34"/>
<polygon fill="#63b8ff" stroke="#63b8ff" points="71.5,-357.92 75,-367.92 78.5,-357.92 71.5,-357.92"/>
</a>
</g>
</g>
<!-- Node6 -->
<g id="Node000006" class="node">
<title>Node6</title>
<g id="a_Node000006"><a xlink:title=" ">
<polygon fill="white" stroke="#666666" points="107.5,-446 42.5,-446 42.5,-425 107.5,-425 107.5,-446"/>
<text text-anchor="middle" x="75" y="-432.4" font-family="Helvetica,sans-Serif" font-size="12.00">QObject</text>
</a>
</g>
</g>
<!-- Node6&#45;&gt;Node5 -->
<g id="edge5_Node000005_Node000006" class="edge">
<title>Node6&#45;&gt;Node5</title>
<g id="a_edge5_Node000005_Node000006"><a xlink:title=" ">
<path fill="none" stroke="#63b8ff" d="M75,-414.86C75,-406.2 75,-396.42 75,-389.34"/>
<polygon fill="#63b8ff" stroke="#63b8ff" points="71.5,-414.92 75,-424.92 78.5,-414.92 71.5,-414.92"/>
</a>
</g>
</g>
<!-- Node7 -->
<g id="Node000007" class="node">
<title>Node7</title>
<g id="a_Node000007"><a xlink:href="class_j_k_q_t_p_color_palette_with_modifier_style_and_tools_mixin.html" target="_top" xlink:title="if a class is derived from this class, it may use color bars that have 2 axes (one &quot;data&quot;/color axis ...">
<polygon fill="white" stroke="#666666" points="368,-205 168,-205 168,-171 368,-171 368,-205"/>
<text text-anchor="start" x="176" y="-191.4" font-family="Helvetica,sans-Serif" font-size="12.00">JKQTPColorPaletteWithModifier</text>
<text text-anchor="middle" x="268" y="-178.4" font-family="Helvetica,sans-Serif" font-size="12.00">StyleAndToolsMixin</text>
</a>
</g>
</g>
<!-- Node7&#45;&gt;Node1 -->
<g id="edge6_Node000001_Node000007" class="edge">
<title>Node7&#45;&gt;Node1</title>
<g id="a_edge6_Node000001_Node000007"><a xlink:title=" ">
<path fill="none" stroke="#63b8ff" d="M233.75,-165.28C217.43,-154.94 198.75,-143.1 186.05,-135.04"/>
<polygon fill="#63b8ff" stroke="#63b8ff" points="232.19,-168.44 242.51,-170.84 235.94,-162.53 232.19,-168.44"/>
</a>
</g>
</g>
<!-- Node8 -->
<g id="Node000008" class="node">
<title>Node8</title>
<g id="a_Node000008"><a xlink:href="class_j_k_q_t_p_color_palette_style_and_tools_mixin.html" target="_top" xlink:title="if a class is derived from this class, it may use color bars">
<polygon fill="white" stroke="#666666" points="357,-275 179,-275 179,-241 357,-241 357,-275"/>
<text text-anchor="start" x="187" y="-261.4" font-family="Helvetica,sans-Serif" font-size="12.00">JKQTPColorPaletteStyleAnd</text>
<text text-anchor="middle" x="268" y="-248.4" font-family="Helvetica,sans-Serif" font-size="12.00">ToolsMixin</text>
</a>
</g>
</g>
<!-- Node8&#45;&gt;Node7 -->
<g id="edge7_Node000007_Node000008" class="edge">
<title>Node8&#45;&gt;Node7</title>
<g id="a_edge7_Node000007_Node000008"><a xlink:title=" ">
<path fill="none" stroke="#63b8ff" d="M268,-230.67C268,-222.19 268,-213.03 268,-205.47"/>
<polygon fill="#63b8ff" stroke="#63b8ff" points="264.5,-230.88 268,-240.88 271.5,-230.88 264.5,-230.88"/>
</a>
</g>
</g>
<!-- Node11 -->
<g id="Node000011" class="node">
<title>Node11</title>
<g id="a_Node000011"><a xlink:href="class_j_k_q_t_p_column_contour_plot.html" target="_top" xlink:title="class for a contour plots (same as JKQTPContourPlot) of images stored in a JKQTPDatastore column">
<polygon fill="white" stroke="#666666" points="337.5,-21 168.5,-21 168.5,0 337.5,0 337.5,-21"/>
<text text-anchor="middle" x="253" y="-7.4" font-family="Helvetica,sans-Serif" font-size="12.00">JKQTPColumnContourPlot</text>
</a>
</g>
</g>
<!-- Node10&#45;&gt;Node11 -->
<g id="edge10_Node000010_Node000011" class="edge">
<title>Node10&#45;&gt;Node11</title>
<g id="a_edge10_Node000010_Node000011"><a xlink:title=" ">
<path fill="none" stroke="#63b8ff" d="M253,-46.86C253,-38.2 253,-28.42 253,-21.34"/>
<polygon fill="#63b8ff" stroke="#63b8ff" points="249.5,-46.92 253,-56.92 256.5,-46.92 249.5,-46.92"/>
</a>
</g>
</g>
</g>
</svg>
