<?xml version="1.0" encoding="UTF-8" standalone="no"?>
<!DOCTYPE svg PUBLIC "-//W3C//DTD SVG 1.1//EN"
 "http://www.w3.org/Graphics/SVG/1.1/DTD/svg11.dtd">
<!-- Generated by graphviz version 2.43.0 (0)
 -->
<!-- Title: JKQTMathTextModifiedEnvironmentInstructionNode Pages: 1 -->
<svg width="474pt" height="169pt"
 viewBox="0.00 0.00 473.50 169.00" xmlns="http://www.w3.org/2000/svg" xmlns:xlink="http://www.w3.org/1999/xlink">
<g id="graph0" class="graph" transform="scale(1 1) rotate(0) translate(4 165)">
<title>JKQTMathTextModifiedEnvironmentInstructionNode</title>
<!-- Node1 -->
<g id="Node000001" class="node">
<title>Node1</title>
<g id="a_Node000001"><a xlink:title="subclass representing an instruction node which modify the current JKQTMathTextEnvironment,...">
<polygon fill="#999999" stroke="#666666" points="350.5,-34 124.5,-34 124.5,0 350.5,0 350.5,-34"/>
<text text-anchor="start" x="132.5" y="-20.4" font-family="Helvetica,sans-Serif" font-size="12.00">JKQTMathTextModifiedEnvironment</text>
<text text-anchor="middle" x="237.5" y="-7.4" font-family="Helvetica,sans-Serif" font-size="12.00">InstructionNode</text>
</a>
</g>
</g>
<!-- Node2 -->
<g id="Node000002" class="node">
<title>Node2</title>
<g id="a_Node000002"><a xlink:href="class_j_k_q_t_math_text_non_drawing_base_node.html" target="_top" xlink:title="base class for all derived classes that do not draw anything">
<polygon fill="white" stroke="#666666" points="233,-97.5 0,-97.5 0,-76.5 233,-76.5 233,-97.5"/>
<text text-anchor="middle" x="116.5" y="-83.9" font-family="Helvetica,sans-Serif" font-size="12.00">JKQTMathTextNonDrawingBaseNode</text>
</a>
</g>
</g>
<!-- Node2&#45;&gt;Node1 -->
<g id="edge1_Node000001_Node000002" class="edge">
<title>Node2&#45;&gt;Node1</title>
<g id="a_edge1_Node000001_Node000002"><a xlink:title=" ">
<path fill="none" stroke="#63b8ff" d="M142.52,-71.38C162.04,-60.41 188.73,-45.41 208.86,-34.1"/>
<polygon fill="#63b8ff" stroke="#63b8ff" points="140.58,-68.45 133.58,-76.4 144.01,-74.55 140.58,-68.45"/>
</a>
</g>
</g>
<!-- Node3 -->
<g id="Node000003" class="node">
<title>Node3</title>
<g id="a_Node000003"><a xlink:href="class_j_k_q_t_math_text_node.html" target="_top" xlink:title="subclass representing one node in the syntax tree">
<polygon fill="white" stroke="#666666" points="182,-161 51,-161 51,-140 182,-140 182,-161"/>
<text text-anchor="middle" x="116.5" y="-147.4" font-family="Helvetica,sans-Serif" font-size="12.00">JKQTMathTextNode</text>
</a>
</g>
</g>
<!-- Node3&#45;&gt;Node2 -->
<g id="edge2_Node000002_Node000003" class="edge">
<title>Node3&#45;&gt;Node2</title>
<g id="a_edge2_Node000002_Node000003"><a xlink:title=" ">
<path fill="none" stroke="#63b8ff" d="M116.5,-129.75C116.5,-119.05 116.5,-106.31 116.5,-97.74"/>
<polygon fill="#63b8ff" stroke="#63b8ff" points="113,-129.89 116.5,-139.89 120,-129.89 113,-129.89"/>
</a>
</g>
</g>
<!-- Node4 -->
<g id="Node000004" class="node">
<title>Node4</title>
<g id="a_Node000004"><a xlink:href="class_j_k_q_t_math_text_modify_environment_node_mix_in.html" target="_top" xlink:title="mixin extending a node that does not produce any output, but provides a function modifyEnvironment() ...">
<polygon fill="white" stroke="#666666" points="465.5,-104 251.5,-104 251.5,-70 465.5,-70 465.5,-104"/>
<text text-anchor="start" x="259.5" y="-90.4" font-family="Helvetica,sans-Serif" font-size="12.00">JKQTMathTextModifyEnvironment</text>
<text text-anchor="middle" x="358.5" y="-77.4" font-family="Helvetica,sans-Serif" font-size="12.00">NodeMixIn</text>
</a>
</g>
</g>
<!-- Node4&#45;&gt;Node1 -->
<g id="edge3_Node000001_Node000004" class="edge">
<title>Node4&#45;&gt;Node1</title>
<g id="a_edge3_Node000001_Node000004"><a xlink:title=" ">
<path fill="none" stroke="#63b8ff" d="M320.94,-64.89C303.36,-55.01 282.73,-43.42 266.39,-34.24"/>
<polygon fill="#63b8ff" stroke="#63b8ff" points="319.39,-68.04 329.82,-69.88 322.82,-61.93 319.39,-68.04"/>
</a>
</g>
</g>
</g>
</svg>
