<?xml version="1.0" encoding="UTF-8" standalone="no"?>
<!DOCTYPE svg PUBLIC "-//W3C//DTD SVG 1.1//EN"
 "http://www.w3.org/Graphics/SVG/1.1/DTD/svg11.dtd">
<!-- Generated by graphviz version 2.43.0 (0)
 -->
<!-- Title: JKQTPXYBaselineGraph Pages: 1 -->
<svg width="1388pt" height="438pt"
 viewBox="0.00 0.00 1388.00 437.50" xmlns="http://www.w3.org/2000/svg" xmlns:xlink="http://www.w3.org/1999/xlink">
<g id="graph0" class="graph" transform="scale(1 1) rotate(0) translate(4 433.5)">
<title>JKQTPXYBaselineGraph</title>
<!-- Node1 -->
<g id="Node000001" class="node">
<title>Node1</title>
<g id="a_Node000001"><a xlink:title="This virtual JKQTPGraph descendent extends JKQTPXYGraph adds a baseline&#45;property, which is necessary,...">
<polygon fill="#999999" stroke="#666666" points="683,-183.5 528,-183.5 528,-162.5 683,-162.5 683,-183.5"/>
<text text-anchor="middle" x="605.5" y="-169.9" font-family="Helvetica,sans-Serif" font-size="12.00">JKQTPXYBaselineGraph</text>
</a>
</g>
</g>
<!-- Node6 -->
<g id="Node000006" class="node">
<title>Node6</title>
<g id="a_Node000006"><a xlink:href="class_j_k_q_t_p_bar_graph_base.html" target="_top" xlink:title="This is a base&#45;class for all bar graphs with vertical or horizontal orientation (the orientation is i...">
<polygon fill="white" stroke="#666666" points="882,-314.5 742,-314.5 742,-293.5 882,-293.5 882,-314.5"/>
<text text-anchor="middle" x="812" y="-300.9" font-family="Helvetica,sans-Serif" font-size="12.00">JKQTPBarGraphBase</text>
</a>
</g>
</g>
<!-- Node1&#45;&gt;Node6 -->
<g id="edge5_Node000001_Node000006" class="edge">
<title>Node1&#45;&gt;Node6</title>
<g id="a_edge5_Node000001_Node000006"><a xlink:title=" ">
<path fill="none" stroke="#63b8ff" d="M631.89,-189.26C674.45,-216.53 759.01,-270.7 794.61,-293.5"/>
<polygon fill="#63b8ff" stroke="#63b8ff" points="633.54,-186.17 623.24,-183.72 629.77,-192.06 633.54,-186.17"/>
</a>
</g>
</g>
<!-- Node13 -->
<g id="Node000013" class="node">
<title>Node13</title>
<g id="a_Node000013"><a xlink:href="class_j_k_q_t_p_filled_curve_graph_base.html" target="_top" xlink:title="a Base class for filled curve graphs like e.g. JKQTPFilledCurveXGraph">
<polygon fill="white" stroke="#666666" points="904,-206.5 720,-206.5 720,-185.5 904,-185.5 904,-206.5"/>
<text text-anchor="middle" x="812" y="-192.9" font-family="Helvetica,sans-Serif" font-size="12.00">JKQTPFilledCurveGraphBase</text>
</a>
</g>
</g>
<!-- Node1&#45;&gt;Node13 -->
<g id="edge12_Node000001_Node000013" class="edge">
<title>Node1&#45;&gt;Node13</title>
<g id="a_edge12_Node000001_Node000013"><a xlink:title=" ">
<path fill="none" stroke="#63b8ff" d="M693.37,-182.77C702.08,-183.75 710.95,-184.75 719.71,-185.73"/>
<polygon fill="#63b8ff" stroke="#63b8ff" points="693.56,-179.27 683.23,-181.63 692.78,-186.23 693.56,-179.27"/>
</a>
</g>
</g>
<!-- Node18 -->
<g id="Node000018" class="node">
<title>Node18</title>
<g id="a_Node000018"><a xlink:href="class_j_k_q_t_p_impulses_graph_base.html" target="_top" xlink:title="This is a base class for all impulse graphs.">
<polygon fill="white" stroke="#666666" points="898,-164.5 726,-164.5 726,-143.5 898,-143.5 898,-164.5"/>
<text text-anchor="middle" x="812" y="-150.9" font-family="Helvetica,sans-Serif" font-size="12.00">JKQTPImpulsesGraphBase</text>
</a>
</g>
</g>
<!-- Node1&#45;&gt;Node18 -->
<g id="edge17_Node000001_Node000018" class="edge">
<title>Node1&#45;&gt;Node18</title>
<g id="a_edge17_Node000001_Node000018"><a xlink:title=" ">
<path fill="none" stroke="#63b8ff" d="M693.46,-164.92C704.22,-163.92 715.22,-162.9 725.95,-161.9"/>
<polygon fill="#63b8ff" stroke="#63b8ff" points="692.86,-161.46 683.23,-165.87 693.51,-168.43 692.86,-161.46"/>
</a>
</g>
</g>
<!-- Node23 -->
<g id="Node000023" class="node">
<title>Node23</title>
<g id="a_Node000023"><a xlink:href="class_j_k_q_t_p_special_line_graph_base.html" target="_top" xlink:title="a Base class for special line graphs (steps ...) like e.g. JKQTPSpecialLineHorizontalGraph">
<polygon fill="white" stroke="#666666" points="905,-79.5 719,-79.5 719,-58.5 905,-58.5 905,-79.5"/>
<text text-anchor="middle" x="812" y="-65.9" font-family="Helvetica,sans-Serif" font-size="12.00">JKQTPSpecialLineGraphBase</text>
</a>
</g>
</g>
<!-- Node1&#45;&gt;Node23 -->
<g id="edge22_Node000001_Node000023" class="edge">
<title>Node1&#45;&gt;Node23</title>
<g id="a_edge22_Node000001_Node000023"><a xlink:title=" ">
<path fill="none" stroke="#63b8ff" d="M636.41,-157.79C678.41,-136.43 753.81,-98.08 790.21,-79.57"/>
<polygon fill="#63b8ff" stroke="#63b8ff" points="634.56,-154.8 627.23,-162.46 637.73,-161.04 634.56,-154.8"/>
</a>
</g>
</g>
<!-- Node2 -->
<g id="Node000002" class="node">
<title>Node2</title>
<g id="a_Node000002"><a xlink:href="class_j_k_q_t_p_x_y_graph.html" target="_top" xlink:title="This virtual JKQTPGraph descendent may be used as base for all graphs that use at least two columns t...">
<polygon fill="white" stroke="#666666" points="492,-183.5 387,-183.5 387,-162.5 492,-162.5 492,-183.5"/>
<text text-anchor="middle" x="439.5" y="-169.9" font-family="Helvetica,sans-Serif" font-size="12.00">JKQTPXYGraph</text>
</a>
</g>
</g>
<!-- Node2&#45;&gt;Node1 -->
<g id="edge1_Node000001_Node000002" class="edge">
<title>Node2&#45;&gt;Node1</title>
<g id="a_edge1_Node000001_Node000002"><a xlink:title=" ">
<path fill="none" stroke="#63b8ff" d="M502.63,-173C510.85,-173 519.35,-173 527.78,-173"/>
<polygon fill="#63b8ff" stroke="#63b8ff" points="502.39,-169.5 492.39,-173 502.39,-176.5 502.39,-169.5"/>
</a>
</g>
</g>
<!-- Node3 -->
<g id="Node000003" class="node">
<title>Node3</title>
<g id="a_Node000003"><a xlink:href="class_j_k_q_t_p_graph.html" target="_top" xlink:title="this virtual base class of the (data&#45;column based) graphs, which are part of a JKQTPlotter plot and w...">
<polygon fill="white" stroke="#666666" points="351,-183.5 262,-183.5 262,-162.5 351,-162.5 351,-183.5"/>
<text text-anchor="middle" x="306.5" y="-169.9" font-family="Helvetica,sans-Serif" font-size="12.00">JKQTPGraph</text>
</a>
</g>
</g>
<!-- Node3&#45;&gt;Node2 -->
<g id="edge2_Node000002_Node000003" class="edge">
<title>Node3&#45;&gt;Node2</title>
<g id="a_edge2_Node000002_Node000003"><a xlink:title=" ">
<path fill="none" stroke="#63b8ff" d="M361.27,-173C369.74,-173 378.48,-173 386.89,-173"/>
<polygon fill="#63b8ff" stroke="#63b8ff" points="361.12,-169.5 351.12,-173 361.12,-176.5 361.12,-169.5"/>
</a>
</g>
</g>
<!-- Node4 -->
<g id="Node000004" class="node">
<title>Node4</title>
<g id="a_Node000004"><a xlink:href="class_j_k_q_t_p_plot_element.html" target="_top" xlink:title="this virtual base class of every element, which is part of a JKQTPlotter plot and may appear in its k...">
<polygon fill="white" stroke="#666666" points="226,-183.5 101,-183.5 101,-162.5 226,-162.5 226,-183.5"/>
<text text-anchor="middle" x="163.5" y="-169.9" font-family="Helvetica,sans-Serif" font-size="12.00">JKQTPPlotElement</text>
</a>
</g>
</g>
<!-- Node4&#45;&gt;Node3 -->
<g id="edge3_Node000003_Node000004" class="edge">
<title>Node4&#45;&gt;Node3</title>
<g id="a_edge3_Node000003_Node000004"><a xlink:title=" ">
<path fill="none" stroke="#63b8ff" d="M236.51,-173C245.18,-173 253.82,-173 261.91,-173"/>
<polygon fill="#63b8ff" stroke="#63b8ff" points="236.34,-169.5 226.34,-173 236.34,-176.5 236.34,-169.5"/>
</a>
</g>
</g>
<!-- Node5 -->
<g id="Node000005" class="node">
<title>Node5</title>
<g id="a_Node000005"><a xlink:title=" ">
<polygon fill="white" stroke="#666666" points="65,-183.5 0,-183.5 0,-162.5 65,-162.5 65,-183.5"/>
<text text-anchor="middle" x="32.5" y="-169.9" font-family="Helvetica,sans-Serif" font-size="12.00">QObject</text>
</a>
</g>
</g>
<!-- Node5&#45;&gt;Node4 -->
<g id="edge4_Node000004_Node000005" class="edge">
<title>Node5&#45;&gt;Node4</title>
<g id="a_edge4_Node000004_Node000005"><a xlink:title=" ">
<path fill="none" stroke="#63b8ff" d="M75.09,-173C83.29,-173 92.05,-173 100.75,-173"/>
<polygon fill="#63b8ff" stroke="#63b8ff" points="75.06,-169.5 65.06,-173 75.06,-176.5 75.06,-169.5"/>
</a>
</g>
</g>
<!-- Node7 -->
<g id="Node000007" class="node">
<title>Node7</title>
<g id="a_Node000007"><a xlink:href="class_j_k_q_t_p_bar_horizontal_graph.html" target="_top" xlink:title="This implements a horizontal bar graph with bars between &#160;and .">
<polygon fill="white" stroke="#666666" points="1128,-383.5 957,-383.5 957,-362.5 1128,-362.5 1128,-383.5"/>
<text text-anchor="middle" x="1042.5" y="-369.9" font-family="Helvetica,sans-Serif" font-size="12.00">JKQTPBarHorizontalGraph</text>
</a>
</g>
</g>
<!-- Node6&#45;&gt;Node7 -->
<g id="edge6_Node000006_Node000007" class="edge">
<title>Node6&#45;&gt;Node7</title>
<g id="a_edge6_Node000006_Node000007"><a xlink:title=" ">
<path fill="none" stroke="#63b8ff" d="M857.98,-317.58C901.58,-330.75 966.82,-350.45 1006.63,-362.47"/>
<polygon fill="#63b8ff" stroke="#63b8ff" points="858.79,-314.17 848.2,-314.63 856.76,-320.87 858.79,-314.17"/>
</a>
</g>
</g>
<!-- Node10 -->
<g id="Node000010" class="node">
<title>Node10</title>
<g id="a_Node000010"><a xlink:href="class_j_k_q_t_p_bar_vertical_graph.html" target="_top" xlink:title="This implements a vertical bar graph with bars between &#160;and .">
<polygon fill="white" stroke="#666666" points="1120,-314.5 965,-314.5 965,-293.5 1120,-293.5 1120,-314.5"/>
<text text-anchor="middle" x="1042.5" y="-300.9" font-family="Helvetica,sans-Serif" font-size="12.00">JKQTPBarVerticalGraph</text>
</a>
</g>
</g>
<!-- Node6&#45;&gt;Node10 -->
<g id="edge9_Node000006_Node000010" class="edge">
<title>Node6&#45;&gt;Node10</title>
<g id="a_edge9_Node000006_Node000010"><a xlink:title=" ">
<path fill="none" stroke="#63b8ff" d="M892.46,-304C915.97,-304 941.66,-304 964.98,-304"/>
<polygon fill="#63b8ff" stroke="#63b8ff" points="892.18,-300.5 882.18,-304 892.18,-307.5 892.18,-300.5"/>
</a>
</g>
</g>
<!-- Node8 -->
<g id="Node000008" class="node">
<title>Node8</title>
<g id="a_Node000008"><a xlink:href="class_j_k_q_t_p_bar_horizontal_error_graph.html" target="_top" xlink:title="This implements a horizontal bar graph with bars between &#160;and &#160;and error indicator.">
<polygon fill="white" stroke="#666666" points="1380,-429.5 1180,-429.5 1180,-408.5 1380,-408.5 1380,-429.5"/>
<text text-anchor="middle" x="1280" y="-415.9" font-family="Helvetica,sans-Serif" font-size="12.00">JKQTPBarHorizontalErrorGraph</text>
</a>
</g>
</g>
<!-- Node7&#45;&gt;Node8 -->
<g id="edge7_Node000007_Node000008" class="edge">
<title>Node7&#45;&gt;Node8</title>
<g id="a_edge7_Node000007_Node000008"><a xlink:title=" ">
<path fill="none" stroke="#63b8ff" d="M1107.67,-385.53C1144.52,-392.73 1190.27,-401.67 1225.22,-408.5"/>
<polygon fill="#63b8ff" stroke="#63b8ff" points="1108.01,-382.04 1097.53,-383.55 1106.67,-388.91 1108.01,-382.04"/>
</a>
</g>
</g>
<!-- Node9 -->
<g id="Node000009" class="node">
<title>Node9</title>
<g id="a_Node000009"><a xlink:href="class_j_k_q_t_p_bar_horizontal_stackable_graph.html" target="_top" xlink:title="This implements a horizontal bar graph with bars between &#160;and &#160;Optionally several graphs of this type...">
<polygon fill="white" stroke="#666666" points="1376.5,-390 1183.5,-390 1183.5,-356 1376.5,-356 1376.5,-390"/>
<text text-anchor="start" x="1191.5" y="-376.4" font-family="Helvetica,sans-Serif" font-size="12.00">JKQTPBarHorizontalStackable</text>
<text text-anchor="middle" x="1280" y="-363.4" font-family="Helvetica,sans-Serif" font-size="12.00">Graph</text>
</a>
</g>
</g>
<!-- Node7&#45;&gt;Node9 -->
<g id="edge8_Node000007_Node000009" class="edge">
<title>Node7&#45;&gt;Node9</title>
<g id="a_edge8_Node000007_Node000009"><a xlink:title=" ">
<path fill="none" stroke="#63b8ff" d="M1138.38,-373C1153.24,-373 1168.6,-373 1183.47,-373"/>
<polygon fill="#63b8ff" stroke="#63b8ff" points="1138.19,-369.5 1128.19,-373 1138.19,-376.5 1138.19,-369.5"/>
</a>
</g>
</g>
<!-- Node11 -->
<g id="Node000011" class="node">
<title>Node11</title>
<g id="a_Node000011"><a xlink:href="class_j_k_q_t_p_bar_vertical_error_graph.html" target="_top" xlink:title="This implements a vertical bar graph with bars between &#160;and &#160;and error indicator.">
<polygon fill="white" stroke="#666666" points="1372.5,-337.5 1187.5,-337.5 1187.5,-316.5 1372.5,-316.5 1372.5,-337.5"/>
<text text-anchor="middle" x="1280" y="-323.9" font-family="Helvetica,sans-Serif" font-size="12.00">JKQTPBarVerticalErrorGraph</text>
</a>
</g>
</g>
<!-- Node10&#45;&gt;Node11 -->
<g id="edge10_Node000010_Node000011" class="edge">
<title>Node10&#45;&gt;Node11</title>
<g id="a_edge10_Node000010_Node000011"><a xlink:title=" ">
<path fill="none" stroke="#63b8ff" d="M1130.43,-312.49C1148.91,-314.29 1168.48,-316.21 1187.13,-318.03"/>
<polygon fill="#63b8ff" stroke="#63b8ff" points="1130.58,-308.99 1120.29,-311.5 1129.9,-315.95 1130.58,-308.99"/>
</a>
</g>
</g>
<!-- Node12 -->
<g id="Node000012" class="node">
<title>Node12</title>
<g id="a_Node000012"><a xlink:href="class_j_k_q_t_p_bar_vertical_stackable_graph.html" target="_top" xlink:title="This implements a vertical bar graph with bars between &#160;and &#160;Optionally several graphs of this type m...">
<polygon fill="white" stroke="#666666" points="1368.5,-298 1191.5,-298 1191.5,-264 1368.5,-264 1368.5,-298"/>
<text text-anchor="start" x="1199.5" y="-284.4" font-family="Helvetica,sans-Serif" font-size="12.00">JKQTPBarVerticalStackable</text>
<text text-anchor="middle" x="1280" y="-271.4" font-family="Helvetica,sans-Serif" font-size="12.00">Graph</text>
</a>
</g>
</g>
<!-- Node10&#45;&gt;Node12 -->
<g id="edge11_Node000010_Node000012" class="edge">
<title>Node10&#45;&gt;Node12</title>
<g id="a_edge11_Node000010_Node000012"><a xlink:title=" ">
<path fill="none" stroke="#63b8ff" d="M1130.25,-295.53C1150.16,-293.58 1171.34,-291.51 1191.29,-289.57"/>
<polygon fill="#63b8ff" stroke="#63b8ff" points="1129.9,-292.05 1120.29,-296.5 1130.58,-299.01 1129.9,-292.05"/>
</a>
</g>
</g>
<!-- Node14 -->
<g id="Node000014" class="node">
<title>Node14</title>
<g id="a_Node000014"><a xlink:href="class_j_k_q_t_p_filled_curve_x_graph.html" target="_top" xlink:title="This implements filled curve plots where the area is filled between the plot line and the x&#45;Axis.">
<polygon fill="white" stroke="#666666" points="1124,-245.5 961,-245.5 961,-224.5 1124,-224.5 1124,-245.5"/>
<text text-anchor="middle" x="1042.5" y="-231.9" font-family="Helvetica,sans-Serif" font-size="12.00">JKQTPFilledCurveXGraph</text>
</a>
</g>
</g>
<!-- Node13&#45;&gt;Node14 -->
<g id="edge13_Node000013_Node000014" class="edge">
<title>Node13&#45;&gt;Node14</title>
<g id="a_edge13_Node000013_Node000014"><a xlink:title=" ">
<path fill="none" stroke="#63b8ff" d="M884.69,-208.24C915.23,-213.45 950.51,-219.47 979.86,-224.48"/>
<polygon fill="#63b8ff" stroke="#63b8ff" points="884.98,-204.74 874.53,-206.5 883.8,-211.64 884.98,-204.74"/>
</a>
</g>
</g>
<!-- Node16 -->
<g id="Node000016" class="node">
<title>Node16</title>
<g id="a_Node000016"><a xlink:href="class_j_k_q_t_p_filled_curve_y_graph.html" target="_top" xlink:title="This implements filled curve plots where the area is filled between the plot line and y&#45;Axis.">
<polygon fill="white" stroke="#666666" points="1123.5,-206.5 961.5,-206.5 961.5,-185.5 1123.5,-185.5 1123.5,-206.5"/>
<text text-anchor="middle" x="1042.5" y="-192.9" font-family="Helvetica,sans-Serif" font-size="12.00">JKQTPFilledCurveYGraph</text>
</a>
</g>
</g>
<!-- Node13&#45;&gt;Node16 -->
<g id="edge15_Node000013_Node000016" class="edge">
<title>Node13&#45;&gt;Node16</title>
<g id="a_edge15_Node000013_Node000016"><a xlink:title=" ">
<path fill="none" stroke="#63b8ff" d="M914.55,-196C930.25,-196 946.27,-196 961.42,-196"/>
<polygon fill="#63b8ff" stroke="#63b8ff" points="914.29,-192.5 904.29,-196 914.29,-199.5 914.29,-192.5"/>
</a>
</g>
</g>
<!-- Node15 -->
<g id="Node000015" class="node">
<title>Node15</title>
<g id="a_Node000015"><a xlink:href="class_j_k_q_t_p_filled_curve_x_error_graph.html" target="_top" xlink:title="This implements filled curve plots with y errors where the area is filled between the plot line and t...">
<polygon fill="white" stroke="#666666" points="1376,-245.5 1184,-245.5 1184,-224.5 1376,-224.5 1376,-245.5"/>
<text text-anchor="middle" x="1280" y="-231.9" font-family="Helvetica,sans-Serif" font-size="12.00">JKQTPFilledCurveXErrorGraph</text>
</a>
</g>
</g>
<!-- Node14&#45;&gt;Node15 -->
<g id="edge14_Node000014_Node000015" class="edge">
<title>Node14&#45;&gt;Node15</title>
<g id="a_edge14_Node000014_Node000015"><a xlink:title=" ">
<path fill="none" stroke="#63b8ff" d="M1134.22,-235C1150.46,-235 1167.42,-235 1183.78,-235"/>
<polygon fill="#63b8ff" stroke="#63b8ff" points="1134.22,-231.5 1124.22,-235 1134.22,-238.5 1134.22,-231.5"/>
</a>
</g>
</g>
<!-- Node17 -->
<g id="Node000017" class="node">
<title>Node17</title>
<g id="a_Node000017"><a xlink:href="class_j_k_q_t_p_filled_curve_y_error_graph.html" target="_top" xlink:title="This implements filled curve plots with y errors where the area is filled between the plot line and t...">
<polygon fill="white" stroke="#666666" points="1375.5,-206.5 1184.5,-206.5 1184.5,-185.5 1375.5,-185.5 1375.5,-206.5"/>
<text text-anchor="middle" x="1280" y="-192.9" font-family="Helvetica,sans-Serif" font-size="12.00">JKQTPFilledCurveYErrorGraph</text>
</a>
</g>
</g>
<!-- Node16&#45;&gt;Node17 -->
<g id="edge16_Node000016_Node000017" class="edge">
<title>Node16&#45;&gt;Node17</title>
<g id="a_edge16_Node000016_Node000017"><a xlink:title=" ">
<path fill="none" stroke="#63b8ff" d="M1133.72,-196C1150.22,-196 1167.48,-196 1184.11,-196"/>
<polygon fill="#63b8ff" stroke="#63b8ff" points="1133.56,-192.5 1123.56,-196 1133.56,-199.5 1133.56,-192.5"/>
</a>
</g>
</g>
<!-- Node19 -->
<g id="Node000019" class="node">
<title>Node19</title>
<g id="a_Node000019"><a xlink:href="class_j_k_q_t_p_impulses_horizontal_graph.html" target="_top" xlink:title="This implements an impulse plot with horizontal impulses in direction of the X axis (i....">
<polygon fill="white" stroke="#666666" points="1144,-164.5 941,-164.5 941,-143.5 1144,-143.5 1144,-164.5"/>
<text text-anchor="middle" x="1042.5" y="-150.9" font-family="Helvetica,sans-Serif" font-size="12.00">JKQTPImpulsesHorizontalGraph</text>
</a>
</g>
</g>
<!-- Node18&#45;&gt;Node19 -->
<g id="edge18_Node000018_Node000019" class="edge">
<title>Node18&#45;&gt;Node19</title>
<g id="a_edge18_Node000018_Node000019"><a xlink:title=" ">
<path fill="none" stroke="#63b8ff" d="M908.32,-154C919.09,-154 930.08,-154 940.91,-154"/>
<polygon fill="#63b8ff" stroke="#63b8ff" points="908.09,-150.5 898.08,-154 908.08,-157.5 908.09,-150.5"/>
</a>
</g>
</g>
<!-- Node21 -->
<g id="Node000021" class="node">
<title>Node21</title>
<g id="a_Node000021"><a xlink:href="class_j_k_q_t_p_impulses_vertical_graph.html" target="_top" xlink:title="This implements an impulse plot with impulses in direction of the Y axis (i.e. from y=0 to y=f(x) )">
<polygon fill="white" stroke="#666666" points="1136.5,-125.5 948.5,-125.5 948.5,-104.5 1136.5,-104.5 1136.5,-125.5"/>
<text text-anchor="middle" x="1042.5" y="-111.9" font-family="Helvetica,sans-Serif" font-size="12.00">JKQTPImpulsesVerticalGraph</text>
</a>
</g>
</g>
<!-- Node18&#45;&gt;Node21 -->
<g id="edge20_Node000018_Node000021" class="edge">
<title>Node18&#45;&gt;Node21</title>
<g id="a_edge20_Node000018_Node000021"><a xlink:title=" ">
<path fill="none" stroke="#63b8ff" d="M884.69,-141.76C915.23,-136.55 950.51,-130.53 979.86,-125.52"/>
<polygon fill="#63b8ff" stroke="#63b8ff" points="883.8,-138.36 874.53,-143.5 884.98,-145.26 883.8,-138.36"/>
</a>
</g>
</g>
<!-- Node20 -->
<g id="Node000020" class="node">
<title>Node20</title>
<g id="a_Node000020"><a xlink:href="class_j_k_q_t_p_impulses_horizontal_error_graph.html" target="_top" xlink:title="This implements an impulse plot with horizontal impulses in direction of the X axis (i....">
<polygon fill="white" stroke="#666666" points="1378,-167 1182,-167 1182,-133 1378,-133 1378,-167"/>
<text text-anchor="start" x="1190" y="-153.4" font-family="Helvetica,sans-Serif" font-size="12.00">JKQTPImpulsesHorizontalError</text>
<text text-anchor="middle" x="1280" y="-140.4" font-family="Helvetica,sans-Serif" font-size="12.00">Graph</text>
</a>
</g>
</g>
<!-- Node19&#45;&gt;Node20 -->
<g id="edge19_Node000019_Node000020" class="edge">
<title>Node19&#45;&gt;Node20</title>
<g id="a_edge19_Node000019_Node000020"><a xlink:title=" ">
<path fill="none" stroke="#63b8ff" d="M1154.06,-152.12C1163.32,-151.96 1172.63,-151.81 1181.77,-151.65"/>
<polygon fill="#63b8ff" stroke="#63b8ff" points="1154,-148.62 1144.06,-152.29 1154.11,-155.62 1154,-148.62"/>
</a>
</g>
</g>
<!-- Node22 -->
<g id="Node000022" class="node">
<title>Node22</title>
<g id="a_Node000022"><a xlink:href="class_j_k_q_t_p_impulses_vertical_error_graph.html" target="_top" xlink:title="This implements an impulse plot with impulses in direction of the X axis (i.e. from x=0 to x=f(y) )">
<polygon fill="white" stroke="#666666" points="1370,-115 1190,-115 1190,-81 1370,-81 1370,-115"/>
<text text-anchor="start" x="1198" y="-101.4" font-family="Helvetica,sans-Serif" font-size="12.00">JKQTPImpulsesVerticalError</text>
<text text-anchor="middle" x="1280" y="-88.4" font-family="Helvetica,sans-Serif" font-size="12.00">Graph</text>
</a>
</g>
</g>
<!-- Node21&#45;&gt;Node22 -->
<g id="edge21_Node000021_Node000022" class="edge">
<title>Node21&#45;&gt;Node22</title>
<g id="a_edge21_Node000021_Node000022"><a xlink:title=" ">
<path fill="none" stroke="#63b8ff" d="M1146.9,-107.54C1161.15,-106.51 1175.7,-105.46 1189.67,-104.45"/>
<polygon fill="#63b8ff" stroke="#63b8ff" points="1146.3,-104.07 1136.58,-108.28 1146.8,-111.05 1146.3,-104.07"/>
</a>
</g>
</g>
<!-- Node24 -->
<g id="Node000024" class="node">
<title>Node24</title>
<g id="a_Node000024"><a xlink:href="class_j_k_q_t_p_special_line_horizontal_graph.html" target="_top" xlink:title="This implements a step plot with values .">
<polygon fill="white" stroke="#666666" points="1133,-86 952,-86 952,-52 1133,-52 1133,-86"/>
<text text-anchor="start" x="960" y="-72.4" font-family="Helvetica,sans-Serif" font-size="12.00">JKQTPSpecialLineHorizontal</text>
<text text-anchor="middle" x="1042.5" y="-59.4" font-family="Helvetica,sans-Serif" font-size="12.00">Graph</text>
</a>
</g>
</g>
<!-- Node23&#45;&gt;Node24 -->
<g id="edge23_Node000023_Node000024" class="edge">
<title>Node23&#45;&gt;Node24</title>
<g id="a_edge23_Node000023_Node000024"><a xlink:title=" ">
<path fill="none" stroke="#63b8ff" d="M915.43,-69C927.57,-69 939.89,-69 951.84,-69"/>
<polygon fill="#63b8ff" stroke="#63b8ff" points="915.28,-65.5 905.28,-69 915.28,-72.5 915.28,-65.5"/>
</a>
</g>
</g>
<!-- Node25 -->
<g id="Node000025" class="node">
<title>Node25</title>
<g id="a_Node000025"><a xlink:href="class_j_k_q_t_p_special_line_vertical_graph.html" target="_top" xlink:title="This implements a step plot with values .">
<polygon fill="white" stroke="#666666" points="1125,-34 960,-34 960,0 1125,0 1125,-34"/>
<text text-anchor="start" x="968" y="-20.4" font-family="Helvetica,sans-Serif" font-size="12.00">JKQTPSpecialLineVertical</text>
<text text-anchor="middle" x="1042.5" y="-7.4" font-family="Helvetica,sans-Serif" font-size="12.00">Graph</text>
</a>
</g>
</g>
<!-- Node23&#45;&gt;Node25 -->
<g id="edge24_Node000023_Node000025" class="edge">
<title>Node23&#45;&gt;Node25</title>
<g id="a_edge24_Node000023_Node000025"><a xlink:title=" ">
<path fill="none" stroke="#63b8ff" d="M869.3,-56.19C898.63,-49.51 934.88,-41.26 966.54,-34.06"/>
<polygon fill="#63b8ff" stroke="#63b8ff" points="868.21,-52.85 859.24,-58.48 869.77,-59.67 868.21,-52.85"/>
</a>
</g>
</g>
</g>
</svg>
