<?xml version="1.0" encoding="UTF-8" standalone="no"?>
<!DOCTYPE svg PUBLIC "-//W3C//DTD SVG 1.1//EN"
 "http://www.w3.org/Graphics/SVG/1.1/DTD/svg11.dtd">
<!-- Generated by graphviz version 2.43.0 (0)
 -->
<!-- Title: JKQTPViolinplotElementBase Pages: 1 -->
<svg width="531pt" height="226pt"
 viewBox="0.00 0.00 531.00 226.00" xmlns="http://www.w3.org/2000/svg" xmlns:xlink="http://www.w3.org/1999/xlink">
<g id="graph0" class="graph" transform="scale(1 1) rotate(0) translate(4 222)">
<title>JKQTPViolinplotElementBase</title>
<!-- Node1 -->
<g id="Node000001" class="node">
<title>Node1</title>
<g id="a_Node000001"><a xlink:title="This implements a single vertical Violin Plot as a &quot;geometric element&quot;.">
<polygon fill="#999999" stroke="#666666" points="278,-91 92,-91 92,-70 278,-70 278,-91"/>
<text text-anchor="middle" x="185" y="-77.4" font-family="Helvetica,sans-Serif" font-size="12.00">JKQTPViolinplotElementBase</text>
</a>
</g>
</g>
<!-- Node7 -->
<g id="Node000007" class="node">
<title>Node7</title>
<g id="a_Node000007"><a xlink:href="class_j_k_q_t_p_violinplot_horizontal_element.html" target="_top" xlink:title="This implements a single horizontal Violin Plot as a &quot;geometric element&quot;.">
<polygon fill="white" stroke="#666666" points="168,-34 0,-34 0,0 168,0 168,-34"/>
<text text-anchor="start" x="8" y="-20.4" font-family="Helvetica,sans-Serif" font-size="12.00">JKQTPViolinplotHorizontal</text>
<text text-anchor="middle" x="84" y="-7.4" font-family="Helvetica,sans-Serif" font-size="12.00">Element</text>
</a>
</g>
</g>
<!-- Node1&#45;&gt;Node7 -->
<g id="edge6_Node000001_Node000007" class="edge">
<title>Node1&#45;&gt;Node7</title>
<g id="a_edge6_Node000001_Node000007"><a xlink:title=" ">
<path fill="none" stroke="#63b8ff" d="M160.46,-64.56C145.4,-55.39 126.11,-43.64 110.67,-34.24"/>
<polygon fill="#63b8ff" stroke="#63b8ff" points="158.86,-67.68 169.22,-69.89 162.5,-61.7 158.86,-67.68"/>
</a>
</g>
</g>
<!-- Node8 -->
<g id="Node000008" class="node">
<title>Node8</title>
<g id="a_Node000008"><a xlink:href="class_j_k_q_t_p_violinplot_vertical_element.html" target="_top" xlink:title="This implements a single vertical Violin Plot as a &quot;geometric element&quot;.">
<polygon fill="white" stroke="#666666" points="388,-27.5 186,-27.5 186,-6.5 388,-6.5 388,-27.5"/>
<text text-anchor="middle" x="287" y="-13.9" font-family="Helvetica,sans-Serif" font-size="12.00">JKQTPViolinplotVerticalElement</text>
</a>
</g>
</g>
<!-- Node1&#45;&gt;Node8 -->
<g id="edge7_Node000001_Node000008" class="edge">
<title>Node1&#45;&gt;Node8</title>
<g id="a_edge7_Node000001_Node000008"><a xlink:title=" ">
<path fill="none" stroke="#63b8ff" d="M209.71,-64.6C228.84,-53.07 254.75,-37.45 271.17,-27.54"/>
<polygon fill="#63b8ff" stroke="#63b8ff" points="207.69,-61.73 200.94,-69.89 211.31,-67.72 207.69,-61.73"/>
</a>
</g>
</g>
<!-- Node2 -->
<g id="Node000002" class="node">
<title>Node2</title>
<g id="a_Node000002"><a xlink:href="class_j_k_q_t_p_plot_element.html" target="_top" xlink:title="this virtual base class of every element, which is part of a JKQTPlotter plot and may appear in its k...">
<polygon fill="white" stroke="#666666" points="164.5,-154.5 39.5,-154.5 39.5,-133.5 164.5,-133.5 164.5,-154.5"/>
<text text-anchor="middle" x="102" y="-140.9" font-family="Helvetica,sans-Serif" font-size="12.00">JKQTPPlotElement</text>
</a>
</g>
</g>
<!-- Node2&#45;&gt;Node1 -->
<g id="edge1_Node000001_Node000002" class="edge">
<title>Node2&#45;&gt;Node1</title>
<g id="a_edge1_Node000001_Node000002"><a xlink:title=" ">
<path fill="none" stroke="#63b8ff" d="M123.39,-127.15C138.81,-115.72 159.12,-100.67 172.12,-91.04"/>
<polygon fill="#63b8ff" stroke="#63b8ff" points="120.92,-124.62 114.97,-133.39 125.09,-130.25 120.92,-124.62"/>
</a>
</g>
</g>
<!-- Node3 -->
<g id="Node000003" class="node">
<title>Node3</title>
<g id="a_Node000003"><a xlink:title=" ">
<polygon fill="white" stroke="#666666" points="134.5,-218 69.5,-218 69.5,-197 134.5,-197 134.5,-218"/>
<text text-anchor="middle" x="102" y="-204.4" font-family="Helvetica,sans-Serif" font-size="12.00">QObject</text>
</a>
</g>
</g>
<!-- Node3&#45;&gt;Node2 -->
<g id="edge2_Node000002_Node000003" class="edge">
<title>Node3&#45;&gt;Node2</title>
<g id="a_edge2_Node000002_Node000003"><a xlink:title=" ">
<path fill="none" stroke="#63b8ff" d="M102,-186.75C102,-176.05 102,-163.31 102,-154.74"/>
<polygon fill="#63b8ff" stroke="#63b8ff" points="98.5,-186.89 102,-196.89 105.5,-186.89 98.5,-186.89"/>
</a>
</g>
</g>
<!-- Node4 -->
<g id="Node000004" class="node">
<title>Node4</title>
<g id="a_Node000004"><a xlink:href="class_j_k_q_t_p_graph_violinplot_style_mixin.html" target="_top" xlink:title="Styling Mix&#45;In for Violinplots.">
<polygon fill="white" stroke="#666666" points="355.5,-161 182.5,-161 182.5,-127 355.5,-127 355.5,-161"/>
<text text-anchor="start" x="190.5" y="-147.4" font-family="Helvetica,sans-Serif" font-size="12.00">JKQTPGraphViolinplotStyle</text>
<text text-anchor="middle" x="269" y="-134.4" font-family="Helvetica,sans-Serif" font-size="12.00">Mixin</text>
</a>
</g>
</g>
<!-- Node4&#45;&gt;Node1 -->
<g id="edge3_Node000001_Node000004" class="edge">
<title>Node4&#45;&gt;Node1</title>
<g id="a_edge3_Node000001_Node000004"><a xlink:title=" ">
<path fill="none" stroke="#63b8ff" d="M238.55,-120.71C224.61,-110.5 208.83,-98.95 198.03,-91.04"/>
<polygon fill="#63b8ff" stroke="#63b8ff" points="236.79,-123.76 246.93,-126.84 240.93,-118.11 236.79,-123.76"/>
</a>
</g>
</g>
<!-- Node5 -->
<g id="Node000005" class="node">
<title>Node5</title>
<g id="a_Node000005"><a xlink:href="class_j_k_q_t_p_graph_line_style_mixin.html" target="_top" xlink:title="This Mix&#45;In class provides setter/getter methods, storage and other facilities for the graph line sty...">
<polygon fill="white" stroke="#666666" points="341,-218 167,-218 167,-197 341,-197 341,-218"/>
<text text-anchor="middle" x="254" y="-204.4" font-family="Helvetica,sans-Serif" font-size="12.00">JKQTPGraphLineStyleMixin</text>
</a>
</g>
</g>
<!-- Node5&#45;&gt;Node4 -->
<g id="edge4_Node000004_Node000005" class="edge">
<title>Node5&#45;&gt;Node4</title>
<g id="a_edge4_Node000004_Node000005"><a xlink:title=" ">
<path fill="none" stroke="#63b8ff" d="M258.75,-187.04C260.75,-178.82 263.06,-169.35 264.98,-161.48"/>
<polygon fill="#63b8ff" stroke="#63b8ff" points="255.31,-186.35 256.34,-196.89 262.11,-188 255.31,-186.35"/>
</a>
</g>
</g>
<!-- Node6 -->
<g id="Node000006" class="node">
<title>Node6</title>
<g id="a_Node000006"><a xlink:href="class_j_k_q_t_p_graph_fill_style_mixin.html" target="_top" xlink:title="This Mix&#45;In class provides setter/getter methods, storage and other facilities for the graph filling ...">
<polygon fill="white" stroke="#666666" points="523,-218 359,-218 359,-197 523,-197 523,-218"/>
<text text-anchor="middle" x="441" y="-204.4" font-family="Helvetica,sans-Serif" font-size="12.00">JKQTPGraphFillStyleMixin</text>
</a>
</g>
</g>
<!-- Node6&#45;&gt;Node4 -->
<g id="edge5_Node000004_Node000006" class="edge">
<title>Node6&#45;&gt;Node4</title>
<g id="a_edge5_Node000004_Node000006"><a xlink:title=" ">
<path fill="none" stroke="#63b8ff" d="M404.5,-193.45C378.1,-184.01 342.27,-171.2 314.08,-161.12"/>
<polygon fill="#63b8ff" stroke="#63b8ff" points="403.53,-196.82 414.12,-196.89 405.89,-190.23 403.53,-196.82"/>
</a>
</g>
</g>
</g>
</svg>
