<?xml version="1.0" encoding="UTF-8" standalone="no"?>
<!DOCTYPE svg PUBLIC "-//W3C//DTD SVG 1.1//EN"
 "http://www.w3.org/Graphics/SVG/1.1/DTD/svg11.dtd">
<!-- Generated by graphviz version 2.43.0 (0)
 -->
<!-- Title: JKQTPDatastoreModel Pages: 1 -->
<svg width="576pt" height="181pt"
 viewBox="0.00 0.00 575.50 181.00" xmlns="http://www.w3.org/2000/svg" xmlns:xlink="http://www.w3.org/1999/xlink">
<g id="graph0" class="graph" transform="scale(1 1) rotate(0) translate(4 177)">
<title>JKQTPDatastoreModel</title>
<!-- Node1 -->
<g id="Node000001" class="node">
<title>Node1</title>
<g id="a_Node000001"><a xlink:title="QAbstractTableModel descendent that allows to view data in a JKQTPDatastore.">
<polygon fill="#999999" stroke="#666666" points="147,-97 0,-97 0,-76 147,-76 147,-97"/>
<text text-anchor="middle" x="73.5" y="-83.4" font-family="Helvetica,sans-Serif" font-size="12.00">JKQTPDatastoreModel</text>
</a>
</g>
</g>
<!-- Node2 -->
<g id="Node000002" class="node">
<title>Node2</title>
<g id="a_Node000002"><a xlink:title=" ">
<polygon fill="white" stroke="#666666" points="143,-173 0,-173 0,-152 143,-152 143,-173"/>
<text text-anchor="middle" x="71.5" y="-159.4" font-family="Helvetica,sans-Serif" font-size="12.00">QAbstractTableModel</text>
</a>
</g>
</g>
<!-- Node2&#45;&gt;Node1 -->
<g id="edge1_Node000001_Node000002" class="edge">
<title>Node2&#45;&gt;Node1</title>
<g id="a_edge1_Node000001_Node000002"><a xlink:title=" ">
<path fill="none" stroke="#63b8ff" d="M72.04,-141.53C72.43,-127.25 72.93,-108.65 73.23,-97.41"/>
<polygon fill="#63b8ff" stroke="#63b8ff" points="68.53,-141.73 71.76,-151.83 75.53,-141.92 68.53,-141.73"/>
</a>
</g>
</g>
<!-- Node3 -->
<g id="Node000003" class="node">
<title>Node3</title>
<g id="a_Node000003"><a xlink:href="class_j_k_q_t_p_datastore.html" target="_top" xlink:title="This class manages data columns (with entries of type double ), used by JKQTPlotter/JKQTBasePlotter t...">
<polygon fill="white" stroke="#666666" points="272,-173 161,-173 161,-152 272,-152 272,-173"/>
<text text-anchor="middle" x="216.5" y="-159.4" font-family="Helvetica,sans-Serif" font-size="12.00">JKQTPDatastore</text>
</a>
</g>
</g>
<!-- Node3&#45;&gt;Node1 -->
<g id="edge2_Node000001_Node000003" class="edge">
<title>Node3&#45;&gt;Node1</title>
<g id="a_edge2_Node000001_Node000003"><a xlink:title=" ">
<path fill="none" stroke="#9a32cd" stroke-dasharray="5,2" d="M180.55,-148.29C170.05,-144.08 158.67,-139.16 148.5,-134 126.37,-122.77 102.21,-107.13 87.46,-97.16"/>
<polygon fill="#9a32cd" stroke="#9a32cd" points="179.29,-151.56 189.88,-151.95 181.84,-145.04 179.29,-151.56"/>
</a>
</g>
<text text-anchor="start" x="151.5" y="-120.9" font-family="Helvetica,sans-Serif" font-size="12.00" fill="grey">datastore</text>
</g>
<!-- Node5 -->
<g id="Node000005" class="node">
<title>Node5</title>
<g id="a_Node000005"><a xlink:href="class_j_k_q_t_p_column.html" target="_top" xlink:title="internally stores information about one data column. See JKQTPDatastore for more information.">
<polygon fill="white" stroke="#666666" points="264.5,-97 166.5,-97 166.5,-76 264.5,-76 264.5,-97"/>
<text text-anchor="middle" x="215.5" y="-83.4" font-family="Helvetica,sans-Serif" font-size="12.00">JKQTPColumn</text>
</a>
</g>
</g>
<!-- Node3&#45;&gt;Node5 -->
<g id="edge5_Node000005_Node000003" class="edge">
<title>Node3&#45;&gt;Node5</title>
<g id="a_edge5_Node000005_Node000003"><a xlink:title=" ">
<path fill="none" stroke="#9a32cd" stroke-dasharray="5,2" d="M216.23,-141.53C216.04,-127.25 215.79,-108.65 215.63,-97.41"/>
<polygon fill="#9a32cd" stroke="#9a32cd" points="212.73,-141.87 216.37,-151.83 219.73,-141.78 212.73,-141.87"/>
</a>
</g>
<text text-anchor="start" x="219.5" y="-120.9" font-family="Helvetica,sans-Serif" font-size="12.00" fill="grey">datastore</text>
</g>
<!-- Node4 -->
<g id="Node000004" class="node">
<title>Node4</title>
<g id="a_Node000004"><a xlink:title=" ">
<polygon fill="white" stroke="#666666" points="408,-21 193,-21 193,0 408,0 408,-21"/>
<text text-anchor="middle" x="300.5" y="-7.4" font-family="Helvetica,sans-Serif" font-size="12.00">std::unique_ptr&lt; JKQTPColumn &gt;</text>
</a>
</g>
</g>
<!-- Node4&#45;&gt;Node3 -->
<g id="edge3_Node000003_Node000004" class="edge">
<title>Node4&#45;&gt;Node3</title>
<g id="a_edge3_Node000003_Node000004"><a xlink:title=" ">
<path fill="none" stroke="#9a32cd" stroke-dasharray="5,2" d="M303.6,-31.57C306.5,-57.92 307.47,-104.29 284.5,-134 278.19,-142.16 269.07,-147.91 259.54,-151.96"/>
<polygon fill="#9a32cd" stroke="#9a32cd" points="307.02,-30.77 302.25,-21.31 300.08,-31.68 307.02,-30.77"/>
</a>
</g>
<text text-anchor="start" x="308" y="-82.9" font-family="Helvetica,sans-Serif" font-size="12.00" fill="grey">m_invalidColumn</text>
</g>
<!-- Node5&#45;&gt;Node4 -->
<g id="edge4_Node000004_Node000005" class="edge">
<title>Node5&#45;&gt;Node4</title>
<g id="a_edge4_Node000004_Node000005"><a xlink:title=" ">
<path fill="none" stroke="#9a32cd" stroke-dasharray="5,2" d="M231.5,-68.45C240.32,-59.36 251.67,-48.19 262.5,-39 269.95,-32.68 278.77,-26.24 286.03,-21.19"/>
<polygon fill="#9a32cd" stroke="#9a32cd" points="228.85,-66.15 224.46,-75.8 233.9,-70.99 228.85,-66.15"/>
</a>
</g>
<text text-anchor="start" x="265.5" y="-44.9" font-family="Helvetica,sans-Serif" font-size="12.00" fill="grey">ptr</text>
</g>
<!-- Node6 -->
<g id="Node000006" class="node">
<title>Node6</title>
<g id="a_Node000006"><a xlink:title=" ">
<polygon fill="white" stroke="#666666" points="567.5,-97 427.5,-97 427.5,-76 567.5,-76 567.5,-97"/>
<text text-anchor="middle" x="497.5" y="-83.4" font-family="Helvetica,sans-Serif" font-size="12.00">std::unique_ptr&lt; T &gt;</text>
</a>
</g>
</g>
<!-- Node6&#45;&gt;Node4 -->
<g id="edge6_Node000004_Node000006" class="edge">
<title>Node6&#45;&gt;Node4</title>
<g id="a_edge6_Node000004_Node000006"><a xlink:title=" ">
<path fill="none" stroke="orange" stroke-dasharray="5,2" d="M462.74,-72.44C423.61,-57.74 360.96,-34.21 326.07,-21.1"/>
<polygon fill="orange" stroke="orange" points="461.56,-75.74 472.15,-75.98 464.02,-69.18 461.56,-75.74"/>
</a>
</g>
<text text-anchor="start" x="426" y="-44.9" font-family="Helvetica,sans-Serif" font-size="12.00" fill="grey">&lt; JKQTPColumn &gt;</text>
</g>
<!-- Node7 -->
<g id="Node000007" class="node">
<title>Node7</title>
<g id="a_Node000007"><a xlink:title=" ">
<polygon fill="white" stroke="#666666" points="512,-173 483,-173 483,-152 512,-152 512,-173"/>
<text text-anchor="middle" x="497.5" y="-159.4" font-family="Helvetica,sans-Serif" font-size="12.00">T</text>
</a>
</g>
</g>
<!-- Node7&#45;&gt;Node6 -->
<g id="edge7_Node000006_Node000007" class="edge">
<title>Node7&#45;&gt;Node6</title>
<g id="a_edge7_Node000006_Node000007"><a xlink:title=" ">
<path fill="none" stroke="#9a32cd" stroke-dasharray="5,2" d="M497.5,-141.53C497.5,-127.25 497.5,-108.65 497.5,-97.41"/>
<polygon fill="#9a32cd" stroke="#9a32cd" points="494,-141.83 497.5,-151.83 501,-141.83 494,-141.83"/>
</a>
</g>
<text text-anchor="start" x="500.5" y="-120.9" font-family="Helvetica,sans-Serif" font-size="12.00" fill="grey">ptr</text>
</g>
</g>
</svg>
