<?xml version="1.0" encoding="UTF-8" standalone="no"?>
<!DOCTYPE svg PUBLIC "-//W3C//DTD SVG 1.1//EN"
 "http://www.w3.org/Graphics/SVG/1.1/DTD/svg11.dtd">
<!-- Generated by graphviz version 2.43.0 (0)
 -->
<!-- Title: JKQTFPYRangePlot Pages: 1 -->
<svg width="303pt" height="236pt"
 viewBox="0.00 0.00 303.00 236.00" xmlns="http://www.w3.org/2000/svg" xmlns:xlink="http://www.w3.org/1999/xlink">

<svg id="main" version="1.1" xmlns="http://www.w3.org/2000/svg" xmlns:xlink="http://www.w3.org/1999/xlink" xml:space="preserve">

<style type="text/css"><![CDATA[
.node, .edge {opacity: 0.7;}
.node.selected, .edge.selected {opacity: 1;}
.edge:hover path { stroke: red; }
.edge:hover polygon { stroke: red; fill: red; }
]]></style>
<script type="application/ecmascript" xlink:href="svg.min.js"/>
<svg id="graph" class="graph">
<g id="graph0" class="graph" transform="scale(1 1) rotate(0) translate(4 232)">
<title>JKQTFPYRangePlot</title>
<!-- Node1 -->
<g id="Node000001" class="node">
<title>Node1</title>
<g id="a_Node000001"><a xlink:title="plot a range of x values">
<polygon fill="#999999" stroke="#666666" points="130,-21 3,-21 3,0 130,0 130,-21"/>
<text text-anchor="middle" x="66.5" y="-7.4" font-family="Helvetica,sans-Serif" font-size="12.00">JKQTFPYRangePlot</text>
</a>
</g>
</g>
<!-- Node2 -->
<g id="Node000002" class="node">
<title>Node2</title>
<g id="a_Node000002"><a xlink:href="class_j_k_q_t_f_p_plot.html" target="_top" xlink:title="base class for all plots that may be plotted by JKQTFastPlotter">
<polygon fill="white" stroke="#666666" points="107.5,-79 25.5,-79 25.5,-58 107.5,-58 107.5,-79"/>
<text text-anchor="middle" x="66.5" y="-65.4" font-family="Helvetica,sans-Serif" font-size="12.00">JKQTFPPlot</text>
</a>
</g>
</g>
<!-- Node2&#45;&gt;Node1 -->
<g id="edge1_Node000001_Node000002" class="edge">
<title>Node2&#45;&gt;Node1</title>
<g id="a_edge1_Node000001_Node000002"><a xlink:title=" ">
<path fill="none" stroke="#63b8ff" d="M66.5,-47.66C66.5,-38.66 66.5,-28.42 66.5,-21.14"/>
<polygon fill="#63b8ff" stroke="#63b8ff" points="63,-47.75 66.5,-57.75 70,-47.75 63,-47.75"/>
</a>
</g>
</g>
<!-- Node3 -->
<g id="Node000003" class="node">
<title>Node3</title>
<g id="a_Node000003"><a xlink:title=" ">
<polygon fill="white" stroke="#666666" points="65,-162.5 0,-162.5 0,-141.5 65,-141.5 65,-162.5"/>
<text text-anchor="middle" x="32.5" y="-148.9" font-family="Helvetica,sans-Serif" font-size="12.00">QObject</text>
</a>
</g>
</g>
<!-- Node3&#45;&gt;Node2 -->
<g id="edge2_Node000002_Node000003" class="edge">
<title>Node3&#45;&gt;Node2</title>
<g id="a_edge2_Node000002_Node000003"><a xlink:title=" ">
<path fill="none" stroke="#63b8ff" d="M40.4,-132.06C47.31,-115.5 57.06,-92.14 62.47,-79.16"/>
<polygon fill="#63b8ff" stroke="#63b8ff" points="37.15,-130.75 36.53,-141.33 43.61,-133.45 37.15,-130.75"/>
</a>
</g>
</g>
<!-- Node4 -->
<g id="Node000004" class="node">
<title>Node4</title>
<g id="a_Node000004"><a xlink:href="class_j_k_q_t_fast_plotter.html" target="_top" xlink:title="a speed optimized plotter class">
<polygon fill="white" stroke="#666666" points="192,-162.5 83,-162.5 83,-141.5 192,-141.5 192,-162.5"/>
<text text-anchor="middle" x="137.5" y="-148.9" font-family="Helvetica,sans-Serif" font-size="12.00">JKQTFastPlotter</text>
</a>
</g>
</g>
<!-- Node4&#45;&gt;Node2 -->
<g id="edge3_Node000002_Node000004" class="edge">
<title>Node4&#45;&gt;Node2</title>
<g id="a_edge3_Node000002_Node000004"><a xlink:title=" ">
<path fill="none" stroke="#9a32cd" stroke-dasharray="5,2" d="M122.21,-133.45C107.73,-116.83 86.54,-92.51 74.91,-79.16"/>
<polygon fill="#9a32cd" stroke="#9a32cd" points="119.87,-136.09 129.08,-141.33 125.15,-131.49 119.87,-136.09"/>
</a>
</g>
<text text-anchor="start" x="108.5" y="-102.9" font-family="Helvetica,sans-Serif" font-size="12.00" fill="grey">parent</text>
</g>
<!-- Node4&#45;&gt;Node4 -->
<g id="edge5_Node000004_Node000004" class="edge">
<title>Node4&#45;&gt;Node4</title>
<g id="a_edge5_Node000004_Node000004"><a xlink:title=" ">
<path fill="none" stroke="#9a32cd" stroke-dasharray="5,2" d="M202.41,-156.98C207.12,-155.86 210,-154.2 210,-152 210,-148.48 202.62,-146.34 192.2,-145.57"/>
<polygon fill="#9a32cd" stroke="#9a32cd" points="201.61,-153.56 192.2,-158.43 202.59,-160.49 201.61,-153.56"/>
</a>
</g>
<text text-anchor="start" x="213.5" y="-157.4" font-family="Helvetica,sans-Serif" font-size="12.00" fill="grey">synchronizeX</text>
<text text-anchor="start" x="213.5" y="-140.4" font-family="Helvetica,sans-Serif" font-size="12.00" fill="grey">synchronizeY</text>
</g>
<!-- Node5 -->
<g id="Node000005" class="node">
<title>Node5</title>
<g id="a_Node000005"><a xlink:title=" ">
<polygon fill="white" stroke="#666666" points="194.5,-228 80.5,-228 80.5,-207 194.5,-207 194.5,-228"/>
<text text-anchor="middle" x="137.5" y="-214.4" font-family="Helvetica,sans-Serif" font-size="12.00">QOpenGLWidget</text>
</a>
</g>
</g>
<!-- Node5&#45;&gt;Node4 -->
<g id="edge4_Node000004_Node000005" class="edge">
<title>Node5&#45;&gt;Node4</title>
<g id="a_edge4_Node000004_Node000005"><a xlink:title=" ">
<path fill="none" stroke="#63b8ff" d="M137.5,-196.61C137.5,-185.33 137.5,-171.72 137.5,-162.74"/>
<polygon fill="#63b8ff" stroke="#63b8ff" points="134,-196.86 137.5,-206.86 141,-196.86 134,-196.86"/>
</a>
</g>
</g>
</g>
</svg>
</svg>

<style type='text/css'>
<![CDATA[
[data-mouse-over-selected='false'] { opacity: 0.7; }
[data-mouse-over-selected='true']  { opacity: 1.0; }
]]>
</style>
<script type="application/ecmascript"><![CDATA[
document.addEventListener('DOMContentLoaded', (event) => {
  highlightEdges();
  highlightAdjacentNodes();
});
]]></script>
</svg>
