<?xml version="1.0" encoding="UTF-8" standalone="no"?>
<!DOCTYPE svg PUBLIC "-//W3C//DTD SVG 1.1//EN"
 "http://www.w3.org/Graphics/SVG/1.1/DTD/svg11.dtd">
<!-- Generated by graphviz version 2.43.0 (0)
 -->
<!-- Title: JKQTFPQImagePlot Pages: 1 -->
<svg width="138pt" height="143pt"
 viewBox="0.00 0.00 138.00 143.00" xmlns="http://www.w3.org/2000/svg" xmlns:xlink="http://www.w3.org/1999/xlink">
<g id="graph0" class="graph" transform="scale(1 1) rotate(0) translate(4 139)">
<title>JKQTFPQImagePlot</title>
<!-- Node1 -->
<g id="Node000001" class="node">
<title>Node1</title>
<g id="a_Node000001"><a xlink:title="a plot of a QImage">
<polygon fill="#999999" stroke="#666666" points="130,-21 0,-21 0,0 130,0 130,-21"/>
<text text-anchor="middle" x="65" y="-7.4" font-family="Helvetica,sans-Serif" font-size="12.00">JKQTFPQImagePlot</text>
</a>
</g>
</g>
<!-- Node2 -->
<g id="Node000002" class="node">
<title>Node2</title>
<g id="a_Node000002"><a xlink:href="class_j_k_q_t_f_p_plot.html" target="_top" xlink:title="base class for all plots that may be plotted by JKQTFastPlotter">
<polygon fill="white" stroke="#666666" points="106,-78 24,-78 24,-57 106,-57 106,-78"/>
<text text-anchor="middle" x="65" y="-64.4" font-family="Helvetica,sans-Serif" font-size="12.00">JKQTFPPlot</text>
</a>
</g>
</g>
<!-- Node2&#45;&gt;Node1 -->
<g id="edge1_Node000001_Node000002" class="edge">
<title>Node2&#45;&gt;Node1</title>
<g id="a_edge1_Node000001_Node000002"><a xlink:title=" ">
<path fill="none" stroke="#63b8ff" d="M65,-46.86C65,-38.2 65,-28.42 65,-21.34"/>
<polygon fill="#63b8ff" stroke="#63b8ff" points="61.5,-46.92 65,-56.92 68.5,-46.92 61.5,-46.92"/>
</a>
</g>
</g>
<!-- Node3 -->
<g id="Node000003" class="node">
<title>Node3</title>
<g id="a_Node000003"><a xlink:title=" ">
<polygon fill="white" stroke="#666666" points="97.5,-135 32.5,-135 32.5,-114 97.5,-114 97.5,-135"/>
<text text-anchor="middle" x="65" y="-121.4" font-family="Helvetica,sans-Serif" font-size="12.00">QObject</text>
</a>
</g>
</g>
<!-- Node3&#45;&gt;Node2 -->
<g id="edge2_Node000002_Node000003" class="edge">
<title>Node3&#45;&gt;Node2</title>
<g id="a_edge2_Node000002_Node000003"><a xlink:title=" ">
<path fill="none" stroke="#63b8ff" d="M65,-103.86C65,-95.2 65,-85.42 65,-78.34"/>
<polygon fill="#63b8ff" stroke="#63b8ff" points="61.5,-103.92 65,-113.92 68.5,-103.92 61.5,-103.92"/>
</a>
</g>
</g>
</g>
</svg>
