<?xml version="1.0" encoding="UTF-8" standalone="no"?>
<!DOCTYPE svg PUBLIC "-//W3C//DTD SVG 1.1//EN"
 "http://www.w3.org/Graphics/SVG/1.1/DTD/svg11.dtd">
<!-- Generated by graphviz version 2.43.0 (0)
 -->
<!-- Title: JKQTPGeoBaseLine Pages: 1 -->
<svg width="410pt" height="485pt"
 viewBox="0.00 0.00 410.00 485.00" xmlns="http://www.w3.org/2000/svg" xmlns:xlink="http://www.w3.org/1999/xlink">
<g id="graph0" class="graph" transform="scale(1 1) rotate(0) translate(4 481)">
<title>JKQTPGeoBaseLine</title>
<!-- Node1 -->
<g id="Node000001" class="node">
<title>Node1</title>
<g id="a_Node000001"><a xlink:title="This JKQTPGeometricPlotElement is used as base class for geometric drawing elements that only consist...">
<polygon fill="#999999" stroke="#666666" points="258.5,-306 127.5,-306 127.5,-285 258.5,-285 258.5,-306"/>
<text text-anchor="middle" x="193" y="-292.4" font-family="Helvetica,sans-Serif" font-size="12.00">JKQTPGeoBaseLine</text>
</a>
</g>
</g>
<!-- Node6 -->
<g id="Node000006" class="node">
<title>Node6</title>
<g id="a_Node000006"><a xlink:href="class_j_k_q_t_p_geo_arc.html" target="_top" xlink:title="This JKQTPGeometricPlotElement is used to draw an arc.">
<polygon fill="white" stroke="#666666" points="174,-249 78,-249 78,-228 174,-228 174,-249"/>
<text text-anchor="middle" x="126" y="-235.4" font-family="Helvetica,sans-Serif" font-size="12.00">JKQTPGeoArc</text>
</a>
</g>
</g>
<!-- Node1&#45;&gt;Node6 -->
<g id="edge5_Node000001_Node000006" class="edge">
<title>Node1&#45;&gt;Node6</title>
<g id="a_edge5_Node000001_Node000006"><a xlink:title=" ">
<path fill="none" stroke="#63b8ff" d="M173.54,-278.52C162.04,-269.09 147.86,-257.44 137.99,-249.34"/>
<polygon fill="#63b8ff" stroke="#63b8ff" points="171.38,-281.28 181.33,-284.92 175.82,-275.87 171.38,-281.28"/>
</a>
</g>
</g>
<!-- Node7 -->
<g id="Node000007" class="node">
<title>Node7</title>
<g id="a_Node000007"><a xlink:href="class_j_k_q_t_p_geo_base_filled.html" target="_top" xlink:title="This JKQTPGeometricPlotElement is used as base class for geometric drawing elements that only consist...">
<polygon fill="white" stroke="#666666" points="328,-249 192,-249 192,-228 328,-228 328,-249"/>
<text text-anchor="middle" x="260" y="-235.4" font-family="Helvetica,sans-Serif" font-size="12.00">JKQTPGeoBaseFilled</text>
</a>
</g>
</g>
<!-- Node1&#45;&gt;Node7 -->
<g id="edge6_Node000001_Node000007" class="edge">
<title>Node1&#45;&gt;Node7</title>
<g id="a_edge6_Node000001_Node000007"><a xlink:title=" ">
<path fill="none" stroke="#63b8ff" d="M212.46,-278.52C223.96,-269.09 238.14,-257.44 248.01,-249.34"/>
<polygon fill="#63b8ff" stroke="#63b8ff" points="210.18,-275.87 204.67,-284.92 214.62,-281.28 210.18,-275.87"/>
</a>
</g>
</g>
<!-- Node2 -->
<g id="Node000002" class="node">
<title>Node2</title>
<g id="a_Node000002"><a xlink:href="class_j_k_q_t_p_geometric_plot_element.html" target="_top" xlink:title="this is the virtual base class of all JKQTPPlotElement&#39;s in a JKQTPlotter plot that represent geometr...">
<polygon fill="white" stroke="#666666" points="188,-363 0,-363 0,-342 188,-342 188,-363"/>
<text text-anchor="middle" x="94" y="-349.4" font-family="Helvetica,sans-Serif" font-size="12.00">JKQTPGeometricPlotElement</text>
</a>
</g>
</g>
<!-- Node2&#45;&gt;Node1 -->
<g id="edge1_Node000001_Node000002" class="edge">
<title>Node2&#45;&gt;Node1</title>
<g id="a_edge1_Node000001_Node000002"><a xlink:title=" ">
<path fill="none" stroke="#63b8ff" d="M120.38,-336.85C137.87,-327.13 160.34,-314.64 175.62,-306.16"/>
<polygon fill="#63b8ff" stroke="#63b8ff" points="118.29,-334 111.24,-341.92 121.69,-340.12 118.29,-334"/>
</a>
</g>
</g>
<!-- Node3 -->
<g id="Node000003" class="node">
<title>Node3</title>
<g id="a_Node000003"><a xlink:href="class_j_k_q_t_p_plot_element.html" target="_top" xlink:title="this virtual base class of every element, which is part of a JKQTPlotter plot and may appear in its k...">
<polygon fill="white" stroke="#666666" points="156.5,-420 31.5,-420 31.5,-399 156.5,-399 156.5,-420"/>
<text text-anchor="middle" x="94" y="-406.4" font-family="Helvetica,sans-Serif" font-size="12.00">JKQTPPlotElement</text>
</a>
</g>
</g>
<!-- Node3&#45;&gt;Node2 -->
<g id="edge2_Node000002_Node000003" class="edge">
<title>Node3&#45;&gt;Node2</title>
<g id="a_edge2_Node000002_Node000003"><a xlink:title=" ">
<path fill="none" stroke="#63b8ff" d="M94,-388.86C94,-380.2 94,-370.42 94,-363.34"/>
<polygon fill="#63b8ff" stroke="#63b8ff" points="90.5,-388.92 94,-398.92 97.5,-388.92 90.5,-388.92"/>
</a>
</g>
</g>
<!-- Node4 -->
<g id="Node000004" class="node">
<title>Node4</title>
<g id="a_Node000004"><a xlink:title=" ">
<polygon fill="white" stroke="#666666" points="126.5,-477 61.5,-477 61.5,-456 126.5,-456 126.5,-477"/>
<text text-anchor="middle" x="94" y="-463.4" font-family="Helvetica,sans-Serif" font-size="12.00">QObject</text>
</a>
</g>
</g>
<!-- Node4&#45;&gt;Node3 -->
<g id="edge3_Node000003_Node000004" class="edge">
<title>Node4&#45;&gt;Node3</title>
<g id="a_edge3_Node000003_Node000004"><a xlink:title=" ">
<path fill="none" stroke="#63b8ff" d="M94,-445.86C94,-437.2 94,-427.42 94,-420.34"/>
<polygon fill="#63b8ff" stroke="#63b8ff" points="90.5,-445.92 94,-455.92 97.5,-445.92 90.5,-445.92"/>
</a>
</g>
</g>
<!-- Node5 -->
<g id="Node000005" class="node">
<title>Node5</title>
<g id="a_Node000005"><a xlink:href="class_j_k_q_t_p_graph_line_style_mixin.html" target="_top" xlink:title="This Mix&#45;In class provides setter/getter methods, storage and other facilities for the graph line sty...">
<polygon fill="white" stroke="#666666" points="380,-363 206,-363 206,-342 380,-342 380,-363"/>
<text text-anchor="middle" x="293" y="-349.4" font-family="Helvetica,sans-Serif" font-size="12.00">JKQTPGraphLineStyleMixin</text>
</a>
</g>
</g>
<!-- Node5&#45;&gt;Node1 -->
<g id="edge4_Node000001_Node000005" class="edge">
<title>Node5&#45;&gt;Node1</title>
<g id="a_edge4_Node000001_Node000005"><a xlink:title=" ">
<path fill="none" stroke="#63b8ff" d="M266.36,-336.85C248.68,-327.13 225.99,-314.64 210.55,-306.16"/>
<polygon fill="#63b8ff" stroke="#63b8ff" points="265.13,-340.17 275.58,-341.92 268.51,-334.03 265.13,-340.17"/>
</a>
</g>
</g>
<!-- Node8 -->
<g id="Node000008" class="node">
<title>Node8</title>
<g id="a_Node000008"><a xlink:href="class_j_k_q_t_p_geo_polygon.html" target="_top" xlink:title="This JKQTPGeometricPlotElement is used to draw a polygon.">
<polygon fill="white" stroke="#666666" points="247.5,-192 124.5,-192 124.5,-171 247.5,-171 247.5,-192"/>
<text text-anchor="middle" x="186" y="-178.4" font-family="Helvetica,sans-Serif" font-size="12.00">JKQTPGeoPolygon</text>
</a>
</g>
</g>
<!-- Node7&#45;&gt;Node8 -->
<g id="edge7_Node000007_Node000008" class="edge">
<title>Node7&#45;&gt;Node8</title>
<g id="a_edge7_Node000007_Node000008"><a xlink:title=" ">
<path fill="none" stroke="#63b8ff" d="M238.87,-221.8C226.11,-212.31 210.25,-200.52 199.24,-192.34"/>
<polygon fill="#63b8ff" stroke="#63b8ff" points="237,-224.76 247.11,-227.92 241.17,-219.15 237,-224.76"/>
</a>
</g>
</g>
<!-- Node9 -->
<g id="Node000009" class="node">
<title>Node9</title>
<g id="a_Node000009"><a xlink:href="class_j_k_q_t_p_geo_rectangle.html" target="_top" xlink:title="This JKQTPGeometricPlotElement is used to draw a rectangle.">
<polygon fill="white" stroke="#666666" points="402,-192 266,-192 266,-171 402,-171 402,-192"/>
<text text-anchor="middle" x="334" y="-178.4" font-family="Helvetica,sans-Serif" font-size="12.00">JKQTPGeoRectangle</text>
</a>
</g>
</g>
<!-- Node7&#45;&gt;Node9 -->
<g id="edge8_Node000007_Node000009" class="edge">
<title>Node7&#45;&gt;Node9</title>
<g id="a_edge8_Node000007_Node000009"><a xlink:title=" ">
<path fill="none" stroke="#63b8ff" d="M281.13,-221.8C293.89,-212.31 309.75,-200.52 320.76,-192.34"/>
<polygon fill="#63b8ff" stroke="#63b8ff" points="278.83,-219.15 272.89,-227.92 283,-224.76 278.83,-219.15"/>
</a>
</g>
</g>
<!-- Node10 -->
<g id="Node000010" class="node">
<title>Node10</title>
<g id="a_Node000010"><a xlink:href="class_j_k_q_t_p_geo_ellipse.html" target="_top" xlink:title="This JKQTPGeometricPlotElement is used to draw an ellipse.">
<polygon fill="white" stroke="#666666" points="391,-135 277,-135 277,-114 391,-114 391,-135"/>
<text text-anchor="middle" x="334" y="-121.4" font-family="Helvetica,sans-Serif" font-size="12.00">JKQTPGeoEllipse</text>
</a>
</g>
</g>
<!-- Node9&#45;&gt;Node10 -->
<g id="edge9_Node000009_Node000010" class="edge">
<title>Node9&#45;&gt;Node10</title>
<g id="a_edge9_Node000009_Node000010"><a xlink:title=" ">
<path fill="none" stroke="#63b8ff" d="M334,-160.86C334,-152.2 334,-142.42 334,-135.34"/>
<polygon fill="#63b8ff" stroke="#63b8ff" points="330.5,-160.92 334,-170.92 337.5,-160.92 330.5,-160.92"/>
</a>
</g>
</g>
<!-- Node11 -->
<g id="Node000011" class="node">
<title>Node11</title>
<g id="a_Node000011"><a xlink:href="class_j_k_q_t_p_geo_pie.html" target="_top" xlink:title="This JKQTPGeometricPlotElement is used to draw a pie.">
<polygon fill="white" stroke="#666666" points="381,-78 287,-78 287,-57 381,-57 381,-78"/>
<text text-anchor="middle" x="334" y="-64.4" font-family="Helvetica,sans-Serif" font-size="12.00">JKQTPGeoPie</text>
</a>
</g>
</g>
<!-- Node10&#45;&gt;Node11 -->
<g id="edge10_Node000010_Node000011" class="edge">
<title>Node10&#45;&gt;Node11</title>
<g id="a_edge10_Node000010_Node000011"><a xlink:title=" ">
<path fill="none" stroke="#63b8ff" d="M334,-103.86C334,-95.2 334,-85.42 334,-78.34"/>
<polygon fill="#63b8ff" stroke="#63b8ff" points="330.5,-103.92 334,-113.92 337.5,-103.92 330.5,-103.92"/>
</a>
</g>
</g>
<!-- Node12 -->
<g id="Node000012" class="node">
<title>Node12</title>
<g id="a_Node000012"><a xlink:href="class_j_k_q_t_p_geo_chord.html" target="_top" xlink:title="This JKQTPGeometricPlotElement is used to draw a chord.">
<polygon fill="white" stroke="#666666" points="390,-21 278,-21 278,0 390,0 390,-21"/>
<text text-anchor="middle" x="334" y="-7.4" font-family="Helvetica,sans-Serif" font-size="12.00">JKQTPGeoChord</text>
</a>
</g>
</g>
<!-- Node11&#45;&gt;Node12 -->
<g id="edge11_Node000011_Node000012" class="edge">
<title>Node11&#45;&gt;Node12</title>
<g id="a_edge11_Node000011_Node000012"><a xlink:title=" ">
<path fill="none" stroke="#63b8ff" d="M334,-46.86C334,-38.2 334,-28.42 334,-21.34"/>
<polygon fill="#63b8ff" stroke="#63b8ff" points="330.5,-46.92 334,-56.92 337.5,-46.92 330.5,-46.92"/>
</a>
</g>
</g>
</g>
</svg>
