<?xml version="1.0" encoding="UTF-8" standalone="no"?>
<!DOCTYPE svg PUBLIC "-//W3C//DTD SVG 1.1//EN"
 "http://www.w3.org/Graphics/SVG/1.1/DTD/svg11.dtd">
<!-- Generated by graphviz version 2.43.0 (0)
 -->
<!-- Title: JKQTPMathParser::jkmpNode Pages: 1 -->
<svg width="475pt" height="382pt"
 viewBox="0.00 0.00 475.00 381.50" xmlns="http://www.w3.org/2000/svg" xmlns:xlink="http://www.w3.org/1999/xlink">

<svg id="main" version="1.1" xmlns="http://www.w3.org/2000/svg" xmlns:xlink="http://www.w3.org/1999/xlink" xml:space="preserve">

<style type="text/css"><![CDATA[
.node, .edge {opacity: 0.7;}
.node.selected, .edge.selected {opacity: 1;}
.edge:hover path { stroke: red; }
.edge:hover polygon { stroke: red; fill: red; }
]]></style>
<script type="application/ecmascript" xlink:href="svg.min.js"/>
<svg id="graph" class="graph">
<g id="graph0" class="graph" transform="scale(1 1) rotate(0) translate(4 377.5)">
<title>JKQTPMathParser::jkmpNode</title>
<!-- Node1 -->
<g id="Node000001" class="node">
<title>Node1</title>
<g id="a_Node000001"><a xlink:title="This class is the abstract base class for nodes. All allowed node types must inherit from jkmpNode.">
<polygon fill="#999999" stroke="#666666" points="188,-191 0,-191 0,-170 188,-170 188,-191"/>
<text text-anchor="middle" x="94" y="-177.4" font-family="Helvetica,sans-Serif" font-size="12.00">JKQTPMathParser::jkmpNode</text>
</a>
</g>
</g>
<!-- Node2 -->
<g id="Node000002" class="node">
<title>Node2</title>
<g id="a_Node000002"><a xlink:href="class_j_k_q_t_p_math_parser_1_1jkmp_binary_arithmetic_node.html" target="_top" xlink:title="This class represents a binary arithmetic operation: add (+), subtract (&#45;), multiply (*),...">
<polygon fill="white" stroke="#666666" points="443,-373.5 248,-373.5 248,-339.5 443,-339.5 443,-373.5"/>
<text text-anchor="start" x="256" y="-359.9" font-family="Helvetica,sans-Serif" font-size="12.00">JKQTPMathParser::jkmpBinary</text>
<text text-anchor="middle" x="345.5" y="-346.9" font-family="Helvetica,sans-Serif" font-size="12.00">ArithmeticNode</text>
</a>
</g>
</g>
<!-- Node1&#45;&gt;Node2 -->
<g id="edge1_Node000001_Node000002" class="edge">
<title>Node1&#45;&gt;Node2</title>
<g id="a_edge1_Node000001_Node000002"><a xlink:title=" ">
<path fill="none" stroke="#63b8ff" d="M106.13,-200.33C125.55,-232.98 168.89,-297.72 224,-330.5 231.45,-334.93 239.56,-338.61 247.93,-341.66"/>
<polygon fill="#63b8ff" stroke="#63b8ff" points="108.93,-198.18 100.88,-191.29 102.88,-201.7 108.93,-198.18"/>
</a>
</g>
</g>
<!-- Node3 -->
<g id="Node000003" class="node">
<title>Node3</title>
<g id="a_Node000003"><a xlink:href="class_j_k_q_t_p_math_parser_1_1jkmp_binary_bool_node.html" target="_top" xlink:title="This class represents a binary boolean operation: and, or, xor, nor, nand.">
<polygon fill="white" stroke="#666666" points="443,-321.5 248,-321.5 248,-287.5 443,-287.5 443,-321.5"/>
<text text-anchor="start" x="256" y="-307.9" font-family="Helvetica,sans-Serif" font-size="12.00">JKQTPMathParser::jkmpBinary</text>
<text text-anchor="middle" x="345.5" y="-294.9" font-family="Helvetica,sans-Serif" font-size="12.00">BoolNode</text>
</a>
</g>
</g>
<!-- Node1&#45;&gt;Node3 -->
<g id="edge2_Node000001_Node000003" class="edge">
<title>Node1&#45;&gt;Node3</title>
<g id="a_edge2_Node000001_Node000003"><a xlink:title=" ">
<path fill="none" stroke="#63b8ff" d="M113.09,-198.45C136.6,-220.72 179.89,-258.21 224,-278.5 231.58,-281.99 239.65,-285.02 247.88,-287.64"/>
<polygon fill="#63b8ff" stroke="#63b8ff" points="115.26,-195.68 105.63,-191.26 110.41,-200.72 115.26,-195.68"/>
</a>
</g>
</g>
<!-- Node4 -->
<g id="Node000004" class="node">
<title>Node4</title>
<g id="a_Node000004"><a xlink:href="class_j_k_q_t_p_math_parser_1_1jkmp_compare_node.html" target="_top" xlink:title="This class represents a binary compare operation: !=, ==, &gt;=, &lt;=, &gt;, &lt;.">
<polygon fill="white" stroke="#666666" points="467,-269 224,-269 224,-248 467,-248 467,-269"/>
<text text-anchor="middle" x="345.5" y="-255.4" font-family="Helvetica,sans-Serif" font-size="12.00">JKQTPMathParser::jkmpCompareNode</text>
</a>
</g>
</g>
<!-- Node1&#45;&gt;Node4 -->
<g id="edge3_Node000001_Node000004" class="edge">
<title>Node1&#45;&gt;Node4</title>
<g id="a_edge3_Node000001_Node000004"><a xlink:title=" ">
<path fill="none" stroke="#63b8ff" d="M123.12,-196.08C148.69,-209.58 187.83,-228.6 224,-239.5 235.15,-242.86 247.08,-245.65 258.92,-247.97"/>
<polygon fill="#63b8ff" stroke="#63b8ff" points="124.49,-192.84 114.02,-191.21 121.19,-199.02 124.49,-192.84"/>
</a>
</g>
</g>
<!-- Node5 -->
<g id="Node000005" class="node">
<title>Node5</title>
<g id="a_Node000005"><a xlink:href="class_j_k_q_t_p_math_parser_1_1jkmp_constant_node.html" target="_top" xlink:title="This class represents a number, a string contant or a boolean contant (true / false )">
<polygon fill="white" stroke="#666666" points="466.5,-230 224.5,-230 224.5,-209 466.5,-209 466.5,-230"/>
<text text-anchor="middle" x="345.5" y="-216.4" font-family="Helvetica,sans-Serif" font-size="12.00">JKQTPMathParser::jkmpConstantNode</text>
</a>
</g>
</g>
<!-- Node1&#45;&gt;Node5 -->
<g id="edge4_Node000001_Node000005" class="edge">
<title>Node1&#45;&gt;Node5</title>
<g id="a_edge4_Node000001_Node000005"><a xlink:title=" ">
<path fill="none" stroke="#63b8ff" d="M172.41,-192.6C205.96,-197.84 244.87,-203.93 277.19,-208.98"/>
<polygon fill="#63b8ff" stroke="#63b8ff" points="172.61,-189.09 162.19,-191 171.53,-196.01 172.61,-189.09"/>
</a>
</g>
</g>
<!-- Node6 -->
<g id="Node000006" class="node">
<title>Node6</title>
<g id="a_Node000006"><a xlink:href="class_j_k_q_t_p_math_parser_1_1jkmp_function_node.html" target="_top" xlink:title="This class represents an arbitrary function.">
<polygon fill="white" stroke="#666666" points="465,-191 226,-191 226,-170 465,-170 465,-191"/>
<text text-anchor="middle" x="345.5" y="-177.4" font-family="Helvetica,sans-Serif" font-size="12.00">JKQTPMathParser::jkmpFunctionNode</text>
</a>
</g>
</g>
<!-- Node1&#45;&gt;Node6 -->
<g id="edge5_Node000001_Node000006" class="edge">
<title>Node1&#45;&gt;Node6</title>
<g id="a_edge5_Node000001_Node000006"><a xlink:title=" ">
<path fill="none" stroke="#63b8ff" d="M198.34,-180.5C207.33,-180.5 216.47,-180.5 225.58,-180.5"/>
<polygon fill="#63b8ff" stroke="#63b8ff" points="198.26,-177 188.26,-180.5 198.26,-184 198.26,-177"/>
</a>
</g>
</g>
<!-- Node7 -->
<g id="Node000007" class="node">
<title>Node7</title>
<g id="a_Node000007"><a xlink:href="class_j_k_q_t_p_math_parser_1_1jkmp_node_list.html" target="_top" xlink:title="This class represents a list of jkmpNode.">
<polygon fill="white" stroke="#666666" points="450,-152 241,-152 241,-131 450,-131 450,-152"/>
<text text-anchor="middle" x="345.5" y="-138.4" font-family="Helvetica,sans-Serif" font-size="12.00">JKQTPMathParser::jkmpNodeList</text>
</a>
</g>
</g>
<!-- Node1&#45;&gt;Node7 -->
<g id="edge6_Node000001_Node000007" class="edge">
<title>Node1&#45;&gt;Node7</title>
<g id="a_edge6_Node000001_Node000007"><a xlink:title=" ">
<path fill="none" stroke="#63b8ff" d="M172.41,-168.4C205.96,-163.16 244.87,-157.07 277.19,-152.02"/>
<polygon fill="#63b8ff" stroke="#63b8ff" points="171.53,-164.99 162.19,-170 172.61,-171.91 171.53,-164.99"/>
</a>
</g>
</g>
<!-- Node8 -->
<g id="Node000008" class="node">
<title>Node8</title>
<g id="a_Node000008"><a xlink:href="class_j_k_q_t_p_math_parser_1_1jkmp_unary_node.html" target="_top" xlink:title="This class represents a unary operations: ! (bool negation), &#45; (arithmetic negation)">
<polygon fill="white" stroke="#666666" points="457.5,-113 233.5,-113 233.5,-92 457.5,-92 457.5,-113"/>
<text text-anchor="middle" x="345.5" y="-99.4" font-family="Helvetica,sans-Serif" font-size="12.00">JKQTPMathParser::jkmpUnaryNode</text>
</a>
</g>
</g>
<!-- Node1&#45;&gt;Node8 -->
<g id="edge7_Node000001_Node000008" class="edge">
<title>Node1&#45;&gt;Node8</title>
<g id="a_edge7_Node000001_Node000008"><a xlink:title=" ">
<path fill="none" stroke="#63b8ff" d="M123.62,-165.04C149.23,-151.85 188.15,-133.33 224,-122.5 236.48,-118.73 249.92,-115.61 263.14,-113.06"/>
<polygon fill="#63b8ff" stroke="#63b8ff" points="121.74,-162.08 114.49,-169.81 124.98,-168.28 121.74,-162.08"/>
</a>
</g>
</g>
<!-- Node9 -->
<g id="Node000009" class="node">
<title>Node9</title>
<g id="a_Node000009"><a xlink:href="class_j_k_q_t_p_math_parser_1_1jkmp_variable_assign_node.html" target="_top" xlink:title="This class represents a variable assignment (a = expression)">
<polygon fill="white" stroke="#666666" points="448.5,-73.5 242.5,-73.5 242.5,-39.5 448.5,-39.5 448.5,-73.5"/>
<text text-anchor="start" x="250.5" y="-59.9" font-family="Helvetica,sans-Serif" font-size="12.00">JKQTPMathParser::jkmpVariable</text>
<text text-anchor="middle" x="345.5" y="-46.9" font-family="Helvetica,sans-Serif" font-size="12.00">AssignNode</text>
</a>
</g>
</g>
<!-- Node1&#45;&gt;Node9 -->
<g id="edge8_Node000001_Node000009" class="edge">
<title>Node1&#45;&gt;Node9</title>
<g id="a_edge8_Node000001_Node000009"><a xlink:title=" ">
<path fill="none" stroke="#63b8ff" d="M113.15,-162.8C136.73,-140.82 180.08,-103.78 224,-83.5 232.27,-79.68 241.12,-76.38 250.12,-73.54"/>
<polygon fill="#63b8ff" stroke="#63b8ff" points="110.52,-160.47 105.67,-169.89 115.34,-165.55 110.52,-160.47"/>
</a>
</g>
</g>
<!-- Node10 -->
<g id="Node000010" class="node">
<title>Node10</title>
<g id="a_Node000010"><a xlink:href="class_j_k_q_t_p_math_parser_1_1jkmp_variable_node.html" target="_top" xlink:title="This class represents a variable.">
<polygon fill="white" stroke="#666666" points="464,-21 227,-21 227,0 464,0 464,-21"/>
<text text-anchor="middle" x="345.5" y="-7.4" font-family="Helvetica,sans-Serif" font-size="12.00">JKQTPMathParser::jkmpVariableNode</text>
</a>
</g>
</g>
<!-- Node1&#45;&gt;Node10 -->
<g id="edge9_Node000001_Node000010" class="edge">
<title>Node1&#45;&gt;Node10</title>
<g id="a_edge9_Node000001_Node000010"><a xlink:title=" ">
<path fill="none" stroke="#63b8ff" d="M105.68,-160.86C124.72,-127.93 167.84,-62.1 224,-30.5 230.75,-26.7 238.02,-23.58 245.53,-21.03"/>
<polygon fill="#63b8ff" stroke="#63b8ff" points="102.42,-159.52 100.56,-169.95 108.52,-162.96 102.42,-159.52"/>
</a>
</g>
</g>
</g>
</svg>
</svg>

<style type='text/css'>
<![CDATA[
[data-mouse-over-selected='false'] { opacity: 0.7; }
[data-mouse-over-selected='true']  { opacity: 1.0; }
]]>
</style>
<script type="application/ecmascript"><![CDATA[
document.addEventListener('DOMContentLoaded', (event) => {
  highlightEdges();
  highlightAdjacentNodes();
});
]]></script>
</svg>
