<?xml version="1.0" encoding="UTF-8" standalone="no"?>
<!DOCTYPE svg PUBLIC "-//W3C//DTD SVG 1.1//EN"
 "http://www.w3.org/Graphics/SVG/1.1/DTD/svg11.dtd">
<!-- Generated by graphviz version 2.43.0 (0)
 -->
<!-- Title: JKQTPYGraphErrorData Pages: 1 -->
<!--zoomable 252 -->

<svg id="main" version="1.1" xmlns="http://www.w3.org/2000/svg" xmlns:xlink="http://www.w3.org/1999/xlink" xml:space="preserve" onload="init(evt)">

<style type="text/css"><![CDATA[
.node, .edge {opacity: 0.7;}
.node.selected, .edge.selected {opacity: 1;}
.edge:hover path { stroke: red; }
.edge:hover polygon { stroke: red; fill: red; }
]]></style>

<defs>
  <circle id="rim" cx="0" cy="0" r="7"/>
  <circle id="rim2" cx="0" cy="0" r="3.5"/>
  <g id="zoomPlus">
    <use xlink:href="#rim" fill="#404040"><set attributeName="fill" to="#808080" begin="zoomplus.mouseover" end="zoomplus.mouseout"/></use>
    <path d="M-4,0h8M0,-4v8" fill="none" stroke="white" stroke-width="1.5" pointer-events="none"/>
  </g>
  <g id="zoomMin">
    <use xlink:href="#rim" fill="#404040"><set attributeName="fill" to="#808080" begin="zoomminus.mouseover" end="zoomminus.mouseout"/></use>
    <path d="M-4,0h8" fill="none" stroke="white" stroke-width="1.5" pointer-events="none"/>
  </g>
  <g id="arrowUp" transform="translate(30 24)">
    <use xlink:href="#rim"/>
    <path pointer-events="none" fill="none" stroke="white" stroke-width="1.5" d="M0,-3.0v7 M-2.5,-0.5L0,-3.0L2.5,-0.5"/>
  </g>
  <g id="arrowRight" transform="rotate(90) translate(36 -43)">
    <use xlink:href="#rim"/>
    <path pointer-events="none" fill="none" stroke="white" stroke-width="1.5" d="M0,-3.0v7 M-2.5,-0.5L0,-3.0L2.5,-0.5"/>
  </g>
  <g id="arrowDown" transform="rotate(180) translate(-30 -48)">
    <use xlink:href="#rim"/>
    <path pointer-events="none" fill="none" stroke="white" stroke-width="1.5" d="M0,-3.0v7 M-2.5,-0.5L0,-3.0L2.5,-0.5"/>
  </g>
  <g id="arrowLeft" transform="rotate(270) translate(-36 17)">
    <use xlink:href="#rim"/>
    <path pointer-events="none" fill="none" stroke="white" stroke-width="1.5" d="M0,-3.0v7 M-2.5,-0.5L0,-3.0L2.5,-0.5"/>
  </g>
  <g id="resetDef">
    <use xlink:href="#rim2" fill="#404040"><set attributeName="fill" to="#808080" begin="reset.mouseover" end="reset.mouseout"/></use>
  </g>
</defs>
<script type="application/ecmascript">
var viewWidth = 566;
var viewHeight = 252;
var sectionId = 'dynsection-0';
</script>
<script type="application/ecmascript" xlink:href="svg.min.js"/>
<svg id="graph" class="graph">
<g id="viewport">
<title>JKQTPYGraphErrorData</title>
<!-- Node1 -->
<g id="Node000001" class="node">
<title>Node1</title>
<g id="a_Node000001"><a xlink:title="This class adds data fields for error indicators in y direction.">
<polygon fill="#999999" stroke="#666666" points="154,-121.5 0,-121.5 0,-100.5 154,-100.5 154,-121.5"/>
<text text-anchor="middle" x="77" y="-107.9" font-family="Helvetica,sans-Serif" font-size="12.00">JKQTPYGraphErrorData</text>
</a>
</g>
</g>
<!-- Node2 -->
<g id="Node000002" class="node">
<title>Node2</title>
<g id="a_Node000002"><a xlink:href="class_j_k_q_t_p_x_y_graph_errors.html" target="_top" xlink:title="This class is the base class for graphs that only display error indicators in x&#45; and y&#45;direction.">
<polygon fill="white" stroke="#666666" points="330,-160.5 190,-160.5 190,-139.5 330,-139.5 330,-160.5"/>
<text text-anchor="middle" x="260" y="-146.9" font-family="Helvetica,sans-Serif" font-size="12.00">JKQTPXYGraphErrors</text>
</a>
</g>
</g>
<!-- Node1&#45;&gt;Node2 -->
<g id="edge1_Node000001_Node000002" class="edge">
<title>Node1&#45;&gt;Node2</title>
<g id="a_edge1_Node000001_Node000002"><a xlink:title=" ">
<path fill="none" stroke="#63b8ff" d="M136.89,-123.69C160.52,-128.78 187.44,-134.58 209.98,-139.44"/>
<polygon fill="#63b8ff" stroke="#63b8ff" points="137.49,-120.24 126.98,-121.55 136.02,-127.08 137.49,-120.24"/>
</a>
</g>
</g>
<!-- Node6 -->
<g id="Node000006" class="node">
<title>Node6</title>
<g id="a_Node000006"><a xlink:href="class_j_k_q_t_p_y_graph_errors.html" target="_top" xlink:title="This class is the base class for graphs that only display error indicators in y&#45;direction.">
<polygon fill="white" stroke="#666666" points="325.5,-102.5 194.5,-102.5 194.5,-81.5 325.5,-81.5 325.5,-102.5"/>
<text text-anchor="middle" x="260" y="-88.9" font-family="Helvetica,sans-Serif" font-size="12.00">JKQTPYGraphErrors</text>
</a>
</g>
</g>
<!-- Node1&#45;&gt;Node6 -->
<g id="edge5_Node000001_Node000006" class="edge">
<title>Node1&#45;&gt;Node6</title>
<g id="a_edge5_Node000001_Node000006"><a xlink:title=" ">
<path fill="none" stroke="#63b8ff" d="M164.3,-101.94C174.4,-100.88 184.57,-99.81 194.31,-98.79"/>
<polygon fill="#63b8ff" stroke="#63b8ff" points="163.82,-98.47 154.24,-103 164.55,-105.43 163.82,-98.47"/>
</a>
</g>
</g>
<!-- Node3 -->
<g id="Node000003" class="node">
<title>Node3</title>
<g id="a_Node000003"><a xlink:href="class_j_k_q_t_p_x_y_line_error_graph.html" target="_top" xlink:title="This implements xy line plots with x and y error indicators.">
<polygon fill="white" stroke="#666666" points="541.5,-243.5 382.5,-243.5 382.5,-222.5 541.5,-222.5 541.5,-243.5"/>
<text text-anchor="middle" x="462" y="-229.9" font-family="Helvetica,sans-Serif" font-size="12.00">JKQTPXYLineErrorGraph</text>
</a>
</g>
</g>
<!-- Node2&#45;&gt;Node3 -->
<g id="edge2_Node000002_Node000003" class="edge">
<title>Node2&#45;&gt;Node3</title>
<g id="a_edge2_Node000002_Node000003"><a xlink:title=" ">
<path fill="none" stroke="#63b8ff" d="M283.48,-166.53C304,-180.85 335.66,-201.09 366,-213 375.65,-216.79 386.14,-219.91 396.52,-222.47"/>
<polygon fill="#63b8ff" stroke="#63b8ff" points="285.33,-163.55 275.15,-160.61 281.27,-169.25 285.33,-163.55"/>
</a>
</g>
</g>
<!-- Node4 -->
<g id="Node000004" class="node">
<title>Node4</title>
<g id="a_Node000004"><a xlink:href="class_j_k_q_t_p_x_y_parametrized_error_scatter_graph.html" target="_top" xlink:title="This implements xy scatter plots (like JKQTPXYScatterGraph), but the color and size of the symbols ma...">
<polygon fill="white" stroke="#666666" points="551,-204 373,-204 373,-170 551,-170 551,-204"/>
<text text-anchor="start" x="381" y="-190.4" font-family="Helvetica,sans-Serif" font-size="12.00">JKQTPXYParametrizedError</text>
<text text-anchor="middle" x="462" y="-177.4" font-family="Helvetica,sans-Serif" font-size="12.00">ScatterGraph</text>
</a>
</g>
</g>
<!-- Node2&#45;&gt;Node4 -->
<g id="edge3_Node000002_Node000004" class="edge">
<title>Node2&#45;&gt;Node4</title>
<g id="a_edge3_Node000002_Node000004"><a xlink:title=" ">
<path fill="none" stroke="#63b8ff" d="M328.01,-162.4C342.34,-165.05 357.69,-167.89 372.68,-170.66"/>
<polygon fill="#63b8ff" stroke="#63b8ff" points="328.25,-158.88 317.78,-160.5 326.97,-165.76 328.25,-158.88"/>
</a>
</g>
</g>
<!-- Node5 -->
<g id="Node000005" class="node">
<title>Node5</title>
<g id="a_Node000005"><a xlink:href="class_j_k_q_t_p_x_y_scatter_error_graph.html" target="_top" xlink:title="This implements xy scatter plots with x and y error indicators.">
<polygon fill="white" stroke="#666666" points="551,-151.5 373,-151.5 373,-130.5 551,-130.5 551,-151.5"/>
<text text-anchor="middle" x="462" y="-137.9" font-family="Helvetica,sans-Serif" font-size="12.00">JKQTPXYScatterErrorGraph</text>
</a>
</g>
</g>
<!-- Node2&#45;&gt;Node5 -->
<g id="edge4_Node000002_Node000005" class="edge">
<title>Node2&#45;&gt;Node5</title>
<g id="a_edge4_Node000002_Node000005"><a xlink:title=" ">
<path fill="none" stroke="#63b8ff" d="M340.25,-146.43C350.96,-145.95 361.99,-145.46 372.84,-144.97"/>
<polygon fill="#63b8ff" stroke="#63b8ff" points="339.94,-142.94 330.11,-146.89 340.26,-149.94 339.94,-142.94"/>
</a>
</g>
</g>
<!-- Node7 -->
<g id="Node000007" class="node">
<title>Node7</title>
<g id="a_Node000007"><a xlink:href="class_j_k_q_t_p_bar_vertical_error_graph.html" target="_top" xlink:title="This implements a vertical bar graph with bars between &#160;and &#160;and error indicator.">
<polygon fill="white" stroke="#666666" points="554.5,-112.5 369.5,-112.5 369.5,-91.5 554.5,-91.5 554.5,-112.5"/>
<text text-anchor="middle" x="462" y="-98.9" font-family="Helvetica,sans-Serif" font-size="12.00">JKQTPBarVerticalErrorGraph</text>
</a>
</g>
</g>
<!-- Node6&#45;&gt;Node7 -->
<g id="edge6_Node000006_Node000007" class="edge">
<title>Node6&#45;&gt;Node7</title>
<g id="a_edge6_Node000006_Node000007"><a xlink:title=" ">
<path fill="none" stroke="#63b8ff" d="M335.94,-95.75C346.82,-96.29 358.12,-96.86 369.29,-97.41"/>
<polygon fill="#63b8ff" stroke="#63b8ff" points="335.82,-92.24 325.66,-95.23 335.47,-99.23 335.82,-92.24"/>
</a>
</g>
</g>
<!-- Node8 -->
<g id="Node000008" class="node">
<title>Node8</title>
<g id="a_Node000008"><a xlink:href="class_j_k_q_t_p_filled_curve_x_error_graph.html" target="_top" xlink:title="This implements filled curve plots with y errors where the area is filled between the plot line and t...">
<polygon fill="white" stroke="#666666" points="558,-73.5 366,-73.5 366,-52.5 558,-52.5 558,-73.5"/>
<text text-anchor="middle" x="462" y="-59.9" font-family="Helvetica,sans-Serif" font-size="12.00">JKQTPFilledCurveXErrorGraph</text>
</a>
</g>
</g>
<!-- Node6&#45;&gt;Node8 -->
<g id="edge7_Node000006_Node000008" class="edge">
<title>Node6&#45;&gt;Node8</title>
<g id="a_edge7_Node000006_Node000008"><a xlink:title=" ">
<path fill="none" stroke="#63b8ff" d="M335.65,-81.18C352.85,-78.68 371.12,-76.03 388.24,-73.55"/>
<polygon fill="#63b8ff" stroke="#63b8ff" points="335.05,-77.73 325.66,-82.62 336.06,-84.65 335.05,-77.73"/>
</a>
</g>
</g>
<!-- Node9 -->
<g id="Node000009" class="node">
<title>Node9</title>
<g id="a_Node000009"><a xlink:href="class_j_k_q_t_p_impulses_vertical_error_graph.html" target="_top" xlink:title="This implements an impulse plot with impulses in direction of the X axis (i.e. from x=0 to x=f(y) )">
<polygon fill="white" stroke="#666666" points="552,-34 372,-34 372,0 552,0 552,-34"/>
<text text-anchor="start" x="380" y="-20.4" font-family="Helvetica,sans-Serif" font-size="12.00">JKQTPImpulsesVerticalError</text>
<text text-anchor="middle" x="462" y="-7.4" font-family="Helvetica,sans-Serif" font-size="12.00">Graph</text>
</a>
</g>
</g>
<!-- Node6&#45;&gt;Node9 -->
<g id="edge8_Node000006_Node000009" class="edge">
<title>Node6&#45;&gt;Node9</title>
<g id="a_edge8_Node000006_Node000009"><a xlink:title=" ">
<path fill="none" stroke="#63b8ff" d="M290.76,-76.93C311.51,-66.78 340.02,-53.57 366,-44 375.57,-40.47 385.83,-37.13 395.93,-34.07"/>
<polygon fill="#63b8ff" stroke="#63b8ff" points="288.94,-73.92 281.53,-81.49 292.04,-80.2 288.94,-73.92"/>
</a>
</g>
</g>
</g>
</svg>

<g id="navigator" transform="translate(0 0)" fill="#404254">
  <rect fill="#f2f5e9" fill-opacity="0.5" stroke="#606060" stroke-width=".5" x="0" y="0" width="60" height="60"/>
  <use id="zoomplus" xlink:href="#zoomPlus" x="17" y="9" onmousedown="handleZoom(evt,'in')"/>
  <use id="zoomminus" xlink:href="#zoomMin" x="42" y="9" onmousedown="handleZoom(evt,'out')"/>
  <use id="reset" xlink:href="#resetDef" x="30" y="36" onmousedown="handleReset()"/>
   <use id="arrowup" xlink:href="#arrowUp" x="0" y="0" onmousedown="handlePan(0,-1)"/>
  <use id="arrowright" xlink:href="#arrowRight" x="0" y="0" onmousedown="handlePan(1,0)"/>
  <use id="arrowdown" xlink:href="#arrowDown" x="0" y="0" onmousedown="handlePan(0,1)"/>
  <use id="arrowleft" xlink:href="#arrowLeft" x="0" y="0" onmousedown="handlePan(-1,0)"/>
</g>
<svg viewBox="0 0 15 15" width="100%" height="30px" preserveAspectRatio="xMaxYMin meet">
 <g id="arrow_out" transform="scale(0.3 0.3)">
  <a xlink:href="class_j_k_q_t_p_y_graph_error_data__inherit__graph_org.svg" target="_base">
   <rect id="button" ry="5" rx="5" y="6" x="6" height="38" width="38"
        fill="#f2f5e9" fill-opacity="0.5" stroke="#606060" stroke-width="1.0"/>
   <path id="arrow"
     d="M 11.500037,31.436501 C 11.940474,20.09759 22.043105,11.32322 32.158766,21.979434 L 37.068811,17.246167 C 37.068811,17.246167 37.088388,32 37.088388,32 L 22.160133,31.978069 C 22.160133,31.978069 26.997745,27.140456 26.997745,27.140456 C 18.528582,18.264221 13.291696,25.230495 11.500037,31.436501 z"
     style="fill:#404040;"/>
  </a>
 </g>
</svg>

<style type='text/css'>
<![CDATA[
[data-mouse-over-selected='false'] { opacity: 0.7; }
[data-mouse-over-selected='true']  { opacity: 1.0; }
]]>
</style>
<script type="application/ecmascript"><![CDATA[
document.addEventListener('DOMContentLoaded', (event) => {
  highlightEdges();
  highlightAdjacentNodes();
});
]]></script>
</svg>
