<?xml version="1.0" encoding="UTF-8" standalone="no"?>
<!DOCTYPE svg PUBLIC "-//W3C//DTD SVG 1.1//EN"
 "http://www.w3.org/Graphics/SVG/1.1/DTD/svg11.dtd">
<!-- Generated by graphviz version 2.43.0 (0)
 -->
<!-- Title: JKQTPImageBase Pages: 1 -->
<svg width="1417pt" height="146pt"
 viewBox="0.00 0.00 1417.00 146.00" xmlns="http://www.w3.org/2000/svg" xmlns:xlink="http://www.w3.org/1999/xlink">
<g id="graph0" class="graph" transform="scale(1 1) rotate(0) translate(4 142)">
<title>JKQTPImageBase</title>
<!-- Node1 -->
<g id="Node000001" class="node">
<title>Node1</title>
<g id="a_Node000001"><a xlink:title="base class for plotting an image">
<polygon fill="#999999" stroke="#666666" points="507,-60 387,-60 387,-39 507,-39 507,-60"/>
<text text-anchor="middle" x="447" y="-46.4" font-family="Helvetica,sans-Serif" font-size="12.00">JKQTPImageBase</text>
</a>
</g>
</g>
<!-- Node5 -->
<g id="Node000005" class="node">
<title>Node5</title>
<g id="a_Node000005"><a xlink:href="class_j_k_q_t_p_image.html" target="_top" xlink:title="class to plot an image from a QImage object">
<polygon fill="white" stroke="#666666" points="663.5,-99 572.5,-99 572.5,-78 663.5,-78 663.5,-99"/>
<text text-anchor="middle" x="618" y="-85.4" font-family="Helvetica,sans-Serif" font-size="12.00">JKQTPImage</text>
</a>
</g>
</g>
<!-- Node1&#45;&gt;Node5 -->
<g id="edge4_Node000001_Node000005" class="edge">
<title>Node1&#45;&gt;Node5</title>
<g id="a_edge4_Node000001_Node000005"><a xlink:title=" ">
<path fill="none" stroke="#63b8ff" d="M503.74,-62.36C526.03,-67.51 551.36,-73.35 572.4,-78.21"/>
<polygon fill="#63b8ff" stroke="#63b8ff" points="504.26,-58.89 493.73,-60.05 502.69,-65.71 504.26,-58.89"/>
</a>
</g>
</g>
<!-- Node6 -->
<g id="Node000006" class="node">
<title>Node6</title>
<g id="a_Node000006"><a xlink:href="class_j_k_q_t_p_math_image_base.html" target="_top" xlink:title="base class to hold an image from an 2&#45;dimensional array of values">
<polygon fill="white" stroke="#666666" points="693,-60 543,-60 543,-39 693,-39 693,-60"/>
<text text-anchor="middle" x="618" y="-46.4" font-family="Helvetica,sans-Serif" font-size="12.00">JKQTPMathImageBase</text>
</a>
</g>
</g>
<!-- Node1&#45;&gt;Node6 -->
<g id="edge5_Node000001_Node000006" class="edge">
<title>Node1&#45;&gt;Node6</title>
<g id="a_edge5_Node000001_Node000006"><a xlink:title=" ">
<path fill="none" stroke="#63b8ff" d="M517.25,-49.5C525.66,-49.5 534.29,-49.5 542.77,-49.5"/>
<polygon fill="#63b8ff" stroke="#63b8ff" points="517.11,-46 507.11,-49.5 517.11,-53 517.11,-46"/>
</a>
</g>
</g>
<!-- Node13 -->
<g id="Node000013" class="node">
<title>Node13</title>
<g id="a_Node000013"><a xlink:href="class_j_k_q_t_p_overlay_image.html" target="_top" xlink:title="class to plot an image from an 2&#45;dimensional array of boolean values: alle true values are plotted in...">
<polygon fill="white" stroke="#666666" points="686.5,-21 549.5,-21 549.5,0 686.5,0 686.5,-21"/>
<text text-anchor="middle" x="618" y="-7.4" font-family="Helvetica,sans-Serif" font-size="12.00">JKQTPOverlayImage</text>
</a>
</g>
</g>
<!-- Node1&#45;&gt;Node13 -->
<g id="edge12_Node000001_Node000013" class="edge">
<title>Node1&#45;&gt;Node13</title>
<g id="a_edge12_Node000001_Node000013"><a xlink:title=" ">
<path fill="none" stroke="#63b8ff" d="M503.57,-36.68C525.5,-31.62 550.37,-25.88 571.23,-21.06"/>
<polygon fill="#63b8ff" stroke="#63b8ff" points="502.69,-33.29 493.73,-38.95 504.26,-40.11 502.69,-33.29"/>
</a>
</g>
</g>
<!-- Node2 -->
<g id="Node000002" class="node">
<title>Node2</title>
<g id="a_Node000002"><a xlink:href="class_j_k_q_t_p_graph.html" target="_top" xlink:title="this virtual base class of the (data&#45;column based) graphs, which are part of a JKQTPlotter plot and w...">
<polygon fill="white" stroke="#666666" points="351,-60 262,-60 262,-39 351,-39 351,-60"/>
<text text-anchor="middle" x="306.5" y="-46.4" font-family="Helvetica,sans-Serif" font-size="12.00">JKQTPGraph</text>
</a>
</g>
</g>
<!-- Node2&#45;&gt;Node1 -->
<g id="edge1_Node000001_Node000002" class="edge">
<title>Node2&#45;&gt;Node1</title>
<g id="a_edge1_Node000001_Node000002"><a xlink:title=" ">
<path fill="none" stroke="#63b8ff" d="M361.58,-49.5C369.84,-49.5 378.4,-49.5 386.76,-49.5"/>
<polygon fill="#63b8ff" stroke="#63b8ff" points="361.32,-46 351.32,-49.5 361.32,-53 361.32,-46"/>
</a>
</g>
</g>
<!-- Node3 -->
<g id="Node000003" class="node">
<title>Node3</title>
<g id="a_Node000003"><a xlink:href="class_j_k_q_t_p_plot_element.html" target="_top" xlink:title="this virtual base class of every element, which is part of a JKQTPlotter plot and may appear in its k...">
<polygon fill="white" stroke="#666666" points="226,-60 101,-60 101,-39 226,-39 226,-60"/>
<text text-anchor="middle" x="163.5" y="-46.4" font-family="Helvetica,sans-Serif" font-size="12.00">JKQTPPlotElement</text>
</a>
</g>
</g>
<!-- Node3&#45;&gt;Node2 -->
<g id="edge2_Node000002_Node000003" class="edge">
<title>Node3&#45;&gt;Node2</title>
<g id="a_edge2_Node000002_Node000003"><a xlink:title=" ">
<path fill="none" stroke="#63b8ff" d="M236.51,-49.5C245.18,-49.5 253.82,-49.5 261.91,-49.5"/>
<polygon fill="#63b8ff" stroke="#63b8ff" points="236.34,-46 226.34,-49.5 236.34,-53 236.34,-46"/>
</a>
</g>
</g>
<!-- Node4 -->
<g id="Node000004" class="node">
<title>Node4</title>
<g id="a_Node000004"><a xlink:title=" ">
<polygon fill="white" stroke="#666666" points="65,-60 0,-60 0,-39 65,-39 65,-60"/>
<text text-anchor="middle" x="32.5" y="-46.4" font-family="Helvetica,sans-Serif" font-size="12.00">QObject</text>
</a>
</g>
</g>
<!-- Node4&#45;&gt;Node3 -->
<g id="edge3_Node000003_Node000004" class="edge">
<title>Node4&#45;&gt;Node3</title>
<g id="a_edge3_Node000003_Node000004"><a xlink:title=" ">
<path fill="none" stroke="#63b8ff" d="M75.09,-49.5C83.29,-49.5 92.05,-49.5 100.75,-49.5"/>
<polygon fill="#63b8ff" stroke="#63b8ff" points="75.06,-46 65.06,-49.5 75.06,-53 75.06,-46"/>
</a>
</g>
</g>
<!-- Node7 -->
<g id="Node000007" class="node">
<title>Node7</title>
<g id="a_Node000007"><a xlink:href="class_j_k_q_t_p_math_image.html" target="_top" xlink:title="class to plot an image from an 2&#45;dimensional array of values">
<polygon fill="white" stroke="#666666" points="888,-99 767,-99 767,-78 888,-78 888,-99"/>
<text text-anchor="middle" x="827.5" y="-85.4" font-family="Helvetica,sans-Serif" font-size="12.00">JKQTPMathImage</text>
</a>
</g>
</g>
<!-- Node6&#45;&gt;Node7 -->
<g id="edge6_Node000006_Node000007" class="edge">
<title>Node6&#45;&gt;Node7</title>
<g id="a_edge6_Node000006_Node000007"><a xlink:title=" ">
<path fill="none" stroke="#63b8ff" d="M684.83,-61.87C712.4,-67.05 744.1,-73.01 770.52,-77.98"/>
<polygon fill="#63b8ff" stroke="#63b8ff" points="685.35,-58.41 674.88,-60 684.06,-65.29 685.35,-58.41"/>
</a>
</g>
</g>
<!-- Node11 -->
<g id="Node000011" class="node">
<title>Node11</title>
<g id="a_Node000011"><a xlink:href="class_j_k_q_t_p_r_g_b_math_image.html" target="_top" xlink:title="class to plot an image from an 2&#45;dimensional array of RGB values">
<polygon fill="white" stroke="#666666" points="900.5,-60 754.5,-60 754.5,-39 900.5,-39 900.5,-60"/>
<text text-anchor="middle" x="827.5" y="-46.4" font-family="Helvetica,sans-Serif" font-size="12.00">JKQTPRGBMathImage</text>
</a>
</g>
</g>
<!-- Node6&#45;&gt;Node11 -->
<g id="edge10_Node000006_Node000011" class="edge">
<title>Node6&#45;&gt;Node11</title>
<g id="a_edge10_Node000006_Node000011"><a xlink:title=" ">
<path fill="none" stroke="#63b8ff" d="M703.42,-49.5C720.28,-49.5 737.84,-49.5 754.24,-49.5"/>
<polygon fill="#63b8ff" stroke="#63b8ff" points="703.03,-46 693.03,-49.5 703.03,-53 703.03,-46"/>
</a>
</g>
</g>
<!-- Node8 -->
<g id="Node000008" class="node">
<title>Node8</title>
<g id="a_Node000008"><a xlink:href="class_j_k_q_t_p_column_math_image.html" target="_top" xlink:title="class to plot an image from an 2&#45;dimensional array of values stored in a column of the datastore">
<polygon fill="white" stroke="#666666" points="1166.5,-138 999.5,-138 999.5,-117 1166.5,-117 1166.5,-138"/>
<text text-anchor="middle" x="1083" y="-124.4" font-family="Helvetica,sans-Serif" font-size="12.00">JKQTPColumnMathImage</text>
</a>
</g>
</g>
<!-- Node7&#45;&gt;Node8 -->
<g id="edge7_Node000007_Node000008" class="edge">
<title>Node7&#45;&gt;Node8</title>
<g id="a_edge7_Node000007_Node000008"><a xlink:title=" ">
<path fill="none" stroke="#63b8ff" d="M898.19,-99.22C934.17,-104.76 977.91,-111.49 1013.69,-116.99"/>
<polygon fill="#63b8ff" stroke="#63b8ff" points="898.67,-95.75 888.25,-97.69 897.61,-102.67 898.67,-95.75"/>
</a>
</g>
</g>
<!-- Node9 -->
<g id="Node000009" class="node">
<title>Node9</title>
<g id="a_Node000009"><a xlink:href="class_j_k_q_t_p_contour_plot.html" target="_top" xlink:title="class for a contour plot">
<polygon fill="white" stroke="#666666" points="1144.5,-99 1021.5,-99 1021.5,-78 1144.5,-78 1144.5,-99"/>
<text text-anchor="middle" x="1083" y="-85.4" font-family="Helvetica,sans-Serif" font-size="12.00">JKQTPContourPlot</text>
</a>
</g>
</g>
<!-- Node7&#45;&gt;Node9 -->
<g id="edge8_Node000007_Node000009" class="edge">
<title>Node7&#45;&gt;Node9</title>
<g id="a_edge8_Node000007_Node000009"><a xlink:title=" ">
<path fill="none" stroke="#63b8ff" d="M898.36,-88.5C936.92,-88.5 984.34,-88.5 1021.33,-88.5"/>
<polygon fill="#63b8ff" stroke="#63b8ff" points="898.25,-85 888.25,-88.5 898.25,-92 898.25,-85"/>
</a>
</g>
</g>
<!-- Node10 -->
<g id="Node000010" class="node">
<title>Node10</title>
<g id="a_Node000010"><a xlink:href="class_j_k_q_t_p_column_contour_plot.html" target="_top" xlink:title="class for a contour plots (same as JKQTPContourPlot) of images stored in a JKQTPDatastore column">
<polygon fill="white" stroke="#666666" points="1409,-99 1240,-99 1240,-78 1409,-78 1409,-99"/>
<text text-anchor="middle" x="1324.5" y="-85.4" font-family="Helvetica,sans-Serif" font-size="12.00">JKQTPColumnContourPlot</text>
</a>
</g>
</g>
<!-- Node9&#45;&gt;Node10 -->
<g id="edge9_Node000009_Node000010" class="edge">
<title>Node9&#45;&gt;Node10</title>
<g id="a_edge9_Node000009_Node000010"><a xlink:title=" ">
<path fill="none" stroke="#63b8ff" d="M1154.76,-88.5C1181.43,-88.5 1212.02,-88.5 1239.77,-88.5"/>
<polygon fill="#63b8ff" stroke="#63b8ff" points="1154.75,-85 1144.75,-88.5 1154.75,-92 1154.75,-85"/>
</a>
</g>
</g>
<!-- Node12 -->
<g id="Node000012" class="node">
<title>Node12</title>
<g id="a_Node000012"><a xlink:href="class_j_k_q_t_p_column_r_g_b_math_image.html" target="_top" xlink:title="like JKQTPRGBMathImage but reads images from columns of the datastore">
<polygon fill="white" stroke="#666666" points="1179,-60 987,-60 987,-39 1179,-39 1179,-60"/>
<text text-anchor="middle" x="1083" y="-46.4" font-family="Helvetica,sans-Serif" font-size="12.00">JKQTPColumnRGBMathImage</text>
</a>
</g>
</g>
<!-- Node11&#45;&gt;Node12 -->
<g id="edge11_Node000011_Node000012" class="edge">
<title>Node11&#45;&gt;Node12</title>
<g id="a_edge11_Node000011_Node000012"><a xlink:title=" ">
<path fill="none" stroke="#63b8ff" d="M911.02,-49.5C935.25,-49.5 961.93,-49.5 986.87,-49.5"/>
<polygon fill="#63b8ff" stroke="#63b8ff" points="910.8,-46 900.8,-49.5 910.8,-53 910.8,-46"/>
</a>
</g>
</g>
<!-- Node14 -->
<g id="Node000014" class="node">
<title>Node14</title>
<g id="a_Node000014"><a xlink:href="class_j_k_q_t_p_overlay_image_enhanced.html" target="_top" xlink:title="class to plot an image from an 2&#45;dimensional array of boolean values: alle true values are plotted in...">
<polygon fill="white" stroke="#666666" points="926,-21 729,-21 729,0 926,0 926,-21"/>
<text text-anchor="middle" x="827.5" y="-7.4" font-family="Helvetica,sans-Serif" font-size="12.00">JKQTPOverlayImageEnhanced</text>
</a>
</g>
</g>
<!-- Node13&#45;&gt;Node14 -->
<g id="edge13_Node000013_Node000014" class="edge">
<title>Node13&#45;&gt;Node14</title>
<g id="a_edge13_Node000013_Node000014"><a xlink:title=" ">
<path fill="none" stroke="#63b8ff" d="M696.93,-10.5C707.33,-10.5 718.11,-10.5 728.81,-10.5"/>
<polygon fill="#63b8ff" stroke="#63b8ff" points="696.66,-7 686.66,-10.5 696.66,-14 696.66,-7"/>
</a>
</g>
</g>
<!-- Node15 -->
<g id="Node000015" class="node">
<title>Node15</title>
<g id="a_Node000015"><a xlink:href="class_j_k_q_t_p_column_overlay_image_enhanced.html" target="_top" xlink:title="class to plot an image from an 2&#45;dimensional array of boolean values: alle true values are plotted in...">
<polygon fill="white" stroke="#666666" points="1204,-21 962,-21 962,0 1204,0 1204,-21"/>
<text text-anchor="middle" x="1083" y="-7.4" font-family="Helvetica,sans-Serif" font-size="12.00">JKQTPColumnOverlayImageEnhanced</text>
</a>
</g>
</g>
<!-- Node14&#45;&gt;Node15 -->
<g id="edge14_Node000014_Node000015" class="edge">
<title>Node14&#45;&gt;Node15</title>
<g id="a_edge14_Node000014_Node000015"><a xlink:title=" ">
<path fill="none" stroke="#63b8ff" d="M936.38,-10.5C944.83,-10.5 953.39,-10.5 961.92,-10.5"/>
<polygon fill="#63b8ff" stroke="#63b8ff" points="936.15,-7 926.15,-10.5 936.15,-14 936.15,-7"/>
</a>
</g>
</g>
</g>
</svg>
