<?xml version="1.0" encoding="UTF-8" standalone="no"?>
<!DOCTYPE svg PUBLIC "-//W3C//DTD SVG 1.1//EN"
 "http://www.w3.org/Graphics/SVG/1.1/DTD/svg11.dtd">
<!-- Generated by graphviz version 2.43.0 (0)
 -->
<!-- Title: JKQTPMathImageBase Pages: 1 -->
<svg width="527pt" height="428pt"
 viewBox="0.00 0.00 526.50 428.00" xmlns="http://www.w3.org/2000/svg" xmlns:xlink="http://www.w3.org/1999/xlink">
<g id="graph0" class="graph" transform="scale(1 1) rotate(0) translate(4 424)">
<title>JKQTPMathImageBase</title>
<!-- Node1 -->
<g id="Node000001" class="node">
<title>Node1</title>
<g id="a_Node000001"><a xlink:title="base class to hold an image from an 2&#45;dimensional array of values">
<polygon fill="#999999" stroke="#666666" points="397.5,-192 247.5,-192 247.5,-171 397.5,-171 397.5,-192"/>
<text text-anchor="middle" x="322.5" y="-178.4" font-family="Helvetica,sans-Serif" font-size="12.00">JKQTPMathImageBase</text>
</a>
</g>
</g>
<!-- Node6 -->
<g id="Node000006" class="node">
<title>Node6</title>
<g id="a_Node000006"><a xlink:href="class_j_k_q_t_p_math_image.html" target="_top" xlink:title="class to plot an image from an 2&#45;dimensional array of values">
<polygon fill="white" stroke="#666666" points="307,-135 186,-135 186,-114 307,-114 307,-135"/>
<text text-anchor="middle" x="246.5" y="-121.4" font-family="Helvetica,sans-Serif" font-size="12.00">JKQTPMathImage</text>
</a>
</g>
</g>
<!-- Node1&#45;&gt;Node6 -->
<g id="edge5_Node000001_Node000006" class="edge">
<title>Node1&#45;&gt;Node6</title>
<g id="a_edge5_Node000001_Node000006"><a xlink:title=" ">
<path fill="none" stroke="#63b8ff" d="M301.12,-165.03C287.87,-155.44 271.25,-143.41 259.84,-135.16"/>
<polygon fill="#63b8ff" stroke="#63b8ff" points="299.11,-167.89 309.26,-170.92 303.21,-162.22 299.11,-167.89"/>
</a>
</g>
</g>
<!-- Node10 -->
<g id="Node000010" class="node">
<title>Node10</title>
<g id="a_Node000010"><a xlink:href="class_j_k_q_t_p_r_g_b_math_image.html" target="_top" xlink:title="class to plot an image from an 2&#45;dimensional array of RGB values">
<polygon fill="white" stroke="#666666" points="483.5,-135 337.5,-135 337.5,-114 483.5,-114 483.5,-135"/>
<text text-anchor="middle" x="410.5" y="-121.4" font-family="Helvetica,sans-Serif" font-size="12.00">JKQTPRGBMathImage</text>
</a>
</g>
</g>
<!-- Node1&#45;&gt;Node10 -->
<g id="edge9_Node000001_Node000010" class="edge">
<title>Node1&#45;&gt;Node10</title>
<g id="a_edge9_Node000001_Node000010"><a xlink:title=" ">
<path fill="none" stroke="#63b8ff" d="M346.38,-165.58C361.87,-155.9 381.6,-143.57 395.05,-135.16"/>
<polygon fill="#63b8ff" stroke="#63b8ff" points="344.45,-162.65 337.83,-170.92 348.16,-168.59 344.45,-162.65"/>
</a>
</g>
</g>
<!-- Node2 -->
<g id="Node000002" class="node">
<title>Node2</title>
<g id="a_Node000002"><a xlink:href="class_j_k_q_t_p_image_base.html" target="_top" xlink:title="base class for plotting an image">
<polygon fill="white" stroke="#666666" points="382.5,-249 262.5,-249 262.5,-228 382.5,-228 382.5,-249"/>
<text text-anchor="middle" x="322.5" y="-235.4" font-family="Helvetica,sans-Serif" font-size="12.00">JKQTPImageBase</text>
</a>
</g>
</g>
<!-- Node2&#45;&gt;Node1 -->
<g id="edge1_Node000001_Node000002" class="edge">
<title>Node2&#45;&gt;Node1</title>
<g id="a_edge1_Node000001_Node000002"><a xlink:title=" ">
<path fill="none" stroke="#63b8ff" d="M322.5,-217.86C322.5,-209.2 322.5,-199.42 322.5,-192.34"/>
<polygon fill="#63b8ff" stroke="#63b8ff" points="319,-217.92 322.5,-227.92 326,-217.92 319,-217.92"/>
</a>
</g>
</g>
<!-- Node3 -->
<g id="Node000003" class="node">
<title>Node3</title>
<g id="a_Node000003"><a xlink:href="class_j_k_q_t_p_graph.html" target="_top" xlink:title="this virtual base class of the (data&#45;column based) graphs, which are part of a JKQTPlotter plot and w...">
<polygon fill="white" stroke="#666666" points="367,-306 278,-306 278,-285 367,-285 367,-306"/>
<text text-anchor="middle" x="322.5" y="-292.4" font-family="Helvetica,sans-Serif" font-size="12.00">JKQTPGraph</text>
</a>
</g>
</g>
<!-- Node3&#45;&gt;Node2 -->
<g id="edge2_Node000002_Node000003" class="edge">
<title>Node3&#45;&gt;Node2</title>
<g id="a_edge2_Node000002_Node000003"><a xlink:title=" ">
<path fill="none" stroke="#63b8ff" d="M322.5,-274.86C322.5,-266.2 322.5,-256.42 322.5,-249.34"/>
<polygon fill="#63b8ff" stroke="#63b8ff" points="319,-274.92 322.5,-284.92 326,-274.92 319,-274.92"/>
</a>
</g>
</g>
<!-- Node4 -->
<g id="Node000004" class="node">
<title>Node4</title>
<g id="a_Node000004"><a xlink:href="class_j_k_q_t_p_plot_element.html" target="_top" xlink:title="this virtual base class of every element, which is part of a JKQTPlotter plot and may appear in its k...">
<polygon fill="white" stroke="#666666" points="385,-363 260,-363 260,-342 385,-342 385,-363"/>
<text text-anchor="middle" x="322.5" y="-349.4" font-family="Helvetica,sans-Serif" font-size="12.00">JKQTPPlotElement</text>
</a>
</g>
</g>
<!-- Node4&#45;&gt;Node3 -->
<g id="edge3_Node000003_Node000004" class="edge">
<title>Node4&#45;&gt;Node3</title>
<g id="a_edge3_Node000003_Node000004"><a xlink:title=" ">
<path fill="none" stroke="#63b8ff" d="M322.5,-331.86C322.5,-323.2 322.5,-313.42 322.5,-306.34"/>
<polygon fill="#63b8ff" stroke="#63b8ff" points="319,-331.92 322.5,-341.92 326,-331.92 319,-331.92"/>
</a>
</g>
</g>
<!-- Node5 -->
<g id="Node000005" class="node">
<title>Node5</title>
<g id="a_Node000005"><a xlink:title=" ">
<polygon fill="white" stroke="#666666" points="355,-420 290,-420 290,-399 355,-399 355,-420"/>
<text text-anchor="middle" x="322.5" y="-406.4" font-family="Helvetica,sans-Serif" font-size="12.00">QObject</text>
</a>
</g>
</g>
<!-- Node5&#45;&gt;Node4 -->
<g id="edge4_Node000004_Node000005" class="edge">
<title>Node5&#45;&gt;Node4</title>
<g id="a_edge4_Node000004_Node000005"><a xlink:title=" ">
<path fill="none" stroke="#63b8ff" d="M322.5,-388.86C322.5,-380.2 322.5,-370.42 322.5,-363.34"/>
<polygon fill="#63b8ff" stroke="#63b8ff" points="319,-388.92 322.5,-398.92 326,-388.92 319,-388.92"/>
</a>
</g>
</g>
<!-- Node7 -->
<g id="Node000007" class="node">
<title>Node7</title>
<g id="a_Node000007"><a xlink:href="class_j_k_q_t_p_column_math_image.html" target="_top" xlink:title="class to plot an image from an 2&#45;dimensional array of values stored in a column of the datastore">
<polygon fill="white" stroke="#666666" points="167,-78 0,-78 0,-57 167,-57 167,-78"/>
<text text-anchor="middle" x="83.5" y="-64.4" font-family="Helvetica,sans-Serif" font-size="12.00">JKQTPColumnMathImage</text>
</a>
</g>
</g>
<!-- Node6&#45;&gt;Node7 -->
<g id="edge6_Node000006_Node000007" class="edge">
<title>Node6&#45;&gt;Node7</title>
<g id="a_edge6_Node000006_Node000007"><a xlink:title=" ">
<path fill="none" stroke="#63b8ff" d="M208.53,-110.69C178.98,-100.72 138.62,-87.1 111.84,-78.06"/>
<polygon fill="#63b8ff" stroke="#63b8ff" points="207.51,-114.04 218.11,-113.92 209.75,-107.41 207.51,-114.04"/>
</a>
</g>
</g>
<!-- Node8 -->
<g id="Node000008" class="node">
<title>Node8</title>
<g id="a_Node000008"><a xlink:href="class_j_k_q_t_p_contour_plot.html" target="_top" xlink:title="class for a contour plot">
<polygon fill="white" stroke="#666666" points="308,-78 185,-78 185,-57 308,-57 308,-78"/>
<text text-anchor="middle" x="246.5" y="-64.4" font-family="Helvetica,sans-Serif" font-size="12.00">JKQTPContourPlot</text>
</a>
</g>
</g>
<!-- Node6&#45;&gt;Node8 -->
<g id="edge7_Node000006_Node000008" class="edge">
<title>Node6&#45;&gt;Node8</title>
<g id="a_edge7_Node000006_Node000008"><a xlink:title=" ">
<path fill="none" stroke="#63b8ff" d="M246.5,-103.86C246.5,-95.2 246.5,-85.42 246.5,-78.34"/>
<polygon fill="#63b8ff" stroke="#63b8ff" points="243,-103.92 246.5,-113.92 250,-103.92 243,-103.92"/>
</a>
</g>
</g>
<!-- Node9 -->
<g id="Node000009" class="node">
<title>Node9</title>
<g id="a_Node000009"><a xlink:href="class_j_k_q_t_p_column_contour_plot.html" target="_top" xlink:title="class for a contour plots (same as JKQTPContourPlot) of images stored in a JKQTPDatastore column">
<polygon fill="white" stroke="#666666" points="331,-21 162,-21 162,0 331,0 331,-21"/>
<text text-anchor="middle" x="246.5" y="-7.4" font-family="Helvetica,sans-Serif" font-size="12.00">JKQTPColumnContourPlot</text>
</a>
</g>
</g>
<!-- Node8&#45;&gt;Node9 -->
<g id="edge8_Node000008_Node000009" class="edge">
<title>Node8&#45;&gt;Node9</title>
<g id="a_edge8_Node000008_Node000009"><a xlink:title=" ">
<path fill="none" stroke="#63b8ff" d="M246.5,-46.86C246.5,-38.2 246.5,-28.42 246.5,-21.34"/>
<polygon fill="#63b8ff" stroke="#63b8ff" points="243,-46.92 246.5,-56.92 250,-46.92 243,-46.92"/>
</a>
</g>
</g>
<!-- Node11 -->
<g id="Node000011" class="node">
<title>Node11</title>
<g id="a_Node000011"><a xlink:href="class_j_k_q_t_p_column_r_g_b_math_image.html" target="_top" xlink:title="like JKQTPRGBMathImage but reads images from columns of the datastore">
<polygon fill="white" stroke="#666666" points="518.5,-78 326.5,-78 326.5,-57 518.5,-57 518.5,-78"/>
<text text-anchor="middle" x="422.5" y="-64.4" font-family="Helvetica,sans-Serif" font-size="12.00">JKQTPColumnRGBMathImage</text>
</a>
</g>
</g>
<!-- Node10&#45;&gt;Node11 -->
<g id="edge10_Node000010_Node000011" class="edge">
<title>Node10&#45;&gt;Node11</title>
<g id="a_edge10_Node000010_Node000011"><a xlink:title=" ">
<path fill="none" stroke="#63b8ff" d="M414.72,-104.14C416.63,-95.42 418.79,-85.5 420.35,-78.34"/>
<polygon fill="#63b8ff" stroke="#63b8ff" points="411.3,-103.4 412.59,-113.92 418.14,-104.9 411.3,-103.4"/>
</a>
</g>
</g>
</g>
</svg>
