<?xml version="1.0" encoding="UTF-8" standalone="no"?>
<!DOCTYPE svg PUBLIC "-//W3C//DTD SVG 1.1//EN"
 "http://www.w3.org/Graphics/SVG/1.1/DTD/svg11.dtd">
<!-- Generated by graphviz version 2.43.0 (0)
 -->
<!-- Title: JKQTPGraphValueLabelStyleMixin Pages: 1 -->
<svg width="556pt" height="156pt"
 viewBox="0.00 0.00 555.50 156.00" xmlns="http://www.w3.org/2000/svg" xmlns:xlink="http://www.w3.org/1999/xlink">
<g id="graph0" class="graph" transform="scale(1 1) rotate(0) translate(4 152)">
<title>JKQTPGraphValueLabelStyleMixin</title>
<!-- Node1 -->
<g id="Node000001" class="node">
<title>Node1</title>
<g id="a_Node000001"><a xlink:title="This Mix&#45;In class provides setter/getter methods, storage and other facilities for value labels in gr...">
<polygon fill="#999999" stroke="#666666" points="370.5,-91 186.5,-91 186.5,-57 370.5,-57 370.5,-91"/>
<text text-anchor="start" x="194.5" y="-77.4" font-family="Helvetica,sans-Serif" font-size="12.00">JKQTPGraphValueLabelStyle</text>
<text text-anchor="middle" x="278.5" y="-64.4" font-family="Helvetica,sans-Serif" font-size="12.00">Mixin</text>
</a>
</g>
</g>
<!-- Node5 -->
<g id="Node000005" class="node">
<title>Node5</title>
<g id="a_Node000005"><a xlink:href="class_j_k_q_t_p_x_y_graph_labels.html" target="_top" xlink:title="This graph plots a series of data labels. This can be used to add number&#45;labels to e....">
<polygon fill="white" stroke="#666666" points="350,-21 207,-21 207,0 350,0 350,-21"/>
<text text-anchor="middle" x="278.5" y="-7.4" font-family="Helvetica,sans-Serif" font-size="12.00">JKQTPXYGraphLabels</text>
</a>
</g>
</g>
<!-- Node1&#45;&gt;Node5 -->
<g id="edge4_Node000001_Node000005" class="edge">
<title>Node1&#45;&gt;Node5</title>
<g id="a_edge4_Node000001_Node000005"><a xlink:title=" ">
<path fill="none" stroke="#63b8ff" d="M278.5,-46.6C278.5,-37.51 278.5,-27.9 278.5,-21.04"/>
<polygon fill="#63b8ff" stroke="#63b8ff" points="275,-46.84 278.5,-56.84 282,-46.84 275,-46.84"/>
</a>
</g>
</g>
<!-- Node2 -->
<g id="Node000002" class="node">
<title>Node2</title>
<g id="a_Node000002"><a xlink:href="class_j_k_q_t_p_graph_text_style_mixin.html" target="_top" xlink:title="This Mix&#45;In class provides setter/getter methods, storage and other facilities for text in graphs.">
<polygon fill="white" stroke="#666666" points="173,-148 0,-148 0,-127 173,-127 173,-148"/>
<text text-anchor="middle" x="86.5" y="-134.4" font-family="Helvetica,sans-Serif" font-size="12.00">JKQTPGraphTextStyleMixin</text>
</a>
</g>
</g>
<!-- Node2&#45;&gt;Node1 -->
<g id="edge1_Node000001_Node000002" class="edge">
<title>Node2&#45;&gt;Node1</title>
<g id="a_edge1_Node000001_Node000002"><a xlink:title=" ">
<path fill="none" stroke="#63b8ff" d="M126.08,-123.82C155.65,-114.35 196.3,-101.33 228.18,-91.12"/>
<polygon fill="#63b8ff" stroke="#63b8ff" points="124.96,-120.51 116.5,-126.89 127.09,-127.17 124.96,-120.51"/>
</a>
</g>
</g>
<!-- Node3 -->
<g id="Node000003" class="node">
<title>Node3</title>
<g id="a_Node000003"><a xlink:href="class_j_k_q_t_p_graph_line_style_mixin.html" target="_top" xlink:title="This Mix&#45;In class provides setter/getter methods, storage and other facilities for the graph line sty...">
<polygon fill="white" stroke="#666666" points="365.5,-148 191.5,-148 191.5,-127 365.5,-127 365.5,-148"/>
<text text-anchor="middle" x="278.5" y="-134.4" font-family="Helvetica,sans-Serif" font-size="12.00">JKQTPGraphLineStyleMixin</text>
</a>
</g>
</g>
<!-- Node3&#45;&gt;Node1 -->
<g id="edge2_Node000001_Node000003" class="edge">
<title>Node3&#45;&gt;Node1</title>
<g id="a_edge2_Node000001_Node000003"><a xlink:title=" ">
<path fill="none" stroke="#63b8ff" d="M278.5,-116.77C278.5,-108.61 278.5,-99.26 278.5,-91.48"/>
<polygon fill="#63b8ff" stroke="#63b8ff" points="275,-116.89 278.5,-126.89 282,-116.89 275,-116.89"/>
</a>
</g>
</g>
<!-- Node4 -->
<g id="Node000004" class="node">
<title>Node4</title>
<g id="a_Node000004"><a xlink:href="class_j_k_q_t_p_graph_fill_style_mixin.html" target="_top" xlink:title="This Mix&#45;In class provides setter/getter methods, storage and other facilities for the graph filling ...">
<polygon fill="white" stroke="#666666" points="547.5,-148 383.5,-148 383.5,-127 547.5,-127 547.5,-148"/>
<text text-anchor="middle" x="465.5" y="-134.4" font-family="Helvetica,sans-Serif" font-size="12.00">JKQTPGraphFillStyleMixin</text>
</a>
</g>
</g>
<!-- Node4&#45;&gt;Node1 -->
<g id="edge3_Node000001_Node000004" class="edge">
<title>Node4&#45;&gt;Node1</title>
<g id="a_edge3_Node000001_Node000004"><a xlink:title=" ">
<path fill="none" stroke="#63b8ff" d="M426.58,-123.7C397.81,-114.24 358.43,-101.29 327.51,-91.12"/>
<polygon fill="#63b8ff" stroke="#63b8ff" points="425.69,-127.09 436.28,-126.89 427.88,-120.44 425.69,-127.09"/>
</a>
</g>
</g>
</g>
</svg>
