<?xml version="1.0" encoding="UTF-8" standalone="no"?>
<!DOCTYPE svg PUBLIC "-//W3C//DTD SVG 1.1//EN"
 "http://www.w3.org/Graphics/SVG/1.1/DTD/svg11.dtd">
<!-- Generated by graphviz version 2.43.0 (0)
 -->
<!-- Title: JKQTPColorbarCoordinateAxisStyle Pages: 1 -->
<svg width="202pt" height="193pt"
 viewBox="0.00 0.00 202.00 193.00" xmlns="http://www.w3.org/2000/svg" xmlns:xlink="http://www.w3.org/1999/xlink">
<g id="graph0" class="graph" transform="scale(1 1) rotate(0) translate(4 189)">
<title>JKQTPColorbarCoordinateAxisStyle</title>
<!-- Node1 -->
<g id="Node000001" class="node">
<title>Node1</title>
<g id="a_Node000001"><a xlink:title="Support Class for JKQTPCoordinateAxis, which summarizes all properties that define the visual styling...">
<polygon fill="#999999" stroke="#666666" points="194,-34 0,-34 0,0 194,0 194,-34"/>
<text text-anchor="start" x="8" y="-20.4" font-family="Helvetica,sans-Serif" font-size="12.00">JKQTPColorbarCoordinateAxis</text>
<text text-anchor="middle" x="97" y="-7.4" font-family="Helvetica,sans-Serif" font-size="12.00">Style</text>
</a>
</g>
</g>
<!-- Node2 -->
<g id="Node000002" class="node">
<title>Node2</title>
<g id="a_Node000002"><a xlink:href="class_j_k_q_t_p_coordinate_axis_style.html" target="_top" xlink:title="Support Class for JKQTPCoordinateAxis, which summarizes all properties that define the visual styling...">
<polygon fill="white" stroke="#666666" points="182.5,-92 11.5,-92 11.5,-71 182.5,-71 182.5,-92"/>
<text text-anchor="middle" x="97" y="-78.4" font-family="Helvetica,sans-Serif" font-size="12.00">JKQTPCoordinateAxisStyle</text>
</a>
</g>
</g>
<!-- Node2&#45;&gt;Node1 -->
<g id="edge1_Node000001_Node000002" class="edge">
<title>Node2&#45;&gt;Node1</title>
<g id="a_edge1_Node000001_Node000002"><a xlink:title=" ">
<path fill="none" stroke="#63b8ff" d="M97,-60.57C97,-52.08 97,-42.3 97,-34.26"/>
<polygon fill="#63b8ff" stroke="#63b8ff" points="93.5,-60.73 97,-70.73 100.5,-60.73 93.5,-60.73"/>
</a>
</g>
</g>
<!-- Node3 -->
<g id="Node000003" class="node">
<title>Node3</title>
<g id="a_Node000003"><a xlink:href="class_j_k_q_t_p_grid_style.html" target="_top" xlink:title="Support Class for JKQTPCoordinateAxis, and summarizes all properties that define the visual styling o...">
<polygon fill="white" stroke="#666666" points="150.5,-185 43.5,-185 43.5,-164 150.5,-164 150.5,-185"/>
<text text-anchor="middle" x="97" y="-171.4" font-family="Helvetica,sans-Serif" font-size="12.00">JKQTPGridStyle</text>
</a>
</g>
</g>
<!-- Node3&#45;&gt;Node2 -->
<g id="edge2_Node000002_Node000003" class="edge">
<title>Node3&#45;&gt;Node2</title>
<g id="a_edge2_Node000002_Node000003"><a xlink:title=" ">
<path fill="none" stroke="#9a32cd" stroke-dasharray="5,2" d="M97,-153.5C97,-134.49 97,-106.7 97,-92.17"/>
<polygon fill="#9a32cd" stroke="#9a32cd" points="93.5,-153.76 97,-163.76 100.5,-153.76 93.5,-153.76"/>
</a>
</g>
<text text-anchor="start" x="100" y="-133.4" font-family="Helvetica,sans-Serif" font-size="12.00" fill="grey">majorGridStyle</text>
<text text-anchor="start" x="100" y="-116.4" font-family="Helvetica,sans-Serif" font-size="12.00" fill="grey">minorGridStyle</text>
</g>
</g>
</svg>
