<?xml version="1.0" encoding="UTF-8" standalone="no"?>
<!DOCTYPE svg PUBLIC "-//W3C//DTD SVG 1.1//EN"
 "http://www.w3.org/Graphics/SVG/1.1/DTD/svg11.dtd">
<!-- Generated by graphviz version 2.43.0 (0)
 -->
<!-- Title: JKQTMathTextSymbolNode Pages: 1 -->
<svg width="477pt" height="105pt"
 viewBox="0.00 0.00 476.50 105.00" xmlns="http://www.w3.org/2000/svg" xmlns:xlink="http://www.w3.org/1999/xlink">

<svg id="main" version="1.1" xmlns="http://www.w3.org/2000/svg" xmlns:xlink="http://www.w3.org/1999/xlink" xml:space="preserve">

<style type="text/css"><![CDATA[
.node, .edge {opacity: 0.7;}
.node.selected, .edge.selected {opacity: 1;}
.edge:hover path { stroke: red; }
.edge:hover polygon { stroke: red; fill: red; }
]]></style>
<script type="application/ecmascript" xlink:href="svg.min.js"/>
<svg id="graph" class="graph">
<g id="graph0" class="graph" transform="scale(1 1) rotate(0) translate(4 101)">
<title>JKQTMathTextSymbolNode</title>
<!-- Node1 -->
<g id="Node000001" class="node">
<title>Node1</title>
<g id="a_Node000001"><a xlink:title="subclass representing one symbol (e.g. \alpha , \cdot ...) node in the syntax tree">
<polygon fill="#999999" stroke="#666666" points="175,-21 0,-21 0,0 175,0 175,-21"/>
<text text-anchor="middle" x="87.5" y="-7.4" font-family="Helvetica,sans-Serif" font-size="12.00">JKQTMathTextSymbolNode</text>
</a>
</g>
</g>
<!-- Node2 -->
<g id="Node000002" class="node">
<title>Node2</title>
<g id="a_Node000002"><a xlink:href="class_j_k_q_t_math_text_node.html" target="_top" xlink:title="subclass representing one node in the syntax tree">
<polygon fill="white" stroke="#666666" points="186,-97 55,-97 55,-76 186,-76 186,-97"/>
<text text-anchor="middle" x="120.5" y="-83.4" font-family="Helvetica,sans-Serif" font-size="12.00">JKQTMathTextNode</text>
</a>
</g>
</g>
<!-- Node2&#45;&gt;Node1 -->
<g id="edge1_Node000001_Node000002" class="edge">
<title>Node2&#45;&gt;Node1</title>
<g id="a_edge1_Node000001_Node000002"><a xlink:title=" ">
<path fill="none" stroke="#63b8ff" d="M106.8,-67.34C104.86,-64.31 103.01,-61.14 101.5,-58 95.65,-45.84 91.64,-30.72 89.46,-21.08"/>
<polygon fill="#63b8ff" stroke="#63b8ff" points="104.08,-69.57 112.67,-75.78 109.83,-65.57 104.08,-69.57"/>
</a>
</g>
</g>
<!-- Node2&#45;&gt;Node2 -->
<g id="edge6_Node000002_Node000002" class="edge">
<title>Node2&#45;&gt;Node2</title>
<g id="a_edge6_Node000002_Node000002"><a xlink:title=" ">
<path fill="none" stroke="#9a32cd" stroke-dasharray="5,2" d="M196.52,-91.46C201.19,-90.29 204,-88.63 204,-86.5 204,-83.09 196.81,-80.9 186.31,-79.94"/>
<polygon fill="#9a32cd" stroke="#9a32cd" points="195.65,-88.06 186.31,-93.06 196.73,-94.97 195.65,-88.06"/>
</a>
</g>
<text text-anchor="start" x="207.5" y="-82.9" font-family="Helvetica,sans-Serif" font-size="12.00" fill="grey">parentNode</text>
</g>
<!-- Node3 -->
<g id="Node000003" class="node">
<title>Node3</title>
<g id="a_Node000003"><a xlink:href="class_j_k_q_t_math_text.html" target="_top" xlink:title="this class parses a mathematical markup string and can then draw the contained text/equation onto a Q...">
<polygon fill="white" stroke="#666666" points="339,-21 240,-21 240,0 339,0 339,-21"/>
<text text-anchor="middle" x="289.5" y="-7.4" font-family="Helvetica,sans-Serif" font-size="12.00">JKQTMathText</text>
</a>
</g>
</g>
<!-- Node2&#45;&gt;Node3 -->
<g id="edge4_Node000003_Node000002" class="edge">
<title>Node2&#45;&gt;Node3</title>
<g id="a_edge4_Node000003_Node000002"><a xlink:title=" ">
<path fill="none" stroke="#9a32cd" stroke-dasharray="5,2" d="M113.42,-65.83C111.46,-56.69 111.31,-46.26 117.5,-39 125.42,-29.71 191.8,-21.2 239.73,-16.18"/>
<polygon fill="#9a32cd" stroke="#9a32cd" points="110.14,-67.08 116.28,-75.71 116.86,-65.13 110.14,-67.08"/>
</a>
</g>
<text text-anchor="start" x="121" y="-44.9" font-family="Helvetica,sans-Serif" font-size="12.00" fill="grey">parsedNode</text>
</g>
<!-- Node3&#45;&gt;Node2 -->
<g id="edge2_Node000002_Node000003" class="edge">
<title>Node3&#45;&gt;Node2</title>
<g id="a_edge2_Node000002_Node000003"><a xlink:title=" ">
<path fill="none" stroke="#9a32cd" stroke-dasharray="5,2" d="M247.67,-24.69C238.04,-28.6 228.1,-33.37 219.5,-39 209.51,-45.54 210.63,-51.67 200.5,-58 188.04,-65.78 173.11,-71.68 159.54,-75.98"/>
<polygon fill="#9a32cd" stroke="#9a32cd" points="249.04,-27.91 257.14,-21.08 246.55,-21.37 249.04,-27.91"/>
</a>
</g>
<text text-anchor="start" x="222.5" y="-44.9" font-family="Helvetica,sans-Serif" font-size="12.00" fill="grey">parentMathText</text>
</g>
<!-- Node4 -->
<g id="Node000004" class="node">
<title>Node4</title>
<g id="a_Node000004"><a xlink:title=" ">
<polygon fill="white" stroke="#666666" points="370,-97 305,-97 305,-76 370,-76 370,-97"/>
<text text-anchor="middle" x="337.5" y="-83.4" font-family="Helvetica,sans-Serif" font-size="12.00">QObject</text>
</a>
</g>
</g>
<!-- Node4&#45;&gt;Node3 -->
<g id="edge3_Node000003_Node000004" class="edge">
<title>Node4&#45;&gt;Node3</title>
<g id="a_edge3_Node000003_Node000004"><a xlink:title=" ">
<path fill="none" stroke="#63b8ff" d="M334.3,-65.79C332.22,-57.06 328.86,-46.97 323.5,-39 318.76,-31.94 311.66,-25.8 305.17,-21.12"/>
<polygon fill="#63b8ff" stroke="#63b8ff" points="330.92,-66.76 336.3,-75.88 337.79,-65.39 330.92,-66.76"/>
</a>
</g>
</g>
<!-- Node5 -->
<g id="Node000005" class="node">
<title>Node5</title>
<g id="a_Node000005"><a xlink:title=" ">
<polygon fill="white" stroke="#666666" points="468.5,-97 388.5,-97 388.5,-76 468.5,-76 468.5,-97"/>
<text text-anchor="middle" x="428.5" y="-83.4" font-family="Helvetica,sans-Serif" font-size="12.00">std::mutex</text>
</a>
</g>
</g>
<!-- Node5&#45;&gt;Node3 -->
<g id="edge5_Node000003_Node000005" class="edge">
<title>Node5&#45;&gt;Node3</title>
<g id="a_edge5_Node000003_Node000005"><a xlink:title=" ">
<path fill="none" stroke="#9a32cd" stroke-dasharray="5,2" d="M401.6,-71.08C384.42,-61.88 361.66,-49.72 341.5,-39 330.32,-33.06 317.77,-26.42 307.8,-21.15"/>
<polygon fill="#9a32cd" stroke="#9a32cd" points="400.05,-74.22 410.52,-75.86 403.35,-68.05 400.05,-74.22"/>
</a>
</g>
<text text-anchor="start" x="378" y="-44.9" font-family="Helvetica,sans-Serif" font-size="12.00" fill="grey">s_mutex</text>
</g>
</g>
</svg>
</svg>

<style type='text/css'>
<![CDATA[
[data-mouse-over-selected='false'] { opacity: 0.7; }
[data-mouse-over-selected='true']  { opacity: 1.0; }
]]>
</style>
<script type="application/ecmascript"><![CDATA[
document.addEventListener('DOMContentLoaded', (event) => {
  highlightEdges();
  highlightAdjacentNodes();
});
]]></script>
</svg>
