<?xml version="1.0" encoding="UTF-8" standalone="no"?>
<!DOCTYPE svg PUBLIC "-//W3C//DTD SVG 1.1//EN"
 "http://www.w3.org/Graphics/SVG/1.1/DTD/svg11.dtd">
<!-- Generated by graphviz version 2.43.0 (0)
 -->
<!-- Title: JKQTPFilledCurveGraphBase Pages: 1 -->
<!--zoomable 441 -->

<svg id="main" version="1.1" xmlns="http://www.w3.org/2000/svg" xmlns:xlink="http://www.w3.org/1999/xlink" xml:space="preserve" onload="init(evt)">

<style type="text/css"><![CDATA[
.node, .edge {opacity: 0.7;}
.node.selected, .edge.selected {opacity: 1;}
.edge:hover path { stroke: red; }
.edge:hover polygon { stroke: red; fill: red; }
]]></style>

<defs>
  <circle id="rim" cx="0" cy="0" r="7"/>
  <circle id="rim2" cx="0" cy="0" r="3.5"/>
  <g id="zoomPlus">
    <use xlink:href="#rim" fill="#404040"><set attributeName="fill" to="#808080" begin="zoomplus.mouseover" end="zoomplus.mouseout"/></use>
    <path d="M-4,0h8M0,-4v8" fill="none" stroke="white" stroke-width="1.5" pointer-events="none"/>
  </g>
  <g id="zoomMin">
    <use xlink:href="#rim" fill="#404040"><set attributeName="fill" to="#808080" begin="zoomminus.mouseover" end="zoomminus.mouseout"/></use>
    <path d="M-4,0h8" fill="none" stroke="white" stroke-width="1.5" pointer-events="none"/>
  </g>
  <g id="arrowUp" transform="translate(30 24)">
    <use xlink:href="#rim"/>
    <path pointer-events="none" fill="none" stroke="white" stroke-width="1.5" d="M0,-3.0v7 M-2.5,-0.5L0,-3.0L2.5,-0.5"/>
  </g>
  <g id="arrowRight" transform="rotate(90) translate(36 -43)">
    <use xlink:href="#rim"/>
    <path pointer-events="none" fill="none" stroke="white" stroke-width="1.5" d="M0,-3.0v7 M-2.5,-0.5L0,-3.0L2.5,-0.5"/>
  </g>
  <g id="arrowDown" transform="rotate(180) translate(-30 -48)">
    <use xlink:href="#rim"/>
    <path pointer-events="none" fill="none" stroke="white" stroke-width="1.5" d="M0,-3.0v7 M-2.5,-0.5L0,-3.0L2.5,-0.5"/>
  </g>
  <g id="arrowLeft" transform="rotate(270) translate(-36 17)">
    <use xlink:href="#rim"/>
    <path pointer-events="none" fill="none" stroke="white" stroke-width="1.5" d="M0,-3.0v7 M-2.5,-0.5L0,-3.0L2.5,-0.5"/>
  </g>
  <g id="resetDef">
    <use xlink:href="#rim2" fill="#404040"><set attributeName="fill" to="#808080" begin="reset.mouseover" end="reset.mouseout"/></use>
  </g>
</defs>
<script type="application/ecmascript">
var viewWidth = 559;
var viewHeight = 441;
var sectionId = 'dynsection-0';
</script>
<script type="application/ecmascript" xlink:href="svg.min.js"/>
<svg id="graph" class="graph">
<g id="viewport">
<title>JKQTPFilledCurveGraphBase</title>
<!-- Node1 -->
<g id="Node000001" class="node">
<title>Node1</title>
<g id="a_Node000001"><a xlink:title="a Base class for filled curve graphs like e.g. JKQTPFilledCurveXGraph">
<polygon fill="#999999" stroke="#666666" points="292,-135 108,-135 108,-114 292,-114 292,-135"/>
<text text-anchor="middle" x="200" y="-121.4" font-family="Helvetica,sans-Serif" font-size="12.00">JKQTPFilledCurveGraphBase</text>
</a>
</g>
</g>
<!-- Node10 -->
<g id="Node000010" class="node">
<title>Node10</title>
<g id="a_Node000010"><a xlink:href="class_j_k_q_t_p_filled_curve_x_graph.html" target="_top" xlink:title="This implements filled curve plots where the area is filled between the plot line and the x&#45;Axis.">
<polygon fill="white" stroke="#666666" points="191.5,-78 28.5,-78 28.5,-57 191.5,-57 191.5,-78"/>
<text text-anchor="middle" x="110" y="-64.4" font-family="Helvetica,sans-Serif" font-size="12.00">JKQTPFilledCurveXGraph</text>
</a>
</g>
</g>
<!-- Node1&#45;&gt;Node10 -->
<g id="edge9_Node000001_Node000010" class="edge">
<title>Node1&#45;&gt;Node10</title>
<g id="a_edge9_Node000001_Node000010"><a xlink:title=" ">
<path fill="none" stroke="#63b8ff" d="M175.58,-108.58C159.74,-98.9 139.56,-86.57 125.8,-78.16"/>
<polygon fill="#63b8ff" stroke="#63b8ff" points="173.97,-111.69 184.32,-113.92 177.62,-105.72 173.97,-111.69"/>
</a>
</g>
</g>
<!-- Node12 -->
<g id="Node000012" class="node">
<title>Node12</title>
<g id="a_Node000012"><a xlink:href="class_j_k_q_t_p_filled_curve_y_graph.html" target="_top" xlink:title="This implements filled curve plots where the area is filled between the plot line and y&#45;Axis.">
<polygon fill="white" stroke="#666666" points="379,-78 217,-78 217,-57 379,-57 379,-78"/>
<text text-anchor="middle" x="298" y="-64.4" font-family="Helvetica,sans-Serif" font-size="12.00">JKQTPFilledCurveYGraph</text>
</a>
</g>
</g>
<!-- Node1&#45;&gt;Node12 -->
<g id="edge11_Node000001_Node000012" class="edge">
<title>Node1&#45;&gt;Node12</title>
<g id="a_edge11_Node000001_Node000012"><a xlink:title=" ">
<path fill="none" stroke="#63b8ff" d="M226.11,-108.85C243.43,-99.13 265.67,-86.64 280.8,-78.16"/>
<polygon fill="#63b8ff" stroke="#63b8ff" points="224.08,-105.97 217.07,-113.92 227.5,-112.08 224.08,-105.97"/>
</a>
</g>
</g>
<!-- Node2 -->
<g id="Node000002" class="node">
<title>Node2</title>
<g id="a_Node000002"><a xlink:href="class_j_k_q_t_p_x_y_baseline_graph.html" target="_top" xlink:title="This virtual JKQTPGraph descendent extends JKQTPXYGraph adds a baseline&#45;property, which is necessary,...">
<polygon fill="white" stroke="#666666" points="184.5,-198.5 29.5,-198.5 29.5,-177.5 184.5,-177.5 184.5,-198.5"/>
<text text-anchor="middle" x="107" y="-184.9" font-family="Helvetica,sans-Serif" font-size="12.00">JKQTPXYBaselineGraph</text>
</a>
</g>
</g>
<!-- Node2&#45;&gt;Node1 -->
<g id="edge1_Node000001_Node000002" class="edge">
<title>Node2&#45;&gt;Node1</title>
<g id="a_edge1_Node000001_Node000002"><a xlink:title=" ">
<path fill="none" stroke="#63b8ff" d="M130.01,-171.79C147.4,-160.29 170.73,-144.85 185.57,-135.04"/>
<polygon fill="#63b8ff" stroke="#63b8ff" points="127.94,-168.96 121.53,-177.39 131.8,-174.79 127.94,-168.96"/>
</a>
</g>
</g>
<!-- Node3 -->
<g id="Node000003" class="node">
<title>Node3</title>
<g id="a_Node000003"><a xlink:href="class_j_k_q_t_p_x_y_graph.html" target="_top" xlink:title="This virtual JKQTPGraph descendent may be used as base for all graphs that use at least two columns t...">
<polygon fill="white" stroke="#666666" points="159.5,-262 54.5,-262 54.5,-241 159.5,-241 159.5,-262"/>
<text text-anchor="middle" x="107" y="-248.4" font-family="Helvetica,sans-Serif" font-size="12.00">JKQTPXYGraph</text>
</a>
</g>
</g>
<!-- Node3&#45;&gt;Node2 -->
<g id="edge2_Node000002_Node000003" class="edge">
<title>Node3&#45;&gt;Node2</title>
<g id="a_edge2_Node000002_Node000003"><a xlink:title=" ">
<path fill="none" stroke="#63b8ff" d="M107,-230.75C107,-220.05 107,-207.31 107,-198.74"/>
<polygon fill="#63b8ff" stroke="#63b8ff" points="103.5,-230.89 107,-240.89 110.5,-230.89 103.5,-230.89"/>
</a>
</g>
</g>
<!-- Node4 -->
<g id="Node000004" class="node">
<title>Node4</title>
<g id="a_Node000004"><a xlink:href="class_j_k_q_t_p_graph.html" target="_top" xlink:title="this virtual base class of the (data&#45;column based) graphs, which are part of a JKQTPlotter plot and w...">
<polygon fill="white" stroke="#666666" points="151.5,-319 62.5,-319 62.5,-298 151.5,-298 151.5,-319"/>
<text text-anchor="middle" x="107" y="-305.4" font-family="Helvetica,sans-Serif" font-size="12.00">JKQTPGraph</text>
</a>
</g>
</g>
<!-- Node4&#45;&gt;Node3 -->
<g id="edge3_Node000003_Node000004" class="edge">
<title>Node4&#45;&gt;Node3</title>
<g id="a_edge3_Node000003_Node000004"><a xlink:title=" ">
<path fill="none" stroke="#63b8ff" d="M107,-287.86C107,-279.2 107,-269.42 107,-262.34"/>
<polygon fill="#63b8ff" stroke="#63b8ff" points="103.5,-287.92 107,-297.92 110.5,-287.92 103.5,-287.92"/>
</a>
</g>
</g>
<!-- Node5 -->
<g id="Node000005" class="node">
<title>Node5</title>
<g id="a_Node000005"><a xlink:href="class_j_k_q_t_p_plot_element.html" target="_top" xlink:title="this virtual base class of every element, which is part of a JKQTPlotter plot and may appear in its k...">
<polygon fill="white" stroke="#666666" points="169.5,-376 44.5,-376 44.5,-355 169.5,-355 169.5,-376"/>
<text text-anchor="middle" x="107" y="-362.4" font-family="Helvetica,sans-Serif" font-size="12.00">JKQTPPlotElement</text>
</a>
</g>
</g>
<!-- Node5&#45;&gt;Node4 -->
<g id="edge4_Node000004_Node000005" class="edge">
<title>Node5&#45;&gt;Node4</title>
<g id="a_edge4_Node000004_Node000005"><a xlink:title=" ">
<path fill="none" stroke="#63b8ff" d="M107,-344.86C107,-336.2 107,-326.42 107,-319.34"/>
<polygon fill="#63b8ff" stroke="#63b8ff" points="103.5,-344.92 107,-354.92 110.5,-344.92 103.5,-344.92"/>
</a>
</g>
</g>
<!-- Node6 -->
<g id="Node000006" class="node">
<title>Node6</title>
<g id="a_Node000006"><a xlink:title=" ">
<polygon fill="white" stroke="#666666" points="139.5,-433 74.5,-433 74.5,-412 139.5,-412 139.5,-433"/>
<text text-anchor="middle" x="107" y="-419.4" font-family="Helvetica,sans-Serif" font-size="12.00">QObject</text>
</a>
</g>
</g>
<!-- Node6&#45;&gt;Node5 -->
<g id="edge5_Node000005_Node000006" class="edge">
<title>Node6&#45;&gt;Node5</title>
<g id="a_edge5_Node000005_Node000006"><a xlink:title=" ">
<path fill="none" stroke="#63b8ff" d="M107,-401.86C107,-393.2 107,-383.42 107,-376.34"/>
<polygon fill="#63b8ff" stroke="#63b8ff" points="103.5,-401.92 107,-411.92 110.5,-401.92 103.5,-401.92"/>
</a>
</g>
</g>
<!-- Node7 -->
<g id="Node000007" class="node">
<title>Node7</title>
<g id="a_Node000007"><a xlink:href="class_j_k_q_t_p_graph_line_and_fill_style_mixin.html" target="_top" xlink:title="This Mix&#45;In class provides setter/getter methods, storage and other facilities for the graph line and...">
<polygon fill="white" stroke="#666666" points="385,-205 203,-205 203,-171 385,-171 385,-205"/>
<text text-anchor="start" x="211" y="-191.4" font-family="Helvetica,sans-Serif" font-size="12.00">JKQTPGraphLineAndFillStyle</text>
<text text-anchor="middle" x="294" y="-178.4" font-family="Helvetica,sans-Serif" font-size="12.00">Mixin</text>
</a>
</g>
</g>
<!-- Node7&#45;&gt;Node1 -->
<g id="edge6_Node000001_Node000007" class="edge">
<title>Node7&#45;&gt;Node1</title>
<g id="a_edge6_Node000001_Node000007"><a xlink:title=" ">
<path fill="none" stroke="#63b8ff" d="M260.81,-165.28C244.99,-154.94 226.9,-143.1 214.58,-135.04"/>
<polygon fill="#63b8ff" stroke="#63b8ff" points="259.02,-168.3 269.3,-170.84 262.85,-162.44 259.02,-168.3"/>
</a>
</g>
</g>
<!-- Node8 -->
<g id="Node000008" class="node">
<title>Node8</title>
<g id="a_Node000008"><a xlink:href="class_j_k_q_t_p_graph_fill_style_mixin.html" target="_top" xlink:title="This Mix&#45;In class provides setter/getter methods, storage and other facilities for the graph filling ...">
<polygon fill="white" stroke="#666666" points="359,-262 195,-262 195,-241 359,-241 359,-262"/>
<text text-anchor="middle" x="277" y="-248.4" font-family="Helvetica,sans-Serif" font-size="12.00">JKQTPGraphFillStyleMixin</text>
</a>
</g>
</g>
<!-- Node8&#45;&gt;Node7 -->
<g id="edge7_Node000007_Node000008" class="edge">
<title>Node8&#45;&gt;Node7</title>
<g id="a_edge7_Node000007_Node000008"><a xlink:title=" ">
<path fill="none" stroke="#63b8ff" d="M282.38,-231.04C284.65,-222.82 287.27,-213.35 289.44,-205.48"/>
<polygon fill="#63b8ff" stroke="#63b8ff" points="278.95,-230.32 279.66,-240.89 285.69,-232.18 278.95,-230.32"/>
</a>
</g>
</g>
<!-- Node9 -->
<g id="Node000009" class="node">
<title>Node9</title>
<g id="a_Node000009"><a xlink:href="class_j_k_q_t_p_graph_line_style_mixin.html" target="_top" xlink:title="This Mix&#45;In class provides setter/getter methods, storage and other facilities for the graph line sty...">
<polygon fill="white" stroke="#666666" points="551,-262 377,-262 377,-241 551,-241 551,-262"/>
<text text-anchor="middle" x="464" y="-248.4" font-family="Helvetica,sans-Serif" font-size="12.00">JKQTPGraphLineStyleMixin</text>
</a>
</g>
</g>
<!-- Node9&#45;&gt;Node7 -->
<g id="edge8_Node000007_Node000009" class="edge">
<title>Node9&#45;&gt;Node7</title>
<g id="a_edge8_Node000007_Node000009"><a xlink:title=" ">
<path fill="none" stroke="#63b8ff" d="M427.93,-237.45C401.84,-228.01 366.42,-215.2 338.55,-205.12"/>
<polygon fill="#63b8ff" stroke="#63b8ff" points="426.84,-240.78 437.44,-240.89 429.22,-234.2 426.84,-240.78"/>
</a>
</g>
</g>
<!-- Node11 -->
<g id="Node000011" class="node">
<title>Node11</title>
<g id="a_Node000011"><a xlink:href="class_j_k_q_t_p_filled_curve_x_error_graph.html" target="_top" xlink:title="This implements filled curve plots with y errors where the area is filled between the plot line and t...">
<polygon fill="white" stroke="#666666" points="192,-21 0,-21 0,0 192,0 192,-21"/>
<text text-anchor="middle" x="96" y="-7.4" font-family="Helvetica,sans-Serif" font-size="12.00">JKQTPFilledCurveXErrorGraph</text>
</a>
</g>
</g>
<!-- Node10&#45;&gt;Node11 -->
<g id="edge10_Node000010_Node000011" class="edge">
<title>Node10&#45;&gt;Node11</title>
<g id="a_edge10_Node000010_Node000011"><a xlink:title=" ">
<path fill="none" stroke="#63b8ff" d="M105.07,-47.14C102.85,-38.42 100.33,-28.5 98.5,-21.34"/>
<polygon fill="#63b8ff" stroke="#63b8ff" points="101.7,-48.09 107.56,-56.92 108.49,-46.37 101.7,-48.09"/>
</a>
</g>
</g>
<!-- Node13 -->
<g id="Node000013" class="node">
<title>Node13</title>
<g id="a_Node000013"><a xlink:href="class_j_k_q_t_p_filled_curve_y_error_graph.html" target="_top" xlink:title="This implements filled curve plots with y errors where the area is filled between the plot line and t...">
<polygon fill="white" stroke="#666666" points="401.5,-21 210.5,-21 210.5,0 401.5,0 401.5,-21"/>
<text text-anchor="middle" x="306" y="-7.4" font-family="Helvetica,sans-Serif" font-size="12.00">JKQTPFilledCurveYErrorGraph</text>
</a>
</g>
</g>
<!-- Node12&#45;&gt;Node13 -->
<g id="edge12_Node000012_Node000013" class="edge">
<title>Node12&#45;&gt;Node13</title>
<g id="a_edge12_Node000012_Node000013"><a xlink:title=" ">
<path fill="none" stroke="#63b8ff" d="M300.86,-46.86C302.12,-38.2 303.54,-28.42 304.57,-21.34"/>
<polygon fill="#63b8ff" stroke="#63b8ff" points="297.37,-46.52 299.39,-56.92 304.3,-47.53 297.37,-46.52"/>
</a>
</g>
</g>
</g>
</svg>

<g id="navigator" transform="translate(0 0)" fill="#404254">
  <rect fill="#f2f5e9" fill-opacity="0.5" stroke="#606060" stroke-width=".5" x="0" y="0" width="60" height="60"/>
  <use id="zoomplus" xlink:href="#zoomPlus" x="17" y="9" onmousedown="handleZoom(evt,'in')"/>
  <use id="zoomminus" xlink:href="#zoomMin" x="42" y="9" onmousedown="handleZoom(evt,'out')"/>
  <use id="reset" xlink:href="#resetDef" x="30" y="36" onmousedown="handleReset()"/>
   <use id="arrowup" xlink:href="#arrowUp" x="0" y="0" onmousedown="handlePan(0,-1)"/>
  <use id="arrowright" xlink:href="#arrowRight" x="0" y="0" onmousedown="handlePan(1,0)"/>
  <use id="arrowdown" xlink:href="#arrowDown" x="0" y="0" onmousedown="handlePan(0,1)"/>
  <use id="arrowleft" xlink:href="#arrowLeft" x="0" y="0" onmousedown="handlePan(-1,0)"/>
</g>
<svg viewBox="0 0 15 15" width="100%" height="30px" preserveAspectRatio="xMaxYMin meet">
 <g id="arrow_out" transform="scale(0.3 0.3)">
  <a xlink:href="class_j_k_q_t_p_filled_curve_graph_base__inherit__graph_org.svg" target="_base">
   <rect id="button" ry="5" rx="5" y="6" x="6" height="38" width="38"
        fill="#f2f5e9" fill-opacity="0.5" stroke="#606060" stroke-width="1.0"/>
   <path id="arrow"
     d="M 11.500037,31.436501 C 11.940474,20.09759 22.043105,11.32322 32.158766,21.979434 L 37.068811,17.246167 C 37.068811,17.246167 37.088388,32 37.088388,32 L 22.160133,31.978069 C 22.160133,31.978069 26.997745,27.140456 26.997745,27.140456 C 18.528582,18.264221 13.291696,25.230495 11.500037,31.436501 z"
     style="fill:#404040;"/>
  </a>
 </g>
</svg>

<style type='text/css'>
<![CDATA[
[data-mouse-over-selected='false'] { opacity: 0.7; }
[data-mouse-over-selected='true']  { opacity: 1.0; }
]]>
</style>
<script type="application/ecmascript"><![CDATA[
document.addEventListener('DOMContentLoaded', (event) => {
  highlightEdges();
  highlightAdjacentNodes();
});
]]></script>
</svg>
