<?xml version="1.0" encoding="UTF-8" standalone="no"?>
<!DOCTYPE svg PUBLIC "-//W3C//DTD SVG 1.1//EN"
 "http://www.w3.org/Graphics/SVG/1.1/DTD/svg11.dtd">
<!-- Generated by graphviz version 2.43.0 (0)
 -->
<!-- Title: JKQTPViolinplotVerticalElement Pages: 1 -->
<svg width="492pt" height="213pt"
 viewBox="0.00 0.00 491.50 213.00" xmlns="http://www.w3.org/2000/svg" xmlns:xlink="http://www.w3.org/1999/xlink">

<svg id="main" version="1.1" xmlns="http://www.w3.org/2000/svg" xmlns:xlink="http://www.w3.org/1999/xlink" xml:space="preserve">

<style type="text/css"><![CDATA[
.node, .edge {opacity: 0.7;}
.node.selected, .edge.selected {opacity: 1;}
.edge:hover path { stroke: red; }
.edge:hover polygon { stroke: red; fill: red; }
]]></style>
<script type="application/ecmascript" xlink:href="svg.min.js"/>
<svg id="graph" class="graph">
<g id="graph0" class="graph" transform="scale(1 1) rotate(0) translate(4 209)">
<title>JKQTPViolinplotVerticalElement</title>
<!-- Node1 -->
<g id="Node000001" class="node">
<title>Node1</title>
<g id="a_Node000001"><a xlink:title="This implements a single vertical Violin Plot as a &quot;geometric element&quot;.">
<polygon fill="#999999" stroke="#666666" points="246.5,-21 44.5,-21 44.5,0 246.5,0 246.5,-21"/>
<text text-anchor="middle" x="145.5" y="-7.4" font-family="Helvetica,sans-Serif" font-size="12.00">JKQTPViolinplotVerticalElement</text>
</a>
</g>
</g>
<!-- Node2 -->
<g id="Node000002" class="node">
<title>Node2</title>
<g id="a_Node000002"><a xlink:href="class_j_k_q_t_p_violinplot_element_base.html" target="_top" xlink:title="This implements a single vertical Violin Plot as a &quot;geometric element&quot;.">
<polygon fill="white" stroke="#666666" points="238.5,-78 52.5,-78 52.5,-57 238.5,-57 238.5,-78"/>
<text text-anchor="middle" x="145.5" y="-64.4" font-family="Helvetica,sans-Serif" font-size="12.00">JKQTPViolinplotElementBase</text>
</a>
</g>
</g>
<!-- Node2&#45;&gt;Node1 -->
<g id="edge1_Node000001_Node000002" class="edge">
<title>Node2&#45;&gt;Node1</title>
<g id="a_edge1_Node000001_Node000002"><a xlink:title=" ">
<path fill="none" stroke="#63b8ff" d="M145.5,-46.86C145.5,-38.2 145.5,-28.42 145.5,-21.34"/>
<polygon fill="#63b8ff" stroke="#63b8ff" points="142,-46.92 145.5,-56.92 149,-46.92 142,-46.92"/>
</a>
</g>
</g>
<!-- Node3 -->
<g id="Node000003" class="node">
<title>Node3</title>
<g id="a_Node000003"><a xlink:href="class_j_k_q_t_p_plot_element.html" target="_top" xlink:title="this virtual base class of every element, which is part of a JKQTPlotter plot and may appear in its k...">
<polygon fill="white" stroke="#666666" points="125,-141.5 0,-141.5 0,-120.5 125,-120.5 125,-141.5"/>
<text text-anchor="middle" x="62.5" y="-127.9" font-family="Helvetica,sans-Serif" font-size="12.00">JKQTPPlotElement</text>
</a>
</g>
</g>
<!-- Node3&#45;&gt;Node2 -->
<g id="edge2_Node000002_Node000003" class="edge">
<title>Node3&#45;&gt;Node2</title>
<g id="a_edge2_Node000002_Node000003"><a xlink:title=" ">
<path fill="none" stroke="#63b8ff" d="M83.89,-114.15C99.31,-102.72 119.62,-87.67 132.62,-78.04"/>
<polygon fill="#63b8ff" stroke="#63b8ff" points="81.42,-111.62 75.47,-120.39 85.59,-117.25 81.42,-111.62"/>
</a>
</g>
</g>
<!-- Node4 -->
<g id="Node000004" class="node">
<title>Node4</title>
<g id="a_Node000004"><a xlink:title=" ">
<polygon fill="white" stroke="#666666" points="95,-205 30,-205 30,-184 95,-184 95,-205"/>
<text text-anchor="middle" x="62.5" y="-191.4" font-family="Helvetica,sans-Serif" font-size="12.00">QObject</text>
</a>
</g>
</g>
<!-- Node4&#45;&gt;Node3 -->
<g id="edge3_Node000003_Node000004" class="edge">
<title>Node4&#45;&gt;Node3</title>
<g id="a_edge3_Node000003_Node000004"><a xlink:title=" ">
<path fill="none" stroke="#63b8ff" d="M62.5,-173.75C62.5,-163.05 62.5,-150.31 62.5,-141.74"/>
<polygon fill="#63b8ff" stroke="#63b8ff" points="59,-173.89 62.5,-183.89 66,-173.89 59,-173.89"/>
</a>
</g>
</g>
<!-- Node5 -->
<g id="Node000005" class="node">
<title>Node5</title>
<g id="a_Node000005"><a xlink:href="class_j_k_q_t_p_graph_violinplot_style_mixin.html" target="_top" xlink:title="Styling Mix&#45;In for Violinplots.">
<polygon fill="white" stroke="#666666" points="316,-148 143,-148 143,-114 316,-114 316,-148"/>
<text text-anchor="start" x="151" y="-134.4" font-family="Helvetica,sans-Serif" font-size="12.00">JKQTPGraphViolinplotStyle</text>
<text text-anchor="middle" x="229.5" y="-121.4" font-family="Helvetica,sans-Serif" font-size="12.00">Mixin</text>
</a>
</g>
</g>
<!-- Node5&#45;&gt;Node2 -->
<g id="edge4_Node000002_Node000005" class="edge">
<title>Node5&#45;&gt;Node2</title>
<g id="a_edge4_Node000002_Node000005"><a xlink:title=" ">
<path fill="none" stroke="#63b8ff" d="M199.05,-107.71C185.11,-97.5 169.33,-85.95 158.53,-78.04"/>
<polygon fill="#63b8ff" stroke="#63b8ff" points="197.29,-110.76 207.43,-113.84 201.43,-105.11 197.29,-110.76"/>
</a>
</g>
</g>
<!-- Node6 -->
<g id="Node000006" class="node">
<title>Node6</title>
<g id="a_Node000006"><a xlink:href="class_j_k_q_t_p_graph_line_style_mixin.html" target="_top" xlink:title="This Mix&#45;In class provides setter/getter methods, storage and other facilities for the graph line sty...">
<polygon fill="white" stroke="#666666" points="301.5,-205 127.5,-205 127.5,-184 301.5,-184 301.5,-205"/>
<text text-anchor="middle" x="214.5" y="-191.4" font-family="Helvetica,sans-Serif" font-size="12.00">JKQTPGraphLineStyleMixin</text>
</a>
</g>
</g>
<!-- Node6&#45;&gt;Node5 -->
<g id="edge5_Node000005_Node000006" class="edge">
<title>Node6&#45;&gt;Node5</title>
<g id="a_edge5_Node000005_Node000006"><a xlink:title=" ">
<path fill="none" stroke="#63b8ff" d="M219.25,-174.04C221.25,-165.82 223.56,-156.35 225.48,-148.48"/>
<polygon fill="#63b8ff" stroke="#63b8ff" points="215.81,-173.35 216.84,-183.89 222.61,-175 215.81,-173.35"/>
</a>
</g>
</g>
<!-- Node7 -->
<g id="Node000007" class="node">
<title>Node7</title>
<g id="a_Node000007"><a xlink:href="class_j_k_q_t_p_graph_fill_style_mixin.html" target="_top" xlink:title="This Mix&#45;In class provides setter/getter methods, storage and other facilities for the graph filling ...">
<polygon fill="white" stroke="#666666" points="483.5,-205 319.5,-205 319.5,-184 483.5,-184 483.5,-205"/>
<text text-anchor="middle" x="401.5" y="-191.4" font-family="Helvetica,sans-Serif" font-size="12.00">JKQTPGraphFillStyleMixin</text>
</a>
</g>
</g>
<!-- Node7&#45;&gt;Node5 -->
<g id="edge6_Node000005_Node000007" class="edge">
<title>Node7&#45;&gt;Node5</title>
<g id="a_edge6_Node000005_Node000007"><a xlink:title=" ">
<path fill="none" stroke="#63b8ff" d="M365,-180.45C338.6,-171.01 302.77,-158.2 274.58,-148.12"/>
<polygon fill="#63b8ff" stroke="#63b8ff" points="364.03,-183.82 374.62,-183.89 366.39,-177.23 364.03,-183.82"/>
</a>
</g>
</g>
</g>
</svg>
</svg>

<style type='text/css'>
<![CDATA[
[data-mouse-over-selected='false'] { opacity: 0.7; }
[data-mouse-over-selected='true']  { opacity: 1.0; }
]]>
</style>
<script type="application/ecmascript"><![CDATA[
document.addEventListener('DOMContentLoaded', (event) => {
  highlightEdges();
  highlightAdjacentNodes();
});
]]></script>
</svg>
