<?xml version="1.0" encoding="UTF-8" standalone="no"?>
<!DOCTYPE svg PUBLIC "-//W3C//DTD SVG 1.1//EN"
 "http://www.w3.org/Graphics/SVG/1.1/DTD/svg11.dtd">
<!-- Generated by graphviz version 2.43.0 (0)
 -->
<!-- Title: JKQTPGeoText Pages: 1 -->
<svg width="390pt" height="200pt"
 viewBox="0.00 0.00 389.50 200.00" xmlns="http://www.w3.org/2000/svg" xmlns:xlink="http://www.w3.org/1999/xlink">
<g id="graph0" class="graph" transform="scale(1 1) rotate(0) translate(4 196)">
<title>JKQTPGeoText</title>
<!-- Node1 -->
<g id="Node000001" class="node">
<title>Node1</title>
<g id="a_Node000001"><a xlink:title="This JKQTPPlotAnnotationElement is used to display text. It uses the JKQTMathText class in order to d...">
<polygon fill="#999999" stroke="#666666" points="245.5,-21 144.5,-21 144.5,0 245.5,0 245.5,-21"/>
<text text-anchor="middle" x="195" y="-7.4" font-family="Helvetica,sans-Serif" font-size="12.00">JKQTPGeoText</text>
</a>
</g>
</g>
<!-- Node2 -->
<g id="Node000002" class="node">
<title>Node2</title>
<g id="a_Node000002"><a xlink:href="class_j_k_q_t_p_plot_annotation_element.html" target="_top" xlink:title="this is the virtual base class of all JKQTPPlotElement&#39;s in a JKQTPlotter plot that represent annotat...">
<polygon fill="white" stroke="#666666" points="190,-78 0,-78 0,-57 190,-57 190,-78"/>
<text text-anchor="middle" x="95" y="-64.4" font-family="Helvetica,sans-Serif" font-size="12.00">JKQTPPlotAnnotationElement</text>
</a>
</g>
</g>
<!-- Node2&#45;&gt;Node1 -->
<g id="edge1_Node000001_Node000002" class="edge">
<title>Node2&#45;&gt;Node1</title>
<g id="a_edge1_Node000001_Node000002"><a xlink:title=" ">
<path fill="none" stroke="#63b8ff" d="M121.64,-51.85C139.32,-42.13 162.01,-29.64 177.45,-21.16"/>
<polygon fill="#63b8ff" stroke="#63b8ff" points="119.49,-49.03 112.42,-56.92 122.87,-55.17 119.49,-49.03"/>
</a>
</g>
</g>
<!-- Node3 -->
<g id="Node000003" class="node">
<title>Node3</title>
<g id="a_Node000003"><a xlink:href="class_j_k_q_t_p_plot_element.html" target="_top" xlink:title="this virtual base class of every element, which is part of a JKQTPlotter plot and may appear in its k...">
<polygon fill="white" stroke="#666666" points="157.5,-135 32.5,-135 32.5,-114 157.5,-114 157.5,-135"/>
<text text-anchor="middle" x="95" y="-121.4" font-family="Helvetica,sans-Serif" font-size="12.00">JKQTPPlotElement</text>
</a>
</g>
</g>
<!-- Node3&#45;&gt;Node2 -->
<g id="edge2_Node000002_Node000003" class="edge">
<title>Node3&#45;&gt;Node2</title>
<g id="a_edge2_Node000002_Node000003"><a xlink:title=" ">
<path fill="none" stroke="#63b8ff" d="M95,-103.86C95,-95.2 95,-85.42 95,-78.34"/>
<polygon fill="#63b8ff" stroke="#63b8ff" points="91.5,-103.92 95,-113.92 98.5,-103.92 91.5,-103.92"/>
</a>
</g>
</g>
<!-- Node4 -->
<g id="Node000004" class="node">
<title>Node4</title>
<g id="a_Node000004"><a xlink:title=" ">
<polygon fill="white" stroke="#666666" points="127.5,-192 62.5,-192 62.5,-171 127.5,-171 127.5,-192"/>
<text text-anchor="middle" x="95" y="-178.4" font-family="Helvetica,sans-Serif" font-size="12.00">QObject</text>
</a>
</g>
</g>
<!-- Node4&#45;&gt;Node3 -->
<g id="edge3_Node000003_Node000004" class="edge">
<title>Node4&#45;&gt;Node3</title>
<g id="a_edge3_Node000003_Node000004"><a xlink:title=" ">
<path fill="none" stroke="#63b8ff" d="M95,-160.86C95,-152.2 95,-142.42 95,-135.34"/>
<polygon fill="#63b8ff" stroke="#63b8ff" points="91.5,-160.92 95,-170.92 98.5,-160.92 91.5,-160.92"/>
</a>
</g>
</g>
<!-- Node5 -->
<g id="Node000005" class="node">
<title>Node5</title>
<g id="a_Node000005"><a xlink:href="class_j_k_q_t_p_graph_text_style_mixin.html" target="_top" xlink:title="This Mix&#45;In class provides setter/getter methods, storage and other facilities for text in graphs.">
<polygon fill="white" stroke="#666666" points="381.5,-78 208.5,-78 208.5,-57 381.5,-57 381.5,-78"/>
<text text-anchor="middle" x="295" y="-64.4" font-family="Helvetica,sans-Serif" font-size="12.00">JKQTPGraphTextStyleMixin</text>
</a>
</g>
</g>
<!-- Node5&#45;&gt;Node1 -->
<g id="edge4_Node000001_Node000005" class="edge">
<title>Node5&#45;&gt;Node1</title>
<g id="a_edge4_Node000001_Node000005"><a xlink:title=" ">
<path fill="none" stroke="#63b8ff" d="M268.36,-51.85C250.68,-42.13 227.99,-29.64 212.55,-21.16"/>
<polygon fill="#63b8ff" stroke="#63b8ff" points="267.13,-55.17 277.58,-56.92 270.51,-49.03 267.13,-55.17"/>
</a>
</g>
</g>
</g>
</svg>
