<?xml version="1.0" encoding="UTF-8" standalone="no"?>
<!DOCTYPE svg PUBLIC "-//W3C//DTD SVG 1.1//EN"
 "http://www.w3.org/Graphics/SVG/1.1/DTD/svg11.dtd">
<!-- Generated by graphviz version 2.43.0 (0)
 -->
<!-- Title: JKQTPBoxplotVerticalElement Pages: 1 -->
<svg width="498pt" height="200pt"
 viewBox="0.00 0.00 497.50 200.00" xmlns="http://www.w3.org/2000/svg" xmlns:xlink="http://www.w3.org/1999/xlink">

<svg id="main" version="1.1" xmlns="http://www.w3.org/2000/svg" xmlns:xlink="http://www.w3.org/1999/xlink" xml:space="preserve">

<style type="text/css"><![CDATA[
.node, .edge {opacity: 0.7;}
.node.selected, .edge.selected {opacity: 1;}
.edge:hover path { stroke: red; }
.edge:hover polygon { stroke: red; fill: red; }
]]></style>
<script type="application/ecmascript" xlink:href="svg.min.js"/>
<svg id="graph" class="graph">
<g id="graph0" class="graph" transform="scale(1 1) rotate(0) translate(4 196)">
<title>JKQTPBoxplotVerticalElement</title>
<!-- Node1 -->
<g id="Node000001" class="node">
<title>Node1</title>
<g id="a_Node000001"><a xlink:title="This implements a single vertical (notched) boxplot as a &quot;geometric element&quot;, where the data is direc...">
<polygon fill="#999999" stroke="#666666" points="247,-21 56,-21 56,0 247,0 247,-21"/>
<text text-anchor="middle" x="151.5" y="-7.4" font-family="Helvetica,sans-Serif" font-size="12.00">JKQTPBoxplotVerticalElement</text>
</a>
</g>
</g>
<!-- Node2 -->
<g id="Node000002" class="node">
<title>Node2</title>
<g id="a_Node000002"><a xlink:href="class_j_k_q_t_p_boxplot_element_base.html" target="_top" xlink:title="Tbaseclass for a single (notched) boxplot as a &quot;geometric element&quot;, where the data is directly given ...">
<polygon fill="white" stroke="#666666" points="239.5,-78 63.5,-78 63.5,-57 239.5,-57 239.5,-78"/>
<text text-anchor="middle" x="151.5" y="-64.4" font-family="Helvetica,sans-Serif" font-size="12.00">JKQTPBoxplotElementBase</text>
</a>
</g>
</g>
<!-- Node2&#45;&gt;Node1 -->
<g id="edge1_Node000001_Node000002" class="edge">
<title>Node2&#45;&gt;Node1</title>
<g id="a_edge1_Node000001_Node000002"><a xlink:title=" ">
<path fill="none" stroke="#63b8ff" d="M151.5,-46.86C151.5,-38.2 151.5,-28.42 151.5,-21.34"/>
<polygon fill="#63b8ff" stroke="#63b8ff" points="148,-46.92 151.5,-56.92 155,-46.92 148,-46.92"/>
</a>
</g>
</g>
<!-- Node3 -->
<g id="Node000003" class="node">
<title>Node3</title>
<g id="a_Node000003"><a xlink:href="class_j_k_q_t_p_plot_element.html" target="_top" xlink:title="this virtual base class of every element, which is part of a JKQTPlotter plot and may appear in its k...">
<polygon fill="white" stroke="#666666" points="125,-135 0,-135 0,-114 125,-114 125,-135"/>
<text text-anchor="middle" x="62.5" y="-121.4" font-family="Helvetica,sans-Serif" font-size="12.00">JKQTPPlotElement</text>
</a>
</g>
</g>
<!-- Node3&#45;&gt;Node2 -->
<g id="edge2_Node000002_Node000003" class="edge">
<title>Node3&#45;&gt;Node2</title>
<g id="a_edge2_Node000002_Node000003"><a xlink:title=" ">
<path fill="none" stroke="#63b8ff" d="M86.65,-108.58C102.31,-98.9 122.27,-86.57 135.88,-78.16"/>
<polygon fill="#63b8ff" stroke="#63b8ff" points="84.67,-105.69 78,-113.92 88.35,-111.64 84.67,-105.69"/>
</a>
</g>
</g>
<!-- Node4 -->
<g id="Node000004" class="node">
<title>Node4</title>
<g id="a_Node000004"><a xlink:title=" ">
<polygon fill="white" stroke="#666666" points="95,-192 30,-192 30,-171 95,-171 95,-192"/>
<text text-anchor="middle" x="62.5" y="-178.4" font-family="Helvetica,sans-Serif" font-size="12.00">QObject</text>
</a>
</g>
</g>
<!-- Node4&#45;&gt;Node3 -->
<g id="edge3_Node000003_Node000004" class="edge">
<title>Node4&#45;&gt;Node3</title>
<g id="a_edge3_Node000003_Node000004"><a xlink:title=" ">
<path fill="none" stroke="#63b8ff" d="M62.5,-160.86C62.5,-152.2 62.5,-142.42 62.5,-135.34"/>
<polygon fill="#63b8ff" stroke="#63b8ff" points="59,-160.92 62.5,-170.92 66,-160.92 59,-160.92"/>
</a>
</g>
</g>
<!-- Node5 -->
<g id="Node000005" class="node">
<title>Node5</title>
<g id="a_Node000005"><a xlink:href="class_j_k_q_t_p_graph_boxplot_style_mixin.html" target="_top" xlink:title="Styling Mix&#45;In for Boxplots.">
<polygon fill="white" stroke="#666666" points="337.5,-135 143.5,-135 143.5,-114 337.5,-114 337.5,-135"/>
<text text-anchor="middle" x="240.5" y="-121.4" font-family="Helvetica,sans-Serif" font-size="12.00">JKQTPGraphBoxplotStyleMixin</text>
</a>
</g>
</g>
<!-- Node5&#45;&gt;Node2 -->
<g id="edge4_Node000002_Node000005" class="edge">
<title>Node5&#45;&gt;Node2</title>
<g id="a_edge4_Node000002_Node000005"><a xlink:title=" ">
<path fill="none" stroke="#63b8ff" d="M216.35,-108.58C200.69,-98.9 180.73,-86.57 167.12,-78.16"/>
<polygon fill="#63b8ff" stroke="#63b8ff" points="214.65,-111.64 225,-113.92 218.33,-105.69 214.65,-111.64"/>
</a>
</g>
</g>
<!-- Node6 -->
<g id="Node000006" class="node">
<title>Node6</title>
<g id="a_Node000006"><a xlink:href="class_j_k_q_t_p_graph_line_style_mixin.html" target="_top" xlink:title="This Mix&#45;In class provides setter/getter methods, storage and other facilities for the graph line sty...">
<polygon fill="white" stroke="#666666" points="307.5,-192 133.5,-192 133.5,-171 307.5,-171 307.5,-192"/>
<text text-anchor="middle" x="220.5" y="-178.4" font-family="Helvetica,sans-Serif" font-size="12.00">JKQTPGraphLineStyleMixin</text>
</a>
</g>
</g>
<!-- Node6&#45;&gt;Node5 -->
<g id="edge5_Node000005_Node000006" class="edge">
<title>Node6&#45;&gt;Node5</title>
<g id="a_edge5_Node000005_Node000006"><a xlink:title=" ">
<path fill="none" stroke="#63b8ff" d="M227.43,-161.43C230.63,-152.64 234.29,-142.58 236.92,-135.34"/>
<polygon fill="#63b8ff" stroke="#63b8ff" points="224.11,-160.33 223.98,-170.92 230.69,-162.72 224.11,-160.33"/>
</a>
</g>
</g>
<!-- Node7 -->
<g id="Node000007" class="node">
<title>Node7</title>
<g id="a_Node000007"><a xlink:href="class_j_k_q_t_p_graph_fill_style_mixin.html" target="_top" xlink:title="This Mix&#45;In class provides setter/getter methods, storage and other facilities for the graph filling ...">
<polygon fill="white" stroke="#666666" points="489.5,-192 325.5,-192 325.5,-171 489.5,-171 489.5,-192"/>
<text text-anchor="middle" x="407.5" y="-178.4" font-family="Helvetica,sans-Serif" font-size="12.00">JKQTPGraphFillStyleMixin</text>
</a>
</g>
</g>
<!-- Node7&#45;&gt;Node5 -->
<g id="edge6_Node000005_Node000007" class="edge">
<title>Node7&#45;&gt;Node5</title>
<g id="a_edge6_Node000005_Node000007"><a xlink:title=" ">
<path fill="none" stroke="#63b8ff" d="M368.6,-167.69C338.33,-157.72 296.97,-144.1 269.54,-135.06"/>
<polygon fill="#63b8ff" stroke="#63b8ff" points="367.82,-171.12 378.41,-170.92 370.01,-164.47 367.82,-171.12"/>
</a>
</g>
</g>
</g>
</svg>
</svg>

<style type='text/css'>
<![CDATA[
[data-mouse-over-selected='false'] { opacity: 0.7; }
[data-mouse-over-selected='true']  { opacity: 1.0; }
]]>
</style>
<script type="application/ecmascript"><![CDATA[
document.addEventListener('DOMContentLoaded', (event) => {
  highlightEdges();
  highlightAdjacentNodes();
});
]]></script>
</svg>
