<?xml version="1.0" encoding="UTF-8" standalone="no"?>
<!DOCTYPE svg PUBLIC "-//W3C//DTD SVG 1.1//EN"
 "http://www.w3.org/Graphics/SVG/1.1/DTD/svg11.dtd">
<!-- Generated by graphviz version 2.43.0 (0)
 -->
<!-- Title: JKQTMathTextSimpleInstructionNode Pages: 1 -->
<svg width="507pt" height="105pt"
 viewBox="0.00 0.00 506.50 105.00" xmlns="http://www.w3.org/2000/svg" xmlns:xlink="http://www.w3.org/1999/xlink">
<g id="graph0" class="graph" transform="scale(1 1) rotate(0) translate(4 101)">
<title>JKQTMathTextSimpleInstructionNode</title>
<!-- Node1 -->
<g id="Node000001" class="node">
<title>Node1</title>
<g id="a_Node000001"><a xlink:title="subclass representing a simple instruction node which only accepts string arguments,...">
<polygon fill="#999999" stroke="#666666" points="235,-21 0,-21 0,0 235,0 235,-21"/>
<text text-anchor="middle" x="117.5" y="-7.4" font-family="Helvetica,sans-Serif" font-size="12.00">JKQTMathTextSimpleInstructionNode</text>
</a>
</g>
</g>
<!-- Node2 -->
<g id="Node000002" class="node">
<title>Node2</title>
<g id="a_Node000002"><a xlink:href="class_j_k_q_t_math_text_node.html" target="_top" xlink:title="subclass representing one node in the syntax tree">
<polygon fill="white" stroke="#666666" points="216,-97 85,-97 85,-76 216,-76 216,-97"/>
<text text-anchor="middle" x="150.5" y="-83.4" font-family="Helvetica,sans-Serif" font-size="12.00">JKQTMathTextNode</text>
</a>
</g>
</g>
<!-- Node2&#45;&gt;Node1 -->
<g id="edge1_Node000001_Node000002" class="edge">
<title>Node2&#45;&gt;Node1</title>
<g id="a_edge1_Node000001_Node000002"><a xlink:title=" ">
<path fill="none" stroke="#63b8ff" d="M136.8,-67.34C134.86,-64.31 133.01,-61.14 131.5,-58 125.65,-45.84 121.64,-30.72 119.46,-21.08"/>
<polygon fill="#63b8ff" stroke="#63b8ff" points="134.08,-69.57 142.67,-75.78 139.83,-65.57 134.08,-69.57"/>
</a>
</g>
</g>
<!-- Node2&#45;&gt;Node2 -->
<g id="edge6_Node000002_Node000002" class="edge">
<title>Node2&#45;&gt;Node2</title>
<g id="a_edge6_Node000002_Node000002"><a xlink:title=" ">
<path fill="none" stroke="#9a32cd" stroke-dasharray="5,2" d="M226.52,-91.46C231.19,-90.29 234,-88.63 234,-86.5 234,-83.09 226.81,-80.9 216.31,-79.94"/>
<polygon fill="#9a32cd" stroke="#9a32cd" points="225.65,-88.06 216.31,-93.06 226.73,-94.97 225.65,-88.06"/>
</a>
</g>
<text text-anchor="start" x="237.5" y="-82.9" font-family="Helvetica,sans-Serif" font-size="12.00" fill="grey">parentNode</text>
</g>
<!-- Node3 -->
<g id="Node000003" class="node">
<title>Node3</title>
<g id="a_Node000003"><a xlink:href="class_j_k_q_t_math_text.html" target="_top" xlink:title="this class parses a mathematical markup string and can then draw the contained text/equation onto a Q...">
<polygon fill="white" stroke="#666666" points="384,-21 285,-21 285,0 384,0 384,-21"/>
<text text-anchor="middle" x="334.5" y="-7.4" font-family="Helvetica,sans-Serif" font-size="12.00">JKQTMathText</text>
</a>
</g>
</g>
<!-- Node2&#45;&gt;Node3 -->
<g id="edge4_Node000003_Node000002" class="edge">
<title>Node2&#45;&gt;Node3</title>
<g id="a_edge4_Node000003_Node000002"><a xlink:title=" ">
<path fill="none" stroke="#9a32cd" stroke-dasharray="5,2" d="M143.38,-65.8C141.41,-56.65 141.27,-46.22 147.5,-39 152,-33.78 231.13,-23.57 285,-17.17"/>
<polygon fill="#9a32cd" stroke="#9a32cd" points="140.1,-67.07 146.26,-75.69 146.82,-65.11 140.1,-67.07"/>
</a>
</g>
<text text-anchor="start" x="151" y="-44.9" font-family="Helvetica,sans-Serif" font-size="12.00" fill="grey">parsedNode</text>
</g>
<!-- Node3&#45;&gt;Node2 -->
<g id="edge2_Node000002_Node000003" class="edge">
<title>Node3&#45;&gt;Node2</title>
<g id="a_edge2_Node000002_Node000003"><a xlink:title=" ">
<path fill="none" stroke="#9a32cd" stroke-dasharray="5,2" d="M282,-24.19C270.83,-28.05 259.43,-32.93 249.5,-39 239.31,-45.23 240.63,-51.67 230.5,-58 218.04,-65.78 203.11,-71.68 189.54,-75.98"/>
<polygon fill="#9a32cd" stroke="#9a32cd" points="283.27,-27.46 291.71,-21.06 281.12,-20.8 283.27,-27.46"/>
</a>
</g>
<text text-anchor="start" x="252.5" y="-44.9" font-family="Helvetica,sans-Serif" font-size="12.00" fill="grey">parentMathText</text>
</g>
<!-- Node4 -->
<g id="Node000004" class="node">
<title>Node4</title>
<g id="a_Node000004"><a xlink:title=" ">
<polygon fill="white" stroke="#666666" points="400,-97 335,-97 335,-76 400,-76 400,-97"/>
<text text-anchor="middle" x="367.5" y="-83.4" font-family="Helvetica,sans-Serif" font-size="12.00">QObject</text>
</a>
</g>
</g>
<!-- Node4&#45;&gt;Node3 -->
<g id="edge3_Node000003_Node000004" class="edge">
<title>Node4&#45;&gt;Node3</title>
<g id="a_edge3_Node000003_Node000004"><a xlink:title=" ">
<path fill="none" stroke="#63b8ff" d="M363.11,-66.1C360.81,-57.56 357.61,-47.55 353.5,-39 350.48,-32.73 346.12,-26.29 342.33,-21.22"/>
<polygon fill="#63b8ff" stroke="#63b8ff" points="359.74,-67.05 365.54,-75.92 366.53,-65.37 359.74,-67.05"/>
</a>
</g>
</g>
<!-- Node5 -->
<g id="Node000005" class="node">
<title>Node5</title>
<g id="a_Node000005"><a xlink:title=" ">
<polygon fill="white" stroke="#666666" points="498.5,-97 418.5,-97 418.5,-76 498.5,-76 498.5,-97"/>
<text text-anchor="middle" x="458.5" y="-83.4" font-family="Helvetica,sans-Serif" font-size="12.00">std::mutex</text>
</a>
</g>
</g>
<!-- Node5&#45;&gt;Node3 -->
<g id="edge5_Node000003_Node000005" class="edge">
<title>Node5&#45;&gt;Node3</title>
<g id="a_edge5_Node000003_Node000005"><a xlink:title=" ">
<path fill="none" stroke="#9a32cd" stroke-dasharray="5,2" d="M433.77,-70.74C409.11,-56.03 371.95,-33.85 350.79,-21.22"/>
<polygon fill="#9a32cd" stroke="#9a32cd" points="432.16,-73.86 442.54,-75.98 435.75,-67.85 432.16,-73.86"/>
</a>
</g>
<text text-anchor="start" x="414" y="-44.9" font-family="Helvetica,sans-Serif" font-size="12.00" fill="grey">s_mutex</text>
</g>
</g>
</svg>
