<?xml version="1.0" encoding="UTF-8" standalone="no"?>
<!DOCTYPE svg PUBLIC "-//W3C//DTD SVG 1.1//EN"
 "http://www.w3.org/Graphics/SVG/1.1/DTD/svg11.dtd">
<!-- Generated by graphviz version 2.43.0 (0)
 -->
<!-- Title: JKQTPXYAndVectorGraph Pages: 1 -->
<svg width="207pt" height="384pt"
 viewBox="0.00 0.00 207.00 384.00" xmlns="http://www.w3.org/2000/svg" xmlns:xlink="http://www.w3.org/1999/xlink">

<svg id="main" version="1.1" xmlns="http://www.w3.org/2000/svg" xmlns:xlink="http://www.w3.org/1999/xlink" xml:space="preserve">

<style type="text/css"><![CDATA[
.node, .edge {opacity: 0.7;}
.node.selected, .edge.selected {opacity: 1;}
.edge:hover path { stroke: red; }
.edge:hover polygon { stroke: red; fill: red; }
]]></style>
<script type="application/ecmascript" xlink:href="svg.min.js"/>
<svg id="graph" class="graph">
<g id="graph0" class="graph" transform="scale(1 1) rotate(0) translate(4 380)">
<title>JKQTPXYAndVectorGraph</title>
<!-- Node1 -->
<g id="Node000001" class="node">
<title>Node1</title>
<g id="a_Node000001"><a xlink:title="This virtual JKQTPGraph descendent extends JKQTPXYGraph with two additional columns that encode for a...">
<polygon fill="#999999" stroke="#666666" points="183,-148 16,-148 16,-127 183,-127 183,-148"/>
<text text-anchor="middle" x="99.5" y="-134.4" font-family="Helvetica,sans-Serif" font-size="12.00">JKQTPXYAndVectorGraph</text>
</a>
</g>
</g>
<!-- Node6 -->
<g id="Node000006" class="node">
<title>Node6</title>
<g id="a_Node000006"><a xlink:href="class_j_k_q_t_p_vector_field_graph.html" target="_top" xlink:title="This graph plots a vector field, i.e. a set of vectors (dx,dy) or (angle,length) at positions (x,...">
<polygon fill="white" stroke="#666666" points="177,-91 22,-91 22,-70 177,-70 177,-91"/>
<text text-anchor="middle" x="99.5" y="-77.4" font-family="Helvetica,sans-Serif" font-size="12.00">JKQTPVectorFieldGraph</text>
</a>
</g>
</g>
<!-- Node1&#45;&gt;Node6 -->
<g id="edge5_Node000001_Node000006" class="edge">
<title>Node1&#45;&gt;Node6</title>
<g id="a_edge5_Node000001_Node000006"><a xlink:title=" ">
<path fill="none" stroke="#63b8ff" d="M99.5,-116.86C99.5,-108.2 99.5,-98.42 99.5,-91.34"/>
<polygon fill="#63b8ff" stroke="#63b8ff" points="96,-116.92 99.5,-126.92 103,-116.92 96,-116.92"/>
</a>
</g>
</g>
<!-- Node2 -->
<g id="Node000002" class="node">
<title>Node2</title>
<g id="a_Node000002"><a xlink:href="class_j_k_q_t_p_x_y_graph.html" target="_top" xlink:title="This virtual JKQTPGraph descendent may be used as base for all graphs that use at least two columns t...">
<polygon fill="white" stroke="#666666" points="152,-205 47,-205 47,-184 152,-184 152,-205"/>
<text text-anchor="middle" x="99.5" y="-191.4" font-family="Helvetica,sans-Serif" font-size="12.00">JKQTPXYGraph</text>
</a>
</g>
</g>
<!-- Node2&#45;&gt;Node1 -->
<g id="edge1_Node000001_Node000002" class="edge">
<title>Node2&#45;&gt;Node1</title>
<g id="a_edge1_Node000001_Node000002"><a xlink:title=" ">
<path fill="none" stroke="#63b8ff" d="M99.5,-173.86C99.5,-165.2 99.5,-155.42 99.5,-148.34"/>
<polygon fill="#63b8ff" stroke="#63b8ff" points="96,-173.92 99.5,-183.92 103,-173.92 96,-173.92"/>
</a>
</g>
</g>
<!-- Node3 -->
<g id="Node000003" class="node">
<title>Node3</title>
<g id="a_Node000003"><a xlink:href="class_j_k_q_t_p_graph.html" target="_top" xlink:title="this virtual base class of the (data&#45;column based) graphs, which are part of a JKQTPlotter plot and w...">
<polygon fill="white" stroke="#666666" points="144,-262 55,-262 55,-241 144,-241 144,-262"/>
<text text-anchor="middle" x="99.5" y="-248.4" font-family="Helvetica,sans-Serif" font-size="12.00">JKQTPGraph</text>
</a>
</g>
</g>
<!-- Node3&#45;&gt;Node2 -->
<g id="edge2_Node000002_Node000003" class="edge">
<title>Node3&#45;&gt;Node2</title>
<g id="a_edge2_Node000002_Node000003"><a xlink:title=" ">
<path fill="none" stroke="#63b8ff" d="M99.5,-230.86C99.5,-222.2 99.5,-212.42 99.5,-205.34"/>
<polygon fill="#63b8ff" stroke="#63b8ff" points="96,-230.92 99.5,-240.92 103,-230.92 96,-230.92"/>
</a>
</g>
</g>
<!-- Node4 -->
<g id="Node000004" class="node">
<title>Node4</title>
<g id="a_Node000004"><a xlink:href="class_j_k_q_t_p_plot_element.html" target="_top" xlink:title="this virtual base class of every element, which is part of a JKQTPlotter plot and may appear in its k...">
<polygon fill="white" stroke="#666666" points="162,-319 37,-319 37,-298 162,-298 162,-319"/>
<text text-anchor="middle" x="99.5" y="-305.4" font-family="Helvetica,sans-Serif" font-size="12.00">JKQTPPlotElement</text>
</a>
</g>
</g>
<!-- Node4&#45;&gt;Node3 -->
<g id="edge3_Node000003_Node000004" class="edge">
<title>Node4&#45;&gt;Node3</title>
<g id="a_edge3_Node000003_Node000004"><a xlink:title=" ">
<path fill="none" stroke="#63b8ff" d="M99.5,-287.86C99.5,-279.2 99.5,-269.42 99.5,-262.34"/>
<polygon fill="#63b8ff" stroke="#63b8ff" points="96,-287.92 99.5,-297.92 103,-287.92 96,-287.92"/>
</a>
</g>
</g>
<!-- Node5 -->
<g id="Node000005" class="node">
<title>Node5</title>
<g id="a_Node000005"><a xlink:title=" ">
<polygon fill="white" stroke="#666666" points="132,-376 67,-376 67,-355 132,-355 132,-376"/>
<text text-anchor="middle" x="99.5" y="-362.4" font-family="Helvetica,sans-Serif" font-size="12.00">QObject</text>
</a>
</g>
</g>
<!-- Node5&#45;&gt;Node4 -->
<g id="edge4_Node000004_Node000005" class="edge">
<title>Node5&#45;&gt;Node4</title>
<g id="a_edge4_Node000004_Node000005"><a xlink:title=" ">
<path fill="none" stroke="#63b8ff" d="M99.5,-344.86C99.5,-336.2 99.5,-326.42 99.5,-319.34"/>
<polygon fill="#63b8ff" stroke="#63b8ff" points="96,-344.92 99.5,-354.92 103,-344.92 96,-344.92"/>
</a>
</g>
</g>
<!-- Node7 -->
<g id="Node000007" class="node">
<title>Node7</title>
<g id="a_Node000007"><a xlink:href="class_j_k_q_t_p_parametrized_vector_field_graph.html" target="_top" xlink:title="This graph plots a vector field, i.e. a set of vectors (dx,dy) or (angle,length) at positions (x,...">
<polygon fill="white" stroke="#666666" points="199,-34 0,-34 0,0 199,0 199,-34"/>
<text text-anchor="start" x="8" y="-20.4" font-family="Helvetica,sans-Serif" font-size="12.00">JKQTPParametrizedVectorField</text>
<text text-anchor="middle" x="99.5" y="-7.4" font-family="Helvetica,sans-Serif" font-size="12.00">Graph</text>
</a>
</g>
</g>
<!-- Node6&#45;&gt;Node7 -->
<g id="edge6_Node000006_Node000007" class="edge">
<title>Node6&#45;&gt;Node7</title>
<g id="a_edge6_Node000006_Node000007"><a xlink:title=" ">
<path fill="none" stroke="#63b8ff" d="M99.5,-59.77C99.5,-51.61 99.5,-42.26 99.5,-34.48"/>
<polygon fill="#63b8ff" stroke="#63b8ff" points="96,-59.89 99.5,-69.89 103,-59.89 96,-59.89"/>
</a>
</g>
</g>
</g>
</svg>
</svg>

<style type='text/css'>
<![CDATA[
[data-mouse-over-selected='false'] { opacity: 0.7; }
[data-mouse-over-selected='true']  { opacity: 1.0; }
]]>
</style>
<script type="application/ecmascript"><![CDATA[
document.addEventListener('DOMContentLoaded', (event) => {
  highlightEdges();
  highlightAdjacentNodes();
});
]]></script>
</svg>
