<?xml version="1.0" encoding="UTF-8" standalone="no"?>
<!DOCTYPE svg PUBLIC "-//W3C//DTD SVG 1.1//EN"
 "http://www.w3.org/Graphics/SVG/1.1/DTD/svg11.dtd">
<!-- Generated by graphviz version 2.43.0 (0)
 -->
<!-- Title: JKQTMathTextNoopNode Pages: 1 -->
<svg width="506pt" height="163pt"
 viewBox="0.00 0.00 505.50 163.00" xmlns="http://www.w3.org/2000/svg" xmlns:xlink="http://www.w3.org/1999/xlink">
<g id="graph0" class="graph" transform="scale(1 1) rotate(0) translate(4 159)">
<title>JKQTMathTextNoopNode</title>
<!-- Node1 -->
<g id="Node000001" class="node">
<title>Node1</title>
<g id="a_Node000001"><a xlink:title="subclass representing a node that outputs nothing">
<polygon fill="#999999" stroke="#666666" points="197.5,-21 35.5,-21 35.5,0 197.5,0 197.5,-21"/>
<text text-anchor="middle" x="116.5" y="-7.4" font-family="Helvetica,sans-Serif" font-size="12.00">JKQTMathTextNoopNode</text>
</a>
</g>
</g>
<!-- Node2 -->
<g id="Node000002" class="node">
<title>Node2</title>
<g id="a_Node000002"><a xlink:href="class_j_k_q_t_math_text_non_drawing_base_node.html" target="_top" xlink:title="base class for all derived classes that do not draw anything">
<polygon fill="white" stroke="#666666" points="233,-79 0,-79 0,-58 233,-58 233,-79"/>
<text text-anchor="middle" x="116.5" y="-65.4" font-family="Helvetica,sans-Serif" font-size="12.00">JKQTMathTextNonDrawingBaseNode</text>
</a>
</g>
</g>
<!-- Node2&#45;&gt;Node1 -->
<g id="edge1_Node000001_Node000002" class="edge">
<title>Node2&#45;&gt;Node1</title>
<g id="a_edge1_Node000001_Node000002"><a xlink:title=" ">
<path fill="none" stroke="#63b8ff" d="M116.5,-47.66C116.5,-38.66 116.5,-28.42 116.5,-21.14"/>
<polygon fill="#63b8ff" stroke="#63b8ff" points="113,-47.75 116.5,-57.75 120,-47.75 113,-47.75"/>
</a>
</g>
</g>
<!-- Node3 -->
<g id="Node000003" class="node">
<title>Node3</title>
<g id="a_Node000003"><a xlink:href="class_j_k_q_t_math_text_node.html" target="_top" xlink:title="subclass representing one node in the syntax tree">
<polygon fill="white" stroke="#666666" points="215,-155 84,-155 84,-134 215,-134 215,-155"/>
<text text-anchor="middle" x="149.5" y="-141.4" font-family="Helvetica,sans-Serif" font-size="12.00">JKQTMathTextNode</text>
</a>
</g>
</g>
<!-- Node3&#45;&gt;Node2 -->
<g id="edge2_Node000002_Node000003" class="edge">
<title>Node3&#45;&gt;Node2</title>
<g id="a_edge2_Node000002_Node000003"><a xlink:title=" ">
<path fill="none" stroke="#63b8ff" d="M135.8,-125.34C133.86,-122.31 132.01,-119.14 130.5,-116 124.65,-103.84 120.64,-88.72 118.46,-79.08"/>
<polygon fill="#63b8ff" stroke="#63b8ff" points="133.08,-127.57 141.67,-133.78 138.83,-123.57 133.08,-127.57"/>
</a>
</g>
</g>
<!-- Node3&#45;&gt;Node3 -->
<g id="edge7_Node000003_Node000003" class="edge">
<title>Node3&#45;&gt;Node3</title>
<g id="a_edge7_Node000003_Node000003"><a xlink:title=" ">
<path fill="none" stroke="#9a32cd" stroke-dasharray="5,2" d="M225.52,-149.46C230.19,-148.29 233,-146.63 233,-144.5 233,-141.09 225.81,-138.9 215.31,-137.94"/>
<polygon fill="#9a32cd" stroke="#9a32cd" points="224.65,-146.06 215.31,-151.06 225.73,-152.97 224.65,-146.06"/>
</a>
</g>
<text text-anchor="start" x="236.5" y="-140.9" font-family="Helvetica,sans-Serif" font-size="12.00" fill="grey">parentNode</text>
</g>
<!-- Node4 -->
<g id="Node000004" class="node">
<title>Node4</title>
<g id="a_Node000004"><a xlink:href="class_j_k_q_t_math_text.html" target="_top" xlink:title="this class parses a mathematical markup string and can then draw the contained text/equation onto a Q...">
<polygon fill="white" stroke="#666666" points="383,-79 284,-79 284,-58 383,-58 383,-79"/>
<text text-anchor="middle" x="333.5" y="-65.4" font-family="Helvetica,sans-Serif" font-size="12.00">JKQTMathText</text>
</a>
</g>
</g>
<!-- Node3&#45;&gt;Node4 -->
<g id="edge5_Node000004_Node000003" class="edge">
<title>Node3&#45;&gt;Node4</title>
<g id="a_edge5_Node000004_Node000003"><a xlink:title=" ">
<path fill="none" stroke="#9a32cd" stroke-dasharray="5,2" d="M142.38,-123.8C140.41,-114.65 140.27,-104.22 146.5,-97 151,-91.78 230.13,-81.57 284,-75.17"/>
<polygon fill="#9a32cd" stroke="#9a32cd" points="139.1,-125.07 145.26,-133.69 145.82,-123.11 139.1,-125.07"/>
</a>
</g>
<text text-anchor="start" x="150" y="-102.9" font-family="Helvetica,sans-Serif" font-size="12.00" fill="grey">parsedNode</text>
</g>
<!-- Node4&#45;&gt;Node3 -->
<g id="edge3_Node000003_Node000004" class="edge">
<title>Node4&#45;&gt;Node3</title>
<g id="a_edge3_Node000003_Node000004"><a xlink:title=" ">
<path fill="none" stroke="#9a32cd" stroke-dasharray="5,2" d="M281,-82.19C269.83,-86.05 258.43,-90.93 248.5,-97 238.31,-103.23 239.63,-109.67 229.5,-116 217.04,-123.78 202.11,-129.68 188.54,-133.98"/>
<polygon fill="#9a32cd" stroke="#9a32cd" points="282.27,-85.46 290.71,-79.06 280.12,-78.8 282.27,-85.46"/>
</a>
</g>
<text text-anchor="start" x="251.5" y="-102.9" font-family="Helvetica,sans-Serif" font-size="12.00" fill="grey">parentMathText</text>
</g>
<!-- Node5 -->
<g id="Node000005" class="node">
<title>Node5</title>
<g id="a_Node000005"><a xlink:title=" ">
<polygon fill="white" stroke="#666666" points="399,-155 334,-155 334,-134 399,-134 399,-155"/>
<text text-anchor="middle" x="366.5" y="-141.4" font-family="Helvetica,sans-Serif" font-size="12.00">QObject</text>
</a>
</g>
</g>
<!-- Node5&#45;&gt;Node4 -->
<g id="edge4_Node000004_Node000005" class="edge">
<title>Node5&#45;&gt;Node4</title>
<g id="a_edge4_Node000004_Node000005"><a xlink:title=" ">
<path fill="none" stroke="#63b8ff" d="M362.11,-124.1C359.81,-115.56 356.61,-105.55 352.5,-97 349.48,-90.73 345.12,-84.29 341.33,-79.22"/>
<polygon fill="#63b8ff" stroke="#63b8ff" points="358.74,-125.05 364.54,-133.92 365.53,-123.37 358.74,-125.05"/>
</a>
</g>
</g>
<!-- Node6 -->
<g id="Node000006" class="node">
<title>Node6</title>
<g id="a_Node000006"><a xlink:title=" ">
<polygon fill="white" stroke="#666666" points="497.5,-155 417.5,-155 417.5,-134 497.5,-134 497.5,-155"/>
<text text-anchor="middle" x="457.5" y="-141.4" font-family="Helvetica,sans-Serif" font-size="12.00">std::mutex</text>
</a>
</g>
</g>
<!-- Node6&#45;&gt;Node4 -->
<g id="edge6_Node000004_Node000006" class="edge">
<title>Node6&#45;&gt;Node4</title>
<g id="a_edge6_Node000004_Node000006"><a xlink:title=" ">
<path fill="none" stroke="#9a32cd" stroke-dasharray="5,2" d="M432.77,-128.74C408.11,-114.03 370.95,-91.85 349.79,-79.22"/>
<polygon fill="#9a32cd" stroke="#9a32cd" points="431.16,-131.86 441.54,-133.98 434.75,-125.85 431.16,-131.86"/>
</a>
</g>
<text text-anchor="start" x="413" y="-102.9" font-family="Helvetica,sans-Serif" font-size="12.00" fill="grey">s_mutex</text>
</g>
</g>
</svg>
