<?xml version="1.0" encoding="UTF-8" standalone="no"?>
<!DOCTYPE svg PUBLIC "-//W3C//DTD SVG 1.1//EN"
 "http://www.w3.org/Graphics/SVG/1.1/DTD/svg11.dtd">
<!-- Generated by graphviz version 2.43.0 (0)
 -->
<!-- Title: JKQTPVerticalAxisBase Pages: 1 -->
<svg width="346pt" height="200pt"
 viewBox="0.00 0.00 345.50 200.00" xmlns="http://www.w3.org/2000/svg" xmlns:xlink="http://www.w3.org/1999/xlink">

<svg id="main" version="1.1" xmlns="http://www.w3.org/2000/svg" xmlns:xlink="http://www.w3.org/1999/xlink" xml:space="preserve">

<style type="text/css"><![CDATA[
.node, .edge {opacity: 0.7;}
.node.selected, .edge.selected {opacity: 1;}
.edge:hover path { stroke: red; }
.edge:hover polygon { stroke: red; fill: red; }
]]></style>
<script type="application/ecmascript" xlink:href="svg.min.js"/>
<svg id="graph" class="graph">
<g id="graph0" class="graph" transform="scale(1 1) rotate(0) translate(4 196)">
<title>JKQTPVerticalAxisBase</title>
<!-- Node1 -->
<g id="Node000001" class="node">
<title>Node1</title>
<g id="a_Node000001"><a xlink:title="base class for vertical axes, based on JKQTPCoordinateAxis (for most of documentation: see JKQTPCoord...">
<polygon fill="#999999" stroke="#666666" points="225.5,-78 74.5,-78 74.5,-57 225.5,-57 225.5,-78"/>
<text text-anchor="middle" x="150" y="-64.4" font-family="Helvetica,sans-Serif" font-size="12.00">JKQTPVerticalAxisBase</text>
</a>
</g>
</g>
<!-- Node4 -->
<g id="Node000004" class="node">
<title>Node4</title>
<g id="a_Node000004"><a xlink:href="class_j_k_q_t_p_vertical_axis.html" target="_top" xlink:title="implements a vertical axis for use as primary, secondary, ... axis of a JKQTPBasePlotter,...">
<polygon fill="white" stroke="#666666" points="122,-21 0,-21 0,0 122,0 122,-21"/>
<text text-anchor="middle" x="61" y="-7.4" font-family="Helvetica,sans-Serif" font-size="12.00">JKQTPVerticalAxis</text>
</a>
</g>
</g>
<!-- Node1&#45;&gt;Node4 -->
<g id="edge3_Node000001_Node000004" class="edge">
<title>Node1&#45;&gt;Node4</title>
<g id="a_edge3_Node000001_Node000004"><a xlink:title=" ">
<path fill="none" stroke="#63b8ff" d="M125.85,-51.58C110.19,-41.9 90.23,-29.57 76.62,-21.16"/>
<polygon fill="#63b8ff" stroke="#63b8ff" points="124.15,-54.64 134.5,-56.92 127.83,-48.69 124.15,-54.64"/>
</a>
</g>
</g>
<!-- Node5 -->
<g id="Node000005" class="node">
<title>Node5</title>
<g id="a_Node000005"><a xlink:href="class_j_k_q_t_p_vertical_independent_axis.html" target="_top" xlink:title="implements a position&#45;indipendent vertical axis, based on JKQTPCoordinateAxis (for most of documentat...">
<polygon fill="white" stroke="#666666" points="337.5,-21 140.5,-21 140.5,0 337.5,0 337.5,-21"/>
<text text-anchor="middle" x="239" y="-7.4" font-family="Helvetica,sans-Serif" font-size="12.00">JKQTPVerticalIndependentAxis</text>
</a>
</g>
</g>
<!-- Node1&#45;&gt;Node5 -->
<g id="edge4_Node000001_Node000005" class="edge">
<title>Node1&#45;&gt;Node5</title>
<g id="a_edge4_Node000001_Node000005"><a xlink:title=" ">
<path fill="none" stroke="#63b8ff" d="M174.15,-51.58C189.81,-41.9 209.77,-29.57 223.38,-21.16"/>
<polygon fill="#63b8ff" stroke="#63b8ff" points="172.17,-48.69 165.5,-56.92 175.85,-54.64 172.17,-48.69"/>
</a>
</g>
</g>
<!-- Node2 -->
<g id="Node000002" class="node">
<title>Node2</title>
<g id="a_Node000002"><a xlink:href="class_j_k_q_t_p_coordinate_axis.html" target="_top" xlink:title="this virtual class is the base for any type of coordinate axis, to be drawn by JKQTBasePlotter.">
<polygon fill="white" stroke="#666666" points="221,-135 79,-135 79,-114 221,-114 221,-135"/>
<text text-anchor="middle" x="150" y="-121.4" font-family="Helvetica,sans-Serif" font-size="12.00">JKQTPCoordinateAxis</text>
</a>
</g>
</g>
<!-- Node2&#45;&gt;Node1 -->
<g id="edge1_Node000001_Node000002" class="edge">
<title>Node2&#45;&gt;Node1</title>
<g id="a_edge1_Node000001_Node000002"><a xlink:title=" ">
<path fill="none" stroke="#63b8ff" d="M150,-103.86C150,-95.2 150,-85.42 150,-78.34"/>
<polygon fill="#63b8ff" stroke="#63b8ff" points="146.5,-103.92 150,-113.92 153.5,-103.92 146.5,-103.92"/>
</a>
</g>
</g>
<!-- Node3 -->
<g id="Node000003" class="node">
<title>Node3</title>
<g id="a_Node000003"><a xlink:title=" ">
<polygon fill="white" stroke="#666666" points="182.5,-192 117.5,-192 117.5,-171 182.5,-171 182.5,-192"/>
<text text-anchor="middle" x="150" y="-178.4" font-family="Helvetica,sans-Serif" font-size="12.00">QObject</text>
</a>
</g>
</g>
<!-- Node3&#45;&gt;Node2 -->
<g id="edge2_Node000002_Node000003" class="edge">
<title>Node3&#45;&gt;Node2</title>
<g id="a_edge2_Node000002_Node000003"><a xlink:title=" ">
<path fill="none" stroke="#63b8ff" d="M150,-160.86C150,-152.2 150,-142.42 150,-135.34"/>
<polygon fill="#63b8ff" stroke="#63b8ff" points="146.5,-160.92 150,-170.92 153.5,-160.92 146.5,-160.92"/>
</a>
</g>
</g>
</g>
</svg>
</svg>

<style type='text/css'>
<![CDATA[
[data-mouse-over-selected='false'] { opacity: 0.7; }
[data-mouse-over-selected='true']  { opacity: 1.0; }
]]>
</style>
<script type="application/ecmascript"><![CDATA[
document.addEventListener('DOMContentLoaded', (event) => {
  highlightEdges();
  highlightAdjacentNodes();
});
]]></script>
</svg>
