<?xml version="1.0" encoding="UTF-8" standalone="no"?>
<!DOCTYPE svg PUBLIC "-//W3C//DTD SVG 1.1//EN"
 "http://www.w3.org/Graphics/SVG/1.1/DTD/svg11.dtd">
<!-- Generated by graphviz version 2.43.0 (0)
 -->
<!-- Title: JKQTPGraphErrorStyleMixin Pages: 1 -->
<svg width="599pt" height="383pt"
 viewBox="0.00 0.00 599.00 382.50" xmlns="http://www.w3.org/2000/svg" xmlns:xlink="http://www.w3.org/1999/xlink">
<g id="graph0" class="graph" transform="scale(1 1) rotate(0) translate(4 378.5)">
<title>JKQTPGraphErrorStyleMixin</title>
<!-- Node1 -->
<g id="Node000001" class="node">
<title>Node1</title>
<g id="a_Node000001"><a xlink:title="This mix&#45;in class assembles all styling properties applicable to error indicators.">
<polygon fill="#999999" stroke="#666666" points="179,-197.5 0,-197.5 0,-176.5 179,-176.5 179,-197.5"/>
<text text-anchor="middle" x="89.5" y="-183.9" font-family="Helvetica,sans-Serif" font-size="12.00">JKQTPGraphErrorStyleMixin</text>
</a>
</g>
</g>
<!-- Node2 -->
<g id="Node000002" class="node">
<title>Node2</title>
<g id="a_Node000002"><a xlink:href="class_j_k_q_t_p_x_graph_errors.html" target="_top" xlink:title="This class is the base class for graphs that only display error indicators in x&#45;direction.">
<polygon fill="white" stroke="#666666" points="351.5,-312.5 218.5,-312.5 218.5,-291.5 351.5,-291.5 351.5,-312.5"/>
<text text-anchor="middle" x="285" y="-298.9" font-family="Helvetica,sans-Serif" font-size="12.00">JKQTPXGraphErrors</text>
</a>
</g>
</g>
<!-- Node1&#45;&gt;Node2 -->
<g id="edge1_Node000001_Node000002" class="edge">
<title>Node1&#45;&gt;Node2</title>
<g id="a_edge1_Node000001_Node000002"><a xlink:title=" ">
<path fill="none" stroke="#63b8ff" d="M117.05,-202.78C157.13,-226.6 232.02,-271.11 266.19,-291.41"/>
<polygon fill="#63b8ff" stroke="#63b8ff" points="118.74,-199.71 108.36,-197.61 115.17,-205.73 118.74,-199.71"/>
</a>
</g>
</g>
<!-- Node6 -->
<g id="Node000006" class="node">
<title>Node6</title>
<g id="a_Node000006"><a xlink:href="class_j_k_q_t_p_x_y_graph_errors.html" target="_top" xlink:title="This class is the base class for graphs that only display error indicators in x&#45; and y&#45;direction.">
<polygon fill="white" stroke="#666666" points="355,-197.5 215,-197.5 215,-176.5 355,-176.5 355,-197.5"/>
<text text-anchor="middle" x="285" y="-183.9" font-family="Helvetica,sans-Serif" font-size="12.00">JKQTPXYGraphErrors</text>
</a>
</g>
</g>
<!-- Node1&#45;&gt;Node6 -->
<g id="edge5_Node000001_Node000006" class="edge">
<title>Node1&#45;&gt;Node6</title>
<g id="a_edge5_Node000001_Node000006"><a xlink:title=" ">
<path fill="none" stroke="#63b8ff" d="M189.22,-187C197.9,-187 206.56,-187 214.92,-187"/>
<polygon fill="#63b8ff" stroke="#63b8ff" points="189.04,-183.5 179.04,-187 189.04,-190.5 189.04,-183.5"/>
</a>
</g>
</g>
<!-- Node10 -->
<g id="Node000010" class="node">
<title>Node10</title>
<g id="a_Node000010"><a xlink:href="class_j_k_q_t_p_y_graph_errors.html" target="_top" xlink:title="This class is the base class for graphs that only display error indicators in y&#45;direction.">
<polygon fill="white" stroke="#666666" points="350.5,-93.5 219.5,-93.5 219.5,-72.5 350.5,-72.5 350.5,-93.5"/>
<text text-anchor="middle" x="285" y="-79.9" font-family="Helvetica,sans-Serif" font-size="12.00">JKQTPYGraphErrors</text>
</a>
</g>
</g>
<!-- Node1&#45;&gt;Node10 -->
<g id="edge9_Node000001_Node000010" class="edge">
<title>Node1&#45;&gt;Node10</title>
<g id="a_edge9_Node000001_Node000010"><a xlink:title=" ">
<path fill="none" stroke="#63b8ff" d="M119.05,-171.66C158.84,-150.27 229.96,-112.05 264.33,-93.57"/>
<polygon fill="#63b8ff" stroke="#63b8ff" points="117.27,-168.64 110.12,-176.46 120.58,-174.8 117.27,-168.64"/>
</a>
</g>
</g>
<!-- Node3 -->
<g id="Node000003" class="node">
<title>Node3</title>
<g id="a_Node000003"><a xlink:href="class_j_k_q_t_p_bar_horizontal_error_graph.html" target="_top" xlink:title="This implements a horizontal bar graph with bars between &#160;and &#160;and error indicator.">
<polygon fill="white" stroke="#666666" points="591,-374.5 391,-374.5 391,-353.5 591,-353.5 591,-374.5"/>
<text text-anchor="middle" x="491" y="-360.9" font-family="Helvetica,sans-Serif" font-size="12.00">JKQTPBarHorizontalErrorGraph</text>
</a>
</g>
</g>
<!-- Node2&#45;&gt;Node3 -->
<g id="edge2_Node000002_Node000003" class="edge">
<title>Node2&#45;&gt;Node3</title>
<g id="a_edge2_Node000002_Node000003"><a xlink:title=" ">
<path fill="none" stroke="#63b8ff" d="M317.26,-316.72C337.84,-325.93 365.57,-337.44 391,-345 401.9,-348.24 413.65,-351.07 425.11,-353.47"/>
<polygon fill="#63b8ff" stroke="#63b8ff" points="318.62,-313.49 308.07,-312.55 315.72,-319.87 318.62,-313.49"/>
</a>
</g>
</g>
<!-- Node4 -->
<g id="Node000004" class="node">
<title>Node4</title>
<g id="a_Node000004"><a xlink:href="class_j_k_q_t_p_filled_curve_y_error_graph.html" target="_top" xlink:title="This implements filled curve plots with y errors where the area is filled between the plot line and t...">
<polygon fill="white" stroke="#666666" points="586.5,-335.5 395.5,-335.5 395.5,-314.5 586.5,-314.5 586.5,-335.5"/>
<text text-anchor="middle" x="491" y="-321.9" font-family="Helvetica,sans-Serif" font-size="12.00">JKQTPFilledCurveYErrorGraph</text>
</a>
</g>
</g>
<!-- Node2&#45;&gt;Node4 -->
<g id="edge3_Node000002_Node000004" class="edge">
<title>Node2&#45;&gt;Node4</title>
<g id="a_edge3_Node000002_Node000004"><a xlink:title=" ">
<path fill="none" stroke="#63b8ff" d="M361.91,-310.56C373.21,-311.83 384.98,-313.16 396.59,-314.47"/>
<polygon fill="#63b8ff" stroke="#63b8ff" points="362,-307.05 351.67,-309.4 361.21,-314 362,-307.05"/>
</a>
</g>
</g>
<!-- Node5 -->
<g id="Node000005" class="node">
<title>Node5</title>
<g id="a_Node000005"><a xlink:href="class_j_k_q_t_p_impulses_horizontal_error_graph.html" target="_top" xlink:title="This implements an impulse plot with horizontal impulses in direction of the X axis (i....">
<polygon fill="white" stroke="#666666" points="589,-296 393,-296 393,-262 589,-262 589,-296"/>
<text text-anchor="start" x="401" y="-282.4" font-family="Helvetica,sans-Serif" font-size="12.00">JKQTPImpulsesHorizontalError</text>
<text text-anchor="middle" x="491" y="-269.4" font-family="Helvetica,sans-Serif" font-size="12.00">Graph</text>
</a>
</g>
</g>
<!-- Node2&#45;&gt;Node5 -->
<g id="edge4_Node000002_Node000005" class="edge">
<title>Node2&#45;&gt;Node5</title>
<g id="a_edge4_Node000002_Node000005"><a xlink:title=" ">
<path fill="none" stroke="#63b8ff" d="M361.7,-293.47C371.87,-292.32 382.41,-291.13 392.89,-289.95"/>
<polygon fill="#63b8ff" stroke="#63b8ff" points="361.21,-290 351.67,-294.6 362,-296.95 361.21,-290"/>
</a>
</g>
</g>
<!-- Node7 -->
<g id="Node000007" class="node">
<title>Node7</title>
<g id="a_Node000007"><a xlink:href="class_j_k_q_t_p_x_y_line_error_graph.html" target="_top" xlink:title="This implements xy line plots with x and y error indicators.">
<polygon fill="white" stroke="#666666" points="570.5,-243.5 411.5,-243.5 411.5,-222.5 570.5,-222.5 570.5,-243.5"/>
<text text-anchor="middle" x="491" y="-229.9" font-family="Helvetica,sans-Serif" font-size="12.00">JKQTPXYLineErrorGraph</text>
</a>
</g>
</g>
<!-- Node6&#45;&gt;Node7 -->
<g id="edge6_Node000006_Node000007" class="edge">
<title>Node6&#45;&gt;Node7</title>
<g id="a_edge6_Node000006_Node000007"><a xlink:title=" ">
<path fill="none" stroke="#63b8ff" d="M336.65,-200.01C353.86,-204.31 373.23,-209.01 391,-213 405.46,-216.25 421.16,-219.53 435.7,-222.47"/>
<polygon fill="#63b8ff" stroke="#63b8ff" points="337.34,-196.58 326.79,-197.54 335.64,-203.37 337.34,-196.58"/>
</a>
</g>
</g>
<!-- Node8 -->
<g id="Node000008" class="node">
<title>Node8</title>
<g id="a_Node000008"><a xlink:href="class_j_k_q_t_p_x_y_parametrized_error_scatter_graph.html" target="_top" xlink:title="This implements xy scatter plots (like JKQTPXYScatterGraph), but the color and size of the symbols ma...">
<polygon fill="white" stroke="#666666" points="580,-204 402,-204 402,-170 580,-170 580,-204"/>
<text text-anchor="start" x="410" y="-190.4" font-family="Helvetica,sans-Serif" font-size="12.00">JKQTPXYParametrizedError</text>
<text text-anchor="middle" x="491" y="-177.4" font-family="Helvetica,sans-Serif" font-size="12.00">ScatterGraph</text>
</a>
</g>
</g>
<!-- Node6&#45;&gt;Node8 -->
<g id="edge7_Node000006_Node000008" class="edge">
<title>Node6&#45;&gt;Node8</title>
<g id="a_edge7_Node000006_Node000008"><a xlink:title=" ">
<path fill="none" stroke="#63b8ff" d="M365.43,-187C377.36,-187 389.73,-187 401.84,-187"/>
<polygon fill="#63b8ff" stroke="#63b8ff" points="365.07,-183.5 355.07,-187 365.07,-190.5 365.07,-183.5"/>
</a>
</g>
</g>
<!-- Node9 -->
<g id="Node000009" class="node">
<title>Node9</title>
<g id="a_Node000009"><a xlink:href="class_j_k_q_t_p_x_y_scatter_error_graph.html" target="_top" xlink:title="This implements xy scatter plots with x and y error indicators.">
<polygon fill="white" stroke="#666666" points="580,-151.5 402,-151.5 402,-130.5 580,-130.5 580,-151.5"/>
<text text-anchor="middle" x="491" y="-137.9" font-family="Helvetica,sans-Serif" font-size="12.00">JKQTPXYScatterErrorGraph</text>
</a>
</g>
</g>
<!-- Node6&#45;&gt;Node9 -->
<g id="edge8_Node000006_Node000009" class="edge">
<title>Node6&#45;&gt;Node9</title>
<g id="a_edge8_Node000006_Node000009"><a xlink:title=" ">
<path fill="none" stroke="#63b8ff" d="M336.65,-173.99C353.86,-169.69 373.23,-164.99 391,-161 405.46,-157.75 421.16,-154.47 435.7,-151.53"/>
<polygon fill="#63b8ff" stroke="#63b8ff" points="335.64,-170.63 326.79,-176.46 337.34,-177.42 335.64,-170.63"/>
</a>
</g>
</g>
<!-- Node11 -->
<g id="Node000011" class="node">
<title>Node11</title>
<g id="a_Node000011"><a xlink:href="class_j_k_q_t_p_bar_vertical_error_graph.html" target="_top" xlink:title="This implements a vertical bar graph with bars between &#160;and &#160;and error indicator.">
<polygon fill="white" stroke="#666666" points="583.5,-112.5 398.5,-112.5 398.5,-91.5 583.5,-91.5 583.5,-112.5"/>
<text text-anchor="middle" x="491" y="-98.9" font-family="Helvetica,sans-Serif" font-size="12.00">JKQTPBarVerticalErrorGraph</text>
</a>
</g>
</g>
<!-- Node10&#45;&gt;Node11 -->
<g id="edge10_Node000010_Node000011" class="edge">
<title>Node10&#45;&gt;Node11</title>
<g id="a_edge10_Node000010_Node000011"><a xlink:title=" ">
<path fill="none" stroke="#63b8ff" d="M360.67,-89.95C372.91,-91.09 385.71,-92.29 398.29,-93.46"/>
<polygon fill="#63b8ff" stroke="#63b8ff" points="360.83,-86.45 350.55,-89.01 360.18,-93.42 360.83,-86.45"/>
</a>
</g>
</g>
<!-- Node12 -->
<g id="Node000012" class="node">
<title>Node12</title>
<g id="a_Node000012"><a xlink:href="class_j_k_q_t_p_filled_curve_x_error_graph.html" target="_top" xlink:title="This implements filled curve plots with y errors where the area is filled between the plot line and t...">
<polygon fill="white" stroke="#666666" points="587,-73.5 395,-73.5 395,-52.5 587,-52.5 587,-73.5"/>
<text text-anchor="middle" x="491" y="-59.9" font-family="Helvetica,sans-Serif" font-size="12.00">JKQTPFilledCurveXErrorGraph</text>
</a>
</g>
</g>
<!-- Node10&#45;&gt;Node12 -->
<g id="edge11_Node000010_Node000012" class="edge">
<title>Node10&#45;&gt;Node12</title>
<g id="a_edge11_Node000010_Node000012"><a xlink:title=" ">
<path fill="none" stroke="#63b8ff" d="M360.64,-75.68C371.8,-74.59 383.43,-73.45 394.94,-72.32"/>
<polygon fill="#63b8ff" stroke="#63b8ff" points="360.16,-72.21 350.55,-76.67 360.84,-79.18 360.16,-72.21"/>
</a>
</g>
</g>
<!-- Node13 -->
<g id="Node000013" class="node">
<title>Node13</title>
<g id="a_Node000013"><a xlink:href="class_j_k_q_t_p_impulses_vertical_error_graph.html" target="_top" xlink:title="This implements an impulse plot with impulses in direction of the X axis (i.e. from x=0 to x=f(y) )">
<polygon fill="white" stroke="#666666" points="581,-34 401,-34 401,0 581,0 581,-34"/>
<text text-anchor="start" x="409" y="-20.4" font-family="Helvetica,sans-Serif" font-size="12.00">JKQTPImpulsesVerticalError</text>
<text text-anchor="middle" x="491" y="-7.4" font-family="Helvetica,sans-Serif" font-size="12.00">Graph</text>
</a>
</g>
</g>
<!-- Node10&#45;&gt;Node13 -->
<g id="edge12_Node000010_Node000013" class="edge">
<title>Node10&#45;&gt;Node13</title>
<g id="a_edge12_Node000010_Node000013"><a xlink:title=" ">
<path fill="none" stroke="#63b8ff" d="M321.94,-68.74C342.09,-60.98 367.77,-51.46 391,-44 401.69,-40.57 413.11,-37.19 424.26,-34.04"/>
<polygon fill="#63b8ff" stroke="#63b8ff" points="320.58,-65.52 312.53,-72.4 323.12,-72.04 320.58,-65.52"/>
</a>
</g>
</g>
</g>
</svg>
