<?xml version="1.0" encoding="UTF-8" standalone="no"?>
<!DOCTYPE svg PUBLIC "-//W3C//DTD SVG 1.1//EN"
 "http://www.w3.org/Graphics/SVG/1.1/DTD/svg11.dtd">
<!-- Generated by graphviz version 2.43.0 (0)
 -->
<!-- Title: JKQTMathTextSuperscriptNode Pages: 1 -->
<svg width="523pt" height="163pt"
 viewBox="0.00 0.00 522.50 163.00" xmlns="http://www.w3.org/2000/svg" xmlns:xlink="http://www.w3.org/1999/xlink">
<g id="graph0" class="graph" transform="scale(1 1) rotate(0) translate(4 159)">
<title>JKQTMathTextSuperscriptNode</title>
<!-- Node1 -->
<g id="Node000001" class="node">
<title>Node1</title>
<g id="a_Node000001"><a xlink:title="subclass representing an superscript node with exactly one argument in the syntax tree">
<polygon fill="#999999" stroke="#666666" points="199,-21 0,-21 0,0 199,0 199,-21"/>
<text text-anchor="middle" x="99.5" y="-7.4" font-family="Helvetica,sans-Serif" font-size="12.00">JKQTMathTextSuperscriptNode</text>
</a>
</g>
</g>
<!-- Node2 -->
<g id="Node000002" class="node">
<title>Node2</title>
<g id="a_Node000002"><a xlink:href="class_j_k_q_t_math_text_single_child_node.html" target="_top" xlink:title="subclass representing a node in the syntax tree, that has one child">
<polygon fill="white" stroke="#666666" points="197.5,-79 1.5,-79 1.5,-58 197.5,-58 197.5,-79"/>
<text text-anchor="middle" x="99.5" y="-65.4" font-family="Helvetica,sans-Serif" font-size="12.00">JKQTMathTextSingleChildNode</text>
</a>
</g>
</g>
<!-- Node2&#45;&gt;Node1 -->
<g id="edge1_Node000001_Node000002" class="edge">
<title>Node2&#45;&gt;Node1</title>
<g id="a_edge1_Node000001_Node000002"><a xlink:title=" ">
<path fill="none" stroke="#63b8ff" d="M99.5,-47.66C99.5,-38.66 99.5,-28.42 99.5,-21.14"/>
<polygon fill="#63b8ff" stroke="#63b8ff" points="96,-47.75 99.5,-57.75 103,-47.75 96,-47.75"/>
</a>
</g>
</g>
<!-- Node3 -->
<g id="Node000003" class="node">
<title>Node3</title>
<g id="a_Node000003"><a xlink:href="class_j_k_q_t_math_text_node.html" target="_top" xlink:title="subclass representing one node in the syntax tree">
<polygon fill="white" stroke="#666666" points="204,-155 73,-155 73,-134 204,-134 204,-155"/>
<text text-anchor="middle" x="138.5" y="-141.4" font-family="Helvetica,sans-Serif" font-size="12.00">JKQTMathTextNode</text>
</a>
</g>
</g>
<!-- Node3&#45;&gt;Node2 -->
<g id="edge2_Node000002_Node000003" class="edge">
<title>Node3&#45;&gt;Node2</title>
<g id="a_edge2_Node000002_Node000003"><a xlink:title=" ">
<path fill="none" stroke="#63b8ff" d="M102.11,-128.48C97.47,-125.06 93.36,-120.93 90.5,-116 83.82,-104.47 89.2,-88.92 94.05,-79.04"/>
<polygon fill="#63b8ff" stroke="#63b8ff" points="100.51,-131.61 110.85,-133.92 104.21,-125.67 100.51,-131.61"/>
</a>
</g>
</g>
<!-- Node3&#45;&gt;Node2 -->
<g id="edge8_Node000002_Node000003" class="edge">
<title>Node3&#45;&gt;Node2</title>
<g id="a_edge8_Node000002_Node000003"><a xlink:title=" ">
<path fill="none" stroke="#9a32cd" stroke-dasharray="5,2" d="M118.67,-126.9C115.57,-123.56 112.68,-119.87 110.5,-116 103.98,-104.44 101.31,-89.16 100.23,-79.34"/>
<polygon fill="#9a32cd" stroke="#9a32cd" points="116.39,-129.57 126.02,-134 121.26,-124.54 116.39,-129.57"/>
</a>
</g>
<text text-anchor="start" x="113.5" y="-102.9" font-family="Helvetica,sans-Serif" font-size="12.00" fill="grey">child</text>
</g>
<!-- Node3&#45;&gt;Node3 -->
<g id="edge7_Node000003_Node000003" class="edge">
<title>Node3&#45;&gt;Node3</title>
<g id="a_edge7_Node000003_Node000003"><a xlink:title=" ">
<path fill="none" stroke="#9a32cd" stroke-dasharray="5,2" d="M214.52,-149.46C219.19,-148.29 222,-146.63 222,-144.5 222,-141.09 214.81,-138.9 204.31,-137.94"/>
<polygon fill="#9a32cd" stroke="#9a32cd" points="213.65,-146.06 204.31,-151.06 214.73,-152.97 213.65,-146.06"/>
</a>
</g>
<text text-anchor="start" x="225.5" y="-140.9" font-family="Helvetica,sans-Serif" font-size="12.00" fill="grey">parentNode</text>
</g>
<!-- Node4 -->
<g id="Node000004" class="node">
<title>Node4</title>
<g id="a_Node000004"><a xlink:href="class_j_k_q_t_math_text.html" target="_top" xlink:title="this class parses a mathematical markup string and can then draw the contained text/equation onto a Q...">
<polygon fill="white" stroke="#666666" points="328,-79 229,-79 229,-58 328,-58 328,-79"/>
<text text-anchor="middle" x="278.5" y="-65.4" font-family="Helvetica,sans-Serif" font-size="12.00">JKQTMathText</text>
</a>
</g>
</g>
<!-- Node3&#45;&gt;Node4 -->
<g id="edge5_Node000004_Node000003" class="edge">
<title>Node3&#45;&gt;Node4</title>
<g id="a_edge5_Node000004_Node000003"><a xlink:title=" ">
<path fill="none" stroke="#9a32cd" stroke-dasharray="5,2" d="M144.6,-124.2C148.56,-114.69 154.65,-103.82 163.5,-97 173.91,-88.99 202.66,-82.11 228.81,-77.24"/>
<polygon fill="#9a32cd" stroke="#9a32cd" points="141.26,-123.15 141.13,-133.74 147.84,-125.54 141.26,-123.15"/>
</a>
</g>
<text text-anchor="start" x="167" y="-102.9" font-family="Helvetica,sans-Serif" font-size="12.00" fill="grey">parsedNode</text>
</g>
<!-- Node4&#45;&gt;Node3 -->
<g id="edge3_Node000003_Node000004" class="edge">
<title>Node4&#45;&gt;Node3</title>
<g id="a_edge3_Node000003_Node000004"><a xlink:title=" ">
<path fill="none" stroke="#9a32cd" stroke-dasharray="5,2" d="M269.77,-88.18C264.35,-97.83 256.51,-109.02 246.5,-116 233.96,-124.74 218.87,-130.7 204.01,-134.77"/>
<polygon fill="#9a32cd" stroke="#9a32cd" points="272.9,-89.74 274.36,-79.25 266.68,-86.54 272.9,-89.74"/>
</a>
</g>
<text text-anchor="start" x="267.5" y="-102.9" font-family="Helvetica,sans-Serif" font-size="12.00" fill="grey">parentMathText</text>
</g>
<!-- Node5 -->
<g id="Node000005" class="node">
<title>Node5</title>
<g id="a_Node000005"><a xlink:title=" ">
<polygon fill="white" stroke="#666666" points="416,-155 351,-155 351,-134 416,-134 416,-155"/>
<text text-anchor="middle" x="383.5" y="-141.4" font-family="Helvetica,sans-Serif" font-size="12.00">QObject</text>
</a>
</g>
</g>
<!-- Node5&#45;&gt;Node4 -->
<g id="edge4_Node000004_Node000005" class="edge">
<title>Node5&#45;&gt;Node4</title>
<g id="a_edge4_Node000004_Node000005"><a xlink:title=" ">
<path fill="none" stroke="#63b8ff" d="M381.87,-123.97C380.13,-114.7 376.61,-104.12 369.5,-97 358.42,-85.91 343.03,-79.26 328.06,-75.29"/>
<polygon fill="#63b8ff" stroke="#63b8ff" points="378.41,-124.52 383.19,-133.97 385.35,-123.6 378.41,-124.52"/>
</a>
</g>
</g>
<!-- Node6 -->
<g id="Node000006" class="node">
<title>Node6</title>
<g id="a_Node000006"><a xlink:title=" ">
<polygon fill="white" stroke="#666666" points="514.5,-155 434.5,-155 434.5,-134 514.5,-134 514.5,-155"/>
<text text-anchor="middle" x="474.5" y="-141.4" font-family="Helvetica,sans-Serif" font-size="12.00">std::mutex</text>
</a>
</g>
</g>
<!-- Node6&#45;&gt;Node4 -->
<g id="edge6_Node000004_Node000006" class="edge">
<title>Node6&#45;&gt;Node4</title>
<g id="a_edge6_Node000004_Node000006"><a xlink:title=" ">
<path fill="none" stroke="#9a32cd" stroke-dasharray="5,2" d="M450.89,-128.64C434.03,-118.55 410.53,-105.55 388.5,-97 369.14,-89.48 347.06,-83.49 327.78,-79.04"/>
<polygon fill="#9a32cd" stroke="#9a32cd" points="449.16,-131.68 459.52,-133.89 452.8,-125.7 449.16,-131.68"/>
</a>
</g>
<text text-anchor="start" x="430" y="-102.9" font-family="Helvetica,sans-Serif" font-size="12.00" fill="grey">s_mutex</text>
</g>
</g>
</svg>
