<?xml version="1.0" encoding="UTF-8" standalone="no"?>
<!DOCTYPE svg PUBLIC "-//W3C//DTD SVG 1.1//EN"
 "http://www.w3.org/Graphics/SVG/1.1/DTD/svg11.dtd">
<!-- Generated by graphviz version 2.43.0 (0)
 -->
<!-- Title: JKQTBasePlotterStyle Pages: 1 -->
<!--zoomable 423 -->

<svg id="main" version="1.1" xmlns="http://www.w3.org/2000/svg" xmlns:xlink="http://www.w3.org/1999/xlink" xml:space="preserve" onload="init(evt)">

<style type="text/css"><![CDATA[
.node, .edge {opacity: 0.7;}
.node.selected, .edge.selected {opacity: 1;}
.edge:hover path { stroke: red; }
.edge:hover polygon { stroke: red; fill: red; }
]]></style>

<defs>
  <circle id="rim" cx="0" cy="0" r="7"/>
  <circle id="rim2" cx="0" cy="0" r="3.5"/>
  <g id="zoomPlus">
    <use xlink:href="#rim" fill="#404040"><set attributeName="fill" to="#808080" begin="zoomplus.mouseover" end="zoomplus.mouseout"/></use>
    <path d="M-4,0h8M0,-4v8" fill="none" stroke="white" stroke-width="1.5" pointer-events="none"/>
  </g>
  <g id="zoomMin">
    <use xlink:href="#rim" fill="#404040"><set attributeName="fill" to="#808080" begin="zoomminus.mouseover" end="zoomminus.mouseout"/></use>
    <path d="M-4,0h8" fill="none" stroke="white" stroke-width="1.5" pointer-events="none"/>
  </g>
  <g id="arrowUp" transform="translate(30 24)">
    <use xlink:href="#rim"/>
    <path pointer-events="none" fill="none" stroke="white" stroke-width="1.5" d="M0,-3.0v7 M-2.5,-0.5L0,-3.0L2.5,-0.5"/>
  </g>
  <g id="arrowRight" transform="rotate(90) translate(36 -43)">
    <use xlink:href="#rim"/>
    <path pointer-events="none" fill="none" stroke="white" stroke-width="1.5" d="M0,-3.0v7 M-2.5,-0.5L0,-3.0L2.5,-0.5"/>
  </g>
  <g id="arrowDown" transform="rotate(180) translate(-30 -48)">
    <use xlink:href="#rim"/>
    <path pointer-events="none" fill="none" stroke="white" stroke-width="1.5" d="M0,-3.0v7 M-2.5,-0.5L0,-3.0L2.5,-0.5"/>
  </g>
  <g id="arrowLeft" transform="rotate(270) translate(-36 17)">
    <use xlink:href="#rim"/>
    <path pointer-events="none" fill="none" stroke="white" stroke-width="1.5" d="M0,-3.0v7 M-2.5,-0.5L0,-3.0L2.5,-0.5"/>
  </g>
  <g id="resetDef">
    <use xlink:href="#rim2" fill="#404040"><set attributeName="fill" to="#808080" begin="reset.mouseover" end="reset.mouseout"/></use>
  </g>
</defs>
<script type="application/ecmascript">
var viewWidth = 2008;
var viewHeight = 423;
var sectionId = 'dynsection-0';
</script>
<script type="application/ecmascript" xlink:href="svg.min.js"/>
<svg id="graph" class="graph">
<g id="viewport">
<title>JKQTBasePlotterStyle</title>
<!-- Node1 -->
<g id="Node000001" class="node">
<title>Node1</title>
<g id="a_Node000001"><a xlink:title="Support Class for JKQTBasePlotter, which summarizes all properties that define the visual styling of ...">
<polygon fill="#999999" stroke="#666666" points="2000,-323.84 1857,-323.84 1857,-302.84 2000,-302.84 2000,-323.84"/>
<text text-anchor="middle" x="1928.5" y="-310.24" font-family="Helvetica,sans-Serif" font-size="12.00">JKQTBasePlotterStyle</text>
</a>
</g>
</g>
<!-- Node2 -->
<g id="Node000002" class="node">
<title>Node2</title>
<g id="a_Node000002"><a xlink:href="class_j_k_q_t_p_key_style.html" target="_top" xlink:title="Support Class for JKQTBasePlotter, which summarizes all properties that define the visual styling of ...">
<polygon fill="white" stroke="#666666" points="1637,-414.84 1533,-414.84 1533,-393.84 1637,-393.84 1637,-414.84"/>
<text text-anchor="middle" x="1585" y="-401.24" font-family="Helvetica,sans-Serif" font-size="12.00">JKQTPKeyStyle</text>
</a>
</g>
</g>
<!-- Node2&#45;&gt;Node1 -->
<g id="edge1_Node000001_Node000002" class="edge">
<title>Node2&#45;&gt;Node1</title>
<g id="a_edge1_Node000001_Node000002"><a xlink:title=" ">
<path fill="none" stroke="#9a32cd" stroke-dasharray="5,2" d="M1647.3,-395.95C1699.16,-387.92 1775.03,-373.96 1839,-353.34 1863.39,-345.48 1890.02,-332.86 1907.63,-323.89"/>
<polygon fill="#9a32cd" stroke="#9a32cd" points="1646.62,-392.52 1637.26,-397.48 1647.68,-399.44 1646.62,-392.52"/>
</a>
</g>
<text text-anchor="start" x="1744.5" y="-392.24" font-family="Helvetica,sans-Serif" font-size="12.00" fill="grey">keyStyle</text>
</g>
<!-- Node3 -->
<g id="Node000003" class="node">
<title>Node3</title>
<g id="a_Node000003"><a xlink:href="class_j_k_q_t_p_coordinate_axis_style.html" target="_top" xlink:title="Support Class for JKQTPCoordinateAxis, which summarizes all properties that define the visual styling...">
<polygon fill="white" stroke="#666666" points="1342,-349.84 1171,-349.84 1171,-328.84 1342,-328.84 1342,-349.84"/>
<text text-anchor="middle" x="1256.5" y="-336.24" font-family="Helvetica,sans-Serif" font-size="12.00">JKQTPCoordinateAxisStyle</text>
</a>
</g>
</g>
<!-- Node3&#45;&gt;Node1 -->
<g id="edge2_Node000001_Node000003" class="edge">
<title>Node3&#45;&gt;Node1</title>
<g id="a_edge2_Node000001_Node000003"><a xlink:title=" ">
<path fill="none" stroke="#9a32cd" stroke-dasharray="5,2" d="M1352.6,-340.28C1467.89,-340.67 1668,-338.95 1839,-325.34 1844.72,-324.89 1850.63,-324.31 1856.57,-323.66"/>
<polygon fill="#9a32cd" stroke="#9a32cd" points="1352.41,-336.78 1342.4,-340.24 1352.38,-343.78 1352.41,-336.78"/>
</a>
</g>
<text text-anchor="start" x="1555" y="-362.74" font-family="Helvetica,sans-Serif" font-size="12.00" fill="grey">xAxisStyle</text>
<text text-anchor="start" x="1555" y="-345.74" font-family="Helvetica,sans-Serif" font-size="12.00" fill="grey">yAxisStyle</text>
</g>
<!-- Node5 -->
<g id="Node000005" class="node">
<title>Node5</title>
<g id="a_Node000005"><a xlink:href="class_j_k_q_t_p_colorbar_coordinate_axis_style.html" target="_top" xlink:title="Support Class for JKQTPCoordinateAxis, which summarizes all properties that define the visual styling...">
<polygon fill="white" stroke="#666666" points="1682,-303.34 1488,-303.34 1488,-269.34 1682,-269.34 1682,-303.34"/>
<text text-anchor="start" x="1496" y="-289.74" font-family="Helvetica,sans-Serif" font-size="12.00">JKQTPColorbarCoordinateAxis</text>
<text text-anchor="middle" x="1585" y="-276.74" font-family="Helvetica,sans-Serif" font-size="12.00">Style</text>
</a>
</g>
</g>
<!-- Node3&#45;&gt;Node5 -->
<g id="edge5_Node000005_Node000003" class="edge">
<title>Node3&#45;&gt;Node5</title>
<g id="a_edge5_Node000005_Node000003"><a xlink:title=" ">
<path fill="none" stroke="#63b8ff" d="M1332.34,-327.19C1378.55,-319.69 1438.29,-310 1487.96,-301.93"/>
<polygon fill="#63b8ff" stroke="#63b8ff" points="1331.71,-323.75 1322.4,-328.81 1332.83,-330.66 1331.71,-323.75"/>
</a>
</g>
</g>
<!-- Node4 -->
<g id="Node000004" class="node">
<title>Node4</title>
<g id="a_Node000004"><a xlink:href="class_j_k_q_t_p_grid_style.html" target="_top" xlink:title="Support Class for JKQTPCoordinateAxis, and summarizes all properties that define the visual styling o...">
<polygon fill="white" stroke="#666666" points="913.5,-356.84 806.5,-356.84 806.5,-335.84 913.5,-335.84 913.5,-356.84"/>
<text text-anchor="middle" x="860" y="-343.24" font-family="Helvetica,sans-Serif" font-size="12.00">JKQTPGridStyle</text>
</a>
</g>
</g>
<!-- Node4&#45;&gt;Node3 -->
<g id="edge3_Node000003_Node000004" class="edge">
<title>Node4&#45;&gt;Node3</title>
<g id="a_edge3_Node000003_Node000004"><a xlink:title=" ">
<path fill="none" stroke="#9a32cd" stroke-dasharray="5,2" d="M924.18,-345.22C991.03,-344.04 1096.9,-342.16 1170.92,-340.84"/>
<polygon fill="#9a32cd" stroke="#9a32cd" points="923.73,-341.73 913.79,-345.41 923.86,-348.73 923.73,-341.73"/>
</a>
</g>
<text text-anchor="start" x="1011.5" y="-366.74" font-family="Helvetica,sans-Serif" font-size="12.00" fill="grey">majorGridStyle</text>
<text text-anchor="start" x="1011.5" y="-349.74" font-family="Helvetica,sans-Serif" font-size="12.00" fill="grey">minorGridStyle</text>
</g>
<!-- Node5&#45;&gt;Node1 -->
<g id="edge4_Node000001_Node000005" class="edge">
<title>Node5&#45;&gt;Node1</title>
<g id="a_edge4_Node000001_Node000005"><a xlink:title=" ">
<path fill="none" stroke="#9a32cd" stroke-dasharray="5,2" d="M1692.39,-281.66C1737.76,-281.19 1791.17,-282.68 1839,-289.34 1858.39,-292.04 1879.58,-297.69 1896.36,-302.83"/>
<polygon fill="#9a32cd" stroke="#9a32cd" points="1692.19,-278.16 1682.24,-281.79 1692.28,-285.16 1692.19,-278.16"/>
</a>
</g>
<text text-anchor="start" x="1703.5" y="-312.74" font-family="Helvetica,sans-Serif" font-size="12.00" fill="grey">rightColorbarAxisStyle</text>
<text text-anchor="start" x="1703.5" y="-295.74" font-family="Helvetica,sans-Serif" font-size="12.00" fill="grey">topColorbarAxisStyle</text>
</g>
<!-- Node6 -->
<g id="Node000006" class="node">
<title>Node6</title>
<g id="a_Node000006"><a xlink:href="class_j_k_q_t_graphs_base_style.html" target="_top" xlink:title="Support Class for JKQTBasePlotter, which summarizes all properties that define the visual styling of ...">
<polygon fill="white" stroke="#666666" points="1658,-178.84 1512,-178.84 1512,-157.84 1658,-157.84 1658,-178.84"/>
<text text-anchor="middle" x="1585" y="-165.24" font-family="Helvetica,sans-Serif" font-size="12.00">JKQTGraphsBaseStyle</text>
</a>
</g>
</g>
<!-- Node6&#45;&gt;Node1 -->
<g id="edge6_Node000001_Node000006" class="edge">
<title>Node6&#45;&gt;Node1</title>
<g id="a_edge6_Node000001_Node000006"><a xlink:title=" ">
<path fill="none" stroke="#9a32cd" stroke-dasharray="5,2" d="M1633.35,-181.85C1685.11,-197.38 1769.9,-225.05 1839,-258.34 1866.22,-271.45 1895.59,-290.86 1912.72,-302.78"/>
<polygon fill="#9a32cd" stroke="#9a32cd" points="1634.03,-178.4 1623.45,-178.91 1632.04,-185.11 1634.03,-178.4"/>
</a>
</g>
<text text-anchor="start" x="1734.5" y="-264.24" font-family="Helvetica,sans-Serif" font-size="12.00" fill="grey">graphsStyle</text>
</g>
<!-- Node7 -->
<g id="Node000007" class="node">
<title>Node7</title>
<g id="a_Node000007"><a xlink:href="class_j_k_q_t_graphs_specific_style_properties.html" target="_top" xlink:title="Support Class for JKQTBasePlotter, which summarizes all properties that define the visual styling of ...">
<polygon fill="white" stroke="#666666" points="629,-168.84 405,-168.84 405,-147.84 629,-147.84 629,-168.84"/>
<text text-anchor="middle" x="517" y="-155.24" font-family="Helvetica,sans-Serif" font-size="12.00">JKQTGraphsSpecificStyleProperties</text>
</a>
</g>
</g>
<!-- Node7&#45;&gt;Node6 -->
<g id="edge7_Node000006_Node000007" class="edge">
<title>Node7&#45;&gt;Node6</title>
<g id="a_edge7_Node000006_Node000007"><a xlink:title=" ">
<path fill="none" stroke="#9a32cd" stroke-dasharray="5,2" d="M559.87,-171.83C584.94,-179.54 617.56,-188.92 647,-195.34 953.54,-262.27 1042.3,-282.67 1352,-232.34 1426.03,-220.31 1510.3,-193.69 1554.06,-178.85"/>
<polygon fill="#9a32cd" stroke="#9a32cd" points="560.9,-168.49 550.31,-168.86 558.82,-175.17 560.9,-168.49"/>
</a>
</g>
<text text-anchor="start" x="1002.5" y="-300.24" font-family="Helvetica,sans-Serif" font-size="12.00" fill="grey">boxplotStyle</text>
<text text-anchor="start" x="1002.5" y="-283.24" font-family="Helvetica,sans-Serif" font-size="12.00" fill="grey">defaultGraphStyle</text>
<text text-anchor="start" x="1002.5" y="-266.24" font-family="Helvetica,sans-Serif" font-size="12.00" fill="grey">filledStyle</text>
</g>
<!-- Node9 -->
<g id="Node000009" class="node">
<title>Node9</title>
<g id="a_Node000009"><a xlink:href="class_j_k_q_t_barchart_specific_style_properties.html" target="_top" xlink:title="Support Class for JKQTBasePlotter, which summarizes all properties that define the visual styling of ...">
<polygon fill="white" stroke="#666666" points="1143,-235.34 970,-235.34 970,-201.34 1143,-201.34 1143,-235.34"/>
<text text-anchor="start" x="978" y="-221.74" font-family="Helvetica,sans-Serif" font-size="12.00">JKQTBarchartSpecificStyle</text>
<text text-anchor="middle" x="1056.5" y="-208.74" font-family="Helvetica,sans-Serif" font-size="12.00">Properties</text>
</a>
</g>
</g>
<!-- Node7&#45;&gt;Node9 -->
<g id="edge10_Node000009_Node000007" class="edge">
<title>Node7&#45;&gt;Node9</title>
<g id="a_edge10_Node000009_Node000007"><a xlink:title=" ">
<path fill="none" stroke="#63b8ff" d="M600.06,-170.25C615.63,-172.38 631.81,-174.5 647,-176.34 758.3,-189.82 887,-202.59 969.72,-210.43"/>
<polygon fill="#63b8ff" stroke="#63b8ff" points="600.31,-166.75 589.92,-168.85 599.35,-173.68 600.31,-166.75"/>
</a>
</g>
</g>
<!-- Node10 -->
<g id="Node000010" class="node">
<title>Node10</title>
<g id="a_Node000010"><a xlink:href="class_j_k_q_t_impulse_specific_style_properties.html" target="_top" xlink:title="Support Class for JKQTBasePlotter, which summarizes all properties that define the visual styling of ...">
<polygon fill="white" stroke="#666666" points="1140.5,-187.34 972.5,-187.34 972.5,-153.34 1140.5,-153.34 1140.5,-187.34"/>
<text text-anchor="start" x="980.5" y="-173.74" font-family="Helvetica,sans-Serif" font-size="12.00">JKQTImpulseSpecificStyle</text>
<text text-anchor="middle" x="1056.5" y="-160.74" font-family="Helvetica,sans-Serif" font-size="12.00">Properties</text>
</a>
</g>
</g>
<!-- Node7&#45;&gt;Node10 -->
<g id="edge12_Node000010_Node000007" class="edge">
<title>Node7&#45;&gt;Node10</title>
<g id="a_edge12_Node000010_Node000007"><a xlink:title=" ">
<path fill="none" stroke="#63b8ff" d="M639.05,-161.05C740.65,-163.31 883.09,-166.49 972.28,-168.49"/>
<polygon fill="#63b8ff" stroke="#63b8ff" points="639.12,-157.55 629.04,-160.82 638.96,-164.54 639.12,-157.55"/>
</a>
</g>
</g>
<!-- Node11 -->
<g id="Node000011" class="node">
<title>Node11</title>
<g id="a_Node000011"><a xlink:href="class_j_k_q_t_geometric_specific_style_properties.html" target="_top" xlink:title="Support Class for JKQTBasePlotter, which summarizes all properties that define the visual styling of ...">
<polygon fill="white" stroke="#666666" points="952,-129.34 768,-129.34 768,-95.34 952,-95.34 952,-129.34"/>
<text text-anchor="start" x="776" y="-115.74" font-family="Helvetica,sans-Serif" font-size="12.00">JKQTGeometricSpecificStyle</text>
<text text-anchor="middle" x="860" y="-102.74" font-family="Helvetica,sans-Serif" font-size="12.00">Properties</text>
</a>
</g>
</g>
<!-- Node7&#45;&gt;Node11 -->
<g id="edge14_Node000011_Node000007" class="edge">
<title>Node7&#45;&gt;Node11</title>
<g id="a_edge14_Node000011_Node000007"><a xlink:title=" ">
<path fill="none" stroke="#63b8ff" d="M606.31,-146.43C655.93,-139.74 717.77,-131.39 767.85,-124.64"/>
<polygon fill="#63b8ff" stroke="#63b8ff" points="605.67,-142.98 596.23,-147.79 606.61,-149.92 605.67,-142.98"/>
</a>
</g>
</g>
<!-- Node14 -->
<g id="Node000014" class="node">
<title>Node14</title>
<g id="a_Node000014"><a xlink:href="class_j_k_q_t_financial_specific_style_properties.html" target="_top" xlink:title="Support Class for JKQTBasePlotter, which summarizes all properties that define the visual styling of ...">
<polygon fill="white" stroke="#666666" points="946.5,-34.34 773.5,-34.34 773.5,-0.34 946.5,-0.34 946.5,-34.34"/>
<text text-anchor="start" x="781.5" y="-20.74" font-family="Helvetica,sans-Serif" font-size="12.00">JKQTFinancialSpecificStyle</text>
<text text-anchor="middle" x="860" y="-7.74" font-family="Helvetica,sans-Serif" font-size="12.00">Properties</text>
</a>
</g>
</g>
<!-- Node7&#45;&gt;Node14 -->
<g id="edge19_Node000014_Node000007" class="edge">
<title>Node7&#45;&gt;Node14</title>
<g id="a_edge19_Node000014_Node000007"><a xlink:title=" ">
<path fill="none" stroke="#63b8ff" d="M555.18,-143.8C577.27,-134.54 605.47,-121.63 629,-107.34 637.66,-102.08 637.93,-97.87 647,-93.34 689.44,-72.15 705.28,-81.17 750,-65.34 775.15,-56.44 802.63,-44.33 823.7,-34.49"/>
<polygon fill="#63b8ff" stroke="#63b8ff" points="553.72,-140.61 545.81,-147.66 556.39,-147.09 553.72,-140.61"/>
</a>
</g>
</g>
<!-- Node8 -->
<g id="Node000008" class="node">
<title>Node8</title>
<g id="a_Node000008"><a xlink:href="struct_j_k_q_t_p_color_derivation_mode.html" target="_top" xlink:title="Specifies how a fill&#45;color is derived from a given color.">
<polygon fill="white" stroke="#666666" points="179,-21.84 0,-21.84 0,-0.84 179,-0.84 179,-21.84"/>
<text text-anchor="middle" x="89.5" y="-8.24" font-family="Helvetica,sans-Serif" font-size="12.00">JKQTPColorDerivationMode</text>
</a>
</g>
</g>
<!-- Node8&#45;&gt;Node7 -->
<g id="edge8_Node000007_Node000008" class="edge">
<title>Node8&#45;&gt;Node7</title>
<g id="a_edge8_Node000007_Node000008"><a xlink:title=" ">
<path fill="none" stroke="#9a32cd" stroke-dasharray="5,2" d="M130.61,-25.2C215.13,-54.4 409.96,-121.71 485.39,-147.77"/>
<polygon fill="#9a32cd" stroke="#9a32cd" points="131.7,-21.87 121.1,-21.92 129.41,-28.49 131.7,-21.87"/>
</a>
</g>
<text text-anchor="start" x="200" y="-184.24" font-family="Helvetica,sans-Serif" font-size="12.00" fill="grey">errorColorDerivationMode</text>
<text text-anchor="start" x="200" y="-167.24" font-family="Helvetica,sans-Serif" font-size="12.00" fill="grey">errorFillColorDerivationMode</text>
<text text-anchor="start" x="200" y="-150.24" font-family="Helvetica,sans-Serif" font-size="12.00" fill="grey">fillColorDerivationMode</text>
<text text-anchor="start" x="200" y="-133.24" font-family="Helvetica,sans-Serif" font-size="12.00" fill="grey">graphColorDerivationMode</text>
<text text-anchor="start" x="200" y="-116.24" font-family="Helvetica,sans-Serif" font-size="12.00" fill="grey">symbolFillColorDerivationMode</text>
</g>
<!-- Node8&#45;&gt;Node14 -->
<g id="edge20_Node000014_Node000008" class="edge">
<title>Node8&#45;&gt;Node14</title>
<g id="a_edge20_Node000014_Node000008"><a xlink:title=" ">
<path fill="none" stroke="#9a32cd" stroke-dasharray="5,2" d="M189.3,-10.13C318.29,-8.86 551.07,-7.63 750,-12.34 757.58,-12.52 765.44,-12.77 773.33,-13.05"/>
<polygon fill="#9a32cd" stroke="#9a32cd" points="189.02,-6.63 179.05,-10.23 189.09,-13.63 189.02,-6.63"/>
</a>
</g>
<text text-anchor="start" x="410" y="-16.24" font-family="Helvetica,sans-Serif" font-size="12.00" fill="grey">negativeGraphColorDerivationMode</text>
</g>
<!-- Node9&#45;&gt;Node6 -->
<g id="edge9_Node000006_Node000009" class="edge">
<title>Node9&#45;&gt;Node6</title>
<g id="a_edge9_Node000006_Node000009"><a xlink:title=" ">
<path fill="none" stroke="#9a32cd" stroke-dasharray="5,2" d="M1153.3,-210.94C1236.96,-204.25 1361.62,-193.72 1470,-182.34 1483.58,-180.92 1498.06,-179.25 1511.98,-177.58"/>
<polygon fill="#9a32cd" stroke="#9a32cd" points="1152.99,-207.45 1143.3,-211.74 1153.55,-214.43 1152.99,-207.45"/>
</a>
</g>
<text text-anchor="start" x="1216.5" y="-215.24" font-family="Helvetica,sans-Serif" font-size="12.00" fill="grey">barchartStyle</text>
</g>
<!-- Node10&#45;&gt;Node6 -->
<g id="edge11_Node000006_Node000010" class="edge">
<title>Node10&#45;&gt;Node6</title>
<g id="a_edge11_Node000006_Node000010"><a xlink:title=" ">
<path fill="none" stroke="#9a32cd" stroke-dasharray="5,2" d="M1150.74,-169.99C1253.93,-169.6 1418.04,-168.97 1511.88,-168.62"/>
<polygon fill="#9a32cd" stroke="#9a32cd" points="1150.62,-166.49 1140.63,-170.03 1150.65,-173.49 1150.62,-166.49"/>
</a>
</g>
<text text-anchor="start" x="1218.5" y="-175.24" font-family="Helvetica,sans-Serif" font-size="12.00" fill="grey">impulseStyle</text>
</g>
<!-- Node11&#45;&gt;Node6 -->
<g id="edge13_Node000006_Node000011" class="edge">
<title>Node11&#45;&gt;Node6</title>
<g id="a_edge13_Node000006_Node000011"><a xlink:title=" ">
<path fill="none" stroke="#9a32cd" stroke-dasharray="5,2" d="M962.04,-118.2C1061.36,-124.17 1217.21,-134.13 1352,-145.34 1405.65,-149.8 1466.17,-155.84 1511.95,-160.61"/>
<polygon fill="#9a32cd" stroke="#9a32cd" points="962.2,-114.7 952.01,-117.59 961.78,-121.69 962.2,-114.7"/>
</a>
</g>
<text text-anchor="start" x="1211.5" y="-151.24" font-family="Helvetica,sans-Serif" font-size="12.00" fill="grey">geometricStyle</text>
</g>
<!-- Node13 -->
<g id="Node000013" class="node">
<title>Node13</title>
<g id="a_Node000013"><a xlink:href="class_j_k_q_t_annotations_specific_style_properties.html" target="_top" xlink:title="Support Class for JKQTBasePlotter, which summarizes all properties that define the visual styling of ...">
<polygon fill="white" stroke="#666666" points="1352,-77.34 1161,-77.34 1161,-43.34 1352,-43.34 1352,-77.34"/>
<text text-anchor="start" x="1169" y="-63.74" font-family="Helvetica,sans-Serif" font-size="12.00">JKQTAnnotationsSpecificStyle</text>
<text text-anchor="middle" x="1256.5" y="-50.74" font-family="Helvetica,sans-Serif" font-size="12.00">Properties</text>
</a>
</g>
</g>
<!-- Node11&#45;&gt;Node13 -->
<g id="edge17_Node000013_Node000011" class="edge">
<title>Node11&#45;&gt;Node13</title>
<g id="a_edge17_Node000013_Node000011"><a xlink:title=" ">
<path fill="none" stroke="#63b8ff" d="M962.07,-99.02C1023.27,-90.95 1100.83,-80.73 1160.84,-72.82"/>
<polygon fill="#63b8ff" stroke="#63b8ff" points="961.46,-95.57 952,-100.35 962.37,-102.51 961.46,-95.57"/>
</a>
</g>
</g>
<!-- Node12 -->
<g id="Node000012" class="node">
<title>Node12</title>
<g id="a_Node000012"><a xlink:href="class_j_k_q_t_fill_style_summmary.html" target="_top" xlink:title="Support Class for JKQTBasePlotter, which summarizes a fill style.">
<polygon fill="white" stroke="#666666" points="597,-97.84 437,-97.84 437,-76.84 597,-76.84 597,-97.84"/>
<text text-anchor="middle" x="517" y="-84.24" font-family="Helvetica,sans-Serif" font-size="12.00">JKQTFillStyleSummmary</text>
</a>
</g>
</g>
<!-- Node12&#45;&gt;Node11 -->
<g id="edge15_Node000011_Node000012" class="edge">
<title>Node12&#45;&gt;Node11</title>
<g id="a_edge15_Node000011_Node000012"><a xlink:title=" ">
<path fill="none" stroke="#9a32cd" stroke-dasharray="5,2" d="M607.15,-93.88C656.67,-97.51 718.16,-102.02 767.98,-105.67"/>
<polygon fill="#9a32cd" stroke="#9a32cd" points="607.32,-90.38 597.09,-93.14 606.81,-97.36 607.32,-90.38"/>
</a>
</g>
<text text-anchor="start" x="655.5" y="-109.24" font-family="Helvetica,sans-Serif" font-size="12.00" fill="grey">defaultFillStyle</text>
</g>
<!-- Node12&#45;&gt;Node14 -->
<g id="edge21_Node000014_Node000012" class="edge">
<title>Node12&#45;&gt;Node14</title>
<g id="a_edge21_Node000014_Node000012"><a xlink:title=" ">
<path fill="none" stroke="#9a32cd" stroke-dasharray="5,2" d="M545.04,-71.65C570.45,-57.77 609.98,-38.38 647,-29.34 687.83,-19.37 734.33,-15.9 773.36,-15.12"/>
<polygon fill="#9a32cd" stroke="#9a32cd" points="543.07,-68.74 536.03,-76.66 546.47,-74.86 543.07,-68.74"/>
</a>
</g>
<text text-anchor="start" x="650.5" y="-52.74" font-family="Helvetica,sans-Serif" font-size="12.00" fill="grey">negativeFillStyle</text>
<text text-anchor="start" x="650.5" y="-35.74" font-family="Helvetica,sans-Serif" font-size="12.00" fill="grey">positiveFillStyle</text>
</g>
<!-- Node13&#45;&gt;Node6 -->
<g id="edge16_Node000006_Node000013" class="edge">
<title>Node13&#45;&gt;Node6</title>
<g id="a_edge16_Node000006_Node000013"><a xlink:title=" ">
<path fill="none" stroke="#9a32cd" stroke-dasharray="5,2" d="M1362.48,-58.62C1397.65,-61.04 1436.43,-67.1 1470,-80.34 1514.43,-97.86 1556.02,-138.22 1574.28,-157.59"/>
<polygon fill="#9a32cd" stroke="#9a32cd" points="1362.37,-55.1 1352.18,-58 1361.95,-62.09 1362.37,-55.1"/>
</a>
</g>
<text text-anchor="start" x="1373" y="-86.24" font-family="Helvetica,sans-Serif" font-size="12.00" fill="grey">annotationStyle</text>
</g>
<!-- Node14&#45;&gt;Node6 -->
<g id="edge18_Node000006_Node000014" class="edge">
<title>Node14&#45;&gt;Node6</title>
<g id="a_edge18_Node000006_Node000014"><a xlink:title=" ">
<path fill="none" stroke="#9a32cd" stroke-dasharray="5,2" d="M956.88,-7.56C1056.39,0.4 1216.2,7.05 1352,-15.34 1406.64,-24.35 1422.9,-26.21 1470,-55.34 1516.69,-84.22 1559.03,-135.57 1576.07,-157.71"/>
<polygon fill="#9a32cd" stroke="#9a32cd" points="956.52,-4.08 946.84,-8.39 957.09,-11.06 956.52,-4.08"/>
</a>
</g>
<text text-anchor="start" x="1216.5" y="-21.24" font-family="Helvetica,sans-Serif" font-size="12.00" fill="grey">financialStyle</text>
</g>
</g>
</svg>

<g id="navigator" transform="translate(0 0)" fill="#404254">
  <rect fill="#f2f5e9" fill-opacity="0.5" stroke="#606060" stroke-width=".5" x="0" y="0" width="60" height="60"/>
  <use id="zoomplus" xlink:href="#zoomPlus" x="17" y="9" onmousedown="handleZoom(evt,'in')"/>
  <use id="zoomminus" xlink:href="#zoomMin" x="42" y="9" onmousedown="handleZoom(evt,'out')"/>
  <use id="reset" xlink:href="#resetDef" x="30" y="36" onmousedown="handleReset()"/>
   <use id="arrowup" xlink:href="#arrowUp" x="0" y="0" onmousedown="handlePan(0,-1)"/>
  <use id="arrowright" xlink:href="#arrowRight" x="0" y="0" onmousedown="handlePan(1,0)"/>
  <use id="arrowdown" xlink:href="#arrowDown" x="0" y="0" onmousedown="handlePan(0,1)"/>
  <use id="arrowleft" xlink:href="#arrowLeft" x="0" y="0" onmousedown="handlePan(-1,0)"/>
</g>
<svg viewBox="0 0 15 15" width="100%" height="30px" preserveAspectRatio="xMaxYMin meet">
 <g id="arrow_out" transform="scale(0.3 0.3)">
  <a xlink:href="class_j_k_q_t_base_plotter_style__coll__graph_org.svg" target="_base">
   <rect id="button" ry="5" rx="5" y="6" x="6" height="38" width="38"
        fill="#f2f5e9" fill-opacity="0.5" stroke="#606060" stroke-width="1.0"/>
   <path id="arrow"
     d="M 11.500037,31.436501 C 11.940474,20.09759 22.043105,11.32322 32.158766,21.979434 L 37.068811,17.246167 C 37.068811,17.246167 37.088388,32 37.088388,32 L 22.160133,31.978069 C 22.160133,31.978069 26.997745,27.140456 26.997745,27.140456 C 18.528582,18.264221 13.291696,25.230495 11.500037,31.436501 z"
     style="fill:#404040;"/>
  </a>
 </g>
</svg>

<style type='text/css'>
<![CDATA[
[data-mouse-over-selected='false'] { opacity: 0.7; }
[data-mouse-over-selected='true']  { opacity: 1.0; }
]]>
</style>
<script type="application/ecmascript"><![CDATA[
document.addEventListener('DOMContentLoaded', (event) => {
  highlightEdges();
  highlightAdjacentNodes();
});
]]></script>
</svg>
