<?xml version="1.0" encoding="UTF-8" standalone="no"?>
<!DOCTYPE svg PUBLIC "-//W3C//DTD SVG 1.1//EN"
 "http://www.w3.org/Graphics/SVG/1.1/DTD/svg11.dtd">
<!-- Generated by graphviz version 2.43.0 (0)
 -->
<!-- Title: JKQTPGraphBoxplotStyleMixin Pages: 1 -->
<!--zoomable 146 -->

<svg id="main" version="1.1" xmlns="http://www.w3.org/2000/svg" xmlns:xlink="http://www.w3.org/1999/xlink" xml:space="preserve" onload="init(evt)">

<style type="text/css"><![CDATA[
.node, .edge {opacity: 0.7;}
.node.selected, .edge.selected {opacity: 1;}
.edge:hover path { stroke: red; }
.edge:hover polygon { stroke: red; fill: red; }
]]></style>

<defs>
  <circle id="rim" cx="0" cy="0" r="7"/>
  <circle id="rim2" cx="0" cy="0" r="3.5"/>
  <g id="zoomPlus">
    <use xlink:href="#rim" fill="#404040"><set attributeName="fill" to="#808080" begin="zoomplus.mouseover" end="zoomplus.mouseout"/></use>
    <path d="M-4,0h8M0,-4v8" fill="none" stroke="white" stroke-width="1.5" pointer-events="none"/>
  </g>
  <g id="zoomMin">
    <use xlink:href="#rim" fill="#404040"><set attributeName="fill" to="#808080" begin="zoomminus.mouseover" end="zoomminus.mouseout"/></use>
    <path d="M-4,0h8" fill="none" stroke="white" stroke-width="1.5" pointer-events="none"/>
  </g>
  <g id="arrowUp" transform="translate(30 24)">
    <use xlink:href="#rim"/>
    <path pointer-events="none" fill="none" stroke="white" stroke-width="1.5" d="M0,-3.0v7 M-2.5,-0.5L0,-3.0L2.5,-0.5"/>
  </g>
  <g id="arrowRight" transform="rotate(90) translate(36 -43)">
    <use xlink:href="#rim"/>
    <path pointer-events="none" fill="none" stroke="white" stroke-width="1.5" d="M0,-3.0v7 M-2.5,-0.5L0,-3.0L2.5,-0.5"/>
  </g>
  <g id="arrowDown" transform="rotate(180) translate(-30 -48)">
    <use xlink:href="#rim"/>
    <path pointer-events="none" fill="none" stroke="white" stroke-width="1.5" d="M0,-3.0v7 M-2.5,-0.5L0,-3.0L2.5,-0.5"/>
  </g>
  <g id="arrowLeft" transform="rotate(270) translate(-36 17)">
    <use xlink:href="#rim"/>
    <path pointer-events="none" fill="none" stroke="white" stroke-width="1.5" d="M0,-3.0v7 M-2.5,-0.5L0,-3.0L2.5,-0.5"/>
  </g>
  <g id="resetDef">
    <use xlink:href="#rim2" fill="#404040"><set attributeName="fill" to="#808080" begin="reset.mouseover" end="reset.mouseout"/></use>
  </g>
</defs>
<script type="application/ecmascript">
var viewWidth = 867;
var viewHeight = 146;
var sectionId = 'dynsection-0';
</script>
<script type="application/ecmascript" xlink:href="svg.min.js"/>
<svg id="graph" class="graph">
<g id="viewport">
<title>JKQTPGraphBoxplotStyleMixin</title>
<!-- Node1 -->
<g id="Node000001" class="node">
<title>Node1</title>
<g id="a_Node000001"><a xlink:title="Styling Mix&#45;In for Boxplots.">
<polygon fill="#999999" stroke="#666666" points="404,-79 210,-79 210,-58 404,-58 404,-79"/>
<text text-anchor="middle" x="307" y="-65.4" font-family="Helvetica,sans-Serif" font-size="12.00">JKQTPGraphBoxplotStyleMixin</text>
</a>
</g>
</g>
<!-- Node4 -->
<g id="Node000004" class="node">
<title>Node4</title>
<g id="a_Node000004"><a xlink:href="class_j_k_q_t_p_boxplot_element_base.html" target="_top" xlink:title="Tbaseclass for a single (notched) boxplot as a &quot;geometric element&quot;, where the data is directly given ...">
<polygon fill="white" stroke="#666666" points="616,-99 440,-99 440,-78 616,-78 616,-99"/>
<text text-anchor="middle" x="528" y="-85.4" font-family="Helvetica,sans-Serif" font-size="12.00">JKQTPBoxplotElementBase</text>
</a>
</g>
</g>
<!-- Node1&#45;&gt;Node4 -->
<g id="edge3_Node000001_Node000004" class="edge">
<title>Node1&#45;&gt;Node4</title>
<g id="a_edge3_Node000001_Node000004"><a xlink:title=" ">
<path fill="none" stroke="#63b8ff" d="M414.18,-78.2C422.83,-78.99 431.5,-79.78 439.98,-80.55"/>
<polygon fill="#63b8ff" stroke="#63b8ff" points="414.33,-74.7 404.06,-77.27 413.7,-81.67 414.33,-74.7"/>
</a>
</g>
</g>
<!-- Node7 -->
<g id="Node000007" class="node">
<title>Node7</title>
<g id="a_Node000007"><a xlink:href="class_j_k_q_t_p_boxplot_graph_base.html" target="_top" xlink:title="Base class for graphs representing a series of boxplot, elements.">
<polygon fill="white" stroke="#666666" points="609.5,-60 446.5,-60 446.5,-39 609.5,-39 609.5,-60"/>
<text text-anchor="middle" x="528" y="-46.4" font-family="Helvetica,sans-Serif" font-size="12.00">JKQTPBoxplotGraphBase</text>
</a>
</g>
</g>
<!-- Node1&#45;&gt;Node7 -->
<g id="edge6_Node000001_Node000007" class="edge">
<title>Node1&#45;&gt;Node7</title>
<g id="a_edge6_Node000001_Node000007"><a xlink:title=" ">
<path fill="none" stroke="#63b8ff" d="M414.03,-59.3C424.92,-58.36 435.86,-57.41 446.41,-56.49"/>
<polygon fill="#63b8ff" stroke="#63b8ff" points="413.72,-55.81 404.06,-60.17 414.32,-62.79 413.72,-55.81"/>
</a>
</g>
</g>
<!-- Node2 -->
<g id="Node000002" class="node">
<title>Node2</title>
<g id="a_Node000002"><a xlink:href="class_j_k_q_t_p_graph_line_style_mixin.html" target="_top" xlink:title="This Mix&#45;In class provides setter/getter methods, storage and other facilities for the graph line sty...">
<polygon fill="white" stroke="#666666" points="174,-99 0,-99 0,-78 174,-78 174,-99"/>
<text text-anchor="middle" x="87" y="-85.4" font-family="Helvetica,sans-Serif" font-size="12.00">JKQTPGraphLineStyleMixin</text>
</a>
</g>
</g>
<!-- Node2&#45;&gt;Node1 -->
<g id="edge1_Node000001_Node000002" class="edge">
<title>Node2&#45;&gt;Node1</title>
<g id="a_edge1_Node000001_Node000002"><a xlink:title=" ">
<path fill="none" stroke="#63b8ff" d="M184.35,-79.66C192.76,-78.89 201.27,-78.11 209.68,-77.34"/>
<polygon fill="#63b8ff" stroke="#63b8ff" points="183.8,-76.2 174.16,-80.6 184.44,-83.17 183.8,-76.2"/>
</a>
</g>
</g>
<!-- Node3 -->
<g id="Node000003" class="node">
<title>Node3</title>
<g id="a_Node000003"><a xlink:href="class_j_k_q_t_p_graph_fill_style_mixin.html" target="_top" xlink:title="This Mix&#45;In class provides setter/getter methods, storage and other facilities for the graph filling ...">
<polygon fill="white" stroke="#666666" points="169,-60 5,-60 5,-39 169,-39 169,-60"/>
<text text-anchor="middle" x="87" y="-46.4" font-family="Helvetica,sans-Serif" font-size="12.00">JKQTPGraphFillStyleMixin</text>
</a>
</g>
</g>
<!-- Node3&#45;&gt;Node1 -->
<g id="edge2_Node000001_Node000003" class="edge">
<title>Node3&#45;&gt;Node1</title>
<g id="a_edge2_Node000001_Node000003"><a xlink:title=" ">
<path fill="none" stroke="#63b8ff" d="M179.17,-57.45C189.24,-58.32 199.53,-59.22 209.66,-60.1"/>
<polygon fill="#63b8ff" stroke="#63b8ff" points="179.44,-53.96 169.18,-56.57 178.83,-60.93 179.44,-53.96"/>
</a>
</g>
</g>
<!-- Node5 -->
<g id="Node000005" class="node">
<title>Node5</title>
<g id="a_Node000005"><a xlink:href="class_j_k_q_t_p_boxplot_horizontal_element.html" target="_top" xlink:title="This implements a horizontal (notched) boxplot where the data is directly given to the object and not...">
<polygon fill="white" stroke="#666666" points="859,-138 652,-138 652,-117 859,-117 859,-138"/>
<text text-anchor="middle" x="755.5" y="-124.4" font-family="Helvetica,sans-Serif" font-size="12.00">JKQTPBoxplotHorizontalElement</text>
</a>
</g>
</g>
<!-- Node4&#45;&gt;Node5 -->
<g id="edge4_Node000004_Node000005" class="edge">
<title>Node4&#45;&gt;Node5</title>
<g id="a_edge4_Node000004_Node000005"><a xlink:title=" ">
<path fill="none" stroke="#63b8ff" d="M599.75,-100.74C629.89,-105.95 664.7,-111.97 693.67,-116.98"/>
<polygon fill="#63b8ff" stroke="#63b8ff" points="600.18,-97.26 589.73,-99 598.98,-104.16 600.18,-97.26"/>
</a>
</g>
</g>
<!-- Node6 -->
<g id="Node000006" class="node">
<title>Node6</title>
<g id="a_Node000006"><a xlink:href="class_j_k_q_t_p_boxplot_vertical_element.html" target="_top" xlink:title="This implements a single vertical (notched) boxplot as a &quot;geometric element&quot;, where the data is direc...">
<polygon fill="white" stroke="#666666" points="851,-99 660,-99 660,-78 851,-78 851,-99"/>
<text text-anchor="middle" x="755.5" y="-85.4" font-family="Helvetica,sans-Serif" font-size="12.00">JKQTPBoxplotVerticalElement</text>
</a>
</g>
</g>
<!-- Node4&#45;&gt;Node6 -->
<g id="edge5_Node000004_Node000006" class="edge">
<title>Node4&#45;&gt;Node6</title>
<g id="a_edge5_Node000004_Node000006"><a xlink:title=" ">
<path fill="none" stroke="#63b8ff" d="M626.29,-88.5C637.37,-88.5 648.65,-88.5 659.69,-88.5"/>
<polygon fill="#63b8ff" stroke="#63b8ff" points="626.18,-85 616.18,-88.5 626.18,-92 626.18,-85"/>
</a>
</g>
</g>
<!-- Node8 -->
<g id="Node000008" class="node">
<title>Node8</title>
<g id="a_Node000008"><a xlink:href="class_j_k_q_t_p_boxplot_horizontal_graph.html" target="_top" xlink:title="This implements horizontal boxplots, optionally also a notched boxplot.">
<polygon fill="white" stroke="#666666" points="852.5,-60 658.5,-60 658.5,-39 852.5,-39 852.5,-60"/>
<text text-anchor="middle" x="755.5" y="-46.4" font-family="Helvetica,sans-Serif" font-size="12.00">JKQTPBoxplotHorizontalGraph</text>
</a>
</g>
</g>
<!-- Node7&#45;&gt;Node8 -->
<g id="edge7_Node000007_Node000008" class="edge">
<title>Node7&#45;&gt;Node8</title>
<g id="a_edge7_Node000007_Node000008"><a xlink:title=" ">
<path fill="none" stroke="#63b8ff" d="M619.8,-49.5C632.41,-49.5 645.41,-49.5 658.13,-49.5"/>
<polygon fill="#63b8ff" stroke="#63b8ff" points="619.77,-46 609.77,-49.5 619.77,-53 619.77,-46"/>
</a>
</g>
</g>
<!-- Node9 -->
<g id="Node000009" class="node">
<title>Node9</title>
<g id="a_Node000009"><a xlink:href="class_j_k_q_t_p_boxplot_vertical_graph.html" target="_top" xlink:title="This implements vertical boxplots, optionally also a notched boxplot.">
<polygon fill="white" stroke="#666666" points="845,-21 666,-21 666,0 845,0 845,-21"/>
<text text-anchor="middle" x="755.5" y="-7.4" font-family="Helvetica,sans-Serif" font-size="12.00">JKQTPBoxplotVerticalGraph</text>
</a>
</g>
</g>
<!-- Node7&#45;&gt;Node9 -->
<g id="edge8_Node000007_Node000009" class="edge">
<title>Node7&#45;&gt;Node9</title>
<g id="a_edge8_Node000007_Node000009"><a xlink:title=" ">
<path fill="none" stroke="#63b8ff" d="M599.75,-37.26C629.89,-32.05 664.7,-26.03 693.67,-21.02"/>
<polygon fill="#63b8ff" stroke="#63b8ff" points="598.98,-33.84 589.73,-39 600.18,-40.74 598.98,-33.84"/>
</a>
</g>
</g>
</g>
</svg>

<g id="navigator" transform="translate(0 0)" fill="#404254">
  <rect fill="#f2f5e9" fill-opacity="0.5" stroke="#606060" stroke-width=".5" x="0" y="0" width="60" height="60"/>
  <use id="zoomplus" xlink:href="#zoomPlus" x="17" y="9" onmousedown="handleZoom(evt,'in')"/>
  <use id="zoomminus" xlink:href="#zoomMin" x="42" y="9" onmousedown="handleZoom(evt,'out')"/>
  <use id="reset" xlink:href="#resetDef" x="30" y="36" onmousedown="handleReset()"/>
   <use id="arrowup" xlink:href="#arrowUp" x="0" y="0" onmousedown="handlePan(0,-1)"/>
  <use id="arrowright" xlink:href="#arrowRight" x="0" y="0" onmousedown="handlePan(1,0)"/>
  <use id="arrowdown" xlink:href="#arrowDown" x="0" y="0" onmousedown="handlePan(0,1)"/>
  <use id="arrowleft" xlink:href="#arrowLeft" x="0" y="0" onmousedown="handlePan(-1,0)"/>
</g>
<svg viewBox="0 0 15 15" width="100%" height="30px" preserveAspectRatio="xMaxYMin meet">
 <g id="arrow_out" transform="scale(0.3 0.3)">
  <a xlink:href="class_j_k_q_t_p_graph_boxplot_style_mixin__inherit__graph_org.svg" target="_base">
   <rect id="button" ry="5" rx="5" y="6" x="6" height="38" width="38"
        fill="#f2f5e9" fill-opacity="0.5" stroke="#606060" stroke-width="1.0"/>
   <path id="arrow"
     d="M 11.500037,31.436501 C 11.940474,20.09759 22.043105,11.32322 32.158766,21.979434 L 37.068811,17.246167 C 37.068811,17.246167 37.088388,32 37.088388,32 L 22.160133,31.978069 C 22.160133,31.978069 26.997745,27.140456 26.997745,27.140456 C 18.528582,18.264221 13.291696,25.230495 11.500037,31.436501 z"
     style="fill:#404040;"/>
  </a>
 </g>
</svg>

<style type='text/css'>
<![CDATA[
[data-mouse-over-selected='false'] { opacity: 0.7; }
[data-mouse-over-selected='true']  { opacity: 1.0; }
]]>
</style>
<script type="application/ecmascript"><![CDATA[
document.addEventListener('DOMContentLoaded', (event) => {
  highlightEdges();
  highlightAdjacentNodes();
});
]]></script>
</svg>
