<?xml version="1.0" encoding="UTF-8" standalone="no"?>
<!DOCTYPE svg PUBLIC "-//W3C//DTD SVG 1.1//EN"
 "http://www.w3.org/Graphics/SVG/1.1/DTD/svg11.dtd">
<!-- Generated by graphviz version 2.43.0 (0)
 -->
<!-- Title: JKQTPMathParser::jkmpFunctionNode Pages: 1 -->
<svg width="2140pt" height="575pt"
 viewBox="0.00 0.00 2140.00 574.50" xmlns="http://www.w3.org/2000/svg" xmlns:xlink="http://www.w3.org/1999/xlink">
<g id="graph0" class="graph" transform="scale(1 1) rotate(0) translate(4 570.5)">
<title>JKQTPMathParser::jkmpFunctionNode</title>
<!-- Node1 -->
<g id="Node000001" class="node">
<title>Node1</title>
<g id="a_Node000001"><a xlink:title="This class represents an arbitrary function.">
<polygon fill="#999999" stroke="#666666" points="2132,-73.5 1893,-73.5 1893,-52.5 2132,-52.5 2132,-73.5"/>
<text text-anchor="middle" x="2012.5" y="-59.9" font-family="Helvetica,sans-Serif" font-size="12.00">JKQTPMathParser::jkmpFunctionNode</text>
</a>
</g>
</g>
<!-- Node2 -->
<g id="Node000002" class="node">
<title>Node2</title>
<g id="a_Node000002"><a xlink:href="class_j_k_q_t_p_math_parser_1_1jkmp_node.html" target="_top" xlink:title="This class is the abstract base class for nodes. All allowed node types must inherit from jkmpNode.">
<polygon fill="white" stroke="#666666" points="1823,-124.5 1635,-124.5 1635,-103.5 1823,-103.5 1823,-124.5"/>
<text text-anchor="middle" x="1729" y="-110.9" font-family="Helvetica,sans-Serif" font-size="12.00">JKQTPMathParser::jkmpNode</text>
</a>
</g>
</g>
<!-- Node2&#45;&gt;Node1 -->
<g id="edge1_Node000001_Node000002" class="edge">
<title>Node2&#45;&gt;Node1</title>
<g id="a_edge1_Node000001_Node000002"><a xlink:title=" ">
<path fill="none" stroke="#63b8ff" d="M1833.34,-106.18C1847.39,-104.49 1861.59,-102.45 1875,-100 1910.99,-93.43 1951.33,-81.98 1978.76,-73.55"/>
<polygon fill="#63b8ff" stroke="#63b8ff" points="1832.68,-102.73 1823.15,-107.35 1833.48,-109.68 1832.68,-102.73"/>
</a>
</g>
</g>
<!-- Node2&#45;&gt;Node1 -->
<g id="edge31_Node000001_Node000002" class="edge">
<title>Node2&#45;&gt;Node1</title>
<g id="a_edge31_Node000001_Node000002"><a xlink:title=" ">
<path fill="none" stroke="#9a32cd" stroke-dasharray="5,2" d="M1765.36,-99.8C1786.88,-91.76 1815.11,-82.3 1841,-77 1857.59,-73.61 1875.24,-71.03 1892.66,-69.07"/>
<polygon fill="#9a32cd" stroke="#9a32cd" points="1764.08,-96.54 1755.98,-103.36 1766.57,-103.08 1764.08,-96.54"/>
</a>
</g>
<text text-anchor="start" x="1844" y="-82.9" font-family="Helvetica,sans-Serif" font-size="12.00" fill="grey">child</text>
</g>
<!-- Node2&#45;&gt;Node2 -->
<g id="edge29_Node000002_Node000002" class="edge">
<title>Node2&#45;&gt;Node2</title>
<g id="a_edge29_Node000002_Node000002"><a xlink:title=" ">
<path fill="none" stroke="#9a32cd" stroke-dasharray="5,2" d="M1705.41,-134.07C1707.23,-138.91 1715.09,-142.5 1729,-142.5 1751.25,-142.5 1758.03,-133.31 1749.34,-124.52"/>
<polygon fill="#9a32cd" stroke="#9a32cd" points="1708.75,-135.12 1708.66,-124.52 1702.13,-132.86 1708.75,-135.12"/>
</a>
</g>
<text text-anchor="start" x="1709" y="-148.4" font-family="Helvetica,sans-Serif" font-size="12.00" fill="grey">parent</text>
</g>
<!-- Node3 -->
<g id="Node000003" class="node">
<title>Node3</title>
<g id="a_Node000003"><a xlink:href="class_j_k_q_t_p_math_parser.html" target="_top" xlink:title="A simple function parser to parse (build memory tree representation) and evaluate simple mathematical...">
<polygon fill="white" stroke="#666666" points="1553,-332.5 1432,-332.5 1432,-311.5 1553,-311.5 1553,-332.5"/>
<text text-anchor="middle" x="1492.5" y="-318.9" font-family="Helvetica,sans-Serif" font-size="12.00">JKQTPMathParser</text>
</a>
</g>
</g>
<!-- Node3&#45;&gt;Node2 -->
<g id="edge2_Node000002_Node000003" class="edge">
<title>Node3&#45;&gt;Node2</title>
<g id="a_edge2_Node000002_Node000003"><a xlink:title=" ">
<path fill="none" stroke="#9a32cd" stroke-dasharray="5,2" d="M1513.12,-304.6C1560.14,-262.89 1678.16,-158.21 1716.07,-124.58"/>
<polygon fill="#9a32cd" stroke="#9a32cd" points="1510.61,-302.15 1505.45,-311.4 1515.25,-307.38 1510.61,-302.15"/>
</a>
</g>
<text text-anchor="start" x="1574" y="-254.9" font-family="Helvetica,sans-Serif" font-size="12.00" fill="grey">parser</text>
</g>
<!-- Node4 -->
<g id="Node000004" class="node">
<title>Node4</title>
<g id="a_Node000004"><a xlink:title=" ">
<polygon fill="white" stroke="#666666" points="272.5,-198.5 196.5,-198.5 196.5,-177.5 272.5,-177.5 272.5,-198.5"/>
<text text-anchor="middle" x="234.5" y="-184.9" font-family="Helvetica,sans-Serif" font-size="12.00">std::string</text>
</a>
</g>
</g>
<!-- Node4&#45;&gt;Node1 -->
<g id="edge30_Node000001_Node000004" class="edge">
<title>Node4&#45;&gt;Node1</title>
<g id="a_edge30_Node000001_Node000004"><a xlink:title=" ">
<path fill="none" stroke="#9a32cd" stroke-dasharray="5,2" d="M245.92,-168.43C260.84,-142.14 290.65,-95.56 328,-68 397.48,-16.72 423.65,0 510,0 510,0 510,0 1730,0 1824.9,0 1933.55,-34.52 1983.59,-52.46"/>
<polygon fill="#9a32cd" stroke="#9a32cd" points="242.73,-166.98 240.95,-177.43 248.85,-170.37 242.73,-166.98"/>
</a>
</g>
<text text-anchor="start" x="1219.5" y="-5.9" font-family="Helvetica,sans-Serif" font-size="12.00" fill="grey">fun</text>
</g>
<!-- Node4&#45;&gt;Node3 -->
<g id="edge3_Node000003_Node000004" class="edge">
<title>Node4&#45;&gt;Node3</title>
<g id="a_edge3_Node000003_Node000004"><a xlink:title=" ">
<path fill="none" stroke="#9a32cd" stroke-dasharray="5,2" d="M243.27,-208.22C256.23,-239.36 285.12,-298.99 328,-333 395.18,-386.28 424.26,-397 510,-397 510,-397 510,-397 1230.5,-397 1322.67,-397 1426.28,-353.26 1470.1,-332.59"/>
<polygon fill="#9a32cd" stroke="#9a32cd" points="246.47,-206.8 239.49,-198.83 239.98,-209.42 246.47,-206.8"/>
</a>
</g>
<text text-anchor="start" x="842.5" y="-436.9" font-family="Helvetica,sans-Serif" font-size="12.00" fill="grey">StringValue</text>
<text text-anchor="start" x="842.5" y="-419.9" font-family="Helvetica,sans-Serif" font-size="12.00" fill="grey">jkmathparser_exception</text>
<text text-anchor="start" x="842.5" y="-402.9" font-family="Helvetica,sans-Serif" font-size="12.00" fill="grey">  _function</text>
</g>
<!-- Node12 -->
<g id="Node000012" class="node">
<title>Node12</title>
<g id="a_Node000012"><a xlink:href="struct_j_k_q_t_p_math_parser_1_1jkmp_temp_variable.html" target="_top" xlink:title="This struct is for managing temporary variables. It is generally like jkmpVariable.">
<polygon fill="white" stroke="#666666" points="605.5,-237 416.5,-237 416.5,-203 605.5,-203 605.5,-237"/>
<text text-anchor="start" x="424.5" y="-223.4" font-family="Helvetica,sans-Serif" font-size="12.00">JKQTPMathParser::jkmpTemp</text>
<text text-anchor="middle" x="511" y="-210.4" font-family="Helvetica,sans-Serif" font-size="12.00">Variable</text>
</a>
</g>
</g>
<!-- Node4&#45;&gt;Node12 -->
<g id="edge12_Node000012_Node000004" class="edge">
<title>Node4&#45;&gt;Node12</title>
<g id="a_edge12_Node000012_Node000004"><a xlink:title=" ">
<path fill="none" stroke="#9a32cd" stroke-dasharray="5,2" d="M282.91,-193.53C319.57,-197.8 371.48,-203.85 416.42,-209.09"/>
<polygon fill="#9a32cd" stroke="#9a32cd" points="282.86,-190 272.52,-192.32 282.05,-196.95 282.86,-190"/>
</a>
</g>
<text text-anchor="start" x="342" y="-229.4" font-family="Helvetica,sans-Serif" font-size="12.00" fill="grey">name</text>
<text text-anchor="start" x="342" y="-212.4" font-family="Helvetica,sans-Serif" font-size="12.00" fill="grey">str</text>
</g>
<!-- Node15 -->
<g id="Node000015" class="node">
<title>Node15</title>
<g id="a_Node000015"><a xlink:title=" ">
<polygon fill="white" stroke="#666666" points="1026,-289 803,-289 803,-255 1026,-255 1026,-289"/>
<text text-anchor="start" x="811" y="-275.4" font-family="Helvetica,sans-Serif" font-size="12.00">std::map&lt; std::string,</text>
<text text-anchor="middle" x="914.5" y="-262.4" font-family="Helvetica,sans-Serif" font-size="12.00"> JKQTPMathParser::jkmpVariable &gt;</text>
</a>
</g>
</g>
<!-- Node4&#45;&gt;Node15 -->
<g id="edge16_Node000015_Node000004" class="edge">
<title>Node4&#45;&gt;Node15</title>
<g id="a_edge16_Node000015_Node000004"><a xlink:title=" ">
<path fill="none" stroke="#9a32cd" stroke-dasharray="5,2" d="M255.54,-204.9C273.31,-218.77 300.63,-237.47 328,-246 413.48,-272.65 658.17,-274.95 802.75,-273.78"/>
<polygon fill="#9a32cd" stroke="#9a32cd" points="257.61,-202.07 247.62,-198.54 253.23,-207.53 257.61,-202.07"/>
</a>
</g>
<text text-anchor="start" x="497" y="-278.9" font-family="Helvetica,sans-Serif" font-size="12.00" fill="grey">keys</text>
</g>
<!-- Node16 -->
<g id="Node000016" class="node">
<title>Node16</title>
<g id="a_Node000016"><a xlink:href="struct_j_k_q_t_p_math_parser_1_1jkmp_variable.html" target="_top" xlink:title="This struct is for managing variables. Unlike jkmpResult this struct only contains pointers to the da...">
<polygon fill="white" stroke="#666666" points="614,-331.5 408,-331.5 408,-310.5 614,-310.5 614,-331.5"/>
<text text-anchor="middle" x="511" y="-317.9" font-family="Helvetica,sans-Serif" font-size="12.00">JKQTPMathParser::jkmpVariable</text>
</a>
</g>
</g>
<!-- Node4&#45;&gt;Node16 -->
<g id="edge18_Node000016_Node000004" class="edge">
<title>Node4&#45;&gt;Node16</title>
<g id="a_edge18_Node000016_Node000004"><a xlink:title=" ">
<path fill="none" stroke="#9a32cd" stroke-dasharray="5,2" d="M247.79,-207.29C263.48,-230.19 292.84,-267.7 328,-287 352.23,-300.3 380.72,-308.5 407.88,-313.53"/>
<polygon fill="#9a32cd" stroke="#9a32cd" points="250.56,-205.13 242.11,-198.74 244.73,-209.01 250.56,-205.13"/>
</a>
</g>
<text text-anchor="start" x="351" y="-315.9" font-family="Helvetica,sans-Serif" font-size="12.00" fill="grey">str</text>
</g>
<!-- Node19 -->
<g id="Node000019" class="node">
<title>Node19</title>
<g id="a_Node000019"><a xlink:title=" ">
<polygon fill="white" stroke="#666666" points="1335,-225.5 1124,-225.5 1124,-178.5 1335,-178.5 1335,-225.5"/>
<text text-anchor="start" x="1132" y="-211.9" font-family="Helvetica,sans-Serif" font-size="12.00">std::map&lt; std::string,</text>
<text text-anchor="start" x="1132" y="-198.9" font-family="Helvetica,sans-Serif" font-size="12.00"> JKQTPMathParser::jkmpFunction</text>
<text text-anchor="middle" x="1229.5" y="-185.9" font-family="Helvetica,sans-Serif" font-size="12.00">Descriptor &gt;</text>
</a>
</g>
</g>
<!-- Node4&#45;&gt;Node19 -->
<g id="edge23_Node000019_Node000004" class="edge">
<title>Node4&#45;&gt;Node19</title>
<g id="a_edge23_Node000019_Node000004"><a xlink:title=" ">
<path fill="none" stroke="#9a32cd" stroke-dasharray="5,2" d="M282.63,-178.5C405.62,-155.15 746.2,-99.77 1026,-141 1074.49,-148.15 1127.48,-164.43 1167.08,-178.37"/>
<polygon fill="#9a32cd" stroke="#9a32cd" points="281.94,-175.07 272.78,-180.39 283.26,-181.94 281.94,-175.07"/>
</a>
</g>
<text text-anchor="start" x="694.5" y="-138.9" font-family="Helvetica,sans-Serif" font-size="12.00" fill="grey">keys</text>
</g>
<!-- Node20 -->
<g id="Node000020" class="node">
<title>Node20</title>
<g id="a_Node000020"><a xlink:href="struct_j_k_q_t_p_math_parser_1_1jkmp_function_descriptor.html" target="_top" xlink:title="description of a user registered function">
<polygon fill="white" stroke="#666666" points="1018,-184 811,-184 811,-150 1018,-150 1018,-184"/>
<text text-anchor="start" x="819" y="-170.4" font-family="Helvetica,sans-Serif" font-size="12.00">JKQTPMathParser::jkmpFunction</text>
<text text-anchor="middle" x="914.5" y="-157.4" font-family="Helvetica,sans-Serif" font-size="12.00">Descriptor</text>
</a>
</g>
</g>
<!-- Node4&#45;&gt;Node20 -->
<g id="edge27_Node000020_Node000004" class="edge">
<title>Node4&#45;&gt;Node20</title>
<g id="a_edge27_Node000020_Node000004"><a xlink:title=" ">
<path fill="none" stroke="#9a32cd" stroke-dasharray="5,2" d="M283.1,-183.65C317.72,-180.67 365.72,-176.93 408,-175 547.41,-168.65 708.65,-167.1 810.82,-166.84"/>
<polygon fill="#9a32cd" stroke="#9a32cd" points="282.47,-180.19 272.81,-184.55 283.08,-187.16 282.47,-180.19"/>
</a>
</g>
<text text-anchor="start" x="494" y="-180.9" font-family="Helvetica,sans-Serif" font-size="12.00" fill="grey">name</text>
</g>
<!-- Node21 -->
<g id="Node000021" class="node">
<title>Node21</title>
<g id="a_Node000021"><a xlink:href="struct_j_k_q_t_p_math_parser_1_1jkmp_result.html" target="_top" xlink:title="result of any expression">
<polygon fill="white" stroke="#666666" points="607.5,-90.5 414.5,-90.5 414.5,-69.5 607.5,-69.5 607.5,-90.5"/>
<text text-anchor="middle" x="511" y="-76.9" font-family="Helvetica,sans-Serif" font-size="12.00">JKQTPMathParser::jkmpResult</text>
</a>
</g>
</g>
<!-- Node4&#45;&gt;Node21 -->
<g id="edge26_Node000021_Node000004" class="edge">
<title>Node4&#45;&gt;Node21</title>
<g id="a_edge26_Node000021_Node000004"><a xlink:title=" ">
<path fill="none" stroke="#9a32cd" stroke-dasharray="5,2" d="M246.59,-168.5C261.54,-144.35 290.67,-104.3 328,-87 354.4,-74.77 385.32,-70.43 414.12,-69.88"/>
<polygon fill="#9a32cd" stroke="#9a32cd" points="243.52,-166.81 241.39,-177.18 249.53,-170.4 243.52,-166.81"/>
</a>
</g>
<text text-anchor="start" x="351" y="-92.9" font-family="Helvetica,sans-Serif" font-size="12.00" fill="grey">str</text>
</g>
<!-- Node5 -->
<g id="Node000005" class="node">
<title>Node5</title>
<g id="a_Node000005"><a xlink:title=" ">
<polygon fill="white" stroke="#666666" points="122,-205 0,-205 0,-171 122,-171 122,-205"/>
<text text-anchor="start" x="8" y="-191.4" font-family="Helvetica,sans-Serif" font-size="12.00">std::basic_string&lt;</text>
<text text-anchor="middle" x="61" y="-178.4" font-family="Helvetica,sans-Serif" font-size="12.00"> Char &gt;</text>
</a>
</g>
</g>
<!-- Node5&#45;&gt;Node4 -->
<g id="edge4_Node000004_Node000005" class="edge">
<title>Node5&#45;&gt;Node4</title>
<g id="a_edge4_Node000004_Node000005"><a xlink:title=" ">
<path fill="none" stroke="#63b8ff" d="M132.74,-188C154.63,-188 177.86,-188 196.5,-188"/>
<polygon fill="#63b8ff" stroke="#63b8ff" points="132.46,-184.5 122.46,-188 132.46,-191.5 132.46,-184.5"/>
</a>
</g>
</g>
<!-- Node6 -->
<g id="Node000006" class="node">
<title>Node6</title>
<g id="a_Node000006"><a xlink:title=" ">
<polygon fill="white" stroke="#666666" points="1290,-470.5 1169,-470.5 1169,-449.5 1290,-449.5 1290,-470.5"/>
<text text-anchor="middle" x="1229.5" y="-456.9" font-family="Helvetica,sans-Serif" font-size="12.00">std::istringstream</text>
</a>
</g>
</g>
<!-- Node6&#45;&gt;Node3 -->
<g id="edge5_Node000003_Node000006" class="edge">
<title>Node6&#45;&gt;Node3</title>
<g id="a_edge5_Node000003_Node000006"><a xlink:title=" ">
<path fill="none" stroke="#9a32cd" stroke-dasharray="5,2" d="M1300.21,-451.36C1336.25,-444.51 1379.73,-432.37 1414,-411 1447.03,-390.4 1473.72,-351.35 1485.29,-332.59"/>
<polygon fill="#9a32cd" stroke="#9a32cd" points="1299.48,-447.93 1290.26,-453.15 1300.72,-454.82 1299.48,-447.93"/>
</a>
</g>
<text text-anchor="start" x="1357.5" y="-442.9" font-family="Helvetica,sans-Serif" font-size="12.00" fill="grey">program</text>
</g>
<!-- Node7 -->
<g id="Node000007" class="node">
<title>Node7</title>
<g id="a_Node000007"><a xlink:title=" ">
<polygon fill="white" stroke="#666666" points="993.5,-512 835.5,-512 835.5,-478 993.5,-478 993.5,-512"/>
<text text-anchor="start" x="843.5" y="-498.4" font-family="Helvetica,sans-Serif" font-size="12.00">std::basic_istringstream</text>
<text text-anchor="middle" x="914.5" y="-485.4" font-family="Helvetica,sans-Serif" font-size="12.00">&lt; Char &gt;</text>
</a>
</g>
</g>
<!-- Node7&#45;&gt;Node6 -->
<g id="edge6_Node000006_Node000007" class="edge">
<title>Node7&#45;&gt;Node6</title>
<g id="a_edge6_Node000006_Node000007"><a xlink:title=" ">
<path fill="none" stroke="#63b8ff" d="M1003.72,-485.14C1056.55,-479.23 1122.29,-471.88 1169,-466.65"/>
<polygon fill="#63b8ff" stroke="#63b8ff" points="1003.22,-481.67 993.68,-486.26 1004,-488.63 1003.22,-481.67"/>
</a>
</g>
</g>
<!-- Node8 -->
<g id="Node000008" class="node">
<title>Node8</title>
<g id="a_Node000008"><a xlink:title=" ">
<polygon fill="white" stroke="#666666" points="573,-553 449,-553 449,-519 573,-519 573,-553"/>
<text text-anchor="start" x="457" y="-539.4" font-family="Helvetica,sans-Serif" font-size="12.00">std::basic_istream</text>
<text text-anchor="middle" x="511" y="-526.4" font-family="Helvetica,sans-Serif" font-size="12.00">&lt; Char &gt;</text>
</a>
</g>
</g>
<!-- Node8&#45;&gt;Node7 -->
<g id="edge7_Node000007_Node000008" class="edge">
<title>Node8&#45;&gt;Node7</title>
<g id="a_edge7_Node000007_Node000008"><a xlink:title=" ">
<path fill="none" stroke="#63b8ff" d="M583.57,-528.69C654.3,-521.47 762.21,-510.45 835.19,-503"/>
<polygon fill="#63b8ff" stroke="#63b8ff" points="583.01,-525.23 573.42,-529.73 583.72,-532.19 583.01,-525.23"/>
</a>
</g>
</g>
<!-- Node9 -->
<g id="Node000009" class="node">
<title>Node9</title>
<g id="a_Node000009"><a xlink:title=" ">
<polygon fill="white" stroke="#666666" points="310,-566.5 159,-566.5 159,-545.5 310,-545.5 310,-566.5"/>
<text text-anchor="middle" x="234.5" y="-552.9" font-family="Helvetica,sans-Serif" font-size="12.00">std::basic_ios&lt; Char &gt;</text>
</a>
</g>
</g>
<!-- Node9&#45;&gt;Node8 -->
<g id="edge8_Node000008_Node000009" class="edge">
<title>Node9&#45;&gt;Node8</title>
<g id="a_edge8_Node000008_Node000009"><a xlink:title=" ">
<path fill="none" stroke="#63b8ff" d="M320.26,-549.82C361.82,-546.8 410.94,-543.22 448.79,-540.46"/>
<polygon fill="#63b8ff" stroke="#63b8ff" points="319.86,-546.34 310.15,-550.56 320.37,-553.33 319.86,-546.34"/>
</a>
</g>
</g>
<!-- Node10 -->
<g id="Node000010" class="node">
<title>Node10</title>
<g id="a_Node000010"><a xlink:title=" ">
<polygon fill="white" stroke="#666666" points="107.5,-566.5 14.5,-566.5 14.5,-545.5 107.5,-545.5 107.5,-566.5"/>
<text text-anchor="middle" x="61" y="-552.9" font-family="Helvetica,sans-Serif" font-size="12.00">std::ios_base</text>
</a>
</g>
</g>
<!-- Node10&#45;&gt;Node9 -->
<g id="edge9_Node000009_Node000010" class="edge">
<title>Node10&#45;&gt;Node9</title>
<g id="a_edge9_Node000009_Node000010"><a xlink:title=" ">
<path fill="none" stroke="#63b8ff" d="M117.78,-556C130.91,-556 145.11,-556 158.91,-556"/>
<polygon fill="#63b8ff" stroke="#63b8ff" points="117.51,-552.5 107.51,-556 117.51,-559.5 117.51,-552.5"/>
</a>
</g>
</g>
<!-- Node11 -->
<g id="Node000011" class="node">
<title>Node11</title>
<g id="a_Node000011"><a xlink:title=" ">
<polygon fill="white" stroke="#666666" points="1013.5,-237 815.5,-237 815.5,-203 1013.5,-203 1013.5,-237"/>
<text text-anchor="start" x="823.5" y="-223.4" font-family="Helvetica,sans-Serif" font-size="12.00">std::vector&lt; JKQTPMathParser</text>
<text text-anchor="middle" x="914.5" y="-210.4" font-family="Helvetica,sans-Serif" font-size="12.00">::jkmpTempVariable &gt;</text>
</a>
</g>
</g>
<!-- Node11&#45;&gt;Node3 -->
<g id="edge10_Node000003_Node000011" class="edge">
<title>Node11&#45;&gt;Node3</title>
<g id="a_edge10_Node000003_Node000011"><a xlink:title=" ">
<path fill="none" stroke="#9a32cd" stroke-dasharray="5,2" d="M1021.6,-238.79C1142.39,-260.18 1335.45,-294.37 1432.19,-311.5"/>
<polygon fill="#9a32cd" stroke="#9a32cd" points="1022.04,-235.31 1011.59,-237.02 1020.82,-242.21 1022.04,-235.31"/>
</a>
</g>
<text text-anchor="start" x="1186.5" y="-300.9" font-family="Helvetica,sans-Serif" font-size="12.00" fill="grey">tempvariables</text>
</g>
<!-- Node12&#45;&gt;Node11 -->
<g id="edge11_Node000011_Node000012" class="edge">
<title>Node12&#45;&gt;Node11</title>
<g id="a_edge11_Node000011_Node000012"><a xlink:title=" ">
<path fill="none" stroke="#9a32cd" stroke-dasharray="5,2" d="M615.74,-220C677.22,-220 754.67,-220 815.17,-220"/>
<polygon fill="#9a32cd" stroke="#9a32cd" points="615.63,-216.5 605.63,-220 615.63,-223.5 615.63,-216.5"/>
</a>
</g>
<text text-anchor="start" x="680.5" y="-225.9" font-family="Helvetica,sans-Serif" font-size="12.00" fill="grey">elements</text>
</g>
<!-- Node13 -->
<g id="Node000013" class="node">
<title>Node13</title>
<g id="a_Node000013"><a xlink:title=" ">
<polygon fill="white" stroke="#666666" points="568.5,-446.5 453.5,-446.5 453.5,-425.5 568.5,-425.5 568.5,-446.5"/>
<text text-anchor="middle" x="511" y="-432.9" font-family="Helvetica,sans-Serif" font-size="12.00">std::vector&lt; T &gt;</text>
</a>
</g>
</g>
<!-- Node13&#45;&gt;Node11 -->
<g id="edge13_Node000011_Node000013" class="edge">
<title>Node13&#45;&gt;Node11</title>
<g id="a_edge13_Node000011_Node000013"><a xlink:title=" ">
<path fill="none" stroke="orange" stroke-dasharray="5,2" d="M529.64,-418.14C551.56,-397.13 591.08,-362.97 632,-346 695.46,-319.68 734.43,-370.5 785,-324 811.19,-299.92 777.9,-271.21 803,-246 806.75,-242.23 810.95,-238.96 815.44,-236.14"/>
<polygon fill="orange" stroke="orange" points="527.1,-415.73 522.39,-425.23 531.99,-420.73 527.1,-415.73"/>
</a>
</g>
<text text-anchor="start" x="642.5" y="-369.4" font-family="Helvetica,sans-Serif" font-size="12.00" fill="grey">&lt; JKQTPMathParser::</text>
<text text-anchor="start" x="642.5" y="-352.4" font-family="Helvetica,sans-Serif" font-size="12.00" fill="grey">  jkmpTempVariable &gt;</text>
</g>
<!-- Node14 -->
<g id="Node000014" class="node">
<title>Node14</title>
<g id="a_Node000014"><a xlink:title=" ">
<polygon fill="white" stroke="#666666" points="249,-464.5 220,-464.5 220,-443.5 249,-443.5 249,-464.5"/>
<text text-anchor="middle" x="234.5" y="-450.9" font-family="Helvetica,sans-Serif" font-size="12.00">T</text>
</a>
</g>
</g>
<!-- Node14&#45;&gt;Node13 -->
<g id="edge14_Node000013_Node000014" class="edge">
<title>Node14&#45;&gt;Node13</title>
<g id="a_edge14_Node000013_Node000014"><a xlink:title=" ">
<path fill="none" stroke="#9a32cd" stroke-dasharray="5,2" d="M259.06,-447.45C277.62,-442.65 304.24,-436.54 328,-434 369.79,-429.53 417.28,-430.25 453.27,-431.97"/>
<polygon fill="#9a32cd" stroke="#9a32cd" points="257.9,-444.14 249.14,-450.09 259.71,-450.9 257.9,-444.14"/>
</a>
</g>
<text text-anchor="start" x="331" y="-439.9" font-family="Helvetica,sans-Serif" font-size="12.00" fill="grey">elements</text>
</g>
<!-- Node17 -->
<g id="Node000017" class="node">
<title>Node17</title>
<g id="a_Node000017"><a xlink:title=" ">
<polygon fill="white" stroke="#666666" points="570.5,-488.5 451.5,-488.5 451.5,-467.5 570.5,-467.5 570.5,-488.5"/>
<text text-anchor="middle" x="511" y="-474.9" font-family="Helvetica,sans-Serif" font-size="12.00">std::map&lt; K, T &gt;</text>
</a>
</g>
</g>
<!-- Node14&#45;&gt;Node17 -->
<g id="edge21_Node000017_Node000014" class="edge">
<title>Node14&#45;&gt;Node17</title>
<g id="a_edge21_Node000017_Node000014"><a xlink:title=" ">
<path fill="none" stroke="#9a32cd" stroke-dasharray="5,2" d="M259.29,-456.08C301.7,-459.79 391.5,-467.64 451.31,-472.87"/>
<polygon fill="#9a32cd" stroke="#9a32cd" points="259.38,-452.57 249.11,-455.19 258.77,-459.55 259.38,-452.57"/>
</a>
</g>
<text text-anchor="start" x="331" y="-473.9" font-family="Helvetica,sans-Serif" font-size="12.00" fill="grey">elements</text>
</g>
<!-- Node15&#45;&gt;Node3 -->
<g id="edge15_Node000003_Node000015" class="edge">
<title>Node15&#45;&gt;Node3</title>
<g id="a_edge15_Node000003_Node000015"><a xlink:title=" ">
<path fill="none" stroke="#9a32cd" stroke-dasharray="5,2" d="M987.84,-291.75C1000.58,-295.39 1013.7,-299.23 1026,-303 1034.06,-305.47 1035.76,-307.19 1044,-309 1180.25,-339.02 1345.44,-333.33 1432,-327.25"/>
<polygon fill="#9a32cd" stroke="#9a32cd" points="988.76,-288.38 978.18,-289.02 986.85,-295.11 988.76,-288.38"/>
</a>
</g>
<text text-anchor="start" x="1202.5" y="-338.9" font-family="Helvetica,sans-Serif" font-size="12.00" fill="grey">variables</text>
</g>
<!-- Node16&#45;&gt;Node15 -->
<g id="edge17_Node000015_Node000016" class="edge">
<title>Node16&#45;&gt;Node15</title>
<g id="a_edge17_Node000015_Node000016"><a xlink:title=" ">
<path fill="none" stroke="#9a32cd" stroke-dasharray="5,2" d="M599.45,-309.18C610.41,-307.74 621.46,-306.32 632,-305 688.27,-297.95 750.93,-290.56 802.82,-284.56"/>
<polygon fill="#9a32cd" stroke="#9a32cd" points="598.9,-305.72 589.44,-310.49 599.81,-312.66 598.9,-305.72"/>
</a>
</g>
<text text-anchor="start" x="680.5" y="-310.9" font-family="Helvetica,sans-Serif" font-size="12.00" fill="grey">elements</text>
</g>
<!-- Node17&#45;&gt;Node15 -->
<g id="edge19_Node000015_Node000017" class="edge">
<title>Node17&#45;&gt;Node15</title>
<g id="a_edge19_Node000015_Node000017"><a xlink:title=" ">
<path fill="none" stroke="orange" stroke-dasharray="5,2" d="M580.53,-469.56C592.29,-466.2 603.94,-461.51 614,-455 625.19,-447.75 621.05,-438.6 632,-431 690.23,-390.59 736.73,-437.9 785,-386 810.71,-358.36 777.12,-330.48 803,-303 808.26,-297.42 814.44,-292.81 821.13,-289.01"/>
<polygon fill="orange" stroke="orange" points="579.48,-466.22 570.66,-472.09 581.22,-473 579.48,-466.22"/>
</a>
</g>
<text text-anchor="start" x="635.5" y="-454.4" font-family="Helvetica,sans-Serif" font-size="12.00" fill="grey">&lt; std::string, JKQTPMath</text>
<text text-anchor="start" x="635.5" y="-437.4" font-family="Helvetica,sans-Serif" font-size="12.00" fill="grey">  Parser::jkmpVariable &gt;</text>
</g>
<!-- Node17&#45;&gt;Node19 -->
<g id="edge28_Node000019_Node000017" class="edge">
<title>Node17&#45;&gt;Node19</title>
<g id="a_edge28_Node000019_Node000017"><a xlink:title=" ">
<path fill="none" stroke="orange" stroke-dasharray="5,2" d="M580.72,-484.83C651.71,-490.26 756.09,-493.17 785,-467 827.59,-428.45 763.24,-380.47 803,-339 872.74,-266.26 930.1,-328.96 1026,-298 1041.74,-292.92 1125.87,-252.25 1180.62,-225.5"/>
<polygon fill="orange" stroke="orange" points="580.75,-481.32 570.5,-484.02 580.19,-488.3 580.75,-481.32"/>
</a>
</g>
<text text-anchor="start" x="810.5" y="-362.4" font-family="Helvetica,sans-Serif" font-size="12.00" fill="grey">&lt; std::string, JKQTPMath</text>
<text text-anchor="start" x="810.5" y="-345.4" font-family="Helvetica,sans-Serif" font-size="12.00" fill="grey">  Parser::jkmpFunctionDescriptor &gt;</text>
</g>
<!-- Node18 -->
<g id="Node000018" class="node">
<title>Node18</title>
<g id="a_Node000018"><a xlink:title=" ">
<polygon fill="white" stroke="#666666" points="249,-527.5 220,-527.5 220,-506.5 249,-506.5 249,-527.5"/>
<text text-anchor="middle" x="234.5" y="-513.9" font-family="Helvetica,sans-Serif" font-size="12.00">K</text>
</a>
</g>
</g>
<!-- Node18&#45;&gt;Node17 -->
<g id="edge20_Node000017_Node000018" class="edge">
<title>Node18&#45;&gt;Node17</title>
<g id="a_edge20_Node000017_Node000018"><a xlink:title=" ">
<path fill="none" stroke="#9a32cd" stroke-dasharray="5,2" d="M259.02,-513.66C301.31,-507.65 391.37,-494.85 451.31,-486.34"/>
<polygon fill="#9a32cd" stroke="#9a32cd" points="258.52,-510.19 249.11,-515.07 259.51,-517.12 258.52,-510.19"/>
</a>
</g>
<text text-anchor="start" x="345" y="-509.9" font-family="Helvetica,sans-Serif" font-size="12.00" fill="grey">keys</text>
</g>
<!-- Node19&#45;&gt;Node3 -->
<g id="edge22_Node000003_Node000019" class="edge">
<title>Node19&#45;&gt;Node3</title>
<g id="a_edge22_Node000003_Node000019"><a xlink:title=" ">
<path fill="none" stroke="#9a32cd" stroke-dasharray="5,2" d="M1332.64,-228.55C1359.85,-237.45 1388.7,-248.59 1414,-262 1439.86,-275.71 1465.95,-298.08 1480.3,-311.29"/>
<polygon fill="#9a32cd" stroke="#9a32cd" points="1333.68,-225.21 1323.09,-225.5 1331.55,-231.88 1333.68,-225.21"/>
</a>
</g>
<text text-anchor="start" x="1356.5" y="-267.9" font-family="Helvetica,sans-Serif" font-size="12.00" fill="grey">functions</text>
</g>
<!-- Node20&#45;&gt;Node19 -->
<g id="edge24_Node000019_Node000020" class="edge">
<title>Node20&#45;&gt;Node19</title>
<g id="a_edge24_Node000019_Node000020"><a xlink:title=" ">
<path fill="none" stroke="#9a32cd" stroke-dasharray="5,2" d="M1028.44,-179.63C1059.6,-183.11 1093.25,-186.88 1123.91,-190.3"/>
<polygon fill="#9a32cd" stroke="#9a32cd" points="1028.75,-176.14 1018.42,-178.51 1027.97,-183.1 1028.75,-176.14"/>
</a>
</g>
<text text-anchor="start" x="1047" y="-193.9" font-family="Helvetica,sans-Serif" font-size="12.00" fill="grey">elements</text>
</g>
<!-- Node21&#45;&gt;Node1 -->
<g id="edge32_Node000001_Node000021" class="edge">
<title>Node21&#45;&gt;Node1</title>
<g id="a_edge32_Node000001_Node000021"><a xlink:title=" ">
<path fill="none" stroke="#9a32cd" stroke-dasharray="5,2" d="M580.68,-67.83C597.43,-65.22 615.32,-62.73 632,-61 756.6,-48.08 788.23,-47 913.5,-47 913.5,-47 913.5,-47 1730,-47 1783.48,-47 1842.58,-49.91 1892.76,-53.25"/>
<polygon fill="#9a32cd" stroke="#9a32cd" points="579.75,-64.43 570.43,-69.46 580.85,-71.34 579.75,-64.43"/>
</a>
</g>
<text text-anchor="start" x="1359.5" y="-52.9" font-family="Helvetica,sans-Serif" font-size="12.00" fill="grey">function</text>
</g>
<!-- Node21&#45;&gt;Node20 -->
<g id="edge25_Node000020_Node000021" class="edge">
<title>Node21&#45;&gt;Node20</title>
<g id="a_edge25_Node000020_Node000021"><a xlink:title=" ">
<path fill="none" stroke="#9a32cd" stroke-dasharray="5,2" d="M590.51,-68.46C646.06,-63.11 721.64,-61.63 785,-81 829.15,-94.5 871.98,-128.68 895.34,-149.66"/>
<polygon fill="#9a32cd" stroke="#9a32cd" points="589.97,-64.99 580.38,-69.49 590.69,-71.96 589.97,-64.99"/>
</a>
</g>
<text text-anchor="start" x="684.5" y="-86.9" font-family="Helvetica,sans-Serif" font-size="12.00" fill="grey">function</text>
</g>
</g>
</svg>
