<?xml version="1.0" encoding="UTF-8" standalone="no"?>
<!DOCTYPE svg PUBLIC "-//W3C//DTD SVG 1.1//EN"
 "http://www.w3.org/Graphics/SVG/1.1/DTD/svg11.dtd">
<!-- Generated by graphviz version 2.43.0 (0)
 -->
<!-- Title: JKQTMathTextPhantomNode Pages: 1 -->
<svg width="524pt" height="221pt"
 viewBox="0.00 0.00 524.00 221.00" xmlns="http://www.w3.org/2000/svg" xmlns:xlink="http://www.w3.org/1999/xlink">
<g id="graph0" class="graph" transform="scale(1 1) rotate(0) translate(4 217)">
<title>JKQTMathTextPhantomNode</title>
<!-- Node1 -->
<g id="Node000001" class="node">
<title>Node1</title>
<g id="a_Node000001"><a xlink:title="generates whitespace with the size of the contained node">
<polygon fill="#999999" stroke="#666666" points="193.5,-21 8.5,-21 8.5,0 193.5,0 193.5,-21"/>
<text text-anchor="middle" x="101" y="-7.4" font-family="Helvetica,sans-Serif" font-size="12.00">JKQTMathTextPhantomNode</text>
</a>
</g>
</g>
<!-- Node2 -->
<g id="Node000002" class="node">
<title>Node2</title>
<g id="a_Node000002"><a xlink:href="class_j_k_q_t_math_text_instruction1_node.html" target="_top" xlink:title="subclass representing an instruction node with exactly one argument and possibly additional parameter...">
<polygon fill="white" stroke="#666666" points="202,-79 0,-79 0,-58 202,-58 202,-79"/>
<text text-anchor="middle" x="101" y="-65.4" font-family="Helvetica,sans-Serif" font-size="12.00">JKQTMathTextInstruction1Node</text>
</a>
</g>
</g>
<!-- Node2&#45;&gt;Node1 -->
<g id="edge1_Node000001_Node000002" class="edge">
<title>Node2&#45;&gt;Node1</title>
<g id="a_edge1_Node000001_Node000002"><a xlink:title=" ">
<path fill="none" stroke="#63b8ff" d="M101,-47.66C101,-38.66 101,-28.42 101,-21.14"/>
<polygon fill="#63b8ff" stroke="#63b8ff" points="97.5,-47.75 101,-57.75 104.5,-47.75 97.5,-47.75"/>
</a>
</g>
</g>
<!-- Node3 -->
<g id="Node000003" class="node">
<title>Node3</title>
<g id="a_Node000003"><a xlink:href="class_j_k_q_t_math_text_single_child_node.html" target="_top" xlink:title="subclass representing a node in the syntax tree, that has one child">
<polygon fill="white" stroke="#666666" points="199,-137 3,-137 3,-116 199,-116 199,-137"/>
<text text-anchor="middle" x="101" y="-123.4" font-family="Helvetica,sans-Serif" font-size="12.00">JKQTMathTextSingleChildNode</text>
</a>
</g>
</g>
<!-- Node3&#45;&gt;Node2 -->
<g id="edge2_Node000002_Node000003" class="edge">
<title>Node3&#45;&gt;Node2</title>
<g id="a_edge2_Node000002_Node000003"><a xlink:title=" ">
<path fill="none" stroke="#63b8ff" d="M101,-105.66C101,-96.66 101,-86.42 101,-79.14"/>
<polygon fill="#63b8ff" stroke="#63b8ff" points="97.5,-105.75 101,-115.75 104.5,-105.75 97.5,-105.75"/>
</a>
</g>
</g>
<!-- Node4 -->
<g id="Node000004" class="node">
<title>Node4</title>
<g id="a_Node000004"><a xlink:href="class_j_k_q_t_math_text_node.html" target="_top" xlink:title="subclass representing one node in the syntax tree">
<polygon fill="white" stroke="#666666" points="205.5,-213 74.5,-213 74.5,-192 205.5,-192 205.5,-213"/>
<text text-anchor="middle" x="140" y="-199.4" font-family="Helvetica,sans-Serif" font-size="12.00">JKQTMathTextNode</text>
</a>
</g>
</g>
<!-- Node4&#45;&gt;Node3 -->
<g id="edge3_Node000003_Node000004" class="edge">
<title>Node4&#45;&gt;Node3</title>
<g id="a_edge3_Node000003_Node000004"><a xlink:title=" ">
<path fill="none" stroke="#63b8ff" d="M103.61,-186.48C98.97,-183.06 94.86,-178.93 92,-174 85.32,-162.47 90.7,-146.92 95.55,-137.04"/>
<polygon fill="#63b8ff" stroke="#63b8ff" points="102.01,-189.61 112.35,-191.92 105.71,-183.67 102.01,-189.61"/>
</a>
</g>
</g>
<!-- Node4&#45;&gt;Node3 -->
<g id="edge9_Node000003_Node000004" class="edge">
<title>Node4&#45;&gt;Node3</title>
<g id="a_edge9_Node000003_Node000004"><a xlink:title=" ">
<path fill="none" stroke="#9a32cd" stroke-dasharray="5,2" d="M120.17,-184.9C117.07,-181.56 114.18,-177.87 112,-174 105.48,-162.44 102.81,-147.16 101.73,-137.34"/>
<polygon fill="#9a32cd" stroke="#9a32cd" points="117.89,-187.57 127.52,-192 122.76,-182.54 117.89,-187.57"/>
</a>
</g>
<text text-anchor="start" x="115" y="-160.9" font-family="Helvetica,sans-Serif" font-size="12.00" fill="grey">child</text>
</g>
<!-- Node4&#45;&gt;Node4 -->
<g id="edge8_Node000004_Node000004" class="edge">
<title>Node4&#45;&gt;Node4</title>
<g id="a_edge8_Node000004_Node000004"><a xlink:title=" ">
<path fill="none" stroke="#9a32cd" stroke-dasharray="5,2" d="M216.02,-207.46C220.69,-206.29 223.5,-204.63 223.5,-202.5 223.5,-199.09 216.31,-196.9 205.81,-195.94"/>
<polygon fill="#9a32cd" stroke="#9a32cd" points="215.15,-204.06 205.81,-209.06 216.23,-210.97 215.15,-204.06"/>
</a>
</g>
<text text-anchor="start" x="227" y="-198.9" font-family="Helvetica,sans-Serif" font-size="12.00" fill="grey">parentNode</text>
</g>
<!-- Node5 -->
<g id="Node000005" class="node">
<title>Node5</title>
<g id="a_Node000005"><a xlink:href="class_j_k_q_t_math_text.html" target="_top" xlink:title="this class parses a mathematical markup string and can then draw the contained text/equation onto a Q...">
<polygon fill="white" stroke="#666666" points="329.5,-137 230.5,-137 230.5,-116 329.5,-116 329.5,-137"/>
<text text-anchor="middle" x="280" y="-123.4" font-family="Helvetica,sans-Serif" font-size="12.00">JKQTMathText</text>
</a>
</g>
</g>
<!-- Node4&#45;&gt;Node5 -->
<g id="edge6_Node000005_Node000004" class="edge">
<title>Node4&#45;&gt;Node5</title>
<g id="a_edge6_Node000005_Node000004"><a xlink:title=" ">
<path fill="none" stroke="#9a32cd" stroke-dasharray="5,2" d="M146.1,-182.2C150.06,-172.69 156.15,-161.82 165,-155 175.41,-146.99 204.16,-140.11 230.31,-135.24"/>
<polygon fill="#9a32cd" stroke="#9a32cd" points="142.76,-181.15 142.63,-191.74 149.34,-183.54 142.76,-181.15"/>
</a>
</g>
<text text-anchor="start" x="168.5" y="-160.9" font-family="Helvetica,sans-Serif" font-size="12.00" fill="grey">parsedNode</text>
</g>
<!-- Node5&#45;&gt;Node4 -->
<g id="edge4_Node000004_Node000005" class="edge">
<title>Node5&#45;&gt;Node4</title>
<g id="a_edge4_Node000004_Node000005"><a xlink:title=" ">
<path fill="none" stroke="#9a32cd" stroke-dasharray="5,2" d="M271.27,-146.18C265.85,-155.83 258.01,-167.02 248,-174 235.46,-182.74 220.37,-188.7 205.51,-192.77"/>
<polygon fill="#9a32cd" stroke="#9a32cd" points="274.4,-147.74 275.86,-137.25 268.18,-144.54 274.4,-147.74"/>
</a>
</g>
<text text-anchor="start" x="269" y="-160.9" font-family="Helvetica,sans-Serif" font-size="12.00" fill="grey">parentMathText</text>
</g>
<!-- Node6 -->
<g id="Node000006" class="node">
<title>Node6</title>
<g id="a_Node000006"><a xlink:title=" ">
<polygon fill="white" stroke="#666666" points="417.5,-213 352.5,-213 352.5,-192 417.5,-192 417.5,-213"/>
<text text-anchor="middle" x="385" y="-199.4" font-family="Helvetica,sans-Serif" font-size="12.00">QObject</text>
</a>
</g>
</g>
<!-- Node6&#45;&gt;Node5 -->
<g id="edge5_Node000005_Node000006" class="edge">
<title>Node6&#45;&gt;Node5</title>
<g id="a_edge5_Node000005_Node000006"><a xlink:title=" ">
<path fill="none" stroke="#63b8ff" d="M383.37,-181.97C381.63,-172.7 378.11,-162.12 371,-155 359.92,-143.91 344.53,-137.26 329.56,-133.29"/>
<polygon fill="#63b8ff" stroke="#63b8ff" points="379.91,-182.52 384.69,-191.97 386.85,-181.6 379.91,-182.52"/>
</a>
</g>
</g>
<!-- Node7 -->
<g id="Node000007" class="node">
<title>Node7</title>
<g id="a_Node000007"><a xlink:title=" ">
<polygon fill="white" stroke="#666666" points="516,-213 436,-213 436,-192 516,-192 516,-213"/>
<text text-anchor="middle" x="476" y="-199.4" font-family="Helvetica,sans-Serif" font-size="12.00">std::mutex</text>
</a>
</g>
</g>
<!-- Node7&#45;&gt;Node5 -->
<g id="edge7_Node000005_Node000007" class="edge">
<title>Node7&#45;&gt;Node5</title>
<g id="a_edge7_Node000005_Node000007"><a xlink:title=" ">
<path fill="none" stroke="#9a32cd" stroke-dasharray="5,2" d="M452.39,-186.64C435.53,-176.55 412.03,-163.55 390,-155 370.64,-147.48 348.56,-141.49 329.28,-137.04"/>
<polygon fill="#9a32cd" stroke="#9a32cd" points="450.66,-189.68 461.02,-191.89 454.3,-183.7 450.66,-189.68"/>
</a>
</g>
<text text-anchor="start" x="431.5" y="-160.9" font-family="Helvetica,sans-Serif" font-size="12.00" fill="grey">s_mutex</text>
</g>
</g>
</svg>
