<?xml version="1.0" encoding="UTF-8" standalone="no"?>
<!DOCTYPE svg PUBLIC "-//W3C//DTD SVG 1.1//EN"
 "http://www.w3.org/Graphics/SVG/1.1/DTD/svg11.dtd">
<!-- Generated by graphviz version 2.43.0 (0)
 -->
<!-- Title: JKQTPBarGraphBase Pages: 1 -->
<!--zoomable 174 -->

<svg id="main" version="1.1" xmlns="http://www.w3.org/2000/svg" xmlns:xlink="http://www.w3.org/1999/xlink" xml:space="preserve" onload="init(evt)">

<style type="text/css"><![CDATA[
.node, .edge {opacity: 0.7;}
.node.selected, .edge.selected {opacity: 1;}
.edge:hover path { stroke: red; }
.edge:hover polygon { stroke: red; fill: red; }
]]></style>

<defs>
  <circle id="rim" cx="0" cy="0" r="7"/>
  <circle id="rim2" cx="0" cy="0" r="3.5"/>
  <g id="zoomPlus">
    <use xlink:href="#rim" fill="#404040"><set attributeName="fill" to="#808080" begin="zoomplus.mouseover" end="zoomplus.mouseout"/></use>
    <path d="M-4,0h8M0,-4v8" fill="none" stroke="white" stroke-width="1.5" pointer-events="none"/>
  </g>
  <g id="zoomMin">
    <use xlink:href="#rim" fill="#404040"><set attributeName="fill" to="#808080" begin="zoomminus.mouseover" end="zoomminus.mouseout"/></use>
    <path d="M-4,0h8" fill="none" stroke="white" stroke-width="1.5" pointer-events="none"/>
  </g>
  <g id="arrowUp" transform="translate(30 24)">
    <use xlink:href="#rim"/>
    <path pointer-events="none" fill="none" stroke="white" stroke-width="1.5" d="M0,-3.0v7 M-2.5,-0.5L0,-3.0L2.5,-0.5"/>
  </g>
  <g id="arrowRight" transform="rotate(90) translate(36 -43)">
    <use xlink:href="#rim"/>
    <path pointer-events="none" fill="none" stroke="white" stroke-width="1.5" d="M0,-3.0v7 M-2.5,-0.5L0,-3.0L2.5,-0.5"/>
  </g>
  <g id="arrowDown" transform="rotate(180) translate(-30 -48)">
    <use xlink:href="#rim"/>
    <path pointer-events="none" fill="none" stroke="white" stroke-width="1.5" d="M0,-3.0v7 M-2.5,-0.5L0,-3.0L2.5,-0.5"/>
  </g>
  <g id="arrowLeft" transform="rotate(270) translate(-36 17)">
    <use xlink:href="#rim"/>
    <path pointer-events="none" fill="none" stroke="white" stroke-width="1.5" d="M0,-3.0v7 M-2.5,-0.5L0,-3.0L2.5,-0.5"/>
  </g>
  <g id="resetDef">
    <use xlink:href="#rim2" fill="#404040"><set attributeName="fill" to="#808080" begin="reset.mouseover" end="reset.mouseout"/></use>
  </g>
</defs>
<script type="application/ecmascript">
var viewWidth = 1329;
var viewHeight = 174;
var sectionId = 'dynsection-0';
</script>
<script type="application/ecmascript" xlink:href="svg.min.js"/>
<svg id="graph" class="graph">
<g id="viewport">
<title>JKQTPBarGraphBase</title>
<!-- Node1 -->
<g id="Node000001" class="node">
<title>Node1</title>
<g id="a_Node000001"><a xlink:title="This is a base&#45;class for all bar graphs with vertical or horizontal orientation (the orientation is i...">
<polygon fill="#999999" stroke="#666666" points="878,-96.5 738,-96.5 738,-75.5 878,-75.5 878,-96.5"/>
<text text-anchor="middle" x="808" y="-82.9" font-family="Helvetica,sans-Serif" font-size="12.00">JKQTPBarGraphBase</text>
</a>
</g>
</g>
<!-- Node9 -->
<g id="Node000009" class="node">
<title>Node9</title>
<g id="a_Node000009"><a xlink:href="class_j_k_q_t_p_bar_horizontal_graph.html" target="_top" xlink:title="This implements a horizontal bar graph with bars between &#160;and .">
<polygon fill="white" stroke="#666666" points="1085,-119.5 914,-119.5 914,-98.5 1085,-98.5 1085,-119.5"/>
<text text-anchor="middle" x="999.5" y="-105.9" font-family="Helvetica,sans-Serif" font-size="12.00">JKQTPBarHorizontalGraph</text>
</a>
</g>
</g>
<!-- Node1&#45;&gt;Node9 -->
<g id="edge8_Node000001_Node000009" class="edge">
<title>Node1&#45;&gt;Node9</title>
<g id="a_edge8_Node000001_Node000009"><a xlink:title=" ">
<path fill="none" stroke="#63b8ff" d="M888.15,-95.61C896.68,-96.64 905.4,-97.7 914,-98.74"/>
<polygon fill="#63b8ff" stroke="#63b8ff" points="888.57,-92.13 878.22,-94.4 887.72,-99.08 888.57,-92.13"/>
</a>
</g>
</g>
<!-- Node12 -->
<g id="Node000012" class="node">
<title>Node12</title>
<g id="a_Node000012"><a xlink:href="class_j_k_q_t_p_bar_vertical_graph.html" target="_top" xlink:title="This implements a vertical bar graph with bars between &#160;and .">
<polygon fill="white" stroke="#666666" points="1077,-73.5 922,-73.5 922,-52.5 1077,-52.5 1077,-73.5"/>
<text text-anchor="middle" x="999.5" y="-59.9" font-family="Helvetica,sans-Serif" font-size="12.00">JKQTPBarVerticalGraph</text>
</a>
</g>
</g>
<!-- Node1&#45;&gt;Node12 -->
<g id="edge11_Node000001_Node000012" class="edge">
<title>Node1&#45;&gt;Node12</title>
<g id="a_edge11_Node000001_Node000012"><a xlink:title=" ">
<path fill="none" stroke="#63b8ff" d="M888.3,-76.38C899.38,-75.03 910.75,-73.65 921.79,-72.31"/>
<polygon fill="#63b8ff" stroke="#63b8ff" points="887.72,-72.92 878.22,-77.6 888.57,-79.87 887.72,-72.92"/>
</a>
</g>
</g>
<!-- Node2 -->
<g id="Node000002" class="node">
<title>Node2</title>
<g id="a_Node000002"><a xlink:href="class_j_k_q_t_p_x_y_baseline_graph.html" target="_top" xlink:title="This virtual JKQTPGraph descendent extends JKQTPXYGraph adds a baseline&#45;property, which is necessary,...">
<polygon fill="white" stroke="#666666" points="692.5,-135.5 537.5,-135.5 537.5,-114.5 692.5,-114.5 692.5,-135.5"/>
<text text-anchor="middle" x="615" y="-121.9" font-family="Helvetica,sans-Serif" font-size="12.00">JKQTPXYBaselineGraph</text>
</a>
</g>
</g>
<!-- Node2&#45;&gt;Node1 -->
<g id="edge1_Node000001_Node000002" class="edge">
<title>Node2&#45;&gt;Node1</title>
<g id="a_edge1_Node000001_Node000002"><a xlink:title=" ">
<path fill="none" stroke="#63b8ff" d="M677.26,-112.49C702.48,-107.34 731.37,-101.44 755.47,-96.52"/>
<polygon fill="#63b8ff" stroke="#63b8ff" points="676.53,-109.07 667.44,-114.5 677.93,-115.93 676.53,-109.07"/>
</a>
</g>
</g>
<!-- Node3 -->
<g id="Node000003" class="node">
<title>Node3</title>
<g id="a_Node000003"><a xlink:href="class_j_k_q_t_p_x_y_graph.html" target="_top" xlink:title="This virtual JKQTPGraph descendent may be used as base for all graphs that use at least two columns t...">
<polygon fill="white" stroke="#666666" points="492,-135.5 387,-135.5 387,-114.5 492,-114.5 492,-135.5"/>
<text text-anchor="middle" x="439.5" y="-121.9" font-family="Helvetica,sans-Serif" font-size="12.00">JKQTPXYGraph</text>
</a>
</g>
</g>
<!-- Node3&#45;&gt;Node2 -->
<g id="edge2_Node000002_Node000003" class="edge">
<title>Node3&#45;&gt;Node2</title>
<g id="a_edge2_Node000002_Node000003"><a xlink:title=" ">
<path fill="none" stroke="#63b8ff" d="M502.28,-125C513.6,-125 525.54,-125 537.24,-125"/>
<polygon fill="#63b8ff" stroke="#63b8ff" points="502.09,-121.5 492.09,-125 502.09,-128.5 502.09,-121.5"/>
</a>
</g>
</g>
<!-- Node4 -->
<g id="Node000004" class="node">
<title>Node4</title>
<g id="a_Node000004"><a xlink:href="class_j_k_q_t_p_graph.html" target="_top" xlink:title="this virtual base class of the (data&#45;column based) graphs, which are part of a JKQTPlotter plot and w...">
<polygon fill="white" stroke="#666666" points="351,-135.5 262,-135.5 262,-114.5 351,-114.5 351,-135.5"/>
<text text-anchor="middle" x="306.5" y="-121.9" font-family="Helvetica,sans-Serif" font-size="12.00">JKQTPGraph</text>
</a>
</g>
</g>
<!-- Node4&#45;&gt;Node3 -->
<g id="edge3_Node000003_Node000004" class="edge">
<title>Node4&#45;&gt;Node3</title>
<g id="a_edge3_Node000003_Node000004"><a xlink:title=" ">
<path fill="none" stroke="#63b8ff" d="M361.27,-125C369.74,-125 378.48,-125 386.89,-125"/>
<polygon fill="#63b8ff" stroke="#63b8ff" points="361.12,-121.5 351.12,-125 361.12,-128.5 361.12,-121.5"/>
</a>
</g>
</g>
<!-- Node5 -->
<g id="Node000005" class="node">
<title>Node5</title>
<g id="a_Node000005"><a xlink:href="class_j_k_q_t_p_plot_element.html" target="_top" xlink:title="this virtual base class of every element, which is part of a JKQTPlotter plot and may appear in its k...">
<polygon fill="white" stroke="#666666" points="226,-135.5 101,-135.5 101,-114.5 226,-114.5 226,-135.5"/>
<text text-anchor="middle" x="163.5" y="-121.9" font-family="Helvetica,sans-Serif" font-size="12.00">JKQTPPlotElement</text>
</a>
</g>
</g>
<!-- Node5&#45;&gt;Node4 -->
<g id="edge4_Node000004_Node000005" class="edge">
<title>Node5&#45;&gt;Node4</title>
<g id="a_edge4_Node000004_Node000005"><a xlink:title=" ">
<path fill="none" stroke="#63b8ff" d="M236.51,-125C245.18,-125 253.82,-125 261.91,-125"/>
<polygon fill="#63b8ff" stroke="#63b8ff" points="236.34,-121.5 226.34,-125 236.34,-128.5 236.34,-121.5"/>
</a>
</g>
</g>
<!-- Node6 -->
<g id="Node000006" class="node">
<title>Node6</title>
<g id="a_Node000006"><a xlink:title=" ">
<polygon fill="white" stroke="#666666" points="65,-135.5 0,-135.5 0,-114.5 65,-114.5 65,-135.5"/>
<text text-anchor="middle" x="32.5" y="-121.9" font-family="Helvetica,sans-Serif" font-size="12.00">QObject</text>
</a>
</g>
</g>
<!-- Node6&#45;&gt;Node5 -->
<g id="edge5_Node000005_Node000006" class="edge">
<title>Node6&#45;&gt;Node5</title>
<g id="a_edge5_Node000005_Node000006"><a xlink:title=" ">
<path fill="none" stroke="#63b8ff" d="M75.09,-125C83.29,-125 92.05,-125 100.75,-125"/>
<polygon fill="#63b8ff" stroke="#63b8ff" points="75.06,-121.5 65.06,-125 75.06,-128.5 75.06,-121.5"/>
</a>
</g>
</g>
<!-- Node7 -->
<g id="Node000007" class="node">
<title>Node7</title>
<g id="a_Node000007"><a xlink:href="class_j_k_q_t_p_graph_line_style_mixin.html" target="_top" xlink:title="This Mix&#45;In class provides setter/getter methods, storage and other facilities for the graph line sty...">
<polygon fill="white" stroke="#666666" points="702,-96.5 528,-96.5 528,-75.5 702,-75.5 702,-96.5"/>
<text text-anchor="middle" x="615" y="-82.9" font-family="Helvetica,sans-Serif" font-size="12.00">JKQTPGraphLineStyleMixin</text>
</a>
</g>
</g>
<!-- Node7&#45;&gt;Node1 -->
<g id="edge6_Node000001_Node000007" class="edge">
<title>Node7&#45;&gt;Node1</title>
<g id="a_edge6_Node000001_Node000007"><a xlink:title=" ">
<path fill="none" stroke="#63b8ff" d="M712.14,-86C720.79,-86 729.43,-86 737.78,-86"/>
<polygon fill="#63b8ff" stroke="#63b8ff" points="712,-82.5 702,-86 712,-89.5 712,-82.5"/>
</a>
</g>
</g>
<!-- Node8 -->
<g id="Node000008" class="node">
<title>Node8</title>
<g id="a_Node000008"><a xlink:href="class_j_k_q_t_p_graph_fill_style_mixin.html" target="_top" xlink:title="This Mix&#45;In class provides setter/getter methods, storage and other facilities for the graph filling ...">
<polygon fill="white" stroke="#666666" points="697,-57.5 533,-57.5 533,-36.5 697,-36.5 697,-57.5"/>
<text text-anchor="middle" x="615" y="-43.9" font-family="Helvetica,sans-Serif" font-size="12.00">JKQTPGraphFillStyleMixin</text>
</a>
</g>
</g>
<!-- Node8&#45;&gt;Node1 -->
<g id="edge7_Node000001_Node000008" class="edge">
<title>Node8&#45;&gt;Node1</title>
<g id="a_edge7_Node000001_Node000008"><a xlink:title=" ">
<path fill="none" stroke="#63b8ff" d="M677.26,-59.51C702.48,-64.66 731.37,-70.56 755.47,-75.48"/>
<polygon fill="#63b8ff" stroke="#63b8ff" points="677.93,-56.07 667.44,-57.5 676.53,-62.93 677.93,-56.07"/>
</a>
</g>
</g>
<!-- Node10 -->
<g id="Node000010" class="node">
<title>Node10</title>
<g id="a_Node000010"><a xlink:href="class_j_k_q_t_p_bar_horizontal_error_graph.html" target="_top" xlink:title="This implements a horizontal bar graph with bars between &#160;and &#160;and error indicator.">
<polygon fill="white" stroke="#666666" points="1321,-165.5 1121,-165.5 1121,-144.5 1321,-144.5 1321,-165.5"/>
<text text-anchor="middle" x="1221" y="-151.9" font-family="Helvetica,sans-Serif" font-size="12.00">JKQTPBarHorizontalErrorGraph</text>
</a>
</g>
</g>
<!-- Node9&#45;&gt;Node10 -->
<g id="edge9_Node000009_Node000010" class="edge">
<title>Node9&#45;&gt;Node10</title>
<g id="a_edge9_Node000009_Node000010"><a xlink:title=" ">
<path fill="none" stroke="#63b8ff" d="M1058.37,-121.65C1078.22,-125.94 1100.57,-130.73 1121,-135 1136.02,-138.14 1152.34,-141.47 1167.31,-144.49"/>
<polygon fill="#63b8ff" stroke="#63b8ff" points="1059.07,-118.22 1048.55,-119.52 1057.58,-125.06 1059.07,-118.22"/>
</a>
</g>
</g>
<!-- Node11 -->
<g id="Node000011" class="node">
<title>Node11</title>
<g id="a_Node000011"><a xlink:href="class_j_k_q_t_p_bar_horizontal_stackable_graph.html" target="_top" xlink:title="This implements a horizontal bar graph with bars between &#160;and &#160;Optionally several graphs of this type...">
<polygon fill="white" stroke="#666666" points="1317.5,-126 1124.5,-126 1124.5,-92 1317.5,-92 1317.5,-126"/>
<text text-anchor="start" x="1132.5" y="-112.4" font-family="Helvetica,sans-Serif" font-size="12.00">JKQTPBarHorizontalStackable</text>
<text text-anchor="middle" x="1221" y="-99.4" font-family="Helvetica,sans-Serif" font-size="12.00">Graph</text>
</a>
</g>
</g>
<!-- Node9&#45;&gt;Node11 -->
<g id="edge10_Node000009_Node000011" class="edge">
<title>Node9&#45;&gt;Node11</title>
<g id="a_edge10_Node000009_Node000011"><a xlink:title=" ">
<path fill="none" stroke="#63b8ff" d="M1095.34,-109C1104.89,-109 1114.6,-109 1124.16,-109"/>
<polygon fill="#63b8ff" stroke="#63b8ff" points="1095.05,-105.5 1085.05,-109 1095.05,-112.5 1095.05,-105.5"/>
</a>
</g>
</g>
<!-- Node13 -->
<g id="Node000013" class="node">
<title>Node13</title>
<g id="a_Node000013"><a xlink:href="class_j_k_q_t_p_bar_vertical_error_graph.html" target="_top" xlink:title="This implements a vertical bar graph with bars between &#160;and &#160;and error indicator.">
<polygon fill="white" stroke="#666666" points="1313.5,-73.5 1128.5,-73.5 1128.5,-52.5 1313.5,-52.5 1313.5,-73.5"/>
<text text-anchor="middle" x="1221" y="-59.9" font-family="Helvetica,sans-Serif" font-size="12.00">JKQTPBarVerticalErrorGraph</text>
</a>
</g>
</g>
<!-- Node12&#45;&gt;Node13 -->
<g id="edge12_Node000012_Node000013" class="edge">
<title>Node12&#45;&gt;Node13</title>
<g id="a_edge12_Node000012_Node000013"><a xlink:title=" ">
<path fill="none" stroke="#63b8ff" d="M1087.41,-63C1100.81,-63 1114.69,-63 1128.19,-63"/>
<polygon fill="#63b8ff" stroke="#63b8ff" points="1087.27,-59.5 1077.27,-63 1087.27,-66.5 1087.27,-59.5"/>
</a>
</g>
</g>
<!-- Node14 -->
<g id="Node000014" class="node">
<title>Node14</title>
<g id="a_Node000014"><a xlink:href="class_j_k_q_t_p_bar_vertical_stackable_graph.html" target="_top" xlink:title="This implements a vertical bar graph with bars between &#160;and &#160;Optionally several graphs of this type m...">
<polygon fill="white" stroke="#666666" points="1309.5,-34 1132.5,-34 1132.5,0 1309.5,0 1309.5,-34"/>
<text text-anchor="start" x="1140.5" y="-20.4" font-family="Helvetica,sans-Serif" font-size="12.00">JKQTPBarVerticalStackable</text>
<text text-anchor="middle" x="1221" y="-7.4" font-family="Helvetica,sans-Serif" font-size="12.00">Graph</text>
</a>
</g>
</g>
<!-- Node12&#45;&gt;Node14 -->
<g id="edge13_Node000012_Node000014" class="edge">
<title>Node12&#45;&gt;Node14</title>
<g id="a_edge13_Node000012_Node000014"><a xlink:title=" ">
<path fill="none" stroke="#63b8ff" d="M1060.87,-50.35C1084.83,-45.33 1112.76,-39.47 1138.48,-34.08"/>
<polygon fill="#63b8ff" stroke="#63b8ff" points="1059.93,-46.97 1050.86,-52.45 1061.36,-53.82 1059.93,-46.97"/>
</a>
</g>
</g>
</g>
</svg>

<g id="navigator" transform="translate(0 0)" fill="#404254">
  <rect fill="#f2f5e9" fill-opacity="0.5" stroke="#606060" stroke-width=".5" x="0" y="0" width="60" height="60"/>
  <use id="zoomplus" xlink:href="#zoomPlus" x="17" y="9" onmousedown="handleZoom(evt,'in')"/>
  <use id="zoomminus" xlink:href="#zoomMin" x="42" y="9" onmousedown="handleZoom(evt,'out')"/>
  <use id="reset" xlink:href="#resetDef" x="30" y="36" onmousedown="handleReset()"/>
   <use id="arrowup" xlink:href="#arrowUp" x="0" y="0" onmousedown="handlePan(0,-1)"/>
  <use id="arrowright" xlink:href="#arrowRight" x="0" y="0" onmousedown="handlePan(1,0)"/>
  <use id="arrowdown" xlink:href="#arrowDown" x="0" y="0" onmousedown="handlePan(0,1)"/>
  <use id="arrowleft" xlink:href="#arrowLeft" x="0" y="0" onmousedown="handlePan(-1,0)"/>
</g>
<svg viewBox="0 0 15 15" width="100%" height="30px" preserveAspectRatio="xMaxYMin meet">
 <g id="arrow_out" transform="scale(0.3 0.3)">
  <a xlink:href="class_j_k_q_t_p_bar_graph_base__inherit__graph_org.svg" target="_base">
   <rect id="button" ry="5" rx="5" y="6" x="6" height="38" width="38"
        fill="#f2f5e9" fill-opacity="0.5" stroke="#606060" stroke-width="1.0"/>
   <path id="arrow"
     d="M 11.500037,31.436501 C 11.940474,20.09759 22.043105,11.32322 32.158766,21.979434 L 37.068811,17.246167 C 37.068811,17.246167 37.088388,32 37.088388,32 L 22.160133,31.978069 C 22.160133,31.978069 26.997745,27.140456 26.997745,27.140456 C 18.528582,18.264221 13.291696,25.230495 11.500037,31.436501 z"
     style="fill:#404040;"/>
  </a>
 </g>
</svg>

<style type='text/css'>
<![CDATA[
[data-mouse-over-selected='false'] { opacity: 0.7; }
[data-mouse-over-selected='true']  { opacity: 1.0; }
]]>
</style>
<script type="application/ecmascript"><![CDATA[
document.addEventListener('DOMContentLoaded', (event) => {
  highlightEdges();
  highlightAdjacentNodes();
});
]]></script>
</svg>
