<?xml version="1.0" encoding="UTF-8" standalone="no"?>
<!DOCTYPE svg PUBLIC "-//W3C//DTD SVG 1.1//EN"
 "http://www.w3.org/Graphics/SVG/1.1/DTD/svg11.dtd">
<!-- Generated by graphviz version 2.43.0 (0)
 -->
<!-- Title: JKQTPVerticalRange Pages: 1 -->
<svg width="508pt" height="200pt"
 viewBox="0.00 0.00 507.50 200.00" xmlns="http://www.w3.org/2000/svg" xmlns:xlink="http://www.w3.org/1999/xlink">
<g id="graph0" class="graph" transform="scale(1 1) rotate(0) translate(4 196)">
<title>JKQTPVerticalRange</title>
<!-- Node1 -->
<g id="Node000001" class="node">
<title>Node1</title>
<g id="a_Node000001"><a xlink:title="simply marks a range (and possibly a centerline) in a plot. This may be used to display e....">
<polygon fill="#999999" stroke="#666666" points="298.5,-21 162.5,-21 162.5,0 298.5,0 298.5,-21"/>
<text text-anchor="middle" x="230.5" y="-7.4" font-family="Helvetica,sans-Serif" font-size="12.00">JKQTPVerticalRange</text>
</a>
</g>
</g>
<!-- Node2 -->
<g id="Node000002" class="node">
<title>Node2</title>
<g id="a_Node000002"><a xlink:href="class_j_k_q_t_p_range_base.html" target="_top" xlink:title="simply marks a range (and possibly a centerline) in a plot. This may be used to display e....">
<polygon fill="white" stroke="#666666" points="290.5,-78 170.5,-78 170.5,-57 290.5,-57 290.5,-78"/>
<text text-anchor="middle" x="230.5" y="-64.4" font-family="Helvetica,sans-Serif" font-size="12.00">JKQTPRangeBase</text>
</a>
</g>
</g>
<!-- Node2&#45;&gt;Node1 -->
<g id="edge1_Node000001_Node000002" class="edge">
<title>Node2&#45;&gt;Node1</title>
<g id="a_edge1_Node000001_Node000002"><a xlink:title=" ">
<path fill="none" stroke="#63b8ff" d="M230.5,-46.86C230.5,-38.2 230.5,-28.42 230.5,-21.34"/>
<polygon fill="#63b8ff" stroke="#63b8ff" points="227,-46.92 230.5,-56.92 234,-46.92 227,-46.92"/>
</a>
</g>
</g>
<!-- Node3 -->
<g id="Node000003" class="node">
<title>Node3</title>
<g id="a_Node000003"><a xlink:href="class_j_k_q_t_p_plot_element.html" target="_top" xlink:title="this virtual base class of every element, which is part of a JKQTPlotter plot and may appear in its k...">
<polygon fill="white" stroke="#666666" points="125,-135 0,-135 0,-114 125,-114 125,-135"/>
<text text-anchor="middle" x="62.5" y="-121.4" font-family="Helvetica,sans-Serif" font-size="12.00">JKQTPPlotElement</text>
</a>
</g>
</g>
<!-- Node3&#45;&gt;Node2 -->
<g id="edge2_Node000002_Node000003" class="edge">
<title>Node3&#45;&gt;Node2</title>
<g id="a_edge2_Node000002_Node000003"><a xlink:title=" ">
<path fill="none" stroke="#63b8ff" d="M101.63,-110.69C132.09,-100.72 173.69,-87.1 201.29,-78.06"/>
<polygon fill="#63b8ff" stroke="#63b8ff" points="100.18,-107.48 91.76,-113.92 102.36,-114.13 100.18,-107.48"/>
</a>
</g>
</g>
<!-- Node4 -->
<g id="Node000004" class="node">
<title>Node4</title>
<g id="a_Node000004"><a xlink:title=" ">
<polygon fill="white" stroke="#666666" points="95,-192 30,-192 30,-171 95,-171 95,-192"/>
<text text-anchor="middle" x="62.5" y="-178.4" font-family="Helvetica,sans-Serif" font-size="12.00">QObject</text>
</a>
</g>
</g>
<!-- Node4&#45;&gt;Node3 -->
<g id="edge3_Node000003_Node000004" class="edge">
<title>Node4&#45;&gt;Node3</title>
<g id="a_edge3_Node000003_Node000004"><a xlink:title=" ">
<path fill="none" stroke="#63b8ff" d="M62.5,-160.86C62.5,-152.2 62.5,-142.42 62.5,-135.34"/>
<polygon fill="#63b8ff" stroke="#63b8ff" points="59,-160.92 62.5,-170.92 66,-160.92 59,-160.92"/>
</a>
</g>
</g>
<!-- Node5 -->
<g id="Node000005" class="node">
<title>Node5</title>
<g id="a_Node000005"><a xlink:href="class_j_k_q_t_p_graph_line_style_mixin.html" target="_top" xlink:title="This Mix&#45;In class provides setter/getter methods, storage and other facilities for the graph line sty...">
<polygon fill="white" stroke="#666666" points="317.5,-135 143.5,-135 143.5,-114 317.5,-114 317.5,-135"/>
<text text-anchor="middle" x="230.5" y="-121.4" font-family="Helvetica,sans-Serif" font-size="12.00">JKQTPGraphLineStyleMixin</text>
</a>
</g>
</g>
<!-- Node5&#45;&gt;Node2 -->
<g id="edge4_Node000002_Node000005" class="edge">
<title>Node5&#45;&gt;Node2</title>
<g id="a_edge4_Node000002_Node000005"><a xlink:title=" ">
<path fill="none" stroke="#63b8ff" d="M230.5,-103.86C230.5,-95.2 230.5,-85.42 230.5,-78.34"/>
<polygon fill="#63b8ff" stroke="#63b8ff" points="227,-103.92 230.5,-113.92 234,-103.92 227,-103.92"/>
</a>
</g>
</g>
<!-- Node6 -->
<g id="Node000006" class="node">
<title>Node6</title>
<g id="a_Node000006"><a xlink:href="class_j_k_q_t_p_graph_fill_style_mixin.html" target="_top" xlink:title="This Mix&#45;In class provides setter/getter methods, storage and other facilities for the graph filling ...">
<polygon fill="white" stroke="#666666" points="499.5,-135 335.5,-135 335.5,-114 499.5,-114 499.5,-135"/>
<text text-anchor="middle" x="417.5" y="-121.4" font-family="Helvetica,sans-Serif" font-size="12.00">JKQTPGraphFillStyleMixin</text>
</a>
</g>
</g>
<!-- Node6&#45;&gt;Node2 -->
<g id="edge5_Node000002_Node000006" class="edge">
<title>Node6&#45;&gt;Node2</title>
<g id="a_edge5_Node000002_Node000006"><a xlink:title=" ">
<path fill="none" stroke="#63b8ff" d="M375.27,-111.08C341.25,-101.07 294.14,-87.22 263.01,-78.06"/>
<polygon fill="#63b8ff" stroke="#63b8ff" points="374.35,-114.46 384.93,-113.92 376.32,-107.74 374.35,-114.46"/>
</a>
</g>
</g>
</g>
</svg>
