<?xml version="1.0" encoding="UTF-8" standalone="no"?>
<!DOCTYPE svg PUBLIC "-//W3C//DTD SVG 1.1//EN"
 "http://www.w3.org/Graphics/SVG/1.1/DTD/svg11.dtd">
<!-- Generated by graphviz version 2.43.0 (0)
 -->
<!-- Title: JKQTFPVCrossPlot Pages: 1 -->
<svg width="130pt" height="200pt"
 viewBox="0.00 0.00 130.00 200.00" xmlns="http://www.w3.org/2000/svg" xmlns:xlink="http://www.w3.org/1999/xlink">
<g id="graph0" class="graph" transform="scale(1 1) rotate(0) translate(4 196)">
<title>JKQTFPVCrossPlot</title>
<!-- Node1 -->
<g id="Node000001" class="node">
<title>Node1</title>
<g id="a_Node000001"><a xlink:title="a simple plot that draws a cross for every datapoint">
<polygon fill="#999999" stroke="#666666" points="122,-21 0,-21 0,0 122,0 122,-21"/>
<text text-anchor="middle" x="61" y="-7.4" font-family="Helvetica,sans-Serif" font-size="12.00">JKQTFPVCrossPlot</text>
</a>
</g>
</g>
<!-- Node2 -->
<g id="Node000002" class="node">
<title>Node2</title>
<g id="a_Node000002"><a xlink:href="class_j_k_q_t_f_p_line_plot.html" target="_top" xlink:title="a simple line plot for JKQTFastPlotter">
<polygon fill="white" stroke="#666666" points="114.5,-78 7.5,-78 7.5,-57 114.5,-57 114.5,-78"/>
<text text-anchor="middle" x="61" y="-64.4" font-family="Helvetica,sans-Serif" font-size="12.00">JKQTFPLinePlot</text>
</a>
</g>
</g>
<!-- Node2&#45;&gt;Node1 -->
<g id="edge1_Node000001_Node000002" class="edge">
<title>Node2&#45;&gt;Node1</title>
<g id="a_edge1_Node000001_Node000002"><a xlink:title=" ">
<path fill="none" stroke="#63b8ff" d="M61,-46.86C61,-38.2 61,-28.42 61,-21.34"/>
<polygon fill="#63b8ff" stroke="#63b8ff" points="57.5,-46.92 61,-56.92 64.5,-46.92 57.5,-46.92"/>
</a>
</g>
</g>
<!-- Node3 -->
<g id="Node000003" class="node">
<title>Node3</title>
<g id="a_Node000003"><a xlink:href="class_j_k_q_t_f_p_plot.html" target="_top" xlink:title="base class for all plots that may be plotted by JKQTFastPlotter">
<polygon fill="white" stroke="#666666" points="102,-135 20,-135 20,-114 102,-114 102,-135"/>
<text text-anchor="middle" x="61" y="-121.4" font-family="Helvetica,sans-Serif" font-size="12.00">JKQTFPPlot</text>
</a>
</g>
</g>
<!-- Node3&#45;&gt;Node2 -->
<g id="edge2_Node000002_Node000003" class="edge">
<title>Node3&#45;&gt;Node2</title>
<g id="a_edge2_Node000002_Node000003"><a xlink:title=" ">
<path fill="none" stroke="#63b8ff" d="M61,-103.86C61,-95.2 61,-85.42 61,-78.34"/>
<polygon fill="#63b8ff" stroke="#63b8ff" points="57.5,-103.92 61,-113.92 64.5,-103.92 57.5,-103.92"/>
</a>
</g>
</g>
<!-- Node4 -->
<g id="Node000004" class="node">
<title>Node4</title>
<g id="a_Node000004"><a xlink:title=" ">
<polygon fill="white" stroke="#666666" points="93.5,-192 28.5,-192 28.5,-171 93.5,-171 93.5,-192"/>
<text text-anchor="middle" x="61" y="-178.4" font-family="Helvetica,sans-Serif" font-size="12.00">QObject</text>
</a>
</g>
</g>
<!-- Node4&#45;&gt;Node3 -->
<g id="edge3_Node000003_Node000004" class="edge">
<title>Node4&#45;&gt;Node3</title>
<g id="a_edge3_Node000003_Node000004"><a xlink:title=" ">
<path fill="none" stroke="#63b8ff" d="M61,-160.86C61,-152.2 61,-142.42 61,-135.34"/>
<polygon fill="#63b8ff" stroke="#63b8ff" points="57.5,-160.92 61,-170.92 64.5,-160.92 57.5,-160.92"/>
</a>
</g>
</g>
</g>
</svg>
