<?xml version="1.0" encoding="UTF-8" standalone="no"?>
<!DOCTYPE svg PUBLIC "-//W3C//DTD SVG 1.1//EN"
 "http://www.w3.org/Graphics/SVG/1.1/DTD/svg11.dtd">
<!-- Generated by graphviz version 2.43.0 (0)
 -->
<!-- Title: JKQTMathTextDualChildNode Pages: 1 -->
<svg width="196pt" height="200pt"
 viewBox="0.00 0.00 196.00 200.00" xmlns="http://www.w3.org/2000/svg" xmlns:xlink="http://www.w3.org/1999/xlink">
<g id="graph0" class="graph" transform="scale(1 1) rotate(0) translate(4 196)">
<title>JKQTMathTextDualChildNode</title>
<!-- Node1 -->
<g id="Node000001" class="node">
<title>Node1</title>
<g id="a_Node000001"><a xlink:title="subclass representing a node in the syntax tree, that has two children">
<polygon fill="#999999" stroke="#666666" points="187.5,-78 0.5,-78 0.5,-57 187.5,-57 187.5,-78"/>
<text text-anchor="middle" x="94" y="-64.4" font-family="Helvetica,sans-Serif" font-size="12.00">JKQTMathTextDualChildNode</text>
</a>
</g>
</g>
<!-- Node4 -->
<g id="Node000004" class="node">
<title>Node4</title>
<g id="a_Node000004"><a xlink:href="class_j_k_q_t_math_text_frac_node.html" target="_top" xlink:title="subclass representing a \frac node">
<polygon fill="white" stroke="#666666" points="172,-21 16,-21 16,0 172,0 172,-21"/>
<text text-anchor="middle" x="94" y="-7.4" font-family="Helvetica,sans-Serif" font-size="12.00">JKQTMathTextFracNode</text>
</a>
</g>
</g>
<!-- Node1&#45;&gt;Node4 -->
<g id="edge3_Node000001_Node000004" class="edge">
<title>Node1&#45;&gt;Node4</title>
<g id="a_edge3_Node000001_Node000004"><a xlink:title=" ">
<path fill="none" stroke="#63b8ff" d="M94,-46.86C94,-38.2 94,-28.42 94,-21.34"/>
<polygon fill="#63b8ff" stroke="#63b8ff" points="90.5,-46.92 94,-56.92 97.5,-46.92 90.5,-46.92"/>
</a>
</g>
</g>
<!-- Node2 -->
<g id="Node000002" class="node">
<title>Node2</title>
<g id="a_Node000002"><a xlink:href="class_j_k_q_t_math_text_multi_child_node.html" target="_top" xlink:title="subclass representing a node in the syntax tree, that has two children">
<polygon fill="white" stroke="#666666" points="188,-135 0,-135 0,-114 188,-114 188,-135"/>
<text text-anchor="middle" x="94" y="-121.4" font-family="Helvetica,sans-Serif" font-size="12.00">JKQTMathTextMultiChildNode</text>
</a>
</g>
</g>
<!-- Node2&#45;&gt;Node1 -->
<g id="edge1_Node000001_Node000002" class="edge">
<title>Node2&#45;&gt;Node1</title>
<g id="a_edge1_Node000001_Node000002"><a xlink:title=" ">
<path fill="none" stroke="#63b8ff" d="M94,-103.86C94,-95.2 94,-85.42 94,-78.34"/>
<polygon fill="#63b8ff" stroke="#63b8ff" points="90.5,-103.92 94,-113.92 97.5,-103.92 90.5,-103.92"/>
</a>
</g>
</g>
<!-- Node3 -->
<g id="Node000003" class="node">
<title>Node3</title>
<g id="a_Node000003"><a xlink:href="class_j_k_q_t_math_text_node.html" target="_top" xlink:title="subclass representing one node in the syntax tree">
<polygon fill="white" stroke="#666666" points="159.5,-192 28.5,-192 28.5,-171 159.5,-171 159.5,-192"/>
<text text-anchor="middle" x="94" y="-178.4" font-family="Helvetica,sans-Serif" font-size="12.00">JKQTMathTextNode</text>
</a>
</g>
</g>
<!-- Node3&#45;&gt;Node2 -->
<g id="edge2_Node000002_Node000003" class="edge">
<title>Node3&#45;&gt;Node2</title>
<g id="a_edge2_Node000002_Node000003"><a xlink:title=" ">
<path fill="none" stroke="#63b8ff" d="M94,-160.86C94,-152.2 94,-142.42 94,-135.34"/>
<polygon fill="#63b8ff" stroke="#63b8ff" points="90.5,-160.92 94,-170.92 97.5,-160.92 90.5,-160.92"/>
</a>
</g>
</g>
</g>
</svg>
