<?xml version="1.0" encoding="UTF-8" standalone="no"?>
<!DOCTYPE svg PUBLIC "-//W3C//DTD SVG 1.1//EN"
 "http://www.w3.org/Graphics/SVG/1.1/DTD/svg11.dtd">
<!-- Generated by graphviz version 2.43.0 (0)
 -->
<!-- Title: JKQTMathTextVerticalListNode Pages: 1 -->
<svg width="487pt" height="163pt"
 viewBox="0.00 0.00 487.00 163.00" xmlns="http://www.w3.org/2000/svg" xmlns:xlink="http://www.w3.org/1999/xlink">
<g id="graph0" class="graph" transform="scale(1 1) rotate(0) translate(4 159)">
<title>JKQTMathTextVerticalListNode</title>
<!-- Node1 -->
<g id="Node000001" class="node">
<title>Node1</title>
<g id="a_Node000001"><a xlink:title="subclass representing a list of nodes in the syntax tree, layed out vertically">
<polygon fill="#999999" stroke="#666666" points="196,-21 0,-21 0,0 196,0 196,-21"/>
<text text-anchor="middle" x="98" y="-7.4" font-family="Helvetica,sans-Serif" font-size="12.00">JKQTMathTextVerticalListNode</text>
</a>
</g>
</g>
<!-- Node2 -->
<g id="Node000002" class="node">
<title>Node2</title>
<g id="a_Node000002"><a xlink:href="class_j_k_q_t_math_text_multi_child_node.html" target="_top" xlink:title="subclass representing a node in the syntax tree, that has two children">
<polygon fill="white" stroke="#666666" points="192,-79 4,-79 4,-58 192,-58 192,-79"/>
<text text-anchor="middle" x="98" y="-65.4" font-family="Helvetica,sans-Serif" font-size="12.00">JKQTMathTextMultiChildNode</text>
</a>
</g>
</g>
<!-- Node2&#45;&gt;Node1 -->
<g id="edge1_Node000001_Node000002" class="edge">
<title>Node2&#45;&gt;Node1</title>
<g id="a_edge1_Node000001_Node000002"><a xlink:title=" ">
<path fill="none" stroke="#63b8ff" d="M98,-47.66C98,-38.66 98,-28.42 98,-21.14"/>
<polygon fill="#63b8ff" stroke="#63b8ff" points="94.5,-47.75 98,-57.75 101.5,-47.75 94.5,-47.75"/>
</a>
</g>
</g>
<!-- Node3 -->
<g id="Node000003" class="node">
<title>Node3</title>
<g id="a_Node000003"><a xlink:href="class_j_k_q_t_math_text_node.html" target="_top" xlink:title="subclass representing one node in the syntax tree">
<polygon fill="white" stroke="#666666" points="196.5,-155 65.5,-155 65.5,-134 196.5,-134 196.5,-155"/>
<text text-anchor="middle" x="131" y="-141.4" font-family="Helvetica,sans-Serif" font-size="12.00">JKQTMathTextNode</text>
</a>
</g>
</g>
<!-- Node3&#45;&gt;Node2 -->
<g id="edge2_Node000002_Node000003" class="edge">
<title>Node3&#45;&gt;Node2</title>
<g id="a_edge2_Node000002_Node000003"><a xlink:title=" ">
<path fill="none" stroke="#63b8ff" d="M117.3,-125.34C115.36,-122.31 113.51,-119.14 112,-116 106.15,-103.84 102.14,-88.72 99.96,-79.08"/>
<polygon fill="#63b8ff" stroke="#63b8ff" points="114.58,-127.57 123.17,-133.78 120.33,-123.57 114.58,-127.57"/>
</a>
</g>
</g>
<!-- Node3&#45;&gt;Node3 -->
<g id="edge7_Node000003_Node000003" class="edge">
<title>Node3&#45;&gt;Node3</title>
<g id="a_edge7_Node000003_Node000003"><a xlink:title=" ">
<path fill="none" stroke="#9a32cd" stroke-dasharray="5,2" d="M207.02,-149.46C211.69,-148.29 214.5,-146.63 214.5,-144.5 214.5,-141.09 207.31,-138.9 196.81,-137.94"/>
<polygon fill="#9a32cd" stroke="#9a32cd" points="206.15,-146.06 196.81,-151.06 207.23,-152.97 206.15,-146.06"/>
</a>
</g>
<text text-anchor="start" x="218" y="-140.9" font-family="Helvetica,sans-Serif" font-size="12.00" fill="grey">parentNode</text>
</g>
<!-- Node4 -->
<g id="Node000004" class="node">
<title>Node4</title>
<g id="a_Node000004"><a xlink:href="class_j_k_q_t_math_text.html" target="_top" xlink:title="this class parses a mathematical markup string and can then draw the contained text/equation onto a Q...">
<polygon fill="white" stroke="#666666" points="353.5,-79 254.5,-79 254.5,-58 353.5,-58 353.5,-79"/>
<text text-anchor="middle" x="304" y="-65.4" font-family="Helvetica,sans-Serif" font-size="12.00">JKQTMathText</text>
</a>
</g>
</g>
<!-- Node3&#45;&gt;Node4 -->
<g id="edge5_Node000004_Node000003" class="edge">
<title>Node3&#45;&gt;Node4</title>
<g id="a_edge5_Node000004_Node000003"><a xlink:title=" ">
<path fill="none" stroke="#9a32cd" stroke-dasharray="5,2" d="M123.91,-123.82C121.95,-114.68 121.8,-104.24 128,-97 136.19,-87.43 205.31,-78.89 254.44,-73.96"/>
<polygon fill="#9a32cd" stroke="#9a32cd" points="120.63,-125.08 126.77,-133.71 127.35,-123.13 120.63,-125.08"/>
</a>
</g>
<text text-anchor="start" x="131.5" y="-102.9" font-family="Helvetica,sans-Serif" font-size="12.00" fill="grey">parsedNode</text>
</g>
<!-- Node4&#45;&gt;Node3 -->
<g id="edge3_Node000003_Node000004" class="edge">
<title>Node4&#45;&gt;Node3</title>
<g id="a_edge3_Node000003_Node000004"><a xlink:title=" ">
<path fill="none" stroke="#9a32cd" stroke-dasharray="5,2" d="M259.49,-82.51C249.4,-86.41 239,-91.22 230,-97 219.95,-103.45 221.13,-109.67 211,-116 198.54,-123.78 183.61,-129.68 170.04,-133.98"/>
<polygon fill="#9a32cd" stroke="#9a32cd" points="260.82,-85.76 269.03,-79.06 258.43,-79.17 260.82,-85.76"/>
</a>
</g>
<text text-anchor="start" x="233" y="-102.9" font-family="Helvetica,sans-Serif" font-size="12.00" fill="grey">parentMathText</text>
</g>
<!-- Node5 -->
<g id="Node000005" class="node">
<title>Node5</title>
<g id="a_Node000005"><a xlink:title=" ">
<polygon fill="white" stroke="#666666" points="380.5,-155 315.5,-155 315.5,-134 380.5,-134 380.5,-155"/>
<text text-anchor="middle" x="348" y="-141.4" font-family="Helvetica,sans-Serif" font-size="12.00">QObject</text>
</a>
</g>
</g>
<!-- Node5&#45;&gt;Node4 -->
<g id="edge4_Node000004_Node000005" class="edge">
<title>Node5&#45;&gt;Node4</title>
<g id="a_edge4_Node000004_Node000005"><a xlink:title=" ">
<path fill="none" stroke="#63b8ff" d="M344.57,-123.94C342.44,-115.23 339.11,-105.13 334,-97 329.72,-90.18 323.3,-83.98 317.5,-79.2"/>
<polygon fill="#63b8ff" stroke="#63b8ff" points="341.19,-124.9 346.66,-133.97 348.04,-123.47 341.19,-124.9"/>
</a>
</g>
</g>
<!-- Node6 -->
<g id="Node000006" class="node">
<title>Node6</title>
<g id="a_Node000006"><a xlink:title=" ">
<polygon fill="white" stroke="#666666" points="479,-155 399,-155 399,-134 479,-134 479,-155"/>
<text text-anchor="middle" x="439" y="-141.4" font-family="Helvetica,sans-Serif" font-size="12.00">std::mutex</text>
</a>
</g>
</g>
<!-- Node6&#45;&gt;Node4 -->
<g id="edge6_Node000004_Node000006" class="edge">
<title>Node6&#45;&gt;Node4</title>
<g id="a_edge6_Node000004_Node000006"><a xlink:title=" ">
<path fill="none" stroke="#9a32cd" stroke-dasharray="5,2" d="M412.78,-129.13C385.94,-114.42 344.98,-91.96 321.73,-79.22"/>
<polygon fill="#9a32cd" stroke="#9a32cd" points="411.18,-132.24 421.63,-133.98 414.54,-126.1 411.18,-132.24"/>
</a>
</g>
<text text-anchor="start" x="390.5" y="-102.9" font-family="Helvetica,sans-Serif" font-size="12.00" fill="grey">s_mutex</text>
</g>
</g>
</svg>
