<?xml version="1.0" encoding="UTF-8" standalone="no"?>
<!DOCTYPE svg PUBLIC "-//W3C//DTD SVG 1.1//EN"
 "http://www.w3.org/Graphics/SVG/1.1/DTD/svg11.dtd">
<!-- Generated by graphviz version 2.43.0 (0)
 -->
<!-- Title: JKQTMathTextParser Pages: 1 -->
<svg width="400pt" height="181pt"
 viewBox="0.00 0.00 399.50 181.00" xmlns="http://www.w3.org/2000/svg" xmlns:xlink="http://www.w3.org/1999/xlink">

<svg id="main" version="1.1" xmlns="http://www.w3.org/2000/svg" xmlns:xlink="http://www.w3.org/1999/xlink" xml:space="preserve">

<style type="text/css"><![CDATA[
.node, .edge {opacity: 0.7;}
.node.selected, .edge.selected {opacity: 1;}
.edge:hover path { stroke: red; }
.edge:hover polygon { stroke: red; fill: red; }
]]></style>
<script type="application/ecmascript" xlink:href="svg.min.js"/>
<svg id="graph" class="graph">
<g id="graph0" class="graph" transform="scale(1 1) rotate(0) translate(4 177)">
<title>JKQTMathTextParser</title>
<!-- Node1 -->
<g id="Node000001" class="node">
<title>Node1</title>
<g id="a_Node000001"><a xlink:title="base class for all math markup parsers used by JKQTMathText">
<polygon fill="#999999" stroke="#666666" points="137,-21 0,-21 0,0 137,0 137,-21"/>
<text text-anchor="middle" x="68.5" y="-7.4" font-family="Helvetica,sans-Serif" font-size="12.00">JKQTMathTextParser</text>
</a>
</g>
</g>
<!-- Node2 -->
<g id="Node000002" class="node">
<title>Node2</title>
<g id="a_Node000002"><a xlink:title=" ">
<polygon fill="white" stroke="#666666" points="116,-173 51,-173 51,-152 116,-152 116,-173"/>
<text text-anchor="middle" x="83.5" y="-159.4" font-family="Helvetica,sans-Serif" font-size="12.00">QObject</text>
</a>
</g>
</g>
<!-- Node2&#45;&gt;Node1 -->
<g id="edge1_Node000001_Node000002" class="edge">
<title>Node2&#45;&gt;Node1</title>
<g id="a_edge1_Node000001_Node000002"><a xlink:title=" ">
<path fill="none" stroke="#63b8ff" d="M81.5,-141.52C78.24,-108.89 71.89,-45.38 69.47,-21.18"/>
<polygon fill="#63b8ff" stroke="#63b8ff" points="78.04,-142.06 82.52,-151.66 85,-141.36 78.04,-142.06"/>
</a>
</g>
</g>
<!-- Node3 -->
<g id="Node000003" class="node">
<title>Node3</title>
<g id="a_Node000003"><a xlink:href="class_j_k_q_t_math_text.html" target="_top" xlink:title="this class parses a mathematical markup string and can then draw the contained text/equation onto a Q...">
<polygon fill="white" stroke="#666666" points="240,-97 141,-97 141,-76 240,-76 240,-97"/>
<text text-anchor="middle" x="190.5" y="-83.4" font-family="Helvetica,sans-Serif" font-size="12.00">JKQTMathText</text>
</a>
</g>
</g>
<!-- Node2&#45;&gt;Node3 -->
<g id="edge3_Node000003_Node000002" class="edge">
<title>Node2&#45;&gt;Node3</title>
<g id="a_edge3_Node000003_Node000002"><a xlink:title=" ">
<path fill="none" stroke="#63b8ff" d="M105.93,-145.99C127.22,-131.26 158.56,-109.59 176.51,-97.18"/>
<polygon fill="#63b8ff" stroke="#63b8ff" points="103.72,-143.26 97.49,-151.83 107.7,-149.02 103.72,-143.26"/>
</a>
</g>
</g>
<!-- Node3&#45;&gt;Node1 -->
<g id="edge2_Node000001_Node000003" class="edge">
<title>Node3&#45;&gt;Node1</title>
<g id="a_edge2_Node000001_Node000003"><a xlink:title=" ">
<path fill="none" stroke="#9a32cd" stroke-dasharray="5,2" d="M131.01,-77.12C117.3,-73.04 103.52,-66.98 92.5,-58 80.81,-48.47 74.19,-31.75 70.98,-21.17"/>
<polygon fill="#9a32cd" stroke="#9a32cd" points="130.37,-80.57 140.94,-79.75 132.17,-73.8 130.37,-80.57"/>
</a>
</g>
<text text-anchor="start" x="95.5" y="-44.9" font-family="Helvetica,sans-Serif" font-size="12.00" fill="grey">parentMathText</text>
</g>
<!-- Node4 -->
<g id="Node000004" class="node">
<title>Node4</title>
<g id="a_Node000004"><a xlink:href="class_j_k_q_t_math_text_node.html" target="_top" xlink:title="subclass representing one node in the syntax tree">
<polygon fill="white" stroke="#666666" points="288,-21 157,-21 157,0 288,0 288,-21"/>
<text text-anchor="middle" x="222.5" y="-7.4" font-family="Helvetica,sans-Serif" font-size="12.00">JKQTMathTextNode</text>
</a>
</g>
</g>
<!-- Node3&#45;&gt;Node4 -->
<g id="edge5_Node000004_Node000003" class="edge">
<title>Node3&#45;&gt;Node4</title>
<g id="a_edge5_Node000004_Node000003"><a xlink:title=" ">
<path fill="none" stroke="#9a32cd" stroke-dasharray="5,2" d="M194.99,-66.15C197.31,-57.62 200.49,-47.6 204.5,-39 207.44,-32.69 211.67,-26.15 215.28,-21.03"/>
<polygon fill="#9a32cd" stroke="#9a32cd" points="191.57,-65.39 192.53,-75.95 198.36,-67.1 191.57,-65.39"/>
</a>
</g>
<text text-anchor="start" x="207.5" y="-44.9" font-family="Helvetica,sans-Serif" font-size="12.00" fill="grey">parentMathText</text>
</g>
<!-- Node4&#45;&gt;Node3 -->
<g id="edge4_Node000003_Node000004" class="edge">
<title>Node4&#45;&gt;Node3</title>
<g id="a_edge4_Node000003_Node000004"><a xlink:title=" ">
<path fill="none" stroke="#9a32cd" stroke-dasharray="5,2" d="M282.05,-24.02C304,-31.43 320.83,-42.47 308.5,-58 299.8,-68.96 268.29,-75.95 240.02,-80.14"/>
<polygon fill="#9a32cd" stroke="#9a32cd" points="282.99,-20.65 272.41,-21.06 280.94,-27.34 282.99,-20.65"/>
</a>
</g>
<text text-anchor="start" x="316" y="-44.9" font-family="Helvetica,sans-Serif" font-size="12.00" fill="grey">parsedNode</text>
</g>
<!-- Node4&#45;&gt;Node4 -->
<g id="edge6_Node000004_Node000004" class="edge">
<title>Node4&#45;&gt;Node4</title>
<g id="a_edge6_Node000004_Node000004"><a xlink:title=" ">
<path fill="none" stroke="#9a32cd" stroke-dasharray="5,2" d="M298.52,-15.46C303.19,-14.29 306,-12.63 306,-10.5 306,-7.09 298.81,-4.9 288.31,-3.94"/>
<polygon fill="#9a32cd" stroke="#9a32cd" points="297.65,-12.06 288.31,-17.06 298.73,-18.97 297.65,-12.06"/>
</a>
</g>
<text text-anchor="start" x="309.5" y="-6.9" font-family="Helvetica,sans-Serif" font-size="12.00" fill="grey">parentNode</text>
</g>
<!-- Node5 -->
<g id="Node000005" class="node">
<title>Node5</title>
<g id="a_Node000005"><a xlink:title=" ">
<polygon fill="white" stroke="#666666" points="230.5,-173 150.5,-173 150.5,-152 230.5,-152 230.5,-173"/>
<text text-anchor="middle" x="190.5" y="-159.4" font-family="Helvetica,sans-Serif" font-size="12.00">std::mutex</text>
</a>
</g>
</g>
<!-- Node5&#45;&gt;Node3 -->
<g id="edge7_Node000003_Node000005" class="edge">
<title>Node5&#45;&gt;Node3</title>
<g id="a_edge7_Node000003_Node000005"><a xlink:title=" ">
<path fill="none" stroke="#9a32cd" stroke-dasharray="5,2" d="M190.5,-141.53C190.5,-127.25 190.5,-108.65 190.5,-97.41"/>
<polygon fill="#9a32cd" stroke="#9a32cd" points="187,-141.83 190.5,-151.83 194,-141.83 187,-141.83"/>
</a>
</g>
<text text-anchor="start" x="194" y="-120.9" font-family="Helvetica,sans-Serif" font-size="12.00" fill="grey">s_mutex</text>
</g>
</g>
</svg>
</svg>

<style type='text/css'>
<![CDATA[
[data-mouse-over-selected='false'] { opacity: 0.7; }
[data-mouse-over-selected='true']  { opacity: 1.0; }
]]>
</style>
<script type="application/ecmascript"><![CDATA[
document.addEventListener('DOMContentLoaded', (event) => {
  highlightEdges();
  highlightAdjacentNodes();
});
]]></script>
</svg>
