<?xml version="1.0" encoding="UTF-8" standalone="no"?>
<!DOCTYPE svg PUBLIC "-//W3C//DTD SVG 1.1//EN"
 "http://www.w3.org/Graphics/SVG/1.1/DTD/svg11.dtd">
<!-- Generated by graphviz version 2.43.0 (0)
 -->
<!-- Title: JKQTPXYFunctionLineGraph Pages: 1 -->
<svg width="428pt" height="314pt"
 viewBox="0.00 0.00 428.00 314.00" xmlns="http://www.w3.org/2000/svg" xmlns:xlink="http://www.w3.org/1999/xlink">

<svg id="main" version="1.1" xmlns="http://www.w3.org/2000/svg" xmlns:xlink="http://www.w3.org/1999/xlink" xml:space="preserve">

<style type="text/css"><![CDATA[
.node, .edge {opacity: 0.7;}
.node.selected, .edge.selected {opacity: 1;}
.edge:hover path { stroke: red; }
.edge:hover polygon { stroke: red; fill: red; }
]]></style>
<script type="application/ecmascript" xlink:href="svg.min.js"/>
<svg id="graph" class="graph">
<g id="graph0" class="graph" transform="scale(1 1) rotate(0) translate(4 310)">
<title>JKQTPXYFunctionLineGraph</title>
<!-- Node1 -->
<g id="Node000001" class="node">
<title>Node1</title>
<g id="a_Node000001"><a xlink:title="This implements line plots where the data is taken from a user supplied function &#160;The function is eva...">
<polygon fill="#999999" stroke="#666666" points="313,-21 133,-21 133,0 313,0 313,-21"/>
<text text-anchor="middle" x="223" y="-7.4" font-family="Helvetica,sans-Serif" font-size="12.00">JKQTPXYFunctionLineGraph</text>
</a>
</g>
</g>
<!-- Node2 -->
<g id="Node000002" class="node">
<title>Node2</title>
<g id="a_Node000002"><a xlink:href="class_j_k_q_t_p_x_y_function_line_graph_base.html" target="_top" xlink:title="Base class for line plots where the data is taken from a user supplied function &#160;The function is eval...">
<polygon fill="white" stroke="#666666" points="327.5,-78 118.5,-78 118.5,-57 327.5,-57 327.5,-78"/>
<text text-anchor="middle" x="223" y="-64.4" font-family="Helvetica,sans-Serif" font-size="12.00">JKQTPXYFunctionLineGraphBase</text>
</a>
</g>
</g>
<!-- Node2&#45;&gt;Node1 -->
<g id="edge1_Node000001_Node000002" class="edge">
<title>Node2&#45;&gt;Node1</title>
<g id="a_edge1_Node000001_Node000002"><a xlink:title=" ">
<path fill="none" stroke="#63b8ff" d="M223,-46.86C223,-38.2 223,-28.42 223,-21.34"/>
<polygon fill="#63b8ff" stroke="#63b8ff" points="219.5,-46.92 223,-56.92 226.5,-46.92 219.5,-46.92"/>
</a>
</g>
</g>
<!-- Node3 -->
<g id="Node000003" class="node">
<title>Node3</title>
<g id="a_Node000003"><a xlink:href="class_j_k_q_t_p_evaluated_function_graph_base.html" target="_top" xlink:title="Base class for graph classes that evaluate a mathematical function (e.g. defined as a C&#45;function),...">
<polygon fill="white" stroke="#666666" points="228,-135 0,-135 0,-114 228,-114 228,-135"/>
<text text-anchor="middle" x="114" y="-121.4" font-family="Helvetica,sans-Serif" font-size="12.00">JKQTPEvaluatedFunctionGraphBase</text>
</a>
</g>
</g>
<!-- Node3&#45;&gt;Node2 -->
<g id="edge2_Node000002_Node000003" class="edge">
<title>Node3&#45;&gt;Node2</title>
<g id="a_edge2_Node000002_Node000003"><a xlink:title=" ">
<path fill="none" stroke="#63b8ff" d="M141.98,-109.38C161.39,-99.59 186.73,-86.8 203.87,-78.16"/>
<polygon fill="#63b8ff" stroke="#63b8ff" points="140.34,-106.29 132.99,-113.92 143.49,-112.54 140.34,-106.29"/>
</a>
</g>
</g>
<!-- Node4 -->
<g id="Node000004" class="node">
<title>Node4</title>
<g id="a_Node000004"><a xlink:href="class_j_k_q_t_p_graph.html" target="_top" xlink:title="this virtual base class of the (data&#45;column based) graphs, which are part of a JKQTPlotter plot and w...">
<polygon fill="white" stroke="#666666" points="158.5,-192 69.5,-192 69.5,-171 158.5,-171 158.5,-192"/>
<text text-anchor="middle" x="114" y="-178.4" font-family="Helvetica,sans-Serif" font-size="12.00">JKQTPGraph</text>
</a>
</g>
</g>
<!-- Node4&#45;&gt;Node3 -->
<g id="edge3_Node000003_Node000004" class="edge">
<title>Node4&#45;&gt;Node3</title>
<g id="a_edge3_Node000003_Node000004"><a xlink:title=" ">
<path fill="none" stroke="#63b8ff" d="M114,-160.86C114,-152.2 114,-142.42 114,-135.34"/>
<polygon fill="#63b8ff" stroke="#63b8ff" points="110.5,-160.92 114,-170.92 117.5,-160.92 110.5,-160.92"/>
</a>
</g>
</g>
<!-- Node5 -->
<g id="Node000005" class="node">
<title>Node5</title>
<g id="a_Node000005"><a xlink:href="class_j_k_q_t_p_plot_element.html" target="_top" xlink:title="this virtual base class of every element, which is part of a JKQTPlotter plot and may appear in its k...">
<polygon fill="white" stroke="#666666" points="176.5,-249 51.5,-249 51.5,-228 176.5,-228 176.5,-249"/>
<text text-anchor="middle" x="114" y="-235.4" font-family="Helvetica,sans-Serif" font-size="12.00">JKQTPPlotElement</text>
</a>
</g>
</g>
<!-- Node5&#45;&gt;Node4 -->
<g id="edge4_Node000004_Node000005" class="edge">
<title>Node5&#45;&gt;Node4</title>
<g id="a_edge4_Node000004_Node000005"><a xlink:title=" ">
<path fill="none" stroke="#63b8ff" d="M114,-217.86C114,-209.2 114,-199.42 114,-192.34"/>
<polygon fill="#63b8ff" stroke="#63b8ff" points="110.5,-217.92 114,-227.92 117.5,-217.92 110.5,-217.92"/>
</a>
</g>
</g>
<!-- Node6 -->
<g id="Node000006" class="node">
<title>Node6</title>
<g id="a_Node000006"><a xlink:title=" ">
<polygon fill="white" stroke="#666666" points="146.5,-306 81.5,-306 81.5,-285 146.5,-285 146.5,-306"/>
<text text-anchor="middle" x="114" y="-292.4" font-family="Helvetica,sans-Serif" font-size="12.00">QObject</text>
</a>
</g>
</g>
<!-- Node6&#45;&gt;Node5 -->
<g id="edge5_Node000005_Node000006" class="edge">
<title>Node6&#45;&gt;Node5</title>
<g id="a_edge5_Node000005_Node000006"><a xlink:title=" ">
<path fill="none" stroke="#63b8ff" d="M114,-274.86C114,-266.2 114,-256.42 114,-249.34"/>
<polygon fill="#63b8ff" stroke="#63b8ff" points="110.5,-274.92 114,-284.92 117.5,-274.92 110.5,-274.92"/>
</a>
</g>
</g>
<!-- Node7 -->
<g id="Node000007" class="node">
<title>Node7</title>
<g id="a_Node000007"><a xlink:href="class_j_k_q_t_p_graph_line_style_mixin.html" target="_top" xlink:title="This Mix&#45;In class provides setter/getter methods, storage and other facilities for the graph line sty...">
<polygon fill="white" stroke="#666666" points="420,-135 246,-135 246,-114 420,-114 420,-135"/>
<text text-anchor="middle" x="333" y="-121.4" font-family="Helvetica,sans-Serif" font-size="12.00">JKQTPGraphLineStyleMixin</text>
</a>
</g>
</g>
<!-- Node7&#45;&gt;Node2 -->
<g id="edge6_Node000002_Node000007" class="edge">
<title>Node7&#45;&gt;Node2</title>
<g id="a_edge6_Node000002_Node000007"><a xlink:title=" ">
<path fill="none" stroke="#63b8ff" d="M304.77,-109.38C285.18,-99.59 259.6,-86.8 242.31,-78.16"/>
<polygon fill="#63b8ff" stroke="#63b8ff" points="303.33,-112.58 313.84,-113.92 306.46,-106.32 303.33,-112.58"/>
</a>
</g>
</g>
</g>
</svg>
</svg>

<style type='text/css'>
<![CDATA[
[data-mouse-over-selected='false'] { opacity: 0.7; }
[data-mouse-over-selected='true']  { opacity: 1.0; }
]]>
</style>
<script type="application/ecmascript"><![CDATA[
document.addEventListener('DOMContentLoaded', (event) => {
  highlightEdges();
  highlightAdjacentNodes();
});
]]></script>
</svg>
