<?xml version="1.0" encoding="UTF-8" standalone="no"?>
<!DOCTYPE svg PUBLIC "-//W3C//DTD SVG 1.1//EN"
 "http://www.w3.org/Graphics/SVG/1.1/DTD/svg11.dtd">
<!-- Generated by graphviz version 2.43.0 (0)
 -->
<!-- Title: JKQTPXYGraphErrors Pages: 1 -->
<svg width="577pt" height="121pt"
 viewBox="0.00 0.00 577.00 121.00" xmlns="http://www.w3.org/2000/svg" xmlns:xlink="http://www.w3.org/1999/xlink">
<g id="graph0" class="graph" transform="scale(1 1) rotate(0) translate(4 117)">
<title>JKQTPXYGraphErrors</title>
<!-- Node1 -->
<g id="Node000001" class="node">
<title>Node1</title>
<g id="a_Node000001"><a xlink:title="This class is the base class for graphs that only display error indicators in x&#45; and y&#45;direction.">
<polygon fill="#999999" stroke="#666666" points="355,-67 215,-67 215,-46 355,-46 355,-67"/>
<text text-anchor="middle" x="285" y="-53.4" font-family="Helvetica,sans-Serif" font-size="12.00">JKQTPXYGraphErrors</text>
</a>
</g>
</g>
<!-- Node5 -->
<g id="Node000005" class="node">
<title>Node5</title>
<g id="a_Node000005"><a xlink:href="class_j_k_q_t_p_x_y_line_error_graph.html" target="_top" xlink:title="This implements xy line plots with x and y error indicators.">
<polygon fill="white" stroke="#666666" points="559.5,-113 400.5,-113 400.5,-92 559.5,-92 559.5,-113"/>
<text text-anchor="middle" x="480" y="-99.4" font-family="Helvetica,sans-Serif" font-size="12.00">JKQTPXYLineErrorGraph</text>
</a>
</g>
</g>
<!-- Node1&#45;&gt;Node5 -->
<g id="edge4_Node000001_Node000005" class="edge">
<title>Node1&#45;&gt;Node5</title>
<g id="a_edge4_Node000001_Node000005"><a xlink:title=" ">
<path fill="none" stroke="#63b8ff" d="M337.6,-69.49C354.59,-73.71 373.59,-78.37 391,-82.5 404.26,-85.65 418.67,-88.97 431.92,-91.98"/>
<polygon fill="#63b8ff" stroke="#63b8ff" points="338.4,-66.08 327.85,-67.06 336.71,-72.87 338.4,-66.08"/>
</a>
</g>
</g>
<!-- Node6 -->
<g id="Node000006" class="node">
<title>Node6</title>
<g id="a_Node000006"><a xlink:href="class_j_k_q_t_p_x_y_parametrized_error_scatter_graph.html" target="_top" xlink:title="This implements xy scatter plots (like JKQTPXYScatterGraph), but the color and size of the symbols ma...">
<polygon fill="white" stroke="#666666" points="569,-73.5 391,-73.5 391,-39.5 569,-39.5 569,-73.5"/>
<text text-anchor="start" x="399" y="-59.9" font-family="Helvetica,sans-Serif" font-size="12.00">JKQTPXYParametrizedError</text>
<text text-anchor="middle" x="480" y="-46.9" font-family="Helvetica,sans-Serif" font-size="12.00">ScatterGraph</text>
</a>
</g>
</g>
<!-- Node1&#45;&gt;Node6 -->
<g id="edge5_Node000001_Node000006" class="edge">
<title>Node1&#45;&gt;Node6</title>
<g id="a_edge5_Node000001_Node000006"><a xlink:title=" ">
<path fill="none" stroke="#63b8ff" d="M365.29,-56.5C373.71,-56.5 382.31,-56.5 390.83,-56.5"/>
<polygon fill="#63b8ff" stroke="#63b8ff" points="365.13,-53 355.13,-56.5 365.13,-60 365.13,-53"/>
</a>
</g>
</g>
<!-- Node7 -->
<g id="Node000007" class="node">
<title>Node7</title>
<g id="a_Node000007"><a xlink:href="class_j_k_q_t_p_x_y_scatter_error_graph.html" target="_top" xlink:title="This implements xy scatter plots with x and y error indicators.">
<polygon fill="white" stroke="#666666" points="569,-21 391,-21 391,0 569,0 569,-21"/>
<text text-anchor="middle" x="480" y="-7.4" font-family="Helvetica,sans-Serif" font-size="12.00">JKQTPXYScatterErrorGraph</text>
</a>
</g>
</g>
<!-- Node1&#45;&gt;Node7 -->
<g id="edge6_Node000001_Node000007" class="edge">
<title>Node1&#45;&gt;Node7</title>
<g id="a_edge6_Node000001_Node000007"><a xlink:title=" ">
<path fill="none" stroke="#63b8ff" d="M337.6,-43.51C354.59,-39.29 373.59,-34.63 391,-30.5 404.26,-27.35 418.67,-24.03 431.92,-21.02"/>
<polygon fill="#63b8ff" stroke="#63b8ff" points="336.71,-40.13 327.85,-45.94 338.4,-46.92 336.71,-40.13"/>
</a>
</g>
</g>
<!-- Node2 -->
<g id="Node000002" class="node">
<title>Node2</title>
<g id="a_Node000002"><a xlink:href="class_j_k_q_t_p_x_graph_error_data.html" target="_top" xlink:title="This class adds data fields for error indicators in x direction.">
<polygon fill="white" stroke="#666666" points="167,-106 12,-106 12,-85 167,-85 167,-106"/>
<text text-anchor="middle" x="89.5" y="-92.4" font-family="Helvetica,sans-Serif" font-size="12.00">JKQTPXGraphErrorData</text>
</a>
</g>
</g>
<!-- Node2&#45;&gt;Node1 -->
<g id="edge1_Node000001_Node000002" class="edge">
<title>Node2&#45;&gt;Node1</title>
<g id="a_edge1_Node000001_Node000002"><a xlink:title=" ">
<path fill="none" stroke="#63b8ff" d="M152.57,-82.99C178.11,-77.84 207.38,-71.94 231.8,-67.02"/>
<polygon fill="#63b8ff" stroke="#63b8ff" points="151.72,-79.59 142.61,-85 153.1,-86.45 151.72,-79.59"/>
</a>
</g>
</g>
<!-- Node3 -->
<g id="Node000003" class="node">
<title>Node3</title>
<g id="a_Node000003"><a xlink:href="class_j_k_q_t_p_y_graph_error_data.html" target="_top" xlink:title="This class adds data fields for error indicators in y direction.">
<polygon fill="white" stroke="#666666" points="166.5,-67 12.5,-67 12.5,-46 166.5,-46 166.5,-67"/>
<text text-anchor="middle" x="89.5" y="-53.4" font-family="Helvetica,sans-Serif" font-size="12.00">JKQTPYGraphErrorData</text>
</a>
</g>
</g>
<!-- Node3&#45;&gt;Node1 -->
<g id="edge2_Node000001_Node000003" class="edge">
<title>Node3&#45;&gt;Node1</title>
<g id="a_edge2_Node000001_Node000003"><a xlink:title=" ">
<path fill="none" stroke="#63b8ff" d="M176.82,-56.5C189.53,-56.5 202.49,-56.5 214.79,-56.5"/>
<polygon fill="#63b8ff" stroke="#63b8ff" points="176.7,-53 166.7,-56.5 176.7,-60 176.7,-53"/>
</a>
</g>
</g>
<!-- Node4 -->
<g id="Node000004" class="node">
<title>Node4</title>
<g id="a_Node000004"><a xlink:href="class_j_k_q_t_p_graph_error_style_mixin.html" target="_top" xlink:title="This mix&#45;in class assembles all styling properties applicable to error indicators.">
<polygon fill="white" stroke="#666666" points="179,-28 0,-28 0,-7 179,-7 179,-28"/>
<text text-anchor="middle" x="89.5" y="-14.4" font-family="Helvetica,sans-Serif" font-size="12.00">JKQTPGraphErrorStyleMixin</text>
</a>
</g>
</g>
<!-- Node4&#45;&gt;Node1 -->
<g id="edge3_Node000001_Node000004" class="edge">
<title>Node4&#45;&gt;Node1</title>
<g id="a_edge3_Node000001_Node000004"><a xlink:title=" ">
<path fill="none" stroke="#63b8ff" d="M152.57,-30.01C178.11,-35.16 207.38,-41.06 231.8,-45.98"/>
<polygon fill="#63b8ff" stroke="#63b8ff" points="153.1,-26.55 142.61,-28 151.72,-33.41 153.1,-26.55"/>
</a>
</g>
</g>
</g>
</svg>
