<?xml version="1.0" encoding="UTF-8" standalone="no"?>
<!DOCTYPE svg PUBLIC "-//W3C//DTD SVG 1.1//EN"
 "http://www.w3.org/Graphics/SVG/1.1/DTD/svg11.dtd">
<!-- Generated by graphviz version 2.43.0 (0)
 -->
<!-- Title: JKQTFPRGBImageOverlayPlot Pages: 1 -->
<svg width="333pt" height="236pt"
 viewBox="0.00 0.00 332.50 236.00" xmlns="http://www.w3.org/2000/svg" xmlns:xlink="http://www.w3.org/1999/xlink">

<svg id="main" version="1.1" xmlns="http://www.w3.org/2000/svg" xmlns:xlink="http://www.w3.org/1999/xlink" xml:space="preserve">

<style type="text/css"><![CDATA[
.node, .edge {opacity: 0.7;}
.node.selected, .edge.selected {opacity: 1;}
.edge:hover path { stroke: red; }
.edge:hover polygon { stroke: red; fill: red; }
]]></style>
<script type="application/ecmascript" xlink:href="svg.min.js"/>
<svg id="graph" class="graph">
<g id="graph0" class="graph" transform="scale(1 1) rotate(0) translate(4 232)">
<title>JKQTFPRGBImageOverlayPlot</title>
<!-- Node1 -->
<g id="Node000001" class="node">
<title>Node1</title>
<g id="a_Node000001"><a xlink:title="plots 1,2 or 3 given grayscale images as an overlay plot, where each channel is drawn as one color ch...">
<polygon fill="#999999" stroke="#666666" points="192,-21 0,-21 0,0 192,0 192,-21"/>
<text text-anchor="middle" x="96" y="-7.4" font-family="Helvetica,sans-Serif" font-size="12.00">JKQTFPRGBImageOverlayPlot</text>
</a>
</g>
</g>
<!-- Node2 -->
<g id="Node000002" class="node">
<title>Node2</title>
<g id="a_Node000002"><a xlink:href="class_j_k_q_t_f_p_plot.html" target="_top" xlink:title="base class for all plots that may be plotted by JKQTFastPlotter">
<polygon fill="white" stroke="#666666" points="137,-79 55,-79 55,-58 137,-58 137,-79"/>
<text text-anchor="middle" x="96" y="-65.4" font-family="Helvetica,sans-Serif" font-size="12.00">JKQTFPPlot</text>
</a>
</g>
</g>
<!-- Node2&#45;&gt;Node1 -->
<g id="edge1_Node000001_Node000002" class="edge">
<title>Node2&#45;&gt;Node1</title>
<g id="a_edge1_Node000001_Node000002"><a xlink:title=" ">
<path fill="none" stroke="#63b8ff" d="M96,-47.66C96,-38.66 96,-28.42 96,-21.14"/>
<polygon fill="#63b8ff" stroke="#63b8ff" points="92.5,-47.75 96,-57.75 99.5,-47.75 92.5,-47.75"/>
</a>
</g>
</g>
<!-- Node3 -->
<g id="Node000003" class="node">
<title>Node3</title>
<g id="a_Node000003"><a xlink:title=" ">
<polygon fill="white" stroke="#666666" points="94.5,-162.5 29.5,-162.5 29.5,-141.5 94.5,-141.5 94.5,-162.5"/>
<text text-anchor="middle" x="62" y="-148.9" font-family="Helvetica,sans-Serif" font-size="12.00">QObject</text>
</a>
</g>
</g>
<!-- Node3&#45;&gt;Node2 -->
<g id="edge2_Node000002_Node000003" class="edge">
<title>Node3&#45;&gt;Node2</title>
<g id="a_edge2_Node000002_Node000003"><a xlink:title=" ">
<path fill="none" stroke="#63b8ff" d="M69.9,-132.06C76.81,-115.5 86.56,-92.14 91.97,-79.16"/>
<polygon fill="#63b8ff" stroke="#63b8ff" points="66.65,-130.75 66.03,-141.33 73.11,-133.45 66.65,-130.75"/>
</a>
</g>
</g>
<!-- Node4 -->
<g id="Node000004" class="node">
<title>Node4</title>
<g id="a_Node000004"><a xlink:href="class_j_k_q_t_fast_plotter.html" target="_top" xlink:title="a speed optimized plotter class">
<polygon fill="white" stroke="#666666" points="221.5,-162.5 112.5,-162.5 112.5,-141.5 221.5,-141.5 221.5,-162.5"/>
<text text-anchor="middle" x="167" y="-148.9" font-family="Helvetica,sans-Serif" font-size="12.00">JKQTFastPlotter</text>
</a>
</g>
</g>
<!-- Node4&#45;&gt;Node2 -->
<g id="edge3_Node000002_Node000004" class="edge">
<title>Node4&#45;&gt;Node2</title>
<g id="a_edge3_Node000002_Node000004"><a xlink:title=" ">
<path fill="none" stroke="#9a32cd" stroke-dasharray="5,2" d="M151.71,-133.45C137.23,-116.83 116.04,-92.51 104.41,-79.16"/>
<polygon fill="#9a32cd" stroke="#9a32cd" points="149.37,-136.09 158.58,-141.33 154.65,-131.49 149.37,-136.09"/>
</a>
</g>
<text text-anchor="start" x="138" y="-102.9" font-family="Helvetica,sans-Serif" font-size="12.00" fill="grey">parent</text>
</g>
<!-- Node4&#45;&gt;Node4 -->
<g id="edge5_Node000004_Node000004" class="edge">
<title>Node4&#45;&gt;Node4</title>
<g id="a_edge5_Node000004_Node000004"><a xlink:title=" ">
<path fill="none" stroke="#9a32cd" stroke-dasharray="5,2" d="M231.91,-156.98C236.62,-155.86 239.5,-154.2 239.5,-152 239.5,-148.48 232.12,-146.34 221.7,-145.57"/>
<polygon fill="#9a32cd" stroke="#9a32cd" points="231.11,-153.56 221.7,-158.43 232.09,-160.49 231.11,-153.56"/>
</a>
</g>
<text text-anchor="start" x="243" y="-157.4" font-family="Helvetica,sans-Serif" font-size="12.00" fill="grey">synchronizeX</text>
<text text-anchor="start" x="243" y="-140.4" font-family="Helvetica,sans-Serif" font-size="12.00" fill="grey">synchronizeY</text>
</g>
<!-- Node5 -->
<g id="Node000005" class="node">
<title>Node5</title>
<g id="a_Node000005"><a xlink:title=" ">
<polygon fill="white" stroke="#666666" points="224,-228 110,-228 110,-207 224,-207 224,-228"/>
<text text-anchor="middle" x="167" y="-214.4" font-family="Helvetica,sans-Serif" font-size="12.00">QOpenGLWidget</text>
</a>
</g>
</g>
<!-- Node5&#45;&gt;Node4 -->
<g id="edge4_Node000004_Node000005" class="edge">
<title>Node5&#45;&gt;Node4</title>
<g id="a_edge4_Node000004_Node000005"><a xlink:title=" ">
<path fill="none" stroke="#63b8ff" d="M167,-196.61C167,-185.33 167,-171.72 167,-162.74"/>
<polygon fill="#63b8ff" stroke="#63b8ff" points="163.5,-196.86 167,-206.86 170.5,-196.86 163.5,-196.86"/>
</a>
</g>
</g>
</g>
</svg>
</svg>

<style type='text/css'>
<![CDATA[
[data-mouse-over-selected='false'] { opacity: 0.7; }
[data-mouse-over-selected='true']  { opacity: 1.0; }
]]>
</style>
<script type="application/ecmascript"><![CDATA[
document.addEventListener('DOMContentLoaded', (event) => {
  highlightEdges();
  highlightAdjacentNodes();
});
]]></script>
</svg>
