<?xml version="1.0" encoding="UTF-8" standalone="no"?>
<!DOCTYPE svg PUBLIC "-//W3C//DTD SVG 1.1//EN"
 "http://www.w3.org/Graphics/SVG/1.1/DTD/svg11.dtd">
<!-- Generated by graphviz version 2.43.0 (0)
 -->
<!-- Title: JKQTPMathParser::jkmpException Pages: 1 -->
<svg width="268pt" height="176pt"
 viewBox="0.00 0.00 267.50 176.00" xmlns="http://www.w3.org/2000/svg" xmlns:xlink="http://www.w3.org/1999/xlink">

<svg id="main" version="1.1" xmlns="http://www.w3.org/2000/svg" xmlns:xlink="http://www.w3.org/1999/xlink" xml:space="preserve">

<style type="text/css"><![CDATA[
.node, .edge {opacity: 0.7;}
.node.selected, .edge.selected {opacity: 1;}
.edge:hover path { stroke: red; }
.edge:hover polygon { stroke: red; fill: red; }
]]></style>
<script type="application/ecmascript" xlink:href="svg.min.js"/>
<svg id="graph" class="graph">
<g id="graph0" class="graph" transform="scale(1 1) rotate(0) translate(4 172)">
<title>JKQTPMathParser::jkmpException</title>
<!-- Node1 -->
<g id="Node000001" class="node">
<title>Node1</title>
<g id="a_Node000001"><a xlink:title="error handling: exceptions of the type of this class will be thrown if an error occurs">
<polygon fill="#999999" stroke="#666666" points="215,-21 0,-21 0,0 215,0 215,-21"/>
<text text-anchor="middle" x="107.5" y="-7.4" font-family="Helvetica,sans-Serif" font-size="12.00">JKQTPMathParser::jkmpException</text>
</a>
</g>
</g>
<!-- Node2 -->
<g id="Node000002" class="node">
<title>Node2</title>
<g id="a_Node000002"><a xlink:title=" ">
<polygon fill="white" stroke="#666666" points="142,-97 41,-97 41,-76 142,-76 142,-97"/>
<text text-anchor="middle" x="91.5" y="-83.4" font-family="Helvetica,sans-Serif" font-size="12.00">std::exception</text>
</a>
</g>
</g>
<!-- Node2&#45;&gt;Node1 -->
<g id="edge1_Node000001_Node000002" class="edge">
<title>Node2&#45;&gt;Node1</title>
<g id="a_edge1_Node000001_Node000002"><a xlink:title=" ">
<path fill="none" stroke="#63b8ff" d="M95.73,-65.95C98.83,-51.62 102.9,-32.76 105.36,-21.41"/>
<polygon fill="#63b8ff" stroke="#63b8ff" points="92.28,-65.31 93.59,-75.83 99.13,-66.79 92.28,-65.31"/>
</a>
</g>
</g>
<!-- Node3 -->
<g id="Node000003" class="node">
<title>Node3</title>
<g id="a_Node000003"><a xlink:title=" ">
<polygon fill="white" stroke="#666666" points="236.5,-97 160.5,-97 160.5,-76 236.5,-76 236.5,-97"/>
<text text-anchor="middle" x="198.5" y="-83.4" font-family="Helvetica,sans-Serif" font-size="12.00">std::string</text>
</a>
</g>
</g>
<!-- Node3&#45;&gt;Node1 -->
<g id="edge2_Node000001_Node000003" class="edge">
<title>Node3&#45;&gt;Node1</title>
<g id="a_edge2_Node000001_Node000003"><a xlink:title=" ">
<path fill="none" stroke="#9a32cd" stroke-dasharray="5,2" d="M178.45,-69.19C160.37,-54.49 134.39,-33.37 119.4,-21.18"/>
<polygon fill="#9a32cd" stroke="#9a32cd" points="176.64,-72.23 186.6,-75.83 181.05,-66.8 176.64,-72.23"/>
</a>
</g>
<text text-anchor="start" x="167" y="-44.9" font-family="Helvetica,sans-Serif" font-size="12.00" fill="grey">errormessage</text>
</g>
<!-- Node4 -->
<g id="Node000004" class="node">
<title>Node4</title>
<g id="a_Node000004"><a xlink:title=" ">
<polygon fill="white" stroke="#666666" points="259.5,-168 137.5,-168 137.5,-134 259.5,-134 259.5,-168"/>
<text text-anchor="start" x="145.5" y="-154.4" font-family="Helvetica,sans-Serif" font-size="12.00">std::basic_string&lt;</text>
<text text-anchor="middle" x="198.5" y="-141.4" font-family="Helvetica,sans-Serif" font-size="12.00"> Char &gt;</text>
</a>
</g>
</g>
<!-- Node4&#45;&gt;Node3 -->
<g id="edge3_Node000003_Node000004" class="edge">
<title>Node4&#45;&gt;Node3</title>
<g id="a_edge3_Node000003_Node000004"><a xlink:title=" ">
<path fill="none" stroke="#63b8ff" d="M198.5,-123.78C198.5,-114.41 198.5,-104.42 198.5,-97.3"/>
<polygon fill="#63b8ff" stroke="#63b8ff" points="195,-123.9 198.5,-133.9 202,-123.9 195,-123.9"/>
</a>
</g>
</g>
</g>
</svg>
</svg>

<style type='text/css'>
<![CDATA[
[data-mouse-over-selected='false'] { opacity: 0.7; }
[data-mouse-over-selected='true']  { opacity: 1.0; }
]]>
</style>
<script type="application/ecmascript"><![CDATA[
document.addEventListener('DOMContentLoaded', (event) => {
  highlightEdges();
  highlightAdjacentNodes();
});
]]></script>
</svg>
