<?xml version="1.0" encoding="UTF-8" standalone="no"?>
<!DOCTYPE svg PUBLIC "-//W3C//DTD SVG 1.1//EN"
 "http://www.w3.org/Graphics/SVG/1.1/DTD/svg11.dtd">
<!-- Generated by graphviz version 2.43.0 (0)
 -->
<!-- Title: JKQTMathText Pages: 1 -->
<svg width="246pt" height="181pt"
 viewBox="0.00 0.00 246.00 181.00" xmlns="http://www.w3.org/2000/svg" xmlns:xlink="http://www.w3.org/1999/xlink">

<svg id="main" version="1.1" xmlns="http://www.w3.org/2000/svg" xmlns:xlink="http://www.w3.org/1999/xlink" xml:space="preserve">

<style type="text/css"><![CDATA[
.node, .edge {opacity: 0.7;}
.node.selected, .edge.selected {opacity: 1;}
.edge:hover path { stroke: red; }
.edge:hover polygon { stroke: red; fill: red; }
]]></style>
<script type="application/ecmascript" xlink:href="svg.min.js"/>
<svg id="graph" class="graph">
<g id="graph0" class="graph" transform="scale(1 1) rotate(0) translate(4 177)">
<title>JKQTMathText</title>
<!-- Node1 -->
<g id="Node000001" class="node">
<title>Node1</title>
<g id="a_Node000001"><a xlink:title="this class parses a mathematical markup string and can then draw the contained text/equation onto a Q...">
<polygon fill="#999999" stroke="#666666" points="127,-97 28,-97 28,-76 127,-76 127,-97"/>
<text text-anchor="middle" x="77.5" y="-83.4" font-family="Helvetica,sans-Serif" font-size="12.00">JKQTMathText</text>
</a>
</g>
</g>
<!-- Node3 -->
<g id="Node000003" class="node">
<title>Node3</title>
<g id="a_Node000003"><a xlink:href="class_j_k_q_t_math_text_node.html" target="_top" xlink:title="subclass representing one node in the syntax tree">
<polygon fill="white" stroke="#666666" points="143,-21 12,-21 12,0 143,0 143,-21"/>
<text text-anchor="middle" x="77.5" y="-7.4" font-family="Helvetica,sans-Serif" font-size="12.00">JKQTMathTextNode</text>
</a>
</g>
</g>
<!-- Node1&#45;&gt;Node3 -->
<g id="edge3_Node000003_Node000001" class="edge">
<title>Node1&#45;&gt;Node3</title>
<g id="a_edge3_Node000003_Node000001"><a xlink:title=" ">
<path fill="none" stroke="#9a32cd" stroke-dasharray="5,2" d="M27.29,-71.18C21.86,-67.69 17.04,-63.37 13.5,-58 8.85,-50.95 8.85,-46.05 13.5,-39 18.89,-30.82 27.27,-25.06 36.22,-21.01"/>
<polygon fill="#9a32cd" stroke="#9a32cd" points="25.76,-74.32 36.22,-75.99 29.08,-68.16 25.76,-74.32"/>
</a>
</g>
<text text-anchor="start" x="16.5" y="-44.9" font-family="Helvetica,sans-Serif" font-size="12.00" fill="grey">parentMathText</text>
</g>
<!-- Node2 -->
<g id="Node000002" class="node">
<title>Node2</title>
<g id="a_Node000002"><a xlink:title=" ">
<polygon fill="white" stroke="#666666" points="65,-173 0,-173 0,-152 65,-152 65,-173"/>
<text text-anchor="middle" x="32.5" y="-159.4" font-family="Helvetica,sans-Serif" font-size="12.00">QObject</text>
</a>
</g>
</g>
<!-- Node2&#45;&gt;Node1 -->
<g id="edge1_Node000001_Node000002" class="edge">
<title>Node2&#45;&gt;Node1</title>
<g id="a_edge1_Node000001_Node000002"><a xlink:title=" ">
<path fill="none" stroke="#63b8ff" d="M43.63,-143.2C52.42,-128.73 64.37,-109.09 71.47,-97.41"/>
<polygon fill="#63b8ff" stroke="#63b8ff" points="40.59,-141.46 38.38,-151.83 46.57,-145.1 40.59,-141.46"/>
</a>
</g>
</g>
<!-- Node3&#45;&gt;Node1 -->
<g id="edge2_Node000001_Node000003" class="edge">
<title>Node3&#45;&gt;Node1</title>
<g id="a_edge2_Node000001_Node000003"><a xlink:title=" ">
<path fill="none" stroke="#9a32cd" stroke-dasharray="5,2" d="M107.38,-26.95C111.45,-30.36 115.06,-34.36 117.5,-39 121.43,-46.47 121.43,-50.53 117.5,-58 113.5,-65.61 106.34,-71.52 99.17,-75.88"/>
<polygon fill="#9a32cd" stroke="#9a32cd" points="109.35,-24.06 99.17,-21.12 105.3,-29.76 109.35,-24.06"/>
</a>
</g>
<text text-anchor="start" x="123" y="-44.9" font-family="Helvetica,sans-Serif" font-size="12.00" fill="grey">parsedNode</text>
</g>
<!-- Node3&#45;&gt;Node3 -->
<g id="edge4_Node000003_Node000003" class="edge">
<title>Node3&#45;&gt;Node3</title>
<g id="a_edge4_Node000003_Node000003"><a xlink:title=" ">
<path fill="none" stroke="#9a32cd" stroke-dasharray="5,2" d="M153.52,-15.46C158.19,-14.29 161,-12.63 161,-10.5 161,-7.09 153.81,-4.9 143.31,-3.94"/>
<polygon fill="#9a32cd" stroke="#9a32cd" points="152.65,-12.06 143.31,-17.06 153.73,-18.97 152.65,-12.06"/>
</a>
</g>
<text text-anchor="start" x="164.5" y="-6.9" font-family="Helvetica,sans-Serif" font-size="12.00" fill="grey">parentNode</text>
</g>
<!-- Node4 -->
<g id="Node000004" class="node">
<title>Node4</title>
<g id="a_Node000004"><a xlink:title=" ">
<polygon fill="white" stroke="#666666" points="163.5,-173 83.5,-173 83.5,-152 163.5,-152 163.5,-173"/>
<text text-anchor="middle" x="123.5" y="-159.4" font-family="Helvetica,sans-Serif" font-size="12.00">std::mutex</text>
</a>
</g>
</g>
<!-- Node4&#45;&gt;Node1 -->
<g id="edge5_Node000001_Node000004" class="edge">
<title>Node4&#45;&gt;Node1</title>
<g id="a_edge5_Node000001_Node000004"><a xlink:title=" ">
<path fill="none" stroke="#9a32cd" stroke-dasharray="5,2" d="M112.13,-143.2C103.13,-128.73 90.92,-109.09 83.66,-97.41"/>
<polygon fill="#9a32cd" stroke="#9a32cd" points="109.23,-145.18 117.49,-151.83 115.18,-141.49 109.23,-145.18"/>
</a>
</g>
<text text-anchor="start" x="109" y="-120.9" font-family="Helvetica,sans-Serif" font-size="12.00" fill="grey">s_mutex</text>
</g>
</g>
</svg>
</svg>

<style type='text/css'>
<![CDATA[
[data-mouse-over-selected='false'] { opacity: 0.7; }
[data-mouse-over-selected='true']  { opacity: 1.0; }
]]>
</style>
<script type="application/ecmascript"><![CDATA[
document.addEventListener('DOMContentLoaded', (event) => {
  highlightEdges();
  highlightAdjacentNodes();
});
]]></script>
</svg>
