<?xml version="1.0" encoding="UTF-8" standalone="no"?>
<!DOCTYPE svg PUBLIC "-//W3C//DTD SVG 1.1//EN"
 "http://www.w3.org/Graphics/SVG/1.1/DTD/svg11.dtd">
<!-- Generated by graphviz version 2.43.0 (0)
 -->
<!-- Title: JKQTPSynchronized&lt; T &gt; Pages: 1 -->
<svg width="675pt" height="372pt"
 viewBox="0.00 0.00 675.00 371.87" xmlns="http://www.w3.org/2000/svg" xmlns:xlink="http://www.w3.org/1999/xlink">
<g id="graph0" class="graph" transform="scale(1 1) rotate(0) translate(4 367.87)">
<title>JKQTPSynchronized&lt; T &gt;</title>
<!-- Node1 -->
<g id="Node000001" class="node">
<title>Node1</title>
<g id="a_Node000001"><a xlink:title="template class that wraps any datatype and combines it with a mutex, exposes the lock()/unlock() inte...">
<polygon fill="#999999" stroke="#666666" points="167,-188.37 0,-188.37 0,-167.37 167,-167.37 167,-188.37"/>
<text text-anchor="middle" x="83.5" y="-174.77" font-family="Helvetica,sans-Serif" font-size="12.00">JKQTPSynchronized&lt; T &gt;</text>
</a>
</g>
</g>
<!-- Node2 -->
<g id="Node000002" class="node">
<title>Node2</title>
<g id="a_Node000002"><a xlink:href="class_j_k_q_t_p_synchronized.html" target="_top" xlink:title=" ">
<polygon fill="white" stroke="#666666" points="601.5,-339.37 478.5,-339.37 478.5,-318.37 601.5,-318.37 601.5,-339.37"/>
<text text-anchor="middle" x="540" y="-325.77" font-family="Helvetica,sans-Serif" font-size="12.00">WriteLocker&lt; T &gt;</text>
</a>
</g>
</g>
<!-- Node1&#45;&gt;Node2 -->
<g id="edge1_Node000001_Node000002" class="edge">
<title>Node1&#45;&gt;Node2</title>
<g id="a_edge1_Node000001_Node000002"><a xlink:title=" ">
<path fill="none" stroke="orange" stroke-dasharray="5,2" d="M93.59,-197.79C108.17,-227.14 139.82,-281.09 185,-304.87 278.07,-353.86 404.48,-348.18 478.34,-338.96"/>
<polygon fill="orange" stroke="orange" points="96.62,-196.03 89.14,-188.53 90.31,-199.06 96.62,-196.03"/>
</a>
</g>
<text text-anchor="start" x="233" y="-350.77" font-family="Helvetica,sans-Serif" font-size="12.00" fill="grey">&lt; T &gt;::WriteLocker</text>
</g>
<!-- Node3 -->
<g id="Node000003" class="node">
<title>Node3</title>
<g id="a_Node000003"><a xlink:href="class_j_k_q_t_p_synchronized.html" target="_top" xlink:title=" ">
<polygon fill="white" stroke="#666666" points="655,-296.37 425,-296.37 425,-249.37 655,-249.37 655,-296.37"/>
<text text-anchor="start" x="433" y="-282.77" font-family="Helvetica,sans-Serif" font-size="12.00">JKQTPSynchronized&lt;</text>
<text text-anchor="start" x="433" y="-269.77" font-family="Helvetica,sans-Serif" font-size="12.00"> QVector&lt; JKQTPCustomGraph</text>
<text text-anchor="middle" x="540" y="-256.77" font-family="Helvetica,sans-Serif" font-size="12.00">SymbolFunctor &gt; &gt;::ReadLocker&lt;&gt;</text>
</a>
</g>
</g>
<!-- Node1&#45;&gt;Node3 -->
<g id="edge2_Node000001_Node000003" class="edge">
<title>Node1&#45;&gt;Node3</title>
<g id="a_edge2_Node000001_Node000003"><a xlink:title=" ">
<path fill="none" stroke="orange" stroke-dasharray="5,2" d="M105.64,-194.63C125.06,-209.03 155.27,-229 185,-238.87 228.14,-253.2 338.77,-262.29 424.98,-267.43"/>
<polygon fill="orange" stroke="orange" points="107.59,-191.72 97.51,-188.46 103.36,-197.29 107.59,-191.72"/>
</a>
</g>
<text text-anchor="start" x="189" y="-288.27" font-family="Helvetica,sans-Serif" font-size="12.00" fill="grey">&lt; QVector&lt; JKQTPCustomGraph</text>
<text text-anchor="start" x="189" y="-271.27" font-family="Helvetica,sans-Serif" font-size="12.00" fill="grey">  SymbolFunctor &gt; &gt;::ReadLocker</text>
</g>
<!-- Node4 -->
<g id="Node000004" class="node">
<title>Node4</title>
<g id="a_Node000004"><a xlink:href="class_j_k_q_t_p_synchronized.html" target="_top" xlink:title=" ">
<polygon fill="white" stroke="#666666" points="656,-231.37 424,-231.37 424,-184.37 656,-184.37 656,-231.37"/>
<text text-anchor="start" x="432" y="-217.77" font-family="Helvetica,sans-Serif" font-size="12.00">JKQTPSynchronized&lt;</text>
<text text-anchor="start" x="432" y="-204.77" font-family="Helvetica,sans-Serif" font-size="12.00"> QVector&lt; JKQTPCustomGraph</text>
<text text-anchor="middle" x="540" y="-191.77" font-family="Helvetica,sans-Serif" font-size="12.00">SymbolFunctor &gt; &gt;::WriteLocker&lt;&gt;</text>
</a>
</g>
</g>
<!-- Node1&#45;&gt;Node4 -->
<g id="edge3_Node000001_Node000004" class="edge">
<title>Node1&#45;&gt;Node4</title>
<g id="a_edge3_Node000001_Node000004"><a xlink:title=" ">
<path fill="none" stroke="orange" stroke-dasharray="5,2" d="M177.23,-185.31C179.85,-185.5 182.44,-185.69 185,-185.87 264.7,-191.52 354.54,-197.09 423.78,-201.22"/>
<polygon fill="orange" stroke="orange" points="177.26,-181.8 167.03,-184.55 176.75,-188.78 177.26,-181.8"/>
</a>
</g>
<text text-anchor="start" x="188" y="-222.27" font-family="Helvetica,sans-Serif" font-size="12.00" fill="grey">&lt; QVector&lt; JKQTPCustomGraph</text>
<text text-anchor="start" x="188" y="-205.27" font-family="Helvetica,sans-Serif" font-size="12.00" fill="grey">  SymbolFunctor &gt; &gt;::WriteLocker</text>
</g>
<!-- Node5 -->
<g id="Node000005" class="node">
<title>Node5</title>
<g id="a_Node000005"><a xlink:href="class_j_k_q_t_p_synchronized.html" target="_top" xlink:title=" ">
<polygon fill="white" stroke="#666666" points="667,-165.87 413,-165.87 413,-131.87 667,-131.87 667,-165.87"/>
<text text-anchor="start" x="421" y="-152.27" font-family="Helvetica,sans-Serif" font-size="12.00">JKQTPSynchronized&lt;</text>
<text text-anchor="middle" x="540" y="-139.27" font-family="Helvetica,sans-Serif" font-size="12.00"> QList&lt; JKQTPPaintDeviceAdapter * &gt; &gt;</text>
</a>
</g>
</g>
<!-- Node1&#45;&gt;Node5 -->
<g id="edge4_Node000001_Node000005" class="edge">
<title>Node1&#45;&gt;Node5</title>
<g id="a_edge4_Node000001_Node000005"><a xlink:title=" ">
<path fill="none" stroke="orange" stroke-dasharray="5,2" d="M124.13,-164.18C142.42,-158.55 164.56,-152.69 185,-149.87 260.04,-139.5 344.87,-138.89 412.68,-141.04"/>
<polygon fill="orange" stroke="orange" points="122.87,-160.9 114.4,-167.26 124.99,-167.57 122.87,-160.9"/>
</a>
</g>
<text text-anchor="start" x="209" y="-173.27" font-family="Helvetica,sans-Serif" font-size="12.00" fill="grey">&lt; QList&lt; JKQTPPaintDevice</text>
<text text-anchor="start" x="209" y="-156.27" font-family="Helvetica,sans-Serif" font-size="12.00" fill="grey">  Adapter * &gt; &gt;</text>
</g>
<!-- Node6 -->
<g id="Node000006" class="node">
<title>Node6</title>
<g id="a_Node000006"><a xlink:href="class_j_k_q_t_p_synchronized.html" target="_top" xlink:title=" ">
<polygon fill="white" stroke="#666666" points="661,-106.87 419,-106.87 419,-72.87 661,-72.87 661,-106.87"/>
<text text-anchor="start" x="427" y="-93.27" font-family="Helvetica,sans-Serif" font-size="12.00">JKQTPSynchronized&lt;</text>
<text text-anchor="middle" x="540" y="-80.27" font-family="Helvetica,sans-Serif" font-size="12.00"> QList&lt; JKQTPSaveDataAdapter * &gt; &gt;</text>
</a>
</g>
</g>
<!-- Node1&#45;&gt;Node6 -->
<g id="edge5_Node000001_Node000006" class="edge">
<title>Node1&#45;&gt;Node6</title>
<g id="a_edge5_Node000001_Node000006"><a xlink:title=" ">
<path fill="none" stroke="orange" stroke-dasharray="5,2" d="M100.73,-159.8C119.05,-140.84 150.8,-112.13 185,-99.87 259.52,-73.16 348.62,-70.79 418.79,-75.03"/>
<polygon fill="orange" stroke="orange" points="98.03,-157.56 93.73,-167.25 103.13,-162.36 98.03,-157.56"/>
</a>
</g>
<text text-anchor="start" x="191" y="-123.27" font-family="Helvetica,sans-Serif" font-size="12.00" fill="grey">&lt; QList&lt; JKQTPSaveDataAdapter</text>
<text text-anchor="start" x="191" y="-106.27" font-family="Helvetica,sans-Serif" font-size="12.00" fill="grey">   * &gt; &gt;</text>
</g>
<!-- Node7 -->
<g id="Node000007" class="node">
<title>Node7</title>
<g id="a_Node000007"><a xlink:href="class_j_k_q_t_p_synchronized.html" target="_top" xlink:title=" ">
<polygon fill="white" stroke="#666666" points="640.5,-54.37 439.5,-54.37 439.5,-7.37 640.5,-7.37 640.5,-54.37"/>
<text text-anchor="start" x="447.5" y="-40.77" font-family="Helvetica,sans-Serif" font-size="12.00">JKQTPSynchronized&lt;</text>
<text text-anchor="start" x="447.5" y="-27.77" font-family="Helvetica,sans-Serif" font-size="12.00"> QVector&lt; JKQTPCustomGraph</text>
<text text-anchor="middle" x="540" y="-14.77" font-family="Helvetica,sans-Serif" font-size="12.00">SymbolFunctor &gt; &gt;</text>
</a>
</g>
</g>
<!-- Node1&#45;&gt;Node7 -->
<g id="edge6_Node000001_Node000007" class="edge">
<title>Node1&#45;&gt;Node7</title>
<g id="a_edge6_Node000001_Node000007"><a xlink:title=" ">
<path fill="none" stroke="orange" stroke-dasharray="5,2" d="M91.52,-157.8C104.26,-124.88 134.62,-60.42 185,-33.87 263.03,7.25 364.81,3.21 439.2,-8.28"/>
<polygon fill="orange" stroke="orange" points="88.19,-156.7 88,-167.3 94.76,-159.14 88.19,-156.7"/>
</a>
</g>
<text text-anchor="start" x="193" y="-57.27" font-family="Helvetica,sans-Serif" font-size="12.00" fill="grey">&lt; QVector&lt; JKQTPCustomGraph</text>
<text text-anchor="start" x="193" y="-40.27" font-family="Helvetica,sans-Serif" font-size="12.00" fill="grey">  SymbolFunctor &gt; &gt;</text>
</g>
</g>
</svg>
