<?xml version="1.0" encoding="UTF-8" standalone="no"?>
<!DOCTYPE svg PUBLIC "-//W3C//DTD SVG 1.1//EN"
 "http://www.w3.org/Graphics/SVG/1.1/DTD/svg11.dtd">
<!-- Generated by graphviz version 2.43.0 (0)
 -->
<!-- Title: JKQTPXYGraph Pages: 1 -->
<svg width="1425pt" height="514pt"
 viewBox="0.00 0.00 1425.00 513.50" xmlns="http://www.w3.org/2000/svg" xmlns:xlink="http://www.w3.org/1999/xlink">
<g id="graph0" class="graph" transform="scale(1 1) rotate(0) translate(4 509.5)">
<title>JKQTPXYGraph</title>
<!-- Node1 -->
<g id="Node000001" class="node">
<title>Node1</title>
<g id="a_Node000001"><a xlink:title="This virtual JKQTPGraph descendent may be used as base for all graphs that use at least two columns t...">
<polygon fill="#999999" stroke="#666666" points="492,-184.5 387,-184.5 387,-163.5 492,-163.5 492,-184.5"/>
<text text-anchor="middle" x="439.5" y="-170.9" font-family="Helvetica,sans-Serif" font-size="12.00">JKQTPXYGraph</text>
</a>
</g>
</g>
<!-- Node5 -->
<g id="Node000005" class="node">
<title>Node5</title>
<g id="a_Node000005"><a xlink:href="class_j_k_q_t_p_x_x_y_graph.html" target="_top" xlink:title="This virtual JKQTPGraph descendent extends JKQTPXYGraph to two columns for x&#45;values (e....">
<polygon fill="white" stroke="#666666" points="680.5,-417.5 567.5,-417.5 567.5,-396.5 680.5,-396.5 680.5,-417.5"/>
<text text-anchor="middle" x="624" y="-403.9" font-family="Helvetica,sans-Serif" font-size="12.00">JKQTPXXYGraph</text>
</a>
</g>
</g>
<!-- Node1&#45;&gt;Node5 -->
<g id="edge4_Node000001_Node000005" class="edge">
<title>Node1&#45;&gt;Node5</title>
<g id="a_edge4_Node000001_Node000005"><a xlink:title=" ">
<path fill="none" stroke="#63b8ff" d="M446.01,-194.49C456.58,-230.58 482.79,-306.17 528,-354 546.42,-373.49 573.64,-387.67 594.22,-396.43"/>
<polygon fill="#63b8ff" stroke="#63b8ff" points="449.31,-193.31 443.22,-184.64 442.57,-195.21 449.31,-193.31"/>
</a>
</g>
</g>
<!-- Node7 -->
<g id="Node000007" class="node">
<title>Node7</title>
<g id="a_Node000007"><a xlink:href="class_j_k_q_t_p_x_y_and_vector_graph.html" target="_top" xlink:title="This virtual JKQTPGraph descendent extends JKQTPXYGraph with two additional columns that encode for a...">
<polygon fill="white" stroke="#666666" points="707.5,-344.5 540.5,-344.5 540.5,-323.5 707.5,-323.5 707.5,-344.5"/>
<text text-anchor="middle" x="624" y="-330.9" font-family="Helvetica,sans-Serif" font-size="12.00">JKQTPXYAndVectorGraph</text>
</a>
</g>
</g>
<!-- Node1&#45;&gt;Node7 -->
<g id="edge6_Node000001_Node000007" class="edge">
<title>Node1&#45;&gt;Node7</title>
<g id="a_edge6_Node000001_Node000007"><a xlink:title=" ">
<path fill="none" stroke="#63b8ff" d="M459.4,-191.35C477.03,-207.46 504.12,-232.05 528,-253 557.16,-278.59 591.99,-307.99 610.3,-323.37"/>
<polygon fill="#63b8ff" stroke="#63b8ff" points="461.75,-188.75 452.01,-184.58 457.03,-193.92 461.75,-188.75"/>
</a>
</g>
</g>
<!-- Node10 -->
<g id="Node000010" class="node">
<title>Node10</title>
<g id="a_Node000010"><a xlink:href="class_j_k_q_t_p_x_y_baseline_graph.html" target="_top" xlink:title="This virtual JKQTPGraph descendent extends JKQTPXYGraph adds a baseline&#45;property, which is necessary,...">
<polygon fill="white" stroke="#666666" points="701.5,-243.5 546.5,-243.5 546.5,-222.5 701.5,-222.5 701.5,-243.5"/>
<text text-anchor="middle" x="624" y="-229.9" font-family="Helvetica,sans-Serif" font-size="12.00">JKQTPXYBaselineGraph</text>
</a>
</g>
</g>
<!-- Node1&#45;&gt;Node10 -->
<g id="edge9_Node000001_Node000010" class="edge">
<title>Node1&#45;&gt;Node10</title>
<g id="a_edge9_Node000001_Node000010"><a xlink:title=" ">
<path fill="none" stroke="#63b8ff" d="M470.1,-189.08C486.76,-197.08 508.16,-206.57 528,-213 539.3,-216.66 551.59,-219.83 563.45,-222.49"/>
<polygon fill="#63b8ff" stroke="#63b8ff" points="471.4,-185.82 460.88,-184.57 468.32,-192.1 471.4,-185.82"/>
</a>
</g>
</g>
<!-- Node31 -->
<g id="Node000031" class="node">
<title>Node31</title>
<g id="a_Node000031"><a xlink:href="class_j_k_q_t_p_x_y_graph_labels.html" target="_top" xlink:title="This graph plots a series of data labels. This can be used to add number&#45;labels to e....">
<polygon fill="white" stroke="#666666" points="695.5,-204.5 552.5,-204.5 552.5,-183.5 695.5,-183.5 695.5,-204.5"/>
<text text-anchor="middle" x="624" y="-190.9" font-family="Helvetica,sans-Serif" font-size="12.00">JKQTPXYGraphLabels</text>
</a>
</g>
</g>
<!-- Node1&#45;&gt;Node31 -->
<g id="edge30_Node000001_Node000031" class="edge">
<title>Node1&#45;&gt;Node31</title>
<g id="a_edge30_Node000001_Node000031"><a xlink:title=" ">
<path fill="none" stroke="#63b8ff" d="M502.6,-180.81C518.6,-182.56 535.93,-184.46 552.32,-186.25"/>
<polygon fill="#63b8ff" stroke="#63b8ff" points="502.63,-177.29 492.31,-179.68 501.87,-184.25 502.63,-177.29"/>
</a>
</g>
</g>
<!-- Node32 -->
<g id="Node000032" class="node">
<title>Node32</title>
<g id="a_Node000032"><a xlink:href="class_j_k_q_t_p_x_y_line_graph.html" target="_top" xlink:title="This implements xy line plots. This also alows to draw symbols at the data points.">
<polygon fill="white" stroke="#666666" points="689,-165.5 559,-165.5 559,-144.5 689,-144.5 689,-165.5"/>
<text text-anchor="middle" x="624" y="-151.9" font-family="Helvetica,sans-Serif" font-size="12.00">JKQTPXYLineGraph</text>
</a>
</g>
</g>
<!-- Node1&#45;&gt;Node32 -->
<g id="edge31_Node000001_Node000032" class="edge">
<title>Node1&#45;&gt;Node32</title>
<g id="a_edge31_Node000001_Node000032"><a xlink:title=" ">
<path fill="none" stroke="#63b8ff" d="M502.47,-167.55C520.59,-165.66 540.44,-163.6 558.71,-161.69"/>
<polygon fill="#63b8ff" stroke="#63b8ff" points="501.89,-164.09 492.31,-168.61 502.62,-171.05 501.89,-164.09"/>
</a>
</g>
</g>
<!-- Node34 -->
<g id="Node000034" class="node">
<title>Node34</title>
<g id="a_Node000034"><a xlink:href="class_j_k_q_t_p_x_y_parametrized_scatter_graph.html" target="_top" xlink:title="This implements xy scatter plots (like JKQTPXYScatterGraph), but the color and size of the symbols ma...">
<polygon fill="white" stroke="#666666" points="720,-126 528,-126 528,-92 720,-92 720,-126"/>
<text text-anchor="start" x="536" y="-112.4" font-family="Helvetica,sans-Serif" font-size="12.00">JKQTPXYParametrizedScatter</text>
<text text-anchor="middle" x="624" y="-99.4" font-family="Helvetica,sans-Serif" font-size="12.00">Graph</text>
</a>
</g>
</g>
<!-- Node1&#45;&gt;Node34 -->
<g id="edge33_Node000001_Node000034" class="edge">
<title>Node1&#45;&gt;Node34</title>
<g id="a_edge33_Node000001_Node000034"><a xlink:title=" ">
<path fill="none" stroke="#63b8ff" d="M470.92,-159.07C487.54,-151.26 508.62,-141.92 528,-135 536.86,-131.84 546.29,-128.83 555.65,-126.06"/>
<polygon fill="#63b8ff" stroke="#63b8ff" points="469.23,-156 461.7,-163.46 472.24,-162.32 469.23,-156"/>
</a>
</g>
</g>
<!-- Node36 -->
<g id="Node000036" class="node">
<title>Node36</title>
<g id="a_Node000036"><a xlink:href="class_j_k_q_t_p_x_y_scatter_graph.html" target="_top" xlink:title="This implements xy scatter plots. This also alows to draw symbols at the data points.">
<polygon fill="white" stroke="#666666" points="698.5,-73.5 549.5,-73.5 549.5,-52.5 698.5,-52.5 698.5,-73.5"/>
<text text-anchor="middle" x="624" y="-59.9" font-family="Helvetica,sans-Serif" font-size="12.00">JKQTPXYScatterGraph</text>
</a>
</g>
</g>
<!-- Node1&#45;&gt;Node36 -->
<g id="edge35_Node000001_Node000036" class="edge">
<title>Node1&#45;&gt;Node36</title>
<g id="a_edge35_Node000001_Node000036"><a xlink:title=" ">
<path fill="none" stroke="#63b8ff" d="M453.44,-154.85C468.71,-133.82 496.11,-100.68 528,-83 534.93,-79.16 542.51,-76.05 550.28,-73.54"/>
<polygon fill="#63b8ff" stroke="#63b8ff" points="450.38,-153.12 447.48,-163.31 456.1,-157.15 450.38,-153.12"/>
</a>
</g>
</g>
<!-- Node38 -->
<g id="Node000038" class="node">
<title>Node38</title>
<g id="a_Node000038"><a xlink:href="class_j_k_q_t_p_x_y_y_graph.html" target="_top" xlink:title="This virtual JKQTPGraph descendent extends JKQTPXYGraph to two columns for y&#45;values (e....">
<polygon fill="white" stroke="#666666" points="680.5,-31.5 567.5,-31.5 567.5,-10.5 680.5,-10.5 680.5,-31.5"/>
<text text-anchor="middle" x="624" y="-17.9" font-family="Helvetica,sans-Serif" font-size="12.00">JKQTPXYYGraph</text>
</a>
</g>
</g>
<!-- Node1&#45;&gt;Node38 -->
<g id="edge37_Node000001_Node000038" class="edge">
<title>Node1&#45;&gt;Node38</title>
<g id="a_edge37_Node000001_Node000038"><a xlink:title=" ">
<path fill="none" stroke="#63b8ff" d="M448.37,-153.57C460.72,-124.33 487.52,-70.97 528,-43 539.56,-35.01 553.61,-29.89 567.32,-26.62"/>
<polygon fill="#63b8ff" stroke="#63b8ff" points="444.99,-152.58 444.47,-163.17 451.48,-155.22 444.99,-152.58"/>
</a>
</g>
</g>
<!-- Node2 -->
<g id="Node000002" class="node">
<title>Node2</title>
<g id="a_Node000002"><a xlink:href="class_j_k_q_t_p_graph.html" target="_top" xlink:title="this virtual base class of the (data&#45;column based) graphs, which are part of a JKQTPlotter plot and w...">
<polygon fill="white" stroke="#666666" points="351,-184.5 262,-184.5 262,-163.5 351,-163.5 351,-184.5"/>
<text text-anchor="middle" x="306.5" y="-170.9" font-family="Helvetica,sans-Serif" font-size="12.00">JKQTPGraph</text>
</a>
</g>
</g>
<!-- Node2&#45;&gt;Node1 -->
<g id="edge1_Node000001_Node000002" class="edge">
<title>Node2&#45;&gt;Node1</title>
<g id="a_edge1_Node000001_Node000002"><a xlink:title=" ">
<path fill="none" stroke="#63b8ff" d="M361.27,-174C369.74,-174 378.48,-174 386.89,-174"/>
<polygon fill="#63b8ff" stroke="#63b8ff" points="361.12,-170.5 351.12,-174 361.12,-177.5 361.12,-170.5"/>
</a>
</g>
</g>
<!-- Node3 -->
<g id="Node000003" class="node">
<title>Node3</title>
<g id="a_Node000003"><a xlink:href="class_j_k_q_t_p_plot_element.html" target="_top" xlink:title="this virtual base class of every element, which is part of a JKQTPlotter plot and may appear in its k...">
<polygon fill="white" stroke="#666666" points="226,-184.5 101,-184.5 101,-163.5 226,-163.5 226,-184.5"/>
<text text-anchor="middle" x="163.5" y="-170.9" font-family="Helvetica,sans-Serif" font-size="12.00">JKQTPPlotElement</text>
</a>
</g>
</g>
<!-- Node3&#45;&gt;Node2 -->
<g id="edge2_Node000002_Node000003" class="edge">
<title>Node3&#45;&gt;Node2</title>
<g id="a_edge2_Node000002_Node000003"><a xlink:title=" ">
<path fill="none" stroke="#63b8ff" d="M236.51,-174C245.18,-174 253.82,-174 261.91,-174"/>
<polygon fill="#63b8ff" stroke="#63b8ff" points="236.34,-170.5 226.34,-174 236.34,-177.5 236.34,-170.5"/>
</a>
</g>
</g>
<!-- Node4 -->
<g id="Node000004" class="node">
<title>Node4</title>
<g id="a_Node000004"><a xlink:title=" ">
<polygon fill="white" stroke="#666666" points="65,-184.5 0,-184.5 0,-163.5 65,-163.5 65,-184.5"/>
<text text-anchor="middle" x="32.5" y="-170.9" font-family="Helvetica,sans-Serif" font-size="12.00">QObject</text>
</a>
</g>
</g>
<!-- Node4&#45;&gt;Node3 -->
<g id="edge3_Node000003_Node000004" class="edge">
<title>Node4&#45;&gt;Node3</title>
<g id="a_edge3_Node000003_Node000004"><a xlink:title=" ">
<path fill="none" stroke="#63b8ff" d="M75.09,-174C83.29,-174 92.05,-174 100.75,-174"/>
<polygon fill="#63b8ff" stroke="#63b8ff" points="75.06,-170.5 65.06,-174 75.06,-177.5 75.06,-170.5"/>
</a>
</g>
</g>
<!-- Node6 -->
<g id="Node000006" class="node">
<title>Node6</title>
<g id="a_Node000006"><a xlink:href="class_j_k_q_t_p_filled_horizontal_range_graph.html" target="_top" xlink:title="This implements filled curve plots where the area is filled between two data columns for each y&#45;value...">
<polygon fill="white" stroke="#666666" points="940,-442 758,-442 758,-408 940,-408 940,-442"/>
<text text-anchor="start" x="766" y="-428.4" font-family="Helvetica,sans-Serif" font-size="12.00">JKQTPFilledHorizontalRange</text>
<text text-anchor="middle" x="849" y="-415.4" font-family="Helvetica,sans-Serif" font-size="12.00">Graph</text>
</a>
</g>
</g>
<!-- Node5&#45;&gt;Node6 -->
<g id="edge5_Node000005_Node000006" class="edge">
<title>Node5&#45;&gt;Node6</title>
<g id="a_edge5_Node000005_Node000006"><a xlink:title=" ">
<path fill="none" stroke="#63b8ff" d="M690.79,-412.31C711.82,-414.01 735.47,-415.92 757.92,-417.73"/>
<polygon fill="#63b8ff" stroke="#63b8ff" points="690.95,-408.81 680.7,-411.5 690.38,-415.79 690.95,-408.81"/>
</a>
</g>
</g>
<!-- Node8 -->
<g id="Node000008" class="node">
<title>Node8</title>
<g id="a_Node000008"><a xlink:href="class_j_k_q_t_p_vector_field_graph.html" target="_top" xlink:title="This graph plots a vector field, i.e. a set of vectors (dx,dy) or (angle,length) at positions (x,...">
<polygon fill="white" stroke="#666666" points="926.5,-389.5 771.5,-389.5 771.5,-368.5 926.5,-368.5 926.5,-389.5"/>
<text text-anchor="middle" x="849" y="-375.9" font-family="Helvetica,sans-Serif" font-size="12.00">JKQTPVectorFieldGraph</text>
</a>
</g>
</g>
<!-- Node7&#45;&gt;Node8 -->
<g id="edge7_Node000007_Node000008" class="edge">
<title>Node7&#45;&gt;Node8</title>
<g id="a_edge7_Node000007_Node000008"><a xlink:title=" ">
<path fill="none" stroke="#63b8ff" d="M687.15,-346.54C721.3,-353.43 763.19,-361.89 795.66,-368.44"/>
<polygon fill="#63b8ff" stroke="#63b8ff" points="687.78,-343.1 677.28,-344.55 686.39,-349.96 687.78,-343.1"/>
</a>
</g>
</g>
<!-- Node9 -->
<g id="Node000009" class="node">
<title>Node9</title>
<g id="a_Node000009"><a xlink:href="class_j_k_q_t_p_parametrized_vector_field_graph.html" target="_top" xlink:title="This graph plots a vector field, i.e. a set of vectors (dx,dy) or (angle,length) at positions (x,...">
<polygon fill="white" stroke="#666666" points="1179,-486 980,-486 980,-452 1179,-452 1179,-486"/>
<text text-anchor="start" x="988" y="-472.4" font-family="Helvetica,sans-Serif" font-size="12.00">JKQTPParametrizedVectorField</text>
<text text-anchor="middle" x="1079.5" y="-459.4" font-family="Helvetica,sans-Serif" font-size="12.00">Graph</text>
</a>
</g>
</g>
<!-- Node8&#45;&gt;Node9 -->
<g id="edge8_Node000008_Node000009" class="edge">
<title>Node8&#45;&gt;Node9</title>
<g id="a_edge8_Node000008_Node000009"><a xlink:title=" ">
<path fill="none" stroke="#63b8ff" d="M931.21,-393.33C934.95,-395.02 938.57,-396.9 942,-399 963.55,-412.2 956.72,-429.38 978,-443 983.31,-446.4 989.05,-449.35 995,-451.92"/>
<polygon fill="#63b8ff" stroke="#63b8ff" points="932.27,-389.99 921.69,-389.53 929.68,-396.49 932.27,-389.99"/>
</a>
</g>
</g>
<!-- Node11 -->
<g id="Node000011" class="node">
<title>Node11</title>
<g id="a_Node000011"><a xlink:href="class_j_k_q_t_p_bar_graph_base.html" target="_top" xlink:title="This is a base&#45;class for all bar graphs with vertical or horizontal orientation (the orientation is i...">
<polygon fill="white" stroke="#666666" points="919,-350.5 779,-350.5 779,-329.5 919,-329.5 919,-350.5"/>
<text text-anchor="middle" x="849" y="-336.9" font-family="Helvetica,sans-Serif" font-size="12.00">JKQTPBarGraphBase</text>
</a>
</g>
</g>
<!-- Node10&#45;&gt;Node11 -->
<g id="edge10_Node000010_Node000011" class="edge">
<title>Node10&#45;&gt;Node11</title>
<g id="a_edge10_Node000010_Node000011"><a xlink:title=" ">
<path fill="none" stroke="#63b8ff" d="M656.35,-248.04C702.11,-270 786.05,-310.28 825.89,-329.39"/>
<polygon fill="#63b8ff" stroke="#63b8ff" points="657.73,-244.82 647.2,-243.65 654.7,-251.13 657.73,-244.82"/>
</a>
</g>
</g>
<!-- Node18 -->
<g id="Node000018" class="node">
<title>Node18</title>
<g id="a_Node000018"><a xlink:href="class_j_k_q_t_p_filled_curve_graph_base.html" target="_top" xlink:title="a Base class for filled curve graphs like e.g. JKQTPFilledCurveXGraph">
<polygon fill="white" stroke="#666666" points="941,-282.5 757,-282.5 757,-261.5 941,-261.5 941,-282.5"/>
<text text-anchor="middle" x="849" y="-268.9" font-family="Helvetica,sans-Serif" font-size="12.00">JKQTPFilledCurveGraphBase</text>
</a>
</g>
</g>
<!-- Node10&#45;&gt;Node18 -->
<g id="edge17_Node000010_Node000018" class="edge">
<title>Node10&#45;&gt;Node18</title>
<g id="a_edge17_Node000010_Node000018"><a xlink:title=" ">
<path fill="none" stroke="#63b8ff" d="M694.97,-245.24C724.77,-250.45 759.2,-256.47 787.84,-261.48"/>
<polygon fill="#63b8ff" stroke="#63b8ff" points="695.51,-241.78 685.05,-243.5 694.3,-248.67 695.51,-241.78"/>
</a>
</g>
</g>
<!-- Node23 -->
<g id="Node000023" class="node">
<title>Node23</title>
<g id="a_Node000023"><a xlink:href="class_j_k_q_t_p_impulses_graph_base.html" target="_top" xlink:title="This is a base class for all impulse graphs.">
<polygon fill="white" stroke="#666666" points="935,-243.5 763,-243.5 763,-222.5 935,-222.5 935,-243.5"/>
<text text-anchor="middle" x="849" y="-229.9" font-family="Helvetica,sans-Serif" font-size="12.00">JKQTPImpulsesGraphBase</text>
</a>
</g>
</g>
<!-- Node10&#45;&gt;Node23 -->
<g id="edge22_Node000010_Node000023" class="edge">
<title>Node10&#45;&gt;Node23</title>
<g id="a_edge22_Node000010_Node000023"><a xlink:title=" ">
<path fill="none" stroke="#63b8ff" d="M712.01,-233C728.67,-233 746.1,-233 762.71,-233"/>
<polygon fill="#63b8ff" stroke="#63b8ff" points="711.74,-229.5 701.74,-233 711.74,-236.5 711.74,-229.5"/>
</a>
</g>
</g>
<!-- Node28 -->
<g id="Node000028" class="node">
<title>Node28</title>
<g id="a_Node000028"><a xlink:href="class_j_k_q_t_p_special_line_graph_base.html" target="_top" xlink:title="a Base class for special line graphs (steps ...) like e.g. JKQTPSpecialLineHorizontalGraph">
<polygon fill="white" stroke="#666666" points="942,-204.5 756,-204.5 756,-183.5 942,-183.5 942,-204.5"/>
<text text-anchor="middle" x="849" y="-190.9" font-family="Helvetica,sans-Serif" font-size="12.00">JKQTPSpecialLineGraphBase</text>
</a>
</g>
</g>
<!-- Node10&#45;&gt;Node28 -->
<g id="edge27_Node000010_Node000028" class="edge">
<title>Node10&#45;&gt;Node28</title>
<g id="a_edge27_Node000010_Node000028"><a xlink:title=" ">
<path fill="none" stroke="#63b8ff" d="M694.97,-220.76C724.77,-215.55 759.2,-209.53 787.84,-204.52"/>
<polygon fill="#63b8ff" stroke="#63b8ff" points="694.3,-217.33 685.05,-222.5 695.51,-224.22 694.3,-217.33"/>
</a>
</g>
</g>
<!-- Node12 -->
<g id="Node000012" class="node">
<title>Node12</title>
<g id="a_Node000012"><a xlink:href="class_j_k_q_t_p_bar_horizontal_graph.html" target="_top" xlink:title="This implements a horizontal bar graph with bars between &#160;and .">
<polygon fill="white" stroke="#666666" points="1165,-433.5 994,-433.5 994,-412.5 1165,-412.5 1165,-433.5"/>
<text text-anchor="middle" x="1079.5" y="-419.9" font-family="Helvetica,sans-Serif" font-size="12.00">JKQTPBarHorizontalGraph</text>
</a>
</g>
</g>
<!-- Node11&#45;&gt;Node12 -->
<g id="edge11_Node000011_Node000012" class="edge">
<title>Node11&#45;&gt;Node12</title>
<g id="a_edge11_Node000011_Node000012"><a xlink:title=" ">
<path fill="none" stroke="#63b8ff" d="M917.93,-352.93C926.11,-355.03 934.3,-357.38 942,-360 958.75,-365.69 961.96,-369.54 978,-377 1004.45,-389.3 1034.92,-403.21 1055.31,-412.48"/>
<polygon fill="#63b8ff" stroke="#63b8ff" points="918.51,-349.47 907.97,-350.5 916.86,-356.27 918.51,-349.47"/>
</a>
</g>
</g>
<!-- Node15 -->
<g id="Node000015" class="node">
<title>Node15</title>
<g id="a_Node000015"><a xlink:href="class_j_k_q_t_p_bar_vertical_graph.html" target="_top" xlink:title="This implements a vertical bar graph with bars between &#160;and .">
<polygon fill="white" stroke="#666666" points="1157,-367.5 1002,-367.5 1002,-346.5 1157,-346.5 1157,-367.5"/>
<text text-anchor="middle" x="1079.5" y="-353.9" font-family="Helvetica,sans-Serif" font-size="12.00">JKQTPBarVerticalGraph</text>
</a>
</g>
</g>
<!-- Node11&#45;&gt;Node15 -->
<g id="edge14_Node000011_Node000015" class="edge">
<title>Node11&#45;&gt;Node15</title>
<g id="a_edge14_Node000011_Node000015"><a xlink:title=" ">
<path fill="none" stroke="#63b8ff" d="M929.46,-345.91C952.97,-347.66 978.66,-349.57 1001.98,-351.31"/>
<polygon fill="#63b8ff" stroke="#63b8ff" points="929.41,-342.4 919.18,-345.15 928.89,-349.38 929.41,-342.4"/>
</a>
</g>
</g>
<!-- Node13 -->
<g id="Node000013" class="node">
<title>Node13</title>
<g id="a_Node000013"><a xlink:href="class_j_k_q_t_p_bar_horizontal_error_graph.html" target="_top" xlink:title="This implements a horizontal bar graph with bars between &#160;and &#160;and error indicator.">
<polygon fill="white" stroke="#666666" points="1417,-505.5 1217,-505.5 1217,-484.5 1417,-484.5 1417,-505.5"/>
<text text-anchor="middle" x="1317" y="-491.9" font-family="Helvetica,sans-Serif" font-size="12.00">JKQTPBarHorizontalErrorGraph</text>
</a>
</g>
</g>
<!-- Node12&#45;&gt;Node13 -->
<g id="edge12_Node000012_Node000013" class="edge">
<title>Node12&#45;&gt;Node13</title>
<g id="a_edge12_Node000012_Node000013"><a xlink:title=" ">
<path fill="none" stroke="#63b8ff" d="M1165.85,-436.63C1171.08,-438.49 1176.17,-440.6 1181,-443 1200.17,-452.53 1197.85,-465.44 1217,-475 1224.69,-478.84 1233.06,-481.94 1241.57,-484.44"/>
<polygon fill="#63b8ff" stroke="#63b8ff" points="1166.91,-433.29 1156.32,-433.55 1164.76,-439.95 1166.91,-433.29"/>
</a>
</g>
</g>
<!-- Node14 -->
<g id="Node000014" class="node">
<title>Node14</title>
<g id="a_Node000014"><a xlink:href="class_j_k_q_t_p_bar_horizontal_stackable_graph.html" target="_top" xlink:title="This implements a horizontal bar graph with bars between &#160;and &#160;Optionally several graphs of this type...">
<polygon fill="white" stroke="#666666" points="1413.5,-466 1220.5,-466 1220.5,-432 1413.5,-432 1413.5,-466"/>
<text text-anchor="start" x="1228.5" y="-452.4" font-family="Helvetica,sans-Serif" font-size="12.00">JKQTPBarHorizontalStackable</text>
<text text-anchor="middle" x="1317" y="-439.4" font-family="Helvetica,sans-Serif" font-size="12.00">Graph</text>
</a>
</g>
</g>
<!-- Node12&#45;&gt;Node14 -->
<g id="edge13_Node000012_Node000014" class="edge">
<title>Node12&#45;&gt;Node14</title>
<g id="a_edge13_Node000012_Node000014"><a xlink:title=" ">
<path fill="none" stroke="#63b8ff" d="M1175.38,-433.48C1190.24,-435.12 1205.6,-436.81 1220.47,-438.45"/>
<polygon fill="#63b8ff" stroke="#63b8ff" points="1175.51,-429.97 1165.19,-432.35 1174.74,-436.93 1175.51,-429.97"/>
</a>
</g>
</g>
<!-- Node16 -->
<g id="Node000016" class="node">
<title>Node16</title>
<g id="a_Node000016"><a xlink:href="class_j_k_q_t_p_bar_vertical_error_graph.html" target="_top" xlink:title="This implements a vertical bar graph with bars between &#160;and &#160;and error indicator.">
<polygon fill="white" stroke="#666666" points="1409.5,-413.5 1224.5,-413.5 1224.5,-392.5 1409.5,-392.5 1409.5,-413.5"/>
<text text-anchor="middle" x="1317" y="-399.9" font-family="Helvetica,sans-Serif" font-size="12.00">JKQTPBarVerticalErrorGraph</text>
</a>
</g>
</g>
<!-- Node15&#45;&gt;Node16 -->
<g id="edge15_Node000015_Node000016" class="edge">
<title>Node15&#45;&gt;Node16</title>
<g id="a_edge15_Node000015_Node000016"><a xlink:title=" ">
<path fill="none" stroke="#63b8ff" d="M1144.67,-369.53C1181.52,-376.73 1227.27,-385.67 1262.22,-392.5"/>
<polygon fill="#63b8ff" stroke="#63b8ff" points="1145.01,-366.04 1134.53,-367.55 1143.67,-372.91 1145.01,-366.04"/>
</a>
</g>
</g>
<!-- Node17 -->
<g id="Node000017" class="node">
<title>Node17</title>
<g id="a_Node000017"><a xlink:href="class_j_k_q_t_p_bar_vertical_stackable_graph.html" target="_top" xlink:title="This implements a vertical bar graph with bars between &#160;and &#160;Optionally several graphs of this type m...">
<polygon fill="white" stroke="#666666" points="1405.5,-374 1228.5,-374 1228.5,-340 1405.5,-340 1405.5,-374"/>
<text text-anchor="start" x="1236.5" y="-360.4" font-family="Helvetica,sans-Serif" font-size="12.00">JKQTPBarVerticalStackable</text>
<text text-anchor="middle" x="1317" y="-347.4" font-family="Helvetica,sans-Serif" font-size="12.00">Graph</text>
</a>
</g>
</g>
<!-- Node15&#45;&gt;Node17 -->
<g id="edge16_Node000015_Node000017" class="edge">
<title>Node15&#45;&gt;Node17</title>
<g id="a_edge16_Node000015_Node000017"><a xlink:title=" ">
<path fill="none" stroke="#63b8ff" d="M1167.53,-357C1187.35,-357 1208.43,-357 1228.29,-357"/>
<polygon fill="#63b8ff" stroke="#63b8ff" points="1167.29,-353.5 1157.29,-357 1167.29,-360.5 1167.29,-353.5"/>
</a>
</g>
</g>
<!-- Node19 -->
<g id="Node000019" class="node">
<title>Node19</title>
<g id="a_Node000019"><a xlink:href="class_j_k_q_t_p_filled_curve_x_graph.html" target="_top" xlink:title="This implements filled curve plots where the area is filled between the plot line and the x&#45;Axis.">
<polygon fill="white" stroke="#666666" points="1161,-321.5 998,-321.5 998,-300.5 1161,-300.5 1161,-321.5"/>
<text text-anchor="middle" x="1079.5" y="-307.9" font-family="Helvetica,sans-Serif" font-size="12.00">JKQTPFilledCurveXGraph</text>
</a>
</g>
</g>
<!-- Node18&#45;&gt;Node19 -->
<g id="edge18_Node000018_Node000019" class="edge">
<title>Node18&#45;&gt;Node19</title>
<g id="a_edge18_Node000018_Node000019"><a xlink:title=" ">
<path fill="none" stroke="#63b8ff" d="M921.69,-284.24C952.23,-289.45 987.51,-295.47 1016.86,-300.48"/>
<polygon fill="#63b8ff" stroke="#63b8ff" points="921.98,-280.74 911.53,-282.5 920.8,-287.64 921.98,-280.74"/>
</a>
</g>
</g>
<!-- Node21 -->
<g id="Node000021" class="node">
<title>Node21</title>
<g id="a_Node000021"><a xlink:href="class_j_k_q_t_p_filled_curve_y_graph.html" target="_top" xlink:title="This implements filled curve plots where the area is filled between the plot line and y&#45;Axis.">
<polygon fill="white" stroke="#666666" points="1160.5,-282.5 998.5,-282.5 998.5,-261.5 1160.5,-261.5 1160.5,-282.5"/>
<text text-anchor="middle" x="1079.5" y="-268.9" font-family="Helvetica,sans-Serif" font-size="12.00">JKQTPFilledCurveYGraph</text>
</a>
</g>
</g>
<!-- Node18&#45;&gt;Node21 -->
<g id="edge20_Node000018_Node000021" class="edge">
<title>Node18&#45;&gt;Node21</title>
<g id="a_edge20_Node000018_Node000021"><a xlink:title=" ">
<path fill="none" stroke="#63b8ff" d="M951.55,-272C967.25,-272 983.27,-272 998.42,-272"/>
<polygon fill="#63b8ff" stroke="#63b8ff" points="951.29,-268.5 941.29,-272 951.29,-275.5 951.29,-268.5"/>
</a>
</g>
</g>
<!-- Node20 -->
<g id="Node000020" class="node">
<title>Node20</title>
<g id="a_Node000020"><a xlink:href="class_j_k_q_t_p_filled_curve_x_error_graph.html" target="_top" xlink:title="This implements filled curve plots with y errors where the area is filled between the plot line and t...">
<polygon fill="white" stroke="#666666" points="1413,-321.5 1221,-321.5 1221,-300.5 1413,-300.5 1413,-321.5"/>
<text text-anchor="middle" x="1317" y="-307.9" font-family="Helvetica,sans-Serif" font-size="12.00">JKQTPFilledCurveXErrorGraph</text>
</a>
</g>
</g>
<!-- Node19&#45;&gt;Node20 -->
<g id="edge19_Node000019_Node000020" class="edge">
<title>Node19&#45;&gt;Node20</title>
<g id="a_edge19_Node000019_Node000020"><a xlink:title=" ">
<path fill="none" stroke="#63b8ff" d="M1171.22,-311C1187.46,-311 1204.42,-311 1220.78,-311"/>
<polygon fill="#63b8ff" stroke="#63b8ff" points="1171.22,-307.5 1161.22,-311 1171.22,-314.5 1171.22,-307.5"/>
</a>
</g>
</g>
<!-- Node22 -->
<g id="Node000022" class="node">
<title>Node22</title>
<g id="a_Node000022"><a xlink:href="class_j_k_q_t_p_filled_curve_y_error_graph.html" target="_top" xlink:title="This implements filled curve plots with y errors where the area is filled between the plot line and t...">
<polygon fill="white" stroke="#666666" points="1412.5,-282.5 1221.5,-282.5 1221.5,-261.5 1412.5,-261.5 1412.5,-282.5"/>
<text text-anchor="middle" x="1317" y="-268.9" font-family="Helvetica,sans-Serif" font-size="12.00">JKQTPFilledCurveYErrorGraph</text>
</a>
</g>
</g>
<!-- Node21&#45;&gt;Node22 -->
<g id="edge21_Node000021_Node000022" class="edge">
<title>Node21&#45;&gt;Node22</title>
<g id="a_edge21_Node000021_Node000022"><a xlink:title=" ">
<path fill="none" stroke="#63b8ff" d="M1170.72,-272C1187.22,-272 1204.48,-272 1221.11,-272"/>
<polygon fill="#63b8ff" stroke="#63b8ff" points="1170.56,-268.5 1160.56,-272 1170.56,-275.5 1170.56,-268.5"/>
</a>
</g>
</g>
<!-- Node24 -->
<g id="Node000024" class="node">
<title>Node24</title>
<g id="a_Node000024"><a xlink:href="class_j_k_q_t_p_impulses_horizontal_graph.html" target="_top" xlink:title="This implements an impulse plot with horizontal impulses in direction of the X axis (i....">
<polygon fill="white" stroke="#666666" points="1181,-243.5 978,-243.5 978,-222.5 1181,-222.5 1181,-243.5"/>
<text text-anchor="middle" x="1079.5" y="-229.9" font-family="Helvetica,sans-Serif" font-size="12.00">JKQTPImpulsesHorizontalGraph</text>
</a>
</g>
</g>
<!-- Node23&#45;&gt;Node24 -->
<g id="edge23_Node000023_Node000024" class="edge">
<title>Node23&#45;&gt;Node24</title>
<g id="a_edge23_Node000023_Node000024"><a xlink:title=" ">
<path fill="none" stroke="#63b8ff" d="M945.32,-233C956.09,-233 967.08,-233 977.91,-233"/>
<polygon fill="#63b8ff" stroke="#63b8ff" points="945.09,-229.5 935.08,-233 945.08,-236.5 945.09,-229.5"/>
</a>
</g>
</g>
<!-- Node26 -->
<g id="Node000026" class="node">
<title>Node26</title>
<g id="a_Node000026"><a xlink:href="class_j_k_q_t_p_impulses_vertical_graph.html" target="_top" xlink:title="This implements an impulse plot with impulses in direction of the Y axis (i.e. from y=0 to y=f(x) )">
<polygon fill="white" stroke="#666666" points="1173.5,-204.5 985.5,-204.5 985.5,-183.5 1173.5,-183.5 1173.5,-204.5"/>
<text text-anchor="middle" x="1079.5" y="-190.9" font-family="Helvetica,sans-Serif" font-size="12.00">JKQTPImpulsesVerticalGraph</text>
</a>
</g>
</g>
<!-- Node23&#45;&gt;Node26 -->
<g id="edge25_Node000023_Node000026" class="edge">
<title>Node23&#45;&gt;Node26</title>
<g id="a_edge25_Node000023_Node000026"><a xlink:title=" ">
<path fill="none" stroke="#63b8ff" d="M921.69,-220.76C952.23,-215.55 987.51,-209.53 1016.86,-204.52"/>
<polygon fill="#63b8ff" stroke="#63b8ff" points="920.8,-217.36 911.53,-222.5 921.98,-224.26 920.8,-217.36"/>
</a>
</g>
</g>
<!-- Node25 -->
<g id="Node000025" class="node">
<title>Node25</title>
<g id="a_Node000025"><a xlink:href="class_j_k_q_t_p_impulses_horizontal_error_graph.html" target="_top" xlink:title="This implements an impulse plot with horizontal impulses in direction of the X axis (i....">
<polygon fill="white" stroke="#666666" points="1415,-243 1219,-243 1219,-209 1415,-209 1415,-243"/>
<text text-anchor="start" x="1227" y="-229.4" font-family="Helvetica,sans-Serif" font-size="12.00">JKQTPImpulsesHorizontalError</text>
<text text-anchor="middle" x="1317" y="-216.4" font-family="Helvetica,sans-Serif" font-size="12.00">Graph</text>
</a>
</g>
</g>
<!-- Node24&#45;&gt;Node25 -->
<g id="edge24_Node000024_Node000025" class="edge">
<title>Node24&#45;&gt;Node25</title>
<g id="a_edge24_Node000024_Node000025"><a xlink:title=" ">
<path fill="none" stroke="#63b8ff" d="M1191.06,-229.71C1200.32,-229.44 1209.63,-229.16 1218.77,-228.89"/>
<polygon fill="#63b8ff" stroke="#63b8ff" points="1190.95,-226.22 1181.06,-230.01 1191.16,-233.21 1190.95,-226.22"/>
</a>
</g>
</g>
<!-- Node27 -->
<g id="Node000027" class="node">
<title>Node27</title>
<g id="a_Node000027"><a xlink:href="class_j_k_q_t_p_impulses_vertical_error_graph.html" target="_top" xlink:title="This implements an impulse plot with impulses in direction of the X axis (i.e. from x=0 to x=f(y) )">
<polygon fill="white" stroke="#666666" points="1407,-191 1227,-191 1227,-157 1407,-157 1407,-191"/>
<text text-anchor="start" x="1235" y="-177.4" font-family="Helvetica,sans-Serif" font-size="12.00">JKQTPImpulsesVerticalError</text>
<text text-anchor="middle" x="1317" y="-164.4" font-family="Helvetica,sans-Serif" font-size="12.00">Graph</text>
</a>
</g>
</g>
<!-- Node26&#45;&gt;Node27 -->
<g id="edge26_Node000026_Node000027" class="edge">
<title>Node26&#45;&gt;Node27</title>
<g id="a_edge26_Node000026_Node000027"><a xlink:title=" ">
<path fill="none" stroke="#63b8ff" d="M1183.9,-185.22C1198.15,-184.01 1212.7,-182.77 1226.67,-181.59"/>
<polygon fill="#63b8ff" stroke="#63b8ff" points="1183.24,-181.76 1173.58,-186.1 1183.84,-188.74 1183.24,-181.76"/>
</a>
</g>
</g>
<!-- Node29 -->
<g id="Node000029" class="node">
<title>Node29</title>
<g id="a_Node000029"><a xlink:href="class_j_k_q_t_p_special_line_horizontal_graph.html" target="_top" xlink:title="This implements a step plot with values .">
<polygon fill="white" stroke="#666666" points="1170,-165 989,-165 989,-131 1170,-131 1170,-165"/>
<text text-anchor="start" x="997" y="-151.4" font-family="Helvetica,sans-Serif" font-size="12.00">JKQTPSpecialLineHorizontal</text>
<text text-anchor="middle" x="1079.5" y="-138.4" font-family="Helvetica,sans-Serif" font-size="12.00">Graph</text>
</a>
</g>
</g>
<!-- Node28&#45;&gt;Node29 -->
<g id="edge28_Node000028_Node000029" class="edge">
<title>Node28&#45;&gt;Node29</title>
<g id="a_edge28_Node000028_Node000029"><a xlink:title=" ">
<path fill="none" stroke="#63b8ff" d="M912.51,-181.42C937.53,-176.38 966.75,-170.5 993.63,-165.08"/>
<polygon fill="#63b8ff" stroke="#63b8ff" points="911.54,-178.04 902.42,-183.45 912.92,-184.9 911.54,-178.04"/>
</a>
</g>
</g>
<!-- Node30 -->
<g id="Node000030" class="node">
<title>Node30</title>
<g id="a_Node000030"><a xlink:href="class_j_k_q_t_p_special_line_vertical_graph.html" target="_top" xlink:title="This implements a step plot with values .">
<polygon fill="white" stroke="#666666" points="1162,-113 997,-113 997,-79 1162,-79 1162,-113"/>
<text text-anchor="start" x="1005" y="-99.4" font-family="Helvetica,sans-Serif" font-size="12.00">JKQTPSpecialLineVertical</text>
<text text-anchor="middle" x="1079.5" y="-86.4" font-family="Helvetica,sans-Serif" font-size="12.00">Graph</text>
</a>
</g>
</g>
<!-- Node28&#45;&gt;Node30 -->
<g id="edge29_Node000028_Node000030" class="edge">
<title>Node28&#45;&gt;Node30</title>
<g id="a_edge29_Node000028_Node000030"><a xlink:title=" ">
<path fill="none" stroke="#63b8ff" d="M932.74,-179.35C935.96,-177.75 939.06,-175.97 942,-174 965.36,-158.37 954.95,-138.08 978,-122 983.84,-117.93 990.27,-114.49 996.97,-111.59"/>
<polygon fill="#63b8ff" stroke="#63b8ff" points="931.17,-176.22 923.42,-183.44 933.99,-182.63 931.17,-176.22"/>
</a>
</g>
</g>
<!-- Node33 -->
<g id="Node000033" class="node">
<title>Node33</title>
<g id="a_Node000033"><a xlink:href="class_j_k_q_t_p_x_y_line_error_graph.html" target="_top" xlink:title="This implements xy line plots with x and y error indicators.">
<polygon fill="white" stroke="#666666" points="928.5,-165.5 769.5,-165.5 769.5,-144.5 928.5,-144.5 928.5,-165.5"/>
<text text-anchor="middle" x="849" y="-151.9" font-family="Helvetica,sans-Serif" font-size="12.00">JKQTPXYLineErrorGraph</text>
</a>
</g>
</g>
<!-- Node32&#45;&gt;Node33 -->
<g id="edge32_Node000032_Node000033" class="edge">
<title>Node32&#45;&gt;Node33</title>
<g id="a_edge32_Node000032_Node000033"><a xlink:title=" ">
<path fill="none" stroke="#63b8ff" d="M699.34,-155C721.78,-155 746.49,-155 769.21,-155"/>
<polygon fill="#63b8ff" stroke="#63b8ff" points="699.2,-151.5 689.2,-155 699.2,-158.5 699.2,-151.5"/>
</a>
</g>
</g>
<!-- Node35 -->
<g id="Node000035" class="node">
<title>Node35</title>
<g id="a_Node000035"><a xlink:href="class_j_k_q_t_p_x_y_parametrized_error_scatter_graph.html" target="_top" xlink:title="This implements xy scatter plots (like JKQTPXYScatterGraph), but the color and size of the symbols ma...">
<polygon fill="white" stroke="#666666" points="938,-126 760,-126 760,-92 938,-92 938,-126"/>
<text text-anchor="start" x="768" y="-112.4" font-family="Helvetica,sans-Serif" font-size="12.00">JKQTPXYParametrizedError</text>
<text text-anchor="middle" x="849" y="-99.4" font-family="Helvetica,sans-Serif" font-size="12.00">ScatterGraph</text>
</a>
</g>
</g>
<!-- Node34&#45;&gt;Node35 -->
<g id="edge34_Node000034_Node000035" class="edge">
<title>Node34&#45;&gt;Node35</title>
<g id="a_edge34_Node000034_Node000035"><a xlink:title=" ">
<path fill="none" stroke="#63b8ff" d="M730.43,-109C740.26,-109 750.16,-109 759.81,-109"/>
<polygon fill="#63b8ff" stroke="#63b8ff" points="730.22,-105.5 720.22,-109 730.22,-112.5 730.22,-105.5"/>
</a>
</g>
</g>
<!-- Node37 -->
<g id="Node000037" class="node">
<title>Node37</title>
<g id="a_Node000037"><a xlink:href="class_j_k_q_t_p_x_y_scatter_error_graph.html" target="_top" xlink:title="This implements xy scatter plots with x and y error indicators.">
<polygon fill="white" stroke="#666666" points="938,-73.5 760,-73.5 760,-52.5 938,-52.5 938,-73.5"/>
<text text-anchor="middle" x="849" y="-59.9" font-family="Helvetica,sans-Serif" font-size="12.00">JKQTPXYScatterErrorGraph</text>
</a>
</g>
</g>
<!-- Node36&#45;&gt;Node37 -->
<g id="edge36_Node000036_Node000037" class="edge">
<title>Node36&#45;&gt;Node37</title>
<g id="a_edge36_Node000036_Node000037"><a xlink:title=" ">
<path fill="none" stroke="#63b8ff" d="M708.85,-63C725.46,-63 742.95,-63 759.7,-63"/>
<polygon fill="#63b8ff" stroke="#63b8ff" points="708.64,-59.5 698.64,-63 708.64,-66.5 708.64,-59.5"/>
</a>
</g>
</g>
<!-- Node39 -->
<g id="Node000039" class="node">
<title>Node39</title>
<g id="a_Node000039"><a xlink:href="class_j_k_q_t_p_filled_vertical_range_graph.html" target="_top" xlink:title="This implements filled curve plots where the area is filled between two data columns for each x&#45;value...">
<polygon fill="white" stroke="#666666" points="932,-34 766,-34 766,0 932,0 932,-34"/>
<text text-anchor="start" x="774" y="-20.4" font-family="Helvetica,sans-Serif" font-size="12.00">JKQTPFilledVerticalRange</text>
<text text-anchor="middle" x="849" y="-7.4" font-family="Helvetica,sans-Serif" font-size="12.00">Graph</text>
</a>
</g>
</g>
<!-- Node38&#45;&gt;Node39 -->
<g id="edge38_Node000038_Node000039" class="edge">
<title>Node38&#45;&gt;Node39</title>
<g id="a_edge38_Node000038_Node000039"><a xlink:title=" ">
<path fill="none" stroke="#63b8ff" d="M690.87,-19.82C714.31,-19.4 741.01,-18.92 765.65,-18.48"/>
<polygon fill="#63b8ff" stroke="#63b8ff" points="690.63,-16.32 680.7,-20 690.76,-23.32 690.63,-16.32"/>
</a>
</g>
</g>
</g>
</svg>
