<?xml version="1.0" encoding="UTF-8" standalone="no"?>
<!DOCTYPE svg PUBLIC "-//W3C//DTD SVG 1.1//EN"
 "http://www.w3.org/Graphics/SVG/1.1/DTD/svg11.dtd">
<!-- Generated by graphviz version 2.43.0 (0)
 -->
<!-- Title: JKQTMathTextFracNode Pages: 1 -->
<svg width="571pt" height="236pt"
 viewBox="0.00 0.00 570.50 236.00" xmlns="http://www.w3.org/2000/svg" xmlns:xlink="http://www.w3.org/1999/xlink">
<g id="graph0" class="graph" transform="scale(1 1) rotate(0) translate(4 232)">
<title>JKQTMathTextFracNode</title>
<!-- Node1 -->
<g id="Node000001" class="node">
<title>Node1</title>
<g id="a_Node000001"><a xlink:title="subclass representing a \frac node">
<polygon fill="#999999" stroke="#666666" points="171.5,-21 15.5,-21 15.5,0 171.5,0 171.5,-21"/>
<text text-anchor="middle" x="93.5" y="-7.4" font-family="Helvetica,sans-Serif" font-size="12.00">JKQTMathTextFracNode</text>
</a>
</g>
</g>
<!-- Node2 -->
<g id="Node000002" class="node">
<title>Node2</title>
<g id="a_Node000002"><a xlink:href="class_j_k_q_t_math_text_dual_child_node.html" target="_top" xlink:title="subclass representing a node in the syntax tree, that has two children">
<polygon fill="white" stroke="#666666" points="187,-79 0,-79 0,-58 187,-58 187,-79"/>
<text text-anchor="middle" x="93.5" y="-65.4" font-family="Helvetica,sans-Serif" font-size="12.00">JKQTMathTextDualChildNode</text>
</a>
</g>
</g>
<!-- Node2&#45;&gt;Node1 -->
<g id="edge1_Node000001_Node000002" class="edge">
<title>Node2&#45;&gt;Node1</title>
<g id="a_edge1_Node000001_Node000002"><a xlink:title=" ">
<path fill="none" stroke="#63b8ff" d="M93.5,-47.66C93.5,-38.66 93.5,-28.42 93.5,-21.14"/>
<polygon fill="#63b8ff" stroke="#63b8ff" points="90,-47.75 93.5,-57.75 97,-47.75 90,-47.75"/>
</a>
</g>
</g>
<!-- Node3 -->
<g id="Node000003" class="node">
<title>Node3</title>
<g id="a_Node000003"><a xlink:href="class_j_k_q_t_math_text_multi_child_node.html" target="_top" xlink:title="subclass representing a node in the syntax tree, that has two children">
<polygon fill="white" stroke="#666666" points="297.5,-144.5 109.5,-144.5 109.5,-123.5 297.5,-123.5 297.5,-144.5"/>
<text text-anchor="middle" x="203.5" y="-130.9" font-family="Helvetica,sans-Serif" font-size="12.00">JKQTMathTextMultiChildNode</text>
</a>
</g>
</g>
<!-- Node3&#45;&gt;Node2 -->
<g id="edge2_Node000002_Node000003" class="edge">
<title>Node3&#45;&gt;Node2</title>
<g id="a_edge2_Node000002_Node000003"><a xlink:title=" ">
<path fill="none" stroke="#63b8ff" d="M178.09,-118.33C157.14,-106.24 128.04,-89.44 110,-79.03"/>
<polygon fill="#63b8ff" stroke="#63b8ff" points="176.38,-121.39 186.79,-123.36 179.88,-115.32 176.38,-121.39"/>
</a>
</g>
</g>
<!-- Node4 -->
<g id="Node000004" class="node">
<title>Node4</title>
<g id="a_Node000004"><a xlink:href="class_j_k_q_t_math_text_node.html" target="_top" xlink:title="subclass representing one node in the syntax tree">
<polygon fill="white" stroke="#666666" points="264,-228 133,-228 133,-207 264,-207 264,-228"/>
<text text-anchor="middle" x="198.5" y="-214.4" font-family="Helvetica,sans-Serif" font-size="12.00">JKQTMathTextNode</text>
</a>
</g>
</g>
<!-- Node4&#45;&gt;Node2 -->
<g id="edge9_Node000002_Node000004" class="edge">
<title>Node4&#45;&gt;Node2</title>
<g id="a_edge9_Node000002_Node000004"><a xlink:title=" ">
<path fill="none" stroke="#9a32cd" stroke-dasharray="5,2" d="M136.57,-204.11C107.63,-194.89 75.81,-179.03 58.5,-152 42.89,-127.63 68.44,-95.12 83.58,-79.17"/>
<polygon fill="#9a32cd" stroke="#9a32cd" points="135.66,-207.5 146.24,-206.99 137.66,-200.79 135.66,-207.5"/>
</a>
</g>
<text text-anchor="start" x="61.5" y="-139.4" font-family="Helvetica,sans-Serif" font-size="12.00" fill="grey">child1</text>
<text text-anchor="start" x="61.5" y="-122.4" font-family="Helvetica,sans-Serif" font-size="12.00" fill="grey">child2</text>
</g>
<!-- Node4&#45;&gt;Node3 -->
<g id="edge3_Node000003_Node000004" class="edge">
<title>Node4&#45;&gt;Node3</title>
<g id="a_edge3_Node000003_Node000004"><a xlink:title=" ">
<path fill="none" stroke="#63b8ff" d="M196.08,-196.74C195.84,-194.14 195.64,-191.51 195.5,-189 195.04,-180.57 194.55,-178.39 195.5,-170 196.48,-161.33 198.78,-151.67 200.66,-144.71"/>
<polygon fill="#63b8ff" stroke="#63b8ff" points="192.62,-197.29 197.19,-206.85 199.58,-196.53 192.62,-197.29"/>
</a>
</g>
</g>
<!-- Node4&#45;&gt;Node4 -->
<g id="edge8_Node000004_Node000004" class="edge">
<title>Node4&#45;&gt;Node4</title>
<g id="a_edge8_Node000004_Node000004"><a xlink:title=" ">
<path fill="none" stroke="#9a32cd" stroke-dasharray="5,2" d="M274.52,-222.46C279.19,-221.29 282,-219.63 282,-217.5 282,-214.09 274.81,-211.9 264.31,-210.94"/>
<polygon fill="#9a32cd" stroke="#9a32cd" points="273.65,-219.06 264.31,-224.06 274.73,-225.97 273.65,-219.06"/>
</a>
</g>
<text text-anchor="start" x="285.5" y="-213.9" font-family="Helvetica,sans-Serif" font-size="12.00" fill="grey">parentNode</text>
</g>
<!-- Node5 -->
<g id="Node000005" class="node">
<title>Node5</title>
<g id="a_Node000005"><a xlink:href="class_j_k_q_t_math_text.html" target="_top" xlink:title="this class parses a mathematical markup string and can then draw the contained text/equation onto a Q...">
<polygon fill="white" stroke="#666666" points="459,-144.5 360,-144.5 360,-123.5 459,-123.5 459,-144.5"/>
<text text-anchor="middle" x="409.5" y="-130.9" font-family="Helvetica,sans-Serif" font-size="12.00">JKQTMathText</text>
</a>
</g>
</g>
<!-- Node4&#45;&gt;Node5 -->
<g id="edge6_Node000005_Node000004" class="edge">
<title>Node4&#45;&gt;Node5</title>
<g id="a_edge6_Node000005_Node000004"><a xlink:title=" ">
<path fill="none" stroke="#9a32cd" stroke-dasharray="5,2" d="M199.32,-196.63C200.76,-187.27 204.09,-176.72 211.5,-170 214.27,-167.49 302.19,-152.63 359.93,-143.1"/>
<polygon fill="#9a32cd" stroke="#9a32cd" points="195.82,-196.48 198.37,-206.77 202.79,-197.14 195.82,-196.48"/>
</a>
</g>
<text text-anchor="start" x="215" y="-175.9" font-family="Helvetica,sans-Serif" font-size="12.00" fill="grey">parsedNode</text>
</g>
<!-- Node5&#45;&gt;Node4 -->
<g id="edge4_Node000004_Node000005" class="edge">
<title>Node5&#45;&gt;Node4</title>
<g id="a_edge4_Node000004_Node000005"><a xlink:title=" ">
<path fill="none" stroke="#9a32cd" stroke-dasharray="5,2" d="M364.79,-147.77C348.64,-153.37 330.66,-160.79 315.5,-170 304.74,-176.54 305.5,-182.89 294.5,-189 280.25,-196.92 263.53,-202.73 248.06,-206.91"/>
<polygon fill="#9a32cd" stroke="#9a32cd" points="366.18,-150.99 374.57,-144.52 363.98,-144.35 366.18,-150.99"/>
</a>
</g>
<text text-anchor="start" x="318.5" y="-175.9" font-family="Helvetica,sans-Serif" font-size="12.00" fill="grey">parentMathText</text>
</g>
<!-- Node6 -->
<g id="Node000006" class="node">
<title>Node6</title>
<g id="a_Node000006"><a xlink:title=" ">
<polygon fill="white" stroke="#666666" points="464,-228 399,-228 399,-207 464,-207 464,-228"/>
<text text-anchor="middle" x="431.5" y="-214.4" font-family="Helvetica,sans-Serif" font-size="12.00">QObject</text>
</a>
</g>
</g>
<!-- Node6&#45;&gt;Node5 -->
<g id="edge5_Node000005_Node000006" class="edge">
<title>Node6&#45;&gt;Node5</title>
<g id="a_edge5_Node000005_Node000006"><a xlink:title=" ">
<path fill="none" stroke="#63b8ff" d="M426.26,-197.09C421.8,-180.56 415.58,-157.52 412.11,-144.66"/>
<polygon fill="#63b8ff" stroke="#63b8ff" points="422.9,-198.09 428.89,-206.83 429.66,-196.26 422.9,-198.09"/>
</a>
</g>
</g>
<!-- Node7 -->
<g id="Node000007" class="node">
<title>Node7</title>
<g id="a_Node000007"><a xlink:title=" ">
<polygon fill="white" stroke="#666666" points="562.5,-228 482.5,-228 482.5,-207 562.5,-207 562.5,-228"/>
<text text-anchor="middle" x="522.5" y="-214.4" font-family="Helvetica,sans-Serif" font-size="12.00">std::mutex</text>
</a>
</g>
</g>
<!-- Node7&#45;&gt;Node5 -->
<g id="edge7_Node000005_Node000007" class="edge">
<title>Node7&#45;&gt;Node5</title>
<g id="a_edge7_Node000005_Node000007"><a xlink:title=" ">
<path fill="none" stroke="#9a32cd" stroke-dasharray="5,2" d="M500.96,-200.96C477.94,-184.36 442.16,-158.56 422.89,-144.66"/>
<polygon fill="#9a32cd" stroke="#9a32cd" points="498.94,-203.82 509.09,-206.83 503.03,-198.14 498.94,-203.82"/>
</a>
</g>
<text text-anchor="start" x="487" y="-175.9" font-family="Helvetica,sans-Serif" font-size="12.00" fill="grey">s_mutex</text>
</g>
</g>
</svg>
