<?xml version="1.0" encoding="UTF-8" standalone="no"?>
<!DOCTYPE svg PUBLIC "-//W3C//DTD SVG 1.1//EN"
 "http://www.w3.org/Graphics/SVG/1.1/DTD/svg11.dtd">
<!-- Generated by graphviz version 2.43.0 (0)
 -->
<!-- Title: JKQTPOverlayImage Pages: 1 -->
<svg width="250pt" height="371pt"
 viewBox="0.00 0.00 250.00 371.00" xmlns="http://www.w3.org/2000/svg" xmlns:xlink="http://www.w3.org/1999/xlink">
<g id="graph0" class="graph" transform="scale(1 1) rotate(0) translate(4 367)">
<title>JKQTPOverlayImage</title>
<!-- Node1 -->
<g id="Node000001" class="node">
<title>Node1</title>
<g id="a_Node000001"><a xlink:title="class to plot an image from an 2&#45;dimensional array of boolean values: alle true values are plotted in...">
<polygon fill="#999999" stroke="#666666" points="189.5,-135 52.5,-135 52.5,-114 189.5,-114 189.5,-135"/>
<text text-anchor="middle" x="121" y="-121.4" font-family="Helvetica,sans-Serif" font-size="12.00">JKQTPOverlayImage</text>
</a>
</g>
</g>
<!-- Node6 -->
<g id="Node000006" class="node">
<title>Node6</title>
<g id="a_Node000006"><a xlink:href="class_j_k_q_t_p_overlay_image_enhanced.html" target="_top" xlink:title="class to plot an image from an 2&#45;dimensional array of boolean values: alle true values are plotted in...">
<polygon fill="white" stroke="#666666" points="219.5,-78 22.5,-78 22.5,-57 219.5,-57 219.5,-78"/>
<text text-anchor="middle" x="121" y="-64.4" font-family="Helvetica,sans-Serif" font-size="12.00">JKQTPOverlayImageEnhanced</text>
</a>
</g>
</g>
<!-- Node1&#45;&gt;Node6 -->
<g id="edge5_Node000001_Node000006" class="edge">
<title>Node1&#45;&gt;Node6</title>
<g id="a_edge5_Node000001_Node000006"><a xlink:title=" ">
<path fill="none" stroke="#63b8ff" d="M121,-103.86C121,-95.2 121,-85.42 121,-78.34"/>
<polygon fill="#63b8ff" stroke="#63b8ff" points="117.5,-103.92 121,-113.92 124.5,-103.92 117.5,-103.92"/>
</a>
</g>
</g>
<!-- Node2 -->
<g id="Node000002" class="node">
<title>Node2</title>
<g id="a_Node000002"><a xlink:href="class_j_k_q_t_p_image_base.html" target="_top" xlink:title="base class for plotting an image">
<polygon fill="white" stroke="#666666" points="181,-192 61,-192 61,-171 181,-171 181,-192"/>
<text text-anchor="middle" x="121" y="-178.4" font-family="Helvetica,sans-Serif" font-size="12.00">JKQTPImageBase</text>
</a>
</g>
</g>
<!-- Node2&#45;&gt;Node1 -->
<g id="edge1_Node000001_Node000002" class="edge">
<title>Node2&#45;&gt;Node1</title>
<g id="a_edge1_Node000001_Node000002"><a xlink:title=" ">
<path fill="none" stroke="#63b8ff" d="M121,-160.86C121,-152.2 121,-142.42 121,-135.34"/>
<polygon fill="#63b8ff" stroke="#63b8ff" points="117.5,-160.92 121,-170.92 124.5,-160.92 117.5,-160.92"/>
</a>
</g>
</g>
<!-- Node3 -->
<g id="Node000003" class="node">
<title>Node3</title>
<g id="a_Node000003"><a xlink:href="class_j_k_q_t_p_graph.html" target="_top" xlink:title="this virtual base class of the (data&#45;column based) graphs, which are part of a JKQTPlotter plot and w...">
<polygon fill="white" stroke="#666666" points="165.5,-249 76.5,-249 76.5,-228 165.5,-228 165.5,-249"/>
<text text-anchor="middle" x="121" y="-235.4" font-family="Helvetica,sans-Serif" font-size="12.00">JKQTPGraph</text>
</a>
</g>
</g>
<!-- Node3&#45;&gt;Node2 -->
<g id="edge2_Node000002_Node000003" class="edge">
<title>Node3&#45;&gt;Node2</title>
<g id="a_edge2_Node000002_Node000003"><a xlink:title=" ">
<path fill="none" stroke="#63b8ff" d="M121,-217.86C121,-209.2 121,-199.42 121,-192.34"/>
<polygon fill="#63b8ff" stroke="#63b8ff" points="117.5,-217.92 121,-227.92 124.5,-217.92 117.5,-217.92"/>
</a>
</g>
</g>
<!-- Node4 -->
<g id="Node000004" class="node">
<title>Node4</title>
<g id="a_Node000004"><a xlink:href="class_j_k_q_t_p_plot_element.html" target="_top" xlink:title="this virtual base class of every element, which is part of a JKQTPlotter plot and may appear in its k...">
<polygon fill="white" stroke="#666666" points="183.5,-306 58.5,-306 58.5,-285 183.5,-285 183.5,-306"/>
<text text-anchor="middle" x="121" y="-292.4" font-family="Helvetica,sans-Serif" font-size="12.00">JKQTPPlotElement</text>
</a>
</g>
</g>
<!-- Node4&#45;&gt;Node3 -->
<g id="edge3_Node000003_Node000004" class="edge">
<title>Node4&#45;&gt;Node3</title>
<g id="a_edge3_Node000003_Node000004"><a xlink:title=" ">
<path fill="none" stroke="#63b8ff" d="M121,-274.86C121,-266.2 121,-256.42 121,-249.34"/>
<polygon fill="#63b8ff" stroke="#63b8ff" points="117.5,-274.92 121,-284.92 124.5,-274.92 117.5,-274.92"/>
</a>
</g>
</g>
<!-- Node5 -->
<g id="Node000005" class="node">
<title>Node5</title>
<g id="a_Node000005"><a xlink:title=" ">
<polygon fill="white" stroke="#666666" points="153.5,-363 88.5,-363 88.5,-342 153.5,-342 153.5,-363"/>
<text text-anchor="middle" x="121" y="-349.4" font-family="Helvetica,sans-Serif" font-size="12.00">QObject</text>
</a>
</g>
</g>
<!-- Node5&#45;&gt;Node4 -->
<g id="edge4_Node000004_Node000005" class="edge">
<title>Node5&#45;&gt;Node4</title>
<g id="a_edge4_Node000004_Node000005"><a xlink:title=" ">
<path fill="none" stroke="#63b8ff" d="M121,-331.86C121,-323.2 121,-313.42 121,-306.34"/>
<polygon fill="#63b8ff" stroke="#63b8ff" points="117.5,-331.92 121,-341.92 124.5,-331.92 117.5,-331.92"/>
</a>
</g>
</g>
<!-- Node7 -->
<g id="Node000007" class="node">
<title>Node7</title>
<g id="a_Node000007"><a xlink:href="class_j_k_q_t_p_column_overlay_image_enhanced.html" target="_top" xlink:title="class to plot an image from an 2&#45;dimensional array of boolean values: alle true values are plotted in...">
<polygon fill="white" stroke="#666666" points="242,-21 0,-21 0,0 242,0 242,-21"/>
<text text-anchor="middle" x="121" y="-7.4" font-family="Helvetica,sans-Serif" font-size="12.00">JKQTPColumnOverlayImageEnhanced</text>
</a>
</g>
</g>
<!-- Node6&#45;&gt;Node7 -->
<g id="edge6_Node000006_Node000007" class="edge">
<title>Node6&#45;&gt;Node7</title>
<g id="a_edge6_Node000006_Node000007"><a xlink:title=" ">
<path fill="none" stroke="#63b8ff" d="M121,-46.86C121,-38.2 121,-28.42 121,-21.34"/>
<polygon fill="#63b8ff" stroke="#63b8ff" points="117.5,-46.92 121,-56.92 124.5,-46.92 117.5,-46.92"/>
</a>
</g>
</g>
</g>
</svg>
