<?xml version="1.0" encoding="UTF-8" standalone="no"?>
<!DOCTYPE svg PUBLIC "-//W3C//DTD SVG 1.1//EN"
 "http://www.w3.org/Graphics/SVG/1.1/DTD/svg11.dtd">
<!-- Generated by graphviz version 2.43.0 (0)
 -->
<!-- Title: JKQTMathTextMatrixNode Pages: 1 -->
<svg width="483pt" height="163pt"
 viewBox="0.00 0.00 483.00 163.00" xmlns="http://www.w3.org/2000/svg" xmlns:xlink="http://www.w3.org/1999/xlink">
<g id="graph0" class="graph" transform="scale(1 1) rotate(0) translate(4 159)">
<title>JKQTMathTextMatrixNode</title>
<!-- Node1 -->
<g id="Node000001" class="node">
<title>Node1</title>
<g id="a_Node000001"><a xlink:title="subclass representing a \begin{matrix} , \begin{tabular} , \begin{array} , ... node">
<polygon fill="#999999" stroke="#666666" points="178,-21 10,-21 10,0 178,0 178,-21"/>
<text text-anchor="middle" x="94" y="-7.4" font-family="Helvetica,sans-Serif" font-size="12.00">JKQTMathTextMatrixNode</text>
</a>
</g>
</g>
<!-- Node2 -->
<g id="Node000002" class="node">
<title>Node2</title>
<g id="a_Node000002"><a xlink:href="class_j_k_q_t_math_text_multi_child_node.html" target="_top" xlink:title="subclass representing a node in the syntax tree, that has two children">
<polygon fill="white" stroke="#666666" points="188,-79 0,-79 0,-58 188,-58 188,-79"/>
<text text-anchor="middle" x="94" y="-65.4" font-family="Helvetica,sans-Serif" font-size="12.00">JKQTMathTextMultiChildNode</text>
</a>
</g>
</g>
<!-- Node2&#45;&gt;Node1 -->
<g id="edge1_Node000001_Node000002" class="edge">
<title>Node2&#45;&gt;Node1</title>
<g id="a_edge1_Node000001_Node000002"><a xlink:title=" ">
<path fill="none" stroke="#63b8ff" d="M94,-47.66C94,-38.66 94,-28.42 94,-21.14"/>
<polygon fill="#63b8ff" stroke="#63b8ff" points="90.5,-47.75 94,-57.75 97.5,-47.75 90.5,-47.75"/>
</a>
</g>
</g>
<!-- Node3 -->
<g id="Node000003" class="node">
<title>Node3</title>
<g id="a_Node000003"><a xlink:href="class_j_k_q_t_math_text_node.html" target="_top" xlink:title="subclass representing one node in the syntax tree">
<polygon fill="white" stroke="#666666" points="192.5,-155 61.5,-155 61.5,-134 192.5,-134 192.5,-155"/>
<text text-anchor="middle" x="127" y="-141.4" font-family="Helvetica,sans-Serif" font-size="12.00">JKQTMathTextNode</text>
</a>
</g>
</g>
<!-- Node3&#45;&gt;Node2 -->
<g id="edge2_Node000002_Node000003" class="edge">
<title>Node3&#45;&gt;Node2</title>
<g id="a_edge2_Node000002_Node000003"><a xlink:title=" ">
<path fill="none" stroke="#63b8ff" d="M113.3,-125.34C111.36,-122.31 109.51,-119.14 108,-116 102.15,-103.84 98.14,-88.72 95.96,-79.08"/>
<polygon fill="#63b8ff" stroke="#63b8ff" points="110.58,-127.57 119.17,-133.78 116.33,-123.57 110.58,-127.57"/>
</a>
</g>
</g>
<!-- Node3&#45;&gt;Node3 -->
<g id="edge7_Node000003_Node000003" class="edge">
<title>Node3&#45;&gt;Node3</title>
<g id="a_edge7_Node000003_Node000003"><a xlink:title=" ">
<path fill="none" stroke="#9a32cd" stroke-dasharray="5,2" d="M203.02,-149.46C207.69,-148.29 210.5,-146.63 210.5,-144.5 210.5,-141.09 203.31,-138.9 192.81,-137.94"/>
<polygon fill="#9a32cd" stroke="#9a32cd" points="202.15,-146.06 192.81,-151.06 203.23,-152.97 202.15,-146.06"/>
</a>
</g>
<text text-anchor="start" x="214" y="-140.9" font-family="Helvetica,sans-Serif" font-size="12.00" fill="grey">parentNode</text>
</g>
<!-- Node4 -->
<g id="Node000004" class="node">
<title>Node4</title>
<g id="a_Node000004"><a xlink:href="class_j_k_q_t_math_text.html" target="_top" xlink:title="this class parses a mathematical markup string and can then draw the contained text/equation onto a Q...">
<polygon fill="white" stroke="#666666" points="349.5,-79 250.5,-79 250.5,-58 349.5,-58 349.5,-79"/>
<text text-anchor="middle" x="300" y="-65.4" font-family="Helvetica,sans-Serif" font-size="12.00">JKQTMathText</text>
</a>
</g>
</g>
<!-- Node3&#45;&gt;Node4 -->
<g id="edge5_Node000004_Node000003" class="edge">
<title>Node3&#45;&gt;Node4</title>
<g id="a_edge5_Node000004_Node000003"><a xlink:title=" ">
<path fill="none" stroke="#9a32cd" stroke-dasharray="5,2" d="M119.91,-123.82C117.95,-114.68 117.8,-104.24 124,-97 132.19,-87.43 201.31,-78.89 250.44,-73.96"/>
<polygon fill="#9a32cd" stroke="#9a32cd" points="116.63,-125.08 122.77,-133.71 123.35,-123.13 116.63,-125.08"/>
</a>
</g>
<text text-anchor="start" x="127.5" y="-102.9" font-family="Helvetica,sans-Serif" font-size="12.00" fill="grey">parsedNode</text>
</g>
<!-- Node4&#45;&gt;Node3 -->
<g id="edge3_Node000003_Node000004" class="edge">
<title>Node4&#45;&gt;Node3</title>
<g id="a_edge3_Node000003_Node000004"><a xlink:title=" ">
<path fill="none" stroke="#9a32cd" stroke-dasharray="5,2" d="M255.49,-82.51C245.4,-86.41 235,-91.22 226,-97 215.95,-103.45 217.13,-109.67 207,-116 194.54,-123.78 179.61,-129.68 166.04,-133.98"/>
<polygon fill="#9a32cd" stroke="#9a32cd" points="256.82,-85.76 265.03,-79.06 254.43,-79.17 256.82,-85.76"/>
</a>
</g>
<text text-anchor="start" x="229" y="-102.9" font-family="Helvetica,sans-Serif" font-size="12.00" fill="grey">parentMathText</text>
</g>
<!-- Node5 -->
<g id="Node000005" class="node">
<title>Node5</title>
<g id="a_Node000005"><a xlink:title=" ">
<polygon fill="white" stroke="#666666" points="376.5,-155 311.5,-155 311.5,-134 376.5,-134 376.5,-155"/>
<text text-anchor="middle" x="344" y="-141.4" font-family="Helvetica,sans-Serif" font-size="12.00">QObject</text>
</a>
</g>
</g>
<!-- Node5&#45;&gt;Node4 -->
<g id="edge4_Node000004_Node000005" class="edge">
<title>Node5&#45;&gt;Node4</title>
<g id="a_edge4_Node000004_Node000005"><a xlink:title=" ">
<path fill="none" stroke="#63b8ff" d="M340.57,-123.94C338.44,-115.23 335.11,-105.13 330,-97 325.72,-90.18 319.3,-83.98 313.5,-79.2"/>
<polygon fill="#63b8ff" stroke="#63b8ff" points="337.19,-124.9 342.66,-133.97 344.04,-123.47 337.19,-124.9"/>
</a>
</g>
</g>
<!-- Node6 -->
<g id="Node000006" class="node">
<title>Node6</title>
<g id="a_Node000006"><a xlink:title=" ">
<polygon fill="white" stroke="#666666" points="475,-155 395,-155 395,-134 475,-134 475,-155"/>
<text text-anchor="middle" x="435" y="-141.4" font-family="Helvetica,sans-Serif" font-size="12.00">std::mutex</text>
</a>
</g>
</g>
<!-- Node6&#45;&gt;Node4 -->
<g id="edge6_Node000004_Node000006" class="edge">
<title>Node6&#45;&gt;Node4</title>
<g id="a_edge6_Node000004_Node000006"><a xlink:title=" ">
<path fill="none" stroke="#9a32cd" stroke-dasharray="5,2" d="M408.78,-129.13C381.94,-114.42 340.98,-91.96 317.73,-79.22"/>
<polygon fill="#9a32cd" stroke="#9a32cd" points="407.18,-132.24 417.63,-133.98 410.54,-126.1 407.18,-132.24"/>
</a>
</g>
<text text-anchor="start" x="386.5" y="-102.9" font-family="Helvetica,sans-Serif" font-size="12.00" fill="grey">s_mutex</text>
</g>
</g>
</svg>
