<?xml version="1.0" encoding="UTF-8" standalone="no"?>
<!DOCTYPE svg PUBLIC "-//W3C//DTD SVG 1.1//EN"
 "http://www.w3.org/Graphics/SVG/1.1/DTD/svg11.dtd">
<!-- Generated by graphviz version 2.43.0 (0)
 -->
<!-- Title: JKQTPYGraphErrors Pages: 1 -->
<svg width="582pt" height="121pt"
 viewBox="0.00 0.00 582.00 120.50" xmlns="http://www.w3.org/2000/svg" xmlns:xlink="http://www.w3.org/1999/xlink">
<g id="graph0" class="graph" transform="scale(1 1) rotate(0) translate(4 116.5)">
<title>JKQTPYGraphErrors</title>
<!-- Node1 -->
<g id="Node000001" class="node">
<title>Node1</title>
<g id="a_Node000001"><a xlink:title="This class is the base class for graphs that only display error indicators in y&#45;direction.">
<polygon fill="#999999" stroke="#666666" points="346,-73.5 215,-73.5 215,-52.5 346,-52.5 346,-73.5"/>
<text text-anchor="middle" x="280.5" y="-59.9" font-family="Helvetica,sans-Serif" font-size="12.00">JKQTPYGraphErrors</text>
</a>
</g>
</g>
<!-- Node4 -->
<g id="Node000004" class="node">
<title>Node4</title>
<g id="a_Node000004"><a xlink:href="class_j_k_q_t_p_bar_vertical_error_graph.html" target="_top" xlink:title="This implements a vertical bar graph with bars between &#160;and &#160;and error indicator.">
<polygon fill="white" stroke="#666666" points="570.5,-112.5 385.5,-112.5 385.5,-91.5 570.5,-91.5 570.5,-112.5"/>
<text text-anchor="middle" x="478" y="-98.9" font-family="Helvetica,sans-Serif" font-size="12.00">JKQTPBarVerticalErrorGraph</text>
</a>
</g>
</g>
<!-- Node1&#45;&gt;Node4 -->
<g id="edge3_Node000001_Node000004" class="edge">
<title>Node1&#45;&gt;Node4</title>
<g id="a_edge3_Node000001_Node000004"><a xlink:title=" ">
<path fill="none" stroke="#63b8ff" d="M344.21,-75.51C370.02,-80.66 399.59,-86.56 424.26,-91.48"/>
<polygon fill="#63b8ff" stroke="#63b8ff" points="344.64,-72.03 334.15,-73.5 343.27,-78.89 344.64,-72.03"/>
</a>
</g>
</g>
<!-- Node5 -->
<g id="Node000005" class="node">
<title>Node5</title>
<g id="a_Node000005"><a xlink:href="class_j_k_q_t_p_filled_curve_x_error_graph.html" target="_top" xlink:title="This implements filled curve plots with y errors where the area is filled between the plot line and t...">
<polygon fill="white" stroke="#666666" points="574,-73.5 382,-73.5 382,-52.5 574,-52.5 574,-73.5"/>
<text text-anchor="middle" x="478" y="-59.9" font-family="Helvetica,sans-Serif" font-size="12.00">JKQTPFilledCurveXErrorGraph</text>
</a>
</g>
</g>
<!-- Node1&#45;&gt;Node5 -->
<g id="edge4_Node000001_Node000005" class="edge">
<title>Node1&#45;&gt;Node5</title>
<g id="a_edge4_Node000001_Node000005"><a xlink:title=" ">
<path fill="none" stroke="#63b8ff" d="M356.15,-63C364.53,-63 373.15,-63 381.75,-63"/>
<polygon fill="#63b8ff" stroke="#63b8ff" points="356.06,-59.5 346.06,-63 356.06,-66.5 356.06,-59.5"/>
</a>
</g>
</g>
<!-- Node6 -->
<g id="Node000006" class="node">
<title>Node6</title>
<g id="a_Node000006"><a xlink:href="class_j_k_q_t_p_impulses_vertical_error_graph.html" target="_top" xlink:title="This implements an impulse plot with impulses in direction of the X axis (i.e. from x=0 to x=f(y) )">
<polygon fill="white" stroke="#666666" points="568,-34 388,-34 388,0 568,0 568,-34"/>
<text text-anchor="start" x="396" y="-20.4" font-family="Helvetica,sans-Serif" font-size="12.00">JKQTPImpulsesVerticalError</text>
<text text-anchor="middle" x="478" y="-7.4" font-family="Helvetica,sans-Serif" font-size="12.00">Graph</text>
</a>
</g>
</g>
<!-- Node1&#45;&gt;Node6 -->
<g id="edge5_Node000001_Node000006" class="edge">
<title>Node1&#45;&gt;Node6</title>
<g id="a_edge5_Node000001_Node000006"><a xlink:title=" ">
<path fill="none" stroke="#63b8ff" d="M336.13,-50.15C357.28,-45.17 381.79,-39.4 404.39,-34.08"/>
<polygon fill="#63b8ff" stroke="#63b8ff" points="335.28,-46.75 326.35,-52.45 336.89,-53.56 335.28,-46.75"/>
</a>
</g>
</g>
<!-- Node2 -->
<g id="Node000002" class="node">
<title>Node2</title>
<g id="a_Node000002"><a xlink:href="class_j_k_q_t_p_y_graph_error_data.html" target="_top" xlink:title="This class adds data fields for error indicators in y direction.">
<polygon fill="white" stroke="#666666" points="166.5,-93.5 12.5,-93.5 12.5,-72.5 166.5,-72.5 166.5,-93.5"/>
<text text-anchor="middle" x="89.5" y="-79.9" font-family="Helvetica,sans-Serif" font-size="12.00">JKQTPYGraphErrorData</text>
</a>
</g>
</g>
<!-- Node2&#45;&gt;Node1 -->
<g id="edge1_Node000001_Node000002" class="edge">
<title>Node2&#45;&gt;Node1</title>
<g id="a_edge1_Node000001_Node000002"><a xlink:title=" ">
<path fill="none" stroke="#63b8ff" d="M176.76,-73.87C189.57,-72.52 202.57,-71.14 214.83,-69.84"/>
<polygon fill="#63b8ff" stroke="#63b8ff" points="176.13,-70.42 166.56,-74.95 176.87,-77.38 176.13,-70.42"/>
</a>
</g>
</g>
<!-- Node3 -->
<g id="Node000003" class="node">
<title>Node3</title>
<g id="a_Node000003"><a xlink:href="class_j_k_q_t_p_graph_error_style_mixin.html" target="_top" xlink:title="This mix&#45;in class assembles all styling properties applicable to error indicators.">
<polygon fill="white" stroke="#666666" points="179,-54.5 0,-54.5 0,-33.5 179,-33.5 179,-54.5"/>
<text text-anchor="middle" x="89.5" y="-40.9" font-family="Helvetica,sans-Serif" font-size="12.00">JKQTPGraphErrorStyleMixin</text>
</a>
</g>
</g>
<!-- Node3&#45;&gt;Node1 -->
<g id="edge2_Node000001_Node000003" class="edge">
<title>Node3&#45;&gt;Node1</title>
<g id="a_edge2_Node000001_Node000003"><a xlink:title=" ">
<path fill="none" stroke="#63b8ff" d="M189.32,-53.93C197.94,-54.8 206.52,-55.66 214.75,-56.49"/>
<polygon fill="#63b8ff" stroke="#63b8ff" points="189.49,-50.43 179.19,-52.92 188.79,-57.4 189.49,-50.43"/>
</a>
</g>
</g>
</g>
</svg>
