<?xml version="1.0" encoding="UTF-8" standalone="no"?>
<!DOCTYPE svg PUBLIC "-//W3C//DTD SVG 1.1//EN"
 "http://www.w3.org/Graphics/SVG/1.1/DTD/svg11.dtd">
<!-- Generated by graphviz version 2.43.0 (0)
 -->
<!-- Title: JKQTMathTextModifiedTextPropsInstructionNode Pages: 1 -->
<svg width="524pt" height="234pt"
 viewBox="0.00 0.00 524.00 234.00" xmlns="http://www.w3.org/2000/svg" xmlns:xlink="http://www.w3.org/1999/xlink">
<g id="graph0" class="graph" transform="scale(1 1) rotate(0) translate(4 230)">
<title>JKQTMathTextModifiedTextPropsInstructionNode</title>
<!-- Node1 -->
<g id="Node000001" class="node">
<title>Node1</title>
<g id="a_Node000001"><a xlink:title="subclass representing an instruction node which modifies the current font (as defined in JKQTMathText...">
<polygon fill="#999999" stroke="#666666" points="188,-34 14,-34 14,0 188,0 188,-34"/>
<text text-anchor="start" x="22" y="-20.4" font-family="Helvetica,sans-Serif" font-size="12.00">JKQTMathTextModifiedText</text>
<text text-anchor="middle" x="101" y="-7.4" font-family="Helvetica,sans-Serif" font-size="12.00">PropsInstructionNode</text>
</a>
</g>
</g>
<!-- Node2 -->
<g id="Node000002" class="node">
<title>Node2</title>
<g id="a_Node000002"><a xlink:href="class_j_k_q_t_math_text_instruction1_node.html" target="_top" xlink:title="subclass representing an instruction node with exactly one argument and possibly additional parameter...">
<polygon fill="white" stroke="#666666" points="202,-92 0,-92 0,-71 202,-71 202,-92"/>
<text text-anchor="middle" x="101" y="-78.4" font-family="Helvetica,sans-Serif" font-size="12.00">JKQTMathTextInstruction1Node</text>
</a>
</g>
</g>
<!-- Node2&#45;&gt;Node1 -->
<g id="edge1_Node000001_Node000002" class="edge">
<title>Node2&#45;&gt;Node1</title>
<g id="a_edge1_Node000001_Node000002"><a xlink:title=" ">
<path fill="none" stroke="#63b8ff" d="M101,-60.57C101,-52.08 101,-42.3 101,-34.26"/>
<polygon fill="#63b8ff" stroke="#63b8ff" points="97.5,-60.73 101,-70.73 104.5,-60.73 97.5,-60.73"/>
</a>
</g>
</g>
<!-- Node3 -->
<g id="Node000003" class="node">
<title>Node3</title>
<g id="a_Node000003"><a xlink:href="class_j_k_q_t_math_text_single_child_node.html" target="_top" xlink:title="subclass representing a node in the syntax tree, that has one child">
<polygon fill="white" stroke="#666666" points="199,-150 3,-150 3,-129 199,-129 199,-150"/>
<text text-anchor="middle" x="101" y="-136.4" font-family="Helvetica,sans-Serif" font-size="12.00">JKQTMathTextSingleChildNode</text>
</a>
</g>
</g>
<!-- Node3&#45;&gt;Node2 -->
<g id="edge2_Node000002_Node000003" class="edge">
<title>Node3&#45;&gt;Node2</title>
<g id="a_edge2_Node000002_Node000003"><a xlink:title=" ">
<path fill="none" stroke="#63b8ff" d="M101,-118.66C101,-109.66 101,-99.42 101,-92.14"/>
<polygon fill="#63b8ff" stroke="#63b8ff" points="97.5,-118.75 101,-128.75 104.5,-118.75 97.5,-118.75"/>
</a>
</g>
</g>
<!-- Node4 -->
<g id="Node000004" class="node">
<title>Node4</title>
<g id="a_Node000004"><a xlink:href="class_j_k_q_t_math_text_node.html" target="_top" xlink:title="subclass representing one node in the syntax tree">
<polygon fill="white" stroke="#666666" points="205.5,-226 74.5,-226 74.5,-205 205.5,-205 205.5,-226"/>
<text text-anchor="middle" x="140" y="-212.4" font-family="Helvetica,sans-Serif" font-size="12.00">JKQTMathTextNode</text>
</a>
</g>
</g>
<!-- Node4&#45;&gt;Node3 -->
<g id="edge3_Node000003_Node000004" class="edge">
<title>Node4&#45;&gt;Node3</title>
<g id="a_edge3_Node000003_Node000004"><a xlink:title=" ">
<path fill="none" stroke="#63b8ff" d="M103.61,-199.48C98.97,-196.06 94.86,-191.93 92,-187 85.32,-175.47 90.7,-159.92 95.55,-150.04"/>
<polygon fill="#63b8ff" stroke="#63b8ff" points="102.01,-202.61 112.35,-204.92 105.71,-196.67 102.01,-202.61"/>
</a>
</g>
</g>
<!-- Node4&#45;&gt;Node3 -->
<g id="edge9_Node000003_Node000004" class="edge">
<title>Node4&#45;&gt;Node3</title>
<g id="a_edge9_Node000003_Node000004"><a xlink:title=" ">
<path fill="none" stroke="#9a32cd" stroke-dasharray="5,2" d="M120.17,-197.9C117.07,-194.56 114.18,-190.87 112,-187 105.48,-175.44 102.81,-160.16 101.73,-150.34"/>
<polygon fill="#9a32cd" stroke="#9a32cd" points="117.89,-200.57 127.52,-205 122.76,-195.54 117.89,-200.57"/>
</a>
</g>
<text text-anchor="start" x="115" y="-173.9" font-family="Helvetica,sans-Serif" font-size="12.00" fill="grey">child</text>
</g>
<!-- Node4&#45;&gt;Node4 -->
<g id="edge8_Node000004_Node000004" class="edge">
<title>Node4&#45;&gt;Node4</title>
<g id="a_edge8_Node000004_Node000004"><a xlink:title=" ">
<path fill="none" stroke="#9a32cd" stroke-dasharray="5,2" d="M216.02,-220.46C220.69,-219.29 223.5,-217.63 223.5,-215.5 223.5,-212.09 216.31,-209.9 205.81,-208.94"/>
<polygon fill="#9a32cd" stroke="#9a32cd" points="215.15,-217.06 205.81,-222.06 216.23,-223.97 215.15,-217.06"/>
</a>
</g>
<text text-anchor="start" x="227" y="-211.9" font-family="Helvetica,sans-Serif" font-size="12.00" fill="grey">parentNode</text>
</g>
<!-- Node5 -->
<g id="Node000005" class="node">
<title>Node5</title>
<g id="a_Node000005"><a xlink:href="class_j_k_q_t_math_text.html" target="_top" xlink:title="this class parses a mathematical markup string and can then draw the contained text/equation onto a Q...">
<polygon fill="white" stroke="#666666" points="329.5,-150 230.5,-150 230.5,-129 329.5,-129 329.5,-150"/>
<text text-anchor="middle" x="280" y="-136.4" font-family="Helvetica,sans-Serif" font-size="12.00">JKQTMathText</text>
</a>
</g>
</g>
<!-- Node4&#45;&gt;Node5 -->
<g id="edge6_Node000005_Node000004" class="edge">
<title>Node4&#45;&gt;Node5</title>
<g id="a_edge6_Node000005_Node000004"><a xlink:title=" ">
<path fill="none" stroke="#9a32cd" stroke-dasharray="5,2" d="M146.1,-195.2C150.06,-185.69 156.15,-174.82 165,-168 175.41,-159.99 204.16,-153.11 230.31,-148.24"/>
<polygon fill="#9a32cd" stroke="#9a32cd" points="142.76,-194.15 142.63,-204.74 149.34,-196.54 142.76,-194.15"/>
</a>
</g>
<text text-anchor="start" x="168.5" y="-173.9" font-family="Helvetica,sans-Serif" font-size="12.00" fill="grey">parsedNode</text>
</g>
<!-- Node5&#45;&gt;Node4 -->
<g id="edge4_Node000004_Node000005" class="edge">
<title>Node5&#45;&gt;Node4</title>
<g id="a_edge4_Node000004_Node000005"><a xlink:title=" ">
<path fill="none" stroke="#9a32cd" stroke-dasharray="5,2" d="M271.27,-159.18C265.85,-168.83 258.01,-180.02 248,-187 235.46,-195.74 220.37,-201.7 205.51,-205.77"/>
<polygon fill="#9a32cd" stroke="#9a32cd" points="274.4,-160.74 275.86,-150.25 268.18,-157.54 274.4,-160.74"/>
</a>
</g>
<text text-anchor="start" x="269" y="-173.9" font-family="Helvetica,sans-Serif" font-size="12.00" fill="grey">parentMathText</text>
</g>
<!-- Node6 -->
<g id="Node000006" class="node">
<title>Node6</title>
<g id="a_Node000006"><a xlink:title=" ">
<polygon fill="white" stroke="#666666" points="417.5,-226 352.5,-226 352.5,-205 417.5,-205 417.5,-226"/>
<text text-anchor="middle" x="385" y="-212.4" font-family="Helvetica,sans-Serif" font-size="12.00">QObject</text>
</a>
</g>
</g>
<!-- Node6&#45;&gt;Node5 -->
<g id="edge5_Node000005_Node000006" class="edge">
<title>Node6&#45;&gt;Node5</title>
<g id="a_edge5_Node000005_Node000006"><a xlink:title=" ">
<path fill="none" stroke="#63b8ff" d="M383.37,-194.97C381.63,-185.7 378.11,-175.12 371,-168 359.92,-156.91 344.53,-150.26 329.56,-146.29"/>
<polygon fill="#63b8ff" stroke="#63b8ff" points="379.91,-195.52 384.69,-204.97 386.85,-194.6 379.91,-195.52"/>
</a>
</g>
</g>
<!-- Node7 -->
<g id="Node000007" class="node">
<title>Node7</title>
<g id="a_Node000007"><a xlink:title=" ">
<polygon fill="white" stroke="#666666" points="516,-226 436,-226 436,-205 516,-205 516,-226"/>
<text text-anchor="middle" x="476" y="-212.4" font-family="Helvetica,sans-Serif" font-size="12.00">std::mutex</text>
</a>
</g>
</g>
<!-- Node7&#45;&gt;Node5 -->
<g id="edge7_Node000005_Node000007" class="edge">
<title>Node7&#45;&gt;Node5</title>
<g id="a_edge7_Node000005_Node000007"><a xlink:title=" ">
<path fill="none" stroke="#9a32cd" stroke-dasharray="5,2" d="M452.39,-199.64C435.53,-189.55 412.03,-176.55 390,-168 370.64,-160.48 348.56,-154.49 329.28,-150.04"/>
<polygon fill="#9a32cd" stroke="#9a32cd" points="450.66,-202.68 461.02,-204.89 454.3,-196.7 450.66,-202.68"/>
</a>
</g>
<text text-anchor="start" x="431.5" y="-173.9" font-family="Helvetica,sans-Serif" font-size="12.00" fill="grey">s_mutex</text>
</g>
</g>
</svg>
