<?xml version="1.0" encoding="UTF-8" standalone="no"?>
<!DOCTYPE svg PUBLIC "-//W3C//DTD SVG 1.1//EN"
 "http://www.w3.org/Graphics/SVG/1.1/DTD/svg11.dtd">
<!-- Generated by graphviz version 2.43.0 (0)
 -->
<!-- Title: JKQTFPimageOverlayPlot Pages: 1 -->
<svg width="319pt" height="236pt"
 viewBox="0.00 0.00 319.00 236.00" xmlns="http://www.w3.org/2000/svg" xmlns:xlink="http://www.w3.org/1999/xlink">

<svg id="main" version="1.1" xmlns="http://www.w3.org/2000/svg" xmlns:xlink="http://www.w3.org/1999/xlink" xml:space="preserve">

<style type="text/css"><![CDATA[
.node, .edge {opacity: 0.7;}
.node.selected, .edge.selected {opacity: 1;}
.edge:hover path { stroke: red; }
.edge:hover polygon { stroke: red; fill: red; }
]]></style>
<script type="application/ecmascript" xlink:href="svg.min.js"/>
<svg id="graph" class="graph">
<g id="graph0" class="graph" transform="scale(1 1) rotate(0) translate(4 232)">
<title>JKQTFPimageOverlayPlot</title>
<!-- Node1 -->
<g id="Node000001" class="node">
<title>Node1</title>
<g id="a_Node000001"><a xlink:title="plots an image overlay, i.e. a boolean image where each true pixel is drawn with a given color and th...">
<polygon fill="#999999" stroke="#666666" points="165,-21 0,-21 0,0 165,0 165,-21"/>
<text text-anchor="middle" x="82.5" y="-7.4" font-family="Helvetica,sans-Serif" font-size="12.00">JKQTFPimageOverlayPlot</text>
</a>
</g>
</g>
<!-- Node2 -->
<g id="Node000002" class="node">
<title>Node2</title>
<g id="a_Node000002"><a xlink:href="class_j_k_q_t_f_p_plot.html" target="_top" xlink:title="base class for all plots that may be plotted by JKQTFastPlotter">
<polygon fill="white" stroke="#666666" points="123.5,-79 41.5,-79 41.5,-58 123.5,-58 123.5,-79"/>
<text text-anchor="middle" x="82.5" y="-65.4" font-family="Helvetica,sans-Serif" font-size="12.00">JKQTFPPlot</text>
</a>
</g>
</g>
<!-- Node2&#45;&gt;Node1 -->
<g id="edge1_Node000001_Node000002" class="edge">
<title>Node2&#45;&gt;Node1</title>
<g id="a_edge1_Node000001_Node000002"><a xlink:title=" ">
<path fill="none" stroke="#63b8ff" d="M82.5,-47.66C82.5,-38.66 82.5,-28.42 82.5,-21.14"/>
<polygon fill="#63b8ff" stroke="#63b8ff" points="79,-47.75 82.5,-57.75 86,-47.75 79,-47.75"/>
</a>
</g>
</g>
<!-- Node3 -->
<g id="Node000003" class="node">
<title>Node3</title>
<g id="a_Node000003"><a xlink:title=" ">
<polygon fill="white" stroke="#666666" points="81,-162.5 16,-162.5 16,-141.5 81,-141.5 81,-162.5"/>
<text text-anchor="middle" x="48.5" y="-148.9" font-family="Helvetica,sans-Serif" font-size="12.00">QObject</text>
</a>
</g>
</g>
<!-- Node3&#45;&gt;Node2 -->
<g id="edge2_Node000002_Node000003" class="edge">
<title>Node3&#45;&gt;Node2</title>
<g id="a_edge2_Node000002_Node000003"><a xlink:title=" ">
<path fill="none" stroke="#63b8ff" d="M56.4,-132.06C63.31,-115.5 73.06,-92.14 78.47,-79.16"/>
<polygon fill="#63b8ff" stroke="#63b8ff" points="53.15,-130.75 52.53,-141.33 59.61,-133.45 53.15,-130.75"/>
</a>
</g>
</g>
<!-- Node4 -->
<g id="Node000004" class="node">
<title>Node4</title>
<g id="a_Node000004"><a xlink:href="class_j_k_q_t_fast_plotter.html" target="_top" xlink:title="a speed optimized plotter class">
<polygon fill="white" stroke="#666666" points="208,-162.5 99,-162.5 99,-141.5 208,-141.5 208,-162.5"/>
<text text-anchor="middle" x="153.5" y="-148.9" font-family="Helvetica,sans-Serif" font-size="12.00">JKQTFastPlotter</text>
</a>
</g>
</g>
<!-- Node4&#45;&gt;Node2 -->
<g id="edge3_Node000002_Node000004" class="edge">
<title>Node4&#45;&gt;Node2</title>
<g id="a_edge3_Node000002_Node000004"><a xlink:title=" ">
<path fill="none" stroke="#9a32cd" stroke-dasharray="5,2" d="M138.21,-133.45C123.73,-116.83 102.54,-92.51 90.91,-79.16"/>
<polygon fill="#9a32cd" stroke="#9a32cd" points="135.87,-136.09 145.08,-141.33 141.15,-131.49 135.87,-136.09"/>
</a>
</g>
<text text-anchor="start" x="124.5" y="-102.9" font-family="Helvetica,sans-Serif" font-size="12.00" fill="grey">parent</text>
</g>
<!-- Node4&#45;&gt;Node4 -->
<g id="edge5_Node000004_Node000004" class="edge">
<title>Node4&#45;&gt;Node4</title>
<g id="a_edge5_Node000004_Node000004"><a xlink:title=" ">
<path fill="none" stroke="#9a32cd" stroke-dasharray="5,2" d="M218.41,-156.98C223.12,-155.86 226,-154.2 226,-152 226,-148.48 218.62,-146.34 208.2,-145.57"/>
<polygon fill="#9a32cd" stroke="#9a32cd" points="217.61,-153.56 208.2,-158.43 218.59,-160.49 217.61,-153.56"/>
</a>
</g>
<text text-anchor="start" x="229.5" y="-157.4" font-family="Helvetica,sans-Serif" font-size="12.00" fill="grey">synchronizeX</text>
<text text-anchor="start" x="229.5" y="-140.4" font-family="Helvetica,sans-Serif" font-size="12.00" fill="grey">synchronizeY</text>
</g>
<!-- Node5 -->
<g id="Node000005" class="node">
<title>Node5</title>
<g id="a_Node000005"><a xlink:title=" ">
<polygon fill="white" stroke="#666666" points="210.5,-228 96.5,-228 96.5,-207 210.5,-207 210.5,-228"/>
<text text-anchor="middle" x="153.5" y="-214.4" font-family="Helvetica,sans-Serif" font-size="12.00">QOpenGLWidget</text>
</a>
</g>
</g>
<!-- Node5&#45;&gt;Node4 -->
<g id="edge4_Node000004_Node000005" class="edge">
<title>Node5&#45;&gt;Node4</title>
<g id="a_edge4_Node000004_Node000005"><a xlink:title=" ">
<path fill="none" stroke="#63b8ff" d="M153.5,-196.61C153.5,-185.33 153.5,-171.72 153.5,-162.74"/>
<polygon fill="#63b8ff" stroke="#63b8ff" points="150,-196.86 153.5,-206.86 157,-196.86 150,-196.86"/>
</a>
</g>
</g>
</g>
</svg>
</svg>

<style type='text/css'>
<![CDATA[
[data-mouse-over-selected='false'] { opacity: 0.7; }
[data-mouse-over-selected='true']  { opacity: 1.0; }
]]>
</style>
<script type="application/ecmascript"><![CDATA[
document.addEventListener('DOMContentLoaded', (event) => {
  highlightEdges();
  highlightAdjacentNodes();
});
]]></script>
</svg>
