<?xml version="1.0" encoding="UTF-8" standalone="no"?>
<!DOCTYPE svg PUBLIC "-//W3C//DTD SVG 1.1//EN"
 "http://www.w3.org/Graphics/SVG/1.1/DTD/svg11.dtd">
<!-- Generated by graphviz version 2.43.0 (0)
 -->
<!-- Title: JKQTPViolinplotHorizontalElement Pages: 1 -->
<svg width="492pt" height="226pt"
 viewBox="0.00 0.00 491.50 226.00" xmlns="http://www.w3.org/2000/svg" xmlns:xlink="http://www.w3.org/1999/xlink">
<g id="graph0" class="graph" transform="scale(1 1) rotate(0) translate(4 222)">
<title>JKQTPViolinplotHorizontalElement</title>
<!-- Node1 -->
<g id="Node000001" class="node">
<title>Node1</title>
<g id="a_Node000001"><a xlink:title="This implements a single horizontal Violin Plot as a &quot;geometric element&quot;.">
<polygon fill="#999999" stroke="#666666" points="229.5,-34 61.5,-34 61.5,0 229.5,0 229.5,-34"/>
<text text-anchor="start" x="69.5" y="-20.4" font-family="Helvetica,sans-Serif" font-size="12.00">JKQTPViolinplotHorizontal</text>
<text text-anchor="middle" x="145.5" y="-7.4" font-family="Helvetica,sans-Serif" font-size="12.00">Element</text>
</a>
</g>
</g>
<!-- Node2 -->
<g id="Node000002" class="node">
<title>Node2</title>
<g id="a_Node000002"><a xlink:href="class_j_k_q_t_p_violinplot_element_base.html" target="_top" xlink:title="This implements a single vertical Violin Plot as a &quot;geometric element&quot;.">
<polygon fill="white" stroke="#666666" points="238.5,-91 52.5,-91 52.5,-70 238.5,-70 238.5,-91"/>
<text text-anchor="middle" x="145.5" y="-77.4" font-family="Helvetica,sans-Serif" font-size="12.00">JKQTPViolinplotElementBase</text>
</a>
</g>
</g>
<!-- Node2&#45;&gt;Node1 -->
<g id="edge1_Node000001_Node000002" class="edge">
<title>Node2&#45;&gt;Node1</title>
<g id="a_edge1_Node000001_Node000002"><a xlink:title=" ">
<path fill="none" stroke="#63b8ff" d="M145.5,-59.77C145.5,-51.61 145.5,-42.26 145.5,-34.48"/>
<polygon fill="#63b8ff" stroke="#63b8ff" points="142,-59.89 145.5,-69.89 149,-59.89 142,-59.89"/>
</a>
</g>
</g>
<!-- Node3 -->
<g id="Node000003" class="node">
<title>Node3</title>
<g id="a_Node000003"><a xlink:href="class_j_k_q_t_p_plot_element.html" target="_top" xlink:title="this virtual base class of every element, which is part of a JKQTPlotter plot and may appear in its k...">
<polygon fill="white" stroke="#666666" points="125,-154.5 0,-154.5 0,-133.5 125,-133.5 125,-154.5"/>
<text text-anchor="middle" x="62.5" y="-140.9" font-family="Helvetica,sans-Serif" font-size="12.00">JKQTPPlotElement</text>
</a>
</g>
</g>
<!-- Node3&#45;&gt;Node2 -->
<g id="edge2_Node000002_Node000003" class="edge">
<title>Node3&#45;&gt;Node2</title>
<g id="a_edge2_Node000002_Node000003"><a xlink:title=" ">
<path fill="none" stroke="#63b8ff" d="M83.89,-127.15C99.31,-115.72 119.62,-100.67 132.62,-91.04"/>
<polygon fill="#63b8ff" stroke="#63b8ff" points="81.42,-124.62 75.47,-133.39 85.59,-130.25 81.42,-124.62"/>
</a>
</g>
</g>
<!-- Node4 -->
<g id="Node000004" class="node">
<title>Node4</title>
<g id="a_Node000004"><a xlink:title=" ">
<polygon fill="white" stroke="#666666" points="95,-218 30,-218 30,-197 95,-197 95,-218"/>
<text text-anchor="middle" x="62.5" y="-204.4" font-family="Helvetica,sans-Serif" font-size="12.00">QObject</text>
</a>
</g>
</g>
<!-- Node4&#45;&gt;Node3 -->
<g id="edge3_Node000003_Node000004" class="edge">
<title>Node4&#45;&gt;Node3</title>
<g id="a_edge3_Node000003_Node000004"><a xlink:title=" ">
<path fill="none" stroke="#63b8ff" d="M62.5,-186.75C62.5,-176.05 62.5,-163.31 62.5,-154.74"/>
<polygon fill="#63b8ff" stroke="#63b8ff" points="59,-186.89 62.5,-196.89 66,-186.89 59,-186.89"/>
</a>
</g>
</g>
<!-- Node5 -->
<g id="Node000005" class="node">
<title>Node5</title>
<g id="a_Node000005"><a xlink:href="class_j_k_q_t_p_graph_violinplot_style_mixin.html" target="_top" xlink:title="Styling Mix&#45;In for Violinplots.">
<polygon fill="white" stroke="#666666" points="316,-161 143,-161 143,-127 316,-127 316,-161"/>
<text text-anchor="start" x="151" y="-147.4" font-family="Helvetica,sans-Serif" font-size="12.00">JKQTPGraphViolinplotStyle</text>
<text text-anchor="middle" x="229.5" y="-134.4" font-family="Helvetica,sans-Serif" font-size="12.00">Mixin</text>
</a>
</g>
</g>
<!-- Node5&#45;&gt;Node2 -->
<g id="edge4_Node000002_Node000005" class="edge">
<title>Node5&#45;&gt;Node2</title>
<g id="a_edge4_Node000002_Node000005"><a xlink:title=" ">
<path fill="none" stroke="#63b8ff" d="M199.05,-120.71C185.11,-110.5 169.33,-98.95 158.53,-91.04"/>
<polygon fill="#63b8ff" stroke="#63b8ff" points="197.29,-123.76 207.43,-126.84 201.43,-118.11 197.29,-123.76"/>
</a>
</g>
</g>
<!-- Node6 -->
<g id="Node000006" class="node">
<title>Node6</title>
<g id="a_Node000006"><a xlink:href="class_j_k_q_t_p_graph_line_style_mixin.html" target="_top" xlink:title="This Mix&#45;In class provides setter/getter methods, storage and other facilities for the graph line sty...">
<polygon fill="white" stroke="#666666" points="301.5,-218 127.5,-218 127.5,-197 301.5,-197 301.5,-218"/>
<text text-anchor="middle" x="214.5" y="-204.4" font-family="Helvetica,sans-Serif" font-size="12.00">JKQTPGraphLineStyleMixin</text>
</a>
</g>
</g>
<!-- Node6&#45;&gt;Node5 -->
<g id="edge5_Node000005_Node000006" class="edge">
<title>Node6&#45;&gt;Node5</title>
<g id="a_edge5_Node000005_Node000006"><a xlink:title=" ">
<path fill="none" stroke="#63b8ff" d="M219.25,-187.04C221.25,-178.82 223.56,-169.35 225.48,-161.48"/>
<polygon fill="#63b8ff" stroke="#63b8ff" points="215.81,-186.35 216.84,-196.89 222.61,-188 215.81,-186.35"/>
</a>
</g>
</g>
<!-- Node7 -->
<g id="Node000007" class="node">
<title>Node7</title>
<g id="a_Node000007"><a xlink:href="class_j_k_q_t_p_graph_fill_style_mixin.html" target="_top" xlink:title="This Mix&#45;In class provides setter/getter methods, storage and other facilities for the graph filling ...">
<polygon fill="white" stroke="#666666" points="483.5,-218 319.5,-218 319.5,-197 483.5,-197 483.5,-218"/>
<text text-anchor="middle" x="401.5" y="-204.4" font-family="Helvetica,sans-Serif" font-size="12.00">JKQTPGraphFillStyleMixin</text>
</a>
</g>
</g>
<!-- Node7&#45;&gt;Node5 -->
<g id="edge6_Node000005_Node000007" class="edge">
<title>Node7&#45;&gt;Node5</title>
<g id="a_edge6_Node000005_Node000007"><a xlink:title=" ">
<path fill="none" stroke="#63b8ff" d="M365,-193.45C338.6,-184.01 302.77,-171.2 274.58,-161.12"/>
<polygon fill="#63b8ff" stroke="#63b8ff" points="364.03,-196.82 374.62,-196.89 366.39,-190.23 364.03,-196.82"/>
</a>
</g>
</g>
</g>
</svg>
