<?xml version="1.0" encoding="UTF-8" standalone="no"?>
<!DOCTYPE svg PUBLIC "-//W3C//DTD SVG 1.1//EN"
 "http://www.w3.org/Graphics/SVG/1.1/DTD/svg11.dtd">
<!-- Generated by graphviz version 2.43.0 (0)
 -->
<!-- Title: JKQTFPYRangePlot Pages: 1 -->
<svg width="135pt" height="143pt"
 viewBox="0.00 0.00 135.00 143.00" xmlns="http://www.w3.org/2000/svg" xmlns:xlink="http://www.w3.org/1999/xlink">
<g id="graph0" class="graph" transform="scale(1 1) rotate(0) translate(4 139)">
<title>JKQTFPYRangePlot</title>
<!-- Node1 -->
<g id="Node000001" class="node">
<title>Node1</title>
<g id="a_Node000001"><a xlink:title="plot a range of x values">
<polygon fill="#999999" stroke="#666666" points="127,-21 0,-21 0,0 127,0 127,-21"/>
<text text-anchor="middle" x="63.5" y="-7.4" font-family="Helvetica,sans-Serif" font-size="12.00">JKQTFPYRangePlot</text>
</a>
</g>
</g>
<!-- Node2 -->
<g id="Node000002" class="node">
<title>Node2</title>
<g id="a_Node000002"><a xlink:href="class_j_k_q_t_f_p_plot.html" target="_top" xlink:title="base class for all plots that may be plotted by JKQTFastPlotter">
<polygon fill="white" stroke="#666666" points="104.5,-78 22.5,-78 22.5,-57 104.5,-57 104.5,-78"/>
<text text-anchor="middle" x="63.5" y="-64.4" font-family="Helvetica,sans-Serif" font-size="12.00">JKQTFPPlot</text>
</a>
</g>
</g>
<!-- Node2&#45;&gt;Node1 -->
<g id="edge1_Node000001_Node000002" class="edge">
<title>Node2&#45;&gt;Node1</title>
<g id="a_edge1_Node000001_Node000002"><a xlink:title=" ">
<path fill="none" stroke="#63b8ff" d="M63.5,-46.86C63.5,-38.2 63.5,-28.42 63.5,-21.34"/>
<polygon fill="#63b8ff" stroke="#63b8ff" points="60,-46.92 63.5,-56.92 67,-46.92 60,-46.92"/>
</a>
</g>
</g>
<!-- Node3 -->
<g id="Node000003" class="node">
<title>Node3</title>
<g id="a_Node000003"><a xlink:title=" ">
<polygon fill="white" stroke="#666666" points="96,-135 31,-135 31,-114 96,-114 96,-135"/>
<text text-anchor="middle" x="63.5" y="-121.4" font-family="Helvetica,sans-Serif" font-size="12.00">QObject</text>
</a>
</g>
</g>
<!-- Node3&#45;&gt;Node2 -->
<g id="edge2_Node000002_Node000003" class="edge">
<title>Node3&#45;&gt;Node2</title>
<g id="a_edge2_Node000002_Node000003"><a xlink:title=" ">
<path fill="none" stroke="#63b8ff" d="M63.5,-103.86C63.5,-95.2 63.5,-85.42 63.5,-78.34"/>
<polygon fill="#63b8ff" stroke="#63b8ff" points="60,-103.92 63.5,-113.92 67,-103.92 60,-103.92"/>
</a>
</g>
</g>
</g>
</svg>
