<?xml version="1.0" encoding="UTF-8" standalone="no"?>
<!DOCTYPE svg PUBLIC "-//W3C//DTD SVG 1.1//EN"
 "http://www.w3.org/Graphics/SVG/1.1/DTD/svg11.dtd">
<!-- Generated by graphviz version 2.43.0 (0)
 -->
<!-- Title: JKQTMathTextInstruction1Node Pages: 1 -->
<svg width="861pt" height="121pt"
 viewBox="0.00 0.00 861.00 121.00" xmlns="http://www.w3.org/2000/svg" xmlns:xlink="http://www.w3.org/1999/xlink">
<g id="graph0" class="graph" transform="scale(1 1) rotate(0) translate(4 117)">
<title>JKQTMathTextInstruction1Node</title>
<!-- Node1 -->
<g id="Node000001" class="node">
<title>Node1</title>
<g id="a_Node000001"><a xlink:title="subclass representing an instruction node with exactly one argument and possibly additional parameter...">
<polygon fill="#999999" stroke="#666666" points="601,-67 399,-67 399,-46 601,-46 601,-67"/>
<text text-anchor="middle" x="500" y="-53.4" font-family="Helvetica,sans-Serif" font-size="12.00">JKQTMathTextInstruction1Node</text>
</a>
</g>
</g>
<!-- Node4 -->
<g id="Node000004" class="node">
<title>Node4</title>
<g id="a_Node000004"><a xlink:href="class_j_k_q_t_math_text_box_instruction_node.html" target="_top" xlink:title="subclass representing an instruction node which draws a (possibly colored) box around it&#39;s contents i...">
<polygon fill="white" stroke="#666666" points="853,-113 637,-113 637,-92 853,-92 853,-113"/>
<text text-anchor="middle" x="745" y="-99.4" font-family="Helvetica,sans-Serif" font-size="12.00">JKQTMathTextBoxInstructionNode</text>
</a>
</g>
</g>
<!-- Node1&#45;&gt;Node4 -->
<g id="edge3_Node000001_Node000004" class="edge">
<title>Node1&#45;&gt;Node4</title>
<g id="a_edge3_Node000001_Node000004"><a xlink:title=" ">
<path fill="none" stroke="#63b8ff" d="M566.02,-68.99C588.5,-73.29 613.85,-78.12 637,-82.5 653.34,-85.59 671.09,-88.92 687.35,-91.96"/>
<polygon fill="#63b8ff" stroke="#63b8ff" points="566.39,-65.49 555.91,-67.05 565.08,-72.37 566.39,-65.49"/>
</a>
</g>
</g>
<!-- Node5 -->
<g id="Node000005" class="node">
<title>Node5</title>
<g id="a_Node000005"><a xlink:href="class_j_k_q_t_math_text_modified_text_props_instruction_node.html" target="_top" xlink:title="subclass representing an instruction node which modifies the current font (as defined in JKQTMathText...">
<polygon fill="white" stroke="#666666" points="832,-73.5 658,-73.5 658,-39.5 832,-39.5 832,-73.5"/>
<text text-anchor="start" x="666" y="-59.9" font-family="Helvetica,sans-Serif" font-size="12.00">JKQTMathTextModifiedText</text>
<text text-anchor="middle" x="745" y="-46.9" font-family="Helvetica,sans-Serif" font-size="12.00">PropsInstructionNode</text>
</a>
</g>
</g>
<!-- Node1&#45;&gt;Node5 -->
<g id="edge4_Node000001_Node000005" class="edge">
<title>Node1&#45;&gt;Node5</title>
<g id="a_edge4_Node000001_Node000005"><a xlink:title=" ">
<path fill="none" stroke="#63b8ff" d="M611.45,-56.5C627.05,-56.5 642.89,-56.5 657.94,-56.5"/>
<polygon fill="#63b8ff" stroke="#63b8ff" points="611.24,-53 601.24,-56.5 611.24,-60 611.24,-53"/>
</a>
</g>
</g>
<!-- Node6 -->
<g id="Node000006" class="node">
<title>Node6</title>
<g id="a_Node000006"><a xlink:href="class_j_k_q_t_math_text_phantom_node.html" target="_top" xlink:title="generates whitespace with the size of the contained node">
<polygon fill="white" stroke="#666666" points="837.5,-21 652.5,-21 652.5,0 837.5,0 837.5,-21"/>
<text text-anchor="middle" x="745" y="-7.4" font-family="Helvetica,sans-Serif" font-size="12.00">JKQTMathTextPhantomNode</text>
</a>
</g>
</g>
<!-- Node1&#45;&gt;Node6 -->
<g id="edge5_Node000001_Node000006" class="edge">
<title>Node1&#45;&gt;Node6</title>
<g id="a_edge5_Node000001_Node000006"><a xlink:title=" ">
<path fill="none" stroke="#63b8ff" d="M566.02,-44.01C588.5,-39.71 613.85,-34.88 637,-30.5 653.34,-27.41 671.09,-24.08 687.35,-21.04"/>
<polygon fill="#63b8ff" stroke="#63b8ff" points="565.08,-40.63 555.91,-45.95 566.39,-47.51 565.08,-40.63"/>
</a>
</g>
</g>
<!-- Node2 -->
<g id="Node000002" class="node">
<title>Node2</title>
<g id="a_Node000002"><a xlink:href="class_j_k_q_t_math_text_single_child_node.html" target="_top" xlink:title="subclass representing a node in the syntax tree, that has one child">
<polygon fill="white" stroke="#666666" points="363,-67 167,-67 167,-46 363,-46 363,-67"/>
<text text-anchor="middle" x="265" y="-53.4" font-family="Helvetica,sans-Serif" font-size="12.00">JKQTMathTextSingleChildNode</text>
</a>
</g>
</g>
<!-- Node2&#45;&gt;Node1 -->
<g id="edge1_Node000001_Node000002" class="edge">
<title>Node2&#45;&gt;Node1</title>
<g id="a_edge1_Node000001_Node000002"><a xlink:title=" ">
<path fill="none" stroke="#63b8ff" d="M373.36,-56.5C381.79,-56.5 390.28,-56.5 398.65,-56.5"/>
<polygon fill="#63b8ff" stroke="#63b8ff" points="373.13,-53 363.13,-56.5 373.13,-60 373.13,-53"/>
</a>
</g>
</g>
<!-- Node3 -->
<g id="Node000003" class="node">
<title>Node3</title>
<g id="a_Node000003"><a xlink:href="class_j_k_q_t_math_text_node.html" target="_top" xlink:title="subclass representing one node in the syntax tree">
<polygon fill="white" stroke="#666666" points="131,-67 0,-67 0,-46 131,-46 131,-67"/>
<text text-anchor="middle" x="65.5" y="-53.4" font-family="Helvetica,sans-Serif" font-size="12.00">JKQTMathTextNode</text>
</a>
</g>
</g>
<!-- Node3&#45;&gt;Node2 -->
<g id="edge2_Node000002_Node000003" class="edge">
<title>Node3&#45;&gt;Node2</title>
<g id="a_edge2_Node000002_Node000003"><a xlink:title=" ">
<path fill="none" stroke="#63b8ff" d="M141.28,-56.5C149.68,-56.5 158.33,-56.5 166.96,-56.5"/>
<polygon fill="#63b8ff" stroke="#63b8ff" points="141.17,-53 131.17,-56.5 141.17,-60 141.17,-53"/>
</a>
</g>
</g>
</g>
</svg>
