<?xml version="1.0" encoding="UTF-8" standalone="no"?>
<!DOCTYPE svg PUBLIC "-//W3C//DTD SVG 1.1//EN"
 "http://www.w3.org/Graphics/SVG/1.1/DTD/svg11.dtd">
<!-- Generated by graphviz version 2.43.0 (0)
 -->
<!-- Title: JKQTPColumnConstIterator Pages: 1 -->
<svg width="527pt" height="257pt"
 viewBox="0.00 0.00 527.00 257.00" xmlns="http://www.w3.org/2000/svg" xmlns:xlink="http://www.w3.org/1999/xlink">
<g id="graph0" class="graph" transform="scale(1 1) rotate(0) translate(4 253)">
<title>JKQTPColumnConstIterator</title>
<!-- Node1 -->
<g id="Node000001" class="node">
<title>Node1</title>
<g id="a_Node000001"><a xlink:title="iterator over the data in the column of a JKQTPDatastore">
<polygon fill="#999999" stroke="#666666" points="178,-97 0,-97 0,-76 178,-76 178,-97"/>
<text text-anchor="middle" x="89" y="-83.4" font-family="Helvetica,sans-Serif" font-size="12.00">JKQTPColumnConstIterator</text>
</a>
</g>
</g>
<!-- Node2 -->
<g id="Node000002" class="node">
<title>Node2</title>
<g id="a_Node000002"><a xlink:href="class_j_k_q_t_p_column.html" target="_top" xlink:title="internally stores information about one data column. See JKQTPDatastore for more information.">
<polygon fill="white" stroke="#666666" points="263,-173 165,-173 165,-152 263,-152 263,-173"/>
<text text-anchor="middle" x="214" y="-159.4" font-family="Helvetica,sans-Serif" font-size="12.00">JKQTPColumn</text>
</a>
</g>
</g>
<!-- Node2&#45;&gt;Node1 -->
<g id="edge1_Node000001_Node000002" class="edge">
<title>Node2&#45;&gt;Node1</title>
<g id="a_edge1_Node000001_Node000002"><a xlink:title=" ">
<path fill="none" stroke="#9a32cd" stroke-dasharray="5,2" d="M189.07,-146.74C164.21,-132.03 126.76,-109.85 105.42,-97.22"/>
<polygon fill="#9a32cd" stroke="#9a32cd" points="187.53,-149.89 197.91,-151.98 191.09,-143.87 187.53,-149.89"/>
</a>
</g>
<text text-anchor="start" x="170" y="-120.9" font-family="Helvetica,sans-Serif" font-size="12.00" fill="grey">col_</text>
</g>
<!-- Node4 -->
<g id="Node000004" class="node">
<title>Node4</title>
<g id="a_Node000004"><a xlink:title=" ">
<polygon fill="white" stroke="#666666" points="511.5,-97 296.5,-97 296.5,-76 511.5,-76 511.5,-97"/>
<text text-anchor="middle" x="404" y="-83.4" font-family="Helvetica,sans-Serif" font-size="12.00">std::unique_ptr&lt; JKQTPColumn &gt;</text>
</a>
</g>
</g>
<!-- Node2&#45;&gt;Node4 -->
<g id="edge4_Node000004_Node000002" class="edge">
<title>Node2&#45;&gt;Node4</title>
<g id="a_edge4_Node000004_Node000002"><a xlink:title=" ">
<path fill="none" stroke="#9a32cd" stroke-dasharray="5,2" d="M248.01,-148.26C285.78,-133.54 345.84,-110.15 379.34,-97.1"/>
<polygon fill="#9a32cd" stroke="#9a32cd" points="246.5,-145.09 238.45,-151.98 249.04,-151.61 246.5,-145.09"/>
</a>
</g>
<text text-anchor="start" x="335" y="-120.9" font-family="Helvetica,sans-Serif" font-size="12.00" fill="grey">ptr</text>
</g>
<!-- Node3 -->
<g id="Node000003" class="node">
<title>Node3</title>
<g id="a_Node000003"><a xlink:href="class_j_k_q_t_p_datastore.html" target="_top" xlink:title="This class manages data columns (with entries of type double ), used by JKQTPlotter/JKQTBasePlotter t...">
<polygon fill="white" stroke="#666666" points="285.5,-21 174.5,-21 174.5,0 285.5,0 285.5,-21"/>
<text text-anchor="middle" x="230" y="-7.4" font-family="Helvetica,sans-Serif" font-size="12.00">JKQTPDatastore</text>
</a>
</g>
</g>
<!-- Node3&#45;&gt;Node2 -->
<g id="edge2_Node000002_Node000003" class="edge">
<title>Node3&#45;&gt;Node2</title>
<g id="a_edge2_Node000002_Node000003"><a xlink:title=" ">
<path fill="none" stroke="#9a32cd" stroke-dasharray="5,2" d="M227.86,-31.09C226.46,-43.88 224.61,-60.93 223,-76 220.07,-103.46 216.67,-135.88 215.02,-151.75"/>
<polygon fill="#9a32cd" stroke="#9a32cd" points="231.34,-31.44 228.95,-21.12 224.38,-30.68 231.34,-31.44"/>
</a>
</g>
<text text-anchor="start" x="226" y="-82.9" font-family="Helvetica,sans-Serif" font-size="12.00" fill="grey">datastore</text>
</g>
<!-- Node4&#45;&gt;Node3 -->
<g id="edge3_Node000003_Node000004" class="edge">
<title>Node4&#45;&gt;Node3</title>
<g id="a_edge3_Node000003_Node000004"><a xlink:title=" ">
<path fill="none" stroke="#9a32cd" stroke-dasharray="5,2" d="M371.97,-71.88C337.33,-57.15 283.01,-34.04 252.58,-21.1"/>
<polygon fill="#9a32cd" stroke="#9a32cd" points="371.04,-75.28 381.61,-75.98 373.78,-68.84 371.04,-75.28"/>
</a>
</g>
<text text-anchor="start" x="341.5" y="-44.9" font-family="Helvetica,sans-Serif" font-size="12.00" fill="grey">m_invalidColumn</text>
</g>
<!-- Node5 -->
<g id="Node000005" class="node">
<title>Node5</title>
<g id="a_Node000005"><a xlink:title=" ">
<polygon fill="white" stroke="#666666" points="474,-173 334,-173 334,-152 474,-152 474,-173"/>
<text text-anchor="middle" x="404" y="-159.4" font-family="Helvetica,sans-Serif" font-size="12.00">std::unique_ptr&lt; T &gt;</text>
</a>
</g>
</g>
<!-- Node5&#45;&gt;Node4 -->
<g id="edge5_Node000004_Node000005" class="edge">
<title>Node5&#45;&gt;Node4</title>
<g id="a_edge5_Node000004_Node000005"><a xlink:title=" ">
<path fill="none" stroke="orange" stroke-dasharray="5,2" d="M404,-141.53C404,-127.25 404,-108.65 404,-97.41"/>
<polygon fill="orange" stroke="orange" points="400.5,-141.83 404,-151.83 407.5,-141.83 400.5,-141.83"/>
</a>
</g>
<text text-anchor="start" x="407.5" y="-120.9" font-family="Helvetica,sans-Serif" font-size="12.00" fill="grey">&lt; JKQTPColumn &gt;</text>
</g>
<!-- Node6 -->
<g id="Node000006" class="node">
<title>Node6</title>
<g id="a_Node000006"><a xlink:title=" ">
<polygon fill="white" stroke="#666666" points="418.5,-249 389.5,-249 389.5,-228 418.5,-228 418.5,-249"/>
<text text-anchor="middle" x="404" y="-235.4" font-family="Helvetica,sans-Serif" font-size="12.00">T</text>
</a>
</g>
</g>
<!-- Node6&#45;&gt;Node5 -->
<g id="edge6_Node000005_Node000006" class="edge">
<title>Node6&#45;&gt;Node5</title>
<g id="a_edge6_Node000005_Node000006"><a xlink:title=" ">
<path fill="none" stroke="#9a32cd" stroke-dasharray="5,2" d="M404,-217.53C404,-203.25 404,-184.65 404,-173.41"/>
<polygon fill="#9a32cd" stroke="#9a32cd" points="400.5,-217.83 404,-227.83 407.5,-217.83 400.5,-217.83"/>
</a>
</g>
<text text-anchor="start" x="407" y="-196.9" font-family="Helvetica,sans-Serif" font-size="12.00" fill="grey">ptr</text>
</g>
</g>
</svg>
