<?xml version="1.0" encoding="UTF-8" standalone="no"?>
<!DOCTYPE svg PUBLIC "-//W3C//DTD SVG 1.1//EN"
 "http://www.w3.org/Graphics/SVG/1.1/DTD/svg11.dtd">
<!-- Generated by graphviz version 2.43.0 (0)
 -->
<!-- Title: JKQTMathTextEmptyBoxNode Pages: 1 -->
<svg width="485pt" height="105pt"
 viewBox="0.00 0.00 484.50 105.00" xmlns="http://www.w3.org/2000/svg" xmlns:xlink="http://www.w3.org/1999/xlink">

<svg id="main" version="1.1" xmlns="http://www.w3.org/2000/svg" xmlns:xlink="http://www.w3.org/1999/xlink" xml:space="preserve">

<style type="text/css"><![CDATA[
.node, .edge {opacity: 0.7;}
.node.selected, .edge.selected {opacity: 1;}
.edge:hover path { stroke: red; }
.edge:hover polygon { stroke: red; fill: red; }
]]></style>
<script type="application/ecmascript" xlink:href="svg.min.js"/>
<svg id="graph" class="graph">
<g id="graph0" class="graph" transform="scale(1 1) rotate(0) translate(4 101)">
<title>JKQTMathTextEmptyBoxNode</title>
<!-- Node1 -->
<g id="Node000001" class="node">
<title>Node1</title>
<g id="a_Node000001"><a xlink:title="subclass representing an empty bbox with defined width/height in the syntax tree">
<polygon fill="#999999" stroke="#666666" points="191,-21 0,-21 0,0 191,0 191,-21"/>
<text text-anchor="middle" x="95.5" y="-7.4" font-family="Helvetica,sans-Serif" font-size="12.00">JKQTMathTextEmptyBoxNode</text>
</a>
</g>
</g>
<!-- Node2 -->
<g id="Node000002" class="node">
<title>Node2</title>
<g id="a_Node000002"><a xlink:href="class_j_k_q_t_math_text_node.html" target="_top" xlink:title="subclass representing one node in the syntax tree">
<polygon fill="white" stroke="#666666" points="194,-97 63,-97 63,-76 194,-76 194,-97"/>
<text text-anchor="middle" x="128.5" y="-83.4" font-family="Helvetica,sans-Serif" font-size="12.00">JKQTMathTextNode</text>
</a>
</g>
</g>
<!-- Node2&#45;&gt;Node1 -->
<g id="edge1_Node000001_Node000002" class="edge">
<title>Node2&#45;&gt;Node1</title>
<g id="a_edge1_Node000001_Node000002"><a xlink:title=" ">
<path fill="none" stroke="#63b8ff" d="M114.8,-67.34C112.86,-64.31 111.01,-61.14 109.5,-58 103.65,-45.84 99.64,-30.72 97.46,-21.08"/>
<polygon fill="#63b8ff" stroke="#63b8ff" points="112.08,-69.57 120.67,-75.78 117.83,-65.57 112.08,-69.57"/>
</a>
</g>
</g>
<!-- Node2&#45;&gt;Node2 -->
<g id="edge6_Node000002_Node000002" class="edge">
<title>Node2&#45;&gt;Node2</title>
<g id="a_edge6_Node000002_Node000002"><a xlink:title=" ">
<path fill="none" stroke="#9a32cd" stroke-dasharray="5,2" d="M204.52,-91.46C209.19,-90.29 212,-88.63 212,-86.5 212,-83.09 204.81,-80.9 194.31,-79.94"/>
<polygon fill="#9a32cd" stroke="#9a32cd" points="203.65,-88.06 194.31,-93.06 204.73,-94.97 203.65,-88.06"/>
</a>
</g>
<text text-anchor="start" x="215.5" y="-82.9" font-family="Helvetica,sans-Serif" font-size="12.00" fill="grey">parentNode</text>
</g>
<!-- Node3 -->
<g id="Node000003" class="node">
<title>Node3</title>
<g id="a_Node000003"><a xlink:href="class_j_k_q_t_math_text.html" target="_top" xlink:title="this class parses a mathematical markup string and can then draw the contained text/equation onto a Q...">
<polygon fill="white" stroke="#666666" points="351,-21 252,-21 252,0 351,0 351,-21"/>
<text text-anchor="middle" x="301.5" y="-7.4" font-family="Helvetica,sans-Serif" font-size="12.00">JKQTMathText</text>
</a>
</g>
</g>
<!-- Node2&#45;&gt;Node3 -->
<g id="edge4_Node000003_Node000002" class="edge">
<title>Node2&#45;&gt;Node3</title>
<g id="a_edge4_Node000003_Node000002"><a xlink:title=" ">
<path fill="none" stroke="#9a32cd" stroke-dasharray="5,2" d="M121.41,-65.82C119.45,-56.68 119.3,-46.24 125.5,-39 133.69,-29.43 202.81,-20.89 251.94,-15.96"/>
<polygon fill="#9a32cd" stroke="#9a32cd" points="118.13,-67.08 124.27,-75.71 124.85,-65.13 118.13,-67.08"/>
</a>
</g>
<text text-anchor="start" x="129" y="-44.9" font-family="Helvetica,sans-Serif" font-size="12.00" fill="grey">parsedNode</text>
</g>
<!-- Node3&#45;&gt;Node2 -->
<g id="edge2_Node000002_Node000003" class="edge">
<title>Node3&#45;&gt;Node2</title>
<g id="a_edge2_Node000002_Node000003"><a xlink:title=" ">
<path fill="none" stroke="#9a32cd" stroke-dasharray="5,2" d="M256.99,-24.51C246.9,-28.41 236.5,-33.22 227.5,-39 217.45,-45.45 218.63,-51.67 208.5,-58 196.04,-65.78 181.11,-71.68 167.54,-75.98"/>
<polygon fill="#9a32cd" stroke="#9a32cd" points="258.32,-27.76 266.53,-21.06 255.93,-21.17 258.32,-27.76"/>
</a>
</g>
<text text-anchor="start" x="230.5" y="-44.9" font-family="Helvetica,sans-Serif" font-size="12.00" fill="grey">parentMathText</text>
</g>
<!-- Node4 -->
<g id="Node000004" class="node">
<title>Node4</title>
<g id="a_Node000004"><a xlink:title=" ">
<polygon fill="white" stroke="#666666" points="378,-97 313,-97 313,-76 378,-76 378,-97"/>
<text text-anchor="middle" x="345.5" y="-83.4" font-family="Helvetica,sans-Serif" font-size="12.00">QObject</text>
</a>
</g>
</g>
<!-- Node4&#45;&gt;Node3 -->
<g id="edge3_Node000003_Node000004" class="edge">
<title>Node4&#45;&gt;Node3</title>
<g id="a_edge3_Node000003_Node000004"><a xlink:title=" ">
<path fill="none" stroke="#63b8ff" d="M342.07,-65.94C339.94,-57.23 336.61,-47.13 331.5,-39 327.22,-32.18 320.8,-25.98 315,-21.2"/>
<polygon fill="#63b8ff" stroke="#63b8ff" points="338.69,-66.9 344.16,-75.97 345.54,-65.47 338.69,-66.9"/>
</a>
</g>
</g>
<!-- Node5 -->
<g id="Node000005" class="node">
<title>Node5</title>
<g id="a_Node000005"><a xlink:title=" ">
<polygon fill="white" stroke="#666666" points="476.5,-97 396.5,-97 396.5,-76 476.5,-76 476.5,-97"/>
<text text-anchor="middle" x="436.5" y="-83.4" font-family="Helvetica,sans-Serif" font-size="12.00">std::mutex</text>
</a>
</g>
</g>
<!-- Node5&#45;&gt;Node3 -->
<g id="edge5_Node000003_Node000005" class="edge">
<title>Node5&#45;&gt;Node3</title>
<g id="a_edge5_Node000003_Node000005"><a xlink:title=" ">
<path fill="none" stroke="#9a32cd" stroke-dasharray="5,2" d="M410.28,-71.13C383.44,-56.42 342.48,-33.96 319.23,-21.22"/>
<polygon fill="#9a32cd" stroke="#9a32cd" points="408.68,-74.24 419.13,-75.98 412.04,-68.1 408.68,-74.24"/>
</a>
</g>
<text text-anchor="start" x="388" y="-44.9" font-family="Helvetica,sans-Serif" font-size="12.00" fill="grey">s_mutex</text>
</g>
</g>
</svg>
</svg>

<style type='text/css'>
<![CDATA[
[data-mouse-over-selected='false'] { opacity: 0.7; }
[data-mouse-over-selected='true']  { opacity: 1.0; }
]]>
</style>
<script type="application/ecmascript"><![CDATA[
document.addEventListener('DOMContentLoaded', (event) => {
  highlightEdges();
  highlightAdjacentNodes();
});
]]></script>
</svg>
