<?xml version="1.0" encoding="UTF-8" standalone="no"?>
<!DOCTYPE svg PUBLIC "-//W3C//DTD SVG 1.1//EN"
 "http://www.w3.org/Graphics/SVG/1.1/DTD/svg11.dtd">
<!-- Generated by graphviz version 2.43.0 (0)
 -->
<!-- Title: JKQTMathTextInstruction1Node Pages: 1 -->
<svg width="524pt" height="163pt"
 viewBox="0.00 0.00 524.00 163.00" xmlns="http://www.w3.org/2000/svg" xmlns:xlink="http://www.w3.org/1999/xlink">
<g id="graph0" class="graph" transform="scale(1 1) rotate(0) translate(4 159)">
<title>JKQTMathTextInstruction1Node</title>
<!-- Node1 -->
<g id="Node000001" class="node">
<title>Node1</title>
<g id="a_Node000001"><a xlink:title="subclass representing an instruction node with exactly one argument and possibly additional parameter...">
<polygon fill="#999999" stroke="#666666" points="202,-21 0,-21 0,0 202,0 202,-21"/>
<text text-anchor="middle" x="101" y="-7.4" font-family="Helvetica,sans-Serif" font-size="12.00">JKQTMathTextInstruction1Node</text>
</a>
</g>
</g>
<!-- Node2 -->
<g id="Node000002" class="node">
<title>Node2</title>
<g id="a_Node000002"><a xlink:href="class_j_k_q_t_math_text_single_child_node.html" target="_top" xlink:title="subclass representing a node in the syntax tree, that has one child">
<polygon fill="white" stroke="#666666" points="199,-79 3,-79 3,-58 199,-58 199,-79"/>
<text text-anchor="middle" x="101" y="-65.4" font-family="Helvetica,sans-Serif" font-size="12.00">JKQTMathTextSingleChildNode</text>
</a>
</g>
</g>
<!-- Node2&#45;&gt;Node1 -->
<g id="edge1_Node000001_Node000002" class="edge">
<title>Node2&#45;&gt;Node1</title>
<g id="a_edge1_Node000001_Node000002"><a xlink:title=" ">
<path fill="none" stroke="#63b8ff" d="M101,-47.66C101,-38.66 101,-28.42 101,-21.14"/>
<polygon fill="#63b8ff" stroke="#63b8ff" points="97.5,-47.75 101,-57.75 104.5,-47.75 97.5,-47.75"/>
</a>
</g>
</g>
<!-- Node3 -->
<g id="Node000003" class="node">
<title>Node3</title>
<g id="a_Node000003"><a xlink:href="class_j_k_q_t_math_text_node.html" target="_top" xlink:title="subclass representing one node in the syntax tree">
<polygon fill="white" stroke="#666666" points="205.5,-155 74.5,-155 74.5,-134 205.5,-134 205.5,-155"/>
<text text-anchor="middle" x="140" y="-141.4" font-family="Helvetica,sans-Serif" font-size="12.00">JKQTMathTextNode</text>
</a>
</g>
</g>
<!-- Node3&#45;&gt;Node2 -->
<g id="edge2_Node000002_Node000003" class="edge">
<title>Node3&#45;&gt;Node2</title>
<g id="a_edge2_Node000002_Node000003"><a xlink:title=" ">
<path fill="none" stroke="#63b8ff" d="M103.61,-128.48C98.97,-125.06 94.86,-120.93 92,-116 85.32,-104.47 90.7,-88.92 95.55,-79.04"/>
<polygon fill="#63b8ff" stroke="#63b8ff" points="102.01,-131.61 112.35,-133.92 105.71,-125.67 102.01,-131.61"/>
</a>
</g>
</g>
<!-- Node3&#45;&gt;Node2 -->
<g id="edge8_Node000002_Node000003" class="edge">
<title>Node3&#45;&gt;Node2</title>
<g id="a_edge8_Node000002_Node000003"><a xlink:title=" ">
<path fill="none" stroke="#9a32cd" stroke-dasharray="5,2" d="M120.17,-126.9C117.07,-123.56 114.18,-119.87 112,-116 105.48,-104.44 102.81,-89.16 101.73,-79.34"/>
<polygon fill="#9a32cd" stroke="#9a32cd" points="117.89,-129.57 127.52,-134 122.76,-124.54 117.89,-129.57"/>
</a>
</g>
<text text-anchor="start" x="115" y="-102.9" font-family="Helvetica,sans-Serif" font-size="12.00" fill="grey">child</text>
</g>
<!-- Node3&#45;&gt;Node3 -->
<g id="edge7_Node000003_Node000003" class="edge">
<title>Node3&#45;&gt;Node3</title>
<g id="a_edge7_Node000003_Node000003"><a xlink:title=" ">
<path fill="none" stroke="#9a32cd" stroke-dasharray="5,2" d="M216.02,-149.46C220.69,-148.29 223.5,-146.63 223.5,-144.5 223.5,-141.09 216.31,-138.9 205.81,-137.94"/>
<polygon fill="#9a32cd" stroke="#9a32cd" points="215.15,-146.06 205.81,-151.06 216.23,-152.97 215.15,-146.06"/>
</a>
</g>
<text text-anchor="start" x="227" y="-140.9" font-family="Helvetica,sans-Serif" font-size="12.00" fill="grey">parentNode</text>
</g>
<!-- Node4 -->
<g id="Node000004" class="node">
<title>Node4</title>
<g id="a_Node000004"><a xlink:href="class_j_k_q_t_math_text.html" target="_top" xlink:title="this class parses a mathematical markup string and can then draw the contained text/equation onto a Q...">
<polygon fill="white" stroke="#666666" points="329.5,-79 230.5,-79 230.5,-58 329.5,-58 329.5,-79"/>
<text text-anchor="middle" x="280" y="-65.4" font-family="Helvetica,sans-Serif" font-size="12.00">JKQTMathText</text>
</a>
</g>
</g>
<!-- Node3&#45;&gt;Node4 -->
<g id="edge5_Node000004_Node000003" class="edge">
<title>Node3&#45;&gt;Node4</title>
<g id="a_edge5_Node000004_Node000003"><a xlink:title=" ">
<path fill="none" stroke="#9a32cd" stroke-dasharray="5,2" d="M146.1,-124.2C150.06,-114.69 156.15,-103.82 165,-97 175.41,-88.99 204.16,-82.11 230.31,-77.24"/>
<polygon fill="#9a32cd" stroke="#9a32cd" points="142.76,-123.15 142.63,-133.74 149.34,-125.54 142.76,-123.15"/>
</a>
</g>
<text text-anchor="start" x="168.5" y="-102.9" font-family="Helvetica,sans-Serif" font-size="12.00" fill="grey">parsedNode</text>
</g>
<!-- Node4&#45;&gt;Node3 -->
<g id="edge3_Node000003_Node000004" class="edge">
<title>Node4&#45;&gt;Node3</title>
<g id="a_edge3_Node000003_Node000004"><a xlink:title=" ">
<path fill="none" stroke="#9a32cd" stroke-dasharray="5,2" d="M271.27,-88.18C265.85,-97.83 258.01,-109.02 248,-116 235.46,-124.74 220.37,-130.7 205.51,-134.77"/>
<polygon fill="#9a32cd" stroke="#9a32cd" points="274.4,-89.74 275.86,-79.25 268.18,-86.54 274.4,-89.74"/>
</a>
</g>
<text text-anchor="start" x="269" y="-102.9" font-family="Helvetica,sans-Serif" font-size="12.00" fill="grey">parentMathText</text>
</g>
<!-- Node5 -->
<g id="Node000005" class="node">
<title>Node5</title>
<g id="a_Node000005"><a xlink:title=" ">
<polygon fill="white" stroke="#666666" points="417.5,-155 352.5,-155 352.5,-134 417.5,-134 417.5,-155"/>
<text text-anchor="middle" x="385" y="-141.4" font-family="Helvetica,sans-Serif" font-size="12.00">QObject</text>
</a>
</g>
</g>
<!-- Node5&#45;&gt;Node4 -->
<g id="edge4_Node000004_Node000005" class="edge">
<title>Node5&#45;&gt;Node4</title>
<g id="a_edge4_Node000004_Node000005"><a xlink:title=" ">
<path fill="none" stroke="#63b8ff" d="M383.37,-123.97C381.63,-114.7 378.11,-104.12 371,-97 359.92,-85.91 344.53,-79.26 329.56,-75.29"/>
<polygon fill="#63b8ff" stroke="#63b8ff" points="379.91,-124.52 384.69,-133.97 386.85,-123.6 379.91,-124.52"/>
</a>
</g>
</g>
<!-- Node6 -->
<g id="Node000006" class="node">
<title>Node6</title>
<g id="a_Node000006"><a xlink:title=" ">
<polygon fill="white" stroke="#666666" points="516,-155 436,-155 436,-134 516,-134 516,-155"/>
<text text-anchor="middle" x="476" y="-141.4" font-family="Helvetica,sans-Serif" font-size="12.00">std::mutex</text>
</a>
</g>
</g>
<!-- Node6&#45;&gt;Node4 -->
<g id="edge6_Node000004_Node000006" class="edge">
<title>Node6&#45;&gt;Node4</title>
<g id="a_edge6_Node000004_Node000006"><a xlink:title=" ">
<path fill="none" stroke="#9a32cd" stroke-dasharray="5,2" d="M452.39,-128.64C435.53,-118.55 412.03,-105.55 390,-97 370.64,-89.48 348.56,-83.49 329.28,-79.04"/>
<polygon fill="#9a32cd" stroke="#9a32cd" points="450.66,-131.68 461.02,-133.89 454.3,-125.7 450.66,-131.68"/>
</a>
</g>
<text text-anchor="start" x="431.5" y="-102.9" font-family="Helvetica,sans-Serif" font-size="12.00" fill="grey">s_mutex</text>
</g>
</g>
</svg>
