<?xml version="1.0" encoding="UTF-8" standalone="no"?>
<!DOCTYPE svg PUBLIC "-//W3C//DTD SVG 1.1//EN"
 "http://www.w3.org/Graphics/SVG/1.1/DTD/svg11.dtd">
<!-- Generated by graphviz version 2.43.0 (0)
 -->
<!-- Title: JKQTPXYScatterGraph Pages: 1 -->
<svg width="336pt" height="314pt"
 viewBox="0.00 0.00 335.50 314.00" xmlns="http://www.w3.org/2000/svg" xmlns:xlink="http://www.w3.org/1999/xlink">
<g id="graph0" class="graph" transform="scale(1 1) rotate(0) translate(4 310)">
<title>JKQTPXYScatterGraph</title>
<!-- Node1 -->
<g id="Node000001" class="node">
<title>Node1</title>
<g id="a_Node000001"><a xlink:title="This implements xy scatter plots. This also alows to draw symbols at the data points.">
<polygon fill="#999999" stroke="#666666" points="221,-78 72,-78 72,-57 221,-57 221,-78"/>
<text text-anchor="middle" x="146.5" y="-64.4" font-family="Helvetica,sans-Serif" font-size="12.00">JKQTPXYScatterGraph</text>
</a>
</g>
</g>
<!-- Node7 -->
<g id="Node000007" class="node">
<title>Node7</title>
<g id="a_Node000007"><a xlink:href="class_j_k_q_t_p_x_y_scatter_error_graph.html" target="_top" xlink:title="This implements xy scatter plots with x and y error indicators.">
<polygon fill="white" stroke="#666666" points="235.5,-21 57.5,-21 57.5,0 235.5,0 235.5,-21"/>
<text text-anchor="middle" x="146.5" y="-7.4" font-family="Helvetica,sans-Serif" font-size="12.00">JKQTPXYScatterErrorGraph</text>
</a>
</g>
</g>
<!-- Node1&#45;&gt;Node7 -->
<g id="edge6_Node000001_Node000007" class="edge">
<title>Node1&#45;&gt;Node7</title>
<g id="a_edge6_Node000001_Node000007"><a xlink:title=" ">
<path fill="none" stroke="#63b8ff" d="M146.5,-46.86C146.5,-38.2 146.5,-28.42 146.5,-21.34"/>
<polygon fill="#63b8ff" stroke="#63b8ff" points="143,-46.92 146.5,-56.92 150,-46.92 143,-46.92"/>
</a>
</g>
</g>
<!-- Node2 -->
<g id="Node000002" class="node">
<title>Node2</title>
<g id="a_Node000002"><a xlink:href="class_j_k_q_t_p_x_y_graph.html" target="_top" xlink:title="This virtual JKQTPGraph descendent may be used as base for all graphs that use at least two columns t...">
<polygon fill="white" stroke="#666666" points="115,-135 10,-135 10,-114 115,-114 115,-135"/>
<text text-anchor="middle" x="62.5" y="-121.4" font-family="Helvetica,sans-Serif" font-size="12.00">JKQTPXYGraph</text>
</a>
</g>
</g>
<!-- Node2&#45;&gt;Node1 -->
<g id="edge1_Node000001_Node000002" class="edge">
<title>Node2&#45;&gt;Node1</title>
<g id="a_edge1_Node000001_Node000002"><a xlink:title=" ">
<path fill="none" stroke="#63b8ff" d="M85.71,-108.3C100.43,-98.67 119.03,-86.49 131.75,-78.16"/>
<polygon fill="#63b8ff" stroke="#63b8ff" points="83.58,-105.51 77.13,-113.92 87.42,-111.37 83.58,-105.51"/>
</a>
</g>
</g>
<!-- Node3 -->
<g id="Node000003" class="node">
<title>Node3</title>
<g id="a_Node000003"><a xlink:href="class_j_k_q_t_p_graph.html" target="_top" xlink:title="this virtual base class of the (data&#45;column based) graphs, which are part of a JKQTPlotter plot and w...">
<polygon fill="white" stroke="#666666" points="107,-192 18,-192 18,-171 107,-171 107,-192"/>
<text text-anchor="middle" x="62.5" y="-178.4" font-family="Helvetica,sans-Serif" font-size="12.00">JKQTPGraph</text>
</a>
</g>
</g>
<!-- Node3&#45;&gt;Node2 -->
<g id="edge2_Node000002_Node000003" class="edge">
<title>Node3&#45;&gt;Node2</title>
<g id="a_edge2_Node000002_Node000003"><a xlink:title=" ">
<path fill="none" stroke="#63b8ff" d="M62.5,-160.86C62.5,-152.2 62.5,-142.42 62.5,-135.34"/>
<polygon fill="#63b8ff" stroke="#63b8ff" points="59,-160.92 62.5,-170.92 66,-160.92 59,-160.92"/>
</a>
</g>
</g>
<!-- Node4 -->
<g id="Node000004" class="node">
<title>Node4</title>
<g id="a_Node000004"><a xlink:href="class_j_k_q_t_p_plot_element.html" target="_top" xlink:title="this virtual base class of every element, which is part of a JKQTPlotter plot and may appear in its k...">
<polygon fill="white" stroke="#666666" points="125,-249 0,-249 0,-228 125,-228 125,-249"/>
<text text-anchor="middle" x="62.5" y="-235.4" font-family="Helvetica,sans-Serif" font-size="12.00">JKQTPPlotElement</text>
</a>
</g>
</g>
<!-- Node4&#45;&gt;Node3 -->
<g id="edge3_Node000003_Node000004" class="edge">
<title>Node4&#45;&gt;Node3</title>
<g id="a_edge3_Node000003_Node000004"><a xlink:title=" ">
<path fill="none" stroke="#63b8ff" d="M62.5,-217.86C62.5,-209.2 62.5,-199.42 62.5,-192.34"/>
<polygon fill="#63b8ff" stroke="#63b8ff" points="59,-217.92 62.5,-227.92 66,-217.92 59,-217.92"/>
</a>
</g>
</g>
<!-- Node5 -->
<g id="Node000005" class="node">
<title>Node5</title>
<g id="a_Node000005"><a xlink:title=" ">
<polygon fill="white" stroke="#666666" points="95,-306 30,-306 30,-285 95,-285 95,-306"/>
<text text-anchor="middle" x="62.5" y="-292.4" font-family="Helvetica,sans-Serif" font-size="12.00">QObject</text>
</a>
</g>
</g>
<!-- Node5&#45;&gt;Node4 -->
<g id="edge4_Node000004_Node000005" class="edge">
<title>Node5&#45;&gt;Node4</title>
<g id="a_edge4_Node000004_Node000005"><a xlink:title=" ">
<path fill="none" stroke="#63b8ff" d="M62.5,-274.86C62.5,-266.2 62.5,-256.42 62.5,-249.34"/>
<polygon fill="#63b8ff" stroke="#63b8ff" points="59,-274.92 62.5,-284.92 66,-274.92 59,-274.92"/>
</a>
</g>
</g>
<!-- Node6 -->
<g id="Node000006" class="node">
<title>Node6</title>
<g id="a_Node000006"><a xlink:href="class_j_k_q_t_p_graph_symbol_style_mixin.html" target="_top" xlink:title="This Mix&#45;In class provides setter/getter methods, storage and other facilities for the graph symbols ...">
<polygon fill="white" stroke="#666666" points="327.5,-135 133.5,-135 133.5,-114 327.5,-114 327.5,-135"/>
<text text-anchor="middle" x="230.5" y="-121.4" font-family="Helvetica,sans-Serif" font-size="12.00">JKQTPGraphSymbolStyleMixin</text>
</a>
</g>
</g>
<!-- Node6&#45;&gt;Node1 -->
<g id="edge5_Node000001_Node000006" class="edge">
<title>Node6&#45;&gt;Node1</title>
<g id="a_edge5_Node000001_Node000006"><a xlink:title=" ">
<path fill="none" stroke="#63b8ff" d="M207.29,-108.3C192.57,-98.67 173.97,-86.49 161.25,-78.16"/>
<polygon fill="#63b8ff" stroke="#63b8ff" points="205.58,-111.37 215.87,-113.92 209.42,-105.51 205.58,-111.37"/>
</a>
</g>
</g>
</g>
</svg>
