<?xml version="1.0" encoding="UTF-8" standalone="no"?>
<!DOCTYPE svg PUBLIC "-//W3C//DTD SVG 1.1//EN"
 "http://www.w3.org/Graphics/SVG/1.1/DTD/svg11.dtd">
<!-- Generated by graphviz version 2.43.0 (0)
 -->
<!-- Title: JKQTPGraphLineAndFillStyleMixin Pages: 1 -->
<svg width="1122pt" height="389pt"
 viewBox="0.00 0.00 1122.00 388.50" xmlns="http://www.w3.org/2000/svg" xmlns:xlink="http://www.w3.org/1999/xlink">
<g id="graph0" class="graph" transform="scale(1 1) rotate(0) translate(4 384.5)">
<title>JKQTPGraphLineAndFillStyleMixin</title>
<!-- Node1 -->
<g id="Node000001" class="node">
<title>Node1</title>
<g id="a_Node000001"><a xlink:title="This Mix&#45;In class provides setter/getter methods, storage and other facilities for the graph line and...">
<polygon fill="#999999" stroke="#666666" points="392,-158 210,-158 210,-124 392,-124 392,-158"/>
<text text-anchor="start" x="218" y="-144.4" font-family="Helvetica,sans-Serif" font-size="12.00">JKQTPGraphLineAndFillStyle</text>
<text text-anchor="middle" x="301" y="-131.4" font-family="Helvetica,sans-Serif" font-size="12.00">Mixin</text>
</a>
</g>
</g>
<!-- Node4 -->
<g id="Node000004" class="node">
<title>Node4</title>
<g id="a_Node000004"><a xlink:href="class_j_k_q_t_p_evaluated_function_with_errors_graph_drawing_base.html" target="_top" xlink:title="This class extends JKQTPEvaluatedFunctionWithErrorsGraphBase with functions to draw the graphs and se...">
<polygon fill="white" stroke="#666666" points="616,-276 428,-276 428,-242 616,-242 616,-276"/>
<text text-anchor="start" x="436" y="-262.4" font-family="Helvetica,sans-Serif" font-size="12.00">JKQTPEvaluatedFunctionWith</text>
<text text-anchor="middle" x="522" y="-249.4" font-family="Helvetica,sans-Serif" font-size="12.00">ErrorsGraphDrawingBase</text>
</a>
</g>
</g>
<!-- Node1&#45;&gt;Node4 -->
<g id="edge3_Node000001_Node000004" class="edge">
<title>Node1&#45;&gt;Node4</title>
<g id="a_edge3_Node000001_Node000004"><a xlink:title=" ">
<path fill="none" stroke="#63b8ff" d="M342.77,-162.97C385.09,-185.77 450.42,-220.97 489.12,-241.82"/>
<polygon fill="#63b8ff" stroke="#63b8ff" points="344.31,-159.82 333.84,-158.16 340.99,-165.98 344.31,-159.82"/>
</a>
</g>
</g>
<!-- Node11 -->
<g id="Node000011" class="node">
<title>Node11</title>
<g id="a_Node000011"><a xlink:href="class_j_k_q_t_p_filled_curve_graph_base.html" target="_top" xlink:title="a Base class for filled curve graphs like e.g. JKQTPFilledCurveXGraph">
<polygon fill="white" stroke="#666666" points="614,-197.5 430,-197.5 430,-176.5 614,-176.5 614,-197.5"/>
<text text-anchor="middle" x="522" y="-183.9" font-family="Helvetica,sans-Serif" font-size="12.00">JKQTPFilledCurveGraphBase</text>
</a>
</g>
</g>
<!-- Node1&#45;&gt;Node11 -->
<g id="edge10_Node000001_Node000011" class="edge">
<title>Node1&#45;&gt;Node11</title>
<g id="a_edge10_Node000001_Node000011"><a xlink:title=" ">
<path fill="none" stroke="#63b8ff" d="M393.3,-160.18C419.8,-165.74 447.75,-171.61 470.73,-176.44"/>
<polygon fill="#63b8ff" stroke="#63b8ff" points="393.74,-156.69 383.24,-158.06 392.3,-163.54 393.74,-156.69"/>
</a>
</g>
</g>
<!-- Node16 -->
<g id="Node000016" class="node">
<title>Node16</title>
<g id="a_Node000016"><a xlink:href="class_j_k_q_t_p_filled_horizontal_range_graph.html" target="_top" xlink:title="This implements filled curve plots where the area is filled between two data columns for each y&#45;value...">
<polygon fill="white" stroke="#666666" points="613,-158 431,-158 431,-124 613,-124 613,-158"/>
<text text-anchor="start" x="439" y="-144.4" font-family="Helvetica,sans-Serif" font-size="12.00">JKQTPFilledHorizontalRange</text>
<text text-anchor="middle" x="522" y="-131.4" font-family="Helvetica,sans-Serif" font-size="12.00">Graph</text>
</a>
</g>
</g>
<!-- Node1&#45;&gt;Node16 -->
<g id="edge15_Node000001_Node000016" class="edge">
<title>Node1&#45;&gt;Node16</title>
<g id="a_edge15_Node000001_Node000016"><a xlink:title=" ">
<path fill="none" stroke="#63b8ff" d="M402.03,-141C411.68,-141 421.43,-141 430.97,-141"/>
<polygon fill="#63b8ff" stroke="#63b8ff" points="402.02,-137.5 392.02,-141 402.02,-144.5 402.02,-137.5"/>
</a>
</g>
</g>
<!-- Node17 -->
<g id="Node000017" class="node">
<title>Node17</title>
<g id="a_Node000017"><a xlink:href="class_j_k_q_t_p_filled_vertical_range_graph.html" target="_top" xlink:title="This implements filled curve plots where the area is filled between two data columns for each x&#45;value...">
<polygon fill="white" stroke="#666666" points="605,-106 439,-106 439,-72 605,-72 605,-106"/>
<text text-anchor="start" x="447" y="-92.4" font-family="Helvetica,sans-Serif" font-size="12.00">JKQTPFilledVerticalRange</text>
<text text-anchor="middle" x="522" y="-79.4" font-family="Helvetica,sans-Serif" font-size="12.00">Graph</text>
</a>
</g>
</g>
<!-- Node1&#45;&gt;Node17 -->
<g id="edge16_Node000001_Node000017" class="edge">
<title>Node1&#45;&gt;Node17</title>
<g id="a_edge16_Node000001_Node000017"><a xlink:title=" ">
<path fill="none" stroke="#63b8ff" d="M383.49,-121.65C405.03,-116.54 428.13,-111.05 449.13,-106.06"/>
<polygon fill="#63b8ff" stroke="#63b8ff" points="382.63,-118.26 373.71,-123.97 384.25,-125.07 382.63,-118.26"/>
</a>
</g>
</g>
<!-- Node18 -->
<g id="Node000018" class="node">
<title>Node18</title>
<g id="a_Node000018"><a xlink:href="class_j_k_q_t_p_special_line_graph_base.html" target="_top" xlink:title="a Base class for special line graphs (steps ...) like e.g. JKQTPSpecialLineHorizontalGraph">
<polygon fill="white" stroke="#666666" points="615,-53.5 429,-53.5 429,-32.5 615,-32.5 615,-53.5"/>
<text text-anchor="middle" x="522" y="-39.9" font-family="Helvetica,sans-Serif" font-size="12.00">JKQTPSpecialLineGraphBase</text>
</a>
</g>
</g>
<!-- Node1&#45;&gt;Node18 -->
<g id="edge17_Node000001_Node000018" class="edge">
<title>Node1&#45;&gt;Node18</title>
<g id="a_edge17_Node000001_Node000018"><a xlink:title=" ">
<path fill="none" stroke="#63b8ff" d="M332.6,-117.88C357.17,-100.37 393.21,-77.02 428,-63 437.34,-59.23 447.52,-56.13 457.59,-53.58"/>
<polygon fill="#63b8ff" stroke="#63b8ff" points="330.46,-115.11 324.4,-123.8 334.56,-120.78 330.46,-115.11"/>
</a>
</g>
</g>
<!-- Node2 -->
<g id="Node000002" class="node">
<title>Node2</title>
<g id="a_Node000002"><a xlink:href="class_j_k_q_t_p_graph_fill_style_mixin.html" target="_top" xlink:title="This Mix&#45;In class provides setter/getter methods, storage and other facilities for the graph filling ...">
<polygon fill="white" stroke="#666666" points="169,-171.5 5,-171.5 5,-150.5 169,-150.5 169,-171.5"/>
<text text-anchor="middle" x="87" y="-157.9" font-family="Helvetica,sans-Serif" font-size="12.00">JKQTPGraphFillStyleMixin</text>
</a>
</g>
</g>
<!-- Node2&#45;&gt;Node1 -->
<g id="edge1_Node000001_Node000002" class="edge">
<title>Node2&#45;&gt;Node1</title>
<g id="a_edge1_Node000001_Node000002"><a xlink:title=" ">
<path fill="none" stroke="#63b8ff" d="M179.14,-152.4C189.3,-151.44 199.65,-150.47 209.8,-149.51"/>
<polygon fill="#63b8ff" stroke="#63b8ff" points="178.68,-148.93 169.06,-153.35 179.34,-155.9 178.68,-148.93"/>
</a>
</g>
</g>
<!-- Node3 -->
<g id="Node000003" class="node">
<title>Node3</title>
<g id="a_Node000003"><a xlink:href="class_j_k_q_t_p_graph_line_style_mixin.html" target="_top" xlink:title="This Mix&#45;In class provides setter/getter methods, storage and other facilities for the graph line sty...">
<polygon fill="white" stroke="#666666" points="174,-132.5 0,-132.5 0,-111.5 174,-111.5 174,-132.5"/>
<text text-anchor="middle" x="87" y="-118.9" font-family="Helvetica,sans-Serif" font-size="12.00">JKQTPGraphLineStyleMixin</text>
</a>
</g>
</g>
<!-- Node3&#45;&gt;Node1 -->
<g id="edge2_Node000001_Node000003" class="edge">
<title>Node3&#45;&gt;Node1</title>
<g id="a_edge2_Node000001_Node000003"><a xlink:title=" ">
<path fill="none" stroke="#63b8ff" d="M184.44,-130.64C192.85,-131.4 201.35,-132.16 209.71,-132.91"/>
<polygon fill="#63b8ff" stroke="#63b8ff" points="184.5,-127.13 174.23,-129.73 183.88,-134.11 184.5,-127.13"/>
</a>
</g>
</g>
<!-- Node5 -->
<g id="Node000005" class="node">
<title>Node5</title>
<g id="a_Node000005"><a xlink:href="class_j_k_q_t_p_functor_line_graph_base.html" target="_top" xlink:title="extends JKQTPEvaluatedFunctionWithErrorsGraphDrawingBase with the capabilities to define functions fr...">
<polygon fill="white" stroke="#666666" points="863,-341.5 675,-341.5 675,-320.5 863,-320.5 863,-341.5"/>
<text text-anchor="middle" x="769" y="-327.9" font-family="Helvetica,sans-Serif" font-size="12.00">JKQTPFunctorLineGraphBase</text>
</a>
</g>
</g>
<!-- Node4&#45;&gt;Node5 -->
<g id="edge4_Node000004_Node000005" class="edge">
<title>Node4&#45;&gt;Node5</title>
<g id="a_edge4_Node000004_Node000005"><a xlink:title=" ">
<path fill="none" stroke="#63b8ff" d="M590.9,-278.95C636.59,-292.38 695.02,-309.55 731.99,-320.42"/>
<polygon fill="#63b8ff" stroke="#63b8ff" points="591.64,-275.52 581.06,-276.06 589.67,-282.24 591.64,-275.52"/>
</a>
</g>
</g>
<!-- Node8 -->
<g id="Node000008" class="node">
<title>Node8</title>
<g id="a_Node000008"><a xlink:href="class_j_k_q_t_p_parsed_function_line_graph_base.html" target="_top" xlink:title="extends JKQTPEvaluatedFunctionWithErrorsGraphDrawingBase with the capabilities to define functions fr...">
<polygon fill="white" stroke="#666666" points="886,-269.5 652,-269.5 652,-248.5 886,-248.5 886,-269.5"/>
<text text-anchor="middle" x="769" y="-255.9" font-family="Helvetica,sans-Serif" font-size="12.00">JKQTPParsedFunctionLineGraphBase</text>
</a>
</g>
</g>
<!-- Node4&#45;&gt;Node8 -->
<g id="edge7_Node000004_Node000008" class="edge">
<title>Node4&#45;&gt;Node8</title>
<g id="a_edge7_Node000004_Node000008"><a xlink:title=" ">
<path fill="none" stroke="#63b8ff" d="M626.49,-259C634.88,-259 643.4,-259 651.88,-259"/>
<polygon fill="#63b8ff" stroke="#63b8ff" points="626.32,-255.5 616.32,-259 626.32,-262.5 626.32,-255.5"/>
</a>
</g>
</g>
<!-- Node6 -->
<g id="Node000006" class="node">
<title>Node6</title>
<g id="a_Node000006"><a xlink:href="class_j_k_q_t_p_x_function_line_graph.html" target="_top" xlink:title="This implements line plots where the data is taken from a user supplied function .">
<polygon fill="white" stroke="#666666" points="1104.5,-380.5 931.5,-380.5 931.5,-359.5 1104.5,-359.5 1104.5,-380.5"/>
<text text-anchor="middle" x="1018" y="-366.9" font-family="Helvetica,sans-Serif" font-size="12.00">JKQTPXFunctionLineGraph</text>
</a>
</g>
</g>
<!-- Node5&#45;&gt;Node6 -->
<g id="edge5_Node000005_Node000006" class="edge">
<title>Node5&#45;&gt;Node6</title>
<g id="a_edge5_Node000005_Node000006"><a xlink:title=" ">
<path fill="none" stroke="#63b8ff" d="M846.64,-343.1C879.85,-348.34 918.36,-354.43 950.36,-359.48"/>
<polygon fill="#63b8ff" stroke="#63b8ff" points="846.94,-339.61 836.52,-341.5 845.85,-346.52 846.94,-339.61"/>
</a>
</g>
</g>
<!-- Node7 -->
<g id="Node000007" class="node">
<title>Node7</title>
<g id="a_Node000007"><a xlink:href="class_j_k_q_t_p_y_function_line_graph.html" target="_top" xlink:title="This implements line plots where the data is taken from a user supplied function .">
<polygon fill="white" stroke="#666666" points="1103.5,-341.5 932.5,-341.5 932.5,-320.5 1103.5,-320.5 1103.5,-341.5"/>
<text text-anchor="middle" x="1018" y="-327.9" font-family="Helvetica,sans-Serif" font-size="12.00">JKQTPYFunctionLineGraph</text>
</a>
</g>
</g>
<!-- Node5&#45;&gt;Node7 -->
<g id="edge6_Node000005_Node000007" class="edge">
<title>Node5&#45;&gt;Node7</title>
<g id="a_edge6_Node000005_Node000007"><a xlink:title=" ">
<path fill="none" stroke="#63b8ff" d="M873.22,-331C892.86,-331 913.2,-331 932.19,-331"/>
<polygon fill="#63b8ff" stroke="#63b8ff" points="873.03,-327.5 863.03,-331 873.03,-334.5 873.03,-327.5"/>
</a>
</g>
</g>
<!-- Node9 -->
<g id="Node000009" class="node">
<title>Node9</title>
<g id="a_Node000009"><a xlink:href="class_j_k_q_t_p_x_parsed_function_line_graph.html" target="_top" xlink:title="This implements line plots where the data is taken from a user supplied function &#160;The function is def...">
<polygon fill="white" stroke="#666666" points="1106,-302 930,-302 930,-268 1106,-268 1106,-302"/>
<text text-anchor="start" x="938" y="-288.4" font-family="Helvetica,sans-Serif" font-size="12.00">JKQTPXParsedFunctionLine</text>
<text text-anchor="middle" x="1018" y="-275.4" font-family="Helvetica,sans-Serif" font-size="12.00">Graph</text>
</a>
</g>
</g>
<!-- Node8&#45;&gt;Node9 -->
<g id="edge8_Node000008_Node000009" class="edge">
<title>Node8&#45;&gt;Node9</title>
<g id="a_edge8_Node000008_Node000009"><a xlink:title=" ">
<path fill="none" stroke="#63b8ff" d="M880.1,-270.59C896.82,-272.35 913.86,-274.14 929.99,-275.84"/>
<polygon fill="#63b8ff" stroke="#63b8ff" points="880.06,-267.07 869.75,-269.5 879.33,-274.03 880.06,-267.07"/>
</a>
</g>
</g>
<!-- Node10 -->
<g id="Node000010" class="node">
<title>Node10</title>
<g id="a_Node000010"><a xlink:href="class_j_k_q_t_p_y_parsed_function_line_graph.html" target="_top" xlink:title="This implements line plots where the data is taken from a user supplied function &#160;The function is def...">
<polygon fill="white" stroke="#666666" points="1105.5,-250 930.5,-250 930.5,-216 1105.5,-216 1105.5,-250"/>
<text text-anchor="start" x="938.5" y="-236.4" font-family="Helvetica,sans-Serif" font-size="12.00">JKQTPYParsedFunctionLine</text>
<text text-anchor="middle" x="1018" y="-223.4" font-family="Helvetica,sans-Serif" font-size="12.00">Graph</text>
</a>
</g>
</g>
<!-- Node8&#45;&gt;Node10 -->
<g id="edge9_Node000008_Node000010" class="edge">
<title>Node8&#45;&gt;Node10</title>
<g id="a_edge9_Node000008_Node000010"><a xlink:title=" ">
<path fill="none" stroke="#63b8ff" d="M879.7,-247.45C896.67,-245.67 914,-243.84 930.38,-242.12"/>
<polygon fill="#63b8ff" stroke="#63b8ff" points="879.33,-243.97 869.75,-248.5 880.06,-250.93 879.33,-243.97"/>
</a>
</g>
</g>
<!-- Node12 -->
<g id="Node000012" class="node">
<title>Node12</title>
<g id="a_Node000012"><a xlink:href="class_j_k_q_t_p_filled_curve_x_graph.html" target="_top" xlink:title="This implements filled curve plots where the area is filled between the plot line and the x&#45;Axis.">
<polygon fill="white" stroke="#666666" points="850.5,-197.5 687.5,-197.5 687.5,-176.5 850.5,-176.5 850.5,-197.5"/>
<text text-anchor="middle" x="769" y="-183.9" font-family="Helvetica,sans-Serif" font-size="12.00">JKQTPFilledCurveXGraph</text>
</a>
</g>
</g>
<!-- Node11&#45;&gt;Node12 -->
<g id="edge11_Node000011_Node000012" class="edge">
<title>Node11&#45;&gt;Node12</title>
<g id="a_edge11_Node000011_Node000012"><a xlink:title=" ">
<path fill="none" stroke="#63b8ff" d="M624.42,-187C645.34,-187 667.11,-187 687.18,-187"/>
<polygon fill="#63b8ff" stroke="#63b8ff" points="624.23,-183.5 614.23,-187 624.23,-190.5 624.23,-183.5"/>
</a>
</g>
</g>
<!-- Node14 -->
<g id="Node000014" class="node">
<title>Node14</title>
<g id="a_Node000014"><a xlink:href="class_j_k_q_t_p_filled_curve_y_graph.html" target="_top" xlink:title="This implements filled curve plots where the area is filled between the plot line and y&#45;Axis.">
<polygon fill="white" stroke="#666666" points="850,-158.5 688,-158.5 688,-137.5 850,-137.5 850,-158.5"/>
<text text-anchor="middle" x="769" y="-144.9" font-family="Helvetica,sans-Serif" font-size="12.00">JKQTPFilledCurveYGraph</text>
</a>
</g>
</g>
<!-- Node11&#45;&gt;Node14 -->
<g id="edge13_Node000011_Node000014" class="edge">
<title>Node11&#45;&gt;Node14</title>
<g id="a_edge13_Node000011_Node000014"><a xlink:title=" ">
<path fill="none" stroke="#63b8ff" d="M599.02,-174.9C631.96,-169.66 670.16,-163.57 701.9,-158.52"/>
<polygon fill="#63b8ff" stroke="#63b8ff" points="598.3,-171.47 588.98,-176.5 599.4,-178.38 598.3,-171.47"/>
</a>
</g>
</g>
<!-- Node13 -->
<g id="Node000013" class="node">
<title>Node13</title>
<g id="a_Node000013"><a xlink:href="class_j_k_q_t_p_filled_curve_x_error_graph.html" target="_top" xlink:title="This implements filled curve plots with y errors where the area is filled between the plot line and t...">
<polygon fill="white" stroke="#666666" points="1114,-197.5 922,-197.5 922,-176.5 1114,-176.5 1114,-197.5"/>
<text text-anchor="middle" x="1018" y="-183.9" font-family="Helvetica,sans-Serif" font-size="12.00">JKQTPFilledCurveXErrorGraph</text>
</a>
</g>
</g>
<!-- Node12&#45;&gt;Node13 -->
<g id="edge12_Node000012_Node000013" class="edge">
<title>Node12&#45;&gt;Node13</title>
<g id="a_edge12_Node000012_Node000013"><a xlink:title=" ">
<path fill="none" stroke="#63b8ff" d="M860.55,-187C880.55,-187 901.79,-187 921.96,-187"/>
<polygon fill="#63b8ff" stroke="#63b8ff" points="860.54,-183.5 850.54,-187 860.54,-190.5 860.54,-183.5"/>
</a>
</g>
</g>
<!-- Node15 -->
<g id="Node000015" class="node">
<title>Node15</title>
<g id="a_Node000015"><a xlink:href="class_j_k_q_t_p_filled_curve_y_error_graph.html" target="_top" xlink:title="This implements filled curve plots with y errors where the area is filled between the plot line and t...">
<polygon fill="white" stroke="#666666" points="1113.5,-158.5 922.5,-158.5 922.5,-137.5 1113.5,-137.5 1113.5,-158.5"/>
<text text-anchor="middle" x="1018" y="-144.9" font-family="Helvetica,sans-Serif" font-size="12.00">JKQTPFilledCurveYErrorGraph</text>
</a>
</g>
</g>
<!-- Node14&#45;&gt;Node15 -->
<g id="edge14_Node000014_Node000015" class="edge">
<title>Node14&#45;&gt;Node15</title>
<g id="a_edge14_Node000014_Node000015"><a xlink:title=" ">
<path fill="none" stroke="#63b8ff" d="M860.28,-148C880.42,-148 901.83,-148 922.15,-148"/>
<polygon fill="#63b8ff" stroke="#63b8ff" points="860.19,-144.5 850.19,-148 860.19,-151.5 860.19,-144.5"/>
</a>
</g>
</g>
<!-- Node19 -->
<g id="Node000019" class="node">
<title>Node19</title>
<g id="a_Node000019"><a xlink:href="class_j_k_q_t_p_special_line_horizontal_graph.html" target="_top" xlink:title="This implements a step plot with values .">
<polygon fill="white" stroke="#666666" points="859.5,-86 678.5,-86 678.5,-52 859.5,-52 859.5,-86"/>
<text text-anchor="start" x="686.5" y="-72.4" font-family="Helvetica,sans-Serif" font-size="12.00">JKQTPSpecialLineHorizontal</text>
<text text-anchor="middle" x="769" y="-59.4" font-family="Helvetica,sans-Serif" font-size="12.00">Graph</text>
</a>
</g>
</g>
<!-- Node18&#45;&gt;Node19 -->
<g id="edge18_Node000018_Node000019" class="edge">
<title>Node18&#45;&gt;Node19</title>
<g id="a_edge18_Node000018_Node000019"><a xlink:title=" ">
<path fill="none" stroke="#63b8ff" d="M625.51,-53.88C643.02,-55.74 661.09,-57.65 678.24,-59.47"/>
<polygon fill="#63b8ff" stroke="#63b8ff" points="625.59,-50.37 615.27,-52.79 624.85,-57.33 625.59,-50.37"/>
</a>
</g>
</g>
<!-- Node20 -->
<g id="Node000020" class="node">
<title>Node20</title>
<g id="a_Node000020"><a xlink:href="class_j_k_q_t_p_special_line_vertical_graph.html" target="_top" xlink:title="This implements a step plot with values .">
<polygon fill="white" stroke="#666666" points="851.5,-34 686.5,-34 686.5,0 851.5,0 851.5,-34"/>
<text text-anchor="start" x="694.5" y="-20.4" font-family="Helvetica,sans-Serif" font-size="12.00">JKQTPSpecialLineVertical</text>
<text text-anchor="middle" x="769" y="-7.4" font-family="Helvetica,sans-Serif" font-size="12.00">Graph</text>
</a>
</g>
</g>
<!-- Node18&#45;&gt;Node20 -->
<g id="edge19_Node000018_Node000020" class="edge">
<title>Node18&#45;&gt;Node20</title>
<g id="a_edge19_Node000018_Node000020"><a xlink:title=" ">
<path fill="none" stroke="#63b8ff" d="M625.48,-32.12C645.76,-29.97 666.79,-27.74 686.27,-25.67"/>
<polygon fill="#63b8ff" stroke="#63b8ff" points="624.85,-28.67 615.27,-33.21 625.59,-35.63 624.85,-28.67"/>
</a>
</g>
</g>
</g>
</svg>
