<?xml version="1.0" encoding="UTF-8" standalone="no"?>
<!DOCTYPE svg PUBLIC "-//W3C//DTD SVG 1.1//EN"
 "http://www.w3.org/Graphics/SVG/1.1/DTD/svg11.dtd">
<!-- Generated by graphviz version 2.43.0 (0)
 -->
<!-- Title: JKQTPMathParser::jkmpVariableNode Pages: 1 -->
<svg width="2105pt" height="514pt"
 viewBox="0.00 0.00 2105.00 514.00" xmlns="http://www.w3.org/2000/svg" xmlns:xlink="http://www.w3.org/1999/xlink">
<g id="graph0" class="graph" transform="scale(1 1) rotate(0) translate(4 510)">
<title>JKQTPMathParser::jkmpVariableNode</title>
<!-- Node1 -->
<g id="Node000001" class="node">
<title>Node1</title>
<g id="a_Node000001"><a xlink:title="This class represents a variable.">
<polygon fill="#999999" stroke="#666666" points="2097,-22.5 1860,-22.5 1860,-1.5 2097,-1.5 2097,-22.5"/>
<text text-anchor="middle" x="1978.5" y="-8.9" font-family="Helvetica,sans-Serif" font-size="12.00">JKQTPMathParser::jkmpVariableNode</text>
</a>
</g>
</g>
<!-- Node2 -->
<g id="Node000002" class="node">
<title>Node2</title>
<g id="a_Node000002"><a xlink:href="class_j_k_q_t_p_math_parser_1_1jkmp_node.html" target="_top" xlink:title="This class is the abstract base class for nodes. All allowed node types must inherit from jkmpNode.">
<polygon fill="white" stroke="#666666" points="1823,-127.5 1635,-127.5 1635,-106.5 1823,-106.5 1823,-127.5"/>
<text text-anchor="middle" x="1729" y="-113.9" font-family="Helvetica,sans-Serif" font-size="12.00">JKQTPMathParser::jkmpNode</text>
</a>
</g>
</g>
<!-- Node2&#45;&gt;Node1 -->
<g id="edge1_Node000001_Node000002" class="edge">
<title>Node2&#45;&gt;Node1</title>
<g id="a_edge1_Node000001_Node000002"><a xlink:title=" ">
<path fill="none" stroke="#63b8ff" d="M1764.31,-102.44C1814.89,-80.99 1908.25,-41.38 1952.71,-22.52"/>
<polygon fill="#63b8ff" stroke="#63b8ff" points="1762.93,-99.23 1755.09,-106.35 1765.67,-105.67 1762.93,-99.23"/>
</a>
</g>
</g>
<!-- Node2&#45;&gt;Node2 -->
<g id="edge29_Node000002_Node000002" class="edge">
<title>Node2&#45;&gt;Node2</title>
<g id="a_edge29_Node000002_Node000002"><a xlink:title=" ">
<path fill="none" stroke="#9a32cd" stroke-dasharray="5,2" d="M1708.49,-137.43C1710.3,-142.09 1717.14,-145.5 1729,-145.5 1748.47,-145.5 1754.4,-136.31 1746.8,-127.52"/>
<polygon fill="#9a32cd" stroke="#9a32cd" points="1711.94,-138.09 1711.2,-127.52 1705.19,-136.24 1711.94,-138.09"/>
</a>
</g>
<text text-anchor="start" x="1709" y="-151.4" font-family="Helvetica,sans-Serif" font-size="12.00" fill="grey">parent</text>
</g>
<!-- Node3 -->
<g id="Node000003" class="node">
<title>Node3</title>
<g id="a_Node000003"><a xlink:href="class_j_k_q_t_p_math_parser.html" target="_top" xlink:title="A simple function parser to parse (build memory tree representation) and evaluate simple mathematical...">
<polygon fill="white" stroke="#666666" points="1553,-248.5 1432,-248.5 1432,-227.5 1553,-227.5 1553,-248.5"/>
<text text-anchor="middle" x="1492.5" y="-234.9" font-family="Helvetica,sans-Serif" font-size="12.00">JKQTPMathParser</text>
</a>
</g>
</g>
<!-- Node3&#45;&gt;Node2 -->
<g id="edge2_Node000002_Node000003" class="edge">
<title>Node3&#45;&gt;Node2</title>
<g id="a_edge2_Node000002_Node000003"><a xlink:title=" ">
<path fill="none" stroke="#9a32cd" stroke-dasharray="5,2" d="M1522.89,-222.83C1571.11,-197.95 1665.8,-149.09 1707.48,-127.59"/>
<polygon fill="#9a32cd" stroke="#9a32cd" points="1521.18,-219.78 1513.9,-227.47 1524.39,-226 1521.18,-219.78"/>
</a>
</g>
<text text-anchor="start" x="1574" y="-201.9" font-family="Helvetica,sans-Serif" font-size="12.00" fill="grey">parser</text>
</g>
<!-- Node4 -->
<g id="Node000004" class="node">
<title>Node4</title>
<g id="a_Node000004"><a xlink:title=" ">
<polygon fill="white" stroke="#666666" points="272.5,-162.5 196.5,-162.5 196.5,-141.5 272.5,-141.5 272.5,-162.5"/>
<text text-anchor="middle" x="234.5" y="-148.9" font-family="Helvetica,sans-Serif" font-size="12.00">std::string</text>
</a>
</g>
</g>
<!-- Node4&#45;&gt;Node1 -->
<g id="edge30_Node000001_Node000004" class="edge">
<title>Node4&#45;&gt;Node1</title>
<g id="a_edge30_Node000001_Node000004"><a xlink:title=" ">
<path fill="none" stroke="#9a32cd" stroke-dasharray="5,2" d="M251.67,-134.01C269.02,-115.59 298.14,-87.18 328,-69 401.89,-24.02 423.49,0 510,0 510,0 510,0 1730,0 1772.37,0 1818.78,-1.78 1859.84,-3.96"/>
<polygon fill="#9a32cd" stroke="#9a32cd" points="249,-131.74 244.78,-141.46 254.14,-136.49 249,-131.74"/>
</a>
</g>
<text text-anchor="start" x="1219.5" y="-5.9" font-family="Helvetica,sans-Serif" font-size="12.00" fill="grey">var</text>
</g>
<!-- Node4&#45;&gt;Node3 -->
<g id="edge3_Node000003_Node000004" class="edge">
<title>Node4&#45;&gt;Node3</title>
<g id="a_edge3_Node000003_Node000004"><a xlink:title=" ">
<path fill="none" stroke="#9a32cd" stroke-dasharray="5,2" d="M259.55,-135.9C305.89,-106.47 411.7,-47 510,-47 510,-47 510,-47 1230.5,-47 1353.75,-47 1457.53,-187.42 1484.61,-227.46"/>
<polygon fill="#9a32cd" stroke="#9a32cd" points="257.59,-132.99 251.09,-141.35 261.39,-138.87 257.59,-132.99"/>
</a>
</g>
<text text-anchor="start" x="842.5" y="-86.9" font-family="Helvetica,sans-Serif" font-size="12.00" fill="grey">StringValue</text>
<text text-anchor="start" x="842.5" y="-69.9" font-family="Helvetica,sans-Serif" font-size="12.00" fill="grey">jkmathparser_exception</text>
<text text-anchor="start" x="842.5" y="-52.9" font-family="Helvetica,sans-Serif" font-size="12.00" fill="grey">  _function</text>
</g>
<!-- Node12 -->
<g id="Node000012" class="node">
<title>Node12</title>
<g id="a_Node000012"><a xlink:href="struct_j_k_q_t_p_math_parser_1_1jkmp_temp_variable.html" target="_top" xlink:title="This struct is for managing temporary variables. It is generally like jkmpVariable.">
<polygon fill="white" stroke="#666666" points="605.5,-243 416.5,-243 416.5,-209 605.5,-209 605.5,-243"/>
<text text-anchor="start" x="424.5" y="-229.4" font-family="Helvetica,sans-Serif" font-size="12.00">JKQTPMathParser::jkmpTemp</text>
<text text-anchor="middle" x="511" y="-216.4" font-family="Helvetica,sans-Serif" font-size="12.00">Variable</text>
</a>
</g>
</g>
<!-- Node4&#45;&gt;Node12 -->
<g id="edge12_Node000012_Node000004" class="edge">
<title>Node4&#45;&gt;Node12</title>
<g id="a_edge12_Node000012_Node000004"><a xlink:title=" ">
<path fill="none" stroke="#9a32cd" stroke-dasharray="5,2" d="M271.06,-166.36C288.1,-172.91 308.92,-180.42 328,-186 357.97,-194.76 391.2,-202.59 420.98,-208.96"/>
<polygon fill="#9a32cd" stroke="#9a32cd" points="272.09,-163 261.5,-162.63 269.55,-169.52 272.09,-163"/>
</a>
</g>
<text text-anchor="start" x="342" y="-225.4" font-family="Helvetica,sans-Serif" font-size="12.00" fill="grey">name</text>
<text text-anchor="start" x="342" y="-208.4" font-family="Helvetica,sans-Serif" font-size="12.00" fill="grey">str</text>
</g>
<!-- Node15 -->
<g id="Node000015" class="node">
<title>Node15</title>
<g id="a_Node000015"><a xlink:title=" ">
<polygon fill="white" stroke="#666666" points="1026,-336 803,-336 803,-302 1026,-302 1026,-336"/>
<text text-anchor="start" x="811" y="-322.4" font-family="Helvetica,sans-Serif" font-size="12.00">std::map&lt; std::string,</text>
<text text-anchor="middle" x="914.5" y="-309.4" font-family="Helvetica,sans-Serif" font-size="12.00"> JKQTPMathParser::jkmpVariable &gt;</text>
</a>
</g>
</g>
<!-- Node4&#45;&gt;Node15 -->
<g id="edge16_Node000015_Node000004" class="edge">
<title>Node4&#45;&gt;Node15</title>
<g id="a_edge16_Node000015_Node000004"><a xlink:title=" ">
<path fill="none" stroke="#9a32cd" stroke-dasharray="5,2" d="M248.77,-170.77C264.87,-191.96 294.13,-225.59 328,-242 369.75,-262.23 645.15,-292.35 802.93,-308.25"/>
<polygon fill="#9a32cd" stroke="#9a32cd" points="251.45,-168.51 242.69,-162.55 245.82,-172.67 251.45,-168.51"/>
</a>
</g>
<text text-anchor="start" x="497" y="-292.9" font-family="Helvetica,sans-Serif" font-size="12.00" fill="grey">keys</text>
</g>
<!-- Node16 -->
<g id="Node000016" class="node">
<title>Node16</title>
<g id="a_Node000016"><a xlink:href="struct_j_k_q_t_p_math_parser_1_1jkmp_variable.html" target="_top" xlink:title="This struct is for managing variables. Unlike jkmpResult this struct only contains pointers to the da...">
<polygon fill="white" stroke="#666666" points="614,-337.5 408,-337.5 408,-316.5 614,-316.5 614,-337.5"/>
<text text-anchor="middle" x="511" y="-323.9" font-family="Helvetica,sans-Serif" font-size="12.00">JKQTPMathParser::jkmpVariable</text>
</a>
</g>
</g>
<!-- Node4&#45;&gt;Node16 -->
<g id="edge18_Node000016_Node000004" class="edge">
<title>Node4&#45;&gt;Node16</title>
<g id="a_edge18_Node000016_Node000004"><a xlink:title=" ">
<path fill="none" stroke="#9a32cd" stroke-dasharray="5,2" d="M242.66,-172.01C254.94,-203.25 283.12,-263.11 328,-293 351.41,-308.59 380.08,-317.49 407.68,-322.46"/>
<polygon fill="#9a32cd" stroke="#9a32cd" points="245.91,-170.72 239.1,-162.6 239.36,-173.19 245.91,-170.72"/>
</a>
</g>
<text text-anchor="start" x="351" y="-324.9" font-family="Helvetica,sans-Serif" font-size="12.00" fill="grey">str</text>
</g>
<!-- Node19 -->
<g id="Node000019" class="node">
<title>Node19</title>
<g id="a_Node000019"><a xlink:title=" ">
<polygon fill="white" stroke="#666666" points="1335,-217.5 1124,-217.5 1124,-170.5 1335,-170.5 1335,-217.5"/>
<text text-anchor="start" x="1132" y="-203.9" font-family="Helvetica,sans-Serif" font-size="12.00">std::map&lt; std::string,</text>
<text text-anchor="start" x="1132" y="-190.9" font-family="Helvetica,sans-Serif" font-size="12.00"> JKQTPMathParser::jkmpFunction</text>
<text text-anchor="middle" x="1229.5" y="-177.9" font-family="Helvetica,sans-Serif" font-size="12.00">Descriptor &gt;</text>
</a>
</g>
</g>
<!-- Node4&#45;&gt;Node19 -->
<g id="edge23_Node000019_Node000004" class="edge">
<title>Node4&#45;&gt;Node19</title>
<g id="a_edge23_Node000019_Node000004"><a xlink:title=" ">
<path fill="none" stroke="#9a32cd" stroke-dasharray="5,2" d="M274.64,-138.23C309.22,-126.82 361.27,-111.47 408,-105 506.62,-91.36 532.44,-103.44 632,-103 700,-102.7 717.28,-96.87 785,-103 893.44,-112.82 919.38,-124.91 1026,-147 1060.46,-154.14 1098.04,-162.66 1131.37,-170.47"/>
<polygon fill="#9a32cd" stroke="#9a32cd" points="273.3,-134.99 264.93,-141.48 275.53,-141.63 273.3,-134.99"/>
</a>
</g>
<text text-anchor="start" x="694.5" y="-108.9" font-family="Helvetica,sans-Serif" font-size="12.00" fill="grey">keys</text>
</g>
<!-- Node20 -->
<g id="Node000020" class="node">
<title>Node20</title>
<g id="a_Node000020"><a xlink:href="struct_j_k_q_t_p_math_parser_1_1jkmp_function_descriptor.html" target="_top" xlink:title="description of a user registered function">
<polygon fill="white" stroke="#666666" points="1018,-190 811,-190 811,-156 1018,-156 1018,-190"/>
<text text-anchor="start" x="819" y="-176.4" font-family="Helvetica,sans-Serif" font-size="12.00">JKQTPMathParser::jkmpFunction</text>
<text text-anchor="middle" x="914.5" y="-163.4" font-family="Helvetica,sans-Serif" font-size="12.00">Descriptor</text>
</a>
</g>
</g>
<!-- Node4&#45;&gt;Node20 -->
<g id="edge27_Node000020_Node000004" class="edge">
<title>Node4&#45;&gt;Node20</title>
<g id="a_edge27_Node000020_Node000004"><a xlink:title=" ">
<path fill="none" stroke="#9a32cd" stroke-dasharray="5,2" d="M283.05,-155.44C297.48,-156.39 313.38,-157.34 328,-158 497.13,-165.65 693.93,-169.69 810.86,-171.59"/>
<polygon fill="#9a32cd" stroke="#9a32cd" points="283.05,-151.93 272.84,-154.76 282.58,-158.92 283.05,-151.93"/>
</a>
</g>
<text text-anchor="start" x="494" y="-173.9" font-family="Helvetica,sans-Serif" font-size="12.00" fill="grey">name</text>
</g>
<!-- Node21 -->
<g id="Node000021" class="node">
<title>Node21</title>
<g id="a_Node000021"><a xlink:href="struct_j_k_q_t_p_math_parser_1_1jkmp_result.html" target="_top" xlink:title="result of any expression">
<polygon fill="white" stroke="#666666" points="607.5,-135.5 414.5,-135.5 414.5,-114.5 607.5,-114.5 607.5,-135.5"/>
<text text-anchor="middle" x="511" y="-121.9" font-family="Helvetica,sans-Serif" font-size="12.00">JKQTPMathParser::jkmpResult</text>
</a>
</g>
</g>
<!-- Node4&#45;&gt;Node21 -->
<g id="edge26_Node000021_Node000004" class="edge">
<title>Node4&#45;&gt;Node21</title>
<g id="a_edge26_Node000021_Node000004"><a xlink:title=" ">
<path fill="none" stroke="#9a32cd" stroke-dasharray="5,2" d="M282.99,-144.74C297.42,-142.69 313.34,-140.59 328,-139 356.04,-135.95 386.58,-133.33 414.49,-131.21"/>
<polygon fill="#9a32cd" stroke="#9a32cd" points="282.19,-141.32 272.79,-146.22 283.19,-148.25 282.19,-141.32"/>
</a>
</g>
<text text-anchor="start" x="351" y="-144.9" font-family="Helvetica,sans-Serif" font-size="12.00" fill="grey">str</text>
</g>
<!-- Node5 -->
<g id="Node000005" class="node">
<title>Node5</title>
<g id="a_Node000005"><a xlink:title=" ">
<polygon fill="white" stroke="#666666" points="122,-169 0,-169 0,-135 122,-135 122,-169"/>
<text text-anchor="start" x="8" y="-155.4" font-family="Helvetica,sans-Serif" font-size="12.00">std::basic_string&lt;</text>
<text text-anchor="middle" x="61" y="-142.4" font-family="Helvetica,sans-Serif" font-size="12.00"> Char &gt;</text>
</a>
</g>
</g>
<!-- Node5&#45;&gt;Node4 -->
<g id="edge4_Node000004_Node000005" class="edge">
<title>Node5&#45;&gt;Node4</title>
<g id="a_edge4_Node000004_Node000005"><a xlink:title=" ">
<path fill="none" stroke="#63b8ff" d="M132.74,-152C154.63,-152 177.86,-152 196.5,-152"/>
<polygon fill="#63b8ff" stroke="#63b8ff" points="132.46,-148.5 122.46,-152 132.46,-155.5 132.46,-148.5"/>
</a>
</g>
</g>
<!-- Node6 -->
<g id="Node000006" class="node">
<title>Node6</title>
<g id="a_Node000006"><a xlink:title=" ">
<polygon fill="white" stroke="#666666" points="1290,-416.5 1169,-416.5 1169,-395.5 1290,-395.5 1290,-416.5"/>
<text text-anchor="middle" x="1229.5" y="-402.9" font-family="Helvetica,sans-Serif" font-size="12.00">std::istringstream</text>
</a>
</g>
</g>
<!-- Node6&#45;&gt;Node3 -->
<g id="edge5_Node000003_Node000006" class="edge">
<title>Node6&#45;&gt;Node3</title>
<g id="a_edge5_Node000003_Node000006"><a xlink:title=" ">
<path fill="none" stroke="#9a32cd" stroke-dasharray="5,2" d="M1285.22,-392.61C1323.78,-381.33 1375.24,-362.42 1414,-334 1446.99,-309.81 1473.89,-268.27 1485.43,-248.74"/>
<polygon fill="#9a32cd" stroke="#9a32cd" points="1283.87,-389.35 1275.21,-395.45 1285.78,-396.09 1283.87,-389.35"/>
</a>
</g>
<text text-anchor="start" x="1357.5" y="-374.9" font-family="Helvetica,sans-Serif" font-size="12.00" fill="grey">program</text>
</g>
<!-- Node7 -->
<g id="Node000007" class="node">
<title>Node7</title>
<g id="a_Node000007"><a xlink:title=" ">
<polygon fill="white" stroke="#666666" points="993.5,-499 835.5,-499 835.5,-465 993.5,-465 993.5,-499"/>
<text text-anchor="start" x="843.5" y="-485.4" font-family="Helvetica,sans-Serif" font-size="12.00">std::basic_istringstream</text>
<text text-anchor="middle" x="914.5" y="-472.4" font-family="Helvetica,sans-Serif" font-size="12.00">&lt; Char &gt;</text>
</a>
</g>
</g>
<!-- Node7&#45;&gt;Node6 -->
<g id="edge6_Node000006_Node000007" class="edge">
<title>Node7&#45;&gt;Node6</title>
<g id="a_edge6_Node000006_Node000007"><a xlink:title=" ">
<path fill="none" stroke="#63b8ff" d="M995.61,-462.55C1055.88,-447.91 1136.17,-428.42 1185.01,-416.56"/>
<polygon fill="#63b8ff" stroke="#63b8ff" points="994.64,-459.18 985.74,-464.94 996.29,-465.99 994.64,-459.18"/>
</a>
</g>
</g>
<!-- Node8 -->
<g id="Node000008" class="node">
<title>Node8</title>
<g id="a_Node000008"><a xlink:title=" ">
<polygon fill="white" stroke="#666666" points="573,-506 449,-506 449,-472 573,-472 573,-506"/>
<text text-anchor="start" x="457" y="-492.4" font-family="Helvetica,sans-Serif" font-size="12.00">std::basic_istream</text>
<text text-anchor="middle" x="511" y="-479.4" font-family="Helvetica,sans-Serif" font-size="12.00">&lt; Char &gt;</text>
</a>
</g>
</g>
<!-- Node8&#45;&gt;Node7 -->
<g id="edge7_Node000007_Node000008" class="edge">
<title>Node8&#45;&gt;Node7</title>
<g id="a_edge7_Node000007_Node000008"><a xlink:title=" ">
<path fill="none" stroke="#63b8ff" d="M583.57,-487.75C654.3,-486.52 762.21,-484.64 835.19,-483.37"/>
<polygon fill="#63b8ff" stroke="#63b8ff" points="583.35,-484.26 573.42,-487.93 583.48,-491.25 583.35,-484.26"/>
</a>
</g>
</g>
<!-- Node9 -->
<g id="Node000009" class="node">
<title>Node9</title>
<g id="a_Node000009"><a xlink:title=" ">
<polygon fill="white" stroke="#666666" points="310,-499.5 159,-499.5 159,-478.5 310,-478.5 310,-499.5"/>
<text text-anchor="middle" x="234.5" y="-485.9" font-family="Helvetica,sans-Serif" font-size="12.00">std::basic_ios&lt; Char &gt;</text>
</a>
</g>
</g>
<!-- Node9&#45;&gt;Node8 -->
<g id="edge8_Node000008_Node000009" class="edge">
<title>Node9&#45;&gt;Node8</title>
<g id="a_edge8_Node000008_Node000009"><a xlink:title=" ">
<path fill="none" stroke="#63b8ff" d="M320.26,-489C361.82,-489 410.94,-489 448.79,-489"/>
<polygon fill="#63b8ff" stroke="#63b8ff" points="320.15,-485.5 310.15,-489 320.15,-492.5 320.15,-485.5"/>
</a>
</g>
</g>
<!-- Node10 -->
<g id="Node000010" class="node">
<title>Node10</title>
<g id="a_Node000010"><a xlink:title=" ">
<polygon fill="white" stroke="#666666" points="107.5,-499.5 14.5,-499.5 14.5,-478.5 107.5,-478.5 107.5,-499.5"/>
<text text-anchor="middle" x="61" y="-485.9" font-family="Helvetica,sans-Serif" font-size="12.00">std::ios_base</text>
</a>
</g>
</g>
<!-- Node10&#45;&gt;Node9 -->
<g id="edge9_Node000009_Node000010" class="edge">
<title>Node10&#45;&gt;Node9</title>
<g id="a_edge9_Node000009_Node000010"><a xlink:title=" ">
<path fill="none" stroke="#63b8ff" d="M117.78,-489C130.91,-489 145.11,-489 158.91,-489"/>
<polygon fill="#63b8ff" stroke="#63b8ff" points="117.51,-485.5 107.51,-489 117.51,-492.5 117.51,-485.5"/>
</a>
</g>
</g>
<!-- Node11 -->
<g id="Node000011" class="node">
<title>Node11</title>
<g id="a_Node000011"><a xlink:title=" ">
<polygon fill="white" stroke="#666666" points="1013.5,-282 815.5,-282 815.5,-248 1013.5,-248 1013.5,-282"/>
<text text-anchor="start" x="823.5" y="-268.4" font-family="Helvetica,sans-Serif" font-size="12.00">std::vector&lt; JKQTPMathParser</text>
<text text-anchor="middle" x="914.5" y="-255.4" font-family="Helvetica,sans-Serif" font-size="12.00">::jkmpTempVariable &gt;</text>
</a>
</g>
</g>
<!-- Node11&#45;&gt;Node3 -->
<g id="edge10_Node000003_Node000011" class="edge">
<title>Node11&#45;&gt;Node3</title>
<g id="a_edge10_Node000003_Node000011"><a xlink:title=" ">
<path fill="none" stroke="#9a32cd" stroke-dasharray="5,2" d="M1023.75,-263.57C1124.82,-261.65 1279.8,-257.2 1414,-247 1419.81,-246.56 1425.85,-246.01 1431.89,-245.41"/>
<polygon fill="#9a32cd" stroke="#9a32cd" points="1023.46,-260.08 1013.53,-263.76 1023.59,-267.07 1023.46,-260.08"/>
</a>
</g>
<text text-anchor="start" x="1186.5" y="-267.9" font-family="Helvetica,sans-Serif" font-size="12.00" fill="grey">tempvariables</text>
</g>
<!-- Node12&#45;&gt;Node11 -->
<g id="edge11_Node000011_Node000012" class="edge">
<title>Node12&#45;&gt;Node11</title>
<g id="a_edge11_Node000011_Node000012"><a xlink:title=" ">
<path fill="none" stroke="#9a32cd" stroke-dasharray="5,2" d="M615.71,-231.79C666.77,-235.11 729.2,-239.84 785,-246 794.86,-247.09 805.13,-248.36 815.37,-249.73"/>
<polygon fill="#9a32cd" stroke="#9a32cd" points="615.86,-228.3 605.66,-231.15 615.41,-235.28 615.86,-228.3"/>
</a>
</g>
<text text-anchor="start" x="680.5" y="-251.9" font-family="Helvetica,sans-Serif" font-size="12.00" fill="grey">elements</text>
</g>
<!-- Node13 -->
<g id="Node000013" class="node">
<title>Node13</title>
<g id="a_Node000013"><a xlink:title=" ">
<polygon fill="white" stroke="#666666" points="568.5,-376.5 453.5,-376.5 453.5,-355.5 568.5,-355.5 568.5,-376.5"/>
<text text-anchor="middle" x="511" y="-362.9" font-family="Helvetica,sans-Serif" font-size="12.00">std::vector&lt; T &gt;</text>
</a>
</g>
</g>
<!-- Node13&#45;&gt;Node11 -->
<g id="edge13_Node000011_Node000013" class="edge">
<title>Node13&#45;&gt;Node11</title>
<g id="a_edge13_Node000011_Node000013"><a xlink:title=" ">
<path fill="none" stroke="orange" stroke-dasharray="5,2" d="M578.83,-359.31C656.95,-351.25 776.73,-338.04 785,-332 800.41,-320.74 788.32,-305.2 803,-293 808.1,-288.76 813.76,-285.16 819.74,-282.09"/>
<polygon fill="orange" stroke="orange" points="578.16,-355.86 568.57,-360.37 578.88,-362.83 578.16,-355.86"/>
</a>
</g>
<text text-anchor="start" x="642.5" y="-377.4" font-family="Helvetica,sans-Serif" font-size="12.00" fill="grey">&lt; JKQTPMathParser::</text>
<text text-anchor="start" x="642.5" y="-360.4" font-family="Helvetica,sans-Serif" font-size="12.00" fill="grey">  jkmpTempVariable &gt;</text>
</g>
<!-- Node14 -->
<g id="Node000014" class="node">
<title>Node14</title>
<g id="a_Node000014"><a xlink:title=" ">
<polygon fill="white" stroke="#666666" points="249,-397.5 220,-397.5 220,-376.5 249,-376.5 249,-397.5"/>
<text text-anchor="middle" x="234.5" y="-383.9" font-family="Helvetica,sans-Serif" font-size="12.00">T</text>
</a>
</g>
</g>
<!-- Node14&#45;&gt;Node13 -->
<g id="edge14_Node000013_Node000014" class="edge">
<title>Node14&#45;&gt;Node13</title>
<g id="a_edge14_Node000013_Node000014"><a xlink:title=" ">
<path fill="none" stroke="#9a32cd" stroke-dasharray="5,2" d="M259.06,-380.49C277.62,-375.71 304.24,-369.6 328,-367 369.77,-362.42 417.27,-362.33 453.26,-363.3"/>
<polygon fill="#9a32cd" stroke="#9a32cd" points="257.91,-377.17 249.14,-383.12 259.71,-383.94 257.91,-377.17"/>
</a>
</g>
<text text-anchor="start" x="331" y="-372.9" font-family="Helvetica,sans-Serif" font-size="12.00" fill="grey">elements</text>
</g>
<!-- Node17 -->
<g id="Node000017" class="node">
<title>Node17</title>
<g id="a_Node000017"><a xlink:title=" ">
<polygon fill="white" stroke="#666666" points="570.5,-438.5 451.5,-438.5 451.5,-417.5 570.5,-417.5 570.5,-438.5"/>
<text text-anchor="middle" x="511" y="-424.9" font-family="Helvetica,sans-Serif" font-size="12.00">std::map&lt; K, T &gt;</text>
</a>
</g>
</g>
<!-- Node14&#45;&gt;Node17 -->
<g id="edge21_Node000017_Node000014" class="edge">
<title>Node14&#45;&gt;Node17</title>
<g id="a_edge21_Node000017_Node000014"><a xlink:title=" ">
<path fill="none" stroke="#9a32cd" stroke-dasharray="5,2" d="M259.02,-390.51C301.31,-396.83 391.37,-410.28 451.31,-419.23"/>
<polygon fill="#9a32cd" stroke="#9a32cd" points="259.52,-387.05 249.11,-389.03 258.49,-393.97 259.52,-387.05"/>
</a>
</g>
<text text-anchor="start" x="331" y="-415.9" font-family="Helvetica,sans-Serif" font-size="12.00" fill="grey">elements</text>
</g>
<!-- Node15&#45;&gt;Node3 -->
<g id="edge15_Node000003_Node000015" class="edge">
<title>Node15&#45;&gt;Node3</title>
<g id="a_edge15_Node000003_Node000015"><a xlink:title=" ">
<path fill="none" stroke="#9a32cd" stroke-dasharray="5,2" d="M1036.26,-314.94C1120.47,-310.71 1235.18,-302.17 1335,-285 1381.13,-277.06 1432.81,-259.83 1463.72,-248.59"/>
<polygon fill="#9a32cd" stroke="#9a32cd" points="1035.96,-311.45 1026.14,-315.43 1036.3,-318.44 1035.96,-311.45"/>
</a>
</g>
<text text-anchor="start" x="1202.5" y="-315.9" font-family="Helvetica,sans-Serif" font-size="12.00" fill="grey">variables</text>
</g>
<!-- Node16&#45;&gt;Node15 -->
<g id="edge17_Node000015_Node000016" class="edge">
<title>Node16&#45;&gt;Node15</title>
<g id="a_edge17_Node000015_Node000016"><a xlink:title=" ">
<path fill="none" stroke="#9a32cd" stroke-dasharray="5,2" d="M600.94,-315.46C611.4,-314.45 621.92,-313.59 632,-313 688.24,-309.73 750.9,-310.62 802.79,-312.59"/>
<polygon fill="#9a32cd" stroke="#9a32cd" points="600.55,-311.98 590.96,-316.47 601.26,-318.94 600.55,-311.98"/>
</a>
</g>
<text text-anchor="start" x="680.5" y="-318.9" font-family="Helvetica,sans-Serif" font-size="12.00" fill="grey">elements</text>
</g>
<!-- Node17&#45;&gt;Node15 -->
<g id="edge19_Node000015_Node000017" class="edge">
<title>Node17&#45;&gt;Node15</title>
<g id="a_edge19_Node000015_Node000017"><a xlink:title=" ">
<path fill="none" stroke="orange" stroke-dasharray="5,2" d="M580.75,-419.64C658.54,-410.05 775.7,-395.09 785,-391 794.53,-386.8 794.32,-381.75 803,-376 826.03,-360.73 853.65,-346.48 875.52,-336.05"/>
<polygon fill="orange" stroke="orange" points="580.02,-416.21 570.53,-420.9 580.88,-423.15 580.02,-416.21"/>
</a>
</g>
<text text-anchor="start" x="635.5" y="-436.4" font-family="Helvetica,sans-Serif" font-size="12.00" fill="grey">&lt; std::string, JKQTPMath</text>
<text text-anchor="start" x="635.5" y="-419.4" font-family="Helvetica,sans-Serif" font-size="12.00" fill="grey">  Parser::jkmpVariable &gt;</text>
</g>
<!-- Node17&#45;&gt;Node19 -->
<g id="edge28_Node000019_Node000017" class="edge">
<title>Node17&#45;&gt;Node19</title>
<g id="a_edge28_Node000019_Node000017"><a xlink:title=" ">
<path fill="none" stroke="orange" stroke-dasharray="5,2" d="M546.11,-442.3C600.54,-462.71 708.65,-493.23 785,-450 798.53,-442.34 790.88,-429.75 803,-420 884.48,-354.46 936.84,-399.63 1026,-345 1077.99,-313.14 1074.73,-284.91 1124,-249 1140.15,-237.23 1159.16,-226.44 1176.51,-217.6"/>
<polygon fill="orange" stroke="orange" points="547.18,-438.96 536.59,-438.63 544.66,-445.49 547.18,-438.96"/>
</a>
</g>
<text text-anchor="start" x="810.5" y="-443.4" font-family="Helvetica,sans-Serif" font-size="12.00" fill="grey">&lt; std::string, JKQTPMath</text>
<text text-anchor="start" x="810.5" y="-426.4" font-family="Helvetica,sans-Serif" font-size="12.00" fill="grey">  Parser::jkmpFunctionDescriptor &gt;</text>
</g>
<!-- Node18 -->
<g id="Node000018" class="node">
<title>Node18</title>
<g id="a_Node000018"><a xlink:title=" ">
<polygon fill="white" stroke="#666666" points="249,-460.5 220,-460.5 220,-439.5 249,-439.5 249,-460.5"/>
<text text-anchor="middle" x="234.5" y="-446.9" font-family="Helvetica,sans-Serif" font-size="12.00">K</text>
</a>
</g>
</g>
<!-- Node18&#45;&gt;Node17 -->
<g id="edge20_Node000017_Node000018" class="edge">
<title>Node18&#45;&gt;Node17</title>
<g id="a_edge20_Node000017_Node000018"><a xlink:title=" ">
<path fill="none" stroke="#9a32cd" stroke-dasharray="5,2" d="M259.29,-448.09C301.7,-444.69 391.5,-437.5 451.31,-432.7"/>
<polygon fill="#9a32cd" stroke="#9a32cd" points="258.8,-444.62 249.11,-448.91 259.36,-451.6 258.8,-444.62"/>
</a>
</g>
<text text-anchor="start" x="345" y="-448.9" font-family="Helvetica,sans-Serif" font-size="12.00" fill="grey">keys</text>
</g>
<!-- Node19&#45;&gt;Node3 -->
<g id="edge22_Node000003_Node000019" class="edge">
<title>Node19&#45;&gt;Node3</title>
<g id="a_edge22_Node000003_Node000019"><a xlink:title=" ">
<path fill="none" stroke="#9a32cd" stroke-dasharray="5,2" d="M1345.24,-213.34C1375.14,-218.38 1406.15,-223.61 1431.89,-227.95"/>
<polygon fill="#9a32cd" stroke="#9a32cd" points="1345.6,-209.85 1335.15,-211.64 1344.43,-216.76 1345.6,-209.85"/>
</a>
</g>
<text text-anchor="start" x="1356.5" y="-229.9" font-family="Helvetica,sans-Serif" font-size="12.00" fill="grey">functions</text>
</g>
<!-- Node20&#45;&gt;Node19 -->
<g id="edge24_Node000019_Node000020" class="edge">
<title>Node20&#45;&gt;Node19</title>
<g id="a_edge24_Node000019_Node000020"><a xlink:title=" ">
<path fill="none" stroke="#9a32cd" stroke-dasharray="5,2" d="M1028.44,-180.58C1059.6,-182.67 1093.25,-184.93 1123.91,-186.98"/>
<polygon fill="#9a32cd" stroke="#9a32cd" points="1028.63,-177.08 1018.42,-179.91 1028.16,-184.07 1028.63,-177.08"/>
</a>
</g>
<text text-anchor="start" x="1047" y="-191.9" font-family="Helvetica,sans-Serif" font-size="12.00" fill="grey">elements</text>
</g>
<!-- Node21&#45;&gt;Node20 -->
<g id="edge25_Node000020_Node000021" class="edge">
<title>Node21&#45;&gt;Node20</title>
<g id="a_edge25_Node000020_Node000021"><a xlink:title=" ">
<path fill="none" stroke="#9a32cd" stroke-dasharray="5,2" d="M617.59,-125.32C668.45,-126.77 730.16,-130.43 785,-139 809.74,-142.86 836.59,-149.56 859.32,-155.99"/>
<polygon fill="#9a32cd" stroke="#9a32cd" points="617.66,-121.82 607.57,-125.06 617.48,-128.82 617.66,-121.82"/>
</a>
</g>
<text text-anchor="start" x="684.5" y="-144.9" font-family="Helvetica,sans-Serif" font-size="12.00" fill="grey">function</text>
</g>
</g>
</svg>
