<?xml version="1.0" encoding="UTF-8" standalone="no"?>
<!DOCTYPE svg PUBLIC "-//W3C//DTD SVG 1.1//EN"
 "http://www.w3.org/Graphics/SVG/1.1/DTD/svg11.dtd">
<!-- Generated by graphviz version 2.43.0 (0)
 -->
<!-- Title: JKQTPCoordinateAxis Pages: 1 -->
<svg width="553pt" height="257pt"
 viewBox="0.00 0.00 553.00 257.00" xmlns="http://www.w3.org/2000/svg" xmlns:xlink="http://www.w3.org/1999/xlink">
<g id="graph0" class="graph" transform="scale(1 1) rotate(0) translate(4 253)">
<title>JKQTPCoordinateAxis</title>
<!-- Node1 -->
<g id="Node000001" class="node">
<title>Node1</title>
<g id="a_Node000001"><a xlink:title="this virtual class is the base for any type of coordinate axis, to be drawn by JKQTBasePlotter.">
<polygon fill="#999999" stroke="#666666" points="265.5,-192 123.5,-192 123.5,-171 265.5,-171 265.5,-192"/>
<text text-anchor="middle" x="194.5" y="-178.4" font-family="Helvetica,sans-Serif" font-size="12.00">JKQTPCoordinateAxis</text>
</a>
</g>
</g>
<!-- Node3 -->
<g id="Node000003" class="node">
<title>Node3</title>
<g id="a_Node000003"><a xlink:href="class_j_k_q_t_p_horizontal_axis_base.html" target="_top" xlink:title="base class for horizontal axes, based on JKQTPCoordinateAxis (for most of documentation: see JKQTPCoo...">
<polygon fill="white" stroke="#666666" points="190,-135 23,-135 23,-114 190,-114 190,-135"/>
<text text-anchor="middle" x="106.5" y="-121.4" font-family="Helvetica,sans-Serif" font-size="12.00">JKQTPHorizontalAxisBase</text>
</a>
</g>
</g>
<!-- Node1&#45;&gt;Node3 -->
<g id="edge2_Node000001_Node000003" class="edge">
<title>Node1&#45;&gt;Node3</title>
<g id="a_edge2_Node000001_Node000003"><a xlink:title=" ">
<path fill="none" stroke="#63b8ff" d="M170.62,-165.58C155.13,-155.9 135.4,-143.57 121.95,-135.16"/>
<polygon fill="#63b8ff" stroke="#63b8ff" points="168.84,-168.59 179.17,-170.92 172.55,-162.65 168.84,-168.59"/>
</a>
</g>
</g>
<!-- Node6 -->
<g id="Node000006" class="node">
<title>Node6</title>
<g id="a_Node000006"><a xlink:href="class_j_k_q_t_p_vertical_axis_base.html" target="_top" xlink:title="base class for vertical axes, based on JKQTPCoordinateAxis (for most of documentation: see JKQTPCoord...">
<polygon fill="white" stroke="#666666" points="359,-135 208,-135 208,-114 359,-114 359,-135"/>
<text text-anchor="middle" x="283.5" y="-121.4" font-family="Helvetica,sans-Serif" font-size="12.00">JKQTPVerticalAxisBase</text>
</a>
</g>
</g>
<!-- Node1&#45;&gt;Node6 -->
<g id="edge5_Node000001_Node000006" class="edge">
<title>Node1&#45;&gt;Node6</title>
<g id="a_edge5_Node000001_Node000006"><a xlink:title=" ">
<path fill="none" stroke="#63b8ff" d="M218.65,-165.58C234.31,-155.9 254.27,-143.57 267.88,-135.16"/>
<polygon fill="#63b8ff" stroke="#63b8ff" points="216.67,-162.69 210,-170.92 220.35,-168.64 216.67,-162.69"/>
</a>
</g>
</g>
<!-- Node2 -->
<g id="Node000002" class="node">
<title>Node2</title>
<g id="a_Node000002"><a xlink:title=" ">
<polygon fill="white" stroke="#666666" points="227,-249 162,-249 162,-228 227,-228 227,-249"/>
<text text-anchor="middle" x="194.5" y="-235.4" font-family="Helvetica,sans-Serif" font-size="12.00">QObject</text>
</a>
</g>
</g>
<!-- Node2&#45;&gt;Node1 -->
<g id="edge1_Node000001_Node000002" class="edge">
<title>Node2&#45;&gt;Node1</title>
<g id="a_edge1_Node000001_Node000002"><a xlink:title=" ">
<path fill="none" stroke="#63b8ff" d="M194.5,-217.86C194.5,-209.2 194.5,-199.42 194.5,-192.34"/>
<polygon fill="#63b8ff" stroke="#63b8ff" points="191,-217.92 194.5,-227.92 198,-217.92 191,-217.92"/>
</a>
</g>
</g>
<!-- Node4 -->
<g id="Node000004" class="node">
<title>Node4</title>
<g id="a_Node000004"><a xlink:href="class_j_k_q_t_p_horizontal_axis.html" target="_top" xlink:title="implements a horizontal axis, based on JKQTPCoordinateAxis (for most of documentation: see JKQTPCoord...">
<polygon fill="white" stroke="#666666" points="175,-78 38,-78 38,-57 175,-57 175,-78"/>
<text text-anchor="middle" x="106.5" y="-64.4" font-family="Helvetica,sans-Serif" font-size="12.00">JKQTPHorizontalAxis</text>
</a>
</g>
</g>
<!-- Node3&#45;&gt;Node4 -->
<g id="edge3_Node000003_Node000004" class="edge">
<title>Node3&#45;&gt;Node4</title>
<g id="a_edge3_Node000003_Node000004"><a xlink:title=" ">
<path fill="none" stroke="#63b8ff" d="M106.5,-103.86C106.5,-95.2 106.5,-85.42 106.5,-78.34"/>
<polygon fill="#63b8ff" stroke="#63b8ff" points="103,-103.92 106.5,-113.92 110,-103.92 103,-103.92"/>
</a>
</g>
</g>
<!-- Node5 -->
<g id="Node000005" class="node">
<title>Node5</title>
<g id="a_Node000005"><a xlink:href="class_j_k_q_t_p_horizontal_independent_axis.html" target="_top" xlink:title="implements a position&#45;indipendent horizontal axis, based on JKQTPCoordinateAxis (for most of document...">
<polygon fill="white" stroke="#666666" points="213,-21 0,-21 0,0 213,0 213,-21"/>
<text text-anchor="middle" x="106.5" y="-7.4" font-family="Helvetica,sans-Serif" font-size="12.00">JKQTPHorizontalIndependentAxis</text>
</a>
</g>
</g>
<!-- Node4&#45;&gt;Node5 -->
<g id="edge4_Node000004_Node000005" class="edge">
<title>Node4&#45;&gt;Node5</title>
<g id="a_edge4_Node000004_Node000005"><a xlink:title=" ">
<path fill="none" stroke="#63b8ff" d="M106.5,-46.86C106.5,-38.2 106.5,-28.42 106.5,-21.34"/>
<polygon fill="#63b8ff" stroke="#63b8ff" points="103,-46.92 106.5,-56.92 110,-46.92 103,-46.92"/>
</a>
</g>
</g>
<!-- Node7 -->
<g id="Node000007" class="node">
<title>Node7</title>
<g id="a_Node000007"><a xlink:href="class_j_k_q_t_p_vertical_axis.html" target="_top" xlink:title="implements a vertical axis for use as primary, secondary, ... axis of a JKQTPBasePlotter,...">
<polygon fill="white" stroke="#666666" points="329.5,-78 207.5,-78 207.5,-57 329.5,-57 329.5,-78"/>
<text text-anchor="middle" x="268.5" y="-64.4" font-family="Helvetica,sans-Serif" font-size="12.00">JKQTPVerticalAxis</text>
</a>
</g>
</g>
<!-- Node6&#45;&gt;Node7 -->
<g id="edge6_Node000006_Node000007" class="edge">
<title>Node6&#45;&gt;Node7</title>
<g id="a_edge6_Node000006_Node000007"><a xlink:title=" ">
<path fill="none" stroke="#63b8ff" d="M278.22,-104.14C275.84,-95.42 273.14,-85.5 271.18,-78.34"/>
<polygon fill="#63b8ff" stroke="#63b8ff" points="274.88,-105.19 280.89,-113.92 281.63,-103.35 274.88,-105.19"/>
</a>
</g>
</g>
<!-- Node8 -->
<g id="Node000008" class="node">
<title>Node8</title>
<g id="a_Node000008"><a xlink:href="class_j_k_q_t_p_vertical_independent_axis.html" target="_top" xlink:title="implements a position&#45;indipendent vertical axis, based on JKQTPCoordinateAxis (for most of documentat...">
<polygon fill="white" stroke="#666666" points="545,-78 348,-78 348,-57 545,-57 545,-78"/>
<text text-anchor="middle" x="446.5" y="-64.4" font-family="Helvetica,sans-Serif" font-size="12.00">JKQTPVerticalIndependentAxis</text>
</a>
</g>
</g>
<!-- Node6&#45;&gt;Node8 -->
<g id="edge7_Node000006_Node000008" class="edge">
<title>Node6&#45;&gt;Node8</title>
<g id="a_edge7_Node000006_Node000008"><a xlink:title=" ">
<path fill="none" stroke="#63b8ff" d="M321.47,-110.69C351.02,-100.72 391.38,-87.1 418.16,-78.06"/>
<polygon fill="#63b8ff" stroke="#63b8ff" points="320.25,-107.41 311.89,-113.92 322.49,-114.04 320.25,-107.41"/>
</a>
</g>
</g>
</g>
</svg>
