<?xml version="1.0" encoding="UTF-8" standalone="no"?>
<!DOCTYPE svg PUBLIC "-//W3C//DTD SVG 1.1//EN"
 "http://www.w3.org/Graphics/SVG/1.1/DTD/svg11.dtd">
<!-- Generated by graphviz version 2.43.0 (0)
 -->
<!-- Title: JKQTPMathParser::jkmpNodeList Pages: 1 -->
<svg width="2603pt" height="554pt"
 viewBox="0.00 0.00 2603.00 554.25" xmlns="http://www.w3.org/2000/svg" xmlns:xlink="http://www.w3.org/1999/xlink">
<g id="graph0" class="graph" transform="scale(1 1) rotate(0) translate(4 550.25)">
<title>JKQTPMathParser::jkmpNodeList</title>
<!-- Node1 -->
<g id="Node000001" class="node">
<title>Node1</title>
<g id="a_Node000001"><a xlink:title="This class represents a list of jkmpNode.">
<polygon fill="#999999" stroke="#666666" points="2595,-268.75 2386,-268.75 2386,-247.75 2595,-247.75 2595,-268.75"/>
<text text-anchor="middle" x="2490.5" y="-255.15" font-family="Helvetica,sans-Serif" font-size="12.00">JKQTPMathParser::jkmpNodeList</text>
</a>
</g>
</g>
<!-- Node2 -->
<g id="Node000002" class="node">
<title>Node2</title>
<g id="a_Node000002"><a xlink:href="class_j_k_q_t_p_math_parser_1_1jkmp_node.html" target="_top" xlink:title="This class is the abstract base class for nodes. All allowed node types must inherit from jkmpNode.">
<polygon fill="white" stroke="#666666" points="2031,-290.75 1843,-290.75 1843,-269.75 2031,-269.75 2031,-290.75"/>
<text text-anchor="middle" x="1937" y="-277.15" font-family="Helvetica,sans-Serif" font-size="12.00">JKQTPMathParser::jkmpNode</text>
</a>
</g>
</g>
<!-- Node2&#45;&gt;Node1 -->
<g id="edge1_Node000001_Node000002" class="edge">
<title>Node2&#45;&gt;Node1</title>
<g id="a_edge1_Node000001_Node000002"><a xlink:title=" ">
<path fill="none" stroke="#63b8ff" d="M2041.3,-277.85C2128.42,-275.6 2256.41,-271.74 2368,-266.25 2373.81,-265.97 2379.77,-265.65 2385.78,-265.31"/>
<polygon fill="#63b8ff" stroke="#63b8ff" points="2041.05,-274.36 2031.14,-278.11 2041.23,-281.36 2041.05,-274.36"/>
</a>
</g>
</g>
<!-- Node2&#45;&gt;Node2 -->
<g id="edge29_Node000002_Node000002" class="edge">
<title>Node2&#45;&gt;Node2</title>
<g id="a_edge29_Node000002_Node000002"><a xlink:title=" ">
<path fill="none" stroke="#9a32cd" stroke-dasharray="5,2" d="M1912.31,-300.33C1914.21,-305.17 1922.44,-308.75 1937,-308.75 1960.29,-308.75 1967.39,-299.57 1958.29,-290.78"/>
<polygon fill="#9a32cd" stroke="#9a32cd" points="1915.65,-301.37 1915.71,-290.78 1909.06,-299.02 1915.65,-301.37"/>
</a>
</g>
<text text-anchor="start" x="1917" y="-314.65" font-family="Helvetica,sans-Serif" font-size="12.00" fill="grey">parent</text>
</g>
<!-- Node22 -->
<g id="Node000022" class="node">
<title>Node22</title>
<g id="a_Node000022"><a xlink:title=" ">
<polygon fill="white" stroke="#666666" points="2327,-252.25 2129,-252.25 2129,-218.25 2327,-218.25 2327,-252.25"/>
<text text-anchor="start" x="2137" y="-238.65" font-family="Helvetica,sans-Serif" font-size="12.00">std::vector&lt; JKQTPMathParser</text>
<text text-anchor="middle" x="2228" y="-225.65" font-family="Helvetica,sans-Serif" font-size="12.00">::jkmpNode * &gt;</text>
</a>
</g>
</g>
<!-- Node2&#45;&gt;Node22 -->
<g id="edge31_Node000022_Node000002" class="edge">
<title>Node2&#45;&gt;Node22</title>
<g id="a_edge31_Node000022_Node000002"><a xlink:title=" ">
<path fill="none" stroke="#9a32cd" stroke-dasharray="5,2" d="M1976.81,-266.41C1997.89,-259.48 2024.57,-251.65 2049,-247.25 2074.61,-242.64 2102.57,-239.77 2128.59,-237.98"/>
<polygon fill="#9a32cd" stroke="#9a32cd" points="1975.62,-263.12 1967.25,-269.62 1977.84,-269.76 1975.62,-263.12"/>
</a>
</g>
<text text-anchor="start" x="2052" y="-253.15" font-family="Helvetica,sans-Serif" font-size="12.00" fill="grey">elements</text>
</g>
<!-- Node3 -->
<g id="Node000003" class="node">
<title>Node3</title>
<g id="a_Node000003"><a xlink:href="class_j_k_q_t_p_math_parser.html" target="_top" xlink:title="A simple function parser to parse (build memory tree representation) and evaluate simple mathematical...">
<polygon fill="white" stroke="#666666" points="1756,-354.75 1635,-354.75 1635,-333.75 1756,-333.75 1756,-354.75"/>
<text text-anchor="middle" x="1695.5" y="-341.15" font-family="Helvetica,sans-Serif" font-size="12.00">JKQTPMathParser</text>
</a>
</g>
</g>
<!-- Node3&#45;&gt;Node2 -->
<g id="edge2_Node000002_Node000003" class="edge">
<title>Node3&#45;&gt;Node2</title>
<g id="a_edge2_Node000002_Node000003"><a xlink:title=" ">
<path fill="none" stroke="#9a32cd" stroke-dasharray="5,2" d="M1745.79,-331.08C1790.35,-319.17 1855.12,-301.87 1896.39,-290.84"/>
<polygon fill="#9a32cd" stroke="#9a32cd" points="1744.81,-327.72 1736.05,-333.69 1746.61,-334.49 1744.81,-327.72"/>
</a>
</g>
<text text-anchor="start" x="1782" y="-328.15" font-family="Helvetica,sans-Serif" font-size="12.00" fill="grey">parser</text>
</g>
<!-- Node4 -->
<g id="Node000004" class="node">
<title>Node4</title>
<g id="a_Node000004"><a xlink:title=" ">
<polygon fill="white" stroke="#666666" points="272.5,-311.75 196.5,-311.75 196.5,-290.75 272.5,-290.75 272.5,-311.75"/>
<text text-anchor="middle" x="234.5" y="-298.15" font-family="Helvetica,sans-Serif" font-size="12.00">std::string</text>
</a>
</g>
</g>
<!-- Node4&#45;&gt;Node3 -->
<g id="edge3_Node000003_Node000004" class="edge">
<title>Node4&#45;&gt;Node3</title>
<g id="a_edge3_Node000003_Node000004"><a xlink:title=" ">
<path fill="none" stroke="#9a32cd" stroke-dasharray="5,2" d="M247.33,-320.35C262.88,-343.81 292.45,-383.09 328,-404.25 388.67,-440.38 411.89,-441.25 482.5,-441.25 482.5,-441.25 482.5,-441.25 1391.5,-441.25 1503.9,-441.25 1629.07,-379.96 1675.68,-354.82"/>
<polygon fill="#9a32cd" stroke="#9a32cd" points="250.26,-318.43 241.89,-311.93 244.37,-322.23 250.26,-318.43"/>
</a>
</g>
<text text-anchor="start" x="853.5" y="-481.15" font-family="Helvetica,sans-Serif" font-size="12.00" fill="grey">StringValue</text>
<text text-anchor="start" x="853.5" y="-464.15" font-family="Helvetica,sans-Serif" font-size="12.00" fill="grey">jkmathparser_exception</text>
<text text-anchor="start" x="853.5" y="-447.15" font-family="Helvetica,sans-Serif" font-size="12.00" fill="grey">  _function</text>
</g>
<!-- Node12 -->
<g id="Node000012" class="node">
<title>Node12</title>
<g id="a_Node000012"><a xlink:href="struct_j_k_q_t_p_math_parser_1_1jkmp_temp_variable.html" target="_top" xlink:title="This struct is for managing temporary variables. It is generally like jkmpVariable.">
<polygon fill="white" stroke="#666666" points="795.5,-401.25 606.5,-401.25 606.5,-367.25 795.5,-367.25 795.5,-401.25"/>
<text text-anchor="start" x="614.5" y="-387.65" font-family="Helvetica,sans-Serif" font-size="12.00">JKQTPMathParser::jkmpTemp</text>
<text text-anchor="middle" x="701" y="-374.65" font-family="Helvetica,sans-Serif" font-size="12.00">Variable</text>
</a>
</g>
</g>
<!-- Node4&#45;&gt;Node12 -->
<g id="edge12_Node000012_Node000004" class="edge">
<title>Node4&#45;&gt;Node12</title>
<g id="a_edge12_Node000012_Node000004"><a xlink:title=" ">
<path fill="none" stroke="#9a32cd" stroke-dasharray="5,2" d="M257.9,-317.87C275.87,-330.23 302.26,-346.28 328,-354.25 419.6,-382.63 529.62,-388.22 606.15,-387.89"/>
<polygon fill="#9a32cd" stroke="#9a32cd" points="259.51,-314.72 249.32,-311.81 255.47,-320.44 259.51,-314.72"/>
</a>
</g>
<text text-anchor="start" x="331.5" y="-387.65" font-family="Helvetica,sans-Serif" font-size="12.00" fill="grey">name</text>
<text text-anchor="start" x="331.5" y="-370.65" font-family="Helvetica,sans-Serif" font-size="12.00" fill="grey">str</text>
</g>
<!-- Node15 -->
<g id="Node000015" class="node">
<title>Node15</title>
<g id="a_Node000015"><a xlink:title=" ">
<polygon fill="white" stroke="#666666" points="1502,-116.25 1279,-116.25 1279,-82.25 1502,-82.25 1502,-116.25"/>
<text text-anchor="start" x="1287" y="-102.65" font-family="Helvetica,sans-Serif" font-size="12.00">std::map&lt; std::string,</text>
<text text-anchor="middle" x="1390.5" y="-89.65" font-family="Helvetica,sans-Serif" font-size="12.00"> JKQTPMathParser::jkmpVariable &gt;</text>
</a>
</g>
</g>
<!-- Node4&#45;&gt;Node15 -->
<g id="edge16_Node000015_Node000004" class="edge">
<title>Node4&#45;&gt;Node15</title>
<g id="a_edge16_Node000015_Node000004"><a xlink:title=" ">
<path fill="none" stroke="#9a32cd" stroke-dasharray="5,2" d="M240.84,-280.91C254.9,-232.32 298.12,-110.69 387,-72.25 721,72.17 1177.83,-37.22 1334.31,-82.25"/>
<polygon fill="#9a32cd" stroke="#9a32cd" points="237.45,-280.04 238.15,-290.61 244.2,-281.92 237.45,-280.04"/>
</a>
</g>
<text text-anchor="start" x="687" y="-19.15" font-family="Helvetica,sans-Serif" font-size="12.00" fill="grey">keys</text>
</g>
<!-- Node16 -->
<g id="Node000016" class="node">
<title>Node16</title>
<g id="a_Node000016"><a xlink:href="struct_j_k_q_t_p_math_parser_1_1jkmp_variable.html" target="_top" xlink:title="This struct is for managing variables. Unlike jkmpResult this struct only contains pointers to the da...">
<polygon fill="white" stroke="#666666" points="804,-97.75 598,-97.75 598,-76.75 804,-76.75 804,-97.75"/>
<text text-anchor="middle" x="701" y="-84.15" font-family="Helvetica,sans-Serif" font-size="12.00">JKQTPMathParser::jkmpVariable</text>
</a>
</g>
</g>
<!-- Node4&#45;&gt;Node16 -->
<g id="edge18_Node000016_Node000004" class="edge">
<title>Node4&#45;&gt;Node16</title>
<g id="a_edge18_Node000016_Node000004"><a xlink:title=" ">
<path fill="none" stroke="#9a32cd" stroke-dasharray="5,2" d="M244.62,-281.42C264.2,-241.45 314.44,-151.74 387,-113.25 456.61,-76.33 547.36,-72.81 613.21,-76.74"/>
<polygon fill="#9a32cd" stroke="#9a32cd" points="241.36,-280.13 240.21,-290.66 247.68,-283.15 241.36,-280.13"/>
</a>
</g>
<text text-anchor="start" x="340.5" y="-165.15" font-family="Helvetica,sans-Serif" font-size="12.00" fill="grey">str</text>
</g>
<!-- Node19 -->
<g id="Node000019" class="node">
<title>Node19</title>
<g id="a_Node000019"><a xlink:title=" ">
<polygon fill="white" stroke="#666666" points="1496,-340.75 1285,-340.75 1285,-293.75 1496,-293.75 1496,-340.75"/>
<text text-anchor="start" x="1293" y="-327.15" font-family="Helvetica,sans-Serif" font-size="12.00">std::map&lt; std::string,</text>
<text text-anchor="start" x="1293" y="-314.15" font-family="Helvetica,sans-Serif" font-size="12.00"> JKQTPMathParser::jkmpFunction</text>
<text text-anchor="middle" x="1390.5" y="-301.15" font-family="Helvetica,sans-Serif" font-size="12.00">Descriptor &gt;</text>
</a>
</g>
</g>
<!-- Node4&#45;&gt;Node19 -->
<g id="edge23_Node000019_Node000004" class="edge">
<title>Node4&#45;&gt;Node19</title>
<g id="a_edge23_Node000019_Node000004"><a xlink:title=" ">
<path fill="none" stroke="#9a32cd" stroke-dasharray="5,2" d="M279.51,-314.39C294.73,-318.34 311.98,-322.18 328,-324.25 486.47,-344.78 887.21,-333.14 1047,-334.25 1142.11,-334.92 1166.09,-340.5 1261,-334.25 1268.75,-333.74 1276.74,-333.06 1284.77,-332.26"/>
<polygon fill="#9a32cd" stroke="#9a32cd" points="280.41,-311 269.84,-311.79 278.59,-317.77 280.41,-311"/>
</a>
</g>
<text text-anchor="start" x="687" y="-343.15" font-family="Helvetica,sans-Serif" font-size="12.00" fill="grey">keys</text>
</g>
<!-- Node20 -->
<g id="Node000020" class="node">
<title>Node20</title>
<g id="a_Node000020"><a xlink:href="struct_j_k_q_t_p_math_parser_1_1jkmp_function_descriptor.html" target="_top" xlink:title="description of a user registered function">
<polygon fill="white" stroke="#666666" points="1029,-312.25 822,-312.25 822,-278.25 1029,-278.25 1029,-312.25"/>
<text text-anchor="start" x="830" y="-298.65" font-family="Helvetica,sans-Serif" font-size="12.00">JKQTPMathParser::jkmpFunction</text>
<text text-anchor="middle" x="925.5" y="-285.65" font-family="Helvetica,sans-Serif" font-size="12.00">Descriptor</text>
</a>
</g>
</g>
<!-- Node4&#45;&gt;Node20 -->
<g id="edge27_Node000020_Node000004" class="edge">
<title>Node4&#45;&gt;Node20</title>
<g id="a_edge27_Node000020_Node000004"><a xlink:title=" ">
<path fill="none" stroke="#9a32cd" stroke-dasharray="5,2" d="M276.71,-287.64C306.88,-278.42 348.99,-267.07 387,-262.25 539.58,-242.93 718,-262.07 826.06,-278.21"/>
<polygon fill="#9a32cd" stroke="#9a32cd" points="275.48,-284.36 266.97,-290.67 277.56,-291.04 275.48,-284.36"/>
</a>
</g>
<text text-anchor="start" x="466.5" y="-268.15" font-family="Helvetica,sans-Serif" font-size="12.00" fill="grey">name</text>
</g>
<!-- Node21 -->
<g id="Node000021" class="node">
<title>Node21</title>
<g id="a_Node000021"><a xlink:href="struct_j_k_q_t_p_math_parser_1_1jkmp_result.html" target="_top" xlink:title="result of any expression">
<polygon fill="white" stroke="#666666" points="580,-311.75 387,-311.75 387,-290.75 580,-290.75 580,-311.75"/>
<text text-anchor="middle" x="483.5" y="-298.15" font-family="Helvetica,sans-Serif" font-size="12.00">JKQTPMathParser::jkmpResult</text>
</a>
</g>
</g>
<!-- Node4&#45;&gt;Node21 -->
<g id="edge26_Node000021_Node000004" class="edge">
<title>Node4&#45;&gt;Node21</title>
<g id="a_edge26_Node000021_Node000004"><a xlink:title=" ">
<path fill="none" stroke="#9a32cd" stroke-dasharray="5,2" d="M282.76,-301.25C312.25,-301.25 351.26,-301.25 386.98,-301.25"/>
<polygon fill="#9a32cd" stroke="#9a32cd" points="282.75,-297.75 272.75,-301.25 282.75,-304.75 282.75,-297.75"/>
</a>
</g>
<text text-anchor="start" x="340.5" y="-307.15" font-family="Helvetica,sans-Serif" font-size="12.00" fill="grey">str</text>
</g>
<!-- Node5 -->
<g id="Node000005" class="node">
<title>Node5</title>
<g id="a_Node000005"><a xlink:title=" ">
<polygon fill="white" stroke="#666666" points="122,-318.25 0,-318.25 0,-284.25 122,-284.25 122,-318.25"/>
<text text-anchor="start" x="8" y="-304.65" font-family="Helvetica,sans-Serif" font-size="12.00">std::basic_string&lt;</text>
<text text-anchor="middle" x="61" y="-291.65" font-family="Helvetica,sans-Serif" font-size="12.00"> Char &gt;</text>
</a>
</g>
</g>
<!-- Node5&#45;&gt;Node4 -->
<g id="edge4_Node000004_Node000005" class="edge">
<title>Node5&#45;&gt;Node4</title>
<g id="a_edge4_Node000004_Node000005"><a xlink:title=" ">
<path fill="none" stroke="#63b8ff" d="M132.74,-301.25C154.63,-301.25 177.86,-301.25 196.5,-301.25"/>
<polygon fill="#63b8ff" stroke="#63b8ff" points="132.46,-297.75 122.46,-301.25 132.46,-304.75 132.46,-297.75"/>
</a>
</g>
</g>
<!-- Node6 -->
<g id="Node000006" class="node">
<title>Node6</title>
<g id="a_Node000006"><a xlink:title=" ">
<polygon fill="white" stroke="#666666" points="1451,-502.75 1330,-502.75 1330,-481.75 1451,-481.75 1451,-502.75"/>
<text text-anchor="middle" x="1390.5" y="-489.15" font-family="Helvetica,sans-Serif" font-size="12.00">std::istringstream</text>
</a>
</g>
</g>
<!-- Node6&#45;&gt;Node3 -->
<g id="edge5_Node000003_Node000006" class="edge">
<title>Node6&#45;&gt;Node3</title>
<g id="a_edge5_Node000003_Node000006"><a xlink:title=" ">
<path fill="none" stroke="#9a32cd" stroke-dasharray="5,2" d="M1461.54,-493.65C1507.38,-491.55 1566.9,-482.84 1612,-455.25 1652.56,-430.45 1679.73,-377.61 1689.96,-354.95"/>
<polygon fill="#9a32cd" stroke="#9a32cd" points="1461.25,-490.16 1451.39,-494.02 1461.51,-497.16 1461.25,-490.16"/>
</a>
</g>
<text text-anchor="start" x="1540" y="-493.15" font-family="Helvetica,sans-Serif" font-size="12.00" fill="grey">program</text>
</g>
<!-- Node7 -->
<g id="Node000007" class="node">
<title>Node7</title>
<g id="a_Node000007"><a xlink:title=" ">
<polygon fill="white" stroke="#666666" points="1004.5,-546.25 846.5,-546.25 846.5,-512.25 1004.5,-512.25 1004.5,-546.25"/>
<text text-anchor="start" x="854.5" y="-532.65" font-family="Helvetica,sans-Serif" font-size="12.00">std::basic_istringstream</text>
<text text-anchor="middle" x="925.5" y="-519.65" font-family="Helvetica,sans-Serif" font-size="12.00">&lt; Char &gt;</text>
</a>
</g>
</g>
<!-- Node7&#45;&gt;Node6 -->
<g id="edge6_Node000006_Node000007" class="edge">
<title>Node7&#45;&gt;Node6</title>
<g id="a_edge6_Node000006_Node000007"><a xlink:title=" ">
<path fill="none" stroke="#63b8ff" d="M1014.7,-522.21C1107.19,-514.81 1249.97,-503.4 1329.96,-497.01"/>
<polygon fill="#63b8ff" stroke="#63b8ff" points="1014.21,-518.73 1004.52,-523.02 1014.77,-525.71 1014.21,-518.73"/>
</a>
</g>
</g>
<!-- Node8 -->
<g id="Node000008" class="node">
<title>Node8</title>
<g id="a_Node000008"><a xlink:title=" ">
<polygon fill="white" stroke="#666666" points="545.5,-546.25 421.5,-546.25 421.5,-512.25 545.5,-512.25 545.5,-546.25"/>
<text text-anchor="start" x="429.5" y="-532.65" font-family="Helvetica,sans-Serif" font-size="12.00">std::basic_istream</text>
<text text-anchor="middle" x="483.5" y="-519.65" font-family="Helvetica,sans-Serif" font-size="12.00">&lt; Char &gt;</text>
</a>
</g>
</g>
<!-- Node8&#45;&gt;Node7 -->
<g id="edge7_Node000007_Node000008" class="edge">
<title>Node8&#45;&gt;Node7</title>
<g id="a_edge7_Node000007_Node000008"><a xlink:title=" ">
<path fill="none" stroke="#63b8ff" d="M556.11,-529.25C635.81,-529.25 764.19,-529.25 846.42,-529.25"/>
<polygon fill="#63b8ff" stroke="#63b8ff" points="555.68,-525.75 545.68,-529.25 555.68,-532.75 555.68,-525.75"/>
</a>
</g>
</g>
<!-- Node9 -->
<g id="Node000009" class="node">
<title>Node9</title>
<g id="a_Node000009"><a xlink:title=" ">
<polygon fill="white" stroke="#666666" points="310,-539.75 159,-539.75 159,-518.75 310,-518.75 310,-539.75"/>
<text text-anchor="middle" x="234.5" y="-526.15" font-family="Helvetica,sans-Serif" font-size="12.00">std::basic_ios&lt; Char &gt;</text>
</a>
</g>
</g>
<!-- Node9&#45;&gt;Node8 -->
<g id="edge8_Node000008_Node000009" class="edge">
<title>Node9&#45;&gt;Node8</title>
<g id="a_edge8_Node000008_Node000009"><a xlink:title=" ">
<path fill="none" stroke="#63b8ff" d="M320.42,-529.25C353.56,-529.25 390.82,-529.25 421.25,-529.25"/>
<polygon fill="#63b8ff" stroke="#63b8ff" points="320.28,-525.75 310.28,-529.25 320.28,-532.75 320.28,-525.75"/>
</a>
</g>
</g>
<!-- Node10 -->
<g id="Node000010" class="node">
<title>Node10</title>
<g id="a_Node000010"><a xlink:title=" ">
<polygon fill="white" stroke="#666666" points="107.5,-539.75 14.5,-539.75 14.5,-518.75 107.5,-518.75 107.5,-539.75"/>
<text text-anchor="middle" x="61" y="-526.15" font-family="Helvetica,sans-Serif" font-size="12.00">std::ios_base</text>
</a>
</g>
</g>
<!-- Node10&#45;&gt;Node9 -->
<g id="edge9_Node000009_Node000010" class="edge">
<title>Node10&#45;&gt;Node9</title>
<g id="a_edge9_Node000009_Node000010"><a xlink:title=" ">
<path fill="none" stroke="#63b8ff" d="M117.78,-529.25C130.91,-529.25 145.11,-529.25 158.91,-529.25"/>
<polygon fill="#63b8ff" stroke="#63b8ff" points="117.51,-525.75 107.51,-529.25 117.51,-532.75 117.51,-525.75"/>
</a>
</g>
</g>
<!-- Node11 -->
<g id="Node000011" class="node">
<title>Node11</title>
<g id="a_Node000011"><a xlink:title=" ">
<polygon fill="white" stroke="#666666" points="1489.5,-393.25 1291.5,-393.25 1291.5,-359.25 1489.5,-359.25 1489.5,-393.25"/>
<text text-anchor="start" x="1299.5" y="-379.65" font-family="Helvetica,sans-Serif" font-size="12.00">std::vector&lt; JKQTPMathParser</text>
<text text-anchor="middle" x="1390.5" y="-366.65" font-family="Helvetica,sans-Serif" font-size="12.00">::jkmpTempVariable &gt;</text>
</a>
</g>
</g>
<!-- Node11&#45;&gt;Node3 -->
<g id="edge10_Node000003_Node000011" class="edge">
<title>Node11&#45;&gt;Node3</title>
<g id="a_edge10_Node000003_Node000011"><a xlink:title=" ">
<path fill="none" stroke="#9a32cd" stroke-dasharray="5,2" d="M1500.08,-364.79C1545.54,-359.99 1596.61,-354.59 1635,-350.54"/>
<polygon fill="#9a32cd" stroke="#9a32cd" points="1499.45,-361.33 1489.88,-365.86 1500.19,-368.29 1499.45,-361.33"/>
</a>
</g>
<text text-anchor="start" x="1523" y="-368.15" font-family="Helvetica,sans-Serif" font-size="12.00" fill="grey">tempvariables</text>
</g>
<!-- Node12&#45;&gt;Node11 -->
<g id="edge11_Node000011_Node000012" class="edge">
<title>Node12&#45;&gt;Node11</title>
<g id="a_edge11_Node000011_Node000012"><a xlink:title=" ">
<path fill="none" stroke="#9a32cd" stroke-dasharray="5,2" d="M805.88,-383.04C937.48,-381.51 1162.59,-378.89 1291.38,-377.4"/>
<polygon fill="#9a32cd" stroke="#9a32cd" points="805.75,-379.55 795.79,-383.16 805.83,-386.55 805.75,-379.55"/>
</a>
</g>
<text text-anchor="start" x="897.5" y="-389.15" font-family="Helvetica,sans-Serif" font-size="12.00" fill="grey">elements</text>
</g>
<!-- Node13 -->
<g id="Node000013" class="node">
<title>Node13</title>
<g id="a_Node000013"><a xlink:title=" ">
<polygon fill="white" stroke="#666666" points="983,-227.75 868,-227.75 868,-206.75 983,-206.75 983,-227.75"/>
<text text-anchor="middle" x="925.5" y="-214.15" font-family="Helvetica,sans-Serif" font-size="12.00">std::vector&lt; T &gt;</text>
</a>
</g>
</g>
<!-- Node13&#45;&gt;Node11 -->
<g id="edge13_Node000011_Node000013" class="edge">
<title>Node13&#45;&gt;Node11</title>
<g id="a_edge13_Node000011_Node000013"><a xlink:title=" ">
<path fill="none" stroke="orange" stroke-dasharray="5,2" d="M993.24,-228.27C1010.72,-231.02 1029.55,-233.86 1047,-236.25 1094.43,-242.76 1225.73,-228.88 1261,-261.25 1290.41,-288.25 1251.31,-320.5 1279,-349.25 1282.7,-353.09 1286.85,-356.43 1291.31,-359.31"/>
<polygon fill="orange" stroke="orange" points="993.56,-224.77 983.13,-226.66 992.46,-231.69 993.56,-224.77"/>
</a>
</g>
<text text-anchor="start" x="1088" y="-284.65" font-family="Helvetica,sans-Serif" font-size="12.00" fill="grey">&lt; JKQTPMathParser::</text>
<text text-anchor="start" x="1088" y="-267.65" font-family="Helvetica,sans-Serif" font-size="12.00" fill="grey">  jkmpTempVariable &gt;</text>
</g>
<!-- Node13&#45;&gt;Node22 -->
<g id="edge32_Node000022_Node000013" class="edge">
<title>Node13&#45;&gt;Node22</title>
<g id="a_edge32_Node000022_Node000013"><a xlink:title=" ">
<path fill="none" stroke="orange" stroke-dasharray="5,2" d="M963.35,-203.24C986.91,-194.96 1018.31,-185.16 1047,-180.25 1197.17,-154.57 1237.15,-166.25 1389.5,-166.25 1389.5,-166.25 1389.5,-166.25 1938,-166.25 2027.24,-166.25 2127.85,-197.76 2183.7,-218.2"/>
<polygon fill="orange" stroke="orange" points="962,-200 953.77,-206.67 964.36,-206.59 962,-200"/>
</a>
</g>
<text text-anchor="start" x="1633.5" y="-189.65" font-family="Helvetica,sans-Serif" font-size="12.00" fill="grey">&lt; JKQTPMathParser::</text>
<text text-anchor="start" x="1633.5" y="-172.65" font-family="Helvetica,sans-Serif" font-size="12.00" fill="grey">  jkmpNode * &gt;</text>
</g>
<!-- Node14 -->
<g id="Node000014" class="node">
<title>Node14</title>
<g id="a_Node000014"><a xlink:title=" ">
<polygon fill="white" stroke="#666666" points="498,-201.75 469,-201.75 469,-180.75 498,-180.75 498,-201.75"/>
<text text-anchor="middle" x="483.5" y="-188.15" font-family="Helvetica,sans-Serif" font-size="12.00">T</text>
</a>
</g>
</g>
<!-- Node14&#45;&gt;Node13 -->
<g id="edge14_Node000013_Node000014" class="edge">
<title>Node14&#45;&gt;Node13</title>
<g id="a_edge14_Node000013_Node000014"><a xlink:title=" ">
<path fill="none" stroke="#9a32cd" stroke-dasharray="5,2" d="M508.21,-192.66C575.78,-196.65 770.68,-208.16 867.93,-213.91"/>
<polygon fill="#9a32cd" stroke="#9a32cd" points="508.34,-189.16 498.15,-192.06 507.93,-196.14 508.34,-189.16"/>
</a>
</g>
<text text-anchor="start" x="673" y="-216.15" font-family="Helvetica,sans-Serif" font-size="12.00" fill="grey">elements</text>
</g>
<!-- Node17 -->
<g id="Node000017" class="node">
<title>Node17</title>
<g id="a_Node000017"><a xlink:title=" ">
<polygon fill="white" stroke="#666666" points="985,-164.75 866,-164.75 866,-143.75 985,-143.75 985,-164.75"/>
<text text-anchor="middle" x="925.5" y="-151.15" font-family="Helvetica,sans-Serif" font-size="12.00">std::map&lt; K, T &gt;</text>
</a>
</g>
</g>
<!-- Node14&#45;&gt;Node17 -->
<g id="edge21_Node000017_Node000014" class="edge">
<title>Node14&#45;&gt;Node17</title>
<g id="a_edge21_Node000017_Node000014"><a xlink:title=" ">
<path fill="none" stroke="#9a32cd" stroke-dasharray="5,2" d="M508.23,-187.37C531.15,-183.75 566.87,-178.44 598,-175.25 691.52,-165.67 800.58,-159.7 866,-156.68"/>
<polygon fill="#9a32cd" stroke="#9a32cd" points="507.41,-183.96 498.09,-189 508.51,-190.87 507.41,-183.96"/>
</a>
</g>
<text text-anchor="start" x="673" y="-181.15" font-family="Helvetica,sans-Serif" font-size="12.00" fill="grey">elements</text>
</g>
<!-- Node15&#45;&gt;Node3 -->
<g id="edge15_Node000003_Node000015" class="edge">
<title>Node15&#45;&gt;Node3</title>
<g id="a_edge15_Node000003_Node000015"><a xlink:title=" ">
<path fill="none" stroke="#9a32cd" stroke-dasharray="5,2" d="M1420.92,-123.04C1485.14,-174.97 1635.81,-296.8 1681.28,-333.56"/>
<polygon fill="#9a32cd" stroke="#9a32cd" points="1422.78,-120.05 1412.81,-116.48 1418.38,-125.49 1422.78,-120.05"/>
</a>
</g>
<text text-anchor="start" x="1539" y="-278.15" font-family="Helvetica,sans-Serif" font-size="12.00" fill="grey">variables</text>
</g>
<!-- Node16&#45;&gt;Node15 -->
<g id="edge17_Node000015_Node000016" class="edge">
<title>Node16&#45;&gt;Node15</title>
<g id="a_edge17_Node000015_Node000016"><a xlink:title=" ">
<path fill="none" stroke="#9a32cd" stroke-dasharray="5,2" d="M814.04,-88.82C926.91,-90.45 1106.04,-93.2 1261,-96.25 1266.8,-96.37 1272.75,-96.49 1278.75,-96.62"/>
<polygon fill="#9a32cd" stroke="#9a32cd" points="814.06,-85.32 804.01,-88.67 813.96,-92.32 814.06,-85.32"/>
</a>
</g>
<text text-anchor="start" x="897.5" y="-98.15" font-family="Helvetica,sans-Serif" font-size="12.00" fill="grey">elements</text>
</g>
<!-- Node17&#45;&gt;Node15 -->
<g id="edge19_Node000015_Node000017" class="edge">
<title>Node17&#45;&gt;Node15</title>
<g id="a_edge19_Node000015_Node000017"><a xlink:title=" ">
<path fill="none" stroke="orange" stroke-dasharray="5,2" d="M962.87,-140.1C986.47,-131.59 1018.1,-121.44 1047,-116.25 1123.62,-102.51 1211.32,-98.37 1278.79,-97.61"/>
<polygon fill="orange" stroke="orange" points="961.46,-136.89 953.28,-143.63 963.87,-143.46 961.46,-136.89"/>
</a>
</g>
<text text-anchor="start" x="1081" y="-139.65" font-family="Helvetica,sans-Serif" font-size="12.00" fill="grey">&lt; std::string, JKQTPMath</text>
<text text-anchor="start" x="1081" y="-122.65" font-family="Helvetica,sans-Serif" font-size="12.00" fill="grey">  Parser::jkmpVariable &gt;</text>
</g>
<!-- Node17&#45;&gt;Node19 -->
<g id="edge28_Node000019_Node000017" class="edge">
<title>Node17&#45;&gt;Node19</title>
<g id="a_edge28_Node000019_Node000017"><a xlink:title=" ">
<path fill="none" stroke="orange" stroke-dasharray="5,2" d="M995.39,-157.87C1079.25,-163.15 1215.32,-174.74 1261,-196.25 1308.54,-218.64 1350.06,-265.34 1372.28,-293.73"/>
<polygon fill="orange" stroke="orange" points="995.38,-154.37 985.18,-157.25 994.95,-161.35 995.38,-154.37"/>
</a>
</g>
<text text-anchor="start" x="1050" y="-219.65" font-family="Helvetica,sans-Serif" font-size="12.00" fill="grey">&lt; std::string, JKQTPMath</text>
<text text-anchor="start" x="1050" y="-202.65" font-family="Helvetica,sans-Serif" font-size="12.00" fill="grey">  Parser::jkmpFunctionDescriptor &gt;</text>
</g>
<!-- Node18 -->
<g id="Node000018" class="node">
<title>Node18</title>
<g id="a_Node000018"><a xlink:title=" ">
<polygon fill="white" stroke="#666666" points="498,-143.75 469,-143.75 469,-122.75 498,-122.75 498,-143.75"/>
<text text-anchor="middle" x="483.5" y="-130.15" font-family="Helvetica,sans-Serif" font-size="12.00">K</text>
</a>
</g>
</g>
<!-- Node18&#45;&gt;Node17 -->
<g id="edge20_Node000017_Node000018" class="edge">
<title>Node18&#45;&gt;Node17</title>
<g id="a_edge20_Node000017_Node000018"><a xlink:title=" ">
<path fill="none" stroke="#9a32cd" stroke-dasharray="5,2" d="M508.35,-132.02C561.53,-129.55 693.83,-125 804,-134.25 826.61,-136.15 851.37,-139.96 872.54,-143.75"/>
<polygon fill="#9a32cd" stroke="#9a32cd" points="508.06,-128.53 498.24,-132.51 508.39,-135.52 508.06,-128.53"/>
</a>
</g>
<text text-anchor="start" x="687" y="-140.15" font-family="Helvetica,sans-Serif" font-size="12.00" fill="grey">keys</text>
</g>
<!-- Node19&#45;&gt;Node3 -->
<g id="edge22_Node000003_Node000019" class="edge">
<title>Node19&#45;&gt;Node3</title>
<g id="a_edge22_Node000003_Node000019"><a xlink:title=" ">
<path fill="none" stroke="#9a32cd" stroke-dasharray="5,2" d="M1506.11,-319.02C1540.28,-320.47 1577.74,-322.97 1612,-327.25 1624.33,-328.79 1637.57,-331.19 1649.76,-333.69"/>
<polygon fill="#9a32cd" stroke="#9a32cd" points="1506.23,-315.52 1496.1,-318.62 1505.95,-322.51 1506.23,-315.52"/>
</a>
</g>
<text text-anchor="start" x="1539" y="-333.15" font-family="Helvetica,sans-Serif" font-size="12.00" fill="grey">functions</text>
</g>
<!-- Node20&#45;&gt;Node19 -->
<g id="edge24_Node000019_Node000020" class="edge">
<title>Node20&#45;&gt;Node19</title>
<g id="a_edge24_Node000019_Node000020"><a xlink:title=" ">
<path fill="none" stroke="#9a32cd" stroke-dasharray="5,2" d="M1039.65,-300.63C1114.38,-304.18 1211.64,-308.8 1284.63,-312.27"/>
<polygon fill="#9a32cd" stroke="#9a32cd" points="1039.41,-297.11 1029.25,-300.14 1039.08,-304.11 1039.41,-297.11"/>
</a>
</g>
<text text-anchor="start" x="1126" y="-317.15" font-family="Helvetica,sans-Serif" font-size="12.00" fill="grey">elements</text>
</g>
<!-- Node21&#45;&gt;Node20 -->
<g id="edge25_Node000020_Node000021" class="edge">
<title>Node21&#45;&gt;Node20</title>
<g id="a_edge25_Node000020_Node000021"><a xlink:title=" ">
<path fill="none" stroke="#9a32cd" stroke-dasharray="5,2" d="M590.28,-299.37C592.88,-299.33 595.46,-299.29 598,-299.25 672.96,-298.13 757.61,-297.1 821.93,-296.37"/>
<polygon fill="#9a32cd" stroke="#9a32cd" points="590.12,-295.87 580.17,-299.53 590.23,-302.87 590.12,-295.87"/>
</a>
</g>
<text text-anchor="start" x="677" y="-305.15" font-family="Helvetica,sans-Serif" font-size="12.00" fill="grey">function</text>
</g>
<!-- Node22&#45;&gt;Node1 -->
<g id="edge30_Node000001_Node000022" class="edge">
<title>Node22&#45;&gt;Node1</title>
<g id="a_edge30_Node000001_Node000022"><a xlink:title=" ">
<path fill="none" stroke="#9a32cd" stroke-dasharray="5,2" d="M2337.61,-244.59C2347.88,-245.48 2358.14,-246.38 2368,-247.25 2373.8,-247.77 2379.76,-248.3 2385.77,-248.83"/>
<polygon fill="#9a32cd" stroke="#9a32cd" points="2337.61,-241.07 2327.34,-243.69 2337,-248.05 2337.61,-241.07"/>
</a>
</g>
<text text-anchor="start" x="2348.5" y="-253.15" font-family="Helvetica,sans-Serif" font-size="12.00" fill="grey">list</text>
</g>
</g>
</svg>
