<?xml version="1.0" encoding="UTF-8" standalone="no"?>
<!DOCTYPE svg PUBLIC "-//W3C//DTD SVG 1.1//EN"
 "http://www.w3.org/Graphics/SVG/1.1/DTD/svg11.dtd">
<!-- Generated by graphviz version 2.43.0 (0)
 -->
<!-- Title: JKQTFPQOverlayLinearGridPlot Pages: 1 -->
<svg width="337pt" height="236pt"
 viewBox="0.00 0.00 336.50 236.00" xmlns="http://www.w3.org/2000/svg" xmlns:xlink="http://www.w3.org/1999/xlink">
<g id="graph0" class="graph" transform="scale(1 1) rotate(0) translate(4 232)">
<title>JKQTFPQOverlayLinearGridPlot</title>
<!-- Node1 -->
<g id="Node000001" class="node">
<title>Node1</title>
<g id="a_Node000001"><a xlink:title="plot a horizontal scale bar">
<polygon fill="#999999" stroke="#666666" points="200,-21 0,-21 0,0 200,0 200,-21"/>
<text text-anchor="middle" x="100" y="-7.4" font-family="Helvetica,sans-Serif" font-size="12.00">JKQTFPQOverlayLinearGridPlot</text>
</a>
</g>
</g>
<!-- Node2 -->
<g id="Node000002" class="node">
<title>Node2</title>
<g id="a_Node000002"><a xlink:href="class_j_k_q_t_f_p_plot.html" target="_top" xlink:title="base class for all plots that may be plotted by JKQTFastPlotter">
<polygon fill="white" stroke="#666666" points="141,-79 59,-79 59,-58 141,-58 141,-79"/>
<text text-anchor="middle" x="100" y="-65.4" font-family="Helvetica,sans-Serif" font-size="12.00">JKQTFPPlot</text>
</a>
</g>
</g>
<!-- Node2&#45;&gt;Node1 -->
<g id="edge1_Node000001_Node000002" class="edge">
<title>Node2&#45;&gt;Node1</title>
<g id="a_edge1_Node000001_Node000002"><a xlink:title=" ">
<path fill="none" stroke="#63b8ff" d="M100,-47.66C100,-38.66 100,-28.42 100,-21.14"/>
<polygon fill="#63b8ff" stroke="#63b8ff" points="96.5,-47.75 100,-57.75 103.5,-47.75 96.5,-47.75"/>
</a>
</g>
</g>
<!-- Node3 -->
<g id="Node000003" class="node">
<title>Node3</title>
<g id="a_Node000003"><a xlink:title=" ">
<polygon fill="white" stroke="#666666" points="98.5,-162.5 33.5,-162.5 33.5,-141.5 98.5,-141.5 98.5,-162.5"/>
<text text-anchor="middle" x="66" y="-148.9" font-family="Helvetica,sans-Serif" font-size="12.00">QObject</text>
</a>
</g>
</g>
<!-- Node3&#45;&gt;Node2 -->
<g id="edge2_Node000002_Node000003" class="edge">
<title>Node3&#45;&gt;Node2</title>
<g id="a_edge2_Node000002_Node000003"><a xlink:title=" ">
<path fill="none" stroke="#63b8ff" d="M73.9,-132.06C80.81,-115.5 90.56,-92.14 95.97,-79.16"/>
<polygon fill="#63b8ff" stroke="#63b8ff" points="70.65,-130.75 70.03,-141.33 77.11,-133.45 70.65,-130.75"/>
</a>
</g>
</g>
<!-- Node4 -->
<g id="Node000004" class="node">
<title>Node4</title>
<g id="a_Node000004"><a xlink:href="class_j_k_q_t_fast_plotter.html" target="_top" xlink:title="a speed optimized plotter class">
<polygon fill="white" stroke="#666666" points="225.5,-162.5 116.5,-162.5 116.5,-141.5 225.5,-141.5 225.5,-162.5"/>
<text text-anchor="middle" x="171" y="-148.9" font-family="Helvetica,sans-Serif" font-size="12.00">JKQTFastPlotter</text>
</a>
</g>
</g>
<!-- Node4&#45;&gt;Node2 -->
<g id="edge3_Node000002_Node000004" class="edge">
<title>Node4&#45;&gt;Node2</title>
<g id="a_edge3_Node000002_Node000004"><a xlink:title=" ">
<path fill="none" stroke="#9a32cd" stroke-dasharray="5,2" d="M155.71,-133.45C141.23,-116.83 120.04,-92.51 108.41,-79.16"/>
<polygon fill="#9a32cd" stroke="#9a32cd" points="153.37,-136.09 162.58,-141.33 158.65,-131.49 153.37,-136.09"/>
</a>
</g>
<text text-anchor="start" x="142" y="-102.9" font-family="Helvetica,sans-Serif" font-size="12.00" fill="grey">parent</text>
</g>
<!-- Node4&#45;&gt;Node4 -->
<g id="edge5_Node000004_Node000004" class="edge">
<title>Node4&#45;&gt;Node4</title>
<g id="a_edge5_Node000004_Node000004"><a xlink:title=" ">
<path fill="none" stroke="#9a32cd" stroke-dasharray="5,2" d="M235.91,-156.98C240.62,-155.86 243.5,-154.2 243.5,-152 243.5,-148.48 236.12,-146.34 225.7,-145.57"/>
<polygon fill="#9a32cd" stroke="#9a32cd" points="235.11,-153.56 225.7,-158.43 236.09,-160.49 235.11,-153.56"/>
</a>
</g>
<text text-anchor="start" x="247" y="-157.4" font-family="Helvetica,sans-Serif" font-size="12.00" fill="grey">synchronizeX</text>
<text text-anchor="start" x="247" y="-140.4" font-family="Helvetica,sans-Serif" font-size="12.00" fill="grey">synchronizeY</text>
</g>
<!-- Node5 -->
<g id="Node000005" class="node">
<title>Node5</title>
<g id="a_Node000005"><a xlink:title=" ">
<polygon fill="white" stroke="#666666" points="228,-228 114,-228 114,-207 228,-207 228,-228"/>
<text text-anchor="middle" x="171" y="-214.4" font-family="Helvetica,sans-Serif" font-size="12.00">QOpenGLWidget</text>
</a>
</g>
</g>
<!-- Node5&#45;&gt;Node4 -->
<g id="edge4_Node000004_Node000005" class="edge">
<title>Node5&#45;&gt;Node4</title>
<g id="a_edge4_Node000004_Node000005"><a xlink:title=" ">
<path fill="none" stroke="#63b8ff" d="M171,-196.61C171,-185.33 171,-171.72 171,-162.74"/>
<polygon fill="#63b8ff" stroke="#63b8ff" points="167.5,-196.86 171,-206.86 174.5,-196.86 167.5,-196.86"/>
</a>
</g>
</g>
</g>
</svg>
