<?xml version="1.0" encoding="UTF-8" standalone="no"?>
<!DOCTYPE svg PUBLIC "-//W3C//DTD SVG 1.1//EN"
 "http://www.w3.org/Graphics/SVG/1.1/DTD/svg11.dtd">
<!-- Generated by graphviz version 2.43.0 (0)
 -->
<!-- Title: JKQTMathTextNode Pages: 1 -->
<svg width="419pt" height="105pt"
 viewBox="0.00 0.00 418.50 105.00" xmlns="http://www.w3.org/2000/svg" xmlns:xlink="http://www.w3.org/1999/xlink">

<svg id="main" version="1.1" xmlns="http://www.w3.org/2000/svg" xmlns:xlink="http://www.w3.org/1999/xlink" xml:space="preserve">

<style type="text/css"><![CDATA[
.node, .edge {opacity: 0.7;}
.node.selected, .edge.selected {opacity: 1;}
.edge:hover path { stroke: red; }
.edge:hover polygon { stroke: red; fill: red; }
]]></style>
<script type="application/ecmascript" xlink:href="svg.min.js"/>
<svg id="graph" class="graph">
<g id="graph0" class="graph" transform="scale(1 1) rotate(0) translate(4 101)">
<title>JKQTMathTextNode</title>
<!-- Node1 -->
<g id="Node000001" class="node">
<title>Node1</title>
<g id="a_Node000001"><a xlink:title="subclass representing one node in the syntax tree">
<polygon fill="#999999" stroke="#666666" points="131,-97 0,-97 0,-76 131,-76 131,-97"/>
<text text-anchor="middle" x="65.5" y="-83.4" font-family="Helvetica,sans-Serif" font-size="12.00">JKQTMathTextNode</text>
</a>
</g>
</g>
<!-- Node1&#45;&gt;Node1 -->
<g id="edge5_Node000001_Node000001" class="edge">
<title>Node1&#45;&gt;Node1</title>
<g id="a_edge5_Node000001_Node000001"><a xlink:title=" ">
<path fill="none" stroke="#9a32cd" stroke-dasharray="5,2" d="M141.52,-91.46C146.19,-90.29 149,-88.63 149,-86.5 149,-83.09 141.81,-80.9 131.31,-79.94"/>
<polygon fill="#9a32cd" stroke="#9a32cd" points="140.65,-88.06 131.31,-93.06 141.73,-94.97 140.65,-88.06"/>
</a>
</g>
<text text-anchor="start" x="152.5" y="-82.9" font-family="Helvetica,sans-Serif" font-size="12.00" fill="grey">parentNode</text>
</g>
<!-- Node2 -->
<g id="Node000002" class="node">
<title>Node2</title>
<g id="a_Node000002"><a xlink:href="class_j_k_q_t_math_text.html" target="_top" xlink:title="this class parses a mathematical markup string and can then draw the contained text/equation onto a Q...">
<polygon fill="white" stroke="#666666" points="271,-21 172,-21 172,0 271,0 271,-21"/>
<text text-anchor="middle" x="221.5" y="-7.4" font-family="Helvetica,sans-Serif" font-size="12.00">JKQTMathText</text>
</a>
</g>
</g>
<!-- Node1&#45;&gt;Node2 -->
<g id="edge3_Node000002_Node000001" class="edge">
<title>Node1&#45;&gt;Node2</title>
<g id="a_edge3_Node000002_Node000001"><a xlink:title=" ">
<path fill="none" stroke="#9a32cd" stroke-dasharray="5,2" d="M56.82,-66.2C54.11,-57 53.24,-46.41 59.5,-39 73.67,-22.22 129.42,-15.68 171.59,-13.13"/>
<polygon fill="#9a32cd" stroke="#9a32cd" points="53.62,-67.61 60.39,-75.75 60.17,-65.16 53.62,-67.61"/>
</a>
</g>
<text text-anchor="start" x="63" y="-44.9" font-family="Helvetica,sans-Serif" font-size="12.00" fill="grey">parsedNode</text>
</g>
<!-- Node2&#45;&gt;Node1 -->
<g id="edge1_Node000001_Node000002" class="edge">
<title>Node2&#45;&gt;Node1</title>
<g id="a_edge1_Node000001_Node000002"><a xlink:title=" ">
<path fill="none" stroke="#9a32cd" stroke-dasharray="5,2" d="M186.06,-25.21C177.69,-29.13 169.02,-33.77 161.5,-39 151.7,-45.82 152.59,-51.61 142.5,-58 130.39,-65.67 115.84,-71.56 102.68,-75.9"/>
<polygon fill="#9a32cd" stroke="#9a32cd" points="187.59,-28.36 195.31,-21.11 184.75,-21.97 187.59,-28.36"/>
</a>
</g>
<text text-anchor="start" x="164.5" y="-44.9" font-family="Helvetica,sans-Serif" font-size="12.00" fill="grey">parentMathText</text>
</g>
<!-- Node3 -->
<g id="Node000003" class="node">
<title>Node3</title>
<g id="a_Node000003"><a xlink:title=" ">
<polygon fill="white" stroke="#666666" points="312,-97 247,-97 247,-76 312,-76 312,-97"/>
<text text-anchor="middle" x="279.5" y="-83.4" font-family="Helvetica,sans-Serif" font-size="12.00">QObject</text>
</a>
</g>
</g>
<!-- Node3&#45;&gt;Node2 -->
<g id="edge2_Node000002_Node000003" class="edge">
<title>Node3&#45;&gt;Node2</title>
<g id="a_edge2_Node000002_Node000003"><a xlink:title=" ">
<path fill="none" stroke="#63b8ff" d="M276.8,-65.77C274.82,-56.9 271.39,-46.72 265.5,-39 259.81,-31.56 251.49,-25.62 243.6,-21.2"/>
<polygon fill="#63b8ff" stroke="#63b8ff" points="273.37,-66.46 278.58,-75.69 280.26,-65.23 273.37,-66.46"/>
</a>
</g>
</g>
<!-- Node4 -->
<g id="Node000004" class="node">
<title>Node4</title>
<g id="a_Node000004"><a xlink:title=" ">
<polygon fill="white" stroke="#666666" points="410.5,-97 330.5,-97 330.5,-76 410.5,-76 410.5,-97"/>
<text text-anchor="middle" x="370.5" y="-83.4" font-family="Helvetica,sans-Serif" font-size="12.00">std::mutex</text>
</a>
</g>
</g>
<!-- Node4&#45;&gt;Node2 -->
<g id="edge4_Node000002_Node000004" class="edge">
<title>Node4&#45;&gt;Node2</title>
<g id="a_edge4_Node000002_Node000004"><a xlink:title=" ">
<path fill="none" stroke="#9a32cd" stroke-dasharray="5,2" d="M344.49,-70.95C327.33,-61.52 304.28,-49.14 283.5,-39 270.59,-32.7 255.9,-26.16 244.07,-21.04"/>
<polygon fill="#9a32cd" stroke="#9a32cd" points="342.92,-74.08 353.36,-75.86 346.3,-67.96 342.92,-74.08"/>
</a>
</g>
<text text-anchor="start" x="323" y="-44.9" font-family="Helvetica,sans-Serif" font-size="12.00" fill="grey">s_mutex</text>
</g>
</g>
</svg>
</svg>

<style type='text/css'>
<![CDATA[
[data-mouse-over-selected='false'] { opacity: 0.7; }
[data-mouse-over-selected='true']  { opacity: 1.0; }
]]>
</style>
<script type="application/ecmascript"><![CDATA[
document.addEventListener('DOMContentLoaded', (event) => {
  highlightEdges();
  highlightAdjacentNodes();
});
]]></script>
</svg>
