<?xml version="1.0" encoding="UTF-8" standalone="no"?>
<!DOCTYPE svg PUBLIC "-//W3C//DTD SVG 1.1//EN"
 "http://www.w3.org/Graphics/SVG/1.1/DTD/svg11.dtd">
<!-- Generated by graphviz version 2.43.0 (0)
 -->
<!-- Title: JKQTPEvaluatedFunctionWithErrorsGraphDrawingBase Pages: 1 -->
<svg width="1553pt" height="173pt"
 viewBox="0.00 0.00 1553.00 172.50" xmlns="http://www.w3.org/2000/svg" xmlns:xlink="http://www.w3.org/1999/xlink">
<g id="graph0" class="graph" transform="scale(1 1) rotate(0) translate(4 168.5)">
<title>JKQTPEvaluatedFunctionWithErrorsGraphDrawingBase</title>
<!-- Node1 -->
<g id="Node000001" class="node">
<title>Node1</title>
<g id="a_Node000001"><a xlink:title="This class extends JKQTPEvaluatedFunctionWithErrorsGraphBase with functions to draw the graphs and se...">
<polygon fill="#999999" stroke="#666666" points="1063,-109 875,-109 875,-75 1063,-75 1063,-109"/>
<text text-anchor="start" x="883" y="-95.4" font-family="Helvetica,sans-Serif" font-size="12.00">JKQTPEvaluatedFunctionWith</text>
<text text-anchor="middle" x="969" y="-82.4" font-family="Helvetica,sans-Serif" font-size="12.00">ErrorsGraphDrawingBase</text>
</a>
</g>
</g>
<!-- Node10 -->
<g id="Node000010" class="node">
<title>Node10</title>
<g id="a_Node000010"><a xlink:href="class_j_k_q_t_p_functor_line_graph_base.html" target="_top" xlink:title="extends JKQTPEvaluatedFunctionWithErrorsGraphDrawingBase with the capabilities to define functions fr...">
<polygon fill="white" stroke="#666666" points="1310,-125.5 1122,-125.5 1122,-104.5 1310,-104.5 1310,-125.5"/>
<text text-anchor="middle" x="1216" y="-111.9" font-family="Helvetica,sans-Serif" font-size="12.00">JKQTPFunctorLineGraphBase</text>
</a>
</g>
</g>
<!-- Node1&#45;&gt;Node10 -->
<g id="edge9_Node000001_Node000010" class="edge">
<title>Node1&#45;&gt;Node10</title>
<g id="a_edge9_Node000001_Node000010"><a xlink:title=" ">
<path fill="none" stroke="#63b8ff" d="M1073.3,-101.7C1089.44,-103.21 1106.04,-104.77 1121.94,-106.26"/>
<polygon fill="#63b8ff" stroke="#63b8ff" points="1073.61,-98.21 1063.32,-100.76 1072.95,-105.18 1073.61,-98.21"/>
</a>
</g>
</g>
<!-- Node13 -->
<g id="Node000013" class="node">
<title>Node13</title>
<g id="a_Node000013"><a xlink:href="class_j_k_q_t_p_parsed_function_line_graph_base.html" target="_top" xlink:title="extends JKQTPEvaluatedFunctionWithErrorsGraphDrawingBase with the capabilities to define functions fr...">
<polygon fill="white" stroke="#666666" points="1333,-79.5 1099,-79.5 1099,-58.5 1333,-58.5 1333,-79.5"/>
<text text-anchor="middle" x="1216" y="-65.9" font-family="Helvetica,sans-Serif" font-size="12.00">JKQTPParsedFunctionLineGraphBase</text>
</a>
</g>
</g>
<!-- Node1&#45;&gt;Node13 -->
<g id="edge12_Node000001_Node000013" class="edge">
<title>Node1&#45;&gt;Node13</title>
<g id="a_edge12_Node000001_Node000013"><a xlink:title=" ">
<path fill="none" stroke="#63b8ff" d="M1073.45,-82.29C1083.23,-81.37 1093.17,-80.44 1103.03,-79.51"/>
<polygon fill="#63b8ff" stroke="#63b8ff" points="1072.95,-78.82 1063.32,-83.24 1073.61,-85.79 1072.95,-78.82"/>
</a>
</g>
</g>
<!-- Node2 -->
<g id="Node000002" class="node">
<title>Node2</title>
<g id="a_Node000002"><a xlink:href="class_j_k_q_t_p_evaluated_function_with_errors_graph_base.html" target="_top" xlink:title="extends JKQTPEvaluatedFunctionGraphBase with some basic properties (e.g. function parameters) for a s...">
<polygon fill="white" stroke="#666666" points="839,-135 651,-135 651,-101 839,-101 839,-135"/>
<text text-anchor="start" x="659" y="-121.4" font-family="Helvetica,sans-Serif" font-size="12.00">JKQTPEvaluatedFunctionWith</text>
<text text-anchor="middle" x="745" y="-108.4" font-family="Helvetica,sans-Serif" font-size="12.00">ErrorsGraphBase</text>
</a>
</g>
</g>
<!-- Node2&#45;&gt;Node1 -->
<g id="edge1_Node000001_Node000002" class="edge">
<title>Node2&#45;&gt;Node1</title>
<g id="a_edge1_Node000001_Node000002"><a xlink:title=" ">
<path fill="none" stroke="#63b8ff" d="M849.15,-105.92C857.67,-104.92 866.26,-103.92 874.7,-102.93"/>
<polygon fill="#63b8ff" stroke="#63b8ff" points="848.71,-102.45 839.18,-107.09 849.52,-109.4 848.71,-102.45"/>
</a>
</g>
</g>
<!-- Node3 -->
<g id="Node000003" class="node">
<title>Node3</title>
<g id="a_Node000003"><a xlink:href="class_j_k_q_t_p_evaluated_function_graph_base.html" target="_top" xlink:title="Base class for graph classes that evaluate a mathematical function (e.g. defined as a C&#45;function),...">
<polygon fill="white" stroke="#666666" points="615,-128.5 387,-128.5 387,-107.5 615,-107.5 615,-128.5"/>
<text text-anchor="middle" x="501" y="-114.9" font-family="Helvetica,sans-Serif" font-size="12.00">JKQTPEvaluatedFunctionGraphBase</text>
</a>
</g>
</g>
<!-- Node3&#45;&gt;Node2 -->
<g id="edge2_Node000002_Node000003" class="edge">
<title>Node3&#45;&gt;Node2</title>
<g id="a_edge2_Node000002_Node000003"><a xlink:title=" ">
<path fill="none" stroke="#63b8ff" d="M625.29,-118C633.88,-118 642.45,-118 650.84,-118"/>
<polygon fill="#63b8ff" stroke="#63b8ff" points="625.21,-114.5 615.21,-118 625.21,-121.5 625.21,-114.5"/>
</a>
</g>
</g>
<!-- Node4 -->
<g id="Node000004" class="node">
<title>Node4</title>
<g id="a_Node000004"><a xlink:href="class_j_k_q_t_p_graph.html" target="_top" xlink:title="this virtual base class of the (data&#45;column based) graphs, which are part of a JKQTPlotter plot and w...">
<polygon fill="white" stroke="#666666" points="351,-128.5 262,-128.5 262,-107.5 351,-107.5 351,-128.5"/>
<text text-anchor="middle" x="306.5" y="-114.9" font-family="Helvetica,sans-Serif" font-size="12.00">JKQTPGraph</text>
</a>
</g>
</g>
<!-- Node4&#45;&gt;Node3 -->
<g id="edge3_Node000003_Node000004" class="edge">
<title>Node4&#45;&gt;Node3</title>
<g id="a_edge3_Node000003_Node000004"><a xlink:title=" ">
<path fill="none" stroke="#63b8ff" d="M361.45,-118C369.5,-118 378.04,-118 386.77,-118"/>
<polygon fill="#63b8ff" stroke="#63b8ff" points="361.18,-114.5 351.18,-118 361.18,-121.5 361.18,-114.5"/>
</a>
</g>
</g>
<!-- Node5 -->
<g id="Node000005" class="node">
<title>Node5</title>
<g id="a_Node000005"><a xlink:href="class_j_k_q_t_p_plot_element.html" target="_top" xlink:title="this virtual base class of every element, which is part of a JKQTPlotter plot and may appear in its k...">
<polygon fill="white" stroke="#666666" points="226,-128.5 101,-128.5 101,-107.5 226,-107.5 226,-128.5"/>
<text text-anchor="middle" x="163.5" y="-114.9" font-family="Helvetica,sans-Serif" font-size="12.00">JKQTPPlotElement</text>
</a>
</g>
</g>
<!-- Node5&#45;&gt;Node4 -->
<g id="edge4_Node000004_Node000005" class="edge">
<title>Node5&#45;&gt;Node4</title>
<g id="a_edge4_Node000004_Node000005"><a xlink:title=" ">
<path fill="none" stroke="#63b8ff" d="M236.51,-118C245.18,-118 253.82,-118 261.91,-118"/>
<polygon fill="#63b8ff" stroke="#63b8ff" points="236.34,-114.5 226.34,-118 236.34,-121.5 236.34,-114.5"/>
</a>
</g>
</g>
<!-- Node6 -->
<g id="Node000006" class="node">
<title>Node6</title>
<g id="a_Node000006"><a xlink:title=" ">
<polygon fill="white" stroke="#666666" points="65,-128.5 0,-128.5 0,-107.5 65,-107.5 65,-128.5"/>
<text text-anchor="middle" x="32.5" y="-114.9" font-family="Helvetica,sans-Serif" font-size="12.00">QObject</text>
</a>
</g>
</g>
<!-- Node6&#45;&gt;Node5 -->
<g id="edge5_Node000005_Node000006" class="edge">
<title>Node6&#45;&gt;Node5</title>
<g id="a_edge5_Node000005_Node000006"><a xlink:title=" ">
<path fill="none" stroke="#63b8ff" d="M75.09,-118C83.29,-118 92.05,-118 100.75,-118"/>
<polygon fill="#63b8ff" stroke="#63b8ff" points="75.06,-114.5 65.06,-118 75.06,-121.5 75.06,-114.5"/>
</a>
</g>
</g>
<!-- Node7 -->
<g id="Node000007" class="node">
<title>Node7</title>
<g id="a_Node000007"><a xlink:href="class_j_k_q_t_p_graph_line_and_fill_style_mixin.html" target="_top" xlink:title="This Mix&#45;In class provides setter/getter methods, storage and other facilities for the graph line and...">
<polygon fill="white" stroke="#666666" points="836,-83 654,-83 654,-49 836,-49 836,-83"/>
<text text-anchor="start" x="662" y="-69.4" font-family="Helvetica,sans-Serif" font-size="12.00">JKQTPGraphLineAndFillStyle</text>
<text text-anchor="middle" x="745" y="-56.4" font-family="Helvetica,sans-Serif" font-size="12.00">Mixin</text>
</a>
</g>
</g>
<!-- Node7&#45;&gt;Node1 -->
<g id="edge6_Node000001_Node000007" class="edge">
<title>Node7&#45;&gt;Node1</title>
<g id="a_edge6_Node000001_Node000007"><a xlink:title=" ">
<path fill="none" stroke="#63b8ff" d="M846.5,-77.77C855.96,-78.88 865.51,-80 874.9,-81.1"/>
<polygon fill="#63b8ff" stroke="#63b8ff" points="846.64,-74.26 836.3,-76.58 845.82,-81.21 846.64,-74.26"/>
</a>
</g>
</g>
<!-- Node8 -->
<g id="Node000008" class="node">
<title>Node8</title>
<g id="a_Node000008"><a xlink:href="class_j_k_q_t_p_graph_fill_style_mixin.html" target="_top" xlink:title="This Mix&#45;In class provides setter/getter methods, storage and other facilities for the graph filling ...">
<polygon fill="white" stroke="#666666" points="583,-83.5 419,-83.5 419,-62.5 583,-62.5 583,-83.5"/>
<text text-anchor="middle" x="501" y="-69.9" font-family="Helvetica,sans-Serif" font-size="12.00">JKQTPGraphFillStyleMixin</text>
</a>
</g>
</g>
<!-- Node8&#45;&gt;Node7 -->
<g id="edge7_Node000007_Node000008" class="edge">
<title>Node8&#45;&gt;Node7</title>
<g id="a_edge7_Node000007_Node000008"><a xlink:title=" ">
<path fill="none" stroke="#63b8ff" d="M593.47,-70.35C613.22,-69.78 634.09,-69.18 653.8,-68.61"/>
<polygon fill="#63b8ff" stroke="#63b8ff" points="593.15,-66.86 583.26,-70.65 593.35,-73.86 593.15,-66.86"/>
</a>
</g>
</g>
<!-- Node9 -->
<g id="Node000009" class="node">
<title>Node9</title>
<g id="a_Node000009"><a xlink:href="class_j_k_q_t_p_graph_line_style_mixin.html" target="_top" xlink:title="This Mix&#45;In class provides setter/getter methods, storage and other facilities for the graph line sty...">
<polygon fill="white" stroke="#666666" points="588,-44.5 414,-44.5 414,-23.5 588,-23.5 588,-44.5"/>
<text text-anchor="middle" x="501" y="-30.9" font-family="Helvetica,sans-Serif" font-size="12.00">JKQTPGraphLineStyleMixin</text>
</a>
</g>
</g>
<!-- Node9&#45;&gt;Node7 -->
<g id="edge8_Node000007_Node000009" class="edge">
<title>Node9&#45;&gt;Node7</title>
<g id="a_edge8_Node000007_Node000009"><a xlink:title=" ">
<path fill="none" stroke="#63b8ff" d="M591.74,-45.87C612.04,-48.55 633.59,-51.4 653.9,-54.09"/>
<polygon fill="#63b8ff" stroke="#63b8ff" points="591.95,-42.36 581.58,-44.52 591.03,-49.3 591.95,-42.36"/>
</a>
</g>
</g>
<!-- Node11 -->
<g id="Node000011" class="node">
<title>Node11</title>
<g id="a_Node000011"><a xlink:href="class_j_k_q_t_p_x_function_line_graph.html" target="_top" xlink:title="This implements line plots where the data is taken from a user supplied function .">
<polygon fill="white" stroke="#666666" points="1543.5,-164.5 1370.5,-164.5 1370.5,-143.5 1543.5,-143.5 1543.5,-164.5"/>
<text text-anchor="middle" x="1457" y="-150.9" font-family="Helvetica,sans-Serif" font-size="12.00">JKQTPXFunctionLineGraph</text>
</a>
</g>
</g>
<!-- Node10&#45;&gt;Node11 -->
<g id="edge10_Node000010_Node000011" class="edge">
<title>Node10&#45;&gt;Node11</title>
<g id="a_edge10_Node000010_Node000011"><a xlink:title=" ">
<path fill="none" stroke="#63b8ff" d="M1291.57,-127.17C1323.61,-132.4 1360.69,-138.45 1391.52,-143.48"/>
<polygon fill="#63b8ff" stroke="#63b8ff" points="1291.8,-123.66 1281.36,-125.5 1290.67,-130.57 1291.8,-123.66"/>
</a>
</g>
</g>
<!-- Node12 -->
<g id="Node000012" class="node">
<title>Node12</title>
<g id="a_Node000012"><a xlink:href="class_j_k_q_t_p_y_function_line_graph.html" target="_top" xlink:title="This implements line plots where the data is taken from a user supplied function .">
<polygon fill="white" stroke="#666666" points="1542.5,-125.5 1371.5,-125.5 1371.5,-104.5 1542.5,-104.5 1542.5,-125.5"/>
<text text-anchor="middle" x="1457" y="-111.9" font-family="Helvetica,sans-Serif" font-size="12.00">JKQTPYFunctionLineGraph</text>
</a>
</g>
</g>
<!-- Node10&#45;&gt;Node12 -->
<g id="edge11_Node000010_Node000012" class="edge">
<title>Node10&#45;&gt;Node12</title>
<g id="a_edge11_Node000010_Node000012"><a xlink:title=" ">
<path fill="none" stroke="#63b8ff" d="M1320.1,-115C1337.21,-115 1354.77,-115 1371.35,-115"/>
<polygon fill="#63b8ff" stroke="#63b8ff" points="1320.09,-111.5 1310.09,-115 1320.09,-118.5 1320.09,-111.5"/>
</a>
</g>
</g>
<!-- Node14 -->
<g id="Node000014" class="node">
<title>Node14</title>
<g id="a_Node000014"><a xlink:href="class_j_k_q_t_p_x_parsed_function_line_graph.html" target="_top" xlink:title="This implements line plots where the data is taken from a user supplied function &#160;The function is def...">
<polygon fill="white" stroke="#666666" points="1545,-86 1369,-86 1369,-52 1545,-52 1545,-86"/>
<text text-anchor="start" x="1377" y="-72.4" font-family="Helvetica,sans-Serif" font-size="12.00">JKQTPXParsedFunctionLine</text>
<text text-anchor="middle" x="1457" y="-59.4" font-family="Helvetica,sans-Serif" font-size="12.00">Graph</text>
</a>
</g>
</g>
<!-- Node13&#45;&gt;Node14 -->
<g id="edge13_Node000013_Node000014" class="edge">
<title>Node13&#45;&gt;Node14</title>
<g id="a_edge13_Node000013_Node000014"><a xlink:title=" ">
<path fill="none" stroke="#63b8ff" d="M1343.47,-69C1352.07,-69 1360.63,-69 1368.96,-69"/>
<polygon fill="#63b8ff" stroke="#63b8ff" points="1343.35,-65.5 1333.35,-69 1343.35,-72.5 1343.35,-65.5"/>
</a>
</g>
</g>
<!-- Node15 -->
<g id="Node000015" class="node">
<title>Node15</title>
<g id="a_Node000015"><a xlink:href="class_j_k_q_t_p_y_parsed_function_line_graph.html" target="_top" xlink:title="This implements line plots where the data is taken from a user supplied function &#160;The function is def...">
<polygon fill="white" stroke="#666666" points="1544.5,-34 1369.5,-34 1369.5,0 1544.5,0 1544.5,-34"/>
<text text-anchor="start" x="1377.5" y="-20.4" font-family="Helvetica,sans-Serif" font-size="12.00">JKQTPYParsedFunctionLine</text>
<text text-anchor="middle" x="1457" y="-7.4" font-family="Helvetica,sans-Serif" font-size="12.00">Graph</text>
</a>
</g>
</g>
<!-- Node13&#45;&gt;Node15 -->
<g id="edge14_Node000013_Node000015" class="edge">
<title>Node13&#45;&gt;Node15</title>
<g id="a_edge14_Node000013_Node000015"><a xlink:title=" ">
<path fill="none" stroke="#63b8ff" d="M1275.49,-56.27C1306.23,-49.59 1344.33,-41.3 1377.6,-34.06"/>
<polygon fill="#63b8ff" stroke="#63b8ff" points="1274.39,-52.93 1265.37,-58.48 1275.88,-59.77 1274.39,-52.93"/>
</a>
</g>
</g>
</g>
</svg>
