<?xml version="1.0" encoding="UTF-8" standalone="no"?>
<!DOCTYPE svg PUBLIC "-//W3C//DTD SVG 1.1//EN"
 "http://www.w3.org/Graphics/SVG/1.1/DTD/svg11.dtd">
<!-- Generated by graphviz version 2.43.0 (0)
 -->
<!-- Title: JKQTFPPlot Pages: 1 -->
<svg width="303pt" height="178pt"
 viewBox="0.00 0.00 303.00 178.00" xmlns="http://www.w3.org/2000/svg" xmlns:xlink="http://www.w3.org/1999/xlink">
<g id="graph0" class="graph" transform="scale(1 1) rotate(0) translate(4 174)">
<title>JKQTFPPlot</title>
<!-- Node1 -->
<g id="Node000001" class="node">
<title>Node1</title>
<g id="a_Node000001"><a xlink:title="base class for all plots that may be plotted by JKQTFastPlotter">
<polygon fill="#999999" stroke="#666666" points="107.5,-21 25.5,-21 25.5,0 107.5,0 107.5,-21"/>
<text text-anchor="middle" x="66.5" y="-7.4" font-family="Helvetica,sans-Serif" font-size="12.00">JKQTFPPlot</text>
</a>
</g>
</g>
<!-- Node2 -->
<g id="Node000002" class="node">
<title>Node2</title>
<g id="a_Node000002"><a xlink:title=" ">
<polygon fill="white" stroke="#666666" points="65,-104.5 0,-104.5 0,-83.5 65,-83.5 65,-104.5"/>
<text text-anchor="middle" x="32.5" y="-90.9" font-family="Helvetica,sans-Serif" font-size="12.00">QObject</text>
</a>
</g>
</g>
<!-- Node2&#45;&gt;Node1 -->
<g id="edge1_Node000001_Node000002" class="edge">
<title>Node2&#45;&gt;Node1</title>
<g id="a_edge1_Node000001_Node000002"><a xlink:title=" ">
<path fill="none" stroke="#63b8ff" d="M40.4,-74.06C47.31,-57.5 57.06,-34.14 62.47,-21.16"/>
<polygon fill="#63b8ff" stroke="#63b8ff" points="37.15,-72.75 36.53,-83.33 43.61,-75.45 37.15,-72.75"/>
</a>
</g>
</g>
<!-- Node3 -->
<g id="Node000003" class="node">
<title>Node3</title>
<g id="a_Node000003"><a xlink:href="class_j_k_q_t_fast_plotter.html" target="_top" xlink:title="a speed optimized plotter class">
<polygon fill="white" stroke="#666666" points="192,-104.5 83,-104.5 83,-83.5 192,-83.5 192,-104.5"/>
<text text-anchor="middle" x="137.5" y="-90.9" font-family="Helvetica,sans-Serif" font-size="12.00">JKQTFastPlotter</text>
</a>
</g>
</g>
<!-- Node3&#45;&gt;Node1 -->
<g id="edge2_Node000001_Node000003" class="edge">
<title>Node3&#45;&gt;Node1</title>
<g id="a_edge2_Node000001_Node000003"><a xlink:title=" ">
<path fill="none" stroke="#9a32cd" stroke-dasharray="5,2" d="M122.21,-75.45C107.73,-58.83 86.54,-34.51 74.91,-21.16"/>
<polygon fill="#9a32cd" stroke="#9a32cd" points="119.87,-78.09 129.08,-83.33 125.15,-73.49 119.87,-78.09"/>
</a>
</g>
<text text-anchor="start" x="108.5" y="-44.9" font-family="Helvetica,sans-Serif" font-size="12.00" fill="grey">parent</text>
</g>
<!-- Node3&#45;&gt;Node3 -->
<g id="edge4_Node000003_Node000003" class="edge">
<title>Node3&#45;&gt;Node3</title>
<g id="a_edge4_Node000003_Node000003"><a xlink:title=" ">
<path fill="none" stroke="#9a32cd" stroke-dasharray="5,2" d="M202.41,-98.98C207.12,-97.86 210,-96.2 210,-94 210,-90.48 202.62,-88.34 192.2,-87.57"/>
<polygon fill="#9a32cd" stroke="#9a32cd" points="201.61,-95.56 192.2,-100.43 202.59,-102.49 201.61,-95.56"/>
</a>
</g>
<text text-anchor="start" x="213.5" y="-99.4" font-family="Helvetica,sans-Serif" font-size="12.00" fill="grey">synchronizeX</text>
<text text-anchor="start" x="213.5" y="-82.4" font-family="Helvetica,sans-Serif" font-size="12.00" fill="grey">synchronizeY</text>
</g>
<!-- Node4 -->
<g id="Node000004" class="node">
<title>Node4</title>
<g id="a_Node000004"><a xlink:title=" ">
<polygon fill="white" stroke="#666666" points="194.5,-170 80.5,-170 80.5,-149 194.5,-149 194.5,-170"/>
<text text-anchor="middle" x="137.5" y="-156.4" font-family="Helvetica,sans-Serif" font-size="12.00">QOpenGLWidget</text>
</a>
</g>
</g>
<!-- Node4&#45;&gt;Node3 -->
<g id="edge3_Node000003_Node000004" class="edge">
<title>Node4&#45;&gt;Node3</title>
<g id="a_edge3_Node000003_Node000004"><a xlink:title=" ">
<path fill="none" stroke="#63b8ff" d="M137.5,-138.61C137.5,-127.33 137.5,-113.72 137.5,-104.74"/>
<polygon fill="#63b8ff" stroke="#63b8ff" points="134,-138.86 137.5,-148.86 141,-138.86 134,-138.86"/>
</a>
</g>
</g>
</g>
</svg>
