<?xml version="1.0" encoding="UTF-8" standalone="no"?>
<!DOCTYPE svg PUBLIC "-//W3C//DTD SVG 1.1//EN"
 "http://www.w3.org/Graphics/SVG/1.1/DTD/svg11.dtd">
<!-- Generated by graphviz version 2.43.0 (0)
 -->
<!-- Title: JKQTFPLinePlot Pages: 1 -->
<svg width="260pt" height="200pt"
 viewBox="0.00 0.00 259.50 200.00" xmlns="http://www.w3.org/2000/svg" xmlns:xlink="http://www.w3.org/1999/xlink">

<svg id="main" version="1.1" xmlns="http://www.w3.org/2000/svg" xmlns:xlink="http://www.w3.org/1999/xlink" xml:space="preserve">

<style type="text/css"><![CDATA[
.node, .edge {opacity: 0.7;}
.node.selected, .edge.selected {opacity: 1;}
.edge:hover path { stroke: red; }
.edge:hover polygon { stroke: red; fill: red; }
]]></style>
<script type="application/ecmascript" xlink:href="svg.min.js"/>
<svg id="graph" class="graph">
<g id="graph0" class="graph" transform="scale(1 1) rotate(0) translate(4 196)">
<title>JKQTFPLinePlot</title>
<!-- Node1 -->
<g id="Node000001" class="node">
<title>Node1</title>
<g id="a_Node000001"><a xlink:title="a simple line plot for JKQTFastPlotter">
<polygon fill="#999999" stroke="#666666" points="176,-78 69,-78 69,-57 176,-57 176,-78"/>
<text text-anchor="middle" x="122.5" y="-64.4" font-family="Helvetica,sans-Serif" font-size="12.00">JKQTFPLinePlot</text>
</a>
</g>
</g>
<!-- Node4 -->
<g id="Node000004" class="node">
<title>Node4</title>
<g id="a_Node000004"><a xlink:href="class_j_k_q_t_f_p_v_bar_plot.html" target="_top" xlink:title="a simple vertical bar plot for JKQTFastPlotter">
<polygon fill="white" stroke="#666666" points="111,-21 0,-21 0,0 111,0 111,-21"/>
<text text-anchor="middle" x="55.5" y="-7.4" font-family="Helvetica,sans-Serif" font-size="12.00">JKQTFPVBarPlot</text>
</a>
</g>
</g>
<!-- Node1&#45;&gt;Node4 -->
<g id="edge3_Node000001_Node000004" class="edge">
<title>Node1&#45;&gt;Node4</title>
<g id="a_edge3_Node000001_Node000004"><a xlink:title=" ">
<path fill="none" stroke="#63b8ff" d="M103.04,-50.52C91.54,-41.09 77.36,-29.44 67.49,-21.34"/>
<polygon fill="#63b8ff" stroke="#63b8ff" points="100.88,-53.28 110.83,-56.92 105.32,-47.87 100.88,-53.28"/>
</a>
</g>
</g>
<!-- Node5 -->
<g id="Node000005" class="node">
<title>Node5</title>
<g id="a_Node000005"><a xlink:href="class_j_k_q_t_f_p_v_cross_plot.html" target="_top" xlink:title="a simple plot that draws a cross for every datapoint">
<polygon fill="white" stroke="#666666" points="251.5,-21 129.5,-21 129.5,0 251.5,0 251.5,-21"/>
<text text-anchor="middle" x="190.5" y="-7.4" font-family="Helvetica,sans-Serif" font-size="12.00">JKQTFPVCrossPlot</text>
</a>
</g>
</g>
<!-- Node1&#45;&gt;Node5 -->
<g id="edge4_Node000001_Node000005" class="edge">
<title>Node1&#45;&gt;Node5</title>
<g id="a_edge4_Node000001_Node000005"><a xlink:title=" ">
<path fill="none" stroke="#63b8ff" d="M142.25,-50.52C153.92,-41.09 168.32,-29.44 178.33,-21.34"/>
<polygon fill="#63b8ff" stroke="#63b8ff" points="139.92,-47.91 134.34,-56.92 144.32,-53.35 139.92,-47.91"/>
</a>
</g>
</g>
<!-- Node2 -->
<g id="Node000002" class="node">
<title>Node2</title>
<g id="a_Node000002"><a xlink:href="class_j_k_q_t_f_p_plot.html" target="_top" xlink:title="base class for all plots that may be plotted by JKQTFastPlotter">
<polygon fill="white" stroke="#666666" points="163.5,-135 81.5,-135 81.5,-114 163.5,-114 163.5,-135"/>
<text text-anchor="middle" x="122.5" y="-121.4" font-family="Helvetica,sans-Serif" font-size="12.00">JKQTFPPlot</text>
</a>
</g>
</g>
<!-- Node2&#45;&gt;Node1 -->
<g id="edge1_Node000001_Node000002" class="edge">
<title>Node2&#45;&gt;Node1</title>
<g id="a_edge1_Node000001_Node000002"><a xlink:title=" ">
<path fill="none" stroke="#63b8ff" d="M122.5,-103.86C122.5,-95.2 122.5,-85.42 122.5,-78.34"/>
<polygon fill="#63b8ff" stroke="#63b8ff" points="119,-103.92 122.5,-113.92 126,-103.92 119,-103.92"/>
</a>
</g>
</g>
<!-- Node3 -->
<g id="Node000003" class="node">
<title>Node3</title>
<g id="a_Node000003"><a xlink:title=" ">
<polygon fill="white" stroke="#666666" points="155,-192 90,-192 90,-171 155,-171 155,-192"/>
<text text-anchor="middle" x="122.5" y="-178.4" font-family="Helvetica,sans-Serif" font-size="12.00">QObject</text>
</a>
</g>
</g>
<!-- Node3&#45;&gt;Node2 -->
<g id="edge2_Node000002_Node000003" class="edge">
<title>Node3&#45;&gt;Node2</title>
<g id="a_edge2_Node000002_Node000003"><a xlink:title=" ">
<path fill="none" stroke="#63b8ff" d="M122.5,-160.86C122.5,-152.2 122.5,-142.42 122.5,-135.34"/>
<polygon fill="#63b8ff" stroke="#63b8ff" points="119,-160.92 122.5,-170.92 126,-160.92 119,-160.92"/>
</a>
</g>
</g>
</g>
</svg>
</svg>

<style type='text/css'>
<![CDATA[
[data-mouse-over-selected='false'] { opacity: 0.7; }
[data-mouse-over-selected='true']  { opacity: 1.0; }
]]>
</style>
<script type="application/ecmascript"><![CDATA[
document.addEventListener('DOMContentLoaded', (event) => {
  highlightEdges();
  highlightAdjacentNodes();
});
]]></script>
</svg>
