<?xml version="1.0" encoding="UTF-8" standalone="no"?>
<!DOCTYPE svg PUBLIC "-//W3C//DTD SVG 1.1//EN"
 "http://www.w3.org/Graphics/SVG/1.1/DTD/svg11.dtd">
<!-- Generated by graphviz version 2.43.0 (0)
 -->
<!-- Title: JKQTFPRGBImageOverlayPlot Pages: 1 -->
<svg width="200pt" height="143pt"
 viewBox="0.00 0.00 200.00 143.00" xmlns="http://www.w3.org/2000/svg" xmlns:xlink="http://www.w3.org/1999/xlink">
<g id="graph0" class="graph" transform="scale(1 1) rotate(0) translate(4 139)">
<title>JKQTFPRGBImageOverlayPlot</title>
<!-- Node1 -->
<g id="Node000001" class="node">
<title>Node1</title>
<g id="a_Node000001"><a xlink:title="plots 1,2 or 3 given grayscale images as an overlay plot, where each channel is drawn as one color ch...">
<polygon fill="#999999" stroke="#666666" points="192,-21 0,-21 0,0 192,0 192,-21"/>
<text text-anchor="middle" x="96" y="-7.4" font-family="Helvetica,sans-Serif" font-size="12.00">JKQTFPRGBImageOverlayPlot</text>
</a>
</g>
</g>
<!-- Node2 -->
<g id="Node000002" class="node">
<title>Node2</title>
<g id="a_Node000002"><a xlink:href="class_j_k_q_t_f_p_plot.html" target="_top" xlink:title="base class for all plots that may be plotted by JKQTFastPlotter">
<polygon fill="white" stroke="#666666" points="137,-78 55,-78 55,-57 137,-57 137,-78"/>
<text text-anchor="middle" x="96" y="-64.4" font-family="Helvetica,sans-Serif" font-size="12.00">JKQTFPPlot</text>
</a>
</g>
</g>
<!-- Node2&#45;&gt;Node1 -->
<g id="edge1_Node000001_Node000002" class="edge">
<title>Node2&#45;&gt;Node1</title>
<g id="a_edge1_Node000001_Node000002"><a xlink:title=" ">
<path fill="none" stroke="#63b8ff" d="M96,-46.86C96,-38.2 96,-28.42 96,-21.34"/>
<polygon fill="#63b8ff" stroke="#63b8ff" points="92.5,-46.92 96,-56.92 99.5,-46.92 92.5,-46.92"/>
</a>
</g>
</g>
<!-- Node3 -->
<g id="Node000003" class="node">
<title>Node3</title>
<g id="a_Node000003"><a xlink:title=" ">
<polygon fill="white" stroke="#666666" points="128.5,-135 63.5,-135 63.5,-114 128.5,-114 128.5,-135"/>
<text text-anchor="middle" x="96" y="-121.4" font-family="Helvetica,sans-Serif" font-size="12.00">QObject</text>
</a>
</g>
</g>
<!-- Node3&#45;&gt;Node2 -->
<g id="edge2_Node000002_Node000003" class="edge">
<title>Node3&#45;&gt;Node2</title>
<g id="a_edge2_Node000002_Node000003"><a xlink:title=" ">
<path fill="none" stroke="#63b8ff" d="M96,-103.86C96,-95.2 96,-85.42 96,-78.34"/>
<polygon fill="#63b8ff" stroke="#63b8ff" points="92.5,-103.92 96,-113.92 99.5,-103.92 92.5,-103.92"/>
</a>
</g>
</g>
</g>
</svg>
