<?xml version="1.0" encoding="UTF-8" standalone="no"?>
<!DOCTYPE svg PUBLIC "-//W3C//DTD SVG 1.1//EN"
 "http://www.w3.org/Graphics/SVG/1.1/DTD/svg11.dtd">
<!-- Generated by graphviz version 2.43.0 (0)
 -->
<!-- Title: JKQTPGraphViolinplotStyleMixin Pages: 1 -->
<svg width="396pt" height="226pt"
 viewBox="0.00 0.00 396.00 226.00" xmlns="http://www.w3.org/2000/svg" xmlns:xlink="http://www.w3.org/1999/xlink">

<svg id="main" version="1.1" xmlns="http://www.w3.org/2000/svg" xmlns:xlink="http://www.w3.org/1999/xlink" xml:space="preserve">

<style type="text/css"><![CDATA[
.node, .edge {opacity: 0.7;}
.node.selected, .edge.selected {opacity: 1;}
.edge:hover path { stroke: red; }
.edge:hover polygon { stroke: red; fill: red; }
]]></style>
<script type="application/ecmascript" xlink:href="svg.min.js"/>
<svg id="graph" class="graph">
<g id="graph0" class="graph" transform="scale(1 1) rotate(0) translate(4 222)">
<title>JKQTPGraphViolinplotStyleMixin</title>
<!-- Node1 -->
<g id="Node000001" class="node">
<title>Node1</title>
<g id="a_Node000001"><a xlink:title="Styling Mix&#45;In for Violinplots.">
<polygon fill="#999999" stroke="#666666" points="271.5,-161 98.5,-161 98.5,-127 271.5,-127 271.5,-161"/>
<text text-anchor="start" x="106.5" y="-147.4" font-family="Helvetica,sans-Serif" font-size="12.00">JKQTPGraphViolinplotStyle</text>
<text text-anchor="middle" x="185" y="-134.4" font-family="Helvetica,sans-Serif" font-size="12.00">Mixin</text>
</a>
</g>
</g>
<!-- Node4 -->
<g id="Node000004" class="node">
<title>Node4</title>
<g id="a_Node000004"><a xlink:href="class_j_k_q_t_p_violinplot_element_base.html" target="_top" xlink:title="This implements a single vertical Violin Plot as a &quot;geometric element&quot;.">
<polygon fill="white" stroke="#666666" points="278,-91 92,-91 92,-70 278,-70 278,-91"/>
<text text-anchor="middle" x="185" y="-77.4" font-family="Helvetica,sans-Serif" font-size="12.00">JKQTPViolinplotElementBase</text>
</a>
</g>
</g>
<!-- Node1&#45;&gt;Node4 -->
<g id="edge3_Node000001_Node000004" class="edge">
<title>Node1&#45;&gt;Node4</title>
<g id="a_edge3_Node000001_Node000004"><a xlink:title=" ">
<path fill="none" stroke="#63b8ff" d="M185,-116.6C185,-107.51 185,-97.9 185,-91.04"/>
<polygon fill="#63b8ff" stroke="#63b8ff" points="181.5,-116.84 185,-126.84 188.5,-116.84 181.5,-116.84"/>
</a>
</g>
</g>
<!-- Node2 -->
<g id="Node000002" class="node">
<title>Node2</title>
<g id="a_Node000002"><a xlink:href="class_j_k_q_t_p_graph_line_style_mixin.html" target="_top" xlink:title="This Mix&#45;In class provides setter/getter methods, storage and other facilities for the graph line sty...">
<polygon fill="white" stroke="#666666" points="179,-218 5,-218 5,-197 179,-197 179,-218"/>
<text text-anchor="middle" x="92" y="-204.4" font-family="Helvetica,sans-Serif" font-size="12.00">JKQTPGraphLineStyleMixin</text>
</a>
</g>
</g>
<!-- Node2&#45;&gt;Node1 -->
<g id="edge1_Node000001_Node000002" class="edge">
<title>Node2&#45;&gt;Node1</title>
<g id="a_edge1_Node000001_Node000002"><a xlink:title=" ">
<path fill="none" stroke="#63b8ff" d="M114.99,-191.3C128.8,-182.16 146.36,-170.55 160.44,-161.24"/>
<polygon fill="#63b8ff" stroke="#63b8ff" points="112.94,-188.46 106.53,-196.89 116.8,-194.29 112.94,-188.46"/>
</a>
</g>
</g>
<!-- Node3 -->
<g id="Node000003" class="node">
<title>Node3</title>
<g id="a_Node000003"><a xlink:href="class_j_k_q_t_p_graph_fill_style_mixin.html" target="_top" xlink:title="This Mix&#45;In class provides setter/getter methods, storage and other facilities for the graph filling ...">
<polygon fill="white" stroke="#666666" points="361,-218 197,-218 197,-197 361,-197 361,-218"/>
<text text-anchor="middle" x="279" y="-204.4" font-family="Helvetica,sans-Serif" font-size="12.00">JKQTPGraphFillStyleMixin</text>
</a>
</g>
</g>
<!-- Node3&#45;&gt;Node1 -->
<g id="edge2_Node000001_Node000003" class="edge">
<title>Node3&#45;&gt;Node1</title>
<g id="a_edge2_Node000001_Node000003"><a xlink:title=" ">
<path fill="none" stroke="#63b8ff" d="M255.76,-191.3C241.8,-182.16 224.05,-170.55 209.82,-161.24"/>
<polygon fill="#63b8ff" stroke="#63b8ff" points="254.03,-194.34 264.31,-196.89 257.86,-188.49 254.03,-194.34"/>
</a>
</g>
</g>
<!-- Node5 -->
<g id="Node000005" class="node">
<title>Node5</title>
<g id="a_Node000005"><a xlink:href="class_j_k_q_t_p_violinplot_horizontal_element.html" target="_top" xlink:title="This implements a single horizontal Violin Plot as a &quot;geometric element&quot;.">
<polygon fill="white" stroke="#666666" points="168,-34 0,-34 0,0 168,0 168,-34"/>
<text text-anchor="start" x="8" y="-20.4" font-family="Helvetica,sans-Serif" font-size="12.00">JKQTPViolinplotHorizontal</text>
<text text-anchor="middle" x="84" y="-7.4" font-family="Helvetica,sans-Serif" font-size="12.00">Element</text>
</a>
</g>
</g>
<!-- Node4&#45;&gt;Node5 -->
<g id="edge4_Node000004_Node000005" class="edge">
<title>Node4&#45;&gt;Node5</title>
<g id="a_edge4_Node000004_Node000005"><a xlink:title=" ">
<path fill="none" stroke="#63b8ff" d="M160.46,-64.56C145.4,-55.39 126.11,-43.64 110.67,-34.24"/>
<polygon fill="#63b8ff" stroke="#63b8ff" points="158.86,-67.68 169.22,-69.89 162.5,-61.7 158.86,-67.68"/>
</a>
</g>
</g>
<!-- Node6 -->
<g id="Node000006" class="node">
<title>Node6</title>
<g id="a_Node000006"><a xlink:href="class_j_k_q_t_p_violinplot_vertical_element.html" target="_top" xlink:title="This implements a single vertical Violin Plot as a &quot;geometric element&quot;.">
<polygon fill="white" stroke="#666666" points="388,-27.5 186,-27.5 186,-6.5 388,-6.5 388,-27.5"/>
<text text-anchor="middle" x="287" y="-13.9" font-family="Helvetica,sans-Serif" font-size="12.00">JKQTPViolinplotVerticalElement</text>
</a>
</g>
</g>
<!-- Node4&#45;&gt;Node6 -->
<g id="edge5_Node000004_Node000006" class="edge">
<title>Node4&#45;&gt;Node6</title>
<g id="a_edge5_Node000004_Node000006"><a xlink:title=" ">
<path fill="none" stroke="#63b8ff" d="M209.71,-64.6C228.84,-53.07 254.75,-37.45 271.17,-27.54"/>
<polygon fill="#63b8ff" stroke="#63b8ff" points="207.69,-61.73 200.94,-69.89 211.31,-67.72 207.69,-61.73"/>
</a>
</g>
</g>
</g>
</svg>
</svg>

<style type='text/css'>
<![CDATA[
[data-mouse-over-selected='false'] { opacity: 0.7; }
[data-mouse-over-selected='true']  { opacity: 1.0; }
]]>
</style>
<script type="application/ecmascript"><![CDATA[
document.addEventListener('DOMContentLoaded', (event) => {
  highlightEdges();
  highlightAdjacentNodes();
});
]]></script>
</svg>
