<?xml version="1.0" encoding="UTF-8" standalone="no"?>
<!DOCTYPE svg PUBLIC "-//W3C//DTD SVG 1.1//EN"
 "http://www.w3.org/Graphics/SVG/1.1/DTD/svg11.dtd">
<!-- Generated by graphviz version 2.43.0 (0)
 -->
<!-- Title: JKQTPImage Pages: 1 -->
<svg width="133pt" height="257pt"
 viewBox="0.00 0.00 133.00 257.00" xmlns="http://www.w3.org/2000/svg" xmlns:xlink="http://www.w3.org/1999/xlink">
<g id="graph0" class="graph" transform="scale(1 1) rotate(0) translate(4 253)">
<title>JKQTPImage</title>
<!-- Node1 -->
<g id="Node000001" class="node">
<title>Node1</title>
<g id="a_Node000001"><a xlink:title="class to plot an image from a QImage object">
<polygon fill="#999999" stroke="#666666" points="108,-21 17,-21 17,0 108,0 108,-21"/>
<text text-anchor="middle" x="62.5" y="-7.4" font-family="Helvetica,sans-Serif" font-size="12.00">JKQTPImage</text>
</a>
</g>
</g>
<!-- Node2 -->
<g id="Node000002" class="node">
<title>Node2</title>
<g id="a_Node000002"><a xlink:href="class_j_k_q_t_p_image_base.html" target="_top" xlink:title="base class for plotting an image">
<polygon fill="white" stroke="#666666" points="122.5,-78 2.5,-78 2.5,-57 122.5,-57 122.5,-78"/>
<text text-anchor="middle" x="62.5" y="-64.4" font-family="Helvetica,sans-Serif" font-size="12.00">JKQTPImageBase</text>
</a>
</g>
</g>
<!-- Node2&#45;&gt;Node1 -->
<g id="edge1_Node000001_Node000002" class="edge">
<title>Node2&#45;&gt;Node1</title>
<g id="a_edge1_Node000001_Node000002"><a xlink:title=" ">
<path fill="none" stroke="#63b8ff" d="M62.5,-46.86C62.5,-38.2 62.5,-28.42 62.5,-21.34"/>
<polygon fill="#63b8ff" stroke="#63b8ff" points="59,-46.92 62.5,-56.92 66,-46.92 59,-46.92"/>
</a>
</g>
</g>
<!-- Node3 -->
<g id="Node000003" class="node">
<title>Node3</title>
<g id="a_Node000003"><a xlink:href="class_j_k_q_t_p_graph.html" target="_top" xlink:title="this virtual base class of the (data&#45;column based) graphs, which are part of a JKQTPlotter plot and w...">
<polygon fill="white" stroke="#666666" points="107,-135 18,-135 18,-114 107,-114 107,-135"/>
<text text-anchor="middle" x="62.5" y="-121.4" font-family="Helvetica,sans-Serif" font-size="12.00">JKQTPGraph</text>
</a>
</g>
</g>
<!-- Node3&#45;&gt;Node2 -->
<g id="edge2_Node000002_Node000003" class="edge">
<title>Node3&#45;&gt;Node2</title>
<g id="a_edge2_Node000002_Node000003"><a xlink:title=" ">
<path fill="none" stroke="#63b8ff" d="M62.5,-103.86C62.5,-95.2 62.5,-85.42 62.5,-78.34"/>
<polygon fill="#63b8ff" stroke="#63b8ff" points="59,-103.92 62.5,-113.92 66,-103.92 59,-103.92"/>
</a>
</g>
</g>
<!-- Node4 -->
<g id="Node000004" class="node">
<title>Node4</title>
<g id="a_Node000004"><a xlink:href="class_j_k_q_t_p_plot_element.html" target="_top" xlink:title="this virtual base class of every element, which is part of a JKQTPlotter plot and may appear in its k...">
<polygon fill="white" stroke="#666666" points="125,-192 0,-192 0,-171 125,-171 125,-192"/>
<text text-anchor="middle" x="62.5" y="-178.4" font-family="Helvetica,sans-Serif" font-size="12.00">JKQTPPlotElement</text>
</a>
</g>
</g>
<!-- Node4&#45;&gt;Node3 -->
<g id="edge3_Node000003_Node000004" class="edge">
<title>Node4&#45;&gt;Node3</title>
<g id="a_edge3_Node000003_Node000004"><a xlink:title=" ">
<path fill="none" stroke="#63b8ff" d="M62.5,-160.86C62.5,-152.2 62.5,-142.42 62.5,-135.34"/>
<polygon fill="#63b8ff" stroke="#63b8ff" points="59,-160.92 62.5,-170.92 66,-160.92 59,-160.92"/>
</a>
</g>
</g>
<!-- Node5 -->
<g id="Node000005" class="node">
<title>Node5</title>
<g id="a_Node000005"><a xlink:title=" ">
<polygon fill="white" stroke="#666666" points="95,-249 30,-249 30,-228 95,-228 95,-249"/>
<text text-anchor="middle" x="62.5" y="-235.4" font-family="Helvetica,sans-Serif" font-size="12.00">QObject</text>
</a>
</g>
</g>
<!-- Node5&#45;&gt;Node4 -->
<g id="edge4_Node000004_Node000005" class="edge">
<title>Node5&#45;&gt;Node4</title>
<g id="a_edge4_Node000004_Node000005"><a xlink:title=" ">
<path fill="none" stroke="#63b8ff" d="M62.5,-217.86C62.5,-209.2 62.5,-199.42 62.5,-192.34"/>
<polygon fill="#63b8ff" stroke="#63b8ff" points="59,-217.92 62.5,-227.92 66,-217.92 59,-217.92"/>
</a>
</g>
</g>
</g>
</svg>
