<?xml version="1.0" encoding="UTF-8" standalone="no"?>
<!DOCTYPE svg PUBLIC "-//W3C//DTD SVG 1.1//EN"
 "http://www.w3.org/Graphics/SVG/1.1/DTD/svg11.dtd">
<!-- Generated by graphviz version 2.43.0 (0)
 -->
<!-- Title: JKQTMathTextVerbatimNode Pages: 1 -->
<svg width="193pt" height="143pt"
 viewBox="0.00 0.00 193.00 143.00" xmlns="http://www.w3.org/2000/svg" xmlns:xlink="http://www.w3.org/1999/xlink">
<g id="graph0" class="graph" transform="scale(1 1) rotate(0) translate(4 139)">
<title>JKQTMathTextVerbatimNode</title>
<!-- Node1 -->
<g id="Node000001" class="node">
<title>Node1</title>
<g id="a_Node000001"><a xlink:title="subclass representing a verbatim (plain&#45;text) node with support for line&#45;breaks in the syntax tree">
<polygon fill="#999999" stroke="#666666" points="185,-21 0,-21 0,0 185,0 185,-21"/>
<text text-anchor="middle" x="92.5" y="-7.4" font-family="Helvetica,sans-Serif" font-size="12.00">JKQTMathTextVerbatimNode</text>
</a>
</g>
</g>
<!-- Node2 -->
<g id="Node000002" class="node">
<title>Node2</title>
<g id="a_Node000002"><a xlink:href="class_j_k_q_t_math_text_text_base_node.html" target="_top" xlink:title="base class for nodes representing text in the syntax tree">
<polygon fill="white" stroke="#666666" points="184.5,-78 0.5,-78 0.5,-57 184.5,-57 184.5,-78"/>
<text text-anchor="middle" x="92.5" y="-64.4" font-family="Helvetica,sans-Serif" font-size="12.00">JKQTMathTextTextBaseNode</text>
</a>
</g>
</g>
<!-- Node2&#45;&gt;Node1 -->
<g id="edge1_Node000001_Node000002" class="edge">
<title>Node2&#45;&gt;Node1</title>
<g id="a_edge1_Node000001_Node000002"><a xlink:title=" ">
<path fill="none" stroke="#63b8ff" d="M92.5,-46.86C92.5,-38.2 92.5,-28.42 92.5,-21.34"/>
<polygon fill="#63b8ff" stroke="#63b8ff" points="89,-46.92 92.5,-56.92 96,-46.92 89,-46.92"/>
</a>
</g>
</g>
<!-- Node3 -->
<g id="Node000003" class="node">
<title>Node3</title>
<g id="a_Node000003"><a xlink:href="class_j_k_q_t_math_text_node.html" target="_top" xlink:title="subclass representing one node in the syntax tree">
<polygon fill="white" stroke="#666666" points="158,-135 27,-135 27,-114 158,-114 158,-135"/>
<text text-anchor="middle" x="92.5" y="-121.4" font-family="Helvetica,sans-Serif" font-size="12.00">JKQTMathTextNode</text>
</a>
</g>
</g>
<!-- Node3&#45;&gt;Node2 -->
<g id="edge2_Node000002_Node000003" class="edge">
<title>Node3&#45;&gt;Node2</title>
<g id="a_edge2_Node000002_Node000003"><a xlink:title=" ">
<path fill="none" stroke="#63b8ff" d="M92.5,-103.86C92.5,-95.2 92.5,-85.42 92.5,-78.34"/>
<polygon fill="#63b8ff" stroke="#63b8ff" points="89,-103.92 92.5,-113.92 96,-103.92 89,-103.92"/>
</a>
</g>
</g>
</g>
</svg>
