<?xml version="1.0" encoding="UTF-8" standalone="no"?>
<!DOCTYPE svg PUBLIC "-//W3C//DTD SVG 1.1//EN"
 "http://www.w3.org/Graphics/SVG/1.1/DTD/svg11.dtd">
<!-- Generated by graphviz version 2.43.0 (0)
 -->
<!-- Title: JKQTPSingleColumnGraph Pages: 1 -->
<svg width="372pt" height="270pt"
 viewBox="0.00 0.00 372.00 270.00" xmlns="http://www.w3.org/2000/svg" xmlns:xlink="http://www.w3.org/1999/xlink">

<svg id="main" version="1.1" xmlns="http://www.w3.org/2000/svg" xmlns:xlink="http://www.w3.org/1999/xlink" xml:space="preserve">

<style type="text/css"><![CDATA[
.node, .edge {opacity: 0.7;}
.node.selected, .edge.selected {opacity: 1;}
.edge:hover path { stroke: red; }
.edge:hover polygon { stroke: red; fill: red; }
]]></style>
<script type="application/ecmascript" xlink:href="svg.min.js"/>
<svg id="graph" class="graph">
<g id="graph0" class="graph" transform="scale(1 1) rotate(0) translate(4 266)">
<title>JKQTPSingleColumnGraph</title>
<!-- Node1 -->
<g id="Node000001" class="node">
<title>Node1</title>
<g id="a_Node000001"><a xlink:title="This virtual JKQTPGraph descendent may be used as base for all graphs that use at least one column of...">
<polygon fill="#999999" stroke="#666666" points="261,-91 90,-91 90,-70 261,-70 261,-91"/>
<text text-anchor="middle" x="175.5" y="-77.4" font-family="Helvetica,sans-Serif" font-size="12.00">JKQTPSingleColumnGraph</text>
</a>
</g>
</g>
<!-- Node5 -->
<g id="Node000005" class="node">
<title>Node5</title>
<g id="a_Node000005"><a xlink:href="class_j_k_q_t_p_peak_stream_graph.html" target="_top" xlink:title="interprets data as a stream of x&#45; or y&#45;positions &#160;(depending in yPeaks ) ans plots a line on the heig...">
<polygon fill="white" stroke="#666666" points="161,-27.5 0,-27.5 0,-6.5 161,-6.5 161,-27.5"/>
<text text-anchor="middle" x="80.5" y="-13.9" font-family="Helvetica,sans-Serif" font-size="12.00">JKQTPPeakStreamGraph</text>
</a>
</g>
</g>
<!-- Node1&#45;&gt;Node5 -->
<g id="edge4_Node000001_Node000005" class="edge">
<title>Node1&#45;&gt;Node5</title>
<g id="a_edge4_Node000001_Node000005"><a xlink:title=" ">
<path fill="none" stroke="#63b8ff" d="M152,-64.29C134.24,-52.79 110.4,-37.35 95.24,-27.54"/>
<polygon fill="#63b8ff" stroke="#63b8ff" points="150.36,-67.39 160.66,-69.89 154.16,-61.52 150.36,-67.39"/>
</a>
</g>
</g>
<!-- Node6 -->
<g id="Node000006" class="node">
<title>Node6</title>
<g id="a_Node000006"><a xlink:href="class_j_k_q_t_p_single_column_symbols_graph.html" target="_top" xlink:title="plots a 1&#45;column set of data&#45;values with symbols onto a JKQtPlotter/JKQtBasePlotter....">
<polygon fill="white" stroke="#666666" points="364,-34 179,-34 179,0 364,0 364,-34"/>
<text text-anchor="start" x="187" y="-20.4" font-family="Helvetica,sans-Serif" font-size="12.00">JKQTPSingleColumnSymbols</text>
<text text-anchor="middle" x="271.5" y="-7.4" font-family="Helvetica,sans-Serif" font-size="12.00">Graph</text>
</a>
</g>
</g>
<!-- Node1&#45;&gt;Node6 -->
<g id="edge5_Node000001_Node000006" class="edge">
<title>Node1&#45;&gt;Node6</title>
<g id="a_edge5_Node000001_Node000006"><a xlink:title=" ">
<path fill="none" stroke="#63b8ff" d="M199.23,-64.3C213.49,-55.16 231.62,-43.55 246.15,-34.24"/>
<polygon fill="#63b8ff" stroke="#63b8ff" points="197.03,-61.55 190.5,-69.89 200.81,-67.44 197.03,-61.55"/>
</a>
</g>
</g>
<!-- Node2 -->
<g id="Node000002" class="node">
<title>Node2</title>
<g id="a_Node000002"><a xlink:href="class_j_k_q_t_p_graph.html" target="_top" xlink:title="this virtual base class of the (data&#45;column based) graphs, which are part of a JKQTPlotter plot and w...">
<polygon fill="white" stroke="#666666" points="220,-148 131,-148 131,-127 220,-127 220,-148"/>
<text text-anchor="middle" x="175.5" y="-134.4" font-family="Helvetica,sans-Serif" font-size="12.00">JKQTPGraph</text>
</a>
</g>
</g>
<!-- Node2&#45;&gt;Node1 -->
<g id="edge1_Node000001_Node000002" class="edge">
<title>Node2&#45;&gt;Node1</title>
<g id="a_edge1_Node000001_Node000002"><a xlink:title=" ">
<path fill="none" stroke="#63b8ff" d="M175.5,-116.86C175.5,-108.2 175.5,-98.42 175.5,-91.34"/>
<polygon fill="#63b8ff" stroke="#63b8ff" points="172,-116.92 175.5,-126.92 179,-116.92 172,-116.92"/>
</a>
</g>
</g>
<!-- Node3 -->
<g id="Node000003" class="node">
<title>Node3</title>
<g id="a_Node000003"><a xlink:href="class_j_k_q_t_p_plot_element.html" target="_top" xlink:title="this virtual base class of every element, which is part of a JKQTPlotter plot and may appear in its k...">
<polygon fill="white" stroke="#666666" points="238,-205 113,-205 113,-184 238,-184 238,-205"/>
<text text-anchor="middle" x="175.5" y="-191.4" font-family="Helvetica,sans-Serif" font-size="12.00">JKQTPPlotElement</text>
</a>
</g>
</g>
<!-- Node3&#45;&gt;Node2 -->
<g id="edge2_Node000002_Node000003" class="edge">
<title>Node3&#45;&gt;Node2</title>
<g id="a_edge2_Node000002_Node000003"><a xlink:title=" ">
<path fill="none" stroke="#63b8ff" d="M175.5,-173.86C175.5,-165.2 175.5,-155.42 175.5,-148.34"/>
<polygon fill="#63b8ff" stroke="#63b8ff" points="172,-173.92 175.5,-183.92 179,-173.92 172,-173.92"/>
</a>
</g>
</g>
<!-- Node4 -->
<g id="Node000004" class="node">
<title>Node4</title>
<g id="a_Node000004"><a xlink:title=" ">
<polygon fill="white" stroke="#666666" points="208,-262 143,-262 143,-241 208,-241 208,-262"/>
<text text-anchor="middle" x="175.5" y="-248.4" font-family="Helvetica,sans-Serif" font-size="12.00">QObject</text>
</a>
</g>
</g>
<!-- Node4&#45;&gt;Node3 -->
<g id="edge3_Node000003_Node000004" class="edge">
<title>Node4&#45;&gt;Node3</title>
<g id="a_edge3_Node000003_Node000004"><a xlink:title=" ">
<path fill="none" stroke="#63b8ff" d="M175.5,-230.86C175.5,-222.2 175.5,-212.42 175.5,-205.34"/>
<polygon fill="#63b8ff" stroke="#63b8ff" points="172,-230.92 175.5,-240.92 179,-230.92 172,-230.92"/>
</a>
</g>
</g>
</g>
</svg>
</svg>

<style type='text/css'>
<![CDATA[
[data-mouse-over-selected='false'] { opacity: 0.7; }
[data-mouse-over-selected='true']  { opacity: 1.0; }
]]>
</style>
<script type="application/ecmascript"><![CDATA[
document.addEventListener('DOMContentLoaded', (event) => {
  highlightEdges();
  highlightAdjacentNodes();
});
]]></script>
</svg>
