<?xml version="1.0" encoding="UTF-8" standalone="no"?>
<!DOCTYPE svg PUBLIC "-//W3C//DTD SVG 1.1//EN"
 "http://www.w3.org/Graphics/SVG/1.1/DTD/svg11.dtd">
<!-- Generated by graphviz version 2.43.0 (0)
 -->
<!-- Title: JKQTPXYLineErrorGraph Pages: 1 -->
<svg width="963pt" height="277pt"
 viewBox="0.00 0.00 963.00 277.00" xmlns="http://www.w3.org/2000/svg" xmlns:xlink="http://www.w3.org/1999/xlink">
<g id="graph0" class="graph" transform="scale(1 1) rotate(0) translate(4 273)">
<title>JKQTPXYLineErrorGraph</title>
<!-- Node1 -->
<g id="Node000001" class="node">
<title>Node1</title>
<g id="a_Node000001"><a xlink:title="This implements xy line plots with x and y error indicators.">
<polygon fill="#999999" stroke="#666666" points="955,-126 796,-126 796,-105 955,-105 955,-126"/>
<text text-anchor="middle" x="875.5" y="-112.4" font-family="Helvetica,sans-Serif" font-size="12.00">JKQTPXYLineErrorGraph</text>
</a>
</g>
</g>
<!-- Node2 -->
<g id="Node000002" class="node">
<title>Node2</title>
<g id="a_Node000002"><a xlink:href="class_j_k_q_t_p_x_y_line_graph.html" target="_top" xlink:title="This implements xy line plots. This also alows to draw symbols at the data points.">
<polygon fill="white" stroke="#666666" points="755,-191 625,-191 625,-170 755,-170 755,-191"/>
<text text-anchor="middle" x="690" y="-177.4" font-family="Helvetica,sans-Serif" font-size="12.00">JKQTPXYLineGraph</text>
</a>
</g>
</g>
<!-- Node2&#45;&gt;Node1 -->
<g id="edge1_Node000001_Node000002" class="edge">
<title>Node2&#45;&gt;Node1</title>
<g id="a_edge1_Node000001_Node000002"><a xlink:title=" ">
<path fill="none" stroke="#63b8ff" d="M730.57,-166.48C764.81,-154.35 813.57,-137.08 844.62,-126.08"/>
<polygon fill="#63b8ff" stroke="#63b8ff" points="729.15,-163.27 720.89,-169.91 731.49,-169.87 729.15,-163.27"/>
</a>
</g>
</g>
<!-- Node3 -->
<g id="Node000003" class="node">
<title>Node3</title>
<g id="a_Node000003"><a xlink:href="class_j_k_q_t_p_x_y_graph.html" target="_top" xlink:title="This virtual JKQTPGraph descendent may be used as base for all graphs that use at least two columns t...">
<polygon fill="white" stroke="#666666" points="538,-269 433,-269 433,-248 538,-248 538,-269"/>
<text text-anchor="middle" x="485.5" y="-255.4" font-family="Helvetica,sans-Serif" font-size="12.00">JKQTPXYGraph</text>
</a>
</g>
</g>
<!-- Node3&#45;&gt;Node2 -->
<g id="edge2_Node000002_Node000003" class="edge">
<title>Node3&#45;&gt;Node2</title>
<g id="a_edge2_Node000002_Node000003"><a xlink:title=" ">
<path fill="none" stroke="#63b8ff" d="M548.21,-249.57C560.27,-246.96 572.68,-243.66 584,-239.5 617.95,-227.02 653.97,-204.46 673.75,-191.15"/>
<polygon fill="#63b8ff" stroke="#63b8ff" points="547.3,-246.18 538.2,-251.6 548.69,-253.05 547.3,-246.18"/>
</a>
</g>
</g>
<!-- Node4 -->
<g id="Node000004" class="node">
<title>Node4</title>
<g id="a_Node000004"><a xlink:href="class_j_k_q_t_p_graph.html" target="_top" xlink:title="this virtual base class of the (data&#45;column based) graphs, which are part of a JKQTPlotter plot and w...">
<polygon fill="white" stroke="#666666" points="351,-269 262,-269 262,-248 351,-248 351,-269"/>
<text text-anchor="middle" x="306.5" y="-255.4" font-family="Helvetica,sans-Serif" font-size="12.00">JKQTPGraph</text>
</a>
</g>
</g>
<!-- Node4&#45;&gt;Node3 -->
<g id="edge3_Node000003_Node000004" class="edge">
<title>Node4&#45;&gt;Node3</title>
<g id="a_edge3_Node000003_Node000004"><a xlink:title=" ">
<path fill="none" stroke="#63b8ff" d="M361.39,-258.5C384.06,-258.5 410.33,-258.5 432.76,-258.5"/>
<polygon fill="#63b8ff" stroke="#63b8ff" points="361.25,-255 351.25,-258.5 361.25,-262 361.25,-255"/>
</a>
</g>
</g>
<!-- Node5 -->
<g id="Node000005" class="node">
<title>Node5</title>
<g id="a_Node000005"><a xlink:href="class_j_k_q_t_p_plot_element.html" target="_top" xlink:title="this virtual base class of every element, which is part of a JKQTPlotter plot and may appear in its k...">
<polygon fill="white" stroke="#666666" points="226,-269 101,-269 101,-248 226,-248 226,-269"/>
<text text-anchor="middle" x="163.5" y="-255.4" font-family="Helvetica,sans-Serif" font-size="12.00">JKQTPPlotElement</text>
</a>
</g>
</g>
<!-- Node5&#45;&gt;Node4 -->
<g id="edge4_Node000004_Node000005" class="edge">
<title>Node5&#45;&gt;Node4</title>
<g id="a_edge4_Node000004_Node000005"><a xlink:title=" ">
<path fill="none" stroke="#63b8ff" d="M236.51,-258.5C245.18,-258.5 253.82,-258.5 261.91,-258.5"/>
<polygon fill="#63b8ff" stroke="#63b8ff" points="236.34,-255 226.34,-258.5 236.34,-262 236.34,-255"/>
</a>
</g>
</g>
<!-- Node6 -->
<g id="Node000006" class="node">
<title>Node6</title>
<g id="a_Node000006"><a xlink:title=" ">
<polygon fill="white" stroke="#666666" points="65,-269 0,-269 0,-248 65,-248 65,-269"/>
<text text-anchor="middle" x="32.5" y="-255.4" font-family="Helvetica,sans-Serif" font-size="12.00">QObject</text>
</a>
</g>
</g>
<!-- Node6&#45;&gt;Node5 -->
<g id="edge5_Node000005_Node000006" class="edge">
<title>Node6&#45;&gt;Node5</title>
<g id="a_edge5_Node000005_Node000006"><a xlink:title=" ">
<path fill="none" stroke="#63b8ff" d="M75.09,-258.5C83.29,-258.5 92.05,-258.5 100.75,-258.5"/>
<polygon fill="#63b8ff" stroke="#63b8ff" points="75.06,-255 65.06,-258.5 75.06,-262 75.06,-255"/>
</a>
</g>
</g>
<!-- Node7 -->
<g id="Node000007" class="node">
<title>Node7</title>
<g id="a_Node000007"><a xlink:href="class_j_k_q_t_p_graph_line_style_mixin.html" target="_top" xlink:title="This Mix&#45;In class provides setter/getter methods, storage and other facilities for the graph line sty...">
<polygon fill="white" stroke="#666666" points="572.5,-230 398.5,-230 398.5,-209 572.5,-209 572.5,-230"/>
<text text-anchor="middle" x="485.5" y="-216.4" font-family="Helvetica,sans-Serif" font-size="12.00">JKQTPGraphLineStyleMixin</text>
</a>
</g>
</g>
<!-- Node7&#45;&gt;Node2 -->
<g id="edge6_Node000002_Node000007" class="edge">
<title>Node7&#45;&gt;Node2</title>
<g id="a_edge6_Node000002_Node000007"><a xlink:title=" ">
<path fill="none" stroke="#63b8ff" d="M551.1,-207.06C577.92,-201.89 608.7,-195.97 634.37,-191.02"/>
<polygon fill="#63b8ff" stroke="#63b8ff" points="550.19,-203.67 541.03,-209 551.51,-210.54 550.19,-203.67"/>
</a>
</g>
</g>
<!-- Node8 -->
<g id="Node000008" class="node">
<title>Node8</title>
<g id="a_Node000008"><a xlink:href="class_j_k_q_t_p_graph_symbol_style_mixin.html" target="_top" xlink:title="This Mix&#45;In class provides setter/getter methods, storage and other facilities for the graph symbols ...">
<polygon fill="white" stroke="#666666" points="582.5,-191 388.5,-191 388.5,-170 582.5,-170 582.5,-191"/>
<text text-anchor="middle" x="485.5" y="-177.4" font-family="Helvetica,sans-Serif" font-size="12.00">JKQTPGraphSymbolStyleMixin</text>
</a>
</g>
</g>
<!-- Node8&#45;&gt;Node2 -->
<g id="edge7_Node000002_Node000008" class="edge">
<title>Node8&#45;&gt;Node2</title>
<g id="a_edge7_Node000002_Node000008"><a xlink:title=" ">
<path fill="none" stroke="#63b8ff" d="M592.76,-180.5C603.7,-180.5 614.56,-180.5 624.83,-180.5"/>
<polygon fill="#63b8ff" stroke="#63b8ff" points="592.71,-177 582.71,-180.5 592.71,-184 592.71,-177"/>
</a>
</g>
</g>
<!-- Node9 -->
<g id="Node000009" class="node">
<title>Node9</title>
<g id="a_Node000009"><a xlink:href="class_j_k_q_t_p_graph_lines_compression_mixin.html" target="_top" xlink:title="This Mix&#45;In class provides setter/getter methods, storage and other facilities for a line&#45;graph compr...">
<polygon fill="white" stroke="#666666" points="584,-151.5 387,-151.5 387,-117.5 584,-117.5 584,-151.5"/>
<text text-anchor="start" x="395" y="-137.9" font-family="Helvetica,sans-Serif" font-size="12.00">JKQTPGraphLinesCompression</text>
<text text-anchor="middle" x="485.5" y="-124.9" font-family="Helvetica,sans-Serif" font-size="12.00">Mixin</text>
</a>
</g>
</g>
<!-- Node9&#45;&gt;Node2 -->
<g id="edge8_Node000002_Node000009" class="edge">
<title>Node9&#45;&gt;Node2</title>
<g id="a_edge8_Node000002_Node000009"><a xlink:title=" ">
<path fill="none" stroke="#63b8ff" d="M571.57,-153.83C595.88,-159.35 621.46,-165.16 642.52,-169.94"/>
<polygon fill="#63b8ff" stroke="#63b8ff" points="572.14,-150.37 561.62,-151.56 570.59,-157.19 572.14,-150.37"/>
</a>
</g>
</g>
<!-- Node10 -->
<g id="Node000010" class="node">
<title>Node10</title>
<g id="a_Node000010"><a xlink:href="class_j_k_q_t_p_x_y_graph_errors.html" target="_top" xlink:title="This class is the base class for graphs that only display error indicators in x&#45; and y&#45;direction.">
<polygon fill="white" stroke="#666666" points="760,-80 620,-80 620,-59 760,-59 760,-80"/>
<text text-anchor="middle" x="690" y="-66.4" font-family="Helvetica,sans-Serif" font-size="12.00">JKQTPXYGraphErrors</text>
</a>
</g>
</g>
<!-- Node10&#45;&gt;Node1 -->
<g id="edge9_Node000001_Node000010" class="edge">
<title>Node10&#45;&gt;Node1</title>
<g id="a_edge9_Node000001_Node000010"><a xlink:title=" ">
<path fill="none" stroke="#63b8ff" d="M742.85,-82.5C771.23,-89.61 805.94,-98.31 832.6,-105"/>
<polygon fill="#63b8ff" stroke="#63b8ff" points="743.65,-79.09 733.1,-80.05 741.95,-85.88 743.65,-79.09"/>
</a>
</g>
</g>
<!-- Node11 -->
<g id="Node000011" class="node">
<title>Node11</title>
<g id="a_Node000011"><a xlink:href="class_j_k_q_t_p_x_graph_error_data.html" target="_top" xlink:title="This class adds data fields for error indicators in x direction.">
<polygon fill="white" stroke="#666666" points="563,-99 408,-99 408,-78 563,-78 563,-99"/>
<text text-anchor="middle" x="485.5" y="-85.4" font-family="Helvetica,sans-Serif" font-size="12.00">JKQTPXGraphErrorData</text>
</a>
</g>
</g>
<!-- Node11&#45;&gt;Node10 -->
<g id="edge10_Node000010_Node000011" class="edge">
<title>Node11&#45;&gt;Node10</title>
<g id="a_edge10_Node000010_Node000011"><a xlink:title=" ">
<path fill="none" stroke="#63b8ff" d="M573.24,-80.36C588.86,-78.9 604.96,-77.39 619.99,-75.98"/>
<polygon fill="#63b8ff" stroke="#63b8ff" points="572.69,-76.9 563.06,-81.32 573.34,-83.87 572.69,-76.9"/>
</a>
</g>
</g>
<!-- Node12 -->
<g id="Node000012" class="node">
<title>Node12</title>
<g id="a_Node000012"><a xlink:href="class_j_k_q_t_p_y_graph_error_data.html" target="_top" xlink:title="This class adds data fields for error indicators in y direction.">
<polygon fill="white" stroke="#666666" points="562.5,-60 408.5,-60 408.5,-39 562.5,-39 562.5,-60"/>
<text text-anchor="middle" x="485.5" y="-46.4" font-family="Helvetica,sans-Serif" font-size="12.00">JKQTPYGraphErrorData</text>
</a>
</g>
</g>
<!-- Node12&#45;&gt;Node10 -->
<g id="edge11_Node000010_Node000012" class="edge">
<title>Node12&#45;&gt;Node10</title>
<g id="a_edge11_Node000010_Node000012"><a xlink:title=" ">
<path fill="none" stroke="#63b8ff" d="M572.96,-58.04C588.61,-59.58 604.73,-61.18 619.8,-62.67"/>
<polygon fill="#63b8ff" stroke="#63b8ff" points="573.06,-54.53 562.77,-57.03 572.38,-61.5 573.06,-54.53"/>
</a>
</g>
</g>
<!-- Node13 -->
<g id="Node000013" class="node">
<title>Node13</title>
<g id="a_Node000013"><a xlink:href="class_j_k_q_t_p_graph_error_style_mixin.html" target="_top" xlink:title="This mix&#45;in class assembles all styling properties applicable to error indicators.">
<polygon fill="white" stroke="#666666" points="575,-21 396,-21 396,0 575,0 575,-21"/>
<text text-anchor="middle" x="485.5" y="-7.4" font-family="Helvetica,sans-Serif" font-size="12.00">JKQTPGraphErrorStyleMixin</text>
</a>
</g>
</g>
<!-- Node13&#45;&gt;Node10 -->
<g id="edge12_Node000010_Node000013" class="edge">
<title>Node13&#45;&gt;Node10</title>
<g id="a_edge12_Node000010_Node000013"><a xlink:title=" ">
<path fill="none" stroke="#63b8ff" d="M558.97,-23.18C567.46,-25.09 575.95,-27.2 584,-29.5 612.32,-37.59 643.76,-50.05 664.79,-58.92"/>
<polygon fill="#63b8ff" stroke="#63b8ff" points="559.55,-19.73 549.03,-21.03 558.07,-26.57 559.55,-19.73"/>
</a>
</g>
</g>
</g>
</svg>
