<?xml version="1.0" encoding="UTF-8" standalone="no"?>
<!DOCTYPE svg PUBLIC "-//W3C//DTD SVG 1.1//EN"
 "http://www.w3.org/Graphics/SVG/1.1/DTD/svg11.dtd">
<!-- Generated by graphviz version 2.43.0 (0)
 -->
<!-- Title: JKQTPYGraphErrors Pages: 1 -->
<!--zoomable 121 -->

<svg id="main" version="1.1" xmlns="http://www.w3.org/2000/svg" xmlns:xlink="http://www.w3.org/1999/xlink" xml:space="preserve" onload="init(evt)">

<style type="text/css"><![CDATA[
.node, .edge {opacity: 0.7;}
.node.selected, .edge.selected {opacity: 1;}
.edge:hover path { stroke: red; }
.edge:hover polygon { stroke: red; fill: red; }
]]></style>

<defs>
  <circle id="rim" cx="0" cy="0" r="7"/>
  <circle id="rim2" cx="0" cy="0" r="3.5"/>
  <g id="zoomPlus">
    <use xlink:href="#rim" fill="#404040"><set attributeName="fill" to="#808080" begin="zoomplus.mouseover" end="zoomplus.mouseout"/></use>
    <path d="M-4,0h8M0,-4v8" fill="none" stroke="white" stroke-width="1.5" pointer-events="none"/>
  </g>
  <g id="zoomMin">
    <use xlink:href="#rim" fill="#404040"><set attributeName="fill" to="#808080" begin="zoomminus.mouseover" end="zoomminus.mouseout"/></use>
    <path d="M-4,0h8" fill="none" stroke="white" stroke-width="1.5" pointer-events="none"/>
  </g>
  <g id="arrowUp" transform="translate(30 24)">
    <use xlink:href="#rim"/>
    <path pointer-events="none" fill="none" stroke="white" stroke-width="1.5" d="M0,-3.0v7 M-2.5,-0.5L0,-3.0L2.5,-0.5"/>
  </g>
  <g id="arrowRight" transform="rotate(90) translate(36 -43)">
    <use xlink:href="#rim"/>
    <path pointer-events="none" fill="none" stroke="white" stroke-width="1.5" d="M0,-3.0v7 M-2.5,-0.5L0,-3.0L2.5,-0.5"/>
  </g>
  <g id="arrowDown" transform="rotate(180) translate(-30 -48)">
    <use xlink:href="#rim"/>
    <path pointer-events="none" fill="none" stroke="white" stroke-width="1.5" d="M0,-3.0v7 M-2.5,-0.5L0,-3.0L2.5,-0.5"/>
  </g>
  <g id="arrowLeft" transform="rotate(270) translate(-36 17)">
    <use xlink:href="#rim"/>
    <path pointer-events="none" fill="none" stroke="white" stroke-width="1.5" d="M0,-3.0v7 M-2.5,-0.5L0,-3.0L2.5,-0.5"/>
  </g>
  <g id="resetDef">
    <use xlink:href="#rim2" fill="#404040"><set attributeName="fill" to="#808080" begin="reset.mouseover" end="reset.mouseout"/></use>
  </g>
</defs>
<script type="application/ecmascript">
var viewWidth = 582;
var viewHeight = 121;
var sectionId = 'dynsection-0';
</script>
<script type="application/ecmascript" xlink:href="svg.min.js"/>
<svg id="graph" class="graph">
<g id="viewport">
<title>JKQTPYGraphErrors</title>
<!-- Node1 -->
<g id="Node000001" class="node">
<title>Node1</title>
<g id="a_Node000001"><a xlink:title="This class is the base class for graphs that only display error indicators in y&#45;direction.">
<polygon fill="#999999" stroke="#666666" points="346,-73.5 215,-73.5 215,-52.5 346,-52.5 346,-73.5"/>
<text text-anchor="middle" x="280.5" y="-59.9" font-family="Helvetica,sans-Serif" font-size="12.00">JKQTPYGraphErrors</text>
</a>
</g>
</g>
<!-- Node4 -->
<g id="Node000004" class="node">
<title>Node4</title>
<g id="a_Node000004"><a xlink:href="class_j_k_q_t_p_bar_vertical_error_graph.html" target="_top" xlink:title="This implements a vertical bar graph with bars between &#160;and &#160;and error indicator.">
<polygon fill="white" stroke="#666666" points="570.5,-112.5 385.5,-112.5 385.5,-91.5 570.5,-91.5 570.5,-112.5"/>
<text text-anchor="middle" x="478" y="-98.9" font-family="Helvetica,sans-Serif" font-size="12.00">JKQTPBarVerticalErrorGraph</text>
</a>
</g>
</g>
<!-- Node1&#45;&gt;Node4 -->
<g id="edge3_Node000001_Node000004" class="edge">
<title>Node1&#45;&gt;Node4</title>
<g id="a_edge3_Node000001_Node000004"><a xlink:title=" ">
<path fill="none" stroke="#63b8ff" d="M344.21,-75.51C370.02,-80.66 399.59,-86.56 424.26,-91.48"/>
<polygon fill="#63b8ff" stroke="#63b8ff" points="344.64,-72.03 334.15,-73.5 343.27,-78.89 344.64,-72.03"/>
</a>
</g>
</g>
<!-- Node5 -->
<g id="Node000005" class="node">
<title>Node5</title>
<g id="a_Node000005"><a xlink:href="class_j_k_q_t_p_filled_curve_x_error_graph.html" target="_top" xlink:title="This implements filled curve plots with y errors where the area is filled between the plot line and t...">
<polygon fill="white" stroke="#666666" points="574,-73.5 382,-73.5 382,-52.5 574,-52.5 574,-73.5"/>
<text text-anchor="middle" x="478" y="-59.9" font-family="Helvetica,sans-Serif" font-size="12.00">JKQTPFilledCurveXErrorGraph</text>
</a>
</g>
</g>
<!-- Node1&#45;&gt;Node5 -->
<g id="edge4_Node000001_Node000005" class="edge">
<title>Node1&#45;&gt;Node5</title>
<g id="a_edge4_Node000001_Node000005"><a xlink:title=" ">
<path fill="none" stroke="#63b8ff" d="M356.15,-63C364.53,-63 373.15,-63 381.75,-63"/>
<polygon fill="#63b8ff" stroke="#63b8ff" points="356.06,-59.5 346.06,-63 356.06,-66.5 356.06,-59.5"/>
</a>
</g>
</g>
<!-- Node6 -->
<g id="Node000006" class="node">
<title>Node6</title>
<g id="a_Node000006"><a xlink:href="class_j_k_q_t_p_impulses_vertical_error_graph.html" target="_top" xlink:title="This implements an impulse plot with impulses in direction of the X axis (i.e. from x=0 to x=f(y) )">
<polygon fill="white" stroke="#666666" points="568,-34 388,-34 388,0 568,0 568,-34"/>
<text text-anchor="start" x="396" y="-20.4" font-family="Helvetica,sans-Serif" font-size="12.00">JKQTPImpulsesVerticalError</text>
<text text-anchor="middle" x="478" y="-7.4" font-family="Helvetica,sans-Serif" font-size="12.00">Graph</text>
</a>
</g>
</g>
<!-- Node1&#45;&gt;Node6 -->
<g id="edge5_Node000001_Node000006" class="edge">
<title>Node1&#45;&gt;Node6</title>
<g id="a_edge5_Node000001_Node000006"><a xlink:title=" ">
<path fill="none" stroke="#63b8ff" d="M336.13,-50.15C357.28,-45.17 381.79,-39.4 404.39,-34.08"/>
<polygon fill="#63b8ff" stroke="#63b8ff" points="335.28,-46.75 326.35,-52.45 336.89,-53.56 335.28,-46.75"/>
</a>
</g>
</g>
<!-- Node2 -->
<g id="Node000002" class="node">
<title>Node2</title>
<g id="a_Node000002"><a xlink:href="class_j_k_q_t_p_y_graph_error_data.html" target="_top" xlink:title="This class adds data fields for error indicators in y direction.">
<polygon fill="white" stroke="#666666" points="166.5,-93.5 12.5,-93.5 12.5,-72.5 166.5,-72.5 166.5,-93.5"/>
<text text-anchor="middle" x="89.5" y="-79.9" font-family="Helvetica,sans-Serif" font-size="12.00">JKQTPYGraphErrorData</text>
</a>
</g>
</g>
<!-- Node2&#45;&gt;Node1 -->
<g id="edge1_Node000001_Node000002" class="edge">
<title>Node2&#45;&gt;Node1</title>
<g id="a_edge1_Node000001_Node000002"><a xlink:title=" ">
<path fill="none" stroke="#63b8ff" d="M176.76,-73.87C189.57,-72.52 202.57,-71.14 214.83,-69.84"/>
<polygon fill="#63b8ff" stroke="#63b8ff" points="176.13,-70.42 166.56,-74.95 176.87,-77.38 176.13,-70.42"/>
</a>
</g>
</g>
<!-- Node3 -->
<g id="Node000003" class="node">
<title>Node3</title>
<g id="a_Node000003"><a xlink:href="class_j_k_q_t_p_graph_error_style_mixin.html" target="_top" xlink:title="This mix&#45;in class assembles all styling properties applicable to error indicators.">
<polygon fill="white" stroke="#666666" points="179,-54.5 0,-54.5 0,-33.5 179,-33.5 179,-54.5"/>
<text text-anchor="middle" x="89.5" y="-40.9" font-family="Helvetica,sans-Serif" font-size="12.00">JKQTPGraphErrorStyleMixin</text>
</a>
</g>
</g>
<!-- Node3&#45;&gt;Node1 -->
<g id="edge2_Node000001_Node000003" class="edge">
<title>Node3&#45;&gt;Node1</title>
<g id="a_edge2_Node000001_Node000003"><a xlink:title=" ">
<path fill="none" stroke="#63b8ff" d="M189.32,-53.93C197.94,-54.8 206.52,-55.66 214.75,-56.49"/>
<polygon fill="#63b8ff" stroke="#63b8ff" points="189.49,-50.43 179.19,-52.92 188.79,-57.4 189.49,-50.43"/>
</a>
</g>
</g>
</g>
</svg>

<g id="navigator" transform="translate(0 0)" fill="#404254">
  <rect fill="#f2f5e9" fill-opacity="0.5" stroke="#606060" stroke-width=".5" x="0" y="0" width="60" height="60"/>
  <use id="zoomplus" xlink:href="#zoomPlus" x="17" y="9" onmousedown="handleZoom(evt,'in')"/>
  <use id="zoomminus" xlink:href="#zoomMin" x="42" y="9" onmousedown="handleZoom(evt,'out')"/>
  <use id="reset" xlink:href="#resetDef" x="30" y="36" onmousedown="handleReset()"/>
   <use id="arrowup" xlink:href="#arrowUp" x="0" y="0" onmousedown="handlePan(0,-1)"/>
  <use id="arrowright" xlink:href="#arrowRight" x="0" y="0" onmousedown="handlePan(1,0)"/>
  <use id="arrowdown" xlink:href="#arrowDown" x="0" y="0" onmousedown="handlePan(0,1)"/>
  <use id="arrowleft" xlink:href="#arrowLeft" x="0" y="0" onmousedown="handlePan(-1,0)"/>
</g>
<svg viewBox="0 0 15 15" width="100%" height="30px" preserveAspectRatio="xMaxYMin meet">
 <g id="arrow_out" transform="scale(0.3 0.3)">
  <a xlink:href="class_j_k_q_t_p_y_graph_errors__inherit__graph_org.svg" target="_base">
   <rect id="button" ry="5" rx="5" y="6" x="6" height="38" width="38"
        fill="#f2f5e9" fill-opacity="0.5" stroke="#606060" stroke-width="1.0"/>
   <path id="arrow"
     d="M 11.500037,31.436501 C 11.940474,20.09759 22.043105,11.32322 32.158766,21.979434 L 37.068811,17.246167 C 37.068811,17.246167 37.088388,32 37.088388,32 L 22.160133,31.978069 C 22.160133,31.978069 26.997745,27.140456 26.997745,27.140456 C 18.528582,18.264221 13.291696,25.230495 11.500037,31.436501 z"
     style="fill:#404040;"/>
  </a>
 </g>
</svg>

<style type='text/css'>
<![CDATA[
[data-mouse-over-selected='false'] { opacity: 0.7; }
[data-mouse-over-selected='true']  { opacity: 1.0; }
]]>
</style>
<script type="application/ecmascript"><![CDATA[
document.addEventListener('DOMContentLoaded', (event) => {
  highlightEdges();
  highlightAdjacentNodes();
});
]]></script>
</svg>
