<?xml version="1.0" encoding="UTF-8" standalone="no"?>
<!DOCTYPE svg PUBLIC "-//W3C//DTD SVG 1.1//EN"
 "http://www.w3.org/Graphics/SVG/1.1/DTD/svg11.dtd">
<!-- Generated by graphviz version 2.43.0 (0)
 -->
<!-- Title: JKQTPBarHorizontalStackableGraph Pages: 1 -->
<svg width="561pt" height="454pt"
 viewBox="0.00 0.00 561.00 454.00" xmlns="http://www.w3.org/2000/svg" xmlns:xlink="http://www.w3.org/1999/xlink">
<g id="graph0" class="graph" transform="scale(1 1) rotate(0) translate(4 450)">
<title>JKQTPBarHorizontalStackableGraph</title>
<!-- Node1 -->
<g id="Node000001" class="node">
<title>Node1</title>
<g id="a_Node000001"><a xlink:title="This implements a horizontal bar graph with bars between &#160;and &#160;Optionally several graphs of this type...">
<polygon fill="#999999" stroke="#666666" points="456,-34 263,-34 263,0 456,0 456,-34"/>
<text text-anchor="start" x="271" y="-20.4" font-family="Helvetica,sans-Serif" font-size="12.00">JKQTPBarHorizontalStackable</text>
<text text-anchor="middle" x="359.5" y="-7.4" font-family="Helvetica,sans-Serif" font-size="12.00">Graph</text>
</a>
</g>
</g>
<!-- Node2 -->
<g id="Node000002" class="node">
<title>Node2</title>
<g id="a_Node000002"><a xlink:href="class_j_k_q_t_p_bar_horizontal_graph.html" target="_top" xlink:title="This implements a horizontal bar graph with bars between &#160;and .">
<polygon fill="white" stroke="#666666" points="346,-97.5 175,-97.5 175,-76.5 346,-76.5 346,-97.5"/>
<text text-anchor="middle" x="260.5" y="-83.9" font-family="Helvetica,sans-Serif" font-size="12.00">JKQTPBarHorizontalGraph</text>
</a>
</g>
</g>
<!-- Node2&#45;&gt;Node1 -->
<g id="edge1_Node000001_Node000002" class="edge">
<title>Node2&#45;&gt;Node1</title>
<g id="a_edge1_Node000001_Node000002"><a xlink:title=" ">
<path fill="none" stroke="#63b8ff" d="M283.33,-70.32C299.18,-59.43 320.22,-44.98 336.17,-34.03"/>
<polygon fill="#63b8ff" stroke="#63b8ff" points="280.95,-67.71 274.68,-76.26 284.91,-73.48 280.95,-67.71"/>
</a>
</g>
</g>
<!-- Node3 -->
<g id="Node000003" class="node">
<title>Node3</title>
<g id="a_Node000003"><a xlink:href="class_j_k_q_t_p_bar_graph_base.html" target="_top" xlink:title="This is a base&#45;class for all bar graphs with vertical or horizontal orientation (the orientation is i...">
<polygon fill="white" stroke="#666666" points="330.5,-161 190.5,-161 190.5,-140 330.5,-140 330.5,-161"/>
<text text-anchor="middle" x="260.5" y="-147.4" font-family="Helvetica,sans-Serif" font-size="12.00">JKQTPBarGraphBase</text>
</a>
</g>
</g>
<!-- Node3&#45;&gt;Node2 -->
<g id="edge2_Node000002_Node000003" class="edge">
<title>Node3&#45;&gt;Node2</title>
<g id="a_edge2_Node000002_Node000003"><a xlink:title=" ">
<path fill="none" stroke="#63b8ff" d="M260.5,-129.75C260.5,-119.05 260.5,-106.31 260.5,-97.74"/>
<polygon fill="#63b8ff" stroke="#63b8ff" points="257,-129.89 260.5,-139.89 264,-129.89 257,-129.89"/>
</a>
</g>
</g>
<!-- Node4 -->
<g id="Node000004" class="node">
<title>Node4</title>
<g id="a_Node000004"><a xlink:href="class_j_k_q_t_p_x_y_baseline_graph.html" target="_top" xlink:title="This virtual JKQTPGraph descendent extends JKQTPXYGraph adds a baseline&#45;property, which is necessary,...">
<polygon fill="white" stroke="#666666" points="155,-218 0,-218 0,-197 155,-197 155,-218"/>
<text text-anchor="middle" x="77.5" y="-204.4" font-family="Helvetica,sans-Serif" font-size="12.00">JKQTPXYBaselineGraph</text>
</a>
</g>
</g>
<!-- Node4&#45;&gt;Node3 -->
<g id="edge3_Node000003_Node000004" class="edge">
<title>Node4&#45;&gt;Node3</title>
<g id="a_edge3_Node000003_Node000004"><a xlink:title=" ">
<path fill="none" stroke="#63b8ff" d="M119.26,-193.95C152.51,-183.96 198.36,-170.18 228.68,-161.06"/>
<polygon fill="#63b8ff" stroke="#63b8ff" points="117.95,-190.69 109.38,-196.92 119.96,-197.39 117.95,-190.69"/>
</a>
</g>
</g>
<!-- Node5 -->
<g id="Node000005" class="node">
<title>Node5</title>
<g id="a_Node000005"><a xlink:href="class_j_k_q_t_p_x_y_graph.html" target="_top" xlink:title="This virtual JKQTPGraph descendent may be used as base for all graphs that use at least two columns t...">
<polygon fill="white" stroke="#666666" points="130,-275 25,-275 25,-254 130,-254 130,-275"/>
<text text-anchor="middle" x="77.5" y="-261.4" font-family="Helvetica,sans-Serif" font-size="12.00">JKQTPXYGraph</text>
</a>
</g>
</g>
<!-- Node5&#45;&gt;Node4 -->
<g id="edge4_Node000004_Node000005" class="edge">
<title>Node5&#45;&gt;Node4</title>
<g id="a_edge4_Node000004_Node000005"><a xlink:title=" ">
<path fill="none" stroke="#63b8ff" d="M77.5,-243.86C77.5,-235.2 77.5,-225.42 77.5,-218.34"/>
<polygon fill="#63b8ff" stroke="#63b8ff" points="74,-243.92 77.5,-253.92 81,-243.92 74,-243.92"/>
</a>
</g>
</g>
<!-- Node6 -->
<g id="Node000006" class="node">
<title>Node6</title>
<g id="a_Node000006"><a xlink:href="class_j_k_q_t_p_graph.html" target="_top" xlink:title="this virtual base class of the (data&#45;column based) graphs, which are part of a JKQTPlotter plot and w...">
<polygon fill="white" stroke="#666666" points="122,-332 33,-332 33,-311 122,-311 122,-332"/>
<text text-anchor="middle" x="77.5" y="-318.4" font-family="Helvetica,sans-Serif" font-size="12.00">JKQTPGraph</text>
</a>
</g>
</g>
<!-- Node6&#45;&gt;Node5 -->
<g id="edge5_Node000005_Node000006" class="edge">
<title>Node6&#45;&gt;Node5</title>
<g id="a_edge5_Node000005_Node000006"><a xlink:title=" ">
<path fill="none" stroke="#63b8ff" d="M77.5,-300.86C77.5,-292.2 77.5,-282.42 77.5,-275.34"/>
<polygon fill="#63b8ff" stroke="#63b8ff" points="74,-300.92 77.5,-310.92 81,-300.92 74,-300.92"/>
</a>
</g>
</g>
<!-- Node7 -->
<g id="Node000007" class="node">
<title>Node7</title>
<g id="a_Node000007"><a xlink:href="class_j_k_q_t_p_plot_element.html" target="_top" xlink:title="this virtual base class of every element, which is part of a JKQTPlotter plot and may appear in its k...">
<polygon fill="white" stroke="#666666" points="140,-389 15,-389 15,-368 140,-368 140,-389"/>
<text text-anchor="middle" x="77.5" y="-375.4" font-family="Helvetica,sans-Serif" font-size="12.00">JKQTPPlotElement</text>
</a>
</g>
</g>
<!-- Node7&#45;&gt;Node6 -->
<g id="edge6_Node000006_Node000007" class="edge">
<title>Node7&#45;&gt;Node6</title>
<g id="a_edge6_Node000006_Node000007"><a xlink:title=" ">
<path fill="none" stroke="#63b8ff" d="M77.5,-357.86C77.5,-349.2 77.5,-339.42 77.5,-332.34"/>
<polygon fill="#63b8ff" stroke="#63b8ff" points="74,-357.92 77.5,-367.92 81,-357.92 74,-357.92"/>
</a>
</g>
</g>
<!-- Node8 -->
<g id="Node000008" class="node">
<title>Node8</title>
<g id="a_Node000008"><a xlink:title=" ">
<polygon fill="white" stroke="#666666" points="110,-446 45,-446 45,-425 110,-425 110,-446"/>
<text text-anchor="middle" x="77.5" y="-432.4" font-family="Helvetica,sans-Serif" font-size="12.00">QObject</text>
</a>
</g>
</g>
<!-- Node8&#45;&gt;Node7 -->
<g id="edge7_Node000007_Node000008" class="edge">
<title>Node8&#45;&gt;Node7</title>
<g id="a_edge7_Node000007_Node000008"><a xlink:title=" ">
<path fill="none" stroke="#63b8ff" d="M77.5,-414.86C77.5,-406.2 77.5,-396.42 77.5,-389.34"/>
<polygon fill="#63b8ff" stroke="#63b8ff" points="74,-414.92 77.5,-424.92 81,-414.92 74,-414.92"/>
</a>
</g>
</g>
<!-- Node9 -->
<g id="Node000009" class="node">
<title>Node9</title>
<g id="a_Node000009"><a xlink:href="class_j_k_q_t_p_graph_line_style_mixin.html" target="_top" xlink:title="This Mix&#45;In class provides setter/getter methods, storage and other facilities for the graph line sty...">
<polygon fill="white" stroke="#666666" points="347.5,-218 173.5,-218 173.5,-197 347.5,-197 347.5,-218"/>
<text text-anchor="middle" x="260.5" y="-204.4" font-family="Helvetica,sans-Serif" font-size="12.00">JKQTPGraphLineStyleMixin</text>
</a>
</g>
</g>
<!-- Node9&#45;&gt;Node3 -->
<g id="edge8_Node000003_Node000009" class="edge">
<title>Node9&#45;&gt;Node3</title>
<g id="a_edge8_Node000003_Node000009"><a xlink:title=" ">
<path fill="none" stroke="#63b8ff" d="M260.5,-186.86C260.5,-178.2 260.5,-168.42 260.5,-161.34"/>
<polygon fill="#63b8ff" stroke="#63b8ff" points="257,-186.92 260.5,-196.92 264,-186.92 257,-186.92"/>
</a>
</g>
</g>
<!-- Node10 -->
<g id="Node000010" class="node">
<title>Node10</title>
<g id="a_Node000010"><a xlink:href="class_j_k_q_t_p_graph_fill_style_mixin.html" target="_top" xlink:title="This Mix&#45;In class provides setter/getter methods, storage and other facilities for the graph filling ...">
<polygon fill="white" stroke="#666666" points="529.5,-218 365.5,-218 365.5,-197 529.5,-197 529.5,-218"/>
<text text-anchor="middle" x="447.5" y="-204.4" font-family="Helvetica,sans-Serif" font-size="12.00">JKQTPGraphFillStyleMixin</text>
</a>
</g>
</g>
<!-- Node10&#45;&gt;Node3 -->
<g id="edge9_Node000003_Node000010" class="edge">
<title>Node10&#45;&gt;Node3</title>
<g id="a_edge9_Node000003_Node000010"><a xlink:title=" ">
<path fill="none" stroke="#63b8ff" d="M405.27,-194.08C371.25,-184.07 324.14,-170.22 293.01,-161.06"/>
<polygon fill="#63b8ff" stroke="#63b8ff" points="404.35,-197.46 414.93,-196.92 406.32,-190.74 404.35,-197.46"/>
</a>
</g>
</g>
<!-- Node11 -->
<g id="Node000011" class="node">
<title>Node11</title>
<g id="a_Node000011"><a xlink:href="class_j_k_q_t_p_bar_graph_stack_internal_interface.html" target="_top" xlink:title="This is an interface&#45;class for all stackable bargraphs ... it is used internally for autoscaling only...">
<polygon fill="white" stroke="#666666" points="553,-104 364,-104 364,-70 553,-70 553,-104"/>
<text text-anchor="start" x="372" y="-90.4" font-family="Helvetica,sans-Serif" font-size="12.00">JKQTPBarGraphStackInternal</text>
<text text-anchor="middle" x="458.5" y="-77.4" font-family="Helvetica,sans-Serif" font-size="12.00">Interface</text>
</a>
</g>
</g>
<!-- Node11&#45;&gt;Node1 -->
<g id="edge10_Node000001_Node000011" class="edge">
<title>Node11&#45;&gt;Node1</title>
<g id="a_edge10_Node000001_Node000011"><a xlink:title=" ">
<path fill="none" stroke="#63b8ff" d="M426.58,-64.07C412.46,-54.37 396.14,-43.17 383.14,-34.24"/>
<polygon fill="#63b8ff" stroke="#63b8ff" points="424.81,-67.11 435.04,-69.88 428.78,-61.34 424.81,-67.11"/>
</a>
</g>
</g>
</g>
</svg>
