<?xml version="1.0" encoding="UTF-8" standalone="no"?>
<!DOCTYPE svg PUBLIC "-//W3C//DTD SVG 1.1//EN"
 "http://www.w3.org/Graphics/SVG/1.1/DTD/svg11.dtd">
<!-- Generated by graphviz version 2.43.0 (0)
 -->
<!-- Title: JKQTMathTextLatexParser Pages: 1 -->
<svg width="416pt" height="239pt"
 viewBox="0.00 0.00 416.00 239.00" xmlns="http://www.w3.org/2000/svg" xmlns:xlink="http://www.w3.org/1999/xlink">
<g id="graph0" class="graph" transform="scale(1 1) rotate(0) translate(4 235)">
<title>JKQTMathTextLatexParser</title>
<!-- Node1 -->
<g id="Node000001" class="node">
<title>Node1</title>
<g id="a_Node000001"><a xlink:title="a LaTeX parser for JKQTMathText">
<polygon fill="#999999" stroke="#666666" points="170,-21 0,-21 0,0 170,0 170,-21"/>
<text text-anchor="middle" x="85" y="-7.4" font-family="Helvetica,sans-Serif" font-size="12.00">JKQTMathTextLatexParser</text>
</a>
</g>
</g>
<!-- Node2 -->
<g id="Node000002" class="node">
<title>Node2</title>
<g id="a_Node000002"><a xlink:href="class_j_k_q_t_math_text_parser.html" target="_top" xlink:title="base class for all math markup parsers used by JKQTMathText">
<polygon fill="white" stroke="#666666" points="153.5,-79 16.5,-79 16.5,-58 153.5,-58 153.5,-79"/>
<text text-anchor="middle" x="85" y="-65.4" font-family="Helvetica,sans-Serif" font-size="12.00">JKQTMathTextParser</text>
</a>
</g>
</g>
<!-- Node2&#45;&gt;Node1 -->
<g id="edge1_Node000001_Node000002" class="edge">
<title>Node2&#45;&gt;Node1</title>
<g id="a_edge1_Node000001_Node000002"><a xlink:title=" ">
<path fill="none" stroke="#63b8ff" d="M85,-47.66C85,-38.66 85,-28.42 85,-21.14"/>
<polygon fill="#63b8ff" stroke="#63b8ff" points="81.5,-47.75 85,-57.75 88.5,-47.75 81.5,-47.75"/>
</a>
</g>
</g>
<!-- Node3 -->
<g id="Node000003" class="node">
<title>Node3</title>
<g id="a_Node000003"><a xlink:title=" ">
<polygon fill="white" stroke="#666666" points="132.5,-231 67.5,-231 67.5,-210 132.5,-210 132.5,-231"/>
<text text-anchor="middle" x="100" y="-217.4" font-family="Helvetica,sans-Serif" font-size="12.00">QObject</text>
</a>
</g>
</g>
<!-- Node3&#45;&gt;Node2 -->
<g id="edge2_Node000002_Node000003" class="edge">
<title>Node3&#45;&gt;Node2</title>
<g id="a_edge2_Node000002_Node000003"><a xlink:title=" ">
<path fill="none" stroke="#63b8ff" d="M98,-199.52C94.74,-166.89 88.39,-103.38 85.97,-79.18"/>
<polygon fill="#63b8ff" stroke="#63b8ff" points="94.54,-200.06 99.02,-209.66 101.5,-199.36 94.54,-200.06"/>
</a>
</g>
</g>
<!-- Node4 -->
<g id="Node000004" class="node">
<title>Node4</title>
<g id="a_Node000004"><a xlink:href="class_j_k_q_t_math_text.html" target="_top" xlink:title="this class parses a mathematical markup string and can then draw the contained text/equation onto a Q...">
<polygon fill="white" stroke="#666666" points="256.5,-155 157.5,-155 157.5,-134 256.5,-134 256.5,-155"/>
<text text-anchor="middle" x="207" y="-141.4" font-family="Helvetica,sans-Serif" font-size="12.00">JKQTMathText</text>
</a>
</g>
</g>
<!-- Node3&#45;&gt;Node4 -->
<g id="edge4_Node000004_Node000003" class="edge">
<title>Node3&#45;&gt;Node4</title>
<g id="a_edge4_Node000004_Node000003"><a xlink:title=" ">
<path fill="none" stroke="#63b8ff" d="M122.43,-203.99C143.72,-189.26 175.06,-167.59 193.01,-155.18"/>
<polygon fill="#63b8ff" stroke="#63b8ff" points="120.22,-201.26 113.99,-209.83 124.2,-207.02 120.22,-201.26"/>
</a>
</g>
</g>
<!-- Node4&#45;&gt;Node2 -->
<g id="edge3_Node000002_Node000004" class="edge">
<title>Node4&#45;&gt;Node2</title>
<g id="a_edge3_Node000002_Node000004"><a xlink:title=" ">
<path fill="none" stroke="#9a32cd" stroke-dasharray="5,2" d="M147.51,-135.12C133.8,-131.04 120.02,-124.98 109,-116 97.31,-106.47 90.69,-89.75 87.48,-79.17"/>
<polygon fill="#9a32cd" stroke="#9a32cd" points="146.87,-138.57 157.44,-137.75 148.67,-131.8 146.87,-138.57"/>
</a>
</g>
<text text-anchor="start" x="112" y="-102.9" font-family="Helvetica,sans-Serif" font-size="12.00" fill="grey">parentMathText</text>
</g>
<!-- Node5 -->
<g id="Node000005" class="node">
<title>Node5</title>
<g id="a_Node000005"><a xlink:href="class_j_k_q_t_math_text_node.html" target="_top" xlink:title="subclass representing one node in the syntax tree">
<polygon fill="white" stroke="#666666" points="304.5,-79 173.5,-79 173.5,-58 304.5,-58 304.5,-79"/>
<text text-anchor="middle" x="239" y="-65.4" font-family="Helvetica,sans-Serif" font-size="12.00">JKQTMathTextNode</text>
</a>
</g>
</g>
<!-- Node4&#45;&gt;Node5 -->
<g id="edge6_Node000005_Node000004" class="edge">
<title>Node4&#45;&gt;Node5</title>
<g id="a_edge6_Node000005_Node000004"><a xlink:title=" ">
<path fill="none" stroke="#9a32cd" stroke-dasharray="5,2" d="M211.49,-124.15C213.81,-115.62 216.99,-105.6 221,-97 223.94,-90.69 228.17,-84.15 231.78,-79.03"/>
<polygon fill="#9a32cd" stroke="#9a32cd" points="208.07,-123.39 209.03,-133.95 214.86,-125.1 208.07,-123.39"/>
</a>
</g>
<text text-anchor="start" x="224" y="-102.9" font-family="Helvetica,sans-Serif" font-size="12.00" fill="grey">parentMathText</text>
</g>
<!-- Node5&#45;&gt;Node4 -->
<g id="edge5_Node000004_Node000005" class="edge">
<title>Node5&#45;&gt;Node4</title>
<g id="a_edge5_Node000004_Node000005"><a xlink:title=" ">
<path fill="none" stroke="#9a32cd" stroke-dasharray="5,2" d="M298.55,-82.02C320.5,-89.43 337.33,-100.47 325,-116 316.3,-126.96 284.79,-133.95 256.52,-138.14"/>
<polygon fill="#9a32cd" stroke="#9a32cd" points="299.49,-78.65 288.91,-79.06 297.44,-85.34 299.49,-78.65"/>
</a>
</g>
<text text-anchor="start" x="332.5" y="-102.9" font-family="Helvetica,sans-Serif" font-size="12.00" fill="grey">parsedNode</text>
</g>
<!-- Node5&#45;&gt;Node5 -->
<g id="edge7_Node000005_Node000005" class="edge">
<title>Node5&#45;&gt;Node5</title>
<g id="a_edge7_Node000005_Node000005"><a xlink:title=" ">
<path fill="none" stroke="#9a32cd" stroke-dasharray="5,2" d="M315.02,-72.16C319.69,-71.29 322.5,-70.07 322.5,-68.5 322.5,-65.98 315.31,-64.37 304.81,-63.67"/>
<polygon fill="#9a32cd" stroke="#9a32cd" points="314.34,-68.71 304.81,-73.33 315.14,-75.67 314.34,-68.71"/>
</a>
</g>
<text text-anchor="start" x="326" y="-64.9" font-family="Helvetica,sans-Serif" font-size="12.00" fill="grey">parentNode</text>
</g>
<!-- Node6 -->
<g id="Node000006" class="node">
<title>Node6</title>
<g id="a_Node000006"><a xlink:title=" ">
<polygon fill="white" stroke="#666666" points="247,-231 167,-231 167,-210 247,-210 247,-231"/>
<text text-anchor="middle" x="207" y="-217.4" font-family="Helvetica,sans-Serif" font-size="12.00">std::mutex</text>
</a>
</g>
</g>
<!-- Node6&#45;&gt;Node4 -->
<g id="edge8_Node000004_Node000006" class="edge">
<title>Node6&#45;&gt;Node4</title>
<g id="a_edge8_Node000004_Node000006"><a xlink:title=" ">
<path fill="none" stroke="#9a32cd" stroke-dasharray="5,2" d="M207,-199.53C207,-185.25 207,-166.65 207,-155.41"/>
<polygon fill="#9a32cd" stroke="#9a32cd" points="203.5,-199.83 207,-209.83 210.5,-199.83 203.5,-199.83"/>
</a>
</g>
<text text-anchor="start" x="210.5" y="-178.9" font-family="Helvetica,sans-Serif" font-size="12.00" fill="grey">s_mutex</text>
</g>
</g>
</svg>
