<?xml version="1.0" encoding="UTF-8" standalone="no"?>
<!DOCTYPE svg PUBLIC "-//W3C//DTD SVG 1.1//EN"
 "http://www.w3.org/Graphics/SVG/1.1/DTD/svg11.dtd">
<!-- Generated by graphviz version 2.43.0 (0)
 -->
<!-- Title: JKQTPGeometricPlotElement Pages: 1 -->
<svg width="1504pt" height="243pt"
 viewBox="0.00 0.00 1504.00 243.00" xmlns="http://www.w3.org/2000/svg" xmlns:xlink="http://www.w3.org/1999/xlink">
<g id="graph0" class="graph" transform="scale(1 1) rotate(0) translate(4 239)">
<title>JKQTPGeometricPlotElement</title>
<!-- Node1 -->
<g id="Node000001" class="node">
<title>Node1</title>
<g id="a_Node000001"><a xlink:title="this is the virtual base class of all JKQTPPlotElement&#39;s in a JKQTPlotter plot that represent geometr...">
<polygon fill="#999999" stroke="#666666" points="450,-157 262,-157 262,-136 450,-136 450,-157"/>
<text text-anchor="middle" x="356" y="-143.4" font-family="Helvetica,sans-Serif" font-size="12.00">JKQTPGeometricPlotElement</text>
</a>
</g>
</g>
<!-- Node4 -->
<g id="Node000004" class="node">
<title>Node4</title>
<g id="a_Node000004"><a xlink:href="class_j_k_q_t_p_geo_base_decorated_head_line.html" target="_top" xlink:title="This JKQTPGeometricPlotElement is used as base class for geometric drawing elements that consist of l...">
<polygon fill="white" stroke="#666666" points="711,-215 486,-215 486,-194 711,-194 711,-215"/>
<text text-anchor="middle" x="598.5" y="-201.4" font-family="Helvetica,sans-Serif" font-size="12.00">JKQTPGeoBaseDecoratedHeadLine</text>
</a>
</g>
</g>
<!-- Node1&#45;&gt;Node4 -->
<g id="edge3_Node000001_Node000004" class="edge">
<title>Node1&#45;&gt;Node4</title>
<g id="a_edge3_Node000001_Node000004"><a xlink:title=" ">
<path fill="none" stroke="#63b8ff" d="M410.31,-159.36C453.48,-169.77 513.53,-184.25 553.87,-193.98"/>
<polygon fill="#63b8ff" stroke="#63b8ff" points="411.09,-155.95 400.55,-157 409.45,-162.75 411.09,-155.95"/>
</a>
</g>
</g>
<!-- Node6 -->
<g id="Node000006" class="node">
<title>Node6</title>
<g id="a_Node000006"><a xlink:href="class_j_k_q_t_p_geo_base_decorated_line.html" target="_top" xlink:title="This JKQTPGeometricPlotElement is used as base class for geometric drawing elements that consist of l...">
<polygon fill="white" stroke="#666666" points="695.5,-157 501.5,-157 501.5,-136 695.5,-136 695.5,-157"/>
<text text-anchor="middle" x="598.5" y="-143.4" font-family="Helvetica,sans-Serif" font-size="12.00">JKQTPGeoBaseDecoratedLine</text>
</a>
</g>
</g>
<!-- Node1&#45;&gt;Node6 -->
<g id="edge5_Node000001_Node000006" class="edge">
<title>Node1&#45;&gt;Node6</title>
<g id="a_edge5_Node000001_Node000006"><a xlink:title=" ">
<path fill="none" stroke="#63b8ff" d="M460.63,-146.5C474.18,-146.5 488.02,-146.5 501.45,-146.5"/>
<polygon fill="#63b8ff" stroke="#63b8ff" points="460.33,-143 450.33,-146.5 460.33,-150 460.33,-143"/>
</a>
</g>
</g>
<!-- Node11 -->
<g id="Node000011" class="node">
<title>Node11</title>
<g id="a_Node000011"><a xlink:href="class_j_k_q_t_p_geo_base_line.html" target="_top" xlink:title="This JKQTPGeometricPlotElement is used as base class for geometric drawing elements that only consist...">
<polygon fill="white" stroke="#666666" points="664,-79 533,-79 533,-58 664,-58 664,-79"/>
<text text-anchor="middle" x="598.5" y="-65.4" font-family="Helvetica,sans-Serif" font-size="12.00">JKQTPGeoBaseLine</text>
</a>
</g>
</g>
<!-- Node1&#45;&gt;Node11 -->
<g id="edge10_Node000001_Node000011" class="edge">
<title>Node1&#45;&gt;Node11</title>
<g id="a_edge10_Node000001_Node000011"><a xlink:title=" ">
<path fill="none" stroke="#63b8ff" d="M399.05,-132.86C446.25,-117.55 521.83,-93.04 564.81,-79.1"/>
<polygon fill="#63b8ff" stroke="#63b8ff" points="397.87,-129.57 389.43,-135.98 400.03,-136.22 397.87,-129.57"/>
</a>
</g>
</g>
<!-- Node2 -->
<g id="Node000002" class="node">
<title>Node2</title>
<g id="a_Node000002"><a xlink:href="class_j_k_q_t_p_plot_element.html" target="_top" xlink:title="this virtual base class of every element, which is part of a JKQTPlotter plot and may appear in its k...">
<polygon fill="white" stroke="#666666" points="226,-157 101,-157 101,-136 226,-136 226,-157"/>
<text text-anchor="middle" x="163.5" y="-143.4" font-family="Helvetica,sans-Serif" font-size="12.00">JKQTPPlotElement</text>
</a>
</g>
</g>
<!-- Node2&#45;&gt;Node1 -->
<g id="edge1_Node000001_Node000002" class="edge">
<title>Node2&#45;&gt;Node1</title>
<g id="a_edge1_Node000001_Node000002"><a xlink:title=" ">
<path fill="none" stroke="#63b8ff" d="M236.15,-146.5C244.52,-146.5 253.16,-146.5 261.77,-146.5"/>
<polygon fill="#63b8ff" stroke="#63b8ff" points="236.09,-143 226.09,-146.5 236.09,-150 236.09,-143"/>
</a>
</g>
</g>
<!-- Node3 -->
<g id="Node000003" class="node">
<title>Node3</title>
<g id="a_Node000003"><a xlink:title=" ">
<polygon fill="white" stroke="#666666" points="65,-157 0,-157 0,-136 65,-136 65,-157"/>
<text text-anchor="middle" x="32.5" y="-143.4" font-family="Helvetica,sans-Serif" font-size="12.00">QObject</text>
</a>
</g>
</g>
<!-- Node3&#45;&gt;Node2 -->
<g id="edge2_Node000002_Node000003" class="edge">
<title>Node3&#45;&gt;Node2</title>
<g id="a_edge2_Node000002_Node000003"><a xlink:title=" ">
<path fill="none" stroke="#63b8ff" d="M75.09,-146.5C83.29,-146.5 92.05,-146.5 100.75,-146.5"/>
<polygon fill="#63b8ff" stroke="#63b8ff" points="75.06,-143 65.06,-146.5 75.06,-150 75.06,-143"/>
</a>
</g>
</g>
<!-- Node5 -->
<g id="Node000005" class="node">
<title>Node5</title>
<g id="a_Node000005"><a xlink:href="class_j_k_q_t_p_geo_infinite_line.html" target="_top" xlink:title="This JKQTPGeometricPlotElement is used to draw an infinite line.">
<polygon fill="white" stroke="#666666" points="893,-235 750,-235 750,-214 893,-214 893,-235"/>
<text text-anchor="middle" x="821.5" y="-221.4" font-family="Helvetica,sans-Serif" font-size="12.00">JKQTPGeoInfiniteLine</text>
</a>
</g>
</g>
<!-- Node4&#45;&gt;Node5 -->
<g id="edge4_Node000004_Node000005" class="edge">
<title>Node4&#45;&gt;Node5</title>
<g id="a_edge4_Node000004_Node000005"><a xlink:title=" ">
<path fill="none" stroke="#63b8ff" d="M721.46,-215.54C731.19,-216.42 740.8,-217.29 749.98,-218.12"/>
<polygon fill="#63b8ff" stroke="#63b8ff" points="721.57,-212.03 711.29,-214.62 720.94,-219 721.57,-212.03"/>
</a>
</g>
</g>
<!-- Node7 -->
<g id="Node000007" class="node">
<title>Node7</title>
<g id="a_Node000007"><a xlink:href="class_j_k_q_t_p_geo_bezier_curve.html" target="_top" xlink:title="This JKQTPGeometricPlotElement is used to draw a bezier curve.">
<polygon fill="white" stroke="#666666" points="896,-196 747,-196 747,-175 896,-175 896,-196"/>
<text text-anchor="middle" x="821.5" y="-182.4" font-family="Helvetica,sans-Serif" font-size="12.00">JKQTPGeoBezierCurve</text>
</a>
</g>
</g>
<!-- Node6&#45;&gt;Node7 -->
<g id="edge6_Node000006_Node000007" class="edge">
<title>Node6&#45;&gt;Node7</title>
<g id="a_edge6_Node000006_Node000007"><a xlink:title=" ">
<path fill="none" stroke="#63b8ff" d="M669.23,-158.8C698.68,-164 732.62,-169.99 760.88,-174.98"/>
<polygon fill="#63b8ff" stroke="#63b8ff" points="669.47,-155.29 659.01,-157 668.25,-162.19 669.47,-155.29"/>
</a>
</g>
</g>
<!-- Node8 -->
<g id="Node000008" class="node">
<title>Node8</title>
<g id="a_Node000008"><a xlink:href="class_j_k_q_t_p_geo_line.html" target="_top" xlink:title="This JKQTPGeometricPlotElement is used to draw a line, optionally line&#45;end decorations (aka arrows) a...">
<polygon fill="white" stroke="#666666" points="872,-157 771,-157 771,-136 872,-136 872,-157"/>
<text text-anchor="middle" x="821.5" y="-143.4" font-family="Helvetica,sans-Serif" font-size="12.00">JKQTPGeoLine</text>
</a>
</g>
</g>
<!-- Node6&#45;&gt;Node8 -->
<g id="edge7_Node000006_Node000008" class="edge">
<title>Node6&#45;&gt;Node8</title>
<g id="a_edge7_Node000006_Node000008"><a xlink:title=" ">
<path fill="none" stroke="#63b8ff" d="M705.86,-146.5C728.61,-146.5 751.6,-146.5 770.95,-146.5"/>
<polygon fill="#63b8ff" stroke="#63b8ff" points="705.79,-143 695.79,-146.5 705.79,-150 705.79,-143"/>
</a>
</g>
</g>
<!-- Node10 -->
<g id="Node000010" class="node">
<title>Node10</title>
<g id="a_Node000010"><a xlink:href="class_j_k_q_t_p_geo_poly_lines.html" target="_top" xlink:title="This JKQTPGeometricPlotElement is used to draw a poly line.">
<polygon fill="white" stroke="#666666" points="887,-118 756,-118 756,-97 887,-97 887,-118"/>
<text text-anchor="middle" x="821.5" y="-104.4" font-family="Helvetica,sans-Serif" font-size="12.00">JKQTPGeoPolyLines</text>
</a>
</g>
</g>
<!-- Node6&#45;&gt;Node10 -->
<g id="edge9_Node000006_Node000010" class="edge">
<title>Node6&#45;&gt;Node10</title>
<g id="a_edge9_Node000006_Node000010"><a xlink:title=" ">
<path fill="none" stroke="#63b8ff" d="M669.23,-134.2C698.68,-129 732.62,-123.01 760.88,-118.02"/>
<polygon fill="#63b8ff" stroke="#63b8ff" points="668.25,-130.81 659.01,-136 669.47,-137.71 668.25,-130.81"/>
</a>
</g>
</g>
<!-- Node9 -->
<g id="Node000009" class="node">
<title>Node9</title>
<g id="a_Node000009"><a xlink:href="class_j_k_q_t_p_geo_arrow.html" target="_top" xlink:title="This convenience specialisation of JKQTPGeoLine is used to draw a line with decorations (e....">
<polygon fill="white" stroke="#666666" points="1055.5,-157 944.5,-157 944.5,-136 1055.5,-136 1055.5,-157"/>
<text text-anchor="middle" x="1000" y="-143.4" font-family="Helvetica,sans-Serif" font-size="12.00">JKQTPGeoArrow</text>
</a>
</g>
</g>
<!-- Node8&#45;&gt;Node9 -->
<g id="edge8_Node000008_Node000009" class="edge">
<title>Node8&#45;&gt;Node9</title>
<g id="a_edge8_Node000008_Node000009"><a xlink:title=" ">
<path fill="none" stroke="#63b8ff" d="M882.14,-146.5C902.32,-146.5 924.72,-146.5 944.48,-146.5"/>
<polygon fill="#63b8ff" stroke="#63b8ff" points="882.13,-143 872.13,-146.5 882.13,-150 882.13,-143"/>
</a>
</g>
</g>
<!-- Node12 -->
<g id="Node000012" class="node">
<title>Node12</title>
<g id="a_Node000012"><a xlink:href="class_j_k_q_t_p_geo_arc.html" target="_top" xlink:title="This JKQTPGeometricPlotElement is used to draw an arc.">
<polygon fill="white" stroke="#666666" points="869.5,-79 773.5,-79 773.5,-58 869.5,-58 869.5,-79"/>
<text text-anchor="middle" x="821.5" y="-65.4" font-family="Helvetica,sans-Serif" font-size="12.00">JKQTPGeoArc</text>
</a>
</g>
</g>
<!-- Node11&#45;&gt;Node12 -->
<g id="edge11_Node000011_Node000012" class="edge">
<title>Node11&#45;&gt;Node12</title>
<g id="a_edge11_Node000011_Node000012"><a xlink:title=" ">
<path fill="none" stroke="#63b8ff" d="M674.05,-68.5C706.94,-68.5 744.58,-68.5 773.47,-68.5"/>
<polygon fill="#63b8ff" stroke="#63b8ff" points="674.02,-65 664.02,-68.5 674.02,-72 674.02,-65"/>
</a>
</g>
</g>
<!-- Node13 -->
<g id="Node000013" class="node">
<title>Node13</title>
<g id="a_Node000013"><a xlink:href="class_j_k_q_t_p_geo_base_filled.html" target="_top" xlink:title="This JKQTPGeometricPlotElement is used as base class for geometric drawing elements that only consist...">
<polygon fill="white" stroke="#666666" points="889.5,-40 753.5,-40 753.5,-19 889.5,-19 889.5,-40"/>
<text text-anchor="middle" x="821.5" y="-26.4" font-family="Helvetica,sans-Serif" font-size="12.00">JKQTPGeoBaseFilled</text>
</a>
</g>
</g>
<!-- Node11&#45;&gt;Node13 -->
<g id="edge12_Node000011_Node000013" class="edge">
<title>Node11&#45;&gt;Node13</title>
<g id="a_edge12_Node000011_Node000013"><a xlink:title=" ">
<path fill="none" stroke="#63b8ff" d="M669.23,-56.2C698.68,-51 732.62,-45.01 760.88,-40.02"/>
<polygon fill="#63b8ff" stroke="#63b8ff" points="668.25,-52.81 659.01,-58 669.47,-59.71 668.25,-52.81"/>
</a>
</g>
</g>
<!-- Node14 -->
<g id="Node000014" class="node">
<title>Node14</title>
<g id="a_Node000014"><a xlink:href="class_j_k_q_t_p_geo_polygon.html" target="_top" xlink:title="This JKQTPGeometricPlotElement is used to draw a polygon.">
<polygon fill="white" stroke="#666666" points="1061.5,-60 938.5,-60 938.5,-39 1061.5,-39 1061.5,-60"/>
<text text-anchor="middle" x="1000" y="-46.4" font-family="Helvetica,sans-Serif" font-size="12.00">JKQTPGeoPolygon</text>
</a>
</g>
</g>
<!-- Node13&#45;&gt;Node14 -->
<g id="edge13_Node000013_Node000014" class="edge">
<title>Node13&#45;&gt;Node14</title>
<g id="a_edge13_Node000013_Node000014"><a xlink:title=" ">
<path fill="none" stroke="#63b8ff" d="M899.95,-38.28C912.8,-39.73 925.96,-41.22 938.32,-42.62"/>
<polygon fill="#63b8ff" stroke="#63b8ff" points="900.06,-34.77 889.73,-37.12 899.27,-41.72 900.06,-34.77"/>
</a>
</g>
</g>
<!-- Node15 -->
<g id="Node000015" class="node">
<title>Node15</title>
<g id="a_Node000015"><a xlink:href="class_j_k_q_t_p_geo_rectangle.html" target="_top" xlink:title="This JKQTPGeometricPlotElement is used to draw a rectangle.">
<polygon fill="white" stroke="#666666" points="1068,-21 932,-21 932,0 1068,0 1068,-21"/>
<text text-anchor="middle" x="1000" y="-7.4" font-family="Helvetica,sans-Serif" font-size="12.00">JKQTPGeoRectangle</text>
</a>
</g>
</g>
<!-- Node13&#45;&gt;Node15 -->
<g id="edge14_Node000013_Node000015" class="edge">
<title>Node13&#45;&gt;Node15</title>
<g id="a_edge14_Node000013_Node000015"><a xlink:title=" ">
<path fill="none" stroke="#63b8ff" d="M899.89,-21.17C910.58,-20.02 921.48,-18.85 931.96,-17.72"/>
<polygon fill="#63b8ff" stroke="#63b8ff" points="899.3,-17.71 889.73,-22.26 900.05,-24.67 899.3,-17.71"/>
</a>
</g>
</g>
<!-- Node16 -->
<g id="Node000016" class="node">
<title>Node16</title>
<g id="a_Node000016"><a xlink:href="class_j_k_q_t_p_geo_ellipse.html" target="_top" xlink:title="This JKQTPGeometricPlotElement is used to draw an ellipse.">
<polygon fill="white" stroke="#666666" points="1218,-21 1104,-21 1104,0 1218,0 1218,-21"/>
<text text-anchor="middle" x="1161" y="-7.4" font-family="Helvetica,sans-Serif" font-size="12.00">JKQTPGeoEllipse</text>
</a>
</g>
</g>
<!-- Node15&#45;&gt;Node16 -->
<g id="edge15_Node000015_Node000016" class="edge">
<title>Node15&#45;&gt;Node16</title>
<g id="a_edge15_Node000015_Node000016"><a xlink:title=" ">
<path fill="none" stroke="#63b8ff" d="M1078.49,-10.5C1087.09,-10.5 1095.73,-10.5 1103.99,-10.5"/>
<polygon fill="#63b8ff" stroke="#63b8ff" points="1078.43,-7 1068.43,-10.5 1078.43,-14 1078.43,-7"/>
</a>
</g>
</g>
<!-- Node17 -->
<g id="Node000017" class="node">
<title>Node17</title>
<g id="a_Node000017"><a xlink:href="class_j_k_q_t_p_geo_pie.html" target="_top" xlink:title="This JKQTPGeometricPlotElement is used to draw a pie.">
<polygon fill="white" stroke="#666666" points="1348,-21 1254,-21 1254,0 1348,0 1348,-21"/>
<text text-anchor="middle" x="1301" y="-7.4" font-family="Helvetica,sans-Serif" font-size="12.00">JKQTPGeoPie</text>
</a>
</g>
</g>
<!-- Node16&#45;&gt;Node17 -->
<g id="edge16_Node000016_Node000017" class="edge">
<title>Node16&#45;&gt;Node17</title>
<g id="a_edge16_Node000016_Node000017"><a xlink:title=" ">
<path fill="none" stroke="#63b8ff" d="M1228.17,-10.5C1236.77,-10.5 1245.43,-10.5 1253.62,-10.5"/>
<polygon fill="#63b8ff" stroke="#63b8ff" points="1228.13,-7 1218.13,-10.5 1228.13,-14 1228.13,-7"/>
</a>
</g>
</g>
<!-- Node18 -->
<g id="Node000018" class="node">
<title>Node18</title>
<g id="a_Node000018"><a xlink:href="class_j_k_q_t_p_geo_chord.html" target="_top" xlink:title="This JKQTPGeometricPlotElement is used to draw a chord.">
<polygon fill="white" stroke="#666666" points="1496,-21 1384,-21 1384,0 1496,0 1496,-21"/>
<text text-anchor="middle" x="1440" y="-7.4" font-family="Helvetica,sans-Serif" font-size="12.00">JKQTPGeoChord</text>
</a>
</g>
</g>
<!-- Node17&#45;&gt;Node18 -->
<g id="edge17_Node000017_Node000018" class="edge">
<title>Node17&#45;&gt;Node18</title>
<g id="a_edge17_Node000017_Node000018"><a xlink:title=" ">
<path fill="none" stroke="#63b8ff" d="M1358.18,-10.5C1366.66,-10.5 1375.4,-10.5 1383.86,-10.5"/>
<polygon fill="#63b8ff" stroke="#63b8ff" points="1358,-7 1348,-10.5 1358,-14 1358,-7"/>
</a>
</g>
</g>
</g>
</svg>
