<?xml version="1.0" encoding="UTF-8" standalone="no"?>
<!DOCTYPE svg PUBLIC "-//W3C//DTD SVG 1.1//EN"
 "http://www.w3.org/Graphics/SVG/1.1/DTD/svg11.dtd">
<!-- Generated by graphviz version 2.43.0 (0)
 -->
<!-- Title: JKQTPCSSParser Pages: 1 -->
<svg width="358pt" height="118pt"
 viewBox="0.00 0.00 357.50 118.00" xmlns="http://www.w3.org/2000/svg" xmlns:xlink="http://www.w3.org/1999/xlink">
<g id="graph0" class="graph" transform="scale(1 1) rotate(0) translate(4 114)">
<title>JKQTPCSSParser</title>
<!-- Node1 -->
<g id="Node000001" class="node">
<title>Node1</title>
<g id="a_Node000001"><a xlink:title="A simple parser for certain CSS subsets.">
<polygon fill="#999999" stroke="#666666" points="226.5,-21 112.5,-21 112.5,0 226.5,0 226.5,-21"/>
<text text-anchor="middle" x="169.5" y="-7.4" font-family="Helvetica,sans-Serif" font-size="12.00">JKQTPCSSParser</text>
</a>
</g>
</g>
<!-- Node2 -->
<g id="Node000002" class="node">
<title>Node2</title>
<g id="a_Node000002"><a xlink:href="struct_j_k_q_t_p_c_s_s_parser_1_1_token.html" target="_top" xlink:title=" ">
<polygon fill="white" stroke="#666666" points="155,-103.5 0,-103.5 0,-82.5 155,-82.5 155,-103.5"/>
<text text-anchor="middle" x="77.5" y="-89.9" font-family="Helvetica,sans-Serif" font-size="12.00">JKQTPCSSParser::Token</text>
</a>
</g>
</g>
<!-- Node2&#45;&gt;Node1 -->
<g id="edge1_Node000001_Node000002" class="edge">
<title>Node2&#45;&gt;Node1</title>
<g id="a_edge1_Node000001_Node000002"><a xlink:title=" ">
<path fill="none" stroke="#9a32cd" stroke-dasharray="5,2" d="M96.04,-75.78C114.8,-59.36 143.18,-34.53 158.6,-21.04"/>
<polygon fill="#9a32cd" stroke="#9a32cd" points="93.64,-73.23 88.41,-82.45 98.25,-78.5 93.64,-73.23"/>
</a>
</g>
<text text-anchor="start" x="141" y="-44.9" font-family="Helvetica,sans-Serif" font-size="12.00" fill="grey">CurrentToken</text>
</g>
<!-- Node3 -->
<g id="Node000003" class="node">
<title>Node3</title>
<g id="a_Node000003"><a xlink:href="class_j_k_q_t_p_c_s_s_parser.html#struct_j_k_q_t_p_c_s_s_parser_1_1_raw_error_tag__t" target="_top" xlink:title=" ">
<polygon fill="white" stroke="#666666" points="349.5,-110 173.5,-110 173.5,-76 349.5,-76 349.5,-110"/>
<text text-anchor="start" x="181.5" y="-96.4" font-family="Helvetica,sans-Serif" font-size="12.00">JKQTPCSSParser::RawError</text>
<text text-anchor="middle" x="261.5" y="-83.4" font-family="Helvetica,sans-Serif" font-size="12.00">Tag_t</text>
</a>
</g>
</g>
<!-- Node3&#45;&gt;Node1 -->
<g id="edge2_Node000001_Node000003" class="edge">
<title>Node3&#45;&gt;Node1</title>
<g id="a_edge2_Node000001_Node000003"><a xlink:title=" ">
<path fill="none" stroke="#9a32cd" stroke-dasharray="5,2" d="M248.86,-67.09C243.04,-57.42 235.43,-46.81 226.5,-39 217.9,-31.48 206.88,-25.53 196.82,-21.12"/>
<polygon fill="#9a32cd" stroke="#9a32cd" points="245.9,-68.98 253.87,-75.96 252,-65.53 245.9,-68.98"/>
</a>
</g>
<text text-anchor="start" x="244.5" y="-44.9" font-family="Helvetica,sans-Serif" font-size="12.00" fill="grey">RawErrorTag</text>
</g>
</g>
</svg>
