<?xml version="1.0" encoding="UTF-8" standalone="no"?>
<!DOCTYPE svg PUBLIC "-//W3C//DTD SVG 1.1//EN"
 "http://www.w3.org/Graphics/SVG/1.1/DTD/svg11.dtd">
<!-- Generated by graphviz version 2.43.0 (0)
 -->
<!-- Title: JKQTPXYLineGraph Pages: 1 -->
<svg width="953pt" height="160pt"
 viewBox="0.00 0.00 953.00 159.50" xmlns="http://www.w3.org/2000/svg" xmlns:xlink="http://www.w3.org/1999/xlink">
<g id="graph0" class="graph" transform="scale(1 1) rotate(0) translate(4 155.5)">
<title>JKQTPXYLineGraph</title>
<!-- Node1 -->
<g id="Node000001" class="node">
<title>Node1</title>
<g id="a_Node000001"><a xlink:title="This implements xy line plots. This also alows to draw symbols at the data points.">
<polygon fill="#999999" stroke="#666666" points="750,-92.5 620,-92.5 620,-71.5 750,-71.5 750,-92.5"/>
<text text-anchor="middle" x="685" y="-78.9" font-family="Helvetica,sans-Serif" font-size="12.00">JKQTPXYLineGraph</text>
</a>
</g>
</g>
<!-- Node9 -->
<g id="Node000009" class="node">
<title>Node9</title>
<g id="a_Node000009"><a xlink:href="class_j_k_q_t_p_x_y_line_error_graph.html" target="_top" xlink:title="This implements xy line plots with x and y error indicators.">
<polygon fill="white" stroke="#666666" points="945,-92.5 786,-92.5 786,-71.5 945,-71.5 945,-92.5"/>
<text text-anchor="middle" x="865.5" y="-78.9" font-family="Helvetica,sans-Serif" font-size="12.00">JKQTPXYLineErrorGraph</text>
</a>
</g>
</g>
<!-- Node1&#45;&gt;Node9 -->
<g id="edge8_Node000001_Node000009" class="edge">
<title>Node1&#45;&gt;Node9</title>
<g id="a_edge8_Node000001_Node000009"><a xlink:title=" ">
<path fill="none" stroke="#63b8ff" d="M760.38,-82C768.82,-82 777.45,-82 785.94,-82"/>
<polygon fill="#63b8ff" stroke="#63b8ff" points="760.19,-78.5 750.19,-82 760.19,-85.5 760.19,-78.5"/>
</a>
</g>
</g>
<!-- Node2 -->
<g id="Node000002" class="node">
<title>Node2</title>
<g id="a_Node000002"><a xlink:href="class_j_k_q_t_p_x_y_graph.html" target="_top" xlink:title="This virtual JKQTPGraph descendent may be used as base for all graphs that use at least two columns t...">
<polygon fill="white" stroke="#666666" points="538,-151.5 433,-151.5 433,-130.5 538,-130.5 538,-151.5"/>
<text text-anchor="middle" x="485.5" y="-137.9" font-family="Helvetica,sans-Serif" font-size="12.00">JKQTPXYGraph</text>
</a>
</g>
</g>
<!-- Node2&#45;&gt;Node1 -->
<g id="edge1_Node000001_Node000002" class="edge">
<title>Node2&#45;&gt;Node1</title>
<g id="a_edge1_Node000001_Node000002"><a xlink:title=" ">
<path fill="none" stroke="#63b8ff" d="M547.99,-130.04C560.02,-127.43 572.48,-124.4 584,-121 610.63,-113.14 640.14,-101.22 660.15,-92.62"/>
<polygon fill="#63b8ff" stroke="#63b8ff" points="547.08,-126.65 538.01,-132.13 548.52,-133.51 547.08,-126.65"/>
</a>
</g>
</g>
<!-- Node3 -->
<g id="Node000003" class="node">
<title>Node3</title>
<g id="a_Node000003"><a xlink:href="class_j_k_q_t_p_graph.html" target="_top" xlink:title="this virtual base class of the (data&#45;column based) graphs, which are part of a JKQTPlotter plot and w...">
<polygon fill="white" stroke="#666666" points="351,-151.5 262,-151.5 262,-130.5 351,-130.5 351,-151.5"/>
<text text-anchor="middle" x="306.5" y="-137.9" font-family="Helvetica,sans-Serif" font-size="12.00">JKQTPGraph</text>
</a>
</g>
</g>
<!-- Node3&#45;&gt;Node2 -->
<g id="edge2_Node000002_Node000003" class="edge">
<title>Node3&#45;&gt;Node2</title>
<g id="a_edge2_Node000002_Node000003"><a xlink:title=" ">
<path fill="none" stroke="#63b8ff" d="M361.39,-141C384.06,-141 410.33,-141 432.76,-141"/>
<polygon fill="#63b8ff" stroke="#63b8ff" points="361.25,-137.5 351.25,-141 361.25,-144.5 361.25,-137.5"/>
</a>
</g>
</g>
<!-- Node4 -->
<g id="Node000004" class="node">
<title>Node4</title>
<g id="a_Node000004"><a xlink:href="class_j_k_q_t_p_plot_element.html" target="_top" xlink:title="this virtual base class of every element, which is part of a JKQTPlotter plot and may appear in its k...">
<polygon fill="white" stroke="#666666" points="226,-151.5 101,-151.5 101,-130.5 226,-130.5 226,-151.5"/>
<text text-anchor="middle" x="163.5" y="-137.9" font-family="Helvetica,sans-Serif" font-size="12.00">JKQTPPlotElement</text>
</a>
</g>
</g>
<!-- Node4&#45;&gt;Node3 -->
<g id="edge3_Node000003_Node000004" class="edge">
<title>Node4&#45;&gt;Node3</title>
<g id="a_edge3_Node000003_Node000004"><a xlink:title=" ">
<path fill="none" stroke="#63b8ff" d="M236.51,-141C245.18,-141 253.82,-141 261.91,-141"/>
<polygon fill="#63b8ff" stroke="#63b8ff" points="236.34,-137.5 226.34,-141 236.34,-144.5 236.34,-137.5"/>
</a>
</g>
</g>
<!-- Node5 -->
<g id="Node000005" class="node">
<title>Node5</title>
<g id="a_Node000005"><a xlink:title=" ">
<polygon fill="white" stroke="#666666" points="65,-151.5 0,-151.5 0,-130.5 65,-130.5 65,-151.5"/>
<text text-anchor="middle" x="32.5" y="-137.9" font-family="Helvetica,sans-Serif" font-size="12.00">QObject</text>
</a>
</g>
</g>
<!-- Node5&#45;&gt;Node4 -->
<g id="edge4_Node000004_Node000005" class="edge">
<title>Node5&#45;&gt;Node4</title>
<g id="a_edge4_Node000004_Node000005"><a xlink:title=" ">
<path fill="none" stroke="#63b8ff" d="M75.09,-141C83.29,-141 92.05,-141 100.75,-141"/>
<polygon fill="#63b8ff" stroke="#63b8ff" points="75.06,-137.5 65.06,-141 75.06,-144.5 75.06,-137.5"/>
</a>
</g>
</g>
<!-- Node6 -->
<g id="Node000006" class="node">
<title>Node6</title>
<g id="a_Node000006"><a xlink:href="class_j_k_q_t_p_graph_line_style_mixin.html" target="_top" xlink:title="This Mix&#45;In class provides setter/getter methods, storage and other facilities for the graph line sty...">
<polygon fill="white" stroke="#666666" points="572.5,-112.5 398.5,-112.5 398.5,-91.5 572.5,-91.5 572.5,-112.5"/>
<text text-anchor="middle" x="485.5" y="-98.9" font-family="Helvetica,sans-Serif" font-size="12.00">JKQTPGraphLineStyleMixin</text>
</a>
</g>
</g>
<!-- Node6&#45;&gt;Node1 -->
<g id="edge5_Node000001_Node000006" class="edge">
<title>Node6&#45;&gt;Node1</title>
<g id="a_edge5_Node000001_Node000006"><a xlink:title=" ">
<path fill="none" stroke="#63b8ff" d="M582.66,-92.26C595.3,-90.98 607.99,-89.7 619.92,-88.49"/>
<polygon fill="#63b8ff" stroke="#63b8ff" points="582.15,-88.8 572.55,-93.29 582.85,-95.76 582.15,-88.8"/>
</a>
</g>
</g>
<!-- Node7 -->
<g id="Node000007" class="node">
<title>Node7</title>
<g id="a_Node000007"><a xlink:href="class_j_k_q_t_p_graph_symbol_style_mixin.html" target="_top" xlink:title="This Mix&#45;In class provides setter/getter methods, storage and other facilities for the graph symbols ...">
<polygon fill="white" stroke="#666666" points="582.5,-73.5 388.5,-73.5 388.5,-52.5 582.5,-52.5 582.5,-73.5"/>
<text text-anchor="middle" x="485.5" y="-59.9" font-family="Helvetica,sans-Serif" font-size="12.00">JKQTPGraphSymbolStyleMixin</text>
</a>
</g>
</g>
<!-- Node7&#45;&gt;Node1 -->
<g id="edge6_Node000001_Node000007" class="edge">
<title>Node7&#45;&gt;Node1</title>
<g id="a_edge6_Node000001_Node000007"><a xlink:title=" ">
<path fill="none" stroke="#63b8ff" d="M592.73,-73.22C602,-74.11 611.18,-74.99 619.95,-75.84"/>
<polygon fill="#63b8ff" stroke="#63b8ff" points="592.94,-69.72 582.65,-72.25 592.27,-76.69 592.94,-69.72"/>
</a>
</g>
</g>
<!-- Node8 -->
<g id="Node000008" class="node">
<title>Node8</title>
<g id="a_Node000008"><a xlink:href="class_j_k_q_t_p_graph_lines_compression_mixin.html" target="_top" xlink:title="This Mix&#45;In class provides setter/getter methods, storage and other facilities for a line&#45;graph compr...">
<polygon fill="white" stroke="#666666" points="584,-34 387,-34 387,0 584,0 584,-34"/>
<text text-anchor="start" x="395" y="-20.4" font-family="Helvetica,sans-Serif" font-size="12.00">JKQTPGraphLinesCompression</text>
<text text-anchor="middle" x="485.5" y="-7.4" font-family="Helvetica,sans-Serif" font-size="12.00">Mixin</text>
</a>
</g>
</g>
<!-- Node8&#45;&gt;Node1 -->
<g id="edge7_Node000001_Node000008" class="edge">
<title>Node8&#45;&gt;Node1</title>
<g id="a_edge7_Node000001_Node000008"><a xlink:title=" ">
<path fill="none" stroke="#63b8ff" d="M564.1,-36.85C570.86,-38.83 577.57,-40.9 584,-43 610.03,-51.52 639.14,-63.11 659.21,-71.44"/>
<polygon fill="#63b8ff" stroke="#63b8ff" points="564.76,-33.4 554.19,-34 562.83,-40.13 564.76,-33.4"/>
</a>
</g>
</g>
</g>
</svg>
