<?xml version="1.0" encoding="UTF-8" standalone="no"?>
<!DOCTYPE svg PUBLIC "-//W3C//DTD SVG 1.1//EN"
 "http://www.w3.org/Graphics/SVG/1.1/DTD/svg11.dtd">
<!-- Generated by graphviz version 2.43.0 (0)
 -->
<!-- Title: JKQTPGeoBaseDecoratedLine Pages: 1 -->
<svg width="437pt" height="327pt"
 viewBox="0.00 0.00 436.50 327.00" xmlns="http://www.w3.org/2000/svg" xmlns:xlink="http://www.w3.org/1999/xlink">
<g id="graph0" class="graph" transform="scale(1 1) rotate(0) translate(4 323)">
<title>JKQTPGeoBaseDecoratedLine</title>
<!-- Node1 -->
<g id="Node000001" class="node">
<title>Node1</title>
<g id="a_Node000001"><a xlink:title="This JKQTPGeometricPlotElement is used as base class for geometric drawing elements that consist of l...">
<polygon fill="#999999" stroke="#666666" points="314.5,-135 120.5,-135 120.5,-114 314.5,-114 314.5,-135"/>
<text text-anchor="middle" x="217.5" y="-121.4" font-family="Helvetica,sans-Serif" font-size="12.00">JKQTPGeoBaseDecoratedLine</text>
</a>
</g>
</g>
<!-- Node7 -->
<g id="Node000007" class="node">
<title>Node7</title>
<g id="a_Node000007"><a xlink:href="class_j_k_q_t_p_geo_bezier_curve.html" target="_top" xlink:title="This JKQTPGeometricPlotElement is used to draw a bezier curve.">
<polygon fill="white" stroke="#666666" points="149,-78 0,-78 0,-57 149,-57 149,-78"/>
<text text-anchor="middle" x="74.5" y="-64.4" font-family="Helvetica,sans-Serif" font-size="12.00">JKQTPGeoBezierCurve</text>
</a>
</g>
</g>
<!-- Node1&#45;&gt;Node7 -->
<g id="edge6_Node000001_Node000007" class="edge">
<title>Node1&#45;&gt;Node7</title>
<g id="a_edge6_Node000001_Node000007"><a xlink:title=" ">
<path fill="none" stroke="#63b8ff" d="M183.2,-110.31C157.46,-100.41 122.8,-87.08 99.6,-78.16"/>
<polygon fill="#63b8ff" stroke="#63b8ff" points="182,-113.6 192.59,-113.92 184.51,-107.06 182,-113.6"/>
</a>
</g>
</g>
<!-- Node8 -->
<g id="Node000008" class="node">
<title>Node8</title>
<g id="a_Node000008"><a xlink:href="class_j_k_q_t_p_geo_line.html" target="_top" xlink:title="This JKQTPGeometricPlotElement is used to draw a line, optionally line&#45;end decorations (aka arrows) a...">
<polygon fill="white" stroke="#666666" points="268,-78 167,-78 167,-57 268,-57 268,-78"/>
<text text-anchor="middle" x="217.5" y="-64.4" font-family="Helvetica,sans-Serif" font-size="12.00">JKQTPGeoLine</text>
</a>
</g>
</g>
<!-- Node1&#45;&gt;Node8 -->
<g id="edge7_Node000001_Node000008" class="edge">
<title>Node1&#45;&gt;Node8</title>
<g id="a_edge7_Node000001_Node000008"><a xlink:title=" ">
<path fill="none" stroke="#63b8ff" d="M217.5,-103.86C217.5,-95.2 217.5,-85.42 217.5,-78.34"/>
<polygon fill="#63b8ff" stroke="#63b8ff" points="214,-103.92 217.5,-113.92 221,-103.92 214,-103.92"/>
</a>
</g>
</g>
<!-- Node10 -->
<g id="Node000010" class="node">
<title>Node10</title>
<g id="a_Node000010"><a xlink:href="class_j_k_q_t_p_geo_poly_lines.html" target="_top" xlink:title="This JKQTPGeometricPlotElement is used to draw a poly line.">
<polygon fill="white" stroke="#666666" points="417,-78 286,-78 286,-57 417,-57 417,-78"/>
<text text-anchor="middle" x="351.5" y="-64.4" font-family="Helvetica,sans-Serif" font-size="12.00">JKQTPGeoPolyLines</text>
</a>
</g>
</g>
<!-- Node1&#45;&gt;Node10 -->
<g id="edge9_Node000001_Node000010" class="edge">
<title>Node1&#45;&gt;Node10</title>
<g id="a_edge9_Node000001_Node000010"><a xlink:title=" ">
<path fill="none" stroke="#63b8ff" d="M250.28,-110.05C274.33,-100.17 306.43,-87 327.98,-78.16"/>
<polygon fill="#63b8ff" stroke="#63b8ff" points="248.76,-106.88 240.84,-113.92 251.42,-113.36 248.76,-106.88"/>
</a>
</g>
</g>
<!-- Node2 -->
<g id="Node000002" class="node">
<title>Node2</title>
<g id="a_Node000002"><a xlink:href="class_j_k_q_t_p_geometric_plot_element.html" target="_top" xlink:title="this is the virtual base class of all JKQTPPlotElement&#39;s in a JKQTPlotter plot that represent geometr...">
<polygon fill="white" stroke="#666666" points="204.5,-198.5 16.5,-198.5 16.5,-177.5 204.5,-177.5 204.5,-198.5"/>
<text text-anchor="middle" x="110.5" y="-184.9" font-family="Helvetica,sans-Serif" font-size="12.00">JKQTPGeometricPlotElement</text>
</a>
</g>
</g>
<!-- Node2&#45;&gt;Node1 -->
<g id="edge1_Node000001_Node000002" class="edge">
<title>Node2&#45;&gt;Node1</title>
<g id="a_edge1_Node000001_Node000002"><a xlink:title=" ">
<path fill="none" stroke="#63b8ff" d="M136.15,-172.26C156.24,-160.71 183.59,-144.99 200.9,-135.04"/>
<polygon fill="#63b8ff" stroke="#63b8ff" points="134.14,-169.37 127.22,-177.39 137.63,-175.44 134.14,-169.37"/>
</a>
</g>
</g>
<!-- Node3 -->
<g id="Node000003" class="node">
<title>Node3</title>
<g id="a_Node000003"><a xlink:href="class_j_k_q_t_p_plot_element.html" target="_top" xlink:title="this virtual base class of every element, which is part of a JKQTPlotter plot and may appear in its k...">
<polygon fill="white" stroke="#666666" points="173,-262 48,-262 48,-241 173,-241 173,-262"/>
<text text-anchor="middle" x="110.5" y="-248.4" font-family="Helvetica,sans-Serif" font-size="12.00">JKQTPPlotElement</text>
</a>
</g>
</g>
<!-- Node3&#45;&gt;Node2 -->
<g id="edge2_Node000002_Node000003" class="edge">
<title>Node3&#45;&gt;Node2</title>
<g id="a_edge2_Node000002_Node000003"><a xlink:title=" ">
<path fill="none" stroke="#63b8ff" d="M110.5,-230.75C110.5,-220.05 110.5,-207.31 110.5,-198.74"/>
<polygon fill="#63b8ff" stroke="#63b8ff" points="107,-230.89 110.5,-240.89 114,-230.89 107,-230.89"/>
</a>
</g>
</g>
<!-- Node4 -->
<g id="Node000004" class="node">
<title>Node4</title>
<g id="a_Node000004"><a xlink:title=" ">
<polygon fill="white" stroke="#666666" points="143,-319 78,-319 78,-298 143,-298 143,-319"/>
<text text-anchor="middle" x="110.5" y="-305.4" font-family="Helvetica,sans-Serif" font-size="12.00">QObject</text>
</a>
</g>
</g>
<!-- Node4&#45;&gt;Node3 -->
<g id="edge3_Node000003_Node000004" class="edge">
<title>Node4&#45;&gt;Node3</title>
<g id="a_edge3_Node000003_Node000004"><a xlink:title=" ">
<path fill="none" stroke="#63b8ff" d="M110.5,-287.86C110.5,-279.2 110.5,-269.42 110.5,-262.34"/>
<polygon fill="#63b8ff" stroke="#63b8ff" points="107,-287.92 110.5,-297.92 114,-287.92 107,-287.92"/>
</a>
</g>
</g>
<!-- Node5 -->
<g id="Node000005" class="node">
<title>Node5</title>
<g id="a_Node000005"><a xlink:href="class_j_k_q_t_p_graph_decorated_line_style_mixin.html" target="_top" xlink:title="This Mix&#45;In class provides setter/getter methods, storage and other facilities for the graph line sty...">
<polygon fill="white" stroke="#666666" points="428.5,-205 222.5,-205 222.5,-171 428.5,-171 428.5,-205"/>
<text text-anchor="start" x="230.5" y="-191.4" font-family="Helvetica,sans-Serif" font-size="12.00">JKQTPGraphDecoratedLineStyle</text>
<text text-anchor="middle" x="325.5" y="-178.4" font-family="Helvetica,sans-Serif" font-size="12.00">Mixin</text>
</a>
</g>
</g>
<!-- Node5&#45;&gt;Node1 -->
<g id="edge4_Node000001_Node000005" class="edge">
<title>Node5&#45;&gt;Node1</title>
<g id="a_edge4_Node000001_Node000005"><a xlink:title=" ">
<path fill="none" stroke="#63b8ff" d="M288.37,-165.86C269.97,-155.38 248.66,-143.25 234.26,-135.04"/>
<polygon fill="#63b8ff" stroke="#63b8ff" points="286.7,-168.93 297.12,-170.84 290.17,-162.85 286.7,-168.93"/>
</a>
</g>
</g>
<!-- Node6 -->
<g id="Node000006" class="node">
<title>Node6</title>
<g id="a_Node000006"><a xlink:href="class_j_k_q_t_p_graph_line_style_mixin.html" target="_top" xlink:title="This Mix&#45;In class provides setter/getter methods, storage and other facilities for the graph line sty...">
<polygon fill="white" stroke="#666666" points="412.5,-262 238.5,-262 238.5,-241 412.5,-241 412.5,-262"/>
<text text-anchor="middle" x="325.5" y="-248.4" font-family="Helvetica,sans-Serif" font-size="12.00">JKQTPGraphLineStyleMixin</text>
</a>
</g>
</g>
<!-- Node6&#45;&gt;Node5 -->
<g id="edge5_Node000005_Node000006" class="edge">
<title>Node6&#45;&gt;Node5</title>
<g id="a_edge5_Node000005_Node000006"><a xlink:title=" ">
<path fill="none" stroke="#63b8ff" d="M325.5,-230.77C325.5,-222.61 325.5,-213.26 325.5,-205.48"/>
<polygon fill="#63b8ff" stroke="#63b8ff" points="322,-230.89 325.5,-240.89 329,-230.89 322,-230.89"/>
</a>
</g>
</g>
<!-- Node9 -->
<g id="Node000009" class="node">
<title>Node9</title>
<g id="a_Node000009"><a xlink:href="class_j_k_q_t_p_geo_arrow.html" target="_top" xlink:title="This convenience specialisation of JKQTPGeoLine is used to draw a line with decorations (e....">
<polygon fill="white" stroke="#666666" points="273,-21 162,-21 162,0 273,0 273,-21"/>
<text text-anchor="middle" x="217.5" y="-7.4" font-family="Helvetica,sans-Serif" font-size="12.00">JKQTPGeoArrow</text>
</a>
</g>
</g>
<!-- Node8&#45;&gt;Node9 -->
<g id="edge8_Node000008_Node000009" class="edge">
<title>Node8&#45;&gt;Node9</title>
<g id="a_edge8_Node000008_Node000009"><a xlink:title=" ">
<path fill="none" stroke="#63b8ff" d="M217.5,-46.86C217.5,-38.2 217.5,-28.42 217.5,-21.34"/>
<polygon fill="#63b8ff" stroke="#63b8ff" points="214,-46.92 217.5,-56.92 221,-46.92 214,-46.92"/>
</a>
</g>
</g>
</g>
</svg>
