<?xml version="1.0" encoding="UTF-8" standalone="no"?>
<!DOCTYPE svg PUBLIC "-//W3C//DTD SVG 1.1//EN"
 "http://www.w3.org/Graphics/SVG/1.1/DTD/svg11.dtd">
<!-- Generated by graphviz version 2.43.0 (0)
 -->
<!-- Title: JKQTPGeoBezierCurve Pages: 1 -->
<svg width="420pt" height="270pt"
 viewBox="0.00 0.00 420.00 270.00" xmlns="http://www.w3.org/2000/svg" xmlns:xlink="http://www.w3.org/1999/xlink">

<svg id="main" version="1.1" xmlns="http://www.w3.org/2000/svg" xmlns:xlink="http://www.w3.org/1999/xlink" xml:space="preserve">

<style type="text/css"><![CDATA[
.node, .edge {opacity: 0.7;}
.node.selected, .edge.selected {opacity: 1;}
.edge:hover path { stroke: red; }
.edge:hover polygon { stroke: red; fill: red; }
]]></style>
<script type="application/ecmascript" xlink:href="svg.min.js"/>
<svg id="graph" class="graph">
<g id="graph0" class="graph" transform="scale(1 1) rotate(0) translate(4 266)">
<title>JKQTPGeoBezierCurve</title>
<!-- Node1 -->
<g id="Node000001" class="node">
<title>Node1</title>
<g id="a_Node000001"><a xlink:title="This JKQTPGeometricPlotElement is used to draw a bezier curve.">
<polygon fill="#999999" stroke="#666666" points="275.5,-21 126.5,-21 126.5,0 275.5,0 275.5,-21"/>
<text text-anchor="middle" x="201" y="-7.4" font-family="Helvetica,sans-Serif" font-size="12.00">JKQTPGeoBezierCurve</text>
</a>
</g>
</g>
<!-- Node2 -->
<g id="Node000002" class="node">
<title>Node2</title>
<g id="a_Node000002"><a xlink:href="class_j_k_q_t_p_geo_base_decorated_line.html" target="_top" xlink:title="This JKQTPGeometricPlotElement is used as base class for geometric drawing elements that consist of l...">
<polygon fill="white" stroke="#666666" points="298,-78 104,-78 104,-57 298,-57 298,-78"/>
<text text-anchor="middle" x="201" y="-64.4" font-family="Helvetica,sans-Serif" font-size="12.00">JKQTPGeoBaseDecoratedLine</text>
</a>
</g>
</g>
<!-- Node2&#45;&gt;Node1 -->
<g id="edge1_Node000001_Node000002" class="edge">
<title>Node2&#45;&gt;Node1</title>
<g id="a_edge1_Node000001_Node000002"><a xlink:title=" ">
<path fill="none" stroke="#63b8ff" d="M201,-46.86C201,-38.2 201,-28.42 201,-21.34"/>
<polygon fill="#63b8ff" stroke="#63b8ff" points="197.5,-46.92 201,-56.92 204.5,-46.92 197.5,-46.92"/>
</a>
</g>
</g>
<!-- Node3 -->
<g id="Node000003" class="node">
<title>Node3</title>
<g id="a_Node000003"><a xlink:href="class_j_k_q_t_p_geometric_plot_element.html" target="_top" xlink:title="this is the virtual base class of all JKQTPPlotElement&#39;s in a JKQTPlotter plot that represent geometr...">
<polygon fill="white" stroke="#666666" points="188,-141.5 0,-141.5 0,-120.5 188,-120.5 188,-141.5"/>
<text text-anchor="middle" x="94" y="-127.9" font-family="Helvetica,sans-Serif" font-size="12.00">JKQTPGeometricPlotElement</text>
</a>
</g>
</g>
<!-- Node3&#45;&gt;Node2 -->
<g id="edge2_Node000002_Node000003" class="edge">
<title>Node3&#45;&gt;Node2</title>
<g id="a_edge2_Node000002_Node000003"><a xlink:title=" ">
<path fill="none" stroke="#63b8ff" d="M119.65,-115.26C139.74,-103.71 167.09,-87.99 184.4,-78.04"/>
<polygon fill="#63b8ff" stroke="#63b8ff" points="117.64,-112.37 110.72,-120.39 121.13,-118.44 117.64,-112.37"/>
</a>
</g>
</g>
<!-- Node4 -->
<g id="Node000004" class="node">
<title>Node4</title>
<g id="a_Node000004"><a xlink:href="class_j_k_q_t_p_plot_element.html" target="_top" xlink:title="this virtual base class of every element, which is part of a JKQTPlotter plot and may appear in its k...">
<polygon fill="white" stroke="#666666" points="156.5,-205 31.5,-205 31.5,-184 156.5,-184 156.5,-205"/>
<text text-anchor="middle" x="94" y="-191.4" font-family="Helvetica,sans-Serif" font-size="12.00">JKQTPPlotElement</text>
</a>
</g>
</g>
<!-- Node4&#45;&gt;Node3 -->
<g id="edge3_Node000003_Node000004" class="edge">
<title>Node4&#45;&gt;Node3</title>
<g id="a_edge3_Node000003_Node000004"><a xlink:title=" ">
<path fill="none" stroke="#63b8ff" d="M94,-173.75C94,-163.05 94,-150.31 94,-141.74"/>
<polygon fill="#63b8ff" stroke="#63b8ff" points="90.5,-173.89 94,-183.89 97.5,-173.89 90.5,-173.89"/>
</a>
</g>
</g>
<!-- Node5 -->
<g id="Node000005" class="node">
<title>Node5</title>
<g id="a_Node000005"><a xlink:title=" ">
<polygon fill="white" stroke="#666666" points="126.5,-262 61.5,-262 61.5,-241 126.5,-241 126.5,-262"/>
<text text-anchor="middle" x="94" y="-248.4" font-family="Helvetica,sans-Serif" font-size="12.00">QObject</text>
</a>
</g>
</g>
<!-- Node5&#45;&gt;Node4 -->
<g id="edge4_Node000004_Node000005" class="edge">
<title>Node5&#45;&gt;Node4</title>
<g id="a_edge4_Node000004_Node000005"><a xlink:title=" ">
<path fill="none" stroke="#63b8ff" d="M94,-230.86C94,-222.2 94,-212.42 94,-205.34"/>
<polygon fill="#63b8ff" stroke="#63b8ff" points="90.5,-230.92 94,-240.92 97.5,-230.92 90.5,-230.92"/>
</a>
</g>
</g>
<!-- Node6 -->
<g id="Node000006" class="node">
<title>Node6</title>
<g id="a_Node000006"><a xlink:href="class_j_k_q_t_p_graph_decorated_line_style_mixin.html" target="_top" xlink:title="This Mix&#45;In class provides setter/getter methods, storage and other facilities for the graph line sty...">
<polygon fill="white" stroke="#666666" points="412,-148 206,-148 206,-114 412,-114 412,-148"/>
<text text-anchor="start" x="214" y="-134.4" font-family="Helvetica,sans-Serif" font-size="12.00">JKQTPGraphDecoratedLineStyle</text>
<text text-anchor="middle" x="309" y="-121.4" font-family="Helvetica,sans-Serif" font-size="12.00">Mixin</text>
</a>
</g>
</g>
<!-- Node6&#45;&gt;Node2 -->
<g id="edge5_Node000002_Node000006" class="edge">
<title>Node6&#45;&gt;Node2</title>
<g id="a_edge5_Node000002_Node000006"><a xlink:title=" ">
<path fill="none" stroke="#63b8ff" d="M271.87,-108.86C253.47,-98.38 232.16,-86.25 217.76,-78.04"/>
<polygon fill="#63b8ff" stroke="#63b8ff" points="270.2,-111.93 280.62,-113.84 273.67,-105.85 270.2,-111.93"/>
</a>
</g>
</g>
<!-- Node7 -->
<g id="Node000007" class="node">
<title>Node7</title>
<g id="a_Node000007"><a xlink:href="class_j_k_q_t_p_graph_line_style_mixin.html" target="_top" xlink:title="This Mix&#45;In class provides setter/getter methods, storage and other facilities for the graph line sty...">
<polygon fill="white" stroke="#666666" points="396,-205 222,-205 222,-184 396,-184 396,-205"/>
<text text-anchor="middle" x="309" y="-191.4" font-family="Helvetica,sans-Serif" font-size="12.00">JKQTPGraphLineStyleMixin</text>
</a>
</g>
</g>
<!-- Node7&#45;&gt;Node6 -->
<g id="edge6_Node000006_Node000007" class="edge">
<title>Node7&#45;&gt;Node6</title>
<g id="a_edge6_Node000006_Node000007"><a xlink:title=" ">
<path fill="none" stroke="#63b8ff" d="M309,-173.77C309,-165.61 309,-156.26 309,-148.48"/>
<polygon fill="#63b8ff" stroke="#63b8ff" points="305.5,-173.89 309,-183.89 312.5,-173.89 305.5,-173.89"/>
</a>
</g>
</g>
</g>
</svg>
</svg>

<style type='text/css'>
<![CDATA[
[data-mouse-over-selected='false'] { opacity: 0.7; }
[data-mouse-over-selected='true']  { opacity: 1.0; }
]]>
</style>
<script type="application/ecmascript"><![CDATA[
document.addEventListener('DOMContentLoaded', (event) => {
  highlightEdges();
  highlightAdjacentNodes();
});
]]></script>
</svg>
