<?xml version="1.0" encoding="UTF-8" standalone="no"?>
<!DOCTYPE svg PUBLIC "-//W3C//DTD SVG 1.1//EN"
 "http://www.w3.org/Graphics/SVG/1.1/DTD/svg11.dtd">
<!-- Generated by graphviz version 2.43.0 (0)
 -->
<!-- Title: JKQTPEvaluatedFunctionWithErrorsGraphBase Pages: 1 -->
<!--zoomable 173 -->

<svg id="main" version="1.1" xmlns="http://www.w3.org/2000/svg" xmlns:xlink="http://www.w3.org/1999/xlink" xml:space="preserve" onload="init(evt)">

<style type="text/css"><![CDATA[
.node, .edge {opacity: 0.7;}
.node.selected, .edge.selected {opacity: 1;}
.edge:hover path { stroke: red; }
.edge:hover polygon { stroke: red; fill: red; }
]]></style>

<defs>
  <circle id="rim" cx="0" cy="0" r="7"/>
  <circle id="rim2" cx="0" cy="0" r="3.5"/>
  <g id="zoomPlus">
    <use xlink:href="#rim" fill="#404040"><set attributeName="fill" to="#808080" begin="zoomplus.mouseover" end="zoomplus.mouseout"/></use>
    <path d="M-4,0h8M0,-4v8" fill="none" stroke="white" stroke-width="1.5" pointer-events="none"/>
  </g>
  <g id="zoomMin">
    <use xlink:href="#rim" fill="#404040"><set attributeName="fill" to="#808080" begin="zoomminus.mouseover" end="zoomminus.mouseout"/></use>
    <path d="M-4,0h8" fill="none" stroke="white" stroke-width="1.5" pointer-events="none"/>
  </g>
  <g id="arrowUp" transform="translate(30 24)">
    <use xlink:href="#rim"/>
    <path pointer-events="none" fill="none" stroke="white" stroke-width="1.5" d="M0,-3.0v7 M-2.5,-0.5L0,-3.0L2.5,-0.5"/>
  </g>
  <g id="arrowRight" transform="rotate(90) translate(36 -43)">
    <use xlink:href="#rim"/>
    <path pointer-events="none" fill="none" stroke="white" stroke-width="1.5" d="M0,-3.0v7 M-2.5,-0.5L0,-3.0L2.5,-0.5"/>
  </g>
  <g id="arrowDown" transform="rotate(180) translate(-30 -48)">
    <use xlink:href="#rim"/>
    <path pointer-events="none" fill="none" stroke="white" stroke-width="1.5" d="M0,-3.0v7 M-2.5,-0.5L0,-3.0L2.5,-0.5"/>
  </g>
  <g id="arrowLeft" transform="rotate(270) translate(-36 17)">
    <use xlink:href="#rim"/>
    <path pointer-events="none" fill="none" stroke="white" stroke-width="1.5" d="M0,-3.0v7 M-2.5,-0.5L0,-3.0L2.5,-0.5"/>
  </g>
  <g id="resetDef">
    <use xlink:href="#rim2" fill="#404040"><set attributeName="fill" to="#808080" begin="reset.mouseover" end="reset.mouseout"/></use>
  </g>
</defs>
<script type="application/ecmascript">
var viewWidth = 1553;
var viewHeight = 173;
var sectionId = 'dynsection-0';
</script>
<script type="application/ecmascript" xlink:href="svg.min.js"/>
<svg id="graph" class="graph">
<g id="viewport">
<title>JKQTPEvaluatedFunctionWithErrorsGraphBase</title>
<!-- Node1 -->
<g id="Node000001" class="node">
<title>Node1</title>
<g id="a_Node000001"><a xlink:title="extends JKQTPEvaluatedFunctionGraphBase with some basic properties (e.g. function parameters) for a s...">
<polygon fill="#999999" stroke="#666666" points="839,-109 651,-109 651,-75 839,-75 839,-109"/>
<text text-anchor="start" x="659" y="-95.4" font-family="Helvetica,sans-Serif" font-size="12.00">JKQTPEvaluatedFunctionWith</text>
<text text-anchor="middle" x="745" y="-82.4" font-family="Helvetica,sans-Serif" font-size="12.00">ErrorsGraphBase</text>
</a>
</g>
</g>
<!-- Node6 -->
<g id="Node000006" class="node">
<title>Node6</title>
<g id="a_Node000006"><a xlink:href="class_j_k_q_t_p_evaluated_function_with_errors_graph_drawing_base.html" target="_top" xlink:title="This class extends JKQTPEvaluatedFunctionWithErrorsGraphBase with functions to draw the graphs and se...">
<polygon fill="white" stroke="#666666" points="1063,-109 875,-109 875,-75 1063,-75 1063,-109"/>
<text text-anchor="start" x="883" y="-95.4" font-family="Helvetica,sans-Serif" font-size="12.00">JKQTPEvaluatedFunctionWith</text>
<text text-anchor="middle" x="969" y="-82.4" font-family="Helvetica,sans-Serif" font-size="12.00">ErrorsGraphDrawingBase</text>
</a>
</g>
</g>
<!-- Node1&#45;&gt;Node6 -->
<g id="edge5_Node000001_Node000006" class="edge">
<title>Node1&#45;&gt;Node6</title>
<g id="a_edge5_Node000001_Node000006"><a xlink:title=" ">
<path fill="none" stroke="#63b8ff" d="M849.43,-92C857.86,-92 866.35,-92 874.7,-92"/>
<polygon fill="#63b8ff" stroke="#63b8ff" points="849.18,-88.5 839.18,-92 849.18,-95.5 849.18,-88.5"/>
</a>
</g>
</g>
<!-- Node2 -->
<g id="Node000002" class="node">
<title>Node2</title>
<g id="a_Node000002"><a xlink:href="class_j_k_q_t_p_evaluated_function_graph_base.html" target="_top" xlink:title="Base class for graph classes that evaluate a mathematical function (e.g. defined as a C&#45;function),...">
<polygon fill="white" stroke="#666666" points="615,-102.5 387,-102.5 387,-81.5 615,-81.5 615,-102.5"/>
<text text-anchor="middle" x="501" y="-88.9" font-family="Helvetica,sans-Serif" font-size="12.00">JKQTPEvaluatedFunctionGraphBase</text>
</a>
</g>
</g>
<!-- Node2&#45;&gt;Node1 -->
<g id="edge1_Node000001_Node000002" class="edge">
<title>Node2&#45;&gt;Node1</title>
<g id="a_edge1_Node000001_Node000002"><a xlink:title=" ">
<path fill="none" stroke="#63b8ff" d="M625.29,-92C633.88,-92 642.45,-92 650.84,-92"/>
<polygon fill="#63b8ff" stroke="#63b8ff" points="625.21,-88.5 615.21,-92 625.21,-95.5 625.21,-88.5"/>
</a>
</g>
</g>
<!-- Node3 -->
<g id="Node000003" class="node">
<title>Node3</title>
<g id="a_Node000003"><a xlink:href="class_j_k_q_t_p_graph.html" target="_top" xlink:title="this virtual base class of the (data&#45;column based) graphs, which are part of a JKQTPlotter plot and w...">
<polygon fill="white" stroke="#666666" points="351,-102.5 262,-102.5 262,-81.5 351,-81.5 351,-102.5"/>
<text text-anchor="middle" x="306.5" y="-88.9" font-family="Helvetica,sans-Serif" font-size="12.00">JKQTPGraph</text>
</a>
</g>
</g>
<!-- Node3&#45;&gt;Node2 -->
<g id="edge2_Node000002_Node000003" class="edge">
<title>Node3&#45;&gt;Node2</title>
<g id="a_edge2_Node000002_Node000003"><a xlink:title=" ">
<path fill="none" stroke="#63b8ff" d="M361.45,-92C369.5,-92 378.04,-92 386.77,-92"/>
<polygon fill="#63b8ff" stroke="#63b8ff" points="361.18,-88.5 351.18,-92 361.18,-95.5 361.18,-88.5"/>
</a>
</g>
</g>
<!-- Node4 -->
<g id="Node000004" class="node">
<title>Node4</title>
<g id="a_Node000004"><a xlink:href="class_j_k_q_t_p_plot_element.html" target="_top" xlink:title="this virtual base class of every element, which is part of a JKQTPlotter plot and may appear in its k...">
<polygon fill="white" stroke="#666666" points="226,-102.5 101,-102.5 101,-81.5 226,-81.5 226,-102.5"/>
<text text-anchor="middle" x="163.5" y="-88.9" font-family="Helvetica,sans-Serif" font-size="12.00">JKQTPPlotElement</text>
</a>
</g>
</g>
<!-- Node4&#45;&gt;Node3 -->
<g id="edge3_Node000003_Node000004" class="edge">
<title>Node4&#45;&gt;Node3</title>
<g id="a_edge3_Node000003_Node000004"><a xlink:title=" ">
<path fill="none" stroke="#63b8ff" d="M236.51,-92C245.18,-92 253.82,-92 261.91,-92"/>
<polygon fill="#63b8ff" stroke="#63b8ff" points="236.34,-88.5 226.34,-92 236.34,-95.5 236.34,-88.5"/>
</a>
</g>
</g>
<!-- Node5 -->
<g id="Node000005" class="node">
<title>Node5</title>
<g id="a_Node000005"><a xlink:title=" ">
<polygon fill="white" stroke="#666666" points="65,-102.5 0,-102.5 0,-81.5 65,-81.5 65,-102.5"/>
<text text-anchor="middle" x="32.5" y="-88.9" font-family="Helvetica,sans-Serif" font-size="12.00">QObject</text>
</a>
</g>
</g>
<!-- Node5&#45;&gt;Node4 -->
<g id="edge4_Node000004_Node000005" class="edge">
<title>Node5&#45;&gt;Node4</title>
<g id="a_edge4_Node000004_Node000005"><a xlink:title=" ">
<path fill="none" stroke="#63b8ff" d="M75.09,-92C83.29,-92 92.05,-92 100.75,-92"/>
<polygon fill="#63b8ff" stroke="#63b8ff" points="75.06,-88.5 65.06,-92 75.06,-95.5 75.06,-88.5"/>
</a>
</g>
</g>
<!-- Node7 -->
<g id="Node000007" class="node">
<title>Node7</title>
<g id="a_Node000007"><a xlink:href="class_j_k_q_t_p_functor_line_graph_base.html" target="_top" xlink:title="extends JKQTPEvaluatedFunctionWithErrorsGraphDrawingBase with the capabilities to define functions fr...">
<polygon fill="white" stroke="#666666" points="1310,-125.5 1122,-125.5 1122,-104.5 1310,-104.5 1310,-125.5"/>
<text text-anchor="middle" x="1216" y="-111.9" font-family="Helvetica,sans-Serif" font-size="12.00">JKQTPFunctorLineGraphBase</text>
</a>
</g>
</g>
<!-- Node6&#45;&gt;Node7 -->
<g id="edge6_Node000006_Node000007" class="edge">
<title>Node6&#45;&gt;Node7</title>
<g id="a_edge6_Node000006_Node000007"><a xlink:title=" ">
<path fill="none" stroke="#63b8ff" d="M1073.3,-101.7C1089.44,-103.21 1106.04,-104.77 1121.94,-106.26"/>
<polygon fill="#63b8ff" stroke="#63b8ff" points="1073.61,-98.21 1063.32,-100.76 1072.95,-105.18 1073.61,-98.21"/>
</a>
</g>
</g>
<!-- Node10 -->
<g id="Node000010" class="node">
<title>Node10</title>
<g id="a_Node000010"><a xlink:href="class_j_k_q_t_p_parsed_function_line_graph_base.html" target="_top" xlink:title="extends JKQTPEvaluatedFunctionWithErrorsGraphDrawingBase with the capabilities to define functions fr...">
<polygon fill="white" stroke="#666666" points="1333,-79.5 1099,-79.5 1099,-58.5 1333,-58.5 1333,-79.5"/>
<text text-anchor="middle" x="1216" y="-65.9" font-family="Helvetica,sans-Serif" font-size="12.00">JKQTPParsedFunctionLineGraphBase</text>
</a>
</g>
</g>
<!-- Node6&#45;&gt;Node10 -->
<g id="edge9_Node000006_Node000010" class="edge">
<title>Node6&#45;&gt;Node10</title>
<g id="a_edge9_Node000006_Node000010"><a xlink:title=" ">
<path fill="none" stroke="#63b8ff" d="M1073.45,-82.29C1083.23,-81.37 1093.17,-80.44 1103.03,-79.51"/>
<polygon fill="#63b8ff" stroke="#63b8ff" points="1072.95,-78.82 1063.32,-83.24 1073.61,-85.79 1072.95,-78.82"/>
</a>
</g>
</g>
<!-- Node8 -->
<g id="Node000008" class="node">
<title>Node8</title>
<g id="a_Node000008"><a xlink:href="class_j_k_q_t_p_x_function_line_graph.html" target="_top" xlink:title="This implements line plots where the data is taken from a user supplied function .">
<polygon fill="white" stroke="#666666" points="1543.5,-164.5 1370.5,-164.5 1370.5,-143.5 1543.5,-143.5 1543.5,-164.5"/>
<text text-anchor="middle" x="1457" y="-150.9" font-family="Helvetica,sans-Serif" font-size="12.00">JKQTPXFunctionLineGraph</text>
</a>
</g>
</g>
<!-- Node7&#45;&gt;Node8 -->
<g id="edge7_Node000007_Node000008" class="edge">
<title>Node7&#45;&gt;Node8</title>
<g id="a_edge7_Node000007_Node000008"><a xlink:title=" ">
<path fill="none" stroke="#63b8ff" d="M1291.57,-127.17C1323.61,-132.4 1360.69,-138.45 1391.52,-143.48"/>
<polygon fill="#63b8ff" stroke="#63b8ff" points="1291.8,-123.66 1281.36,-125.5 1290.67,-130.57 1291.8,-123.66"/>
</a>
</g>
</g>
<!-- Node9 -->
<g id="Node000009" class="node">
<title>Node9</title>
<g id="a_Node000009"><a xlink:href="class_j_k_q_t_p_y_function_line_graph.html" target="_top" xlink:title="This implements line plots where the data is taken from a user supplied function .">
<polygon fill="white" stroke="#666666" points="1542.5,-125.5 1371.5,-125.5 1371.5,-104.5 1542.5,-104.5 1542.5,-125.5"/>
<text text-anchor="middle" x="1457" y="-111.9" font-family="Helvetica,sans-Serif" font-size="12.00">JKQTPYFunctionLineGraph</text>
</a>
</g>
</g>
<!-- Node7&#45;&gt;Node9 -->
<g id="edge8_Node000007_Node000009" class="edge">
<title>Node7&#45;&gt;Node9</title>
<g id="a_edge8_Node000007_Node000009"><a xlink:title=" ">
<path fill="none" stroke="#63b8ff" d="M1320.1,-115C1337.21,-115 1354.77,-115 1371.35,-115"/>
<polygon fill="#63b8ff" stroke="#63b8ff" points="1320.09,-111.5 1310.09,-115 1320.09,-118.5 1320.09,-111.5"/>
</a>
</g>
</g>
<!-- Node11 -->
<g id="Node000011" class="node">
<title>Node11</title>
<g id="a_Node000011"><a xlink:href="class_j_k_q_t_p_x_parsed_function_line_graph.html" target="_top" xlink:title="This implements line plots where the data is taken from a user supplied function &#160;The function is def...">
<polygon fill="white" stroke="#666666" points="1545,-86 1369,-86 1369,-52 1545,-52 1545,-86"/>
<text text-anchor="start" x="1377" y="-72.4" font-family="Helvetica,sans-Serif" font-size="12.00">JKQTPXParsedFunctionLine</text>
<text text-anchor="middle" x="1457" y="-59.4" font-family="Helvetica,sans-Serif" font-size="12.00">Graph</text>
</a>
</g>
</g>
<!-- Node10&#45;&gt;Node11 -->
<g id="edge10_Node000010_Node000011" class="edge">
<title>Node10&#45;&gt;Node11</title>
<g id="a_edge10_Node000010_Node000011"><a xlink:title=" ">
<path fill="none" stroke="#63b8ff" d="M1343.47,-69C1352.07,-69 1360.63,-69 1368.96,-69"/>
<polygon fill="#63b8ff" stroke="#63b8ff" points="1343.35,-65.5 1333.35,-69 1343.35,-72.5 1343.35,-65.5"/>
</a>
</g>
</g>
<!-- Node12 -->
<g id="Node000012" class="node">
<title>Node12</title>
<g id="a_Node000012"><a xlink:href="class_j_k_q_t_p_y_parsed_function_line_graph.html" target="_top" xlink:title="This implements line plots where the data is taken from a user supplied function &#160;The function is def...">
<polygon fill="white" stroke="#666666" points="1544.5,-34 1369.5,-34 1369.5,0 1544.5,0 1544.5,-34"/>
<text text-anchor="start" x="1377.5" y="-20.4" font-family="Helvetica,sans-Serif" font-size="12.00">JKQTPYParsedFunctionLine</text>
<text text-anchor="middle" x="1457" y="-7.4" font-family="Helvetica,sans-Serif" font-size="12.00">Graph</text>
</a>
</g>
</g>
<!-- Node10&#45;&gt;Node12 -->
<g id="edge11_Node000010_Node000012" class="edge">
<title>Node10&#45;&gt;Node12</title>
<g id="a_edge11_Node000010_Node000012"><a xlink:title=" ">
<path fill="none" stroke="#63b8ff" d="M1275.49,-56.27C1306.23,-49.59 1344.33,-41.3 1377.6,-34.06"/>
<polygon fill="#63b8ff" stroke="#63b8ff" points="1274.39,-52.93 1265.37,-58.48 1275.88,-59.77 1274.39,-52.93"/>
</a>
</g>
</g>
</g>
</svg>

<g id="navigator" transform="translate(0 0)" fill="#404254">
  <rect fill="#f2f5e9" fill-opacity="0.5" stroke="#606060" stroke-width=".5" x="0" y="0" width="60" height="60"/>
  <use id="zoomplus" xlink:href="#zoomPlus" x="17" y="9" onmousedown="handleZoom(evt,'in')"/>
  <use id="zoomminus" xlink:href="#zoomMin" x="42" y="9" onmousedown="handleZoom(evt,'out')"/>
  <use id="reset" xlink:href="#resetDef" x="30" y="36" onmousedown="handleReset()"/>
   <use id="arrowup" xlink:href="#arrowUp" x="0" y="0" onmousedown="handlePan(0,-1)"/>
  <use id="arrowright" xlink:href="#arrowRight" x="0" y="0" onmousedown="handlePan(1,0)"/>
  <use id="arrowdown" xlink:href="#arrowDown" x="0" y="0" onmousedown="handlePan(0,1)"/>
  <use id="arrowleft" xlink:href="#arrowLeft" x="0" y="0" onmousedown="handlePan(-1,0)"/>
</g>
<svg viewBox="0 0 15 15" width="100%" height="30px" preserveAspectRatio="xMaxYMin meet">
 <g id="arrow_out" transform="scale(0.3 0.3)">
  <a xlink:href="class_j_k_q_t_p_evaluated_function_with_errors_graph_base__inherit__graph_org.svg" target="_base">
   <rect id="button" ry="5" rx="5" y="6" x="6" height="38" width="38"
        fill="#f2f5e9" fill-opacity="0.5" stroke="#606060" stroke-width="1.0"/>
   <path id="arrow"
     d="M 11.500037,31.436501 C 11.940474,20.09759 22.043105,11.32322 32.158766,21.979434 L 37.068811,17.246167 C 37.068811,17.246167 37.088388,32 37.088388,32 L 22.160133,31.978069 C 22.160133,31.978069 26.997745,27.140456 26.997745,27.140456 C 18.528582,18.264221 13.291696,25.230495 11.500037,31.436501 z"
     style="fill:#404040;"/>
  </a>
 </g>
</svg>

<style type='text/css'>
<![CDATA[
[data-mouse-over-selected='false'] { opacity: 0.7; }
[data-mouse-over-selected='true']  { opacity: 1.0; }
]]>
</style>
<script type="application/ecmascript"><![CDATA[
document.addEventListener('DOMContentLoaded', (event) => {
  highlightEdges();
  highlightAdjacentNodes();
});
]]></script>
</svg>
