<?xml version="1.0" encoding="UTF-8" standalone="no"?>
<!DOCTYPE svg PUBLIC "-//W3C//DTD SVG 1.1//EN"
 "http://www.w3.org/Graphics/SVG/1.1/DTD/svg11.dtd">
<!-- Generated by graphviz version 2.43.0 (0)
 -->
<!-- Title: JKQTMathTextSqrtNode Pages: 1 -->
<svg width="582pt" height="178pt"
 viewBox="0.00 0.00 581.50 178.00" xmlns="http://www.w3.org/2000/svg" xmlns:xlink="http://www.w3.org/1999/xlink">
<g id="graph0" class="graph" transform="scale(1 1) rotate(0) translate(4 174)">
<title>JKQTMathTextSqrtNode</title>
<!-- Node1 -->
<g id="Node000001" class="node">
<title>Node1</title>
<g id="a_Node000001"><a xlink:title="subclass representing a sqrt node">
<polygon fill="#999999" stroke="#666666" points="155,-21 0,-21 0,0 155,0 155,-21"/>
<text text-anchor="middle" x="77.5" y="-7.4" font-family="Helvetica,sans-Serif" font-size="12.00">JKQTMathTextSqrtNode</text>
</a>
</g>
</g>
<!-- Node2 -->
<g id="Node000002" class="node">
<title>Node2</title>
<g id="a_Node000002"><a xlink:href="class_j_k_q_t_math_text_multi_child_node.html" target="_top" xlink:title="subclass representing a node in the syntax tree, that has two children">
<polygon fill="white" stroke="#666666" points="308.5,-86.5 120.5,-86.5 120.5,-65.5 308.5,-65.5 308.5,-86.5"/>
<text text-anchor="middle" x="214.5" y="-72.9" font-family="Helvetica,sans-Serif" font-size="12.00">JKQTMathTextMultiChildNode</text>
</a>
</g>
</g>
<!-- Node2&#45;&gt;Node1 -->
<g id="edge1_Node000001_Node000002" class="edge">
<title>Node2&#45;&gt;Node1</title>
<g id="a_edge1_Node000001_Node000002"><a xlink:title=" ">
<path fill="none" stroke="#63b8ff" d="M184.91,-61.28C158.73,-49.15 121.21,-31.76 98.15,-21.07"/>
<polygon fill="#63b8ff" stroke="#63b8ff" points="183.45,-64.46 193.99,-65.49 186.39,-58.11 183.45,-64.46"/>
</a>
</g>
</g>
<!-- Node3 -->
<g id="Node000003" class="node">
<title>Node3</title>
<g id="a_Node000003"><a xlink:href="class_j_k_q_t_math_text_node.html" target="_top" xlink:title="subclass representing one node in the syntax tree">
<polygon fill="white" stroke="#666666" points="275,-170 144,-170 144,-149 275,-149 275,-170"/>
<text text-anchor="middle" x="209.5" y="-156.4" font-family="Helvetica,sans-Serif" font-size="12.00">JKQTMathTextNode</text>
</a>
</g>
</g>
<!-- Node3&#45;&gt;Node1 -->
<g id="edge8_Node000001_Node000003" class="edge">
<title>Node3&#45;&gt;Node1</title>
<g id="a_edge8_Node000001_Node000003"><a xlink:title=" ">
<path fill="none" stroke="#9a32cd" stroke-dasharray="5,2" d="M133.62,-150.65C96.98,-142.61 56.16,-126.43 33.5,-94 24.34,-80.88 27.58,-72.87 33.5,-58 39.58,-42.72 53.34,-29.56 63.86,-21.19"/>
<polygon fill="#9a32cd" stroke="#9a32cd" points="133.32,-154.16 143.82,-152.71 134.71,-147.3 133.32,-154.16"/>
</a>
</g>
<text text-anchor="start" x="36.5" y="-81.4" font-family="Helvetica,sans-Serif" font-size="12.00" fill="grey">child</text>
<text text-anchor="start" x="36.5" y="-64.4" font-family="Helvetica,sans-Serif" font-size="12.00" fill="grey">childDegree</text>
</g>
<!-- Node3&#45;&gt;Node2 -->
<g id="edge2_Node000002_Node000003" class="edge">
<title>Node3&#45;&gt;Node2</title>
<g id="a_edge2_Node000002_Node000003"><a xlink:title=" ">
<path fill="none" stroke="#63b8ff" d="M207.08,-138.74C206.84,-136.14 206.64,-133.51 206.5,-131 206.04,-122.57 205.55,-120.39 206.5,-112 207.48,-103.33 209.78,-93.67 211.66,-86.71"/>
<polygon fill="#63b8ff" stroke="#63b8ff" points="203.62,-139.29 208.19,-148.85 210.58,-138.53 203.62,-139.29"/>
</a>
</g>
</g>
<!-- Node3&#45;&gt;Node3 -->
<g id="edge7_Node000003_Node000003" class="edge">
<title>Node3&#45;&gt;Node3</title>
<g id="a_edge7_Node000003_Node000003"><a xlink:title=" ">
<path fill="none" stroke="#9a32cd" stroke-dasharray="5,2" d="M285.52,-164.46C290.19,-163.29 293,-161.63 293,-159.5 293,-156.09 285.81,-153.9 275.31,-152.94"/>
<polygon fill="#9a32cd" stroke="#9a32cd" points="284.65,-161.06 275.31,-166.06 285.73,-167.97 284.65,-161.06"/>
</a>
</g>
<text text-anchor="start" x="296.5" y="-155.9" font-family="Helvetica,sans-Serif" font-size="12.00" fill="grey">parentNode</text>
</g>
<!-- Node4 -->
<g id="Node000004" class="node">
<title>Node4</title>
<g id="a_Node000004"><a xlink:href="class_j_k_q_t_math_text.html" target="_top" xlink:title="this class parses a mathematical markup string and can then draw the contained text/equation onto a Q...">
<polygon fill="white" stroke="#666666" points="470,-86.5 371,-86.5 371,-65.5 470,-65.5 470,-86.5"/>
<text text-anchor="middle" x="420.5" y="-72.9" font-family="Helvetica,sans-Serif" font-size="12.00">JKQTMathText</text>
</a>
</g>
</g>
<!-- Node3&#45;&gt;Node4 -->
<g id="edge5_Node000004_Node000003" class="edge">
<title>Node3&#45;&gt;Node4</title>
<g id="a_edge5_Node000004_Node000003"><a xlink:title=" ">
<path fill="none" stroke="#9a32cd" stroke-dasharray="5,2" d="M210.32,-138.63C211.76,-129.27 215.09,-118.72 222.5,-112 225.27,-109.49 313.19,-94.63 370.93,-85.1"/>
<polygon fill="#9a32cd" stroke="#9a32cd" points="206.82,-138.48 209.37,-148.77 213.79,-139.14 206.82,-138.48"/>
</a>
</g>
<text text-anchor="start" x="226" y="-117.9" font-family="Helvetica,sans-Serif" font-size="12.00" fill="grey">parsedNode</text>
</g>
<!-- Node4&#45;&gt;Node3 -->
<g id="edge3_Node000003_Node000004" class="edge">
<title>Node4&#45;&gt;Node3</title>
<g id="a_edge3_Node000003_Node000004"><a xlink:title=" ">
<path fill="none" stroke="#9a32cd" stroke-dasharray="5,2" d="M375.79,-89.77C359.64,-95.37 341.66,-102.79 326.5,-112 315.74,-118.54 316.5,-124.89 305.5,-131 291.25,-138.92 274.53,-144.73 259.06,-148.91"/>
<polygon fill="#9a32cd" stroke="#9a32cd" points="377.18,-92.99 385.57,-86.52 374.98,-86.35 377.18,-92.99"/>
</a>
</g>
<text text-anchor="start" x="329.5" y="-117.9" font-family="Helvetica,sans-Serif" font-size="12.00" fill="grey">parentMathText</text>
</g>
<!-- Node5 -->
<g id="Node000005" class="node">
<title>Node5</title>
<g id="a_Node000005"><a xlink:title=" ">
<polygon fill="white" stroke="#666666" points="475,-170 410,-170 410,-149 475,-149 475,-170"/>
<text text-anchor="middle" x="442.5" y="-156.4" font-family="Helvetica,sans-Serif" font-size="12.00">QObject</text>
</a>
</g>
</g>
<!-- Node5&#45;&gt;Node4 -->
<g id="edge4_Node000004_Node000005" class="edge">
<title>Node5&#45;&gt;Node4</title>
<g id="a_edge4_Node000004_Node000005"><a xlink:title=" ">
<path fill="none" stroke="#63b8ff" d="M437.26,-139.09C432.8,-122.56 426.58,-99.52 423.11,-86.66"/>
<polygon fill="#63b8ff" stroke="#63b8ff" points="433.9,-140.09 439.89,-148.83 440.66,-138.26 433.9,-140.09"/>
</a>
</g>
</g>
<!-- Node6 -->
<g id="Node000006" class="node">
<title>Node6</title>
<g id="a_Node000006"><a xlink:title=" ">
<polygon fill="white" stroke="#666666" points="573.5,-170 493.5,-170 493.5,-149 573.5,-149 573.5,-170"/>
<text text-anchor="middle" x="533.5" y="-156.4" font-family="Helvetica,sans-Serif" font-size="12.00">std::mutex</text>
</a>
</g>
</g>
<!-- Node6&#45;&gt;Node4 -->
<g id="edge6_Node000004_Node000006" class="edge">
<title>Node6&#45;&gt;Node4</title>
<g id="a_edge6_Node000004_Node000006"><a xlink:title=" ">
<path fill="none" stroke="#9a32cd" stroke-dasharray="5,2" d="M511.96,-142.96C488.94,-126.36 453.16,-100.56 433.89,-86.66"/>
<polygon fill="#9a32cd" stroke="#9a32cd" points="509.94,-145.82 520.09,-148.83 514.03,-140.14 509.94,-145.82"/>
</a>
</g>
<text text-anchor="start" x="498" y="-117.9" font-family="Helvetica,sans-Serif" font-size="12.00" fill="grey">s_mutex</text>
</g>
</g>
</svg>
