<?xml version="1.0" encoding="UTF-8" standalone="no"?>
<!DOCTYPE svg PUBLIC "-//W3C//DTD SVG 1.1//EN"
 "http://www.w3.org/Graphics/SVG/1.1/DTD/svg11.dtd">
<!-- Generated by graphviz version 2.43.0 (0)
 -->
<!-- Title: JKQTPColumnIterator Pages: 1 -->
<svg width="493pt" height="257pt"
 viewBox="0.00 0.00 493.00 257.00" xmlns="http://www.w3.org/2000/svg" xmlns:xlink="http://www.w3.org/1999/xlink">
<g id="graph0" class="graph" transform="scale(1 1) rotate(0) translate(4 253)">
<title>JKQTPColumnIterator</title>
<!-- Node1 -->
<g id="Node000001" class="node">
<title>Node1</title>
<g id="a_Node000001"><a xlink:title="iterator over the data in the column of a JKQTPDatastore">
<polygon fill="#999999" stroke="#666666" points="144,-97 0,-97 0,-76 144,-76 144,-97"/>
<text text-anchor="middle" x="72" y="-83.4" font-family="Helvetica,sans-Serif" font-size="12.00">JKQTPColumnIterator</text>
</a>
</g>
</g>
<!-- Node2 -->
<g id="Node000002" class="node">
<title>Node2</title>
<g id="a_Node000002"><a xlink:href="class_j_k_q_t_p_column.html" target="_top" xlink:title="internally stores information about one data column. See JKQTPDatastore for more information.">
<polygon fill="white" stroke="#666666" points="229,-173 131,-173 131,-152 229,-152 229,-173"/>
<text text-anchor="middle" x="180" y="-159.4" font-family="Helvetica,sans-Serif" font-size="12.00">JKQTPColumn</text>
</a>
</g>
</g>
<!-- Node2&#45;&gt;Node1 -->
<g id="edge1_Node000001_Node000002" class="edge">
<title>Node2&#45;&gt;Node1</title>
<g id="a_edge1_Node000001_Node000002"><a xlink:title=" ">
<path fill="none" stroke="#9a32cd" stroke-dasharray="5,2" d="M155.13,-146.38C148.83,-142.43 142.12,-138.13 136,-134 117.78,-121.71 97.34,-106.62 84.56,-97.03"/>
<polygon fill="#9a32cd" stroke="#9a32cd" points="153.6,-149.55 163.94,-151.84 157.28,-143.59 153.6,-149.55"/>
</a>
</g>
<text text-anchor="start" x="139" y="-120.9" font-family="Helvetica,sans-Serif" font-size="12.00" fill="grey">col_</text>
</g>
<!-- Node4 -->
<g id="Node000004" class="node">
<title>Node4</title>
<g id="a_Node000004"><a xlink:title=" ">
<polygon fill="white" stroke="#666666" points="477.5,-97 262.5,-97 262.5,-76 477.5,-76 477.5,-97"/>
<text text-anchor="middle" x="370" y="-83.4" font-family="Helvetica,sans-Serif" font-size="12.00">std::unique_ptr&lt; JKQTPColumn &gt;</text>
</a>
</g>
</g>
<!-- Node2&#45;&gt;Node4 -->
<g id="edge4_Node000004_Node000002" class="edge">
<title>Node2&#45;&gt;Node4</title>
<g id="a_edge4_Node000004_Node000002"><a xlink:title=" ">
<path fill="none" stroke="#9a32cd" stroke-dasharray="5,2" d="M214.01,-148.26C251.78,-133.54 311.84,-110.15 345.34,-97.1"/>
<polygon fill="#9a32cd" stroke="#9a32cd" points="212.5,-145.09 204.45,-151.98 215.04,-151.61 212.5,-145.09"/>
</a>
</g>
<text text-anchor="start" x="301" y="-120.9" font-family="Helvetica,sans-Serif" font-size="12.00" fill="grey">ptr</text>
</g>
<!-- Node3 -->
<g id="Node000003" class="node">
<title>Node3</title>
<g id="a_Node000003"><a xlink:href="class_j_k_q_t_p_datastore.html" target="_top" xlink:title="This class manages data columns (with entries of type double ), used by JKQTPlotter/JKQTBasePlotter t...">
<polygon fill="white" stroke="#666666" points="251.5,-21 140.5,-21 140.5,0 251.5,0 251.5,-21"/>
<text text-anchor="middle" x="196" y="-7.4" font-family="Helvetica,sans-Serif" font-size="12.00">JKQTPDatastore</text>
</a>
</g>
</g>
<!-- Node3&#45;&gt;Node2 -->
<g id="edge2_Node000002_Node000003" class="edge">
<title>Node3&#45;&gt;Node2</title>
<g id="a_edge2_Node000002_Node000003"><a xlink:title=" ">
<path fill="none" stroke="#9a32cd" stroke-dasharray="5,2" d="M193.86,-31.09C192.46,-43.88 190.61,-60.93 189,-76 186.07,-103.46 182.67,-135.88 181.02,-151.75"/>
<polygon fill="#9a32cd" stroke="#9a32cd" points="197.34,-31.44 194.95,-21.12 190.38,-30.68 197.34,-31.44"/>
</a>
</g>
<text text-anchor="start" x="192" y="-82.9" font-family="Helvetica,sans-Serif" font-size="12.00" fill="grey">datastore</text>
</g>
<!-- Node4&#45;&gt;Node3 -->
<g id="edge3_Node000003_Node000004" class="edge">
<title>Node4&#45;&gt;Node3</title>
<g id="a_edge3_Node000003_Node000004"><a xlink:title=" ">
<path fill="none" stroke="#9a32cd" stroke-dasharray="5,2" d="M337.97,-71.88C303.33,-57.15 249.01,-34.04 218.58,-21.1"/>
<polygon fill="#9a32cd" stroke="#9a32cd" points="337.04,-75.28 347.61,-75.98 339.78,-68.84 337.04,-75.28"/>
</a>
</g>
<text text-anchor="start" x="307.5" y="-44.9" font-family="Helvetica,sans-Serif" font-size="12.00" fill="grey">m_invalidColumn</text>
</g>
<!-- Node5 -->
<g id="Node000005" class="node">
<title>Node5</title>
<g id="a_Node000005"><a xlink:title=" ">
<polygon fill="white" stroke="#666666" points="440,-173 300,-173 300,-152 440,-152 440,-173"/>
<text text-anchor="middle" x="370" y="-159.4" font-family="Helvetica,sans-Serif" font-size="12.00">std::unique_ptr&lt; T &gt;</text>
</a>
</g>
</g>
<!-- Node5&#45;&gt;Node4 -->
<g id="edge5_Node000004_Node000005" class="edge">
<title>Node5&#45;&gt;Node4</title>
<g id="a_edge5_Node000004_Node000005"><a xlink:title=" ">
<path fill="none" stroke="orange" stroke-dasharray="5,2" d="M370,-141.53C370,-127.25 370,-108.65 370,-97.41"/>
<polygon fill="orange" stroke="orange" points="366.5,-141.83 370,-151.83 373.5,-141.83 366.5,-141.83"/>
</a>
</g>
<text text-anchor="start" x="373.5" y="-120.9" font-family="Helvetica,sans-Serif" font-size="12.00" fill="grey">&lt; JKQTPColumn &gt;</text>
</g>
<!-- Node6 -->
<g id="Node000006" class="node">
<title>Node6</title>
<g id="a_Node000006"><a xlink:title=" ">
<polygon fill="white" stroke="#666666" points="384.5,-249 355.5,-249 355.5,-228 384.5,-228 384.5,-249"/>
<text text-anchor="middle" x="370" y="-235.4" font-family="Helvetica,sans-Serif" font-size="12.00">T</text>
</a>
</g>
</g>
<!-- Node6&#45;&gt;Node5 -->
<g id="edge6_Node000005_Node000006" class="edge">
<title>Node6&#45;&gt;Node5</title>
<g id="a_edge6_Node000005_Node000006"><a xlink:title=" ">
<path fill="none" stroke="#9a32cd" stroke-dasharray="5,2" d="M370,-217.53C370,-203.25 370,-184.65 370,-173.41"/>
<polygon fill="#9a32cd" stroke="#9a32cd" points="366.5,-217.83 370,-227.83 373.5,-217.83 366.5,-217.83"/>
</a>
</g>
<text text-anchor="start" x="373" y="-196.9" font-family="Helvetica,sans-Serif" font-size="12.00" fill="grey">ptr</text>
</g>
</g>
</svg>
