<?xml version="1.0" encoding="UTF-8" standalone="no"?>
<!DOCTYPE svg PUBLIC "-//W3C//DTD SVG 1.1//EN"
 "http://www.w3.org/Graphics/SVG/1.1/DTD/svg11.dtd">
<!-- Generated by graphviz version 2.43.0 (0)
 -->
<!-- Title: JKQTPXYYGraph Pages: 1 -->
<svg width="174pt" height="327pt"
 viewBox="0.00 0.00 174.00 327.00" xmlns="http://www.w3.org/2000/svg" xmlns:xlink="http://www.w3.org/1999/xlink">
<g id="graph0" class="graph" transform="scale(1 1) rotate(0) translate(4 323)">
<title>JKQTPXYYGraph</title>
<!-- Node1 -->
<g id="Node000001" class="node">
<title>Node1</title>
<g id="a_Node000001"><a xlink:title="This virtual JKQTPGraph descendent extends JKQTPXYGraph to two columns for y&#45;values (e....">
<polygon fill="#999999" stroke="#666666" points="139.5,-91 26.5,-91 26.5,-70 139.5,-70 139.5,-91"/>
<text text-anchor="middle" x="83" y="-77.4" font-family="Helvetica,sans-Serif" font-size="12.00">JKQTPXYYGraph</text>
</a>
</g>
</g>
<!-- Node6 -->
<g id="Node000006" class="node">
<title>Node6</title>
<g id="a_Node000006"><a xlink:href="class_j_k_q_t_p_filled_vertical_range_graph.html" target="_top" xlink:title="This implements filled curve plots where the area is filled between two data columns for each x&#45;value...">
<polygon fill="white" stroke="#666666" points="166,-34 0,-34 0,0 166,0 166,-34"/>
<text text-anchor="start" x="8" y="-20.4" font-family="Helvetica,sans-Serif" font-size="12.00">JKQTPFilledVerticalRange</text>
<text text-anchor="middle" x="83" y="-7.4" font-family="Helvetica,sans-Serif" font-size="12.00">Graph</text>
</a>
</g>
</g>
<!-- Node1&#45;&gt;Node6 -->
<g id="edge5_Node000001_Node000006" class="edge">
<title>Node1&#45;&gt;Node6</title>
<g id="a_edge5_Node000001_Node000006"><a xlink:title=" ">
<path fill="none" stroke="#63b8ff" d="M83,-59.77C83,-51.61 83,-42.26 83,-34.48"/>
<polygon fill="#63b8ff" stroke="#63b8ff" points="79.5,-59.89 83,-69.89 86.5,-59.89 79.5,-59.89"/>
</a>
</g>
</g>
<!-- Node2 -->
<g id="Node000002" class="node">
<title>Node2</title>
<g id="a_Node000002"><a xlink:href="class_j_k_q_t_p_x_y_graph.html" target="_top" xlink:title="This virtual JKQTPGraph descendent may be used as base for all graphs that use at least two columns t...">
<polygon fill="white" stroke="#666666" points="135.5,-148 30.5,-148 30.5,-127 135.5,-127 135.5,-148"/>
<text text-anchor="middle" x="83" y="-134.4" font-family="Helvetica,sans-Serif" font-size="12.00">JKQTPXYGraph</text>
</a>
</g>
</g>
<!-- Node2&#45;&gt;Node1 -->
<g id="edge1_Node000001_Node000002" class="edge">
<title>Node2&#45;&gt;Node1</title>
<g id="a_edge1_Node000001_Node000002"><a xlink:title=" ">
<path fill="none" stroke="#63b8ff" d="M83,-116.86C83,-108.2 83,-98.42 83,-91.34"/>
<polygon fill="#63b8ff" stroke="#63b8ff" points="79.5,-116.92 83,-126.92 86.5,-116.92 79.5,-116.92"/>
</a>
</g>
</g>
<!-- Node3 -->
<g id="Node000003" class="node">
<title>Node3</title>
<g id="a_Node000003"><a xlink:href="class_j_k_q_t_p_graph.html" target="_top" xlink:title="this virtual base class of the (data&#45;column based) graphs, which are part of a JKQTPlotter plot and w...">
<polygon fill="white" stroke="#666666" points="127.5,-205 38.5,-205 38.5,-184 127.5,-184 127.5,-205"/>
<text text-anchor="middle" x="83" y="-191.4" font-family="Helvetica,sans-Serif" font-size="12.00">JKQTPGraph</text>
</a>
</g>
</g>
<!-- Node3&#45;&gt;Node2 -->
<g id="edge2_Node000002_Node000003" class="edge">
<title>Node3&#45;&gt;Node2</title>
<g id="a_edge2_Node000002_Node000003"><a xlink:title=" ">
<path fill="none" stroke="#63b8ff" d="M83,-173.86C83,-165.2 83,-155.42 83,-148.34"/>
<polygon fill="#63b8ff" stroke="#63b8ff" points="79.5,-173.92 83,-183.92 86.5,-173.92 79.5,-173.92"/>
</a>
</g>
</g>
<!-- Node4 -->
<g id="Node000004" class="node">
<title>Node4</title>
<g id="a_Node000004"><a xlink:href="class_j_k_q_t_p_plot_element.html" target="_top" xlink:title="this virtual base class of every element, which is part of a JKQTPlotter plot and may appear in its k...">
<polygon fill="white" stroke="#666666" points="145.5,-262 20.5,-262 20.5,-241 145.5,-241 145.5,-262"/>
<text text-anchor="middle" x="83" y="-248.4" font-family="Helvetica,sans-Serif" font-size="12.00">JKQTPPlotElement</text>
</a>
</g>
</g>
<!-- Node4&#45;&gt;Node3 -->
<g id="edge3_Node000003_Node000004" class="edge">
<title>Node4&#45;&gt;Node3</title>
<g id="a_edge3_Node000003_Node000004"><a xlink:title=" ">
<path fill="none" stroke="#63b8ff" d="M83,-230.86C83,-222.2 83,-212.42 83,-205.34"/>
<polygon fill="#63b8ff" stroke="#63b8ff" points="79.5,-230.92 83,-240.92 86.5,-230.92 79.5,-230.92"/>
</a>
</g>
</g>
<!-- Node5 -->
<g id="Node000005" class="node">
<title>Node5</title>
<g id="a_Node000005"><a xlink:title=" ">
<polygon fill="white" stroke="#666666" points="115.5,-319 50.5,-319 50.5,-298 115.5,-298 115.5,-319"/>
<text text-anchor="middle" x="83" y="-305.4" font-family="Helvetica,sans-Serif" font-size="12.00">QObject</text>
</a>
</g>
</g>
<!-- Node5&#45;&gt;Node4 -->
<g id="edge4_Node000004_Node000005" class="edge">
<title>Node5&#45;&gt;Node4</title>
<g id="a_edge4_Node000004_Node000005"><a xlink:title=" ">
<path fill="none" stroke="#63b8ff" d="M83,-287.86C83,-279.2 83,-269.42 83,-262.34"/>
<polygon fill="#63b8ff" stroke="#63b8ff" points="79.5,-287.92 83,-297.92 86.5,-287.92 79.5,-287.92"/>
</a>
</g>
</g>
</g>
</svg>
