<?xml version="1.0" encoding="UTF-8" standalone="no"?>
<!DOCTYPE svg PUBLIC "-//W3C//DTD SVG 1.1//EN"
 "http://www.w3.org/Graphics/SVG/1.1/DTD/svg11.dtd">
<!-- Generated by graphviz version 2.43.0 (0)
 -->
<!-- Title: JKQTMathTextSqrtNode Pages: 1 -->
<!--zoomable 178 -->

<svg id="main" version="1.1" xmlns="http://www.w3.org/2000/svg" xmlns:xlink="http://www.w3.org/1999/xlink" xml:space="preserve" onload="init(evt)">

<style type="text/css"><![CDATA[
.node, .edge {opacity: 0.7;}
.node.selected, .edge.selected {opacity: 1;}
.edge:hover path { stroke: red; }
.edge:hover polygon { stroke: red; fill: red; }
]]></style>

<defs>
  <circle id="rim" cx="0" cy="0" r="7"/>
  <circle id="rim2" cx="0" cy="0" r="3.5"/>
  <g id="zoomPlus">
    <use xlink:href="#rim" fill="#404040"><set attributeName="fill" to="#808080" begin="zoomplus.mouseover" end="zoomplus.mouseout"/></use>
    <path d="M-4,0h8M0,-4v8" fill="none" stroke="white" stroke-width="1.5" pointer-events="none"/>
  </g>
  <g id="zoomMin">
    <use xlink:href="#rim" fill="#404040"><set attributeName="fill" to="#808080" begin="zoomminus.mouseover" end="zoomminus.mouseout"/></use>
    <path d="M-4,0h8" fill="none" stroke="white" stroke-width="1.5" pointer-events="none"/>
  </g>
  <g id="arrowUp" transform="translate(30 24)">
    <use xlink:href="#rim"/>
    <path pointer-events="none" fill="none" stroke="white" stroke-width="1.5" d="M0,-3.0v7 M-2.5,-0.5L0,-3.0L2.5,-0.5"/>
  </g>
  <g id="arrowRight" transform="rotate(90) translate(36 -43)">
    <use xlink:href="#rim"/>
    <path pointer-events="none" fill="none" stroke="white" stroke-width="1.5" d="M0,-3.0v7 M-2.5,-0.5L0,-3.0L2.5,-0.5"/>
  </g>
  <g id="arrowDown" transform="rotate(180) translate(-30 -48)">
    <use xlink:href="#rim"/>
    <path pointer-events="none" fill="none" stroke="white" stroke-width="1.5" d="M0,-3.0v7 M-2.5,-0.5L0,-3.0L2.5,-0.5"/>
  </g>
  <g id="arrowLeft" transform="rotate(270) translate(-36 17)">
    <use xlink:href="#rim"/>
    <path pointer-events="none" fill="none" stroke="white" stroke-width="1.5" d="M0,-3.0v7 M-2.5,-0.5L0,-3.0L2.5,-0.5"/>
  </g>
  <g id="resetDef">
    <use xlink:href="#rim2" fill="#404040"><set attributeName="fill" to="#808080" begin="reset.mouseover" end="reset.mouseout"/></use>
  </g>
</defs>
<script type="application/ecmascript">
var viewWidth = 582;
var viewHeight = 178;
var sectionId = 'dynsection-1';
</script>
<script type="application/ecmascript" xlink:href="svg.min.js"/>
<svg id="graph" class="graph">
<g id="viewport">
<title>JKQTMathTextSqrtNode</title>
<!-- Node1 -->
<g id="Node000001" class="node">
<title>Node1</title>
<g id="a_Node000001"><a xlink:title="subclass representing a sqrt node">
<polygon fill="#999999" stroke="#666666" points="155,-21 0,-21 0,0 155,0 155,-21"/>
<text text-anchor="middle" x="77.5" y="-7.4" font-family="Helvetica,sans-Serif" font-size="12.00">JKQTMathTextSqrtNode</text>
</a>
</g>
</g>
<!-- Node2 -->
<g id="Node000002" class="node">
<title>Node2</title>
<g id="a_Node000002"><a xlink:href="class_j_k_q_t_math_text_multi_child_node.html" target="_top" xlink:title="subclass representing a node in the syntax tree, that has two children">
<polygon fill="white" stroke="#666666" points="308.5,-86.5 120.5,-86.5 120.5,-65.5 308.5,-65.5 308.5,-86.5"/>
<text text-anchor="middle" x="214.5" y="-72.9" font-family="Helvetica,sans-Serif" font-size="12.00">JKQTMathTextMultiChildNode</text>
</a>
</g>
</g>
<!-- Node2&#45;&gt;Node1 -->
<g id="edge1_Node000001_Node000002" class="edge">
<title>Node2&#45;&gt;Node1</title>
<g id="a_edge1_Node000001_Node000002"><a xlink:title=" ">
<path fill="none" stroke="#63b8ff" d="M184.91,-61.28C158.73,-49.15 121.21,-31.76 98.15,-21.07"/>
<polygon fill="#63b8ff" stroke="#63b8ff" points="183.45,-64.46 193.99,-65.49 186.39,-58.11 183.45,-64.46"/>
</a>
</g>
</g>
<!-- Node3 -->
<g id="Node000003" class="node">
<title>Node3</title>
<g id="a_Node000003"><a xlink:href="class_j_k_q_t_math_text_node.html" target="_top" xlink:title="subclass representing one node in the syntax tree">
<polygon fill="white" stroke="#666666" points="275,-170 144,-170 144,-149 275,-149 275,-170"/>
<text text-anchor="middle" x="209.5" y="-156.4" font-family="Helvetica,sans-Serif" font-size="12.00">JKQTMathTextNode</text>
</a>
</g>
</g>
<!-- Node3&#45;&gt;Node1 -->
<g id="edge8_Node000001_Node000003" class="edge">
<title>Node3&#45;&gt;Node1</title>
<g id="a_edge8_Node000001_Node000003"><a xlink:title=" ">
<path fill="none" stroke="#9a32cd" stroke-dasharray="5,2" d="M133.62,-150.65C96.98,-142.61 56.16,-126.43 33.5,-94 24.34,-80.88 27.58,-72.87 33.5,-58 39.58,-42.72 53.34,-29.56 63.86,-21.19"/>
<polygon fill="#9a32cd" stroke="#9a32cd" points="133.32,-154.16 143.82,-152.71 134.71,-147.3 133.32,-154.16"/>
</a>
</g>
<text text-anchor="start" x="36.5" y="-81.4" font-family="Helvetica,sans-Serif" font-size="12.00" fill="grey">child</text>
<text text-anchor="start" x="36.5" y="-64.4" font-family="Helvetica,sans-Serif" font-size="12.00" fill="grey">childDegree</text>
</g>
<!-- Node3&#45;&gt;Node2 -->
<g id="edge2_Node000002_Node000003" class="edge">
<title>Node3&#45;&gt;Node2</title>
<g id="a_edge2_Node000002_Node000003"><a xlink:title=" ">
<path fill="none" stroke="#63b8ff" d="M207.08,-138.74C206.84,-136.14 206.64,-133.51 206.5,-131 206.04,-122.57 205.55,-120.39 206.5,-112 207.48,-103.33 209.78,-93.67 211.66,-86.71"/>
<polygon fill="#63b8ff" stroke="#63b8ff" points="203.62,-139.29 208.19,-148.85 210.58,-138.53 203.62,-139.29"/>
</a>
</g>
</g>
<!-- Node3&#45;&gt;Node3 -->
<g id="edge7_Node000003_Node000003" class="edge">
<title>Node3&#45;&gt;Node3</title>
<g id="a_edge7_Node000003_Node000003"><a xlink:title=" ">
<path fill="none" stroke="#9a32cd" stroke-dasharray="5,2" d="M285.52,-164.46C290.19,-163.29 293,-161.63 293,-159.5 293,-156.09 285.81,-153.9 275.31,-152.94"/>
<polygon fill="#9a32cd" stroke="#9a32cd" points="284.65,-161.06 275.31,-166.06 285.73,-167.97 284.65,-161.06"/>
</a>
</g>
<text text-anchor="start" x="296.5" y="-155.9" font-family="Helvetica,sans-Serif" font-size="12.00" fill="grey">parentNode</text>
</g>
<!-- Node4 -->
<g id="Node000004" class="node">
<title>Node4</title>
<g id="a_Node000004"><a xlink:href="class_j_k_q_t_math_text.html" target="_top" xlink:title="this class parses a mathematical markup string and can then draw the contained text/equation onto a Q...">
<polygon fill="white" stroke="#666666" points="470,-86.5 371,-86.5 371,-65.5 470,-65.5 470,-86.5"/>
<text text-anchor="middle" x="420.5" y="-72.9" font-family="Helvetica,sans-Serif" font-size="12.00">JKQTMathText</text>
</a>
</g>
</g>
<!-- Node3&#45;&gt;Node4 -->
<g id="edge5_Node000004_Node000003" class="edge">
<title>Node3&#45;&gt;Node4</title>
<g id="a_edge5_Node000004_Node000003"><a xlink:title=" ">
<path fill="none" stroke="#9a32cd" stroke-dasharray="5,2" d="M210.32,-138.63C211.76,-129.27 215.09,-118.72 222.5,-112 225.27,-109.49 313.19,-94.63 370.93,-85.1"/>
<polygon fill="#9a32cd" stroke="#9a32cd" points="206.82,-138.48 209.37,-148.77 213.79,-139.14 206.82,-138.48"/>
</a>
</g>
<text text-anchor="start" x="226" y="-117.9" font-family="Helvetica,sans-Serif" font-size="12.00" fill="grey">parsedNode</text>
</g>
<!-- Node4&#45;&gt;Node3 -->
<g id="edge3_Node000003_Node000004" class="edge">
<title>Node4&#45;&gt;Node3</title>
<g id="a_edge3_Node000003_Node000004"><a xlink:title=" ">
<path fill="none" stroke="#9a32cd" stroke-dasharray="5,2" d="M375.79,-89.77C359.64,-95.37 341.66,-102.79 326.5,-112 315.74,-118.54 316.5,-124.89 305.5,-131 291.25,-138.92 274.53,-144.73 259.06,-148.91"/>
<polygon fill="#9a32cd" stroke="#9a32cd" points="377.18,-92.99 385.57,-86.52 374.98,-86.35 377.18,-92.99"/>
</a>
</g>
<text text-anchor="start" x="329.5" y="-117.9" font-family="Helvetica,sans-Serif" font-size="12.00" fill="grey">parentMathText</text>
</g>
<!-- Node5 -->
<g id="Node000005" class="node">
<title>Node5</title>
<g id="a_Node000005"><a xlink:title=" ">
<polygon fill="white" stroke="#666666" points="475,-170 410,-170 410,-149 475,-149 475,-170"/>
<text text-anchor="middle" x="442.5" y="-156.4" font-family="Helvetica,sans-Serif" font-size="12.00">QObject</text>
</a>
</g>
</g>
<!-- Node5&#45;&gt;Node4 -->
<g id="edge4_Node000004_Node000005" class="edge">
<title>Node5&#45;&gt;Node4</title>
<g id="a_edge4_Node000004_Node000005"><a xlink:title=" ">
<path fill="none" stroke="#63b8ff" d="M437.26,-139.09C432.8,-122.56 426.58,-99.52 423.11,-86.66"/>
<polygon fill="#63b8ff" stroke="#63b8ff" points="433.9,-140.09 439.89,-148.83 440.66,-138.26 433.9,-140.09"/>
</a>
</g>
</g>
<!-- Node6 -->
<g id="Node000006" class="node">
<title>Node6</title>
<g id="a_Node000006"><a xlink:title=" ">
<polygon fill="white" stroke="#666666" points="573.5,-170 493.5,-170 493.5,-149 573.5,-149 573.5,-170"/>
<text text-anchor="middle" x="533.5" y="-156.4" font-family="Helvetica,sans-Serif" font-size="12.00">std::mutex</text>
</a>
</g>
</g>
<!-- Node6&#45;&gt;Node4 -->
<g id="edge6_Node000004_Node000006" class="edge">
<title>Node6&#45;&gt;Node4</title>
<g id="a_edge6_Node000004_Node000006"><a xlink:title=" ">
<path fill="none" stroke="#9a32cd" stroke-dasharray="5,2" d="M511.96,-142.96C488.94,-126.36 453.16,-100.56 433.89,-86.66"/>
<polygon fill="#9a32cd" stroke="#9a32cd" points="509.94,-145.82 520.09,-148.83 514.03,-140.14 509.94,-145.82"/>
</a>
</g>
<text text-anchor="start" x="498" y="-117.9" font-family="Helvetica,sans-Serif" font-size="12.00" fill="grey">s_mutex</text>
</g>
</g>
</svg>

<g id="navigator" transform="translate(0 0)" fill="#404254">
  <rect fill="#f2f5e9" fill-opacity="0.5" stroke="#606060" stroke-width=".5" x="0" y="0" width="60" height="60"/>
  <use id="zoomplus" xlink:href="#zoomPlus" x="17" y="9" onmousedown="handleZoom(evt,'in')"/>
  <use id="zoomminus" xlink:href="#zoomMin" x="42" y="9" onmousedown="handleZoom(evt,'out')"/>
  <use id="reset" xlink:href="#resetDef" x="30" y="36" onmousedown="handleReset()"/>
   <use id="arrowup" xlink:href="#arrowUp" x="0" y="0" onmousedown="handlePan(0,-1)"/>
  <use id="arrowright" xlink:href="#arrowRight" x="0" y="0" onmousedown="handlePan(1,0)"/>
  <use id="arrowdown" xlink:href="#arrowDown" x="0" y="0" onmousedown="handlePan(0,1)"/>
  <use id="arrowleft" xlink:href="#arrowLeft" x="0" y="0" onmousedown="handlePan(-1,0)"/>
</g>
<svg viewBox="0 0 15 15" width="100%" height="30px" preserveAspectRatio="xMaxYMin meet">
 <g id="arrow_out" transform="scale(0.3 0.3)">
  <a xlink:href="class_j_k_q_t_math_text_sqrt_node__coll__graph_org.svg" target="_base">
   <rect id="button" ry="5" rx="5" y="6" x="6" height="38" width="38"
        fill="#f2f5e9" fill-opacity="0.5" stroke="#606060" stroke-width="1.0"/>
   <path id="arrow"
     d="M 11.500037,31.436501 C 11.940474,20.09759 22.043105,11.32322 32.158766,21.979434 L 37.068811,17.246167 C 37.068811,17.246167 37.088388,32 37.088388,32 L 22.160133,31.978069 C 22.160133,31.978069 26.997745,27.140456 26.997745,27.140456 C 18.528582,18.264221 13.291696,25.230495 11.500037,31.436501 z"
     style="fill:#404040;"/>
  </a>
 </g>
</svg>

<style type='text/css'>
<![CDATA[
[data-mouse-over-selected='false'] { opacity: 0.7; }
[data-mouse-over-selected='true']  { opacity: 1.0; }
]]>
</style>
<script type="application/ecmascript"><![CDATA[
document.addEventListener('DOMContentLoaded', (event) => {
  highlightEdges();
  highlightAdjacentNodes();
});
]]></script>
</svg>
