<?xml version="1.0" encoding="UTF-8" standalone="no"?>
<!DOCTYPE svg PUBLIC "-//W3C//DTD SVG 1.1//EN"
 "http://www.w3.org/Graphics/SVG/1.1/DTD/svg11.dtd">
<!-- Generated by graphviz version 2.43.0 (0)
 -->
<!-- Title: JKQTMathTextHorizontalListNode Pages: 1 -->
<svg width="546pt" height="176pt"
 viewBox="0.00 0.00 546.00 176.00" xmlns="http://www.w3.org/2000/svg" xmlns:xlink="http://www.w3.org/1999/xlink">
<g id="graph0" class="graph" transform="scale(1 1) rotate(0) translate(4 172)">
<title>JKQTMathTextHorizontalListNode</title>
<!-- Node1 -->
<g id="Node000001" class="node">
<title>Node1</title>
<g id="a_Node000001"><a xlink:title="subclass representing a list of nodes in the syntax tree, layed out horizontally">
<polygon fill="#999999" stroke="#666666" points="368,-21 156,-21 156,0 368,0 368,-21"/>
<text text-anchor="middle" x="262" y="-7.4" font-family="Helvetica,sans-Serif" font-size="12.00">JKQTMathTextHorizontalListNode</text>
</a>
</g>
</g>
<!-- Node2 -->
<g id="Node000002" class="node">
<title>Node2</title>
<g id="a_Node000002"><a xlink:href="class_j_k_q_t_math_text_multi_child_node.html" target="_top" xlink:title="subclass representing a node in the syntax tree, that has two children">
<polygon fill="white" stroke="#666666" points="188,-85.5 0,-85.5 0,-64.5 188,-64.5 188,-85.5"/>
<text text-anchor="middle" x="94" y="-71.9" font-family="Helvetica,sans-Serif" font-size="12.00">JKQTMathTextMultiChildNode</text>
</a>
</g>
</g>
<!-- Node2&#45;&gt;Node1 -->
<g id="edge1_Node000001_Node000002" class="edge">
<title>Node2&#45;&gt;Node1</title>
<g id="a_edge1_Node000001_Node000002"><a xlink:title=" ">
<path fill="none" stroke="#63b8ff" d="M129.32,-60.86C161.34,-48.95 207.77,-31.67 236.36,-21.04"/>
<polygon fill="#63b8ff" stroke="#63b8ff" points="128.03,-57.6 119.88,-64.37 130.47,-64.16 128.03,-57.6"/>
</a>
</g>
</g>
<!-- Node3 -->
<g id="Node000003" class="node">
<title>Node3</title>
<g id="a_Node000003"><a xlink:href="class_j_k_q_t_math_text_node.html" target="_top" xlink:title="subclass representing one node in the syntax tree">
<polygon fill="white" stroke="#666666" points="192.5,-168 61.5,-168 61.5,-147 192.5,-147 192.5,-168"/>
<text text-anchor="middle" x="127" y="-154.4" font-family="Helvetica,sans-Serif" font-size="12.00">JKQTMathTextNode</text>
</a>
</g>
</g>
<!-- Node3&#45;&gt;Node2 -->
<g id="edge2_Node000002_Node000003" class="edge">
<title>Node3&#45;&gt;Node2</title>
<g id="a_edge2_Node000002_Node000003"><a xlink:title=" ">
<path fill="none" stroke="#63b8ff" d="M113.2,-138.39C111.27,-135.35 109.46,-132.16 108,-129 101.39,-114.65 97.47,-96.62 95.52,-85.72"/>
<polygon fill="#63b8ff" stroke="#63b8ff" points="110.49,-140.61 119.08,-146.82 116.23,-136.61 110.49,-140.61"/>
</a>
</g>
</g>
<!-- Node3&#45;&gt;Node3 -->
<g id="edge7_Node000003_Node000003" class="edge">
<title>Node3&#45;&gt;Node3</title>
<g id="a_edge7_Node000003_Node000003"><a xlink:title=" ">
<path fill="none" stroke="#9a32cd" stroke-dasharray="5,2" d="M203.02,-162.46C207.69,-161.29 210.5,-159.63 210.5,-157.5 210.5,-154.09 203.31,-151.9 192.81,-150.94"/>
<polygon fill="#9a32cd" stroke="#9a32cd" points="202.15,-159.06 192.81,-164.06 203.23,-165.97 202.15,-159.06"/>
</a>
</g>
<text text-anchor="start" x="214" y="-153.9" font-family="Helvetica,sans-Serif" font-size="12.00" fill="grey">parentNode</text>
</g>
<!-- Node4 -->
<g id="Node000004" class="node">
<title>Node4</title>
<g id="a_Node000004"><a xlink:href="class_j_k_q_t_math_text.html" target="_top" xlink:title="this class parses a mathematical markup string and can then draw the contained text/equation onto a Q...">
<polygon fill="white" stroke="#666666" points="305.5,-85.5 206.5,-85.5 206.5,-64.5 305.5,-64.5 305.5,-85.5"/>
<text text-anchor="middle" x="256" y="-71.9" font-family="Helvetica,sans-Serif" font-size="12.00">JKQTMathText</text>
</a>
</g>
</g>
<!-- Node3&#45;&gt;Node4 -->
<g id="edge5_Node000004_Node000003" class="edge">
<title>Node3&#45;&gt;Node4</title>
<g id="a_edge5_Node000004_Node000003"><a xlink:title=" ">
<path fill="none" stroke="#9a32cd" stroke-dasharray="5,2" d="M120.19,-137.05C118.29,-127.96 118.12,-117.51 124,-110 144.61,-83.69 164.65,-100.37 197,-92 204.91,-89.95 213.4,-87.69 221.41,-85.52"/>
<polygon fill="#9a32cd" stroke="#9a32cd" points="116.87,-138.17 122.95,-146.85 123.6,-136.27 116.87,-138.17"/>
</a>
</g>
<text text-anchor="start" x="127.5" y="-115.9" font-family="Helvetica,sans-Serif" font-size="12.00" fill="grey">parsedNode</text>
</g>
<!-- Node4&#45;&gt;Node3 -->
<g id="edge3_Node000003_Node000004" class="edge">
<title>Node4&#45;&gt;Node3</title>
<g id="a_edge3_Node000003_Node000004"><a xlink:title=" ">
<path fill="none" stroke="#9a32cd" stroke-dasharray="5,2" d="M240.32,-93.81C227.55,-108.17 210.99,-126.4 207,-129 194.94,-136.86 180.39,-142.73 167.03,-146.99"/>
<polygon fill="#9a32cd" stroke="#9a32cd" points="243.27,-95.75 247.28,-85.94 238.03,-91.11 243.27,-95.75"/>
</a>
</g>
<text text-anchor="start" x="228" y="-115.9" font-family="Helvetica,sans-Serif" font-size="12.00" fill="grey">parentMathText</text>
</g>
<!-- Node5 -->
<g id="Node000005" class="node">
<title>Node5</title>
<g id="a_Node000005"><a xlink:title=" ">
<polygon fill="white" stroke="#666666" points="376.5,-168 311.5,-168 311.5,-147 376.5,-147 376.5,-168"/>
<text text-anchor="middle" x="344" y="-154.4" font-family="Helvetica,sans-Serif" font-size="12.00">QObject</text>
</a>
</g>
</g>
<!-- Node5&#45;&gt;Node4 -->
<g id="edge4_Node000004_Node000005" class="edge">
<title>Node5&#45;&gt;Node4</title>
<g id="a_edge4_Node000004_Node000005"><a xlink:title=" ">
<path fill="none" stroke="#63b8ff" d="M341.81,-136.75C339.93,-127.72 336.45,-117.41 330,-110 320.07,-98.59 305.51,-90.78 291.93,-85.55"/>
<polygon fill="#63b8ff" stroke="#63b8ff" points="338.38,-137.5 343.39,-146.84 345.3,-136.42 338.38,-137.5"/>
</a>
</g>
</g>
<!-- Node6 -->
<g id="Node000006" class="node">
<title>Node6</title>
<g id="a_Node000006"><a xlink:title=" ">
<polygon fill="white" stroke="#666666" points="475,-168 395,-168 395,-147 475,-147 475,-168"/>
<text text-anchor="middle" x="435" y="-154.4" font-family="Helvetica,sans-Serif" font-size="12.00">std::mutex</text>
</a>
</g>
</g>
<!-- Node6&#45;&gt;Node4 -->
<g id="edge6_Node000004_Node000006" class="edge">
<title>Node6&#45;&gt;Node4</title>
<g id="a_edge6_Node000004_Node000006"><a xlink:title=" ">
<path fill="none" stroke="#9a32cd" stroke-dasharray="5,2" d="M410.16,-141.82C393.24,-132.14 370.15,-119.53 349,-110 328.15,-100.61 303.86,-91.8 285.34,-85.5"/>
<polygon fill="#9a32cd" stroke="#9a32cd" points="408.46,-144.88 418.87,-146.86 411.97,-138.83 408.46,-144.88"/>
</a>
</g>
<text text-anchor="start" x="389.5" y="-115.9" font-family="Helvetica,sans-Serif" font-size="12.00" fill="grey">s_mutex</text>
</g>
<!-- Node7 -->
<g id="Node000007" class="node">
<title>Node7</title>
<g id="a_Node000007"><a xlink:href="class_j_k_q_t_math_text_modify_environment_node_mix_in.html" target="_top" xlink:title="mixin extending a node that does not produce any output, but provides a function modifyEnvironment() ...">
<polygon fill="white" stroke="#666666" points="538,-92 324,-92 324,-58 538,-58 538,-92"/>
<text text-anchor="start" x="332" y="-78.4" font-family="Helvetica,sans-Serif" font-size="12.00">JKQTMathTextModifyEnvironment</text>
<text text-anchor="middle" x="431" y="-65.4" font-family="Helvetica,sans-Serif" font-size="12.00">NodeMixIn</text>
</a>
</g>
</g>
<!-- Node7&#45;&gt;Node1 -->
<g id="edge8_Node000001_Node000007" class="edge">
<title>Node7&#45;&gt;Node1</title>
<g id="a_edge8_Node000001_Node000007"><a xlink:title=" ">
<path fill="none" stroke="#63b8ff" d="M377.99,-54.4C348.02,-43.31 311.89,-29.95 288,-21.12"/>
<polygon fill="#63b8ff" stroke="#63b8ff" points="376.89,-57.72 387.48,-57.9 379.31,-51.15 376.89,-57.72"/>
</a>
</g>
</g>
</g>
</svg>
