<?xml version="1.0" encoding="UTF-8" standalone="no"?>
<!DOCTYPE svg PUBLIC "-//W3C//DTD SVG 1.1//EN"
 "http://www.w3.org/Graphics/SVG/1.1/DTD/svg11.dtd">
<!-- Generated by graphviz version 2.43.0 (0)
 -->
<!-- Title: JKQTPFilledCurveYErrorGraph Pages: 1 -->
<svg width="641pt" height="441pt"
 viewBox="0.00 0.00 641.00 441.00" xmlns="http://www.w3.org/2000/svg" xmlns:xlink="http://www.w3.org/1999/xlink">
<g id="graph0" class="graph" transform="scale(1 1) rotate(0) translate(4 437)">
<title>JKQTPFilledCurveYErrorGraph</title>
<!-- Node1 -->
<g id="Node000001" class="node">
<title>Node1</title>
<g id="a_Node000001"><a xlink:title="This implements filled curve plots with y errors where the area is filled between the plot line and t...">
<polygon fill="#999999" stroke="#666666" points="360,-21 169,-21 169,0 360,0 360,-21"/>
<text text-anchor="middle" x="264.5" y="-7.4" font-family="Helvetica,sans-Serif" font-size="12.00">JKQTPFilledCurveYErrorGraph</text>
</a>
</g>
</g>
<!-- Node2 -->
<g id="Node000002" class="node">
<title>Node2</title>
<g id="a_Node000002"><a xlink:href="class_j_k_q_t_p_filled_curve_y_graph.html" target="_top" xlink:title="This implements filled curve plots where the area is filled between the plot line and y&#45;Axis.">
<polygon fill="white" stroke="#666666" points="262.5,-78 100.5,-78 100.5,-57 262.5,-57 262.5,-78"/>
<text text-anchor="middle" x="181.5" y="-64.4" font-family="Helvetica,sans-Serif" font-size="12.00">JKQTPFilledCurveYGraph</text>
</a>
</g>
</g>
<!-- Node2&#45;&gt;Node1 -->
<g id="edge1_Node000001_Node000002" class="edge">
<title>Node2&#45;&gt;Node1</title>
<g id="a_edge1_Node000001_Node000002"><a xlink:title=" ">
<path fill="none" stroke="#63b8ff" d="M204.43,-51.3C218.98,-41.67 237.36,-29.49 249.93,-21.16"/>
<polygon fill="#63b8ff" stroke="#63b8ff" points="202.36,-48.48 195.96,-56.92 206.23,-54.31 202.36,-48.48"/>
</a>
</g>
</g>
<!-- Node3 -->
<g id="Node000003" class="node">
<title>Node3</title>
<g id="a_Node000003"><a xlink:href="class_j_k_q_t_p_filled_curve_graph_base.html" target="_top" xlink:title="a Base class for filled curve graphs like e.g. JKQTPFilledCurveXGraph">
<polygon fill="white" stroke="#666666" points="262.5,-135 78.5,-135 78.5,-114 262.5,-114 262.5,-135"/>
<text text-anchor="middle" x="170.5" y="-121.4" font-family="Helvetica,sans-Serif" font-size="12.00">JKQTPFilledCurveGraphBase</text>
</a>
</g>
</g>
<!-- Node3&#45;&gt;Node2 -->
<g id="edge2_Node000002_Node000003" class="edge">
<title>Node3&#45;&gt;Node2</title>
<g id="a_edge2_Node000002_Node000003"><a xlink:title=" ">
<path fill="none" stroke="#63b8ff" d="M174.43,-103.86C176.16,-95.2 178.12,-85.42 179.53,-78.34"/>
<polygon fill="#63b8ff" stroke="#63b8ff" points="170.95,-103.43 172.42,-113.92 177.81,-104.8 170.95,-103.43"/>
</a>
</g>
</g>
<!-- Node4 -->
<g id="Node000004" class="node">
<title>Node4</title>
<g id="a_Node000004"><a xlink:href="class_j_k_q_t_p_x_y_baseline_graph.html" target="_top" xlink:title="This virtual JKQTPGraph descendent extends JKQTPXYGraph adds a baseline&#45;property, which is necessary,...">
<polygon fill="white" stroke="#666666" points="155,-198.5 0,-198.5 0,-177.5 155,-177.5 155,-198.5"/>
<text text-anchor="middle" x="77.5" y="-184.9" font-family="Helvetica,sans-Serif" font-size="12.00">JKQTPXYBaselineGraph</text>
</a>
</g>
</g>
<!-- Node4&#45;&gt;Node3 -->
<g id="edge3_Node000003_Node000004" class="edge">
<title>Node4&#45;&gt;Node3</title>
<g id="a_edge3_Node000003_Node000004"><a xlink:title=" ">
<path fill="none" stroke="#63b8ff" d="M100.51,-171.79C117.9,-160.29 141.23,-144.85 156.07,-135.04"/>
<polygon fill="#63b8ff" stroke="#63b8ff" points="98.44,-168.96 92.03,-177.39 102.3,-174.79 98.44,-168.96"/>
</a>
</g>
</g>
<!-- Node5 -->
<g id="Node000005" class="node">
<title>Node5</title>
<g id="a_Node000005"><a xlink:href="class_j_k_q_t_p_x_y_graph.html" target="_top" xlink:title="This virtual JKQTPGraph descendent may be used as base for all graphs that use at least two columns t...">
<polygon fill="white" stroke="#666666" points="130,-262 25,-262 25,-241 130,-241 130,-262"/>
<text text-anchor="middle" x="77.5" y="-248.4" font-family="Helvetica,sans-Serif" font-size="12.00">JKQTPXYGraph</text>
</a>
</g>
</g>
<!-- Node5&#45;&gt;Node4 -->
<g id="edge4_Node000004_Node000005" class="edge">
<title>Node5&#45;&gt;Node4</title>
<g id="a_edge4_Node000004_Node000005"><a xlink:title=" ">
<path fill="none" stroke="#63b8ff" d="M77.5,-230.75C77.5,-220.05 77.5,-207.31 77.5,-198.74"/>
<polygon fill="#63b8ff" stroke="#63b8ff" points="74,-230.89 77.5,-240.89 81,-230.89 74,-230.89"/>
</a>
</g>
</g>
<!-- Node6 -->
<g id="Node000006" class="node">
<title>Node6</title>
<g id="a_Node000006"><a xlink:href="class_j_k_q_t_p_graph.html" target="_top" xlink:title="this virtual base class of the (data&#45;column based) graphs, which are part of a JKQTPlotter plot and w...">
<polygon fill="white" stroke="#666666" points="122,-319 33,-319 33,-298 122,-298 122,-319"/>
<text text-anchor="middle" x="77.5" y="-305.4" font-family="Helvetica,sans-Serif" font-size="12.00">JKQTPGraph</text>
</a>
</g>
</g>
<!-- Node6&#45;&gt;Node5 -->
<g id="edge5_Node000005_Node000006" class="edge">
<title>Node6&#45;&gt;Node5</title>
<g id="a_edge5_Node000005_Node000006"><a xlink:title=" ">
<path fill="none" stroke="#63b8ff" d="M77.5,-287.86C77.5,-279.2 77.5,-269.42 77.5,-262.34"/>
<polygon fill="#63b8ff" stroke="#63b8ff" points="74,-287.92 77.5,-297.92 81,-287.92 74,-287.92"/>
</a>
</g>
</g>
<!-- Node7 -->
<g id="Node000007" class="node">
<title>Node7</title>
<g id="a_Node000007"><a xlink:href="class_j_k_q_t_p_plot_element.html" target="_top" xlink:title="this virtual base class of every element, which is part of a JKQTPlotter plot and may appear in its k...">
<polygon fill="white" stroke="#666666" points="140,-376 15,-376 15,-355 140,-355 140,-376"/>
<text text-anchor="middle" x="77.5" y="-362.4" font-family="Helvetica,sans-Serif" font-size="12.00">JKQTPPlotElement</text>
</a>
</g>
</g>
<!-- Node7&#45;&gt;Node6 -->
<g id="edge6_Node000006_Node000007" class="edge">
<title>Node7&#45;&gt;Node6</title>
<g id="a_edge6_Node000006_Node000007"><a xlink:title=" ">
<path fill="none" stroke="#63b8ff" d="M77.5,-344.86C77.5,-336.2 77.5,-326.42 77.5,-319.34"/>
<polygon fill="#63b8ff" stroke="#63b8ff" points="74,-344.92 77.5,-354.92 81,-344.92 74,-344.92"/>
</a>
</g>
</g>
<!-- Node8 -->
<g id="Node000008" class="node">
<title>Node8</title>
<g id="a_Node000008"><a xlink:title=" ">
<polygon fill="white" stroke="#666666" points="110,-433 45,-433 45,-412 110,-412 110,-433"/>
<text text-anchor="middle" x="77.5" y="-419.4" font-family="Helvetica,sans-Serif" font-size="12.00">QObject</text>
</a>
</g>
</g>
<!-- Node8&#45;&gt;Node7 -->
<g id="edge7_Node000007_Node000008" class="edge">
<title>Node8&#45;&gt;Node7</title>
<g id="a_edge7_Node000007_Node000008"><a xlink:title=" ">
<path fill="none" stroke="#63b8ff" d="M77.5,-401.86C77.5,-393.2 77.5,-383.42 77.5,-376.34"/>
<polygon fill="#63b8ff" stroke="#63b8ff" points="74,-401.92 77.5,-411.92 81,-401.92 74,-401.92"/>
</a>
</g>
</g>
<!-- Node9 -->
<g id="Node000009" class="node">
<title>Node9</title>
<g id="a_Node000009"><a xlink:href="class_j_k_q_t_p_graph_line_and_fill_style_mixin.html" target="_top" xlink:title="This Mix&#45;In class provides setter/getter methods, storage and other facilities for the graph line and...">
<polygon fill="white" stroke="#666666" points="355.5,-205 173.5,-205 173.5,-171 355.5,-171 355.5,-205"/>
<text text-anchor="start" x="181.5" y="-191.4" font-family="Helvetica,sans-Serif" font-size="12.00">JKQTPGraphLineAndFillStyle</text>
<text text-anchor="middle" x="264.5" y="-178.4" font-family="Helvetica,sans-Serif" font-size="12.00">Mixin</text>
</a>
</g>
</g>
<!-- Node9&#45;&gt;Node3 -->
<g id="edge8_Node000003_Node000009" class="edge">
<title>Node9&#45;&gt;Node3</title>
<g id="a_edge8_Node000003_Node000009"><a xlink:title=" ">
<path fill="none" stroke="#63b8ff" d="M231.31,-165.28C215.49,-154.94 197.4,-143.1 185.08,-135.04"/>
<polygon fill="#63b8ff" stroke="#63b8ff" points="229.52,-168.3 239.8,-170.84 233.35,-162.44 229.52,-168.3"/>
</a>
</g>
</g>
<!-- Node10 -->
<g id="Node000010" class="node">
<title>Node10</title>
<g id="a_Node000010"><a xlink:href="class_j_k_q_t_p_graph_fill_style_mixin.html" target="_top" xlink:title="This Mix&#45;In class provides setter/getter methods, storage and other facilities for the graph filling ...">
<polygon fill="white" stroke="#666666" points="329.5,-262 165.5,-262 165.5,-241 329.5,-241 329.5,-262"/>
<text text-anchor="middle" x="247.5" y="-248.4" font-family="Helvetica,sans-Serif" font-size="12.00">JKQTPGraphFillStyleMixin</text>
</a>
</g>
</g>
<!-- Node10&#45;&gt;Node9 -->
<g id="edge9_Node000009_Node000010" class="edge">
<title>Node10&#45;&gt;Node9</title>
<g id="a_edge9_Node000009_Node000010"><a xlink:title=" ">
<path fill="none" stroke="#63b8ff" d="M252.88,-231.04C255.15,-222.82 257.77,-213.35 259.94,-205.48"/>
<polygon fill="#63b8ff" stroke="#63b8ff" points="249.45,-230.32 250.16,-240.89 256.19,-232.18 249.45,-230.32"/>
</a>
</g>
</g>
<!-- Node11 -->
<g id="Node000011" class="node">
<title>Node11</title>
<g id="a_Node000011"><a xlink:href="class_j_k_q_t_p_graph_line_style_mixin.html" target="_top" xlink:title="This Mix&#45;In class provides setter/getter methods, storage and other facilities for the graph line sty...">
<polygon fill="white" stroke="#666666" points="521.5,-262 347.5,-262 347.5,-241 521.5,-241 521.5,-262"/>
<text text-anchor="middle" x="434.5" y="-248.4" font-family="Helvetica,sans-Serif" font-size="12.00">JKQTPGraphLineStyleMixin</text>
</a>
</g>
</g>
<!-- Node11&#45;&gt;Node9 -->
<g id="edge10_Node000009_Node000011" class="edge">
<title>Node11&#45;&gt;Node9</title>
<g id="a_edge10_Node000009_Node000011"><a xlink:title=" ">
<path fill="none" stroke="#63b8ff" d="M398.43,-237.45C372.34,-228.01 336.92,-215.2 309.05,-205.12"/>
<polygon fill="#63b8ff" stroke="#63b8ff" points="397.34,-240.78 407.94,-240.89 399.72,-234.2 397.34,-240.78"/>
</a>
</g>
</g>
<!-- Node12 -->
<g id="Node000012" class="node">
<title>Node12</title>
<g id="a_Node000012"><a xlink:href="class_j_k_q_t_p_x_graph_errors.html" target="_top" xlink:title="This class is the base class for graphs that only display error indicators in x&#45;direction.">
<polygon fill="white" stroke="#666666" points="425,-78 292,-78 292,-57 425,-57 425,-78"/>
<text text-anchor="middle" x="358.5" y="-64.4" font-family="Helvetica,sans-Serif" font-size="12.00">JKQTPXGraphErrors</text>
</a>
</g>
</g>
<!-- Node12&#45;&gt;Node1 -->
<g id="edge11_Node000001_Node000012" class="edge">
<title>Node12&#45;&gt;Node1</title>
<g id="a_edge11_Node000001_Node000012"><a xlink:title=" ">
<path fill="none" stroke="#63b8ff" d="M333.46,-51.85C316.84,-42.13 295.51,-29.64 281,-21.16"/>
<polygon fill="#63b8ff" stroke="#63b8ff" points="331.73,-54.89 342.13,-56.92 335.26,-48.85 331.73,-54.89"/>
</a>
</g>
</g>
<!-- Node13 -->
<g id="Node000013" class="node">
<title>Node13</title>
<g id="a_Node000013"><a xlink:href="class_j_k_q_t_p_x_graph_error_data.html" target="_top" xlink:title="This class adds data fields for error indicators in x direction.">
<polygon fill="white" stroke="#666666" points="436,-135 281,-135 281,-114 436,-114 436,-135"/>
<text text-anchor="middle" x="358.5" y="-121.4" font-family="Helvetica,sans-Serif" font-size="12.00">JKQTPXGraphErrorData</text>
</a>
</g>
</g>
<!-- Node13&#45;&gt;Node12 -->
<g id="edge12_Node000012_Node000013" class="edge">
<title>Node13&#45;&gt;Node12</title>
<g id="a_edge12_Node000012_Node000013"><a xlink:title=" ">
<path fill="none" stroke="#63b8ff" d="M358.5,-103.86C358.5,-95.2 358.5,-85.42 358.5,-78.34"/>
<polygon fill="#63b8ff" stroke="#63b8ff" points="355,-103.92 358.5,-113.92 362,-103.92 355,-103.92"/>
</a>
</g>
</g>
<!-- Node14 -->
<g id="Node000014" class="node">
<title>Node14</title>
<g id="a_Node000014"><a xlink:href="class_j_k_q_t_p_graph_error_style_mixin.html" target="_top" xlink:title="This mix&#45;in class assembles all styling properties applicable to error indicators.">
<polygon fill="white" stroke="#666666" points="633,-135 454,-135 454,-114 633,-114 633,-135"/>
<text text-anchor="middle" x="543.5" y="-121.4" font-family="Helvetica,sans-Serif" font-size="12.00">JKQTPGraphErrorStyleMixin</text>
</a>
</g>
</g>
<!-- Node14&#45;&gt;Node12 -->
<g id="edge13_Node000012_Node000014" class="edge">
<title>Node14&#45;&gt;Node12</title>
<g id="a_edge13_Node000012_Node000014"><a xlink:title=" ">
<path fill="none" stroke="#63b8ff" d="M501.28,-110.95C467.67,-100.96 421.32,-87.18 390.67,-78.06"/>
<polygon fill="#63b8ff" stroke="#63b8ff" points="500.69,-114.42 511.28,-113.92 502.69,-107.72 500.69,-114.42"/>
</a>
</g>
</g>
</g>
</svg>
