<?xml version="1.0" encoding="UTF-8" standalone="no"?>
<!DOCTYPE svg PUBLIC "-//W3C//DTD SVG 1.1//EN"
 "http://www.w3.org/Graphics/SVG/1.1/DTD/svg11.dtd">
<!-- Generated by graphviz version 2.43.0 (0)
 -->
<!-- Title: JKQTGraphsBaseStyle Pages: 1 -->
<svg width="1642pt" height="329pt"
 viewBox="0.00 0.00 1642.00 329.00" xmlns="http://www.w3.org/2000/svg" xmlns:xlink="http://www.w3.org/1999/xlink">
<g id="graph0" class="graph" transform="scale(1 1) rotate(0) translate(4 325)">
<title>JKQTGraphsBaseStyle</title>
<!-- Node1 -->
<g id="Node000001" class="node">
<title>Node1</title>
<g id="a_Node000001"><a xlink:title="Support Class for JKQTBasePlotter, which summarizes all properties that define the visual styling of ...">
<polygon fill="#999999" stroke="#666666" points="1634,-156.5 1488,-156.5 1488,-135.5 1634,-135.5 1634,-156.5"/>
<text text-anchor="middle" x="1561" y="-142.9" font-family="Helvetica,sans-Serif" font-size="12.00">JKQTGraphsBaseStyle</text>
</a>
</g>
</g>
<!-- Node2 -->
<g id="Node000002" class="node">
<title>Node2</title>
<g id="a_Node000002"><a xlink:href="class_j_k_q_t_graphs_specific_style_properties.html" target="_top" xlink:title="Support Class for JKQTBasePlotter, which summarizes all properties that define the visual styling of ...">
<polygon fill="white" stroke="#666666" points="629,-174.5 405,-174.5 405,-153.5 629,-153.5 629,-174.5"/>
<text text-anchor="middle" x="517" y="-160.9" font-family="Helvetica,sans-Serif" font-size="12.00">JKQTGraphsSpecificStyleProperties</text>
</a>
</g>
</g>
<!-- Node2&#45;&gt;Node1 -->
<g id="edge1_Node000001_Node000002" class="edge">
<title>Node2&#45;&gt;Node1</title>
<g id="a_edge1_Node000001_Node000002"><a xlink:title=" ">
<path fill="none" stroke="#9a32cd" stroke-dasharray="5,2" d="M560.99,-177.48C585.91,-184.92 618.01,-193.87 647,-200 953.94,-264.88 1044.75,-298.37 1352,-235 1426.44,-219.65 1507.18,-176.66 1542.17,-156.58"/>
<polygon fill="#9a32cd" stroke="#9a32cd" points="561.71,-174.04 551.12,-174.5 559.68,-180.74 561.71,-174.04"/>
</a>
</g>
<text text-anchor="start" x="1002.5" y="-307.9" font-family="Helvetica,sans-Serif" font-size="12.00" fill="grey">boxplotStyle</text>
<text text-anchor="start" x="1002.5" y="-290.9" font-family="Helvetica,sans-Serif" font-size="12.00" fill="grey">defaultGraphStyle</text>
<text text-anchor="start" x="1002.5" y="-273.9" font-family="Helvetica,sans-Serif" font-size="12.00" fill="grey">filledStyle</text>
</g>
<!-- Node4 -->
<g id="Node000004" class="node">
<title>Node4</title>
<g id="a_Node000004"><a xlink:href="class_j_k_q_t_barchart_specific_style_properties.html" target="_top" xlink:title="Support Class for JKQTBasePlotter, which summarizes all properties that define the visual styling of ...">
<polygon fill="white" stroke="#666666" points="1143,-238 970,-238 970,-204 1143,-204 1143,-238"/>
<text text-anchor="start" x="978" y="-224.4" font-family="Helvetica,sans-Serif" font-size="12.00">JKQTBarchartSpecificStyle</text>
<text text-anchor="middle" x="1056.5" y="-211.4" font-family="Helvetica,sans-Serif" font-size="12.00">Properties</text>
</a>
</g>
</g>
<!-- Node2&#45;&gt;Node4 -->
<g id="edge4_Node000004_Node000002" class="edge">
<title>Node2&#45;&gt;Node4</title>
<g id="a_edge4_Node000004_Node000002"><a xlink:title=" ">
<path fill="none" stroke="#63b8ff" d="M604.86,-175.85C618.94,-177.65 633.37,-179.43 647,-181 758.32,-193.78 887.02,-205.95 969.74,-213.44"/>
<polygon fill="#63b8ff" stroke="#63b8ff" points="605.05,-172.35 594.69,-174.53 604.16,-179.29 605.05,-172.35"/>
</a>
</g>
</g>
<!-- Node5 -->
<g id="Node000005" class="node">
<title>Node5</title>
<g id="a_Node000005"><a xlink:href="class_j_k_q_t_impulse_specific_style_properties.html" target="_top" xlink:title="Support Class for JKQTBasePlotter, which summarizes all properties that define the visual styling of ...">
<polygon fill="white" stroke="#666666" points="1140.5,-192 972.5,-192 972.5,-158 1140.5,-158 1140.5,-192"/>
<text text-anchor="start" x="980.5" y="-178.4" font-family="Helvetica,sans-Serif" font-size="12.00">JKQTImpulseSpecificStyle</text>
<text text-anchor="middle" x="1056.5" y="-165.4" font-family="Helvetica,sans-Serif" font-size="12.00">Properties</text>
</a>
</g>
</g>
<!-- Node2&#45;&gt;Node5 -->
<g id="edge6_Node000005_Node000002" class="edge">
<title>Node2&#45;&gt;Node5</title>
<g id="a_edge6_Node000005_Node000002"><a xlink:title=" ">
<path fill="none" stroke="#63b8ff" d="M639.05,-166.48C740.65,-168.56 883.09,-171.47 972.28,-173.3"/>
<polygon fill="#63b8ff" stroke="#63b8ff" points="639.11,-162.98 629.04,-166.27 638.97,-169.98 639.11,-162.98"/>
</a>
</g>
</g>
<!-- Node6 -->
<g id="Node000006" class="node">
<title>Node6</title>
<g id="a_Node000006"><a xlink:href="class_j_k_q_t_geometric_specific_style_properties.html" target="_top" xlink:title="Support Class for JKQTBasePlotter, which summarizes all properties that define the visual styling of ...">
<polygon fill="white" stroke="#666666" points="952,-123 768,-123 768,-89 952,-89 952,-123"/>
<text text-anchor="start" x="776" y="-109.4" font-family="Helvetica,sans-Serif" font-size="12.00">JKQTGeometricSpecificStyle</text>
<text text-anchor="middle" x="860" y="-96.4" font-family="Helvetica,sans-Serif" font-size="12.00">Properties</text>
</a>
</g>
</g>
<!-- Node2&#45;&gt;Node6 -->
<g id="edge8_Node000006_Node000002" class="edge">
<title>Node2&#45;&gt;Node6</title>
<g id="a_edge8_Node000006_Node000002"><a xlink:title=" ">
<path fill="none" stroke="#63b8ff" d="M639.26,-154.43C675.12,-150.52 714.32,-145.18 750,-138 769.04,-134.17 789.57,-128.55 807.62,-123.08"/>
<polygon fill="#63b8ff" stroke="#63b8ff" points="638.82,-150.96 629.24,-155.5 639.56,-157.92 638.82,-150.96"/>
</a>
</g>
</g>
<!-- Node9 -->
<g id="Node000009" class="node">
<title>Node9</title>
<g id="a_Node000009"><a xlink:href="class_j_k_q_t_financial_specific_style_properties.html" target="_top" xlink:title="Support Class for JKQTBasePlotter, which summarizes all properties that define the visual styling of ...">
<polygon fill="white" stroke="#666666" points="946.5,-34 773.5,-34 773.5,0 946.5,0 946.5,-34"/>
<text text-anchor="start" x="781.5" y="-20.4" font-family="Helvetica,sans-Serif" font-size="12.00">JKQTFinancialSpecificStyle</text>
<text text-anchor="middle" x="860" y="-7.4" font-family="Helvetica,sans-Serif" font-size="12.00">Properties</text>
</a>
</g>
</g>
<!-- Node2&#45;&gt;Node9 -->
<g id="edge13_Node000009_Node000002" class="edge">
<title>Node2&#45;&gt;Node9</title>
<g id="a_edge13_Node000009_Node000002"><a xlink:title=" ">
<path fill="none" stroke="#63b8ff" d="M587.9,-151.66C651.35,-139.98 736.95,-122.8 750,-113 763.36,-102.97 756.83,-92.42 768,-80 784.83,-61.28 808.26,-45.22 827.14,-34"/>
<polygon fill="#63b8ff" stroke="#63b8ff" points="587.13,-148.25 577.92,-153.49 588.39,-155.13 587.13,-148.25"/>
</a>
</g>
</g>
<!-- Node3 -->
<g id="Node000003" class="node">
<title>Node3</title>
<g id="a_Node000003"><a xlink:href="struct_j_k_q_t_p_color_derivation_mode.html" target="_top" xlink:title="Specifies how a fill&#45;color is derived from a given color.">
<polygon fill="white" stroke="#666666" points="179,-27.5 0,-27.5 0,-6.5 179,-6.5 179,-27.5"/>
<text text-anchor="middle" x="89.5" y="-13.9" font-family="Helvetica,sans-Serif" font-size="12.00">JKQTPColorDerivationMode</text>
</a>
</g>
</g>
<!-- Node3&#45;&gt;Node2 -->
<g id="edge2_Node000002_Node000003" class="edge">
<title>Node3&#45;&gt;Node2</title>
<g id="a_edge2_Node000002_Node000003"><a xlink:title=" ">
<path fill="none" stroke="#9a32cd" stroke-dasharray="5,2" d="M130.61,-30.86C215.13,-60.06 409.96,-127.36 485.39,-153.43"/>
<polygon fill="#9a32cd" stroke="#9a32cd" points="131.7,-27.53 121.1,-27.57 129.41,-34.15 131.7,-27.53"/>
</a>
</g>
<text text-anchor="start" x="200" y="-189.9" font-family="Helvetica,sans-Serif" font-size="12.00" fill="grey">errorColorDerivationMode</text>
<text text-anchor="start" x="200" y="-172.9" font-family="Helvetica,sans-Serif" font-size="12.00" fill="grey">errorFillColorDerivationMode</text>
<text text-anchor="start" x="200" y="-155.9" font-family="Helvetica,sans-Serif" font-size="12.00" fill="grey">fillColorDerivationMode</text>
<text text-anchor="start" x="200" y="-138.9" font-family="Helvetica,sans-Serif" font-size="12.00" fill="grey">graphColorDerivationMode</text>
<text text-anchor="start" x="200" y="-121.9" font-family="Helvetica,sans-Serif" font-size="12.00" fill="grey">symbolFillColorDerivationMode</text>
</g>
<!-- Node3&#45;&gt;Node9 -->
<g id="edge14_Node000009_Node000003" class="edge">
<title>Node3&#45;&gt;Node9</title>
<g id="a_edge14_Node000009_Node000003"><a xlink:title=" ">
<path fill="none" stroke="#9a32cd" stroke-dasharray="5,2" d="M189.29,-17C341.26,-17 629.86,-17 773.44,-17"/>
<polygon fill="#9a32cd" stroke="#9a32cd" points="189.03,-13.5 179.03,-17 189.03,-20.5 189.03,-13.5"/>
</a>
</g>
<text text-anchor="start" x="410" y="-22.9" font-family="Helvetica,sans-Serif" font-size="12.00" fill="grey">negativeGraphColorDerivationMode</text>
</g>
<!-- Node4&#45;&gt;Node1 -->
<g id="edge3_Node000001_Node000004" class="edge">
<title>Node4&#45;&gt;Node1</title>
<g id="a_edge3_Node000001_Node000004"><a xlink:title=" ">
<path fill="none" stroke="#9a32cd" stroke-dasharray="5,2" d="M1153.34,-213.46C1211.06,-208.36 1285.94,-200.78 1352,-191 1404.86,-183.17 1417.81,-179.46 1470,-168 1485.87,-164.52 1503.22,-160.36 1518.42,-156.6"/>
<polygon fill="#9a32cd" stroke="#9a32cd" points="1152.79,-209.99 1143.13,-214.35 1153.4,-216.97 1152.79,-209.99"/>
</a>
</g>
<text text-anchor="start" x="1216.5" y="-217.9" font-family="Helvetica,sans-Serif" font-size="12.00" fill="grey">barchartStyle</text>
</g>
<!-- Node5&#45;&gt;Node1 -->
<g id="edge5_Node000001_Node000005" class="edge">
<title>Node5&#45;&gt;Node1</title>
<g id="a_edge5_Node000001_Node000005"><a xlink:title=" ">
<path fill="none" stroke="#9a32cd" stroke-dasharray="5,2" d="M1150.91,-169.61C1248.44,-163.98 1399.3,-155.27 1487.99,-150.16"/>
<polygon fill="#9a32cd" stroke="#9a32cd" points="1150.54,-166.12 1140.76,-170.19 1150.94,-173.11 1150.54,-166.12"/>
</a>
</g>
<text text-anchor="start" x="1218.5" y="-173.9" font-family="Helvetica,sans-Serif" font-size="12.00" fill="grey">impulseStyle</text>
</g>
<!-- Node6&#45;&gt;Node1 -->
<g id="edge7_Node000001_Node000006" class="edge">
<title>Node6&#45;&gt;Node1</title>
<g id="a_edge7_Node000001_Node000006"><a xlink:title=" ">
<path fill="none" stroke="#9a32cd" stroke-dasharray="5,2" d="M962.11,-111.79C1105.06,-119.97 1362.72,-134.71 1487.87,-141.87"/>
<polygon fill="#9a32cd" stroke="#9a32cd" points="962.21,-108.29 952.02,-111.21 961.81,-115.27 962.21,-108.29"/>
</a>
</g>
<text text-anchor="start" x="1211.5" y="-138.9" font-family="Helvetica,sans-Serif" font-size="12.00" fill="grey">geometricStyle</text>
</g>
<!-- Node8 -->
<g id="Node000008" class="node">
<title>Node8</title>
<g id="a_Node000008"><a xlink:href="class_j_k_q_t_annotations_specific_style_properties.html" target="_top" xlink:title="Support Class for JKQTBasePlotter, which summarizes all properties that define the visual styling of ...">
<polygon fill="white" stroke="#666666" points="1352,-83 1161,-83 1161,-49 1352,-49 1352,-83"/>
<text text-anchor="start" x="1169" y="-69.4" font-family="Helvetica,sans-Serif" font-size="12.00">JKQTAnnotationsSpecificStyle</text>
<text text-anchor="middle" x="1256.5" y="-56.4" font-family="Helvetica,sans-Serif" font-size="12.00">Properties</text>
</a>
</g>
</g>
<!-- Node6&#45;&gt;Node8 -->
<g id="edge11_Node000008_Node000006" class="edge">
<title>Node6&#45;&gt;Node8</title>
<g id="a_edge11_Node000008_Node000006"><a xlink:title=" ">
<path fill="none" stroke="#63b8ff" d="M962.07,-95.75C1023.27,-89.55 1100.83,-81.68 1160.84,-75.6"/>
<polygon fill="#63b8ff" stroke="#63b8ff" points="961.6,-92.28 952,-96.77 962.3,-99.25 961.6,-92.28"/>
</a>
</g>
</g>
<!-- Node7 -->
<g id="Node000007" class="node">
<title>Node7</title>
<g id="a_Node000007"><a xlink:href="class_j_k_q_t_fill_style_summmary.html" target="_top" xlink:title="Support Class for JKQTBasePlotter, which summarizes a fill style.">
<polygon fill="white" stroke="#666666" points="597,-81.5 437,-81.5 437,-60.5 597,-60.5 597,-81.5"/>
<text text-anchor="middle" x="517" y="-67.9" font-family="Helvetica,sans-Serif" font-size="12.00">JKQTFillStyleSummmary</text>
</a>
</g>
</g>
<!-- Node7&#45;&gt;Node6 -->
<g id="edge9_Node000006_Node000007" class="edge">
<title>Node7&#45;&gt;Node6</title>
<g id="a_edge9_Node000006_Node000007"><a xlink:title=" ">
<path fill="none" stroke="#9a32cd" stroke-dasharray="5,2" d="M607.15,-80.15C656.67,-85.23 718.16,-91.54 767.98,-96.66"/>
<polygon fill="#9a32cd" stroke="#9a32cd" points="607.39,-76.66 597.09,-79.12 606.68,-83.62 607.39,-76.66"/>
</a>
</g>
<text text-anchor="start" x="655.5" y="-99.9" font-family="Helvetica,sans-Serif" font-size="12.00" fill="grey">defaultFillStyle</text>
</g>
<!-- Node7&#45;&gt;Node9 -->
<g id="edge15_Node000009_Node000007" class="edge">
<title>Node7&#45;&gt;Node9</title>
<g id="a_edge15_Node000009_Node000007"><a xlink:title=" ">
<path fill="none" stroke="#9a32cd" stroke-dasharray="5,2" d="M573.6,-58.35C596.29,-53.45 622.82,-48.06 647,-44 688.44,-37.04 734.7,-30.95 773.41,-26.33"/>
<polygon fill="#9a32cd" stroke="#9a32cd" points="572.83,-54.94 563.8,-60.49 574.32,-61.78 572.83,-54.94"/>
</a>
</g>
<text text-anchor="start" x="650.5" y="-67.4" font-family="Helvetica,sans-Serif" font-size="12.00" fill="grey">negativeFillStyle</text>
<text text-anchor="start" x="650.5" y="-50.4" font-family="Helvetica,sans-Serif" font-size="12.00" fill="grey">positiveFillStyle</text>
</g>
<!-- Node8&#45;&gt;Node1 -->
<g id="edge10_Node000001_Node000008" class="edge">
<title>Node8&#45;&gt;Node1</title>
<g id="a_edge10_Node000001_Node000008"><a xlink:title=" ">
<path fill="none" stroke="#9a32cd" stroke-dasharray="5,2" d="M1362.47,-65.66C1397.47,-68.21 1436.15,-73.99 1470,-86 1501.15,-97.05 1532.01,-121.27 1548.25,-135.32"/>
<polygon fill="#9a32cd" stroke="#9a32cd" points="1362.42,-62.15 1352.22,-65 1361.97,-69.13 1362.42,-62.15"/>
</a>
</g>
<text text-anchor="start" x="1373" y="-91.9" font-family="Helvetica,sans-Serif" font-size="12.00" fill="grey">annotationStyle</text>
</g>
<!-- Node9&#45;&gt;Node1 -->
<g id="edge12_Node000001_Node000009" class="edge">
<title>Node9&#45;&gt;Node1</title>
<g id="a_edge12_Node000001_Node000009"><a xlink:title=" ">
<path fill="none" stroke="#9a32cd" stroke-dasharray="5,2" d="M956.95,-8.63C1056.53,-2.08 1216.38,2.46 1352,-21 1406.71,-30.46 1422.46,-33.33 1470,-62 1504.23,-82.64 1536.47,-117.95 1551.37,-135.48"/>
<polygon fill="#9a32cd" stroke="#9a32cd" points="956.65,-5.15 946.91,-9.32 957.12,-12.13 956.65,-5.15"/>
</a>
</g>
<text text-anchor="start" x="1216.5" y="-26.9" font-family="Helvetica,sans-Serif" font-size="12.00" fill="grey">financialStyle</text>
</g>
</g>
</svg>
