<?xml version="1.0" encoding="UTF-8" standalone="no"?>
<!DOCTYPE svg PUBLIC "-//W3C//DTD SVG 1.1//EN"
 "http://www.w3.org/Graphics/SVG/1.1/DTD/svg11.dtd">
<!-- Generated by graphviz version 2.43.0 (0)
 -->
<!-- Title: JKQTFPPlot Pages: 1 -->
<svg width="585pt" height="360pt"
 viewBox="0.00 0.00 585.00 360.00" xmlns="http://www.w3.org/2000/svg" xmlns:xlink="http://www.w3.org/1999/xlink">
<g id="graph0" class="graph" transform="scale(1 1) rotate(0) translate(4 356)">
<title>JKQTFPPlot</title>
<!-- Node1 -->
<g id="Node000001" class="node">
<title>Node1</title>
<g id="a_Node000001"><a xlink:title="base class for all plots that may be plotted by JKQTFastPlotter">
<polygon fill="#999999" stroke="#666666" points="183,-177 101,-177 101,-156 183,-156 183,-177"/>
<text text-anchor="middle" x="142" y="-163.4" font-family="Helvetica,sans-Serif" font-size="12.00">JKQTFPPlot</text>
</a>
</g>
</g>
<!-- Node3 -->
<g id="Node000003" class="node">
<title>Node3</title>
<g id="a_Node000003"><a xlink:href="class_j_k_q_t_f_p_line_plot.html" target="_top" xlink:title="a simple line plot for JKQTFastPlotter">
<polygon fill="white" stroke="#666666" points="372.5,-333 265.5,-333 265.5,-312 372.5,-312 372.5,-333"/>
<text text-anchor="middle" x="319" y="-319.4" font-family="Helvetica,sans-Serif" font-size="12.00">JKQTFPLinePlot</text>
</a>
</g>
</g>
<!-- Node1&#45;&gt;Node3 -->
<g id="edge2_Node000001_Node000003" class="edge">
<title>Node1&#45;&gt;Node3</title>
<g id="a_edge2_Node000001_Node000003"><a xlink:title=" ">
<path fill="none" stroke="#63b8ff" d="M148.46,-186.91C157.67,-217.18 179.3,-273.54 219,-302.5 232.39,-312.27 249.38,-317.55 265.49,-320.32"/>
<polygon fill="#63b8ff" stroke="#63b8ff" points="151.75,-185.67 145.62,-177.03 145.02,-187.61 151.75,-185.67"/>
</a>
</g>
</g>
<!-- Node6 -->
<g id="Node000006" class="node">
<title>Node6</title>
<g id="a_Node000006"><a xlink:href="class_j_k_q_t_f_p_q_image_plot.html" target="_top" xlink:title="a plot of a QImage">
<polygon fill="white" stroke="#666666" points="384,-294 254,-294 254,-273 384,-273 384,-294"/>
<text text-anchor="middle" x="319" y="-280.4" font-family="Helvetica,sans-Serif" font-size="12.00">JKQTFPQImagePlot</text>
</a>
</g>
</g>
<!-- Node1&#45;&gt;Node6 -->
<g id="edge5_Node000001_Node000006" class="edge">
<title>Node1&#45;&gt;Node6</title>
<g id="a_edge5_Node000001_Node000006"><a xlink:title=" ">
<path fill="none" stroke="#63b8ff" d="M152.9,-186.27C165.21,-208.7 188.39,-244.62 219,-263.5 229.52,-269.99 241.76,-274.42 253.96,-277.44"/>
<polygon fill="#63b8ff" stroke="#63b8ff" points="155.92,-184.5 148.16,-177.29 149.73,-187.77 155.92,-184.5"/>
</a>
</g>
</g>
<!-- Node7 -->
<g id="Node000007" class="node">
<title>Node7</title>
<g id="a_Node000007"><a xlink:href="class_j_k_q_t_f_p_q_overlay_linear_grid_plot.html" target="_top" xlink:title="plot a horizontal scale bar">
<polygon fill="white" stroke="#666666" points="419,-255 219,-255 219,-234 419,-234 419,-255"/>
<text text-anchor="middle" x="319" y="-241.4" font-family="Helvetica,sans-Serif" font-size="12.00">JKQTFPQOverlayLinearGridPlot</text>
</a>
</g>
</g>
<!-- Node1&#45;&gt;Node7 -->
<g id="edge6_Node000001_Node000007" class="edge">
<title>Node1&#45;&gt;Node7</title>
<g id="a_edge6_Node000001_Node000007"><a xlink:title=" ">
<path fill="none" stroke="#63b8ff" d="M161.48,-184.48C175.97,-197.57 197.26,-214.65 219,-224.5 227.46,-228.34 236.67,-231.44 245.94,-233.95"/>
<polygon fill="#63b8ff" stroke="#63b8ff" points="163.49,-181.57 153.78,-177.33 158.72,-186.7 163.49,-181.57"/>
</a>
</g>
</g>
<!-- Node8 -->
<g id="Node000008" class="node">
<title>Node8</title>
<g id="a_Node000008"><a xlink:href="class_j_k_q_t_f_p_q_scale_bar_x_plot.html" target="_top" xlink:title="plot a horizontal scale bar">
<polygon fill="white" stroke="#666666" points="395.5,-216 242.5,-216 242.5,-195 395.5,-195 395.5,-216"/>
<text text-anchor="middle" x="319" y="-202.4" font-family="Helvetica,sans-Serif" font-size="12.00">JKQTFPQScaleBarXPlot</text>
</a>
</g>
</g>
<!-- Node1&#45;&gt;Node8 -->
<g id="edge7_Node000001_Node000008" class="edge">
<title>Node1&#45;&gt;Node8</title>
<g id="a_edge7_Node000001_Node000008"><a xlink:title=" ">
<path fill="none" stroke="#63b8ff" d="M193.1,-179.37C201.73,-181.49 210.61,-183.6 219,-185.5 233.45,-188.76 249.15,-192.05 263.7,-194.99"/>
<polygon fill="#63b8ff" stroke="#63b8ff" points="193.7,-175.91 183.15,-176.9 192.01,-182.71 193.7,-175.91"/>
</a>
</g>
</g>
<!-- Node9 -->
<g id="Node000009" class="node">
<title>Node9</title>
<g id="a_Node000009"><a xlink:href="class_j_k_q_t_f_p_r_g_b_image_overlay_plot.html" target="_top" xlink:title="plots 1,2 or 3 given grayscale images as an overlay plot, where each channel is drawn as one color ch...">
<polygon fill="white" stroke="#666666" points="415,-177 223,-177 223,-156 415,-156 415,-177"/>
<text text-anchor="middle" x="319" y="-163.4" font-family="Helvetica,sans-Serif" font-size="12.00">JKQTFPRGBImageOverlayPlot</text>
</a>
</g>
</g>
<!-- Node1&#45;&gt;Node9 -->
<g id="edge8_Node000001_Node000009" class="edge">
<title>Node1&#45;&gt;Node9</title>
<g id="a_edge8_Node000001_Node000009"><a xlink:title=" ">
<path fill="none" stroke="#63b8ff" d="M193.35,-166.5C202.67,-166.5 212.69,-166.5 222.84,-166.5"/>
<polygon fill="#63b8ff" stroke="#63b8ff" points="193.15,-163 183.15,-166.5 193.15,-170 193.15,-163"/>
</a>
</g>
</g>
<!-- Node10 -->
<g id="Node000010" class="node">
<title>Node10</title>
<g id="a_Node000010"><a xlink:href="class_j_k_q_t_f_p_x_range_plot.html" target="_top" xlink:title="plot a range of x values">
<polygon fill="white" stroke="#666666" points="383,-138 255,-138 255,-117 383,-117 383,-138"/>
<text text-anchor="middle" x="319" y="-124.4" font-family="Helvetica,sans-Serif" font-size="12.00">JKQTFPXRangePlot</text>
</a>
</g>
</g>
<!-- Node1&#45;&gt;Node10 -->
<g id="edge9_Node000001_Node000010" class="edge">
<title>Node1&#45;&gt;Node10</title>
<g id="a_edge9_Node000001_Node000010"><a xlink:title=" ">
<path fill="none" stroke="#63b8ff" d="M191,-153.34C200.27,-150.95 209.91,-148.57 219,-146.5 232.06,-143.53 246.15,-140.64 259.49,-138.05"/>
<polygon fill="#63b8ff" stroke="#63b8ff" points="189.94,-150 181.15,-155.92 191.71,-156.77 189.94,-150"/>
</a>
</g>
</g>
<!-- Node11 -->
<g id="Node000011" class="node">
<title>Node11</title>
<g id="a_Node000011"><a xlink:href="class_j_k_q_t_f_p_y_range_plot.html" target="_top" xlink:title="plot a range of x values">
<polygon fill="white" stroke="#666666" points="382.5,-99 255.5,-99 255.5,-78 382.5,-78 382.5,-99"/>
<text text-anchor="middle" x="319" y="-85.4" font-family="Helvetica,sans-Serif" font-size="12.00">JKQTFPYRangePlot</text>
</a>
</g>
</g>
<!-- Node1&#45;&gt;Node11 -->
<g id="edge10_Node000001_Node000011" class="edge">
<title>Node1&#45;&gt;Node11</title>
<g id="a_edge10_Node000001_Node000011"><a xlink:title=" ">
<path fill="none" stroke="#63b8ff" d="M160.49,-148.97C174.95,-135.53 196.66,-117.61 219,-107.5 230.32,-102.38 242.98,-98.64 255.36,-95.9"/>
<polygon fill="#63b8ff" stroke="#63b8ff" points="158.05,-146.46 153.25,-155.91 162.89,-151.52 158.05,-146.46"/>
</a>
</g>
</g>
<!-- Node12 -->
<g id="Node000012" class="node">
<title>Node12</title>
<g id="a_Node000012"><a xlink:href="class_j_k_q_t_f_pimage_overlay_plot.html" target="_top" xlink:title="plots an image overlay, i.e. a boolean image where each true pixel is drawn with a given color and th...">
<polygon fill="white" stroke="#666666" points="401.5,-60 236.5,-60 236.5,-39 401.5,-39 401.5,-60"/>
<text text-anchor="middle" x="319" y="-46.4" font-family="Helvetica,sans-Serif" font-size="12.00">JKQTFPimageOverlayPlot</text>
</a>
</g>
</g>
<!-- Node1&#45;&gt;Node12 -->
<g id="edge11_Node000001_Node000012" class="edge">
<title>Node1&#45;&gt;Node12</title>
<g id="a_edge11_Node000001_Node000012"><a xlink:title=" ">
<path fill="none" stroke="#63b8ff" d="M152.62,-146.83C164.8,-124.14 187.99,-87.53 219,-68.5 224.44,-65.16 230.35,-62.38 236.47,-60.08"/>
<polygon fill="#63b8ff" stroke="#63b8ff" points="149.43,-145.39 147.95,-155.88 155.65,-148.6 149.43,-145.39"/>
</a>
</g>
</g>
<!-- Node13 -->
<g id="Node000013" class="node">
<title>Node13</title>
<g id="a_Node000013"><a xlink:href="class_j_k_q_t_f_pimage_plot.html" target="_top" xlink:title="plots a given grayscale image with a given color palette">
<polygon fill="white" stroke="#666666" points="378.5,-21 259.5,-21 259.5,0 378.5,0 378.5,-21"/>
<text text-anchor="middle" x="319" y="-7.4" font-family="Helvetica,sans-Serif" font-size="12.00">JKQTFPimagePlot</text>
</a>
</g>
</g>
<!-- Node1&#45;&gt;Node13 -->
<g id="edge12_Node000001_Node000013" class="edge">
<title>Node1&#45;&gt;Node13</title>
<g id="a_edge12_Node000001_Node000013"><a xlink:title=" ">
<path fill="none" stroke="#63b8ff" d="M148.38,-145.9C157.49,-115.34 178.98,-58.49 219,-29.5 230.69,-21.03 245.13,-16.04 259.33,-13.18"/>
<polygon fill="#63b8ff" stroke="#63b8ff" points="144.91,-145.29 145.57,-155.87 151.65,-147.19 144.91,-145.29"/>
</a>
</g>
</g>
<!-- Node2 -->
<g id="Node000002" class="node">
<title>Node2</title>
<g id="a_Node000002"><a xlink:title=" ">
<polygon fill="white" stroke="#666666" points="65,-177 0,-177 0,-156 65,-156 65,-177"/>
<text text-anchor="middle" x="32.5" y="-163.4" font-family="Helvetica,sans-Serif" font-size="12.00">QObject</text>
</a>
</g>
</g>
<!-- Node2&#45;&gt;Node1 -->
<g id="edge1_Node000001_Node000002" class="edge">
<title>Node2&#45;&gt;Node1</title>
<g id="a_edge1_Node000001_Node000002"><a xlink:title=" ">
<path fill="none" stroke="#63b8ff" d="M75.44,-166.5C83.77,-166.5 92.49,-166.5 100.76,-166.5"/>
<polygon fill="#63b8ff" stroke="#63b8ff" points="75.17,-163 65.17,-166.5 75.17,-170 75.17,-163"/>
</a>
</g>
</g>
<!-- Node4 -->
<g id="Node000004" class="node">
<title>Node4</title>
<g id="a_Node000004"><a xlink:href="class_j_k_q_t_f_p_v_bar_plot.html" target="_top" xlink:title="a simple vertical bar plot for JKQTFastPlotter">
<polygon fill="white" stroke="#666666" points="571.5,-352 460.5,-352 460.5,-331 571.5,-331 571.5,-352"/>
<text text-anchor="middle" x="516" y="-338.4" font-family="Helvetica,sans-Serif" font-size="12.00">JKQTFPVBarPlot</text>
</a>
</g>
</g>
<!-- Node3&#45;&gt;Node4 -->
<g id="edge3_Node000003_Node000004" class="edge">
<title>Node3&#45;&gt;Node4</title>
<g id="a_edge3_Node000003_Node000004"><a xlink:title=" ">
<path fill="none" stroke="#63b8ff" d="M382.63,-328.6C407.65,-331.04 436.19,-333.82 460.35,-336.18"/>
<polygon fill="#63b8ff" stroke="#63b8ff" points="382.81,-325.1 372.51,-327.62 382.13,-332.07 382.81,-325.1"/>
</a>
</g>
</g>
<!-- Node5 -->
<g id="Node000005" class="node">
<title>Node5</title>
<g id="a_Node000005"><a xlink:href="class_j_k_q_t_f_p_v_cross_plot.html" target="_top" xlink:title="a simple plot that draws a cross for every datapoint">
<polygon fill="white" stroke="#666666" points="577,-313 455,-313 455,-292 577,-292 577,-313"/>
<text text-anchor="middle" x="516" y="-299.4" font-family="Helvetica,sans-Serif" font-size="12.00">JKQTFPVCrossPlot</text>
</a>
</g>
</g>
<!-- Node3&#45;&gt;Node5 -->
<g id="edge4_Node000003_Node000005" class="edge">
<title>Node3&#45;&gt;Node5</title>
<g id="a_edge4_Node000003_Node000005"><a xlink:title=" ">
<path fill="none" stroke="#63b8ff" d="M382.57,-316.08C405.71,-313.71 431.88,-311.03 454.8,-308.67"/>
<polygon fill="#63b8ff" stroke="#63b8ff" points="382.1,-312.61 372.51,-317.11 382.82,-319.58 382.1,-312.61"/>
</a>
</g>
</g>
</g>
</svg>
