<?xml version="1.0" encoding="UTF-8" standalone="no"?>
<!DOCTYPE svg PUBLIC "-//W3C//DTD SVG 1.1//EN"
 "http://www.w3.org/Graphics/SVG/1.1/DTD/svg11.dtd">
<!-- Generated by graphviz version 2.43.0 (0)
 -->
<!-- Title: %3 Pages: 1 -->
<!--zoomable 1035 -->

<svg id="main" version="1.1" xmlns="http://www.w3.org/2000/svg" xmlns:xlink="http://www.w3.org/1999/xlink" xml:space="preserve" onload="init(evt)">

<style type="text/css"><![CDATA[
.node, .edge {opacity: 0.7;}
.node.selected, .edge.selected {opacity: 1;}
.edge:hover path { stroke: red; }
.edge:hover polygon { stroke: red; fill: red; }
]]></style>

<defs>
  <circle id="rim" cx="0" cy="0" r="7"/>
  <circle id="rim2" cx="0" cy="0" r="3.5"/>
  <g id="zoomPlus">
    <use xlink:href="#rim" fill="#404040"><set attributeName="fill" to="#808080" begin="zoomplus.mouseover" end="zoomplus.mouseout"/></use>
    <path d="M-4,0h8M0,-4v8" fill="none" stroke="white" stroke-width="1.5" pointer-events="none"/>
  </g>
  <g id="zoomMin">
    <use xlink:href="#rim" fill="#404040"><set attributeName="fill" to="#808080" begin="zoomminus.mouseover" end="zoomminus.mouseout"/></use>
    <path d="M-4,0h8" fill="none" stroke="white" stroke-width="1.5" pointer-events="none"/>
  </g>
  <g id="arrowUp" transform="translate(30 24)">
    <use xlink:href="#rim"/>
    <path pointer-events="none" fill="none" stroke="white" stroke-width="1.5" d="M0,-3.0v7 M-2.5,-0.5L0,-3.0L2.5,-0.5"/>
  </g>
  <g id="arrowRight" transform="rotate(90) translate(36 -43)">
    <use xlink:href="#rim"/>
    <path pointer-events="none" fill="none" stroke="white" stroke-width="1.5" d="M0,-3.0v7 M-2.5,-0.5L0,-3.0L2.5,-0.5"/>
  </g>
  <g id="arrowDown" transform="rotate(180) translate(-30 -48)">
    <use xlink:href="#rim"/>
    <path pointer-events="none" fill="none" stroke="white" stroke-width="1.5" d="M0,-3.0v7 M-2.5,-0.5L0,-3.0L2.5,-0.5"/>
  </g>
  <g id="arrowLeft" transform="rotate(270) translate(-36 17)">
    <use xlink:href="#rim"/>
    <path pointer-events="none" fill="none" stroke="white" stroke-width="1.5" d="M0,-3.0v7 M-2.5,-0.5L0,-3.0L2.5,-0.5"/>
  </g>
  <g id="resetDef">
    <use xlink:href="#rim2" fill="#404040"><set attributeName="fill" to="#808080" begin="reset.mouseover" end="reset.mouseout"/></use>
  </g>
</defs>
<script type="application/ecmascript">
var viewWidth = 987;
var viewHeight = 1035;
</script>
<script type="application/ecmascript" xlink:href="svg.min.js"/>
<svg id="graph" class="graph">
<g id="viewport">
<title>%3</title>
<!-- JKQTPPlotElement -->
<g id="node1" class="node">
<title>JKQTPPlotElement</title>
<g id="a_node1"><a xlink:href="class_j_k_q_t_p_plot_element.html" target="_top" xlink:title="JKQTPPlotElement">
<ellipse fill="none" stroke="black" cx="59.45" cy="-268" rx="59.41" ry="18"/>
<text text-anchor="middle" x="59.45" y="-265.5" font-family="FreeSans" font-size="10.00">JKQTPPlotElement</text>
</a>
</g>
</g>
<!-- noteJKQTPPlotElement -->
<g id="node2" class="node">
<title>noteJKQTPPlotElement</title>
<polygon fill="lightyellow" stroke="lightyellow" points="90.95,-232 21.95,-232 21.95,-196 96.95,-196 96.95,-226 90.95,-232"/>
<polyline fill="none" stroke="lightyellow" points="90.95,-232 90.95,-226 "/>
<polyline fill="none" stroke="lightyellow" points="96.95,-226 90.95,-226 "/>
<text text-anchor="middle" x="59.45" y="-221.1" font-family="FreeSans" font-size="8.00">base class for all</text>
<text text-anchor="middle" x="59.45" y="-212.1" font-family="FreeSans" font-size="8.00">elements drawn</text>
<text text-anchor="middle" x="59.45" y="-203.1" font-family="FreeSans" font-size="8.00">onto a plot</text>
</g>
<!-- JKQTPPlotElement&#45;&gt;noteJKQTPPlotElement -->
<g id="edge1" class="edge">
<title>JKQTPPlotElement&#45;&gt;noteJKQTPPlotElement</title>
<path fill="none" stroke="black" stroke-dasharray="5,2" d="M59.45,-249.79C59.45,-243.91 59.45,-238.02 59.45,-232.14"/>
</g>
<!-- JKQTPGraph -->
<g id="node3" class="node">
<title>JKQTPGraph</title>
<g id="a_node3"><a xlink:href="class_j_k_q_t_p_plot_element.html" target="_top" xlink:title="JKQTPGraph">
<ellipse fill="none" stroke="black" cx="242.03" cy="-534" rx="44.3" ry="18"/>
<text text-anchor="middle" x="242.03" y="-531.5" font-family="FreeSans" font-size="10.00">JKQTPGraph</text>
</a>
</g>
</g>
<!-- JKQTPPlotElement&#45;&gt;JKQTPGraph -->
<g id="edge23" class="edge">
<title>JKQTPPlotElement&#45;&gt;JKQTPGraph</title>
<path fill="none" stroke="black" d="M62.35,-286.23C67.95,-330.62 88.42,-445.17 154.91,-507 164.51,-515.93 177.03,-521.9 189.53,-525.9"/>
<polygon fill="black" stroke="black" points="188.93,-529.37 199.51,-528.7 190.83,-522.63 188.93,-529.37"/>
</g>
<!-- JKQTPGeometricPlotElement -->
<g id="node5" class="node">
<title>JKQTPGeometricPlotElement</title>
<g id="a_node5"><a xlink:href="class_j_k_q_t_p_geometric_plot_element.html" target="_top" xlink:title="JKQTPGeometricPlotElement">
<ellipse fill="none" stroke="black" cx="242.03" cy="-426" rx="85.89" ry="18"/>
<text text-anchor="middle" x="242.03" y="-423.5" font-family="FreeSans" font-size="10.00">JKQTPGeometricPlotElement</text>
</a>
</g>
</g>
<!-- JKQTPPlotElement&#45;&gt;JKQTPGeometricPlotElement -->
<g id="edge24" class="edge">
<title>JKQTPPlotElement&#45;&gt;JKQTPGeometricPlotElement</title>
<path fill="none" stroke="black" d="M68.74,-286.1C82.58,-314.35 113.07,-368.82 154.91,-399 160.16,-402.79 165.97,-406.06 172,-408.88"/>
<polygon fill="black" stroke="black" points="171.07,-412.28 181.64,-412.95 173.79,-405.83 171.07,-412.28"/>
</g>
<!-- JKQTPPlotAnnotationElement -->
<g id="node7" class="node">
<title>JKQTPPlotAnnotationElement</title>
<g id="a_node7"><a xlink:href="class_j_k_q_t_p_plot_annotation_element.html" target="_top" xlink:title="JKQTPPlotAnnotationElement">
<ellipse fill="none" stroke="black" cx="242.03" cy="-318" rx="87.24" ry="18"/>
<text text-anchor="middle" x="242.03" y="-315.5" font-family="FreeSans" font-size="10.00">JKQTPPlotAnnotationElement</text>
</a>
</g>
</g>
<!-- JKQTPPlotElement&#45;&gt;JKQTPPlotAnnotationElement -->
<g id="edge25" class="edge">
<title>JKQTPPlotElement&#45;&gt;JKQTPPlotAnnotationElement</title>
<path fill="none" stroke="black" d="M104.17,-280.1C126.74,-286.35 154.67,-294.09 179.4,-300.93"/>
<polygon fill="black" stroke="black" points="178.48,-304.31 189.06,-303.61 180.35,-297.57 178.48,-304.31"/>
</g>
<!-- JKQTPRangeBase -->
<g id="node39" class="node">
<title>JKQTPRangeBase</title>
<g id="a_node39"><a xlink:href="class_j_k_q_t_p_range_base.html" target="_top" xlink:title="JKQTPRangeBase">
<ellipse fill="none" stroke="black" cx="891.01" cy="-288" rx="58.06" ry="18"/>
<text text-anchor="middle" x="891.01" y="-285.5" font-family="FreeSans" font-size="10.00">JKQTPRangeBase</text>
</a>
</g>
</g>
<!-- JKQTPPlotElement&#45;&gt;JKQTPRangeBase -->
<g id="edge26" class="edge">
<title>JKQTPPlotElement&#45;&gt;JKQTPRangeBase</title>
<path fill="none" stroke="black" d="M95.67,-253.49C113.16,-247.05 134.8,-240.22 154.91,-237 231.38,-224.77 251.79,-233.49 329.15,-237 509.93,-245.2 722.48,-268.2 826.36,-280.32"/>
<polygon fill="black" stroke="black" points="826.03,-283.8 836.37,-281.49 826.85,-276.85 826.03,-283.8"/>
</g>
<!-- JKQTPBoxplotElementBase -->
<g id="node41" class="node">
<title>JKQTPBoxplotElementBase</title>
<g id="a_node41"><a xlink:href="class_j_k_q_t_p_boxplot_element_base.html" target="_top" xlink:title="JKQTPBoxplotElementBase">
<ellipse fill="none" stroke="black" cx="891.01" cy="-180" rx="81.65" ry="18"/>
<text text-anchor="middle" x="891.01" y="-177.5" font-family="FreeSans" font-size="10.00">JKQTPBoxplotElementBase</text>
</a>
</g>
</g>
<!-- JKQTPPlotElement&#45;&gt;JKQTPBoxplotElementBase -->
<g id="edge27" class="edge">
<title>JKQTPPlotElement&#45;&gt;JKQTPBoxplotElementBase</title>
<path fill="none" stroke="black" d="M92.76,-252.96C117.48,-241.56 148.42,-227.59 154.91,-226 382.54,-170.19 661.04,-170.71 800.88,-175.52"/>
<polygon fill="black" stroke="black" points="801,-179.02 811.12,-175.88 801.25,-172.03 801,-179.02"/>
</g>
<!-- JKQTPViolinplotElementBase -->
<g id="node43" class="node">
<title>JKQTPViolinplotElementBase</title>
<g id="a_node43"><a xlink:href="class_j_k_q_t_p_violinplot_element_base.html" target="_top" xlink:title="JKQTPViolinplotElementBase">
<ellipse fill="none" stroke="black" cx="891.01" cy="-72" rx="85.89" ry="18"/>
<text text-anchor="middle" x="891.01" y="-69.5" font-family="FreeSans" font-size="10.00">JKQTPViolinplotElementBase</text>
</a>
</g>
</g>
<!-- JKQTPPlotElement&#45;&gt;JKQTPViolinplotElementBase -->
<g id="edge28" class="edge">
<title>JKQTPPlotElement&#45;&gt;JKQTPViolinplotElementBase</title>
<path fill="none" stroke="black" d="M98.02,-254.14C105.36,-250.5 112.7,-246.12 118.91,-241 140.03,-223.58 131.62,-205.4 154.91,-191 358.82,-64.96 653,-59.07 799.7,-65.41"/>
<polygon fill="black" stroke="black" points="799.86,-68.92 810.01,-65.88 800.18,-61.93 799.86,-68.92"/>
</g>
<!-- noteJKQTPGraph -->
<g id="node4" class="node">
<title>noteJKQTPGraph</title>
<polygon fill="lightyellow" stroke="lightyellow" points="273.53,-498 204.53,-498 204.53,-462 279.53,-462 279.53,-492 273.53,-498"/>
<polyline fill="none" stroke="lightyellow" points="273.53,-498 273.53,-492 "/>
<polyline fill="none" stroke="lightyellow" points="279.53,-492 273.53,-492 "/>
<text text-anchor="middle" x="242.03" y="-482.6" font-family="FreeSans" font-size="8.00">base class for all</text>
<text text-anchor="middle" x="242.03" y="-473.6" font-family="FreeSans" font-size="8.00">actual graphs</text>
</g>
<!-- JKQTPGraph&#45;&gt;noteJKQTPGraph -->
<g id="edge2" class="edge">
<title>JKQTPGraph&#45;&gt;noteJKQTPGraph</title>
<path fill="none" stroke="black" stroke-dasharray="5,2" d="M242.03,-515.79C242.03,-509.91 242.03,-504.02 242.03,-498.14"/>
</g>
<!-- JKQTPXYGraph -->
<g id="node9" class="node">
<title>JKQTPXYGraph</title>
<g id="a_node9"><a xlink:href="class_j_k_q_t_p_x_y_graph.html" target="_top" xlink:title="JKQTPXYGraph">
<ellipse fill="none" stroke="black" cx="444.62" cy="-858" rx="51.61" ry="18"/>
<text text-anchor="middle" x="444.62" y="-855.5" font-family="FreeSans" font-size="10.00">JKQTPXYGraph</text>
</a>
</g>
</g>
<!-- JKQTPGraph&#45;&gt;JKQTPXYGraph -->
<g id="edge29" class="edge">
<title>JKQTPGraph&#45;&gt;JKQTPXYGraph</title>
<path fill="none" stroke="black" d="M245.3,-552.27C252.63,-603.69 280.38,-751.06 365.15,-831 371.93,-837.39 380.28,-842.27 388.99,-846"/>
<polygon fill="black" stroke="black" points="387.92,-849.34 398.51,-849.62 390.41,-842.8 387.92,-849.34"/>
</g>
<!-- JKQTPXGraph -->
<g id="node11" class="node">
<title>JKQTPXGraph</title>
<g id="a_node11"><a xlink:href="class_j_k_q_t_p_x_graph.html" target="_top" xlink:title="JKQTPXGraph">
<ellipse fill="none" stroke="black" cx="444.62" cy="-750" rx="47.19" ry="18"/>
<text text-anchor="middle" x="444.62" y="-747.5" font-family="FreeSans" font-size="10.00">JKQTPXGraph</text>
</a>
</g>
</g>
<!-- JKQTPGraph&#45;&gt;JKQTPXGraph -->
<g id="edge30" class="edge">
<title>JKQTPGraph&#45;&gt;JKQTPXGraph</title>
<path fill="none" stroke="black" d="M249.85,-551.93C264.9,-589.21 304.56,-675.56 365.15,-723 373.41,-729.46 383.31,-734.43 393.25,-738.23"/>
<polygon fill="black" stroke="black" points="392.15,-741.56 402.74,-741.53 394.45,-734.95 392.15,-741.56"/>
</g>
<!-- JKQTPSingleColumnGraph -->
<g id="node13" class="node">
<title>JKQTPSingleColumnGraph</title>
<g id="a_node13"><a xlink:href="class_j_k_q_t_p_single_column_graph.html" target="_top" xlink:title="JKQTPSingleColumnGraph">
<ellipse fill="none" stroke="black" cx="444.62" cy="-642" rx="79.44" ry="18"/>
<text text-anchor="middle" x="444.62" y="-639.5" font-family="FreeSans" font-size="10.00">JKQTPSingleColumnGraph</text>
</a>
</g>
</g>
<!-- JKQTPGraph&#45;&gt;JKQTPSingleColumnGraph -->
<g id="edge31" class="edge">
<title>JKQTPGraph&#45;&gt;JKQTPSingleColumnGraph</title>
<path fill="none" stroke="black" d="M263.66,-550.06C287.18,-567.8 327.28,-596.31 365.15,-615 371.82,-618.29 378.98,-621.35 386.17,-624.14"/>
<polygon fill="black" stroke="black" points="385.35,-627.57 395.94,-627.77 387.79,-621 385.35,-627.57"/>
</g>
<!-- JKQTPImageBase -->
<g id="node15" class="node">
<title>JKQTPImageBase</title>
<g id="a_node15"><a xlink:href="class_j_k_q_t_p_image_base.html" target="_top" xlink:title="JKQTPImageBase">
<ellipse fill="none" stroke="black" cx="444.62" cy="-534" rx="57.88" ry="18"/>
<text text-anchor="middle" x="444.62" y="-531.5" font-family="FreeSans" font-size="10.00">JKQTPImageBase</text>
</a>
</g>
</g>
<!-- JKQTPGraph&#45;&gt;JKQTPImageBase -->
<g id="edge32" class="edge">
<title>JKQTPGraph&#45;&gt;JKQTPImageBase</title>
<path fill="none" stroke="black" d="M286.56,-534C312.84,-534 346.88,-534 376.55,-534"/>
<polygon fill="black" stroke="black" points="376.84,-537.5 386.84,-534 376.84,-530.5 376.84,-537.5"/>
</g>
<!-- JKQTPEvaluatedFunctionGraphBase -->
<g id="node25" class="node">
<title>JKQTPEvaluatedFunctionGraphBase</title>
<g id="a_node25"><a xlink:href="class_j_k_q_t_p_evaluated_function_graph_base.html" target="_top" xlink:title="JKQTPEvaluatedFunctionGraphBase">
<ellipse fill="none" stroke="black" cx="663.7" cy="-465" rx="103.71" ry="18"/>
<text text-anchor="middle" x="663.7" y="-462.5" font-family="FreeSans" font-size="10.00">JKQTPEvaluatedFunctionGraphBase</text>
</a>
</g>
</g>
<!-- JKQTPGraph&#45;&gt;JKQTPEvaluatedFunctionGraphBase -->
<g id="edge34" class="edge">
<title>JKQTPGraph&#45;&gt;JKQTPEvaluatedFunctionGraphBase</title>
<path fill="none" stroke="black" d="M283.4,-527.32C298.81,-523.3 315.86,-516.96 329.15,-507 352.23,-489.7 339.72,-466.61 365.15,-453 400.2,-434.24 500.49,-442.35 575.01,-451.81"/>
<polygon fill="black" stroke="black" points="574.98,-455.34 585.34,-453.16 575.88,-448.4 574.98,-455.34"/>
</g>
<!-- JKQTPBoxplotGraphBase -->
<g id="node37" class="node">
<title>JKQTPBoxplotGraphBase</title>
<g id="a_node37"><a xlink:href="class_j_k_q_t_p_boxplot_graph_base.html" target="_top" xlink:title="JKQTPBoxplotGraphBase">
<ellipse fill="none" stroke="black" cx="891.01" cy="-396" rx="76.55" ry="18"/>
<text text-anchor="middle" x="891.01" y="-393.5" font-family="FreeSans" font-size="10.00">JKQTPBoxplotGraphBase</text>
</a>
</g>
</g>
<!-- JKQTPGraph&#45;&gt;JKQTPBoxplotGraphBase -->
<g id="edge35" class="edge">
<title>JKQTPGraph&#45;&gt;JKQTPBoxplotGraphBase</title>
<path fill="none" stroke="black" d="M284,-528.07C299.5,-524.17 316.45,-517.7 329.15,-507 355.92,-484.47 337.97,-459.01 365.15,-437 434.93,-380.5 471.1,-395.88 560.09,-384 646.69,-372.44 747.13,-378.9 814.22,-386.02"/>
<polygon fill="black" stroke="black" points="813.96,-389.51 824.29,-387.12 814.72,-382.55 813.96,-389.51"/>
</g>
<!-- noteJKQTPGeometricPlotElement -->
<g id="node6" class="node">
<title>noteJKQTPGeometricPlotElement</title>
<polygon fill="lightyellow" stroke="lightyellow" points="287.03,-390 191.03,-390 191.03,-354 293.03,-354 293.03,-384 287.03,-390"/>
<polyline fill="none" stroke="lightyellow" points="287.03,-390 287.03,-384 "/>
<polyline fill="none" stroke="lightyellow" points="293.03,-384 287.03,-384 "/>
<text text-anchor="middle" x="242.03" y="-379.1" font-family="FreeSans" font-size="8.00">base class for all</text>
<text text-anchor="middle" x="242.03" y="-370.1" font-family="FreeSans" font-size="8.00">non&#45;graph elements,</text>
<text text-anchor="middle" x="242.03" y="-361.1" font-family="FreeSans" font-size="8.00">e.g. geometric elements</text>
</g>
<!-- JKQTPGeometricPlotElement&#45;&gt;noteJKQTPGeometricPlotElement -->
<g id="edge3" class="edge">
<title>JKQTPGeometricPlotElement&#45;&gt;noteJKQTPGeometricPlotElement</title>
<path fill="none" stroke="black" stroke-dasharray="5,2" d="M242.03,-407.79C242.03,-401.91 242.03,-396.02 242.03,-390.14"/>
</g>
<!-- noteJKQTPPlotAnnotationElement -->
<g id="node8" class="node">
<title>noteJKQTPPlotAnnotationElement</title>
<polygon fill="lightyellow" stroke="lightyellow" points="294.03,-282 184.03,-282 184.03,-246 300.03,-246 300.03,-276 294.03,-282"/>
<polyline fill="none" stroke="lightyellow" points="294.03,-282 294.03,-276 "/>
<polyline fill="none" stroke="lightyellow" points="300.03,-276 294.03,-276 "/>
<text text-anchor="middle" x="242.03" y="-271.1" font-family="FreeSans" font-size="8.00">base class for all</text>
<text text-anchor="middle" x="242.03" y="-262.1" font-family="FreeSans" font-size="8.00">graph annotation elements,</text>
<text text-anchor="middle" x="242.03" y="-253.1" font-family="FreeSans" font-size="8.00">e.g. text, symbols, ranges ...</text>
</g>
<!-- JKQTPPlotAnnotationElement&#45;&gt;noteJKQTPPlotAnnotationElement -->
<g id="edge4" class="edge">
<title>JKQTPPlotAnnotationElement&#45;&gt;noteJKQTPPlotAnnotationElement</title>
<path fill="none" stroke="black" stroke-dasharray="5,2" d="M242.03,-299.79C242.03,-293.91 242.03,-288.02 242.03,-282.14"/>
</g>
<!-- noteJKQTPXYGraph -->
<g id="node10" class="node">
<title>noteJKQTPXYGraph</title>
<polygon fill="lightyellow" stroke="lightyellow" points="476.62,-822 406.62,-822 406.62,-786 482.62,-786 482.62,-816 476.62,-822"/>
<polyline fill="none" stroke="lightyellow" points="476.62,-822 476.62,-816 "/>
<polyline fill="none" stroke="lightyellow" points="482.62,-816 476.62,-816 "/>
<text text-anchor="middle" x="444.62" y="-811.1" font-family="FreeSans" font-size="8.00">base class for all</text>
<text text-anchor="middle" x="444.62" y="-802.1" font-family="FreeSans" font-size="8.00">graphs based on</text>
<text text-anchor="middle" x="444.62" y="-793.1" font-family="FreeSans" font-size="8.00"> (x,y) data pairs</text>
</g>
<!-- JKQTPXYGraph&#45;&gt;noteJKQTPXYGraph -->
<g id="edge5" class="edge">
<title>JKQTPXYGraph&#45;&gt;noteJKQTPXYGraph</title>
<path fill="none" stroke="black" stroke-dasharray="5,2" d="M444.62,-839.79C444.62,-833.91 444.62,-828.02 444.62,-822.14"/>
</g>
<!-- JKQTPXYYGraph -->
<g id="node17" class="node">
<title>JKQTPXYYGraph</title>
<g id="a_node17"><a xlink:href="class_j_k_q_t_p_x_y_y_graph.html" target="_top" xlink:title="JKQTPXYYGraph">
<ellipse fill="none" stroke="black" cx="663.7" cy="-1009" rx="55.85" ry="18"/>
<text text-anchor="middle" x="663.7" y="-1006.5" font-family="FreeSans" font-size="10.00">JKQTPXYYGraph</text>
</a>
</g>
</g>
<!-- JKQTPXYGraph&#45;&gt;JKQTPXYYGraph -->
<g id="edge36" class="edge">
<title>JKQTPXYGraph&#45;&gt;JKQTPXYYGraph</title>
<path fill="none" stroke="black" d="M457.03,-875.76C475.39,-902.88 514.14,-954.37 560.09,-982 572.92,-989.71 587.94,-995.25 602.47,-999.21"/>
<polygon fill="black" stroke="black" points="601.86,-1002.67 612.42,-1001.71 603.57,-995.88 601.86,-1002.67"/>
</g>
<!-- JKQTPXXYGraph -->
<g id="node19" class="node">
<title>JKQTPXXYGraph</title>
<g id="a_node19"><a xlink:href="class_j_k_q_t_p_x_x_y_graph.html" target="_top" xlink:title="JKQTPXXYGraph">
<ellipse fill="none" stroke="black" cx="663.7" cy="-901" rx="55.85" ry="18"/>
<text text-anchor="middle" x="663.7" y="-898.5" font-family="FreeSans" font-size="10.00">JKQTPXXYGraph</text>
</a>
</g>
</g>
<!-- JKQTPXYGraph&#45;&gt;JKQTPXXYGraph -->
<g id="edge37" class="edge">
<title>JKQTPXYGraph&#45;&gt;JKQTPXXYGraph</title>
<path fill="none" stroke="black" d="M490.08,-866.81C523.52,-873.43 569.62,-882.56 605.76,-889.72"/>
<polygon fill="black" stroke="black" points="605.19,-893.18 615.68,-891.69 606.55,-886.31 605.19,-893.18"/>
</g>
<!-- JKQTPXYAndVectorGraph -->
<g id="node21" class="node">
<title>JKQTPXYAndVectorGraph</title>
<g id="a_node21"><a xlink:href="class_j_k_q_t_p_x_y_and_vector_graph.html" target="_top" xlink:title="JKQTPXYAndVectorGraph">
<ellipse fill="none" stroke="black" cx="663.7" cy="-793" rx="78.08" ry="18"/>
<text text-anchor="middle" x="663.7" y="-790.5" font-family="FreeSans" font-size="10.00">JKQTPXYAndVectorGraph</text>
</a>
</g>
</g>
<!-- JKQTPXYGraph&#45;&gt;JKQTPXYAndVectorGraph -->
<g id="edge39" class="edge">
<title>JKQTPXYGraph&#45;&gt;JKQTPXYAndVectorGraph</title>
<path fill="none" stroke="black" d="M481.78,-845.35C504.22,-837.66 533.7,-827.85 560.09,-820 572.97,-816.17 586.83,-812.34 600.08,-808.81"/>
<polygon fill="black" stroke="black" points="601.28,-812.11 610.06,-806.17 599.5,-805.34 601.28,-812.11"/>
</g>
<!-- JKQTPXYBaselineGraph -->
<g id="node23" class="node">
<title>JKQTPXYBaselineGraph</title>
<g id="a_node23"><a xlink:href="class_j_k_q_t_p_x_y_baseline_graph.html" target="_top" xlink:title="JKQTPXYBaselineGraph">
<ellipse fill="none" stroke="black" cx="663.7" cy="-685" rx="73.67" ry="18"/>
<text text-anchor="middle" x="663.7" y="-682.5" font-family="FreeSans" font-size="10.00">JKQTPXYBaselineGraph</text>
</a>
</g>
</g>
<!-- JKQTPXYGraph&#45;&gt;JKQTPXYBaselineGraph -->
<g id="edge38" class="edge">
<title>JKQTPXYGraph&#45;&gt;JKQTPXYBaselineGraph</title>
<path fill="none" stroke="black" d="M491.29,-850.18C503.28,-846.18 515.3,-840.13 524.09,-831 562.42,-791.2 520.32,-750.35 560.09,-712 567.58,-704.78 576.75,-699.43 586.51,-695.48"/>
<polygon fill="black" stroke="black" points="587.75,-698.76 596,-692.11 585.41,-692.16 587.75,-698.76"/>
</g>
<!-- noteJKQTPXGraph -->
<g id="node12" class="node">
<title>noteJKQTPXGraph</title>
<polygon fill="lightyellow" stroke="lightyellow" points="515.62,-714 367.62,-714 367.62,-678 521.62,-678 521.62,-708 515.62,-714"/>
<polyline fill="none" stroke="lightyellow" points="515.62,-714 515.62,-708 "/>
<polyline fill="none" stroke="lightyellow" points="521.62,-708 515.62,-708 "/>
<text text-anchor="middle" x="444.62" y="-703.1" font-family="FreeSans" font-size="8.00">base class for all</text>
<text text-anchor="middle" x="444.62" y="-694.1" font-family="FreeSans" font-size="8.00">graphs based on</text>
<text text-anchor="middle" x="444.62" y="-685.1" font-family="FreeSans" font-size="8.00"> (x,....) data e.g. JKQTPFinancialGraph</text>
</g>
<!-- JKQTPXGraph&#45;&gt;noteJKQTPXGraph -->
<g id="edge6" class="edge">
<title>JKQTPXGraph&#45;&gt;noteJKQTPXGraph</title>
<path fill="none" stroke="black" stroke-dasharray="5,2" d="M444.62,-731.79C444.62,-725.91 444.62,-720.02 444.62,-714.14"/>
</g>
<!-- noteJKQTPSingleColumnGraph -->
<g id="node14" class="node">
<title>noteJKQTPSingleColumnGraph</title>
<polygon fill="lightyellow" stroke="lightyellow" points="489.12,-606 394.12,-606 394.12,-570 495.12,-570 495.12,-600 489.12,-606"/>
<polyline fill="none" stroke="lightyellow" points="489.12,-606 489.12,-600 "/>
<polyline fill="none" stroke="lightyellow" points="495.12,-600 489.12,-600 "/>
<text text-anchor="middle" x="444.62" y="-595.1" font-family="FreeSans" font-size="8.00">base class for all</text>
<text text-anchor="middle" x="444.62" y="-586.1" font-family="FreeSans" font-size="8.00">graphs based on only</text>
<text text-anchor="middle" x="444.62" y="-577.1" font-family="FreeSans" font-size="8.00"> a single column of data</text>
</g>
<!-- JKQTPSingleColumnGraph&#45;&gt;noteJKQTPSingleColumnGraph -->
<g id="edge7" class="edge">
<title>JKQTPSingleColumnGraph&#45;&gt;noteJKQTPSingleColumnGraph</title>
<path fill="none" stroke="black" stroke-dasharray="5,2" d="M444.62,-623.79C444.62,-617.91 444.62,-612.02 444.62,-606.14"/>
</g>
<!-- noteJKQTPImageBase -->
<g id="node16" class="node">
<title>noteJKQTPImageBase</title>
<polygon fill="lightyellow" stroke="lightyellow" points="485.62,-498 397.62,-498 397.62,-462 491.62,-462 491.62,-492 485.62,-498"/>
<polyline fill="none" stroke="lightyellow" points="485.62,-498 485.62,-492 "/>
<polyline fill="none" stroke="lightyellow" points="491.62,-492 485.62,-492 "/>
<text text-anchor="middle" x="444.62" y="-487.1" font-family="FreeSans" font-size="8.00">base class for all</text>
<text text-anchor="middle" x="444.62" y="-478.1" font-family="FreeSans" font-size="8.00">graphs that represent </text>
<text text-anchor="middle" x="444.62" y="-469.1" font-family="FreeSans" font-size="8.00">2D images/matrices</text>
</g>
<!-- JKQTPImageBase&#45;&gt;noteJKQTPImageBase -->
<g id="edge8" class="edge">
<title>JKQTPImageBase&#45;&gt;noteJKQTPImageBase</title>
<path fill="none" stroke="black" stroke-dasharray="5,2" d="M444.62,-515.79C444.62,-509.91 444.62,-504.02 444.62,-498.14"/>
</g>
<!-- JKQTPMathImageBase -->
<g id="node27" class="node">
<title>JKQTPMathImageBase</title>
<g id="a_node27"><a xlink:href="class_j_k_q_t_p_math_image_base.html" target="_top" xlink:title="JKQTPMathImageBase">
<ellipse fill="none" stroke="black" cx="663.7" cy="-573" rx="70.1" ry="18"/>
<text text-anchor="middle" x="663.7" y="-570.5" font-family="FreeSans" font-size="10.00">JKQTPMathImageBase</text>
</a>
</g>
</g>
<!-- JKQTPImageBase&#45;&gt;JKQTPMathImageBase -->
<g id="edge33" class="edge">
<title>JKQTPImageBase&#45;&gt;JKQTPMathImageBase</title>
<path fill="none" stroke="black" d="M494.88,-542.85C524.7,-548.21 563.12,-555.11 595.67,-560.96"/>
<polygon fill="black" stroke="black" points="595.11,-564.41 605.57,-562.74 596.35,-557.52 595.11,-564.41"/>
</g>
<!-- noteJKQTPXYYGraph -->
<g id="node18" class="node">
<title>noteJKQTPXYYGraph</title>
<polygon fill="lightyellow" stroke="lightyellow" points="705.2,-973 616.2,-973 616.2,-937 711.2,-937 711.2,-967 705.2,-973"/>
<polyline fill="none" stroke="lightyellow" points="705.2,-973 705.2,-967 "/>
<polyline fill="none" stroke="lightyellow" points="711.2,-967 705.2,-967 "/>
<text text-anchor="middle" x="663.7" y="-962.1" font-family="FreeSans" font-size="8.00">base class for all</text>
<text text-anchor="middle" x="663.7" y="-953.1" font-family="FreeSans" font-size="8.00">graphs based on</text>
<text text-anchor="middle" x="663.7" y="-944.1" font-family="FreeSans" font-size="8.00"> (x, y1, y2) data triples</text>
</g>
<!-- JKQTPXYYGraph&#45;&gt;noteJKQTPXYYGraph -->
<g id="edge9" class="edge">
<title>JKQTPXYYGraph&#45;&gt;noteJKQTPXYYGraph</title>
<path fill="none" stroke="black" stroke-dasharray="5,2" d="M663.7,-990.79C663.7,-984.91 663.7,-979.02 663.7,-973.14"/>
</g>
<!-- noteJKQTPXXYGraph -->
<g id="node20" class="node">
<title>noteJKQTPXXYGraph</title>
<polygon fill="lightyellow" stroke="lightyellow" points="705.2,-865 616.2,-865 616.2,-829 711.2,-829 711.2,-859 705.2,-865"/>
<polyline fill="none" stroke="lightyellow" points="705.2,-865 705.2,-859 "/>
<polyline fill="none" stroke="lightyellow" points="711.2,-859 705.2,-859 "/>
<text text-anchor="middle" x="663.7" y="-854.1" font-family="FreeSans" font-size="8.00">base class for all</text>
<text text-anchor="middle" x="663.7" y="-845.1" font-family="FreeSans" font-size="8.00">graphs based on</text>
<text text-anchor="middle" x="663.7" y="-836.1" font-family="FreeSans" font-size="8.00"> (x1, x2, y) data triples</text>
</g>
<!-- JKQTPXXYGraph&#45;&gt;noteJKQTPXXYGraph -->
<g id="edge10" class="edge">
<title>JKQTPXXYGraph&#45;&gt;noteJKQTPXXYGraph</title>
<path fill="none" stroke="black" stroke-dasharray="5,2" d="M663.7,-882.79C663.7,-876.91 663.7,-871.02 663.7,-865.14"/>
</g>
<!-- noteJJKQTPXYAndVectorGraph -->
<g id="node22" class="node">
<title>noteJJKQTPXYAndVectorGraph</title>
<polygon fill="lightyellow" stroke="lightyellow" points="718.7,-757 602.7,-757 602.7,-721 724.7,-721 724.7,-751 718.7,-757"/>
<polyline fill="none" stroke="lightyellow" points="718.7,-757 718.7,-751 "/>
<polyline fill="none" stroke="lightyellow" points="724.7,-751 718.7,-751 "/>
<text text-anchor="middle" x="663.7" y="-746.1" font-family="FreeSans" font-size="8.00">base class for all</text>
<text text-anchor="middle" x="663.7" y="-737.1" font-family="FreeSans" font-size="8.00">vector field graphs based on</text>
<text text-anchor="middle" x="663.7" y="-728.1" font-family="FreeSans" font-size="8.00"> (x, y, dx, dy) data quadruples</text>
</g>
<!-- JKQTPXYAndVectorGraph&#45;&gt;noteJJKQTPXYAndVectorGraph -->
<g id="edge11" class="edge">
<title>JKQTPXYAndVectorGraph&#45;&gt;noteJJKQTPXYAndVectorGraph</title>
<path fill="none" stroke="black" stroke-dasharray="5,2" d="M663.7,-774.79C663.7,-768.91 663.7,-763.02 663.7,-757.14"/>
</g>
<!-- noteJJKQTPXYBaselineGraph -->
<g id="node24" class="node">
<title>noteJJKQTPXYBaselineGraph</title>
<polygon fill="lightyellow" stroke="lightyellow" points="720.2,-649 601.2,-649 601.2,-613 726.2,-613 726.2,-643 720.2,-649"/>
<polyline fill="none" stroke="lightyellow" points="720.2,-649 720.2,-643 "/>
<polyline fill="none" stroke="lightyellow" points="726.2,-643 720.2,-643 "/>
<text text-anchor="middle" x="663.7" y="-638.1" font-family="FreeSans" font-size="8.00">base class for all</text>
<text text-anchor="middle" x="663.7" y="-629.1" font-family="FreeSans" font-size="8.00">graphs based on</text>
<text text-anchor="middle" x="663.7" y="-620.1" font-family="FreeSans" font-size="8.00"> (x,y) data pairs and a baseline</text>
</g>
<!-- JKQTPXYBaselineGraph&#45;&gt;noteJJKQTPXYBaselineGraph -->
<g id="edge12" class="edge">
<title>JKQTPXYBaselineGraph&#45;&gt;noteJJKQTPXYBaselineGraph</title>
<path fill="none" stroke="black" stroke-dasharray="5,2" d="M663.7,-666.79C663.7,-660.91 663.7,-655.02 663.7,-649.14"/>
</g>
<!-- JKQTPBarGraphBase -->
<g id="node29" class="node">
<title>JKQTPBarGraphBase</title>
<g id="a_node29"><a xlink:href="class_j_k_q_t_p_bar_graph_base.html" target="_top" xlink:title="JKQTPBarGraphBase">
<ellipse fill="none" stroke="black" cx="891.01" cy="-864" rx="66.54" ry="18"/>
<text text-anchor="middle" x="891.01" y="-861.5" font-family="FreeSans" font-size="10.00">JKQTPBarGraphBase</text>
</a>
</g>
</g>
<!-- JKQTPXYBaselineGraph&#45;&gt;JKQTPBarGraphBase -->
<g id="edge40" class="edge">
<title>JKQTPXYBaselineGraph&#45;&gt;JKQTPBarGraphBase</title>
<path fill="none" stroke="black" d="M731.49,-692.01C744.7,-696.11 757.49,-702.41 767.3,-712 808.65,-752.41 762.86,-795.68 803.3,-837 808.96,-842.78 815.84,-847.33 823.22,-850.91"/>
<polygon fill="black" stroke="black" points="822.2,-854.28 832.78,-854.94 824.92,-847.83 822.2,-854.28"/>
</g>
<!-- JKQTPFilledCurveGraphBase -->
<g id="node31" class="node">
<title>JKQTPFilledCurveGraphBase</title>
<g id="a_node31"><a xlink:href="class_j_k_q_t_p_filled_curve_graph_base.html" target="_top" xlink:title="JKQTPFilledCurveGraphBase">
<ellipse fill="none" stroke="black" cx="891.01" cy="-756" rx="85.21" ry="18"/>
<text text-anchor="middle" x="891.01" y="-753.5" font-family="FreeSans" font-size="10.00">JKQTPFilledCurveGraphBase</text>
</a>
</g>
</g>
<!-- JKQTPXYBaselineGraph&#45;&gt;JKQTPFilledCurveGraphBase -->
<g id="edge41" class="edge">
<title>JKQTPXYBaselineGraph&#45;&gt;JKQTPFilledCurveGraphBase</title>
<path fill="none" stroke="black" d="M718.26,-697.11C734.23,-701.25 751.64,-706.3 767.3,-712 783.93,-718.05 786.82,-722.58 803.3,-729 811.83,-732.32 820.94,-735.52 829.94,-738.49"/>
<polygon fill="black" stroke="black" points="829.03,-741.88 839.62,-741.61 831.18,-735.21 829.03,-741.88"/>
</g>
<!-- JKQTPImpulsesGraphBase -->
<g id="node33" class="node">
<title>JKQTPImpulsesGraphBase</title>
<g id="a_node33"><a xlink:href="class_j_k_q_t_p_impulses_graph_base.html" target="_top" xlink:title="JKQTPImpulsesGraphBase">
<ellipse fill="none" stroke="black" cx="891.01" cy="-648" rx="80.79" ry="18"/>
<text text-anchor="middle" x="891.01" y="-645.5" font-family="FreeSans" font-size="10.00">JKQTPImpulsesGraphBase</text>
</a>
</g>
</g>
<!-- JKQTPXYBaselineGraph&#45;&gt;JKQTPImpulsesGraphBase -->
<g id="edge42" class="edge">
<title>JKQTPXYBaselineGraph&#45;&gt;JKQTPImpulsesGraphBase</title>
<path fill="none" stroke="black" d="M725.37,-675.04C753.12,-670.48 786.26,-665.04 815.51,-660.23"/>
<polygon fill="black" stroke="black" points="816.38,-663.64 825.68,-658.56 815.24,-656.73 816.38,-663.64"/>
</g>
<!-- JKQTPSpecialLineGraphBase -->
<g id="node35" class="node">
<title>JKQTPSpecialLineGraphBase</title>
<g id="a_node35"><a xlink:href="class_j_k_q_t_p_special_line_graph_base.html" target="_top" xlink:title="JKQTPSpecialLineGraphBase">
<ellipse fill="none" stroke="black" cx="891.01" cy="-540" rx="87.92" ry="18"/>
<text text-anchor="middle" x="891.01" y="-537.5" font-family="FreeSans" font-size="10.00">JKQTPSpecialLineGraphBase</text>
</a>
</g>
</g>
<!-- JKQTPXYBaselineGraph&#45;&gt;JKQTPSpecialLineGraphBase -->
<g id="edge43" class="edge">
<title>JKQTPXYBaselineGraph&#45;&gt;JKQTPSpecialLineGraphBase</title>
<path fill="none" stroke="black" d="M730.55,-677.34C743.88,-673.28 756.97,-667.17 767.3,-658 799.84,-629.13 771.42,-596.58 803.3,-567 807.6,-563.02 812.47,-559.62 817.67,-556.72"/>
<polygon fill="black" stroke="black" points="819.23,-559.85 826.67,-552.31 816.15,-553.57 819.23,-559.85"/>
</g>
<!-- noteJKQTPEvaluatedFunctionGraphBase -->
<g id="node26" class="node">
<title>noteJKQTPEvaluatedFunctionGraphBase</title>
<polygon fill="lightyellow" stroke="lightyellow" points="721.7,-429 599.7,-429 599.7,-393 727.7,-393 727.7,-423 721.7,-429"/>
<polyline fill="none" stroke="lightyellow" points="721.7,-429 721.7,-423 "/>
<polyline fill="none" stroke="lightyellow" points="727.7,-423 721.7,-423 "/>
<text text-anchor="middle" x="663.7" y="-418.1" font-family="FreeSans" font-size="8.00">base class for all</text>
<text text-anchor="middle" x="663.7" y="-409.1" font-family="FreeSans" font-size="8.00">graphs that represent </text>
<text text-anchor="middle" x="663.7" y="-400.1" font-family="FreeSans" font-size="8.00">dynamically evaluated functions</text>
</g>
<!-- JKQTPEvaluatedFunctionGraphBase&#45;&gt;noteJKQTPEvaluatedFunctionGraphBase -->
<g id="edge13" class="edge">
<title>JKQTPEvaluatedFunctionGraphBase&#45;&gt;noteJKQTPEvaluatedFunctionGraphBase</title>
<path fill="none" stroke="black" stroke-dasharray="5,2" d="M663.7,-446.79C663.7,-440.91 663.7,-435.02 663.7,-429.14"/>
</g>
<!-- noteJKQTPMathImageBase -->
<g id="node28" class="node">
<title>noteJKQTPMathImageBase</title>
<polygon fill="lightyellow" stroke="lightyellow" points="700.2,-537 621.2,-537 621.2,-501 706.2,-501 706.2,-531 700.2,-537"/>
<polyline fill="none" stroke="lightyellow" points="700.2,-537 700.2,-531 "/>
<polyline fill="none" stroke="lightyellow" points="706.2,-531 700.2,-531 "/>
<text text-anchor="middle" x="663.7" y="-521.6" font-family="FreeSans" font-size="8.00">base class for all</text>
<text text-anchor="middle" x="663.7" y="-512.6" font-family="FreeSans" font-size="8.00">data&#45;based images</text>
</g>
<!-- JKQTPMathImageBase&#45;&gt;noteJKQTPMathImageBase -->
<g id="edge14" class="edge">
<title>JKQTPMathImageBase&#45;&gt;noteJKQTPMathImageBase</title>
<path fill="none" stroke="black" stroke-dasharray="5,2" d="M663.7,-554.79C663.7,-548.91 663.7,-543.02 663.7,-537.14"/>
</g>
<!-- noteJKQTPBarGraphBase -->
<g id="node30" class="node">
<title>noteJKQTPBarGraphBase</title>
<polygon fill="lightyellow" stroke="lightyellow" points="922.51,-828 853.51,-828 853.51,-792 928.51,-792 928.51,-822 922.51,-828"/>
<polyline fill="none" stroke="lightyellow" points="922.51,-828 922.51,-822 "/>
<polyline fill="none" stroke="lightyellow" points="928.51,-822 922.51,-822 "/>
<text text-anchor="middle" x="891.01" y="-812.6" font-family="FreeSans" font-size="8.00">base class for all</text>
<text text-anchor="middle" x="891.01" y="-803.6" font-family="FreeSans" font-size="8.00">barcharts</text>
</g>
<!-- JKQTPBarGraphBase&#45;&gt;noteJKQTPBarGraphBase -->
<g id="edge15" class="edge">
<title>JKQTPBarGraphBase&#45;&gt;noteJKQTPBarGraphBase</title>
<path fill="none" stroke="black" stroke-dasharray="5,2" d="M891.01,-845.79C891.01,-839.91 891.01,-834.02 891.01,-828.14"/>
</g>
<!-- noteJKQTPFilledCurveGraphBase -->
<g id="node32" class="node">
<title>noteJKQTPFilledCurveGraphBase</title>
<polygon fill="lightyellow" stroke="lightyellow" points="922.51,-720 853.51,-720 853.51,-684 928.51,-684 928.51,-714 922.51,-720"/>
<polyline fill="none" stroke="lightyellow" points="922.51,-720 922.51,-714 "/>
<polyline fill="none" stroke="lightyellow" points="928.51,-714 922.51,-714 "/>
<text text-anchor="middle" x="891.01" y="-704.6" font-family="FreeSans" font-size="8.00">base class for all</text>
<text text-anchor="middle" x="891.01" y="-695.6" font-family="FreeSans" font-size="8.00">filled graphs</text>
</g>
<!-- JKQTPFilledCurveGraphBase&#45;&gt;noteJKQTPFilledCurveGraphBase -->
<g id="edge16" class="edge">
<title>JKQTPFilledCurveGraphBase&#45;&gt;noteJKQTPFilledCurveGraphBase</title>
<path fill="none" stroke="black" stroke-dasharray="5,2" d="M891.01,-737.79C891.01,-731.91 891.01,-726.02 891.01,-720.14"/>
</g>
<!-- noteJKQTPImpulsesGraphBase -->
<g id="node34" class="node">
<title>noteJKQTPImpulsesGraphBase</title>
<polygon fill="lightyellow" stroke="lightyellow" points="922.51,-612 853.51,-612 853.51,-576 928.51,-576 928.51,-606 922.51,-612"/>
<polyline fill="none" stroke="lightyellow" points="922.51,-612 922.51,-606 "/>
<polyline fill="none" stroke="lightyellow" points="928.51,-606 922.51,-606 "/>
<text text-anchor="middle" x="891.01" y="-596.6" font-family="FreeSans" font-size="8.00">base class for all</text>
<text text-anchor="middle" x="891.01" y="-587.6" font-family="FreeSans" font-size="8.00">impulse graphs</text>
</g>
<!-- JKQTPImpulsesGraphBase&#45;&gt;noteJKQTPImpulsesGraphBase -->
<g id="edge17" class="edge">
<title>JKQTPImpulsesGraphBase&#45;&gt;noteJKQTPImpulsesGraphBase</title>
<path fill="none" stroke="black" stroke-dasharray="5,2" d="M891.01,-629.79C891.01,-623.91 891.01,-618.02 891.01,-612.14"/>
</g>
<!-- noteJKQTPSpecialLineGraphBase -->
<g id="node36" class="node">
<title>noteJKQTPSpecialLineGraphBase</title>
<polygon fill="lightyellow" stroke="lightyellow" points="925.51,-504 850.51,-504 850.51,-468 931.51,-468 931.51,-498 925.51,-504"/>
<polyline fill="none" stroke="lightyellow" points="925.51,-504 925.51,-498 "/>
<polyline fill="none" stroke="lightyellow" points="931.51,-498 925.51,-498 "/>
<text text-anchor="middle" x="891.01" y="-488.6" font-family="FreeSans" font-size="8.00">base class for all</text>
<text text-anchor="middle" x="891.01" y="-479.6" font-family="FreeSans" font-size="8.00">special line graphs</text>
</g>
<!-- JKQTPSpecialLineGraphBase&#45;&gt;noteJKQTPSpecialLineGraphBase -->
<g id="edge18" class="edge">
<title>JKQTPSpecialLineGraphBase&#45;&gt;noteJKQTPSpecialLineGraphBase</title>
<path fill="none" stroke="black" stroke-dasharray="5,2" d="M891.01,-521.79C891.01,-515.91 891.01,-510.02 891.01,-504.14"/>
</g>
<!-- noteJKQTPBoxplotGraphBase -->
<g id="node38" class="node">
<title>noteJKQTPBoxplotGraphBase</title>
<polygon fill="lightyellow" stroke="lightyellow" points="932.01,-360 844.01,-360 844.01,-324 938.01,-324 938.01,-354 932.01,-360"/>
<polyline fill="none" stroke="lightyellow" points="932.01,-360 932.01,-354 "/>
<polyline fill="none" stroke="lightyellow" points="938.01,-354 932.01,-354 "/>
<text text-anchor="middle" x="891.01" y="-349.1" font-family="FreeSans" font-size="8.00">base class for all</text>
<text text-anchor="middle" x="891.01" y="-340.1" font-family="FreeSans" font-size="8.00">graphs that represent </text>
<text text-anchor="middle" x="891.01" y="-331.1" font-family="FreeSans" font-size="8.00">a set of boxplots</text>
</g>
<!-- JKQTPBoxplotGraphBase&#45;&gt;noteJKQTPBoxplotGraphBase -->
<g id="edge19" class="edge">
<title>JKQTPBoxplotGraphBase&#45;&gt;noteJKQTPBoxplotGraphBase</title>
<path fill="none" stroke="black" stroke-dasharray="5,2" d="M891.01,-377.79C891.01,-371.91 891.01,-366.02 891.01,-360.14"/>
</g>
<!-- noteJKQTPRangeBase -->
<g id="node40" class="node">
<title>noteJKQTPRangeBase</title>
<polygon fill="lightyellow" stroke="lightyellow" points="925.01,-252 851.01,-252 851.01,-216 931.01,-216 931.01,-246 925.01,-252"/>
<polyline fill="none" stroke="lightyellow" points="925.01,-252 925.01,-246 "/>
<polyline fill="none" stroke="lightyellow" points="931.01,-246 925.01,-246 "/>
<text text-anchor="middle" x="891.01" y="-236.6" font-family="FreeSans" font-size="8.00">base class for all</text>
<text text-anchor="middle" x="891.01" y="-227.6" font-family="FreeSans" font-size="8.00">range annotations</text>
</g>
<!-- JKQTPRangeBase&#45;&gt;noteJKQTPRangeBase -->
<g id="edge20" class="edge">
<title>JKQTPRangeBase&#45;&gt;noteJKQTPRangeBase</title>
<path fill="none" stroke="black" stroke-dasharray="5,2" d="M891.01,-269.79C891.01,-263.91 891.01,-258.02 891.01,-252.14"/>
</g>
<!-- noteJKQTPBoxplotElementBase -->
<g id="node42" class="node">
<title>noteJKQTPBoxplotElementBase</title>
<polygon fill="lightyellow" stroke="lightyellow" points="932.01,-144 844.01,-144 844.01,-108 938.01,-108 938.01,-138 932.01,-144"/>
<polyline fill="none" stroke="lightyellow" points="932.01,-144 932.01,-138 "/>
<polyline fill="none" stroke="lightyellow" points="938.01,-138 932.01,-138 "/>
<text text-anchor="middle" x="891.01" y="-133.1" font-family="FreeSans" font-size="8.00">base class for all</text>
<text text-anchor="middle" x="891.01" y="-124.1" font-family="FreeSans" font-size="8.00">graphs that represent </text>
<text text-anchor="middle" x="891.01" y="-115.1" font-family="FreeSans" font-size="8.00">a single boxplot</text>
</g>
<!-- JKQTPBoxplotElementBase&#45;&gt;noteJKQTPBoxplotElementBase -->
<g id="edge21" class="edge">
<title>JKQTPBoxplotElementBase&#45;&gt;noteJKQTPBoxplotElementBase</title>
<path fill="none" stroke="black" stroke-dasharray="5,2" d="M891.01,-161.79C891.01,-155.91 891.01,-150.02 891.01,-144.14"/>
</g>
<!-- noteJKQTPViolinplotElementBase -->
<g id="node44" class="node">
<title>noteJKQTPViolinplotElementBase</title>
<polygon fill="lightyellow" stroke="lightyellow" points="932.01,-36 844.01,-36 844.01,0 938.01,0 938.01,-30 932.01,-36"/>
<polyline fill="none" stroke="lightyellow" points="932.01,-36 932.01,-30 "/>
<polyline fill="none" stroke="lightyellow" points="938.01,-30 932.01,-30 "/>
<text text-anchor="middle" x="891.01" y="-25.1" font-family="FreeSans" font-size="8.00">base class for all</text>
<text text-anchor="middle" x="891.01" y="-16.1" font-family="FreeSans" font-size="8.00">graphs that represent </text>
<text text-anchor="middle" x="891.01" y="-7.1" font-family="FreeSans" font-size="8.00">a single violin plot</text>
</g>
<!-- JKQTPViolinplotElementBase&#45;&gt;noteJKQTPViolinplotElementBase -->
<g id="edge22" class="edge">
<title>JKQTPViolinplotElementBase&#45;&gt;noteJKQTPViolinplotElementBase</title>
<path fill="none" stroke="black" stroke-dasharray="5,2" d="M891.01,-53.79C891.01,-47.91 891.01,-42.02 891.01,-36.14"/>
</g>
</g>
</svg>

<g id="navigator" transform="translate(0 0)" fill="#404254">
  <rect fill="#f2f5e9" fill-opacity="0.5" stroke="#606060" stroke-width=".5" x="0" y="0" width="60" height="60"/>
  <use id="zoomplus" xlink:href="#zoomPlus" x="17" y="9" onmousedown="handleZoom(evt,'in')"/>
  <use id="zoomminus" xlink:href="#zoomMin" x="42" y="9" onmousedown="handleZoom(evt,'out')"/>
  <use id="reset" xlink:href="#resetDef" x="30" y="36" onmousedown="handleReset()"/>
   <use id="arrowup" xlink:href="#arrowUp" x="0" y="0" onmousedown="handlePan(0,-1)"/>
  <use id="arrowright" xlink:href="#arrowRight" x="0" y="0" onmousedown="handlePan(1,0)"/>
  <use id="arrowdown" xlink:href="#arrowDown" x="0" y="0" onmousedown="handlePan(0,1)"/>
  <use id="arrowleft" xlink:href="#arrowLeft" x="0" y="0" onmousedown="handlePan(-1,0)"/>
</g>
<svg viewBox="0 0 15 15" width="100%" height="30px" preserveAspectRatio="xMaxYMin meet">
 <g id="arrow_out" transform="scale(0.3 0.3)">
  <a xlink:href="dot_inline_dotgraph_1_org.svg" target="_base">
   <rect id="button" ry="5" rx="5" y="6" x="6" height="38" width="38"
        fill="#f2f5e9" fill-opacity="0.5" stroke="#606060" stroke-width="1.0"/>
   <path id="arrow"
     d="M 11.500037,31.436501 C 11.940474,20.09759 22.043105,11.32322 32.158766,21.979434 L 37.068811,17.246167 C 37.068811,17.246167 37.088388,32 37.088388,32 L 22.160133,31.978069 C 22.160133,31.978069 26.997745,27.140456 26.997745,27.140456 C 18.528582,18.264221 13.291696,25.230495 11.500037,31.436501 z"
     style="fill:#404040;"/>
  </a>
 </g>
</svg>

<style type='text/css'>
<![CDATA[
[data-mouse-over-selected='false'] { opacity: 0.7; }
[data-mouse-over-selected='true']  { opacity: 1.0; }
]]>
</style>
<script type="application/ecmascript"><![CDATA[
document.addEventListener('DOMContentLoaded', (event) => {
  highlightEdges();
  highlightAdjacentNodes();
});
]]></script>
</svg>
