<?xml version="1.0" encoding="UTF-8" standalone="no"?>
<!DOCTYPE svg PUBLIC "-//W3C//DTD SVG 1.1//EN"
 "http://www.w3.org/Graphics/SVG/1.1/DTD/svg11.dtd">
<!-- Generated by graphviz version 2.43.0 (0)
 -->
<!-- Title: LaTeX Markup Pages: 1 -->
<svg width="550pt" height="68pt"
 viewBox="0.00 0.00 550.00 68.00" xmlns="http://www.w3.org/2000/svg" xmlns:xlink="http://www.w3.org/1999/xlink">
<g id="graph0" class="graph" transform="scale(1 1) rotate(0) translate(4 64)">
<title>LaTeX Markup</title>
<!-- Node2 -->
<g id="Node000002" class="node">
<title>Node2</title>
<g id="a_Node000002"><a xlink:href="group__jkqtmathtext__general__languages.html" target="_top" xlink:title=" ">
<polygon fill="white" stroke="#666666" points="197,-40 0,-40 0,-19 197,-19 197,-40"/>
<text text-anchor="middle" x="98.5" y="-26.4" font-family="Helvetica,sans-Serif" font-size="12.00">Supported Markup Languages</text>
</a>
</g>
</g>
<!-- Node1 -->
<g id="Node000001" class="node">
<title>Node1</title>
<g id="a_Node000001"><a xlink:title=" ">
<polygon fill="#999999" stroke="#666666" points="334,-40 233,-40 233,-19 334,-19 334,-40"/>
<text text-anchor="middle" x="283.5" y="-26.4" font-family="Helvetica,sans-Serif" font-size="12.00">LaTeX Markup</text>
</a>
</g>
</g>
<!-- Node2&#45;&gt;Node1 -->
<g id="edge1" class="edge">
<title>Node2&#45;&gt;Node1</title>
<path fill="none" stroke="black" d="M207.17,-29.5C215.97,-29.5 224.57,-29.5 232.62,-29.5"/>
<polygon fill="black" stroke="black" points="207.16,-26 197.16,-29.5 207.16,-33 207.16,-26"/>
</g>
<!-- Node3 -->
<g id="Node000003" class="node">
<title>Node3</title>
<g id="a_Node000003"><a xlink:href="group__jkqtmathtext__supportedlatex.html" target="_top" xlink:title=" ">
<polygon fill="white" stroke="#666666" points="537,-60 375,-60 375,-39 537,-39 537,-60"/>
<text text-anchor="middle" x="456" y="-46.4" font-family="Helvetica,sans-Serif" font-size="12.00">Supported LaTeX&#45;Subset</text>
</a>
</g>
</g>
<!-- Node1&#45;&gt;Node3 -->
<g id="edge2" class="edge">
<title>Node1&#45;&gt;Node3</title>
<path fill="none" stroke="black" d="M344.31,-36.52C354.14,-37.67 364.46,-38.88 374.69,-40.08"/>
<polygon fill="black" stroke="black" points="344.61,-33.03 334.27,-35.34 343.8,-39.98 344.61,-33.03"/>
</g>
<!-- Node4 -->
<g id="Node000004" class="node">
<title>Node4</title>
<g id="a_Node000004"><a xlink:href="group__jkqtmathtext__supportedlatexsymbols.html" target="_top" xlink:title=" ">
<polygon fill="white" stroke="#666666" points="542,-21 370,-21 370,0 542,0 542,-21"/>
<text text-anchor="middle" x="456" y="-7.4" font-family="Helvetica,sans-Serif" font-size="12.00">Supported LaTeX&#45;Symbols</text>
</a>
</g>
</g>
<!-- Node1&#45;&gt;Node4 -->
<g id="edge3" class="edge">
<title>Node1&#45;&gt;Node4</title>
<path fill="none" stroke="black" d="M344.22,-22.85C352.53,-21.92 361.21,-20.95 369.88,-19.99"/>
<polygon fill="black" stroke="black" points="343.82,-19.37 334.27,-23.95 344.6,-26.32 343.82,-19.37"/>
</g>
</g>
</svg>
