<?xml version="1.0" encoding="UTF-8" standalone="no"?>
<!DOCTYPE svg PUBLIC "-//W3C//DTD SVG 1.1//EN"
 "http://www.w3.org/Graphics/SVG/1.1/DTD/svg11.dtd">
<!-- Generated by graphviz version 2.43.0 (0)
 -->
<!-- Title: Interfaces To Other Libraries Pages: 1 -->
<svg width="514pt" height="82pt"
 viewBox="0.00 0.00 514.00 81.50" xmlns="http://www.w3.org/2000/svg" xmlns:xlink="http://www.w3.org/1999/xlink">
<g id="graph0" class="graph" transform="scale(1 1) rotate(0) translate(4 77.5)">
<title>Interfaces To Other Libraries</title>
<!-- Node2 -->
<g id="Node000002" class="node">
<title>Node2</title>
<g id="a_Node000002"><a xlink:href="group__jkqtpdatastorage__classes.html" target="_top" xlink:title=" ">
<polygon fill="white" stroke="#666666" points="144,-50.5 0,-50.5 0,-29.5 144,-29.5 144,-50.5"/>
<text text-anchor="middle" x="72" y="-36.9" font-family="Helvetica,sans-Serif" font-size="12.00">Data Storage Classes</text>
</a>
</g>
</g>
<!-- Node1 -->
<g id="Node000001" class="node">
<title>Node1</title>
<g id="a_Node000001"><a xlink:title=" ">
<polygon fill="#999999" stroke="#666666" points="312,-57 180,-57 180,-23 312,-23 312,-57"/>
<text text-anchor="start" x="188" y="-43.4" font-family="Helvetica,sans-Serif" font-size="12.00">Interfaces To Other</text>
<text text-anchor="middle" x="246" y="-30.4" font-family="Helvetica,sans-Serif" font-size="12.00"> Libraries</text>
</a>
</g>
</g>
<!-- Node2&#45;&gt;Node1 -->
<g id="edge1" class="edge">
<title>Node2&#45;&gt;Node1</title>
<path fill="none" stroke="black" d="M154.69,-40C163.12,-40 171.61,-40 179.82,-40"/>
<polygon fill="black" stroke="black" points="154.45,-36.5 144.45,-40 154.45,-43.5 154.45,-36.5"/>
</g>
<!-- Node3 -->
<g id="Node000003" class="node">
<title>Node3</title>
<g id="a_Node000003"><a xlink:href="group__jkqtpinterfacecimg.html" target="_top" xlink:title=" ">
<polygon fill="white" stroke="#666666" points="506,-73.5 348,-73.5 348,-52.5 506,-52.5 506,-73.5"/>
<text text-anchor="middle" x="427" y="-59.9" font-family="Helvetica,sans-Serif" font-size="12.00">CImg Interfaceing Tools</text>
</a>
</g>
</g>
<!-- Node1&#45;&gt;Node3 -->
<g id="edge2" class="edge">
<title>Node1&#45;&gt;Node3</title>
<path fill="none" stroke="black" d="M322.31,-49.68C330.75,-50.76 339.36,-51.87 347.83,-52.96"/>
<polygon fill="black" stroke="black" points="322.49,-46.17 312.13,-48.37 321.6,-53.11 322.49,-46.17"/>
</g>
<!-- Node4 -->
<g id="Node000004" class="node">
<title>Node4</title>
<g id="a_Node000004"><a xlink:href="group__jkqtpinterfaceopencv.html" target="_top" xlink:title=" ">
<polygon fill="white" stroke="#666666" points="498,-34 356,-34 356,0 498,0 498,-34"/>
<text text-anchor="start" x="364" y="-20.4" font-family="Helvetica,sans-Serif" font-size="12.00">OpenCV Interfaceing</text>
<text text-anchor="middle" x="427" y="-7.4" font-family="Helvetica,sans-Serif" font-size="12.00"> Tools</text>
</a>
</g>
</g>
<!-- Node1&#45;&gt;Node4 -->
<g id="edge3" class="edge">
<title>Node1&#45;&gt;Node4</title>
<path fill="none" stroke="black" d="M322.24,-30.33C333.35,-28.9 344.77,-27.44 355.79,-26.02"/>
<polygon fill="black" stroke="black" points="321.6,-26.89 312.13,-31.63 322.49,-33.83 321.6,-26.89"/>
</g>
</g>
</svg>
