<?xml version="1.0" encoding="UTF-8" standalone="no"?>
<!DOCTYPE svg PUBLIC "-//W3C//DTD SVG 1.1//EN"
 "http://www.w3.org/Graphics/SVG/1.1/DTD/svg11.dtd">
<!-- Generated by graphviz version 2.43.0 (0)
 -->
<!-- Title: Usage of JKQTPlotter Pages: 1 -->
<svg width="545pt" height="198pt"
 viewBox="0.00 0.00 545.00 198.00" xmlns="http://www.w3.org/2000/svg" xmlns:xlink="http://www.w3.org/1999/xlink">
<g id="graph0" class="graph" transform="scale(1 1) rotate(0) translate(4 194)">
<title>Usage of JKQTPlotter</title>
<!-- Node2 -->
<g id="Node000002" class="node">
<title>Node2</title>
<g id="a_Node000002"><a xlink:href="group__jkqtplotter__general.html" target="_top" xlink:title=" ">
<polygon fill="white" stroke="#666666" points="137,-105.5 0,-105.5 0,-84.5 137,-84.5 137,-105.5"/>
<text text-anchor="middle" x="68.5" y="-91.9" font-family="Helvetica,sans-Serif" font-size="12.00">General Information</text>
</a>
</g>
</g>
<!-- Node1 -->
<g id="Node000001" class="node">
<title>Node1</title>
<g id="a_Node000001"><a xlink:title=" ">
<polygon fill="#999999" stroke="#666666" points="315,-105.5 173,-105.5 173,-84.5 315,-84.5 315,-105.5"/>
<text text-anchor="middle" x="244" y="-91.9" font-family="Helvetica,sans-Serif" font-size="12.00">Usage of JKQTPlotter</text>
</a>
</g>
</g>
<!-- Node2&#45;&gt;Node1 -->
<g id="edge1" class="edge">
<title>Node2&#45;&gt;Node1</title>
<path fill="none" stroke="black" d="M147.33,-95C155.79,-95 164.38,-95 172.75,-95"/>
<polygon fill="black" stroke="black" points="147.08,-91.5 137.08,-95 147.08,-98.5 147.08,-91.5"/>
</g>
<!-- Node5 -->
<g id="Node000005" class="node">
<title>Node5</title>
<g id="a_Node000005"><a xlink:href="group__jkqtplotter__general__usage__jkqtbaseplotter.html" target="_top" xlink:title=" ">
<polygon fill="white" stroke="#666666" points="529.5,-190 358.5,-190 358.5,-156 529.5,-156 529.5,-190"/>
<text text-anchor="start" x="366.5" y="-176.4" font-family="Helvetica,sans-Serif" font-size="12.00">Usage of JKQTBasePlotter</text>
<text text-anchor="middle" x="444" y="-163.4" font-family="Helvetica,sans-Serif" font-size="12.00"> Non&#45;Visible Class</text>
</a>
</g>
</g>
<!-- Node1&#45;&gt;Node5 -->
<g id="edge4" class="edge">
<title>Node1&#45;&gt;Node5</title>
<path fill="none" stroke="black" d="M273.07,-110.51C294.09,-121.68 323.78,-136.57 351,-147 359.37,-150.21 368.3,-153.22 377.19,-155.97"/>
<polygon fill="black" stroke="black" points="274.53,-107.32 264.07,-105.66 271.22,-113.48 274.53,-107.32"/>
</g>
<!-- Node6 -->
<g id="Node000006" class="node">
<title>Node6</title>
<g id="a_Node000006"><a xlink:href="group__jkqtplotter__general__usage__jkqtplotter.html" target="_top" xlink:title=" ">
<polygon fill="white" stroke="#666666" points="515,-138 373,-138 373,-104 515,-104 515,-138"/>
<text text-anchor="start" x="381" y="-124.4" font-family="Helvetica,sans-Serif" font-size="12.00">Usage of JKQTPlotter</text>
<text text-anchor="middle" x="444" y="-111.4" font-family="Helvetica,sans-Serif" font-size="12.00"> Widget</text>
</a>
</g>
</g>
<!-- Node1&#45;&gt;Node6 -->
<g id="edge5" class="edge">
<title>Node1&#45;&gt;Node6</title>
<path fill="none" stroke="black" d="M325.29,-105.54C340.99,-107.6 357.33,-109.75 372.67,-111.77"/>
<polygon fill="black" stroke="black" points="325.46,-102.04 315.09,-104.2 324.55,-108.98 325.46,-102.04"/>
</g>
<!-- Node3 -->
<g id="Node000003" class="node">
<title>Node3</title>
<g id="a_Node000003"><a xlink:href="group__jkqtplotter__general__usage__qtcreator.html" target="_top" xlink:title=" ">
<polygon fill="white" stroke="#666666" points="526,-86 362,-86 362,-52 526,-52 526,-86"/>
<text text-anchor="start" x="370" y="-72.4" font-family="Helvetica,sans-Serif" font-size="12.00">How to use JKQTPlotter</text>
<text text-anchor="middle" x="444" y="-59.4" font-family="Helvetica,sans-Serif" font-size="12.00"> in the Qt Form Designer</text>
</a>
</g>
</g>
<!-- Node1&#45;&gt;Node3 -->
<g id="edge2" class="edge">
<title>Node1&#45;&gt;Node3</title>
<path fill="none" stroke="black" d="M325.14,-84.48C337.24,-82.89 349.73,-81.25 361.85,-79.66"/>
<polygon fill="black" stroke="black" points="324.55,-81.02 315.09,-85.8 325.46,-87.96 324.55,-81.02"/>
</g>
<!-- Node4 -->
<g id="Node000004" class="node">
<title>Node4</title>
<g id="a_Node000004"><a xlink:href="group__jkqtplotter__general__usage__speedplotsetup.html" target="_top" xlink:title=" ">
<polygon fill="white" stroke="#666666" points="537,-34 351,-34 351,0 537,0 537,-34"/>
<text text-anchor="start" x="359" y="-20.4" font-family="Helvetica,sans-Serif" font-size="12.00">Performance Considerations</text>
<text text-anchor="middle" x="444" y="-7.4" font-family="Helvetica,sans-Serif" font-size="12.00"> when Setting up Plots</text>
</a>
</g>
</g>
<!-- Node1&#45;&gt;Node4 -->
<g id="edge3" class="edge">
<title>Node1&#45;&gt;Node4</title>
<path fill="none" stroke="black" d="M273.07,-79.49C294.09,-68.32 323.78,-53.43 351,-43 359.37,-39.79 368.3,-36.78 377.19,-34.03"/>
<polygon fill="black" stroke="black" points="271.22,-76.52 264.07,-84.34 274.53,-82.68 271.22,-76.52"/>
</g>
</g>
</svg>
