<?xml version="1.0" encoding="UTF-8" standalone="no"?>
<!DOCTYPE svg PUBLIC "-//W3C//DTD SVG 1.1//EN"
 "http://www.w3.org/Graphics/SVG/1.1/DTD/svg11.dtd">
<!-- Generated by graphviz version 2.43.0 (0)
 -->
<!-- Title: JKQTCommon: Diverse Basic Utilities Pages: 1 -->
<!--zoomable 540 -->

<svg id="main" version="1.1" xmlns="http://www.w3.org/2000/svg" xmlns:xlink="http://www.w3.org/1999/xlink" xml:space="preserve" onload="init(evt)">

<style type="text/css"><![CDATA[
.node, .edge {opacity: 0.7;}
.node.selected, .edge.selected {opacity: 1;}
.edge:hover path { stroke: red; }
.edge:hover polygon { stroke: red; fill: red; }
]]></style>

<defs>
  <circle id="rim" cx="0" cy="0" r="7"/>
  <circle id="rim2" cx="0" cy="0" r="3.5"/>
  <g id="zoomPlus">
    <use xlink:href="#rim" fill="#404040"><set attributeName="fill" to="#808080" begin="zoomplus.mouseover" end="zoomplus.mouseout"/></use>
    <path d="M-4,0h8M0,-4v8" fill="none" stroke="white" stroke-width="1.5" pointer-events="none"/>
  </g>
  <g id="zoomMin">
    <use xlink:href="#rim" fill="#404040"><set attributeName="fill" to="#808080" begin="zoomminus.mouseover" end="zoomminus.mouseout"/></use>
    <path d="M-4,0h8" fill="none" stroke="white" stroke-width="1.5" pointer-events="none"/>
  </g>
  <g id="arrowUp" transform="translate(30 24)">
    <use xlink:href="#rim"/>
    <path pointer-events="none" fill="none" stroke="white" stroke-width="1.5" d="M0,-3.0v7 M-2.5,-0.5L0,-3.0L2.5,-0.5"/>
  </g>
  <g id="arrowRight" transform="rotate(90) translate(36 -43)">
    <use xlink:href="#rim"/>
    <path pointer-events="none" fill="none" stroke="white" stroke-width="1.5" d="M0,-3.0v7 M-2.5,-0.5L0,-3.0L2.5,-0.5"/>
  </g>
  <g id="arrowDown" transform="rotate(180) translate(-30 -48)">
    <use xlink:href="#rim"/>
    <path pointer-events="none" fill="none" stroke="white" stroke-width="1.5" d="M0,-3.0v7 M-2.5,-0.5L0,-3.0L2.5,-0.5"/>
  </g>
  <g id="arrowLeft" transform="rotate(270) translate(-36 17)">
    <use xlink:href="#rim"/>
    <path pointer-events="none" fill="none" stroke="white" stroke-width="1.5" d="M0,-3.0v7 M-2.5,-0.5L0,-3.0L2.5,-0.5"/>
  </g>
  <g id="resetDef">
    <use xlink:href="#rim2" fill="#404040"><set attributeName="fill" to="#808080" begin="reset.mouseover" end="reset.mouseout"/></use>
  </g>
</defs>
<script type="application/ecmascript">
var viewWidth = 363;
var viewHeight = 540;
var sectionId = 'dynsection-0';
</script>
<script type="application/ecmascript" xlink:href="svg.min.js"/>
<svg id="graph" class="graph">
<g id="viewport">
<title>JKQTCommon: Diverse Basic Utilities</title>
<!-- Node4 -->
<g id="Node000004" class="node">
<title>Node4</title>
<g id="a_Node000004"><a xlink:href="group__jkqtptools__codestructuring.html" target="_top" xlink:title=" ">
<polygon fill="white" stroke="#666666" points="347,-531.5 196,-531.5 196,-510.5 347,-510.5 347,-531.5"/>
<text text-anchor="middle" x="271.5" y="-517.9" font-family="Helvetica,sans-Serif" font-size="12.00">Code Structuring Tools</text>
</a>
</g>
</g>
<!-- Node13 -->
<g id="Node000013" class="node">
<title>Node13</title>
<g id="a_Node000013"><a xlink:href="group__jkqtptools__concurrency.html" target="_top" xlink:title=" ">
<polygon fill="white" stroke="#666666" points="353.5,-492 189.5,-492 189.5,-458 353.5,-458 353.5,-492"/>
<text text-anchor="start" x="197.5" y="-478.4" font-family="Helvetica,sans-Serif" font-size="12.00">Tools, Templates and</text>
<text text-anchor="middle" x="271.5" y="-465.4" font-family="Helvetica,sans-Serif" font-size="12.00"> Classes for Concurrency</text>
</a>
</g>
</g>
<!-- Node3 -->
<g id="Node000003" class="node">
<title>Node3</title>
<g id="a_Node000003"><a xlink:href="group__jkqtptools__css.html" target="_top" xlink:title=" ">
<polygon fill="white" stroke="#666666" points="331.5,-439.5 211.5,-439.5 211.5,-418.5 331.5,-418.5 331.5,-439.5"/>
<text text-anchor="middle" x="271.5" y="-425.9" font-family="Helvetica,sans-Serif" font-size="12.00">CSS Parsing Tools</text>
</a>
</g>
</g>
<!-- Node5 -->
<g id="Node000005" class="node">
<title>Node5</title>
<g id="a_Node000005"><a xlink:href="group__jkqtptools__debugging.html" target="_top" xlink:title=" ">
<polygon fill="white" stroke="#666666" points="328.5,-400.5 214.5,-400.5 214.5,-379.5 328.5,-379.5 328.5,-400.5"/>
<text text-anchor="middle" x="271.5" y="-386.9" font-family="Helvetica,sans-Serif" font-size="12.00">Debugging Tools</text>
</a>
</g>
</g>
<!-- Node6 -->
<g id="Node000006" class="node">
<title>Node6</title>
<g id="a_Node000006"><a xlink:href="group__jkqtptools__drawing.html" target="_top" xlink:title=" ">
<polygon fill="white" stroke="#666666" points="339,-361 204,-361 204,-327 339,-327 339,-361"/>
<text text-anchor="start" x="212" y="-347.4" font-family="Helvetica,sans-Serif" font-size="12.00">Drawing &amp; Graphics</text>
<text text-anchor="middle" x="271.5" y="-334.4" font-family="Helvetica,sans-Serif" font-size="12.00"> Tools</text>
</a>
</g>
</g>
<!-- Node7 -->
<g id="Node000007" class="node">
<title>Node7</title>
<g id="a_Node000007"><a xlink:href="group__jkqtptools__general.html" target="_top" xlink:title=" ">
<polygon fill="white" stroke="#666666" points="340,-309 203,-309 203,-275 340,-275 340,-309"/>
<text text-anchor="start" x="211" y="-295.4" font-family="Helvetica,sans-Serif" font-size="12.00">General Functions &amp;</text>
<text text-anchor="middle" x="271.5" y="-282.4" font-family="Helvetica,sans-Serif" font-size="12.00"> Tools</text>
</a>
</g>
</g>
<!-- Node10 -->
<g id="Node000010" class="node">
<title>Node10</title>
<g id="a_Node000010"><a xlink:href="group__jkqtptools__icons.html" target="_top" xlink:title=" ">
<polygon fill="white" stroke="#666666" points="355,-256.5 188,-256.5 188,-235.5 355,-235.5 355,-256.5"/>
<text text-anchor="middle" x="271.5" y="-242.9" font-family="Helvetica,sans-Serif" font-size="12.00">Special QIcon generation</text>
</a>
</g>
</g>
<!-- Node1 -->
<g id="Node000001" class="node">
<title>Node1</title>
<g id="a_Node000001"><a xlink:title=" ">
<polygon fill="#999999" stroke="#666666" points="152,-286 0,-286 0,-252 152,-252 152,-286"/>
<text text-anchor="start" x="8" y="-272.4" font-family="Helvetica,sans-Serif" font-size="12.00">JKQTCommon: Diverse</text>
<text text-anchor="middle" x="76" y="-259.4" font-family="Helvetica,sans-Serif" font-size="12.00"> Basic Utilities</text>
</a>
</g>
</g>
<!-- Node1&#45;&gt;Node4 -->
<g id="edge3" class="edge">
<title>Node1&#45;&gt;Node4</title>
<path fill="none" stroke="black" d="M82.02,-295.9C92.57,-344.6 121.76,-447.3 188,-501 192.69,-504.81 198,-507.9 203.6,-510.43"/>
<polygon fill="black" stroke="black" points="85.45,-295.18 79.99,-286.09 78.59,-296.59 85.45,-295.18"/>
</g>
<!-- Node1&#45;&gt;Node13 -->
<g id="edge12" class="edge">
<title>Node1&#45;&gt;Node13</title>
<path fill="none" stroke="black" d="M86.44,-295.64C101.71,-334.91 135.51,-408.11 188,-449 192.38,-452.41 197.22,-455.39 202.3,-457.97"/>
<polygon fill="black" stroke="black" points="89.68,-294.31 82.88,-286.19 83.14,-296.79 89.68,-294.31"/>
</g>
<!-- Node1&#45;&gt;Node3 -->
<g id="edge2" class="edge">
<title>Node1&#45;&gt;Node3</title>
<path fill="none" stroke="black" d="M90.39,-295.3C108.19,-327.51 142.74,-381.3 188,-410 195.08,-414.49 203.09,-417.92 211.27,-420.54"/>
<polygon fill="black" stroke="black" points="93.44,-293.58 85.61,-286.44 87.27,-296.9 93.44,-293.58"/>
</g>
<!-- Node1&#45;&gt;Node5 -->
<g id="edge4" class="edge">
<title>Node1&#45;&gt;Node5</title>
<path fill="none" stroke="black" d="M97.58,-293.83C118.12,-316.99 151.77,-350.77 188,-370 196.07,-374.28 205.07,-377.67 214.08,-380.33"/>
<polygon fill="black" stroke="black" points="100.08,-291.38 90.88,-286.13 94.8,-295.97 100.08,-291.38"/>
</g>
<!-- Node1&#45;&gt;Node6 -->
<g id="edge5" class="edge">
<title>Node1&#45;&gt;Node6</title>
<path fill="none" stroke="black" d="M122.24,-290.33C142.19,-299.38 166.05,-309.73 188,-318 196.15,-321.07 204.84,-324.09 213.41,-326.91"/>
<polygon fill="black" stroke="black" points="123.63,-287.11 113.08,-286.14 120.72,-293.48 123.63,-287.11"/>
</g>
<!-- Node1&#45;&gt;Node7 -->
<g id="edge6" class="edge">
<title>Node1&#45;&gt;Node7</title>
<path fill="none" stroke="black" d="M162.35,-279.14C175.86,-280.75 189.68,-282.39 202.72,-283.94"/>
<polygon fill="black" stroke="black" points="162.43,-275.63 152.09,-277.93 161.61,-282.58 162.43,-275.63"/>
</g>
<!-- Node1&#45;&gt;Node10 -->
<g id="edge9" class="edge">
<title>Node1&#45;&gt;Node10</title>
<path fill="none" stroke="black" d="M162.04,-258.89C170.58,-257.88 179.24,-256.85 187.75,-255.84"/>
<polygon fill="black" stroke="black" points="161.61,-255.42 152.09,-260.07 162.43,-262.37 161.61,-255.42"/>
</g>
<!-- Node8 -->
<g id="Node000008" class="node">
<title>Node8</title>
<g id="a_Node000008"><a xlink:href="group__jkqtptools__libfacilities.html" target="_top" xlink:title=" ">
<polygon fill="white" stroke="#666666" points="333.5,-217 209.5,-217 209.5,-183 333.5,-183 333.5,-217"/>
<text text-anchor="start" x="217.5" y="-203.4" font-family="Helvetica,sans-Serif" font-size="12.00">Library Facilities</text>
<text text-anchor="middle" x="271.5" y="-190.4" font-family="Helvetica,sans-Serif" font-size="12.00"> for JKQTCommon</text>
</a>
</g>
</g>
<!-- Node1&#45;&gt;Node8 -->
<g id="edge7" class="edge">
<title>Node1&#45;&gt;Node8</title>
<path fill="none" stroke="black" d="M129.93,-248.41C148.26,-241.43 168.97,-233.71 188,-227 197.38,-223.69 207.41,-220.3 217.12,-217.08"/>
<polygon fill="black" stroke="black" points="128.68,-245.14 120.59,-251.98 131.18,-251.68 128.68,-245.14"/>
</g>
<!-- Node9 -->
<g id="Node000009" class="node">
<title>Node9</title>
<g id="a_Node000009"><a xlink:href="group__jkqtptools__math__basic.html" target="_top" xlink:title=" ">
<polygon fill="white" stroke="#666666" points="350.5,-165 192.5,-165 192.5,-131 350.5,-131 350.5,-165"/>
<text text-anchor="start" x="200.5" y="-151.4" font-family="Helvetica,sans-Serif" font-size="12.00">Mathematical Functions</text>
<text text-anchor="middle" x="271.5" y="-138.4" font-family="Helvetica,sans-Serif" font-size="12.00"> &amp; Tools</text>
</a>
</g>
</g>
<!-- Node1&#45;&gt;Node9 -->
<g id="edge8" class="edge">
<title>Node1&#45;&gt;Node9</title>
<path fill="none" stroke="black" d="M99.89,-244.46C120.96,-223.16 154.02,-192.85 188,-174 194.04,-170.65 200.57,-167.66 207.23,-165.02"/>
<polygon fill="black" stroke="black" points="97.15,-242.26 92.69,-251.86 102.17,-247.14 97.15,-242.26"/>
</g>
<!-- Node12 -->
<g id="Node000012" class="node">
<title>Node12</title>
<g id="a_Node000012"><a xlink:href="group__jkqtptools__qt.html" target="_top" xlink:title=" ">
<polygon fill="white" stroke="#666666" points="354,-112.5 189,-112.5 189,-91.5 354,-91.5 354,-112.5"/>
<text text-anchor="middle" x="271.5" y="-98.9" font-family="Helvetica,sans-Serif" font-size="12.00">Tools around Qt&#39;s clasess</text>
</a>
</g>
</g>
<!-- Node1&#45;&gt;Node12 -->
<g id="edge11" class="edge">
<title>Node1&#45;&gt;Node12</title>
<path fill="none" stroke="black" d="M89.6,-242.72C106.99,-209.37 141.53,-152.51 188,-122 193.79,-118.2 200.24,-115.12 206.9,-112.62"/>
<polygon fill="black" stroke="black" points="86.37,-241.36 84.96,-251.87 92.61,-244.53 86.37,-241.36"/>
</g>
<!-- Node2 -->
<g id="Node000002" class="node">
<title>Node2</title>
<g id="a_Node000002"><a xlink:href="group__jkqtptools__qtwidgets.html" target="_top" xlink:title=" ">
<polygon fill="white" stroke="#666666" points="344,-73.5 199,-73.5 199,-52.5 344,-52.5 344,-73.5"/>
<text text-anchor="middle" x="271.5" y="-59.9" font-family="Helvetica,sans-Serif" font-size="12.00">Additional Qt Widgets</text>
</a>
</g>
</g>
<!-- Node1&#45;&gt;Node2 -->
<g id="edge1" class="edge">
<title>Node1&#45;&gt;Node2</title>
<path fill="none" stroke="black" d="M85.42,-242.21C99.69,-201.33 132.61,-123.84 188,-83 193.22,-79.15 199.08,-76.04 205.21,-73.51"/>
<polygon fill="black" stroke="black" points="82.08,-241.17 82.19,-251.77 88.71,-243.41 82.08,-241.17"/>
</g>
<!-- Node11 -->
<g id="Node000011" class="node">
<title>Node11</title>
<g id="a_Node000011"><a xlink:href="group__jkqtptools__string.html" target="_top" xlink:title=" ">
<polygon fill="white" stroke="#666666" points="337.5,-34 205.5,-34 205.5,0 337.5,0 337.5,-34"/>
<text text-anchor="start" x="213.5" y="-20.4" font-family="Helvetica,sans-Serif" font-size="12.00">String(&#45;Conversion)</text>
<text text-anchor="middle" x="271.5" y="-7.4" font-family="Helvetica,sans-Serif" font-size="12.00"> Functions</text>
</a>
</g>
</g>
<!-- Node1&#45;&gt;Node11 -->
<g id="edge10" class="edge">
<title>Node1&#45;&gt;Node11</title>
<path fill="none" stroke="black" d="M83.01,-242.06C94.88,-195.07 125.74,-97.99 188,-44 193.12,-39.56 198.99,-35.84 205.19,-32.74"/>
<polygon fill="black" stroke="black" points="79.6,-241.28 80.64,-251.82 86.4,-242.93 79.6,-241.28"/>
</g>
</g>
</svg>

<g id="navigator" transform="translate(0 0)" fill="#404254">
  <rect fill="#f2f5e9" fill-opacity="0.5" stroke="#606060" stroke-width=".5" x="0" y="0" width="60" height="60"/>
  <use id="zoomplus" xlink:href="#zoomPlus" x="17" y="9" onmousedown="handleZoom(evt,'in')"/>
  <use id="zoomminus" xlink:href="#zoomMin" x="42" y="9" onmousedown="handleZoom(evt,'out')"/>
  <use id="reset" xlink:href="#resetDef" x="30" y="36" onmousedown="handleReset()"/>
   <use id="arrowup" xlink:href="#arrowUp" x="0" y="0" onmousedown="handlePan(0,-1)"/>
  <use id="arrowright" xlink:href="#arrowRight" x="0" y="0" onmousedown="handlePan(1,0)"/>
  <use id="arrowdown" xlink:href="#arrowDown" x="0" y="0" onmousedown="handlePan(0,1)"/>
  <use id="arrowleft" xlink:href="#arrowLeft" x="0" y="0" onmousedown="handlePan(-1,0)"/>
</g>
<svg viewBox="0 0 15 15" width="100%" height="30px" preserveAspectRatio="xMaxYMin meet">
 <g id="arrow_out" transform="scale(0.3 0.3)">
  <a xlink:href="group__jkqtptools__jkqtcommon_org.svg" target="_base">
   <rect id="button" ry="5" rx="5" y="6" x="6" height="38" width="38"
        fill="#f2f5e9" fill-opacity="0.5" stroke="#606060" stroke-width="1.0"/>
   <path id="arrow"
     d="M 11.500037,31.436501 C 11.940474,20.09759 22.043105,11.32322 32.158766,21.979434 L 37.068811,17.246167 C 37.068811,17.246167 37.088388,32 37.088388,32 L 22.160133,31.978069 C 22.160133,31.978069 26.997745,27.140456 26.997745,27.140456 C 18.528582,18.264221 13.291696,25.230495 11.500037,31.436501 z"
     style="fill:#404040;"/>
  </a>
 </g>
</svg>

<style type='text/css'>
<![CDATA[
[data-mouse-over-selected='false'] { opacity: 0.7; }
[data-mouse-over-selected='true']  { opacity: 1.0; }
]]>
</style>
<script type="application/ecmascript"><![CDATA[
document.addEventListener('DOMContentLoaded', (event) => {
  highlightEdges();
  highlightAdjacentNodes();
});
]]></script>
</svg>
