<?xml version="1.0" encoding="UTF-8" standalone="no"?>
<!DOCTYPE svg PUBLIC "-//W3C//DTD SVG 1.1//EN"
 "http://www.w3.org/Graphics/SVG/1.1/DTD/svg11.dtd">
<!-- Generated by graphviz version 2.43.0 (0)
 -->
<!-- Title: General Information on JKQTMathText Pages: 1 -->
<svg width="552pt" height="121pt"
 viewBox="0.00 0.00 552.00 120.50" xmlns="http://www.w3.org/2000/svg" xmlns:xlink="http://www.w3.org/1999/xlink">
<g id="graph0" class="graph" transform="scale(1 1) rotate(0) translate(4 116.5)">
<title>General Information on JKQTMathText</title>
<!-- Node2 -->
<g id="Node000002" class="node">
<title>Node2</title>
<g id="a_Node000002"><a xlink:href="group__jkqtmathtext.html" target="_top" xlink:title=" ">
<polygon fill="white" stroke="#666666" points="138,-80 0,-80 0,-46 138,-46 138,-80"/>
<text text-anchor="start" x="8" y="-66.4" font-family="Helvetica,sans-Serif" font-size="12.00">JKQTMathText LaTeX</text>
<text text-anchor="middle" x="69" y="-53.4" font-family="Helvetica,sans-Serif" font-size="12.00">&#45;Renderer for Qt</text>
</a>
</g>
</g>
<!-- Node1 -->
<g id="Node000001" class="node">
<title>Node1</title>
<g id="a_Node000001"><a xlink:title=" ">
<polygon fill="#999999" stroke="#666666" points="311,-80 174,-80 174,-46 311,-46 311,-80"/>
<text text-anchor="start" x="182" y="-66.4" font-family="Helvetica,sans-Serif" font-size="12.00">General Information</text>
<text text-anchor="middle" x="242.5" y="-53.4" font-family="Helvetica,sans-Serif" font-size="12.00"> on JKQTMathText</text>
</a>
</g>
</g>
<!-- Node2&#45;&gt;Node1 -->
<g id="edge1" class="edge">
<title>Node2&#45;&gt;Node1</title>
<path fill="none" stroke="black" d="M148.49,-63C156.92,-63 165.45,-63 173.74,-63"/>
<polygon fill="black" stroke="black" points="148.27,-59.5 138.27,-63 148.27,-66.5 148.27,-59.5"/>
</g>
<!-- Node3 -->
<g id="Node000003" class="node">
<title>Node3</title>
<g id="a_Node000003"><a xlink:href="group__jkqtmathtext__fonthandling.html" target="_top" xlink:title=" ">
<polygon fill="white" stroke="#666666" points="495,-112.5 396,-112.5 396,-91.5 495,-91.5 495,-112.5"/>
<text text-anchor="middle" x="445.5" y="-98.9" font-family="Helvetica,sans-Serif" font-size="12.00">Font Handling</text>
</a>
</g>
</g>
<!-- Node1&#45;&gt;Node3 -->
<g id="edge2" class="edge">
<title>Node1&#45;&gt;Node3</title>
<path fill="none" stroke="black" d="M321.14,-78.07C346.24,-82.94 373.35,-88.2 395.75,-92.54"/>
<polygon fill="black" stroke="black" points="321.75,-74.62 311.27,-76.15 320.42,-81.49 321.75,-74.62"/>
</g>
<!-- Node5 -->
<g id="Node000005" class="node">
<title>Node5</title>
<g id="a_Node000005"><a xlink:href="group__jkqtmathtext__general__languages.html" target="_top" xlink:title=" ">
<polygon fill="white" stroke="#666666" points="544,-73.5 347,-73.5 347,-52.5 544,-52.5 544,-73.5"/>
<text text-anchor="middle" x="445.5" y="-59.9" font-family="Helvetica,sans-Serif" font-size="12.00">Supported Markup Languages</text>
</a>
</g>
</g>
<!-- Node1&#45;&gt;Node5 -->
<g id="edge4" class="edge">
<title>Node1&#45;&gt;Node5</title>
<path fill="none" stroke="black" d="M321.29,-63C329.62,-63 338.16,-63 346.67,-63"/>
<polygon fill="black" stroke="black" points="321.27,-59.5 311.27,-63 321.27,-66.5 321.27,-59.5"/>
</g>
<!-- Node4 -->
<g id="Node000004" class="node">
<title>Node4</title>
<g id="a_Node000004"><a xlink:href="group__jkqtmathtext__renderingmodel.html" target="_top" xlink:title=" ">
<polygon fill="white" stroke="#666666" points="527.5,-34 363.5,-34 363.5,0 527.5,0 527.5,-34"/>
<text text-anchor="start" x="371.5" y="-20.4" font-family="Helvetica,sans-Serif" font-size="12.00">JKQTMathText Rendering</text>
<text text-anchor="middle" x="445.5" y="-7.4" font-family="Helvetica,sans-Serif" font-size="12.00"> Model</text>
</a>
</g>
</g>
<!-- Node1&#45;&gt;Node4 -->
<g id="edge3" class="edge">
<title>Node1&#45;&gt;Node4</title>
<path fill="none" stroke="black" d="M321.16,-45.23C337.25,-41.55 354.16,-37.68 370.12,-34.02"/>
<polygon fill="black" stroke="black" points="320.24,-41.85 311.27,-47.49 321.8,-48.67 320.24,-41.85"/>
</g>
</g>
</svg>
