<?xml version="1.0" encoding="UTF-8" standalone="no"?>
<!DOCTYPE svg PUBLIC "-//W3C//DTD SVG 1.1//EN"
 "http://www.w3.org/Graphics/SVG/1.1/DTD/svg11.dtd">
<!-- Generated by graphviz version 2.43.0 (0)
 -->
<!-- Title: Type/Class/Function Documentation Pages: 1 -->
<!--zoomable 264 -->

<svg id="main" version="1.1" xmlns="http://www.w3.org/2000/svg" xmlns:xlink="http://www.w3.org/1999/xlink" xml:space="preserve" onload="init(evt)">

<style type="text/css"><![CDATA[
.node, .edge {opacity: 0.7;}
.node.selected, .edge.selected {opacity: 1;}
.edge:hover path { stroke: red; }
.edge:hover polygon { stroke: red; fill: red; }
]]></style>

<defs>
  <circle id="rim" cx="0" cy="0" r="7"/>
  <circle id="rim2" cx="0" cy="0" r="3.5"/>
  <g id="zoomPlus">
    <use xlink:href="#rim" fill="#404040"><set attributeName="fill" to="#808080" begin="zoomplus.mouseover" end="zoomplus.mouseout"/></use>
    <path d="M-4,0h8M0,-4v8" fill="none" stroke="white" stroke-width="1.5" pointer-events="none"/>
  </g>
  <g id="zoomMin">
    <use xlink:href="#rim" fill="#404040"><set attributeName="fill" to="#808080" begin="zoomminus.mouseover" end="zoomminus.mouseout"/></use>
    <path d="M-4,0h8" fill="none" stroke="white" stroke-width="1.5" pointer-events="none"/>
  </g>
  <g id="arrowUp" transform="translate(30 24)">
    <use xlink:href="#rim"/>
    <path pointer-events="none" fill="none" stroke="white" stroke-width="1.5" d="M0,-3.0v7 M-2.5,-0.5L0,-3.0L2.5,-0.5"/>
  </g>
  <g id="arrowRight" transform="rotate(90) translate(36 -43)">
    <use xlink:href="#rim"/>
    <path pointer-events="none" fill="none" stroke="white" stroke-width="1.5" d="M0,-3.0v7 M-2.5,-0.5L0,-3.0L2.5,-0.5"/>
  </g>
  <g id="arrowDown" transform="rotate(180) translate(-30 -48)">
    <use xlink:href="#rim"/>
    <path pointer-events="none" fill="none" stroke="white" stroke-width="1.5" d="M0,-3.0v7 M-2.5,-0.5L0,-3.0L2.5,-0.5"/>
  </g>
  <g id="arrowLeft" transform="rotate(270) translate(-36 17)">
    <use xlink:href="#rim"/>
    <path pointer-events="none" fill="none" stroke="white" stroke-width="1.5" d="M0,-3.0v7 M-2.5,-0.5L0,-3.0L2.5,-0.5"/>
  </g>
  <g id="resetDef">
    <use xlink:href="#rim2" fill="#404040"><set attributeName="fill" to="#808080" begin="reset.mouseover" end="reset.mouseout"/></use>
  </g>
</defs>
<script type="application/ecmascript">
var viewWidth = 516;
var viewHeight = 264;
var sectionId = 'dynsection-0';
</script>
<script type="application/ecmascript" xlink:href="svg.min.js"/>
<svg id="graph" class="graph">
<g id="viewport">
<title>Type/Class/Function Documentation</title>
<!-- Node3 -->
<g id="Node000003" class="node">
<title>Node3</title>
<g id="a_Node000003"><a xlink:href="group__jkqtpdatastorage__classes.html" target="_top" xlink:title=" ">
<polygon fill="white" stroke="#666666" points="504,-255.5 360,-255.5 360,-234.5 504,-234.5 504,-255.5"/>
<text text-anchor="middle" x="432" y="-241.9" font-family="Helvetica,sans-Serif" font-size="12.00">Data Storage Classes</text>
</a>
</g>
</g>
<!-- Node2 -->
<g id="Node000002" class="node">
<title>Node2</title>
<g id="a_Node000002"><a xlink:href="group__jkqtplotter.html" target="_top" xlink:title=" ">
<polygon fill="white" stroke="#666666" points="152,-161 0,-161 0,-127 152,-127 152,-161"/>
<text text-anchor="start" x="8" y="-147.4" font-family="Helvetica,sans-Serif" font-size="12.00">JKQTPlotter: Qt based</text>
<text text-anchor="middle" x="76" y="-134.4" font-family="Helvetica,sans-Serif" font-size="12.00"> Scientific Plotter Class</text>
</a>
</g>
</g>
<!-- Node1 -->
<g id="Node000001" class="node">
<title>Node1</title>
<g id="a_Node000001"><a xlink:title=" ">
<polygon fill="#999999" stroke="#666666" points="320,-161 188,-161 188,-127 320,-127 320,-161"/>
<text text-anchor="start" x="196" y="-147.4" font-family="Helvetica,sans-Serif" font-size="12.00">Type/Class/Function</text>
<text text-anchor="middle" x="254" y="-134.4" font-family="Helvetica,sans-Serif" font-size="12.00"> Documentation</text>
</a>
</g>
</g>
<!-- Node2&#45;&gt;Node1 -->
<g id="edge1" class="edge">
<title>Node2&#45;&gt;Node1</title>
<path fill="none" stroke="black" d="M162.22,-144C170.82,-144 179.47,-144 187.81,-144"/>
<polygon fill="black" stroke="black" points="162.15,-140.5 152.15,-144 162.15,-147.5 162.15,-140.5"/>
</g>
<!-- Node1&#45;&gt;Node3 -->
<g id="edge2" class="edge">
<title>Node1&#45;&gt;Node3</title>
<path fill="none" stroke="black" d="M278.63,-168.26C297.86,-186.65 326.55,-211.22 356,-226 362.6,-229.31 369.83,-232.08 377.11,-234.38"/>
<polygon fill="black" stroke="black" points="280.85,-165.53 271.25,-161.04 275.96,-170.53 280.85,-165.53"/>
</g>
<!-- Node4 -->
<g id="Node000004" class="node">
<title>Node4</title>
<g id="a_Node000004"><a xlink:href="group__jkqtplotter__elements.html" target="_top" xlink:title=" ">
<polygon fill="white" stroke="#666666" points="502,-216.5 362,-216.5 362,-195.5 502,-195.5 502,-216.5"/>
<text text-anchor="middle" x="432" y="-202.9" font-family="Helvetica,sans-Serif" font-size="12.00">Plot Element Classes</text>
</a>
</g>
</g>
<!-- Node1&#45;&gt;Node4 -->
<g id="edge3" class="edge">
<title>Node1&#45;&gt;Node4</title>
<path fill="none" stroke="black" d="M300.63,-165.2C317.77,-172.68 337.56,-180.78 356,-187 365.16,-190.09 375.11,-192.95 384.66,-195.45"/>
<polygon fill="black" stroke="black" points="301.97,-161.96 291.41,-161.11 299.14,-168.36 301.97,-161.96"/>
</g>
<!-- Node7 -->
<g id="Node000007" class="node">
<title>Node7</title>
<g id="a_Node000007"><a xlink:href="group__jkqtpplotter__styling__classes.html" target="_top" xlink:title=" ">
<polygon fill="white" stroke="#666666" points="508,-177.5 356,-177.5 356,-156.5 508,-156.5 508,-177.5"/>
<text text-anchor="middle" x="432" y="-163.9" font-family="Helvetica,sans-Serif" font-size="12.00">Styling System Classes</text>
</a>
</g>
</g>
<!-- Node1&#45;&gt;Node7 -->
<g id="edge6" class="edge">
<title>Node1&#45;&gt;Node7</title>
<path fill="none" stroke="black" d="M329.98,-153.8C338.54,-154.92 347.27,-156.06 355.83,-157.18"/>
<polygon fill="black" stroke="black" points="330.41,-150.32 320.04,-152.5 329.5,-157.27 330.41,-150.32"/>
</g>
<!-- Node5 -->
<g id="Node000005" class="node">
<title>Node5</title>
<g id="a_Node000005"><a xlink:href="group__jkqtpplotterclasses.html" target="_top" xlink:title=" ">
<polygon fill="white" stroke="#666666" points="505.5,-138 358.5,-138 358.5,-104 505.5,-104 505.5,-138"/>
<text text-anchor="start" x="366.5" y="-124.4" font-family="Helvetica,sans-Serif" font-size="12.00">Plotter Class &amp; Plotter</text>
<text text-anchor="middle" x="432" y="-111.4" font-family="Helvetica,sans-Serif" font-size="12.00"> Widget</text>
</a>
</g>
</g>
<!-- Node1&#45;&gt;Node5 -->
<g id="edge4" class="edge">
<title>Node1&#45;&gt;Node5</title>
<path fill="none" stroke="black" d="M330.06,-134.19C339.4,-132.97 348.93,-131.73 358.23,-130.51"/>
<polygon fill="black" stroke="black" points="329.5,-130.73 320.04,-135.5 330.41,-137.68 329.5,-130.73"/>
</g>
<!-- Node8 -->
<g id="Node000008" class="node">
<title>Node8</title>
<g id="a_Node000008"><a xlink:href="group__jkqtpplottersupprt.html" target="_top" xlink:title=" ">
<polygon fill="white" stroke="#666666" points="501,-86 363,-86 363,-52 501,-52 501,-86"/>
<text text-anchor="start" x="371" y="-72.4" font-family="Helvetica,sans-Serif" font-size="12.00">Support Classes and</text>
<text text-anchor="middle" x="432" y="-59.4" font-family="Helvetica,sans-Serif" font-size="12.00"> Functions</text>
</a>
</g>
</g>
<!-- Node1&#45;&gt;Node8 -->
<g id="edge7" class="edge">
<title>Node1&#45;&gt;Node8</title>
<path fill="none" stroke="black" d="M296.83,-122.34C314.82,-113.38 336.22,-103.19 356,-95 363.38,-91.94 371.27,-88.93 379.06,-86.11"/>
<polygon fill="black" stroke="black" points="295.12,-119.27 287.76,-126.89 298.27,-125.53 295.12,-119.27"/>
</g>
<!-- Node6 -->
<g id="Node000006" class="node">
<title>Node6</title>
<g id="a_Node000006"><a xlink:href="group__jkqtpqtwidgetsttools.html" target="_top" xlink:title=" ">
<polygon fill="white" stroke="#666666" points="507,-34 357,-34 357,0 507,0 507,-34"/>
<text text-anchor="start" x="365" y="-20.4" font-family="Helvetica,sans-Serif" font-size="12.00">Qt Widgets/Tools to</text>
<text text-anchor="middle" x="432" y="-7.4" font-family="Helvetica,sans-Serif" font-size="12.00"> work with JKQTPlotter</text>
</a>
</g>
</g>
<!-- Node1&#45;&gt;Node6 -->
<g id="edge5" class="edge">
<title>Node1&#45;&gt;Node6</title>
<path fill="none" stroke="black" d="M274.24,-119.14C292.94,-96.49 323.24,-63.52 356,-43 361.26,-39.71 366.98,-36.77 372.85,-34.16"/>
<polygon fill="black" stroke="black" points="271.46,-117.01 267.89,-126.98 276.9,-121.41 271.46,-117.01"/>
</g>
</g>
</svg>

<g id="navigator" transform="translate(0 0)" fill="#404254">
  <rect fill="#f2f5e9" fill-opacity="0.5" stroke="#606060" stroke-width=".5" x="0" y="0" width="60" height="60"/>
  <use id="zoomplus" xlink:href="#zoomPlus" x="17" y="9" onmousedown="handleZoom(evt,'in')"/>
  <use id="zoomminus" xlink:href="#zoomMin" x="42" y="9" onmousedown="handleZoom(evt,'out')"/>
  <use id="reset" xlink:href="#resetDef" x="30" y="36" onmousedown="handleReset()"/>
   <use id="arrowup" xlink:href="#arrowUp" x="0" y="0" onmousedown="handlePan(0,-1)"/>
  <use id="arrowright" xlink:href="#arrowRight" x="0" y="0" onmousedown="handlePan(1,0)"/>
  <use id="arrowdown" xlink:href="#arrowDown" x="0" y="0" onmousedown="handlePan(0,1)"/>
  <use id="arrowleft" xlink:href="#arrowLeft" x="0" y="0" onmousedown="handlePan(-1,0)"/>
</g>
<svg viewBox="0 0 15 15" width="100%" height="30px" preserveAspectRatio="xMaxYMin meet">
 <g id="arrow_out" transform="scale(0.3 0.3)">
  <a xlink:href="group__jkqtplotter__classdoc_org.svg" target="_base">
   <rect id="button" ry="5" rx="5" y="6" x="6" height="38" width="38"
        fill="#f2f5e9" fill-opacity="0.5" stroke="#606060" stroke-width="1.0"/>
   <path id="arrow"
     d="M 11.500037,31.436501 C 11.940474,20.09759 22.043105,11.32322 32.158766,21.979434 L 37.068811,17.246167 C 37.068811,17.246167 37.088388,32 37.088388,32 L 22.160133,31.978069 C 22.160133,31.978069 26.997745,27.140456 26.997745,27.140456 C 18.528582,18.264221 13.291696,25.230495 11.500037,31.436501 z"
     style="fill:#404040;"/>
  </a>
 </g>
</svg>

<style type='text/css'>
<![CDATA[
[data-mouse-over-selected='false'] { opacity: 0.7; }
[data-mouse-over-selected='true']  { opacity: 1.0; }
]]>
</style>
<script type="application/ecmascript"><![CDATA[
document.addEventListener('DOMContentLoaded', (event) => {
  highlightEdges();
  highlightAdjacentNodes();
});
]]></script>
</svg>
