<?xml version="1.0" encoding="UTF-8" standalone="no"?>
<!DOCTYPE svg PUBLIC "-//W3C//DTD SVG 1.1//EN"
 "http://www.w3.org/Graphics/SVG/1.1/DTD/svg11.dtd">
<!-- Generated by graphviz version 2.43.0 (0)
 -->
<!-- Title: Library&#45;internal Types and Functions Pages: 1 -->
<svg width="524pt" height="198pt"
 viewBox="0.00 0.00 524.00 198.00" xmlns="http://www.w3.org/2000/svg" xmlns:xlink="http://www.w3.org/1999/xlink">
<g id="graph0" class="graph" transform="scale(1 1) rotate(0) translate(4 194)">
<title>Library&#45;internal Types and Functions</title>
<!-- Node2 -->
<g id="Node000002" class="node">
<title>Node2</title>
<g id="a_Node000002"><a xlink:href="group__jkqtmathtext.html" target="_top" xlink:title=" ">
<polygon fill="white" stroke="#666666" points="138,-112 0,-112 0,-78 138,-78 138,-112"/>
<text text-anchor="start" x="8" y="-98.4" font-family="Helvetica,sans-Serif" font-size="12.00">JKQTMathText LaTeX</text>
<text text-anchor="middle" x="69" y="-85.4" font-family="Helvetica,sans-Serif" font-size="12.00">&#45;Renderer for Qt</text>
</a>
</g>
</g>
<!-- Node1 -->
<g id="Node000001" class="node">
<title>Node1</title>
<g id="a_Node000001"><a xlink:title=" ">
<polygon fill="#999999" stroke="#666666" points="319,-112 174,-112 174,-78 319,-78 319,-112"/>
<text text-anchor="start" x="182" y="-98.4" font-family="Helvetica,sans-Serif" font-size="12.00">Library&#45;internal Types</text>
<text text-anchor="middle" x="246.5" y="-85.4" font-family="Helvetica,sans-Serif" font-size="12.00"> and Functions</text>
</a>
</g>
</g>
<!-- Node2&#45;&gt;Node1 -->
<g id="edge1" class="edge">
<title>Node2&#45;&gt;Node1</title>
<path fill="none" stroke="black" d="M148.12,-95C156.72,-95 165.44,-95 173.95,-95"/>
<polygon fill="black" stroke="black" points="148.1,-91.5 138.1,-95 148.1,-98.5 148.1,-91.5"/>
</g>
<!-- Node5 -->
<g id="Node000005" class="node">
<title>Node5</title>
<g id="a_Node000005"><a xlink:href="group__jkqtmathtext__items.html" target="_top" xlink:title=" ">
<polygon fill="white" stroke="#666666" points="508,-190 363,-190 363,-156 508,-156 508,-190"/>
<text text-anchor="start" x="371" y="-176.4" font-family="Helvetica,sans-Serif" font-size="12.00">Render&#45;Tree Items for</text>
<text text-anchor="middle" x="435.5" y="-163.4" font-family="Helvetica,sans-Serif" font-size="12.00"> JKQTMathText</text>
</a>
</g>
</g>
<!-- Node1&#45;&gt;Node5 -->
<g id="edge4" class="edge">
<title>Node1&#45;&gt;Node5</title>
<path fill="none" stroke="black" d="M288.94,-116.66C308.67,-126.55 332.76,-138.03 355,-147 362.68,-150.1 370.88,-153.1 378.98,-155.9"/>
<polygon fill="black" stroke="black" points="290.42,-113.49 279.92,-112.09 287.26,-119.73 290.42,-113.49"/>
</g>
<!-- Node3 -->
<g id="Node000003" class="node">
<title>Node3</title>
<g id="a_Node000003"><a xlink:href="group__jkqtmathtext__libfacilities.html" target="_top" xlink:title=" ">
<polygon fill="white" stroke="#666666" points="497.5,-138 373.5,-138 373.5,-104 497.5,-104 497.5,-138"/>
<text text-anchor="start" x="381.5" y="-124.4" font-family="Helvetica,sans-Serif" font-size="12.00">Library Facilities</text>
<text text-anchor="middle" x="435.5" y="-111.4" font-family="Helvetica,sans-Serif" font-size="12.00"> for JKQTMathText</text>
</a>
</g>
</g>
<!-- Node1&#45;&gt;Node3 -->
<g id="edge2" class="edge">
<title>Node1&#45;&gt;Node3</title>
<path fill="none" stroke="black" d="M329.39,-106.39C344.12,-108.43 359.25,-110.54 373.28,-112.49"/>
<polygon fill="black" stroke="black" points="329.65,-102.89 319.26,-104.98 328.69,-109.82 329.65,-102.89"/>
</g>
<!-- Node4 -->
<g id="Node000004" class="node">
<title>Node4</title>
<g id="a_Node000004"><a xlink:href="group__jkqtmathtext__parser.html" target="_top" xlink:title=" ">
<polygon fill="white" stroke="#666666" points="504,-86 367,-86 367,-52 504,-52 504,-86"/>
<text text-anchor="start" x="375" y="-72.4" font-family="Helvetica,sans-Serif" font-size="12.00">Math Markup Parser</text>
<text text-anchor="middle" x="435.5" y="-59.4" font-family="Helvetica,sans-Serif" font-size="12.00"> Classes</text>
</a>
</g>
</g>
<!-- Node1&#45;&gt;Node4 -->
<g id="edge3" class="edge">
<title>Node1&#45;&gt;Node4</title>
<path fill="none" stroke="black" d="M329.27,-83.63C341.84,-81.88 354.7,-80.09 366.92,-78.4"/>
<polygon fill="black" stroke="black" points="328.69,-80.18 319.26,-85.02 329.65,-87.11 328.69,-80.18"/>
</g>
<!-- Node6 -->
<g id="Node000006" class="node">
<title>Node6</title>
<g id="a_Node000006"><a xlink:href="group__jkqtmathtext__tools.html" target="_top" xlink:title=" ">
<polygon fill="white" stroke="#666666" points="516,-34 355,-34 355,0 516,0 516,-34"/>
<text text-anchor="start" x="363" y="-20.4" font-family="Helvetica,sans-Serif" font-size="12.00">Tool Functions and</text>
<text text-anchor="middle" x="435.5" y="-7.4" font-family="Helvetica,sans-Serif" font-size="12.00"> Types for JKQTMathText</text>
</a>
</g>
</g>
<!-- Node1&#45;&gt;Node6 -->
<g id="edge5" class="edge">
<title>Node1&#45;&gt;Node6</title>
<path fill="none" stroke="black" d="M288.94,-73.34C308.67,-63.45 332.76,-51.97 355,-43 362.68,-39.9 370.88,-36.9 378.98,-34.1"/>
<polygon fill="black" stroke="black" points="287.26,-70.27 279.92,-77.91 290.42,-76.51 287.26,-70.27"/>
</g>
</g>
</svg>
