<?xml version="1.0" encoding="UTF-8" standalone="no"?>
<!DOCTYPE svg PUBLIC "-//W3C//DTD SVG 1.1//EN"
 "http://www.w3.org/Graphics/SVG/1.1/DTD/svg11.dtd">
<!-- Generated by graphviz version 2.43.0 (0)
 -->
<!-- Title: Supported Markup Languages Pages: 1 -->
<svg width="515pt" height="42pt"
 viewBox="0.00 0.00 515.00 42.00" xmlns="http://www.w3.org/2000/svg" xmlns:xlink="http://www.w3.org/1999/xlink">
<g id="graph0" class="graph" transform="scale(1 1) rotate(0) translate(4 38)">
<title>Supported Markup Languages</title>
<!-- Node2 -->
<g id="Node000002" class="node">
<title>Node2</title>
<g id="a_Node000002"><a xlink:href="group__jkqtmathtext__general.html" target="_top" xlink:title=" ">
<polygon fill="white" stroke="#666666" points="137,-34 0,-34 0,0 137,0 137,-34"/>
<text text-anchor="start" x="8" y="-20.4" font-family="Helvetica,sans-Serif" font-size="12.00">General Information</text>
<text text-anchor="middle" x="68.5" y="-7.4" font-family="Helvetica,sans-Serif" font-size="12.00"> on JKQTMathText</text>
</a>
</g>
</g>
<!-- Node1 -->
<g id="Node000001" class="node">
<title>Node1</title>
<g id="a_Node000001"><a xlink:title=" ">
<polygon fill="#999999" stroke="#666666" points="370,-27.5 173,-27.5 173,-6.5 370,-6.5 370,-27.5"/>
<text text-anchor="middle" x="271.5" y="-13.9" font-family="Helvetica,sans-Serif" font-size="12.00">Supported Markup Languages</text>
</a>
</g>
</g>
<!-- Node2&#45;&gt;Node1 -->
<g id="edge1" class="edge">
<title>Node2&#45;&gt;Node1</title>
<path fill="none" stroke="black" d="M147.29,-17C155.62,-17 164.16,-17 172.67,-17"/>
<polygon fill="black" stroke="black" points="147.27,-13.5 137.27,-17 147.27,-20.5 147.27,-13.5"/>
</g>
<!-- Node3 -->
<g id="Node000003" class="node">
<title>Node3</title>
<g id="a_Node000003"><a xlink:href="group__jkqtmathtext__general__latex.html" target="_top" xlink:title=" ">
<polygon fill="white" stroke="#666666" points="507,-27.5 406,-27.5 406,-6.5 507,-6.5 507,-27.5"/>
<text text-anchor="middle" x="456.5" y="-13.9" font-family="Helvetica,sans-Serif" font-size="12.00">LaTeX Markup</text>
</a>
</g>
</g>
<!-- Node1&#45;&gt;Node3 -->
<g id="edge2" class="edge">
<title>Node1&#45;&gt;Node3</title>
<path fill="none" stroke="black" d="M380.17,-17C388.97,-17 397.57,-17 405.62,-17"/>
<polygon fill="black" stroke="black" points="380.16,-13.5 370.16,-17 380.16,-20.5 380.16,-13.5"/>
</g>
</g>
</svg>
