<?xml version="1.0" encoding="UTF-8" standalone="no"?>
<!DOCTYPE svg PUBLIC "-//W3C//DTD SVG 1.1//EN"
 "http://www.w3.org/Graphics/SVG/1.1/DTD/svg11.dtd">
<!-- Generated by graphviz version 2.43.0 (0)
 -->
<!-- Title: Matrix/Image Plotting Pages: 1 -->
<svg width="545pt" height="134pt"
 viewBox="0.00 0.00 545.00 133.50" xmlns="http://www.w3.org/2000/svg" xmlns:xlink="http://www.w3.org/1999/xlink">
<g id="graph0" class="graph" transform="scale(1 1) rotate(0) translate(4 129.5)">
<title>Matrix/Image Plotting</title>
<!-- Node2 -->
<g id="Node000002" class="node">
<title>Node2</title>
<g id="a_Node000002"><a xlink:href="group__jkqtplotter__concretegraphs.html" target="_top" xlink:title=" ">
<polygon fill="white" stroke="#666666" points="159,-79.5 0,-79.5 0,-58.5 159,-58.5 159,-79.5"/>
<text text-anchor="middle" x="79.5" y="-65.9" font-family="Helvetica,sans-Serif" font-size="12.00">Concrete Graph Classes</text>
</a>
</g>
</g>
<!-- Node1 -->
<g id="Node000001" class="node">
<title>Node1</title>
<g id="a_Node000001"><a xlink:title=" ">
<polygon fill="#999999" stroke="#666666" points="340,-79.5 195,-79.5 195,-58.5 340,-58.5 340,-79.5"/>
<text text-anchor="middle" x="267.5" y="-65.9" font-family="Helvetica,sans-Serif" font-size="12.00">Matrix/Image Plotting</text>
</a>
</g>
</g>
<!-- Node2&#45;&gt;Node1 -->
<g id="edge1" class="edge">
<title>Node2&#45;&gt;Node1</title>
<path fill="none" stroke="black" d="M169.21,-69C177.84,-69 186.53,-69 194.97,-69"/>
<polygon fill="black" stroke="black" points="169.11,-65.5 159.11,-69 169.11,-72.5 169.11,-65.5"/>
</g>
<!-- Node3 -->
<g id="Node000003" class="node">
<title>Node3</title>
<g id="a_Node000003"><a xlink:href="group__jkqtplotter__imagelots__elements.html" target="_top" xlink:title=" ">
<polygon fill="white" stroke="#666666" points="507,-125.5 406,-125.5 406,-104.5 507,-104.5 507,-125.5"/>
<text text-anchor="middle" x="456.5" y="-111.9" font-family="Helvetica,sans-Serif" font-size="12.00">Image Graphs</text>
</a>
</g>
</g>
<!-- Node1&#45;&gt;Node3 -->
<g id="edge2" class="edge">
<title>Node1&#45;&gt;Node3</title>
<path fill="none" stroke="black" d="M321.34,-82C350.26,-89.11 385.64,-97.81 412.8,-104.5"/>
<polygon fill="black" stroke="black" points="321.95,-78.54 311.4,-79.55 320.28,-85.34 321.95,-78.54"/>
</g>
<!-- Node4 -->
<g id="Node000004" class="node">
<title>Node4</title>
<g id="a_Node000004"><a xlink:href="group__jkqtplotter__imagelots__overlays.html" target="_top" xlink:title=" ">
<polygon fill="white" stroke="#666666" points="529.5,-86 383.5,-86 383.5,-52 529.5,-52 529.5,-86"/>
<text text-anchor="start" x="391.5" y="-72.4" font-family="Helvetica,sans-Serif" font-size="12.00">Image/Matrix Overlay</text>
<text text-anchor="middle" x="456.5" y="-59.4" font-family="Helvetica,sans-Serif" font-size="12.00"> Graphs</text>
</a>
</g>
</g>
<!-- Node1&#45;&gt;Node4 -->
<g id="edge3" class="edge">
<title>Node1&#45;&gt;Node4</title>
<path fill="none" stroke="black" d="M350.28,-69C361.28,-69 372.5,-69 383.31,-69"/>
<polygon fill="black" stroke="black" points="350.26,-65.5 340.26,-69 350.26,-72.5 350.26,-65.5"/>
</g>
<!-- Node5 -->
<g id="Node000005" class="node">
<title>Node5</title>
<g id="a_Node000005"><a xlink:href="group__jkqtplotter__imagelots__tools.html" target="_top" xlink:title=" ">
<polygon fill="white" stroke="#666666" points="537,-34 376,-34 376,0 537,0 537,-34"/>
<text text-anchor="start" x="384" y="-20.4" font-family="Helvetica,sans-Serif" font-size="12.00">Tool Functions &amp; Classes</text>
<text text-anchor="middle" x="456.5" y="-7.4" font-family="Helvetica,sans-Serif" font-size="12.00"> for Image Drawing</text>
</a>
</g>
</g>
<!-- Node1&#45;&gt;Node5 -->
<g id="edge4" class="edge">
<title>Node1&#45;&gt;Node5</title>
<path fill="none" stroke="black" d="M316.16,-55.75C339.87,-49.15 368.81,-41.11 394.16,-34.06"/>
<polygon fill="black" stroke="black" points="315.04,-52.43 306.34,-58.48 316.91,-59.17 315.04,-52.43"/>
</g>
</g>
</svg>
