<?xml version="1.0" encoding="UTF-8" standalone="no"?>
<!DOCTYPE svg PUBLIC "-//W3C//DTD SVG 1.1//EN"
 "http://www.w3.org/Graphics/SVG/1.1/DTD/svg11.dtd">
<!-- Generated by graphviz version 2.43.0 (0)
 -->
<!-- Title: General Information Pages: 1 -->
<svg width="536pt" height="252pt"
 viewBox="0.00 0.00 536.00 251.50" xmlns="http://www.w3.org/2000/svg" xmlns:xlink="http://www.w3.org/1999/xlink">
<g id="graph0" class="graph" transform="scale(1 1) rotate(0) translate(4 247.5)">
<title>General Information</title>
<!-- Node4 -->
<g id="Node000004" class="node">
<title>Node4</title>
<g id="a_Node000004"><a xlink:href="group__jkqtpdatastorage.html" target="_top" xlink:title=" ">
<polygon fill="white" stroke="#666666" points="522,-243.5 367,-243.5 367,-209.5 522,-209.5 522,-243.5"/>
<text text-anchor="start" x="375" y="-229.9" font-family="Helvetica,sans-Serif" font-size="12.00">Data Management and</text>
<text text-anchor="middle" x="444.5" y="-216.9" font-family="Helvetica,sans-Serif" font-size="12.00"> &#45;storage</text>
</a>
</g>
</g>
<!-- Node2 -->
<g id="Node000002" class="node">
<title>Node2</title>
<g id="a_Node000002"><a xlink:href="group__jkqtplotter.html" target="_top" xlink:title=" ">
<polygon fill="white" stroke="#666666" points="152,-138.5 0,-138.5 0,-104.5 152,-104.5 152,-138.5"/>
<text text-anchor="start" x="8" y="-124.9" font-family="Helvetica,sans-Serif" font-size="12.00">JKQTPlotter: Qt based</text>
<text text-anchor="middle" x="76" y="-111.9" font-family="Helvetica,sans-Serif" font-size="12.00"> Scientific Plotter Class</text>
</a>
</g>
</g>
<!-- Node1 -->
<g id="Node000001" class="node">
<title>Node1</title>
<g id="a_Node000001"><a xlink:title=" ">
<polygon fill="#999999" stroke="#666666" points="325,-132 188,-132 188,-111 325,-111 325,-132"/>
<text text-anchor="middle" x="256.5" y="-118.4" font-family="Helvetica,sans-Serif" font-size="12.00">General Information</text>
</a>
</g>
</g>
<!-- Node2&#45;&gt;Node1 -->
<g id="edge1" class="edge">
<title>Node2&#45;&gt;Node1</title>
<path fill="none" stroke="black" d="M162.21,-121.5C170.79,-121.5 179.42,-121.5 187.78,-121.5"/>
<polygon fill="black" stroke="black" points="162.18,-118 152.18,-121.5 162.18,-125 162.18,-118"/>
</g>
<!-- Node1&#45;&gt;Node4 -->
<g id="edge3" class="edge">
<title>Node1&#45;&gt;Node4</title>
<path fill="none" stroke="black" d="M276.33,-139.14C296.09,-156.81 328.7,-183.74 361,-200.5 367.4,-203.82 374.3,-206.81 381.29,-209.47"/>
<polygon fill="black" stroke="black" points="278.45,-136.33 268.69,-132.19 273.74,-141.51 278.45,-136.33"/>
</g>
<!-- Node6 -->
<g id="Node000006" class="node">
<title>Node6</title>
<g id="a_Node000006"><a xlink:href="group__jkqtplotter__general__basicplotelements.html" target="_top" xlink:title=" ">
<polygon fill="white" stroke="#666666" points="528,-191 361,-191 361,-170 528,-170 528,-191"/>
<text text-anchor="middle" x="444.5" y="-177.4" font-family="Helvetica,sans-Serif" font-size="12.00">Non&#45;Graph Plot Elements</text>
</a>
</g>
</g>
<!-- Node1&#45;&gt;Node6 -->
<g id="edge5" class="edge">
<title>Node1&#45;&gt;Node6</title>
<path fill="none" stroke="black" d="M291.15,-135.9C311.18,-144.13 337.26,-154.22 361,-161.5 371.12,-164.6 382.07,-167.46 392.59,-169.97"/>
<polygon fill="black" stroke="black" points="292.41,-132.64 281.83,-132.04 289.72,-139.1 292.41,-132.64"/>
</g>
<!-- Node8 -->
<g id="Node000008" class="node">
<title>Node8</title>
<g id="a_Node000008"><a xlink:href="group__jkqtplotter__general__usage.html" target="_top" xlink:title=" ">
<polygon fill="white" stroke="#666666" points="515.5,-152 373.5,-152 373.5,-131 515.5,-131 515.5,-152"/>
<text text-anchor="middle" x="444.5" y="-138.4" font-family="Helvetica,sans-Serif" font-size="12.00">Usage of JKQTPlotter</text>
</a>
</g>
</g>
<!-- Node1&#45;&gt;Node8 -->
<g id="edge7" class="edge">
<title>Node1&#45;&gt;Node8</title>
<path fill="none" stroke="black" d="M335.22,-129.86C347.88,-131.22 360.92,-132.62 373.37,-133.96"/>
<polygon fill="black" stroke="black" points="335.49,-126.37 325.18,-128.78 334.74,-133.33 335.49,-126.37"/>
</g>
<!-- Node5 -->
<g id="Node000005" class="node">
<title>Node5</title>
<g id="a_Node000005"><a xlink:href="group__jkqtplotter__graphsgroup__classstructure.html" target="_top" xlink:title=" ">
<polygon fill="white" stroke="#666666" points="474,-113 415,-113 415,-92 474,-92 474,-113"/>
<text text-anchor="middle" x="444.5" y="-99.4" font-family="Helvetica,sans-Serif" font-size="12.00">Graphs</text>
</a>
</g>
</g>
<!-- Node1&#45;&gt;Node5 -->
<g id="edge4" class="edge">
<title>Node1&#45;&gt;Node5</title>
<path fill="none" stroke="black" d="M335.46,-113.54C363.65,-110.66 393.74,-107.58 414.99,-105.41"/>
<polygon fill="black" stroke="black" points="334.77,-110.09 325.18,-114.59 335.48,-117.05 334.77,-110.09"/>
</g>
<!-- Node3 -->
<g id="Node000003" class="node">
<title>Node3</title>
<g id="a_Node000003"><a xlink:href="group__jkqtplotter__naming.html" target="_top" xlink:title=" ">
<polygon fill="white" stroke="#666666" points="519,-73.5 370,-73.5 370,-39.5 519,-39.5 519,-73.5"/>
<text text-anchor="start" x="378" y="-59.9" font-family="Helvetica,sans-Serif" font-size="12.00">Conventions: Naming</text>
<text text-anchor="middle" x="444.5" y="-46.9" font-family="Helvetica,sans-Serif" font-size="12.00"> and Plot Construction</text>
</a>
</g>
</g>
<!-- Node1&#45;&gt;Node3 -->
<g id="edge2" class="edge">
<title>Node1&#45;&gt;Node3</title>
<path fill="none" stroke="black" d="M293.71,-107.3C313.49,-99.68 338.49,-90.28 361,-82.5 369.66,-79.51 378.87,-76.46 387.89,-73.57"/>
<polygon fill="black" stroke="black" points="292.22,-104.12 284.16,-110.99 294.75,-110.65 292.22,-104.12"/>
</g>
<!-- Node7 -->
<g id="Node000007" class="node">
<title>Node7</title>
<g id="a_Node000007"><a xlink:href="group__jkqtpplotter__styling.html" target="_top" xlink:title=" ">
<polygon fill="white" stroke="#666666" points="496.5,-21 392.5,-21 392.5,0 496.5,0 496.5,-21"/>
<text text-anchor="middle" x="444.5" y="-7.4" font-family="Helvetica,sans-Serif" font-size="12.00">Styling System</text>
</a>
</g>
</g>
<!-- Node1&#45;&gt;Node7 -->
<g id="edge6" class="edge">
<title>Node1&#45;&gt;Node7</title>
<path fill="none" stroke="black" d="M272.93,-103.44C291.66,-82.69 325.21,-49.11 361,-30.5 370.68,-25.47 381.65,-21.67 392.37,-18.82"/>
<polygon fill="black" stroke="black" points="270.29,-101.15 266.29,-110.96 275.53,-105.78 270.29,-101.15"/>
</g>
</g>
</svg>
