<?xml version="1.0" encoding="UTF-8" standalone="no"?>
<!DOCTYPE svg PUBLIC "-//W3C//DTD SVG 1.1//EN"
 "http://www.w3.org/Graphics/SVG/1.1/DTD/svg11.dtd">
<!-- Generated by graphviz version 2.43.0 (0)
 -->
<!-- Title: Mix&#45;In Classes for Styling General Graphs Pages: 1 -->
<svg width="643pt" height="42pt"
 viewBox="0.00 0.00 643.00 42.00" xmlns="http://www.w3.org/2000/svg" xmlns:xlink="http://www.w3.org/1999/xlink">
<g id="graph0" class="graph" transform="scale(1 1) rotate(0) translate(4 38)">
<title>Mix&#45;In Classes for Styling General Graphs</title>
<!-- Node1 -->
<g id="Node000001" class="node">
<title>Node1</title>
<g id="a_Node000001"><a xlink:title=" ">
<polygon fill="#999999" stroke="#666666" points="314,-34 156,-34 156,0 314,0 314,-34"/>
<text text-anchor="start" x="164" y="-20.4" font-family="Helvetica,sans-Serif" font-size="12.00">Mix&#45;In Classes for</text>
<text text-anchor="middle" x="235" y="-7.4" font-family="Helvetica,sans-Serif" font-size="12.00"> Styling General Graphs</text>
</a>
</g>
</g>
<!-- Node3 -->
<g id="Node000003" class="node">
<title>Node3</title>
<g id="a_Node000003"><a xlink:href="group__jkqtplotter__basegraphserrors.html" target="_top" xlink:title=" ">
<polygon fill="white" stroke="#666666" points="635,-34 513,-34 513,0 635,0 635,-34"/>
<text text-anchor="start" x="521" y="-20.4" font-family="Helvetica,sans-Serif" font-size="12.00">Mix&#45;In Classes for</text>
<text text-anchor="middle" x="574" y="-7.4" font-family="Helvetica,sans-Serif" font-size="12.00"> Error Indicators</text>
</a>
</g>
</g>
<!-- Node1&#45;&gt;Node3 -->
<g id="edge2" class="edge">
<title>Node1&#45;&gt;Node3</title>
<path fill="none" stroke="orange" stroke-dasharray="5,2" d="M314.16,-17C374.73,-17 457.41,-17 512.87,-17"/>
<text text-anchor="middle" x="413.5" y="-20.4" font-family="Helvetica,sans-Serif" font-size="12.00">JKQTPGraphErrorStyleMixin</text>
</g>
<!-- Node2 -->
<g id="Node000002" class="node">
<title>Node2</title>
<g id="a_Node000002"><a xlink:href="group__jkqtplotter__mixins.html" target="_top" xlink:title=" ">
<polygon fill="white" stroke="#666666" points="119,-34 0,-34 0,0 119,0 119,-34"/>
<text text-anchor="start" x="8" y="-20.4" font-family="Helvetica,sans-Serif" font-size="12.00">Mix&#45;in classes for</text>
<text text-anchor="middle" x="59.5" y="-7.4" font-family="Helvetica,sans-Serif" font-size="12.00"> Graphs</text>
</a>
</g>
</g>
<!-- Node2&#45;&gt;Node1 -->
<g id="edge1" class="edge">
<title>Node2&#45;&gt;Node1</title>
<path fill="none" stroke="black" d="M129.35,-17C138.09,-17 147.08,-17 155.94,-17"/>
<polygon fill="black" stroke="black" points="129.24,-13.5 119.24,-17 129.24,-20.5 129.24,-13.5"/>
</g>
</g>
</svg>
