<?xml version="1.0" encoding="UTF-8" standalone="no"?>
<!DOCTYPE svg PUBLIC "-//W3C//DTD SVG 1.1//EN"
 "http://www.w3.org/Graphics/SVG/1.1/DTD/svg11.dtd">
<!-- Generated by graphviz version 2.43.0 (0)
 -->
<!-- Title: Qt Widgets/Tools to work with JKQTPlotter Pages: 1 -->
<svg width="568pt" height="108pt"
 viewBox="0.00 0.00 568.00 107.50" xmlns="http://www.w3.org/2000/svg" xmlns:xlink="http://www.w3.org/1999/xlink">
<g id="graph0" class="graph" transform="scale(1 1) rotate(0) translate(4 103.5)">
<title>Qt Widgets/Tools to work with JKQTPlotter</title>
<!-- Node3 -->
<g id="Node000003" class="node">
<title>Node3</title>
<g id="a_Node000003"><a xlink:href="group__jkqtpcomboboxes.html" target="_top" xlink:title=" ">
<polygon fill="white" stroke="#666666" points="560,-99.5 354,-99.5 354,-65.5 560,-65.5 560,-99.5"/>
<text text-anchor="start" x="362" y="-85.9" font-family="Helvetica,sans-Serif" font-size="12.00">Comboboxes for Properties</text>
<text text-anchor="middle" x="457" y="-72.9" font-family="Helvetica,sans-Serif" font-size="12.00"> of JKQTBasePlotter/JKQTPlotter</text>
</a>
</g>
</g>
<!-- Node4 -->
<g id="Node000004" class="node">
<title>Node4</title>
<g id="a_Node000004"><a xlink:href="group__jkqtpgraphsmodel.html" target="_top" xlink:title=" ">
<polygon fill="white" stroke="#666666" points="552,-47 362,-47 362,0 552,0 552,-47"/>
<text text-anchor="start" x="370" y="-33.4" font-family="Helvetica,sans-Serif" font-size="12.00">Qt Data Models to Access</text>
<text text-anchor="start" x="370" y="-20.4" font-family="Helvetica,sans-Serif" font-size="12.00"> Graphs in a JKQTBasePlotter</text>
<text text-anchor="middle" x="457" y="-7.4" font-family="Helvetica,sans-Serif" font-size="12.00">/JKQTPlotter</text>
</a>
</g>
</g>
<!-- Node2 -->
<g id="Node000002" class="node">
<title>Node2</title>
<g id="a_Node000002"><a xlink:href="group__jkqtplotter__classdoc.html" target="_top" xlink:title=" ">
<polygon fill="white" stroke="#666666" points="132,-69.5 0,-69.5 0,-35.5 132,-35.5 132,-69.5"/>
<text text-anchor="start" x="8" y="-55.9" font-family="Helvetica,sans-Serif" font-size="12.00">Type/Class/Function</text>
<text text-anchor="middle" x="66" y="-42.9" font-family="Helvetica,sans-Serif" font-size="12.00"> Documentation</text>
</a>
</g>
</g>
<!-- Node1 -->
<g id="Node000001" class="node">
<title>Node1</title>
<g id="a_Node000001"><a xlink:title=" ">
<polygon fill="#999999" stroke="#666666" points="318,-69.5 168,-69.5 168,-35.5 318,-35.5 318,-69.5"/>
<text text-anchor="start" x="176" y="-55.9" font-family="Helvetica,sans-Serif" font-size="12.00">Qt Widgets/Tools to</text>
<text text-anchor="middle" x="243" y="-42.9" font-family="Helvetica,sans-Serif" font-size="12.00"> work with JKQTPlotter</text>
</a>
</g>
</g>
<!-- Node2&#45;&gt;Node1 -->
<g id="edge1" class="edge">
<title>Node2&#45;&gt;Node1</title>
<path fill="none" stroke="black" d="M142.4,-52.5C150.87,-52.5 159.49,-52.5 167.94,-52.5"/>
<polygon fill="black" stroke="black" points="142.16,-49 132.16,-52.5 142.16,-56 142.16,-49"/>
</g>
<!-- Node1&#45;&gt;Node3 -->
<g id="edge2" class="edge">
<title>Node1&#45;&gt;Node3</title>
<path fill="none" stroke="black" d="M328.32,-64.43C336.74,-65.62 345.36,-66.84 353.94,-68.06"/>
<polygon fill="black" stroke="black" points="328.54,-60.93 318.15,-62.99 327.56,-67.86 328.54,-60.93"/>
</g>
<!-- Node1&#45;&gt;Node4 -->
<g id="edge3" class="edge">
<title>Node1&#45;&gt;Node4</title>
<path fill="none" stroke="black" d="M328.18,-40.99C339.21,-39.48 350.58,-37.92 361.77,-36.39"/>
<polygon fill="black" stroke="black" points="327.58,-37.53 318.15,-42.36 328.53,-44.47 327.58,-37.53"/>
</g>
</g>
</svg>
