<?xml version="1.0" encoding="UTF-8" standalone="no"?>
<!DOCTYPE svg PUBLIC "-//W3C//DTD SVG 1.1//EN"
 "http://www.w3.org/Graphics/SVG/1.1/DTD/svg11.dtd">
<!-- Generated by graphviz version 2.43.0 (0)
 -->
<!-- Title: Library&#45;internal Types and Functions Pages: 1 -->
<!--zoomable 198 -->

<svg id="main" version="1.1" xmlns="http://www.w3.org/2000/svg" xmlns:xlink="http://www.w3.org/1999/xlink" xml:space="preserve" onload="init(evt)">

<style type="text/css"><![CDATA[
.node, .edge {opacity: 0.7;}
.node.selected, .edge.selected {opacity: 1;}
.edge:hover path { stroke: red; }
.edge:hover polygon { stroke: red; fill: red; }
]]></style>

<defs>
  <circle id="rim" cx="0" cy="0" r="7"/>
  <circle id="rim2" cx="0" cy="0" r="3.5"/>
  <g id="zoomPlus">
    <use xlink:href="#rim" fill="#404040"><set attributeName="fill" to="#808080" begin="zoomplus.mouseover" end="zoomplus.mouseout"/></use>
    <path d="M-4,0h8M0,-4v8" fill="none" stroke="white" stroke-width="1.5" pointer-events="none"/>
  </g>
  <g id="zoomMin">
    <use xlink:href="#rim" fill="#404040"><set attributeName="fill" to="#808080" begin="zoomminus.mouseover" end="zoomminus.mouseout"/></use>
    <path d="M-4,0h8" fill="none" stroke="white" stroke-width="1.5" pointer-events="none"/>
  </g>
  <g id="arrowUp" transform="translate(30 24)">
    <use xlink:href="#rim"/>
    <path pointer-events="none" fill="none" stroke="white" stroke-width="1.5" d="M0,-3.0v7 M-2.5,-0.5L0,-3.0L2.5,-0.5"/>
  </g>
  <g id="arrowRight" transform="rotate(90) translate(36 -43)">
    <use xlink:href="#rim"/>
    <path pointer-events="none" fill="none" stroke="white" stroke-width="1.5" d="M0,-3.0v7 M-2.5,-0.5L0,-3.0L2.5,-0.5"/>
  </g>
  <g id="arrowDown" transform="rotate(180) translate(-30 -48)">
    <use xlink:href="#rim"/>
    <path pointer-events="none" fill="none" stroke="white" stroke-width="1.5" d="M0,-3.0v7 M-2.5,-0.5L0,-3.0L2.5,-0.5"/>
  </g>
  <g id="arrowLeft" transform="rotate(270) translate(-36 17)">
    <use xlink:href="#rim"/>
    <path pointer-events="none" fill="none" stroke="white" stroke-width="1.5" d="M0,-3.0v7 M-2.5,-0.5L0,-3.0L2.5,-0.5"/>
  </g>
  <g id="resetDef">
    <use xlink:href="#rim2" fill="#404040"><set attributeName="fill" to="#808080" begin="reset.mouseover" end="reset.mouseout"/></use>
  </g>
</defs>
<script type="application/ecmascript">
var viewWidth = 524;
var viewHeight = 198;
var sectionId = 'dynsection-0';
</script>
<script type="application/ecmascript" xlink:href="svg.min.js"/>
<svg id="graph" class="graph">
<g id="viewport">
<title>Library&#45;internal Types and Functions</title>
<!-- Node2 -->
<g id="Node000002" class="node">
<title>Node2</title>
<g id="a_Node000002"><a xlink:href="group__jkqtmathtext.html" target="_top" xlink:title=" ">
<polygon fill="white" stroke="#666666" points="138,-112 0,-112 0,-78 138,-78 138,-112"/>
<text text-anchor="start" x="8" y="-98.4" font-family="Helvetica,sans-Serif" font-size="12.00">JKQTMathText LaTeX</text>
<text text-anchor="middle" x="69" y="-85.4" font-family="Helvetica,sans-Serif" font-size="12.00">&#45;Renderer for Qt</text>
</a>
</g>
</g>
<!-- Node1 -->
<g id="Node000001" class="node">
<title>Node1</title>
<g id="a_Node000001"><a xlink:title=" ">
<polygon fill="#999999" stroke="#666666" points="319,-112 174,-112 174,-78 319,-78 319,-112"/>
<text text-anchor="start" x="182" y="-98.4" font-family="Helvetica,sans-Serif" font-size="12.00">Library&#45;internal Types</text>
<text text-anchor="middle" x="246.5" y="-85.4" font-family="Helvetica,sans-Serif" font-size="12.00"> and Functions</text>
</a>
</g>
</g>
<!-- Node2&#45;&gt;Node1 -->
<g id="edge1" class="edge">
<title>Node2&#45;&gt;Node1</title>
<path fill="none" stroke="black" d="M148.12,-95C156.72,-95 165.44,-95 173.95,-95"/>
<polygon fill="black" stroke="black" points="148.1,-91.5 138.1,-95 148.1,-98.5 148.1,-91.5"/>
</g>
<!-- Node5 -->
<g id="Node000005" class="node">
<title>Node5</title>
<g id="a_Node000005"><a xlink:href="group__jkqtmathtext__items.html" target="_top" xlink:title=" ">
<polygon fill="white" stroke="#666666" points="508,-190 363,-190 363,-156 508,-156 508,-190"/>
<text text-anchor="start" x="371" y="-176.4" font-family="Helvetica,sans-Serif" font-size="12.00">Render&#45;Tree Items for</text>
<text text-anchor="middle" x="435.5" y="-163.4" font-family="Helvetica,sans-Serif" font-size="12.00"> JKQTMathText</text>
</a>
</g>
</g>
<!-- Node1&#45;&gt;Node5 -->
<g id="edge4" class="edge">
<title>Node1&#45;&gt;Node5</title>
<path fill="none" stroke="black" d="M288.94,-116.66C308.67,-126.55 332.76,-138.03 355,-147 362.68,-150.1 370.88,-153.1 378.98,-155.9"/>
<polygon fill="black" stroke="black" points="290.42,-113.49 279.92,-112.09 287.26,-119.73 290.42,-113.49"/>
</g>
<!-- Node3 -->
<g id="Node000003" class="node">
<title>Node3</title>
<g id="a_Node000003"><a xlink:href="group__jkqtmathtext__libfacilities.html" target="_top" xlink:title=" ">
<polygon fill="white" stroke="#666666" points="497.5,-138 373.5,-138 373.5,-104 497.5,-104 497.5,-138"/>
<text text-anchor="start" x="381.5" y="-124.4" font-family="Helvetica,sans-Serif" font-size="12.00">Library Facilities</text>
<text text-anchor="middle" x="435.5" y="-111.4" font-family="Helvetica,sans-Serif" font-size="12.00"> for JKQTMathText</text>
</a>
</g>
</g>
<!-- Node1&#45;&gt;Node3 -->
<g id="edge2" class="edge">
<title>Node1&#45;&gt;Node3</title>
<path fill="none" stroke="black" d="M329.39,-106.39C344.12,-108.43 359.25,-110.54 373.28,-112.49"/>
<polygon fill="black" stroke="black" points="329.65,-102.89 319.26,-104.98 328.69,-109.82 329.65,-102.89"/>
</g>
<!-- Node4 -->
<g id="Node000004" class="node">
<title>Node4</title>
<g id="a_Node000004"><a xlink:href="group__jkqtmathtext__parser.html" target="_top" xlink:title=" ">
<polygon fill="white" stroke="#666666" points="504,-86 367,-86 367,-52 504,-52 504,-86"/>
<text text-anchor="start" x="375" y="-72.4" font-family="Helvetica,sans-Serif" font-size="12.00">Math Markup Parser</text>
<text text-anchor="middle" x="435.5" y="-59.4" font-family="Helvetica,sans-Serif" font-size="12.00"> Classes</text>
</a>
</g>
</g>
<!-- Node1&#45;&gt;Node4 -->
<g id="edge3" class="edge">
<title>Node1&#45;&gt;Node4</title>
<path fill="none" stroke="black" d="M329.27,-83.63C341.84,-81.88 354.7,-80.09 366.92,-78.4"/>
<polygon fill="black" stroke="black" points="328.69,-80.18 319.26,-85.02 329.65,-87.11 328.69,-80.18"/>
</g>
<!-- Node6 -->
<g id="Node000006" class="node">
<title>Node6</title>
<g id="a_Node000006"><a xlink:href="group__jkqtmathtext__tools.html" target="_top" xlink:title=" ">
<polygon fill="white" stroke="#666666" points="516,-34 355,-34 355,0 516,0 516,-34"/>
<text text-anchor="start" x="363" y="-20.4" font-family="Helvetica,sans-Serif" font-size="12.00">Tool Functions and</text>
<text text-anchor="middle" x="435.5" y="-7.4" font-family="Helvetica,sans-Serif" font-size="12.00"> Types for JKQTMathText</text>
</a>
</g>
</g>
<!-- Node1&#45;&gt;Node6 -->
<g id="edge5" class="edge">
<title>Node1&#45;&gt;Node6</title>
<path fill="none" stroke="black" d="M288.94,-73.34C308.67,-63.45 332.76,-51.97 355,-43 362.68,-39.9 370.88,-36.9 378.98,-34.1"/>
<polygon fill="black" stroke="black" points="287.26,-70.27 279.92,-77.91 290.42,-76.51 287.26,-70.27"/>
</g>
</g>
</svg>

<g id="navigator" transform="translate(0 0)" fill="#404254">
  <rect fill="#f2f5e9" fill-opacity="0.5" stroke="#606060" stroke-width=".5" x="0" y="0" width="60" height="60"/>
  <use id="zoomplus" xlink:href="#zoomPlus" x="17" y="9" onmousedown="handleZoom(evt,'in')"/>
  <use id="zoomminus" xlink:href="#zoomMin" x="42" y="9" onmousedown="handleZoom(evt,'out')"/>
  <use id="reset" xlink:href="#resetDef" x="30" y="36" onmousedown="handleReset()"/>
   <use id="arrowup" xlink:href="#arrowUp" x="0" y="0" onmousedown="handlePan(0,-1)"/>
  <use id="arrowright" xlink:href="#arrowRight" x="0" y="0" onmousedown="handlePan(1,0)"/>
  <use id="arrowdown" xlink:href="#arrowDown" x="0" y="0" onmousedown="handlePan(0,1)"/>
  <use id="arrowleft" xlink:href="#arrowLeft" x="0" y="0" onmousedown="handlePan(-1,0)"/>
</g>
<svg viewBox="0 0 15 15" width="100%" height="30px" preserveAspectRatio="xMaxYMin meet">
 <g id="arrow_out" transform="scale(0.3 0.3)">
  <a xlink:href="group__jkqtmathtext__interaltools_org.svg" target="_base">
   <rect id="button" ry="5" rx="5" y="6" x="6" height="38" width="38"
        fill="#f2f5e9" fill-opacity="0.5" stroke="#606060" stroke-width="1.0"/>
   <path id="arrow"
     d="M 11.500037,31.436501 C 11.940474,20.09759 22.043105,11.32322 32.158766,21.979434 L 37.068811,17.246167 C 37.068811,17.246167 37.088388,32 37.088388,32 L 22.160133,31.978069 C 22.160133,31.978069 26.997745,27.140456 26.997745,27.140456 C 18.528582,18.264221 13.291696,25.230495 11.500037,31.436501 z"
     style="fill:#404040;"/>
  </a>
 </g>
</svg>

<style type='text/css'>
<![CDATA[
[data-mouse-over-selected='false'] { opacity: 0.7; }
[data-mouse-over-selected='true']  { opacity: 1.0; }
]]>
</style>
<script type="application/ecmascript"><![CDATA[
document.addEventListener('DOMContentLoaded', (event) => {
  highlightEdges();
  highlightAdjacentNodes();
});
]]></script>
</svg>
