<?xml version="1.0" encoding="UTF-8" standalone="no"?>
<!DOCTYPE svg PUBLIC "-//W3C//DTD SVG 1.1//EN"
 "http://www.w3.org/Graphics/SVG/1.1/DTD/svg11.dtd">
<!-- Generated by graphviz version 2.43.0 (0)
 -->
<!-- Title: Tool Functions &amp; Classes for Image Drawing Pages: 1 -->
<svg width="562pt" height="42pt"
 viewBox="0.00 0.00 562.00 42.00" xmlns="http://www.w3.org/2000/svg" xmlns:xlink="http://www.w3.org/1999/xlink">
<g id="graph0" class="graph" transform="scale(1 1) rotate(0) translate(4 38)">
<title>Tool Functions &amp; Classes for Image Drawing</title>
<!-- Node2 -->
<g id="Node000002" class="node">
<title>Node2</title>
<g id="a_Node000002"><a xlink:href="group__jkqtplotter__imagelots.html" target="_top" xlink:title=" ">
<polygon fill="white" stroke="#666666" points="145,-27.5 0,-27.5 0,-6.5 145,-6.5 145,-27.5"/>
<text text-anchor="middle" x="72.5" y="-13.9" font-family="Helvetica,sans-Serif" font-size="12.00">Matrix/Image Plotting</text>
</a>
</g>
</g>
<!-- Node1 -->
<g id="Node000001" class="node">
<title>Node1</title>
<g id="a_Node000001"><a xlink:title=" ">
<polygon fill="#999999" stroke="#666666" points="342,-34 181,-34 181,0 342,0 342,-34"/>
<text text-anchor="start" x="189" y="-20.4" font-family="Helvetica,sans-Serif" font-size="12.00">Tool Functions &amp; Classes</text>
<text text-anchor="middle" x="261.5" y="-7.4" font-family="Helvetica,sans-Serif" font-size="12.00"> for Image Drawing</text>
</a>
</g>
</g>
<!-- Node2&#45;&gt;Node1 -->
<g id="edge1" class="edge">
<title>Node2&#45;&gt;Node1</title>
<path fill="none" stroke="black" d="M155.46,-17C163.88,-17 172.43,-17 180.83,-17"/>
<polygon fill="black" stroke="black" points="155.26,-13.5 145.26,-17 155.26,-20.5 155.26,-13.5"/>
</g>
<!-- Node3 -->
<g id="Node000003" class="node">
<title>Node3</title>
<g id="a_Node000003"><a xlink:href="group__jkqtplotter__imagelots__tools___l_u_t_s.html" target="_top" xlink:title=" ">
<polygon fill="white" stroke="#666666" points="554,-34 378,-34 378,0 554,0 554,-34"/>
<text text-anchor="start" x="386" y="-20.4" font-family="Helvetica,sans-Serif" font-size="12.00">Tool Functions to Build</text>
<text text-anchor="middle" x="466" y="-7.4" font-family="Helvetica,sans-Serif" font-size="12.00"> Lookup&#45;Tables for Palettes</text>
</a>
</g>
</g>
<!-- Node1&#45;&gt;Node3 -->
<g id="edge2" class="edge">
<title>Node1&#45;&gt;Node3</title>
<path fill="none" stroke="black" d="M352.5,-17C360.97,-17 369.54,-17 377.98,-17"/>
<polygon fill="black" stroke="black" points="352.24,-13.5 342.24,-17 352.24,-20.5 352.24,-13.5"/>
</g>
</g>
</svg>
