<?xml version="1.0" encoding="UTF-8" standalone="no"?>
<!DOCTYPE svg PUBLIC "-//W3C//DTD SVG 1.1//EN"
 "http://www.w3.org/Graphics/SVG/1.1/DTD/svg11.dtd">
<!-- Generated by graphviz version 2.43.0 (0)
 -->
<!-- Title: Statistical Computations Pages: 1 -->
<!--zoomable 382 -->

<svg id="main" version="1.1" xmlns="http://www.w3.org/2000/svg" xmlns:xlink="http://www.w3.org/1999/xlink" xml:space="preserve" onload="init(evt)">

<style type="text/css"><![CDATA[
.node, .edge {opacity: 0.7;}
.node.selected, .edge.selected {opacity: 1;}
.edge:hover path { stroke: red; }
.edge:hover polygon { stroke: red; fill: red; }
]]></style>

<defs>
  <circle id="rim" cx="0" cy="0" r="7"/>
  <circle id="rim2" cx="0" cy="0" r="3.5"/>
  <g id="zoomPlus">
    <use xlink:href="#rim" fill="#404040"><set attributeName="fill" to="#808080" begin="zoomplus.mouseover" end="zoomplus.mouseout"/></use>
    <path d="M-4,0h8M0,-4v8" fill="none" stroke="white" stroke-width="1.5" pointer-events="none"/>
  </g>
  <g id="zoomMin">
    <use xlink:href="#rim" fill="#404040"><set attributeName="fill" to="#808080" begin="zoomminus.mouseover" end="zoomminus.mouseout"/></use>
    <path d="M-4,0h8" fill="none" stroke="white" stroke-width="1.5" pointer-events="none"/>
  </g>
  <g id="arrowUp" transform="translate(30 24)">
    <use xlink:href="#rim"/>
    <path pointer-events="none" fill="none" stroke="white" stroke-width="1.5" d="M0,-3.0v7 M-2.5,-0.5L0,-3.0L2.5,-0.5"/>
  </g>
  <g id="arrowRight" transform="rotate(90) translate(36 -43)">
    <use xlink:href="#rim"/>
    <path pointer-events="none" fill="none" stroke="white" stroke-width="1.5" d="M0,-3.0v7 M-2.5,-0.5L0,-3.0L2.5,-0.5"/>
  </g>
  <g id="arrowDown" transform="rotate(180) translate(-30 -48)">
    <use xlink:href="#rim"/>
    <path pointer-events="none" fill="none" stroke="white" stroke-width="1.5" d="M0,-3.0v7 M-2.5,-0.5L0,-3.0L2.5,-0.5"/>
  </g>
  <g id="arrowLeft" transform="rotate(270) translate(-36 17)">
    <use xlink:href="#rim"/>
    <path pointer-events="none" fill="none" stroke="white" stroke-width="1.5" d="M0,-3.0v7 M-2.5,-0.5L0,-3.0L2.5,-0.5"/>
  </g>
  <g id="resetDef">
    <use xlink:href="#rim2" fill="#404040"><set attributeName="fill" to="#808080" begin="reset.mouseover" end="reset.mouseout"/></use>
  </g>
</defs>
<script type="application/ecmascript">
var viewWidth = 573;
var viewHeight = 382;
var sectionId = 'dynsection-0';
</script>
<script type="application/ecmascript" xlink:href="svg.min.js"/>
<svg id="graph" class="graph">
<g id="viewport">
<title>Statistical Computations</title>
<!-- Node2 -->
<g id="Node000002" class="node">
<title>Node2</title>
<g id="a_Node000002"><a xlink:href="group__jkqtmath.html" target="_top" xlink:title=" ">
<polygon fill="white" stroke="#666666" points="159,-190.5 0,-190.5 0,-156.5 159,-156.5 159,-190.5"/>
<text text-anchor="start" x="8" y="-176.9" font-family="Helvetica,sans-Serif" font-size="12.00">JKQTMath: Special Math</text>
<text text-anchor="middle" x="79.5" y="-163.9" font-family="Helvetica,sans-Serif" font-size="12.00"> and Statistics Utilities</text>
</a>
</g>
</g>
<!-- Node1 -->
<g id="Node000001" class="node">
<title>Node1</title>
<g id="a_Node000001"><a xlink:title=" ">
<polygon fill="#999999" stroke="#666666" points="356,-184 195,-184 195,-163 356,-163 356,-184"/>
<text text-anchor="middle" x="275.5" y="-170.4" font-family="Helvetica,sans-Serif" font-size="12.00">Statistical Computations</text>
</a>
</g>
</g>
<!-- Node2&#45;&gt;Node1 -->
<g id="edge1" class="edge">
<title>Node2&#45;&gt;Node1</title>
<path fill="none" stroke="black" d="M169.41,-173.5C177.88,-173.5 186.44,-173.5 194.81,-173.5"/>
<polygon fill="black" stroke="black" points="169.13,-170 159.13,-173.5 169.13,-177 169.13,-170"/>
</g>
<!-- Node3 -->
<g id="Node000003" class="node">
<title>Node3</title>
<g id="a_Node000003"><a xlink:href="group__jkqtptools__math__statistics__1dhist.html" target="_top" xlink:title=" ">
<polygon fill="white" stroke="#666666" points="565,-374 392,-374 392,-353 565,-353 565,-374"/>
<text text-anchor="middle" x="478.5" y="-360.4" font-family="Helvetica,sans-Serif" font-size="12.00">1&#45;dimensional Histograms</text>
</a>
</g>
</g>
<!-- Node1&#45;&gt;Node3 -->
<g id="edge2" class="edge">
<title>Node1&#45;&gt;Node3</title>
<path fill="none" stroke="black" d="M284.38,-193.79C299.48,-229.89 336.05,-305.07 392,-343.5 397.53,-347.3 403.68,-350.38 410.08,-352.88"/>
<polygon fill="black" stroke="black" points="287.54,-192.27 280.53,-184.32 281.05,-194.9 287.54,-192.27"/>
</g>
<!-- Node4 -->
<g id="Node000004" class="node">
<title>Node4</title>
<g id="a_Node000004"><a xlink:href="group__jkqtptools__math__statistics__1dkde.html" target="_top" xlink:title=" ">
<polygon fill="white" stroke="#666666" points="549.5,-334.5 407.5,-334.5 407.5,-300.5 549.5,-300.5 549.5,-334.5"/>
<text text-anchor="start" x="415.5" y="-320.9" font-family="Helvetica,sans-Serif" font-size="12.00">1&#45;dimensional Kernel</text>
<text text-anchor="middle" x="478.5" y="-307.9" font-family="Helvetica,sans-Serif" font-size="12.00"> Density Estimates</text>
</a>
</g>
</g>
<!-- Node1&#45;&gt;Node4 -->
<g id="edge3" class="edge">
<title>Node1&#45;&gt;Node4</title>
<path fill="none" stroke="black" d="M289.98,-192.31C309.58,-218.31 348.38,-265.02 392,-291.5 397.57,-294.88 403.61,-297.85 409.83,-300.46"/>
<polygon fill="black" stroke="black" points="292.63,-190.01 283.88,-184.04 287,-194.16 292.63,-190.01"/>
</g>
<!-- Node5 -->
<g id="Node000005" class="node">
<title>Node5</title>
<g id="a_Node000005"><a xlink:href="group__jkqtptools__math__statistics__2dhist.html" target="_top" xlink:title=" ">
<polygon fill="white" stroke="#666666" points="565,-282 392,-282 392,-261 565,-261 565,-282"/>
<text text-anchor="middle" x="478.5" y="-268.4" font-family="Helvetica,sans-Serif" font-size="12.00">2&#45;dimensional Histograms</text>
</a>
</g>
</g>
<!-- Node1&#45;&gt;Node5 -->
<g id="edge4" class="edge">
<title>Node1&#45;&gt;Node5</title>
<path fill="none" stroke="black" d="M296.71,-190.55C318.77,-208.3 355.79,-235.68 392,-251.5 400.66,-255.28 410.14,-258.41 419.54,-260.97"/>
<polygon fill="black" stroke="black" points="298.71,-187.66 288.76,-184.04 294.28,-193.08 298.71,-187.66"/>
</g>
<!-- Node6 -->
<g id="Node000006" class="node">
<title>Node6</title>
<g id="a_Node000006"><a xlink:href="group__jkqtptools__math__statistics__2dkde.html" target="_top" xlink:title=" ">
<polygon fill="white" stroke="#666666" points="549.5,-242.5 407.5,-242.5 407.5,-208.5 549.5,-208.5 549.5,-242.5"/>
<text text-anchor="start" x="415.5" y="-228.9" font-family="Helvetica,sans-Serif" font-size="12.00">2&#45;dimensional Kernel</text>
<text text-anchor="middle" x="478.5" y="-215.9" font-family="Helvetica,sans-Serif" font-size="12.00"> Density Estimates</text>
</a>
</g>
</g>
<!-- Node1&#45;&gt;Node6 -->
<g id="edge5" class="edge">
<title>Node1&#45;&gt;Node6</title>
<path fill="none" stroke="black" d="M327.05,-186.58C352.66,-193.2 384.07,-201.33 411.56,-208.44"/>
<polygon fill="black" stroke="black" points="327.73,-183.14 317.18,-184.02 325.98,-189.92 327.73,-183.14"/>
</g>
<!-- Node11 -->
<g id="Node000011" class="node">
<title>Node11</title>
<g id="a_Node000011"><a xlink:href="group__jkqtptools__math__statistics__adaptors.html" target="_top" xlink:title=" ">
<polygon fill="white" stroke="#666666" points="535,-190.5 422,-190.5 422,-156.5 535,-156.5 535,-190.5"/>
<text text-anchor="start" x="430" y="-176.9" font-family="Helvetica,sans-Serif" font-size="12.00">Statistics To Plot</text>
<text text-anchor="middle" x="478.5" y="-163.9" font-family="Helvetica,sans-Serif" font-size="12.00"> Adaptors</text>
</a>
</g>
</g>
<!-- Node1&#45;&gt;Node11 -->
<g id="edge10" class="edge">
<title>Node1&#45;&gt;Node11</title>
<path fill="none" stroke="black" d="M366.33,-173.5C385.18,-173.5 404.54,-173.5 421.71,-173.5"/>
<polygon fill="black" stroke="black" points="366.23,-170 356.23,-173.5 366.23,-177 366.23,-170"/>
</g>
<!-- Node7 -->
<g id="Node000007" class="node">
<title>Node7</title>
<g id="a_Node000007"><a xlink:href="group__jkqtptools__math__statistics__basic.html" target="_top" xlink:title=" ">
<polygon fill="white" stroke="#666666" points="530.5,-138 426.5,-138 426.5,-117 530.5,-117 530.5,-138"/>
<text text-anchor="middle" x="478.5" y="-124.4" font-family="Helvetica,sans-Serif" font-size="12.00">Basic statistics</text>
</a>
</g>
</g>
<!-- Node1&#45;&gt;Node7 -->
<g id="edge6" class="edge">
<title>Node1&#45;&gt;Node7</title>
<path fill="none" stroke="black" d="M332.48,-160.69C363.72,-153.54 402.15,-144.74 431.6,-138"/>
<polygon fill="black" stroke="black" points="331.58,-157.3 322.61,-162.95 333.14,-164.13 331.58,-157.3"/>
</g>
<!-- Node8 -->
<g id="Node000008" class="node">
<title>Node8</title>
<g id="a_Node000008"><a xlink:href="group__jkqtptools__math__statistics__grouped.html" target="_top" xlink:title=" ">
<polygon fill="white" stroke="#666666" points="540,-99 417,-99 417,-78 540,-78 540,-99"/>
<text text-anchor="middle" x="478.5" y="-85.4" font-family="Helvetica,sans-Serif" font-size="12.00">Grouped statistics</text>
</a>
</g>
</g>
<!-- Node1&#45;&gt;Node8 -->
<g id="edge7" class="edge">
<title>Node1&#45;&gt;Node8</title>
<path fill="none" stroke="black" d="M300.48,-157.33C323.18,-142.69 358.64,-121.48 392,-108.5 401.52,-104.8 411.91,-101.66 422.07,-99.05"/>
<polygon fill="black" stroke="black" points="298.32,-154.57 291.87,-162.97 302.15,-160.42 298.32,-154.57"/>
</g>
<!-- Node9 -->
<g id="Node000009" class="node">
<title>Node9</title>
<g id="a_Node000009"><a xlink:href="group__jkqtptools__math__statistics__poly.html" target="_top" xlink:title=" ">
<polygon fill="white" stroke="#666666" points="565,-60 392,-60 392,-39 565,-39 565,-60"/>
<text text-anchor="middle" x="478.5" y="-46.4" font-family="Helvetica,sans-Serif" font-size="12.00">Polynomial Fits/Regression</text>
</a>
</g>
</g>
<!-- Node1&#45;&gt;Node9 -->
<g id="edge8" class="edge">
<title>Node1&#45;&gt;Node9</title>
<path fill="none" stroke="black" d="M291.77,-154.88C312.13,-131.32 350.46,-91.2 392,-69.5 399.3,-65.69 407.32,-62.59 415.44,-60.09"/>
<polygon fill="black" stroke="black" points="288.9,-152.86 285.1,-162.75 294.24,-157.38 288.9,-152.86"/>
</g>
<!-- Node10 -->
<g id="Node000010" class="node">
<title>Node10</title>
<g id="a_Node000010"><a xlink:href="group__jkqtptools__math__statistics__regression.html" target="_top" xlink:title=" ">
<polygon fill="white" stroke="#666666" points="545,-21 412,-21 412,0 545,0 545,-21"/>
<text text-anchor="middle" x="478.5" y="-7.4" font-family="Helvetica,sans-Serif" font-size="12.00">Regression Analysis</text>
</a>
</g>
</g>
<!-- Node1&#45;&gt;Node10 -->
<g id="edge9" class="edge">
<title>Node1&#45;&gt;Node10</title>
<path fill="none" stroke="black" d="M286.69,-153.84C303.95,-122.58 342,-61.89 392,-30.5 398.07,-26.69 404.79,-23.61 411.72,-21.11"/>
<polygon fill="black" stroke="black" points="283.48,-152.41 281.83,-162.88 289.65,-155.73 283.48,-152.41"/>
</g>
</g>
</svg>

<g id="navigator" transform="translate(0 0)" fill="#404254">
  <rect fill="#f2f5e9" fill-opacity="0.5" stroke="#606060" stroke-width=".5" x="0" y="0" width="60" height="60"/>
  <use id="zoomplus" xlink:href="#zoomPlus" x="17" y="9" onmousedown="handleZoom(evt,'in')"/>
  <use id="zoomminus" xlink:href="#zoomMin" x="42" y="9" onmousedown="handleZoom(evt,'out')"/>
  <use id="reset" xlink:href="#resetDef" x="30" y="36" onmousedown="handleReset()"/>
   <use id="arrowup" xlink:href="#arrowUp" x="0" y="0" onmousedown="handlePan(0,-1)"/>
  <use id="arrowright" xlink:href="#arrowRight" x="0" y="0" onmousedown="handlePan(1,0)"/>
  <use id="arrowdown" xlink:href="#arrowDown" x="0" y="0" onmousedown="handlePan(0,1)"/>
  <use id="arrowleft" xlink:href="#arrowLeft" x="0" y="0" onmousedown="handlePan(-1,0)"/>
</g>
<svg viewBox="0 0 15 15" width="100%" height="30px" preserveAspectRatio="xMaxYMin meet">
 <g id="arrow_out" transform="scale(0.3 0.3)">
  <a xlink:href="group__jkqtptools__math__statistics_org.svg" target="_base">
   <rect id="button" ry="5" rx="5" y="6" x="6" height="38" width="38"
        fill="#f2f5e9" fill-opacity="0.5" stroke="#606060" stroke-width="1.0"/>
   <path id="arrow"
     d="M 11.500037,31.436501 C 11.940474,20.09759 22.043105,11.32322 32.158766,21.979434 L 37.068811,17.246167 C 37.068811,17.246167 37.088388,32 37.088388,32 L 22.160133,31.978069 C 22.160133,31.978069 26.997745,27.140456 26.997745,27.140456 C 18.528582,18.264221 13.291696,25.230495 11.500037,31.436501 z"
     style="fill:#404040;"/>
  </a>
 </g>
</svg>

<style type='text/css'>
<![CDATA[
[data-mouse-over-selected='false'] { opacity: 0.7; }
[data-mouse-over-selected='true']  { opacity: 1.0; }
]]>
</style>
<script type="application/ecmascript"><![CDATA[
document.addEventListener('DOMContentLoaded', (event) => {
  highlightEdges();
  highlightAdjacentNodes();
});
]]></script>
</svg>
