<?xml version="1.0" encoding="UTF-8" standalone="no"?>
<!DOCTYPE svg PUBLIC "-//W3C//DTD SVG 1.1//EN"
 "http://www.w3.org/Graphics/SVG/1.1/DTD/svg11.dtd">
<!-- Generated by graphviz version 2.43.0 (0)
 -->
<!-- Title: Concrete Graph Classes Pages: 1 -->
<svg width="534pt" height="553pt"
 viewBox="0.00 0.00 534.00 553.00" xmlns="http://www.w3.org/2000/svg" xmlns:xlink="http://www.w3.org/1999/xlink">
<g id="graph0" class="graph" transform="scale(1 1) rotate(0) translate(4 549)">
<title>Concrete Graph Classes</title>
<!-- Node9 -->
<g id="Node000009" class="node">
<title>Node9</title>
<g id="a_Node000009"><a xlink:href="group__jkqtplotter__annotations.html" target="_top" xlink:title=" ">
<polygon fill="white" stroke="#666666" points="512.5,-545 384.5,-545 384.5,-524 512.5,-524 512.5,-545"/>
<text text-anchor="middle" x="448.5" y="-531.4" font-family="Helvetica,sans-Serif" font-size="12.00">Graph Annotations</text>
</a>
</g>
</g>
<!-- Node3 -->
<g id="Node000003" class="node">
<title>Node3</title>
<g id="a_Node000003"><a xlink:href="group__jkqtplotter__barcharts.html" target="_top" xlink:title=" ">
<polygon fill="white" stroke="#666666" points="485.5,-506 411.5,-506 411.5,-485 485.5,-485 485.5,-506"/>
<text text-anchor="middle" x="448.5" y="-492.4" font-family="Helvetica,sans-Serif" font-size="12.00">Barcharts</text>
</a>
</g>
</g>
<!-- Node1 -->
<g id="Node000001" class="node">
<title>Node1</title>
<g id="a_Node000001"><a xlink:title=" ">
<polygon fill="#999999" stroke="#666666" points="335,-283 176,-283 176,-262 335,-262 335,-283"/>
<text text-anchor="middle" x="255.5" y="-269.4" font-family="Helvetica,sans-Serif" font-size="12.00">Concrete Graph Classes</text>
</a>
</g>
</g>
<!-- Node1&#45;&gt;Node9 -->
<g id="edge8" class="edge">
<title>Node1&#45;&gt;Node9</title>
<path fill="none" stroke="black" d="M260.06,-293.17C269.3,-340.28 298.56,-456.08 371,-515.5 375.13,-518.88 379.77,-521.68 384.68,-523.98"/>
<polygon fill="black" stroke="black" points="263.48,-292.42 258.21,-283.23 256.6,-293.7 263.48,-292.42"/>
</g>
<!-- Node1&#45;&gt;Node3 -->
<g id="edge2" class="edge">
<title>Node1&#45;&gt;Node3</title>
<path fill="none" stroke="black" d="M262.08,-293.21C274.37,-334.75 307.85,-428.35 371,-476.5 382.54,-485.29 397.63,-490.06 411.37,-492.63"/>
<polygon fill="black" stroke="black" points="265.39,-292.05 259.28,-283.39 258.65,-293.97 265.39,-292.05"/>
</g>
<!-- Node5 -->
<g id="Node000005" class="node">
<title>Node5</title>
<g id="a_Node000005"><a xlink:href="group__jkqtplotter__eventgraphs.html" target="_top" xlink:title=" ">
<polygon fill="white" stroke="#666666" points="497,-467 400,-467 400,-446 497,-446 497,-467"/>
<text text-anchor="middle" x="448.5" y="-453.4" font-family="Helvetica,sans-Serif" font-size="12.00">Event Graphs</text>
</a>
</g>
</g>
<!-- Node1&#45;&gt;Node5 -->
<g id="edge4" class="edge">
<title>Node1&#45;&gt;Node5</title>
<path fill="none" stroke="black" d="M264.98,-292.89C280.6,-327.85 317.29,-399.08 371,-436.5 379.56,-442.46 389.78,-446.65 399.92,-449.59"/>
<polygon fill="black" stroke="black" points="268.01,-291.06 260.82,-283.28 261.58,-293.85 268.01,-291.06"/>
</g>
<!-- Node6 -->
<g id="Node000006" class="node">
<title>Node6</title>
<g id="a_Node000006"><a xlink:href="group__jkqtplotter__filledgraphs.html" target="_top" xlink:title=" ">
<polygon fill="white" stroke="#666666" points="512.5,-427.5 384.5,-427.5 384.5,-393.5 512.5,-393.5 512.5,-427.5"/>
<text text-anchor="start" x="392.5" y="-413.9" font-family="Helvetica,sans-Serif" font-size="12.00">Filled Polygon/Area</text>
<text text-anchor="middle" x="448.5" y="-400.9" font-family="Helvetica,sans-Serif" font-size="12.00"> Graphs</text>
</a>
</g>
</g>
<!-- Node1&#45;&gt;Node6 -->
<g id="edge5" class="edge">
<title>Node1&#45;&gt;Node6</title>
<path fill="none" stroke="black" d="M270.76,-290.88C290.72,-315.44 329.25,-358.85 371,-384.5 376.38,-387.8 382.23,-390.75 388.22,-393.36"/>
<polygon fill="black" stroke="black" points="273.48,-288.67 264.5,-283.03 268.01,-293.03 273.48,-288.67"/>
</g>
<!-- Node7 -->
<g id="Node000007" class="node">
<title>Node7</title>
<g id="a_Node000007"><a xlink:href="group__jkqtplotter__financialgraphs.html" target="_top" xlink:title=" ">
<polygon fill="white" stroke="#666666" points="506,-375 391,-375 391,-354 506,-354 506,-375"/>
<text text-anchor="middle" x="448.5" y="-361.4" font-family="Helvetica,sans-Serif" font-size="12.00">Financial Graphs</text>
</a>
</g>
</g>
<!-- Node1&#45;&gt;Node7 -->
<g id="edge6" class="edge">
<title>Node1&#45;&gt;Node7</title>
<path fill="none" stroke="black" d="M278.27,-289.05C300.51,-305.25 336.57,-329.59 371,-344.5 379.57,-348.21 388.98,-351.36 398.19,-353.98"/>
<polygon fill="black" stroke="black" points="280.3,-286.2 270.18,-283.07 276.14,-291.83 280.3,-286.2"/>
</g>
<!-- Node8 -->
<g id="Node000008" class="node">
<title>Node8</title>
<g id="a_Node000008"><a xlink:href="group__jkqtplotter__geoplots.html" target="_top" xlink:title=" ">
<polygon fill="white" stroke="#666666" points="524.5,-335.5 372.5,-335.5 372.5,-301.5 524.5,-301.5 524.5,-335.5"/>
<text text-anchor="start" x="380.5" y="-321.9" font-family="Helvetica,sans-Serif" font-size="12.00">Geometric Elements</text>
<text text-anchor="middle" x="448.5" y="-308.9" font-family="Helvetica,sans-Serif" font-size="12.00"> (Lines, Rectangles, ...)</text>
</a>
</g>
</g>
<!-- Node1&#45;&gt;Node8 -->
<g id="edge7" class="edge">
<title>Node1&#45;&gt;Node8</title>
<path fill="none" stroke="black" d="M310.15,-285.42C330.75,-290.38 354.59,-296.12 376.56,-301.42"/>
<polygon fill="black" stroke="black" points="310.86,-281.99 300.32,-283.05 309.22,-288.8 310.86,-281.99"/>
</g>
<!-- Node11 -->
<g id="Node000011" class="node">
<title>Node11</title>
<g id="a_Node000011"><a xlink:href="group__jkqtplotter__graphlabels.html" target="_top" xlink:title=" ">
<polygon fill="white" stroke="#666666" points="516,-283 381,-283 381,-262 516,-262 516,-283"/>
<text text-anchor="middle" x="448.5" y="-269.4" font-family="Helvetica,sans-Serif" font-size="12.00">Labeling Datapoints</text>
</a>
</g>
</g>
<!-- Node1&#45;&gt;Node11 -->
<g id="edge10" class="edge">
<title>Node1&#45;&gt;Node11</title>
<path fill="none" stroke="black" d="M345.08,-272.5C357.12,-272.5 369.3,-272.5 380.87,-272.5"/>
<polygon fill="black" stroke="black" points="345.01,-269 335.01,-272.5 345.01,-276 345.01,-269"/>
</g>
<!-- Node13 -->
<g id="Node000013" class="node">
<title>Node13</title>
<g id="a_Node000013"><a xlink:href="group__jkqtplotter__imagelots.html" target="_top" xlink:title=" ">
<polygon fill="white" stroke="#666666" points="521,-244 376,-244 376,-223 521,-223 521,-244"/>
<text text-anchor="middle" x="448.5" y="-230.4" font-family="Helvetica,sans-Serif" font-size="12.00">Matrix/Image Plotting</text>
</a>
</g>
</g>
<!-- Node1&#45;&gt;Node13 -->
<g id="edge12" class="edge">
<title>Node1&#45;&gt;Node13</title>
<path fill="none" stroke="black" d="M317.76,-259.99C342.98,-254.84 371.87,-248.94 395.97,-244.02"/>
<polygon fill="black" stroke="black" points="317.03,-256.57 307.94,-262 318.43,-263.43 317.03,-256.57"/>
</g>
<!-- Node4 -->
<g id="Node000004" class="node">
<title>Node4</title>
<g id="a_Node000004"><a xlink:href="group__jkqtplotter__imagelots__contour.html" target="_top" xlink:title=" ">
<polygon fill="white" stroke="#666666" points="526,-204.5 371,-204.5 371,-170.5 526,-170.5 526,-204.5"/>
<text text-anchor="start" x="379" y="-190.9" font-family="Helvetica,sans-Serif" font-size="12.00">Contour Graphs (based</text>
<text text-anchor="middle" x="448.5" y="-177.9" font-family="Helvetica,sans-Serif" font-size="12.00"> on Image Data)</text>
</a>
</g>
</g>
<!-- Node1&#45;&gt;Node4 -->
<g id="edge3" class="edge">
<title>Node1&#45;&gt;Node4</title>
<path fill="none" stroke="black" d="M283.93,-256.9C306.79,-244.27 340.43,-226.49 371,-213.5 378.36,-210.37 386.23,-207.35 394.03,-204.54"/>
<polygon fill="black" stroke="black" points="282.16,-253.88 275.13,-261.81 285.57,-260 282.16,-253.88"/>
</g>
<!-- Node12 -->
<g id="Node000012" class="node">
<title>Node12</title>
<g id="a_Node000012"><a xlink:href="group__jkqtplotter__linesymbolgraphs.html" target="_top" xlink:title=" ">
<polygon fill="white" stroke="#666666" points="516.5,-152 380.5,-152 380.5,-131 516.5,-131 516.5,-152"/>
<text text-anchor="middle" x="448.5" y="-138.4" font-family="Helvetica,sans-Serif" font-size="12.00">Line/Symbol Graphs</text>
</a>
</g>
</g>
<!-- Node1&#45;&gt;Node12 -->
<g id="edge11" class="edge">
<title>Node1&#45;&gt;Node12</title>
<path fill="none" stroke="black" d="M270.54,-253.85C290.25,-229.02 328.49,-185.44 371,-161.5 377.82,-157.66 385.39,-154.54 393.05,-152.01"/>
<polygon fill="black" stroke="black" points="267.74,-251.75 264.37,-261.79 273.27,-256.05 267.74,-251.75"/>
</g>
<!-- Node14 -->
<g id="Node000014" class="node">
<title>Node14</title>
<g id="a_Node000014"><a xlink:href="group__jkqtplotter__statgraphs.html" target="_top" xlink:title=" ">
<polygon fill="white" stroke="#666666" points="509,-112.5 388,-112.5 388,-78.5 509,-78.5 509,-112.5"/>
<text text-anchor="start" x="396" y="-98.9" font-family="Helvetica,sans-Serif" font-size="12.00">Statistical Graphs</text>
<text text-anchor="middle" x="448.5" y="-85.9" font-family="Helvetica,sans-Serif" font-size="12.00"> (e.g. Boxplots ...)</text>
</a>
</g>
</g>
<!-- Node1&#45;&gt;Node14 -->
<g id="edge13" class="edge">
<title>Node1&#45;&gt;Node14</title>
<path fill="none" stroke="black" d="M266.43,-252.72C283.5,-220.64 321.43,-157.25 371,-121.5 376.12,-117.81 381.8,-114.61 387.69,-111.85"/>
<polygon fill="black" stroke="black" points="263.32,-251.12 261.81,-261.61 269.53,-254.35 263.32,-251.12"/>
</g>
<!-- Node10 -->
<g id="Node000010" class="node">
<title>Node10</title>
<g id="a_Node000010"><a xlink:href="group__jkqtplotter__sticks.html" target="_top" xlink:title=" ">
<polygon fill="white" stroke="#666666" points="502,-60 395,-60 395,-39 502,-39 502,-60"/>
<text text-anchor="middle" x="448.5" y="-46.4" font-family="Helvetica,sans-Serif" font-size="12.00">Impulse&#45;Charts</text>
</a>
</g>
</g>
<!-- Node1&#45;&gt;Node10 -->
<g id="edge9" class="edge">
<title>Node1&#45;&gt;Node10</title>
<path fill="none" stroke="black" d="M262.16,-251.95C274.6,-210.73 308.33,-117.79 371,-69.5 377.96,-64.14 386.22,-60.21 394.7,-57.33"/>
<polygon fill="black" stroke="black" points="258.76,-251.11 259.33,-261.69 265.48,-253.07 258.76,-251.11"/>
</g>
<!-- Node15 -->
<g id="Node000015" class="node">
<title>Node15</title>
<g id="a_Node000015"><a xlink:href="group__jkqtplotter__vectorfieldgraphs.html" target="_top" xlink:title=" ">
<polygon fill="white" stroke="#666666" points="494.5,-21 402.5,-21 402.5,0 494.5,0 494.5,-21"/>
<text text-anchor="middle" x="448.5" y="-7.4" font-family="Helvetica,sans-Serif" font-size="12.00">Vector Fields</text>
</a>
</g>
</g>
<!-- Node1&#45;&gt;Node15 -->
<g id="edge14" class="edge">
<title>Node1&#45;&gt;Node15</title>
<path fill="none" stroke="black" d="M260.06,-251.83C269.3,-204.72 298.56,-88.92 371,-29.5 379.89,-22.21 391.18,-17.66 402.34,-14.83"/>
<polygon fill="black" stroke="black" points="256.6,-251.3 258.21,-261.77 263.48,-252.58 256.6,-251.3"/>
</g>
<!-- Node2 -->
<g id="Node000002" class="node">
<title>Node2</title>
<g id="a_Node000002"><a xlink:href="group__jkqtplotter__elements.html" target="_top" xlink:title=" ">
<polygon fill="white" stroke="#666666" points="140,-283 0,-283 0,-262 140,-262 140,-283"/>
<text text-anchor="middle" x="70" y="-269.4" font-family="Helvetica,sans-Serif" font-size="12.00">Plot Element Classes</text>
</a>
</g>
</g>
<!-- Node2&#45;&gt;Node1 -->
<g id="edge1" class="edge">
<title>Node2&#45;&gt;Node1</title>
<path fill="none" stroke="black" d="M150.35,-272.5C158.83,-272.5 167.44,-272.5 175.91,-272.5"/>
<polygon fill="black" stroke="black" points="150.11,-269 140.11,-272.5 150.11,-276 150.11,-269"/>
</g>
</g>
</svg>
