<?xml version="1.0" encoding="UTF-8" standalone="no"?>
<!DOCTYPE svg PUBLIC "-//W3C//DTD SVG 1.1//EN"
 "http://www.w3.org/Graphics/SVG/1.1/DTD/svg11.dtd">
<!-- Generated by graphviz version 2.43.0 (0)
 -->
<!-- Title: Plot Element Classes Pages: 1 -->
<svg width="519pt" height="160pt"
 viewBox="0.00 0.00 519.00 159.50" xmlns="http://www.w3.org/2000/svg" xmlns:xlink="http://www.w3.org/1999/xlink">
<g id="graph0" class="graph" transform="scale(1 1) rotate(0) translate(4 155.5)">
<title>Plot Element Classes</title>
<!-- Node6 -->
<g id="Node000006" class="node">
<title>Node6</title>
<g id="a_Node000006"><a xlink:href="group__jkqtpbaseplotter__elements.html" target="_top" xlink:title=" ">
<polygon fill="white" stroke="#666666" points="511,-151.5 344,-151.5 344,-130.5 511,-130.5 511,-151.5"/>
<text text-anchor="middle" x="427.5" y="-137.9" font-family="Helvetica,sans-Serif" font-size="12.00">Non&#45;Graph Plot Elements</text>
</a>
</g>
</g>
<!-- Node3 -->
<g id="Node000003" class="node">
<title>Node3</title>
<g id="a_Node000003"><a xlink:href="group__jkqtplotter__basegraphs.html" target="_top" xlink:title=" ">
<polygon fill="white" stroke="#666666" points="505.5,-112.5 349.5,-112.5 349.5,-91.5 505.5,-91.5 505.5,-112.5"/>
<text text-anchor="middle" x="427.5" y="-98.9" font-family="Helvetica,sans-Serif" font-size="12.00">Baseclasses for Graphs</text>
</a>
</g>
</g>
<!-- Node2 -->
<g id="Node000002" class="node">
<title>Node2</title>
<g id="a_Node000002"><a xlink:href="group__jkqtplotter__classdoc.html" target="_top" xlink:title=" ">
<polygon fill="white" stroke="#666666" points="132,-99 0,-99 0,-65 132,-65 132,-99"/>
<text text-anchor="start" x="8" y="-85.4" font-family="Helvetica,sans-Serif" font-size="12.00">Type/Class/Function</text>
<text text-anchor="middle" x="66" y="-72.4" font-family="Helvetica,sans-Serif" font-size="12.00"> Documentation</text>
</a>
</g>
</g>
<!-- Node1 -->
<g id="Node000001" class="node">
<title>Node1</title>
<g id="a_Node000001"><a xlink:title=" ">
<polygon fill="#999999" stroke="#666666" points="308,-92.5 168,-92.5 168,-71.5 308,-71.5 308,-92.5"/>
<text text-anchor="middle" x="238" y="-78.9" font-family="Helvetica,sans-Serif" font-size="12.00">Plot Element Classes</text>
</a>
</g>
</g>
<!-- Node2&#45;&gt;Node1 -->
<g id="edge1" class="edge">
<title>Node2&#45;&gt;Node1</title>
<path fill="none" stroke="black" d="M142.5,-82C150.98,-82 159.59,-82 167.98,-82"/>
<polygon fill="black" stroke="black" points="142.24,-78.5 132.24,-82 142.24,-85.5 142.24,-78.5"/>
</g>
<!-- Node4 -->
<g id="Node000004" class="node">
<title>Node4</title>
<g id="a_Node000004"><a xlink:href="group__jkqtplotter__concretegraphs.html" target="_top" xlink:title=" ">
<polygon fill="white" stroke="#666666" points="507,-73.5 348,-73.5 348,-52.5 507,-52.5 507,-73.5"/>
<text text-anchor="middle" x="427.5" y="-59.9" font-family="Helvetica,sans-Serif" font-size="12.00">Concrete Graph Classes</text>
</a>
</g>
</g>
<!-- Node1&#45;&gt;Node6 -->
<g id="edge5" class="edge">
<title>Node1&#45;&gt;Node6</title>
<path fill="none" stroke="black" d="M273.15,-96.38C293.49,-104.59 319.94,-114.69 344,-122 354.12,-125.08 365.08,-127.93 375.6,-130.43"/>
<polygon fill="black" stroke="black" points="274.28,-93.06 263.7,-92.52 271.63,-99.54 274.28,-93.06"/>
</g>
<!-- Node1&#45;&gt;Node3 -->
<g id="edge2" class="edge">
<title>Node1&#45;&gt;Node3</title>
<path fill="none" stroke="black" d="M318.24,-90.45C328.56,-91.55 339.12,-92.68 349.41,-93.78"/>
<polygon fill="black" stroke="black" points="318.33,-86.94 308.02,-89.36 317.59,-93.9 318.33,-86.94"/>
</g>
<!-- Node1&#45;&gt;Node4 -->
<g id="edge3" class="edge">
<title>Node1&#45;&gt;Node4</title>
<path fill="none" stroke="black" d="M318.15,-73.98C327.97,-72.98 338,-71.97 347.81,-70.97"/>
<polygon fill="black" stroke="black" points="317.62,-70.52 308.02,-75.01 318.32,-77.48 317.62,-70.52"/>
</g>
<!-- Node5 -->
<g id="Node000005" class="node">
<title>Node5</title>
<g id="a_Node000005"><a xlink:href="group__jkqtplotter__mixins.html" target="_top" xlink:title=" ">
<polygon fill="white" stroke="#666666" points="487,-34 368,-34 368,0 487,0 487,-34"/>
<text text-anchor="start" x="376" y="-20.4" font-family="Helvetica,sans-Serif" font-size="12.00">Mix&#45;in classes for</text>
<text text-anchor="middle" x="427.5" y="-7.4" font-family="Helvetica,sans-Serif" font-size="12.00"> Graphs</text>
</a>
</g>
</g>
<!-- Node1&#45;&gt;Node5 -->
<g id="edge4" class="edge">
<title>Node1&#45;&gt;Node5</title>
<path fill="none" stroke="black" d="M275.89,-67.78C295.95,-60.18 321.24,-50.81 344,-43 352.66,-40.03 361.88,-37 370.9,-34.1"/>
<polygon fill="black" stroke="black" points="274.6,-64.53 266.5,-71.35 277.09,-71.07 274.6,-64.53"/>
</g>
</g>
</svg>
