<?xml version="1.0" encoding="UTF-8" standalone="no"?>
<!DOCTYPE svg PUBLIC "-//W3C//DTD SVG 1.1//EN"
 "http://www.w3.org/Graphics/SVG/1.1/DTD/svg11.dtd">
<!-- Generated by graphviz version 2.43.0 (0)
 -->
<!-- Title: Data Storage Classes Pages: 1 -->
<svg width="488pt" height="42pt"
 viewBox="0.00 0.00 488.00 42.00" xmlns="http://www.w3.org/2000/svg" xmlns:xlink="http://www.w3.org/1999/xlink">
<g id="graph0" class="graph" transform="scale(1 1) rotate(0) translate(4 38)">
<title>Data Storage Classes</title>
<!-- Node1 -->
<g id="Node000001" class="node">
<title>Node1</title>
<g id="a_Node000001"><a xlink:title=" ">
<polygon fill="#999999" stroke="#666666" points="312,-27.5 168,-27.5 168,-6.5 312,-6.5 312,-27.5"/>
<text text-anchor="middle" x="240" y="-13.9" font-family="Helvetica,sans-Serif" font-size="12.00">Data Storage Classes</text>
</a>
</g>
</g>
<!-- Node3 -->
<g id="Node000003" class="node">
<title>Node3</title>
<g id="a_Node000003"><a xlink:href="group__jkqtpexternalinterfaces.html" target="_top" xlink:title=" ">
<polygon fill="white" stroke="#666666" points="480,-34 348,-34 348,0 480,0 480,-34"/>
<text text-anchor="start" x="356" y="-20.4" font-family="Helvetica,sans-Serif" font-size="12.00">Interfaces To Other</text>
<text text-anchor="middle" x="414" y="-7.4" font-family="Helvetica,sans-Serif" font-size="12.00"> Libraries</text>
</a>
</g>
</g>
<!-- Node1&#45;&gt;Node3 -->
<g id="edge2" class="edge">
<title>Node1&#45;&gt;Node3</title>
<path fill="none" stroke="black" d="M322.69,-17C331.12,-17 339.61,-17 347.82,-17"/>
<polygon fill="black" stroke="black" points="322.45,-13.5 312.45,-17 322.45,-20.5 322.45,-13.5"/>
</g>
<!-- Node2 -->
<g id="Node000002" class="node">
<title>Node2</title>
<g id="a_Node000002"><a xlink:href="group__jkqtplotter__classdoc.html" target="_top" xlink:title=" ">
<polygon fill="white" stroke="#666666" points="132,-34 0,-34 0,0 132,0 132,-34"/>
<text text-anchor="start" x="8" y="-20.4" font-family="Helvetica,sans-Serif" font-size="12.00">Type/Class/Function</text>
<text text-anchor="middle" x="66" y="-7.4" font-family="Helvetica,sans-Serif" font-size="12.00"> Documentation</text>
</a>
</g>
</g>
<!-- Node2&#45;&gt;Node1 -->
<g id="edge1" class="edge">
<title>Node2&#45;&gt;Node1</title>
<path fill="none" stroke="black" d="M142.29,-17C150.78,-17 159.41,-17 167.84,-17"/>
<polygon fill="black" stroke="black" points="142.03,-13.5 132.03,-17 142.03,-20.5 142.03,-13.5"/>
</g>
</g>
</svg>
