<?xml version="1.0" encoding="UTF-8" standalone="no"?>
<!DOCTYPE svg PUBLIC "-//W3C//DTD SVG 1.1//EN"
 "http://www.w3.org/Graphics/SVG/1.1/DTD/svg11.dtd">
<!-- Generated by graphviz version 2.43.0 (0)
 -->
<!-- Title: General Information Pages: 1 -->
<!--zoomable 252 -->

<svg id="main" version="1.1" xmlns="http://www.w3.org/2000/svg" xmlns:xlink="http://www.w3.org/1999/xlink" xml:space="preserve" onload="init(evt)">

<style type="text/css"><![CDATA[
.node, .edge {opacity: 0.7;}
.node.selected, .edge.selected {opacity: 1;}
.edge:hover path { stroke: red; }
.edge:hover polygon { stroke: red; fill: red; }
]]></style>

<defs>
  <circle id="rim" cx="0" cy="0" r="7"/>
  <circle id="rim2" cx="0" cy="0" r="3.5"/>
  <g id="zoomPlus">
    <use xlink:href="#rim" fill="#404040"><set attributeName="fill" to="#808080" begin="zoomplus.mouseover" end="zoomplus.mouseout"/></use>
    <path d="M-4,0h8M0,-4v8" fill="none" stroke="white" stroke-width="1.5" pointer-events="none"/>
  </g>
  <g id="zoomMin">
    <use xlink:href="#rim" fill="#404040"><set attributeName="fill" to="#808080" begin="zoomminus.mouseover" end="zoomminus.mouseout"/></use>
    <path d="M-4,0h8" fill="none" stroke="white" stroke-width="1.5" pointer-events="none"/>
  </g>
  <g id="arrowUp" transform="translate(30 24)">
    <use xlink:href="#rim"/>
    <path pointer-events="none" fill="none" stroke="white" stroke-width="1.5" d="M0,-3.0v7 M-2.5,-0.5L0,-3.0L2.5,-0.5"/>
  </g>
  <g id="arrowRight" transform="rotate(90) translate(36 -43)">
    <use xlink:href="#rim"/>
    <path pointer-events="none" fill="none" stroke="white" stroke-width="1.5" d="M0,-3.0v7 M-2.5,-0.5L0,-3.0L2.5,-0.5"/>
  </g>
  <g id="arrowDown" transform="rotate(180) translate(-30 -48)">
    <use xlink:href="#rim"/>
    <path pointer-events="none" fill="none" stroke="white" stroke-width="1.5" d="M0,-3.0v7 M-2.5,-0.5L0,-3.0L2.5,-0.5"/>
  </g>
  <g id="arrowLeft" transform="rotate(270) translate(-36 17)">
    <use xlink:href="#rim"/>
    <path pointer-events="none" fill="none" stroke="white" stroke-width="1.5" d="M0,-3.0v7 M-2.5,-0.5L0,-3.0L2.5,-0.5"/>
  </g>
  <g id="resetDef">
    <use xlink:href="#rim2" fill="#404040"><set attributeName="fill" to="#808080" begin="reset.mouseover" end="reset.mouseout"/></use>
  </g>
</defs>
<script type="application/ecmascript">
var viewWidth = 536;
var viewHeight = 252;
var sectionId = 'dynsection-0';
</script>
<script type="application/ecmascript" xlink:href="svg.min.js"/>
<svg id="graph" class="graph">
<g id="viewport">
<title>General Information</title>
<!-- Node4 -->
<g id="Node000004" class="node">
<title>Node4</title>
<g id="a_Node000004"><a xlink:href="group__jkqtpdatastorage.html" target="_top" xlink:title=" ">
<polygon fill="white" stroke="#666666" points="522,-243.5 367,-243.5 367,-209.5 522,-209.5 522,-243.5"/>
<text text-anchor="start" x="375" y="-229.9" font-family="Helvetica,sans-Serif" font-size="12.00">Data Management and</text>
<text text-anchor="middle" x="444.5" y="-216.9" font-family="Helvetica,sans-Serif" font-size="12.00"> &#45;storage</text>
</a>
</g>
</g>
<!-- Node2 -->
<g id="Node000002" class="node">
<title>Node2</title>
<g id="a_Node000002"><a xlink:href="group__jkqtplotter.html" target="_top" xlink:title=" ">
<polygon fill="white" stroke="#666666" points="152,-138.5 0,-138.5 0,-104.5 152,-104.5 152,-138.5"/>
<text text-anchor="start" x="8" y="-124.9" font-family="Helvetica,sans-Serif" font-size="12.00">JKQTPlotter: Qt based</text>
<text text-anchor="middle" x="76" y="-111.9" font-family="Helvetica,sans-Serif" font-size="12.00"> Scientific Plotter Class</text>
</a>
</g>
</g>
<!-- Node1 -->
<g id="Node000001" class="node">
<title>Node1</title>
<g id="a_Node000001"><a xlink:title=" ">
<polygon fill="#999999" stroke="#666666" points="325,-132 188,-132 188,-111 325,-111 325,-132"/>
<text text-anchor="middle" x="256.5" y="-118.4" font-family="Helvetica,sans-Serif" font-size="12.00">General Information</text>
</a>
</g>
</g>
<!-- Node2&#45;&gt;Node1 -->
<g id="edge1" class="edge">
<title>Node2&#45;&gt;Node1</title>
<path fill="none" stroke="black" d="M162.21,-121.5C170.79,-121.5 179.42,-121.5 187.78,-121.5"/>
<polygon fill="black" stroke="black" points="162.18,-118 152.18,-121.5 162.18,-125 162.18,-118"/>
</g>
<!-- Node1&#45;&gt;Node4 -->
<g id="edge3" class="edge">
<title>Node1&#45;&gt;Node4</title>
<path fill="none" stroke="black" d="M276.33,-139.14C296.09,-156.81 328.7,-183.74 361,-200.5 367.4,-203.82 374.3,-206.81 381.29,-209.47"/>
<polygon fill="black" stroke="black" points="278.45,-136.33 268.69,-132.19 273.74,-141.51 278.45,-136.33"/>
</g>
<!-- Node6 -->
<g id="Node000006" class="node">
<title>Node6</title>
<g id="a_Node000006"><a xlink:href="group__jkqtplotter__general__basicplotelements.html" target="_top" xlink:title=" ">
<polygon fill="white" stroke="#666666" points="528,-191 361,-191 361,-170 528,-170 528,-191"/>
<text text-anchor="middle" x="444.5" y="-177.4" font-family="Helvetica,sans-Serif" font-size="12.00">Non&#45;Graph Plot Elements</text>
</a>
</g>
</g>
<!-- Node1&#45;&gt;Node6 -->
<g id="edge5" class="edge">
<title>Node1&#45;&gt;Node6</title>
<path fill="none" stroke="black" d="M291.15,-135.9C311.18,-144.13 337.26,-154.22 361,-161.5 371.12,-164.6 382.07,-167.46 392.59,-169.97"/>
<polygon fill="black" stroke="black" points="292.41,-132.64 281.83,-132.04 289.72,-139.1 292.41,-132.64"/>
</g>
<!-- Node8 -->
<g id="Node000008" class="node">
<title>Node8</title>
<g id="a_Node000008"><a xlink:href="group__jkqtplotter__general__usage.html" target="_top" xlink:title=" ">
<polygon fill="white" stroke="#666666" points="515.5,-152 373.5,-152 373.5,-131 515.5,-131 515.5,-152"/>
<text text-anchor="middle" x="444.5" y="-138.4" font-family="Helvetica,sans-Serif" font-size="12.00">Usage of JKQTPlotter</text>
</a>
</g>
</g>
<!-- Node1&#45;&gt;Node8 -->
<g id="edge7" class="edge">
<title>Node1&#45;&gt;Node8</title>
<path fill="none" stroke="black" d="M335.22,-129.86C347.88,-131.22 360.92,-132.62 373.37,-133.96"/>
<polygon fill="black" stroke="black" points="335.49,-126.37 325.18,-128.78 334.74,-133.33 335.49,-126.37"/>
</g>
<!-- Node5 -->
<g id="Node000005" class="node">
<title>Node5</title>
<g id="a_Node000005"><a xlink:href="group__jkqtplotter__graphsgroup__classstructure.html" target="_top" xlink:title=" ">
<polygon fill="white" stroke="#666666" points="474,-113 415,-113 415,-92 474,-92 474,-113"/>
<text text-anchor="middle" x="444.5" y="-99.4" font-family="Helvetica,sans-Serif" font-size="12.00">Graphs</text>
</a>
</g>
</g>
<!-- Node1&#45;&gt;Node5 -->
<g id="edge4" class="edge">
<title>Node1&#45;&gt;Node5</title>
<path fill="none" stroke="black" d="M335.46,-113.54C363.65,-110.66 393.74,-107.58 414.99,-105.41"/>
<polygon fill="black" stroke="black" points="334.77,-110.09 325.18,-114.59 335.48,-117.05 334.77,-110.09"/>
</g>
<!-- Node3 -->
<g id="Node000003" class="node">
<title>Node3</title>
<g id="a_Node000003"><a xlink:href="group__jkqtplotter__naming.html" target="_top" xlink:title=" ">
<polygon fill="white" stroke="#666666" points="519,-73.5 370,-73.5 370,-39.5 519,-39.5 519,-73.5"/>
<text text-anchor="start" x="378" y="-59.9" font-family="Helvetica,sans-Serif" font-size="12.00">Conventions: Naming</text>
<text text-anchor="middle" x="444.5" y="-46.9" font-family="Helvetica,sans-Serif" font-size="12.00"> and Plot Construction</text>
</a>
</g>
</g>
<!-- Node1&#45;&gt;Node3 -->
<g id="edge2" class="edge">
<title>Node1&#45;&gt;Node3</title>
<path fill="none" stroke="black" d="M293.71,-107.3C313.49,-99.68 338.49,-90.28 361,-82.5 369.66,-79.51 378.87,-76.46 387.89,-73.57"/>
<polygon fill="black" stroke="black" points="292.22,-104.12 284.16,-110.99 294.75,-110.65 292.22,-104.12"/>
</g>
<!-- Node7 -->
<g id="Node000007" class="node">
<title>Node7</title>
<g id="a_Node000007"><a xlink:href="group__jkqtpplotter__styling.html" target="_top" xlink:title=" ">
<polygon fill="white" stroke="#666666" points="496.5,-21 392.5,-21 392.5,0 496.5,0 496.5,-21"/>
<text text-anchor="middle" x="444.5" y="-7.4" font-family="Helvetica,sans-Serif" font-size="12.00">Styling System</text>
</a>
</g>
</g>
<!-- Node1&#45;&gt;Node7 -->
<g id="edge6" class="edge">
<title>Node1&#45;&gt;Node7</title>
<path fill="none" stroke="black" d="M272.93,-103.44C291.66,-82.69 325.21,-49.11 361,-30.5 370.68,-25.47 381.65,-21.67 392.37,-18.82"/>
<polygon fill="black" stroke="black" points="270.29,-101.15 266.29,-110.96 275.53,-105.78 270.29,-101.15"/>
</g>
</g>
</svg>

<g id="navigator" transform="translate(0 0)" fill="#404254">
  <rect fill="#f2f5e9" fill-opacity="0.5" stroke="#606060" stroke-width=".5" x="0" y="0" width="60" height="60"/>
  <use id="zoomplus" xlink:href="#zoomPlus" x="17" y="9" onmousedown="handleZoom(evt,'in')"/>
  <use id="zoomminus" xlink:href="#zoomMin" x="42" y="9" onmousedown="handleZoom(evt,'out')"/>
  <use id="reset" xlink:href="#resetDef" x="30" y="36" onmousedown="handleReset()"/>
   <use id="arrowup" xlink:href="#arrowUp" x="0" y="0" onmousedown="handlePan(0,-1)"/>
  <use id="arrowright" xlink:href="#arrowRight" x="0" y="0" onmousedown="handlePan(1,0)"/>
  <use id="arrowdown" xlink:href="#arrowDown" x="0" y="0" onmousedown="handlePan(0,1)"/>
  <use id="arrowleft" xlink:href="#arrowLeft" x="0" y="0" onmousedown="handlePan(-1,0)"/>
</g>
<svg viewBox="0 0 15 15" width="100%" height="30px" preserveAspectRatio="xMaxYMin meet">
 <g id="arrow_out" transform="scale(0.3 0.3)">
  <a xlink:href="group__jkqtplotter__general_org.svg" target="_base">
   <rect id="button" ry="5" rx="5" y="6" x="6" height="38" width="38"
        fill="#f2f5e9" fill-opacity="0.5" stroke="#606060" stroke-width="1.0"/>
   <path id="arrow"
     d="M 11.500037,31.436501 C 11.940474,20.09759 22.043105,11.32322 32.158766,21.979434 L 37.068811,17.246167 C 37.068811,17.246167 37.088388,32 37.088388,32 L 22.160133,31.978069 C 22.160133,31.978069 26.997745,27.140456 26.997745,27.140456 C 18.528582,18.264221 13.291696,25.230495 11.500037,31.436501 z"
     style="fill:#404040;"/>
  </a>
 </g>
</svg>

<style type='text/css'>
<![CDATA[
[data-mouse-over-selected='false'] { opacity: 0.7; }
[data-mouse-over-selected='true']  { opacity: 1.0; }
]]>
</style>
<script type="application/ecmascript"><![CDATA[
document.addEventListener('DOMContentLoaded', (event) => {
  highlightEdges();
  highlightAdjacentNodes();
});
]]></script>
</svg>
