<?xml version="1.0" encoding="UTF-8" standalone="no"?>
<!DOCTYPE svg PUBLIC "-//W3C//DTD SVG 1.1//EN"
 "http://www.w3.org/Graphics/SVG/1.1/DTD/svg11.dtd">
<!-- Generated by graphviz version 2.43.0 (0)
 -->
<!-- Title: JKQTMath: Special Math and Statistics Utilities Pages: 1 -->
<svg width="379pt" height="265pt"
 viewBox="0.00 0.00 379.00 264.50" xmlns="http://www.w3.org/2000/svg" xmlns:xlink="http://www.w3.org/1999/xlink">

<svg id="main" version="1.1" xmlns="http://www.w3.org/2000/svg" xmlns:xlink="http://www.w3.org/1999/xlink" xml:space="preserve">

<style type="text/css"><![CDATA[
.node, .edge {opacity: 0.7;}
.node.selected, .edge.selected {opacity: 1;}
.edge:hover path { stroke: red; }
.edge:hover polygon { stroke: red; fill: red; }
]]></style>
<script type="application/ecmascript" xlink:href="svg.min.js"/>
<svg id="graph" class="graph">
<g id="graph0" class="graph" transform="scale(1 1) rotate(0) translate(4 260.5)">
<title>JKQTMath: Special Math and Statistics Utilities</title>
<!-- Node1 -->
<g id="Node000001" class="node">
<title>Node1</title>
<g id="a_Node000001"><a xlink:title=" ">
<polygon fill="#999999" stroke="#666666" points="159,-138.5 0,-138.5 0,-104.5 159,-104.5 159,-138.5"/>
<text text-anchor="start" x="8" y="-124.9" font-family="Helvetica,sans-Serif" font-size="12.00">JKQTMath: Special Math</text>
<text text-anchor="middle" x="79.5" y="-111.9" font-family="Helvetica,sans-Serif" font-size="12.00"> and Statistics Utilities</text>
</a>
</g>
</g>
<!-- Node4 -->
<g id="Node000004" class="node">
<title>Node4</title>
<g id="a_Node000004"><a xlink:href="group__jkqtmath__libfacilities.html" target="_top" xlink:title=" ">
<polygon fill="white" stroke="#666666" points="339.5,-256.5 226.5,-256.5 226.5,-222.5 339.5,-222.5 339.5,-256.5"/>
<text text-anchor="start" x="234.5" y="-242.9" font-family="Helvetica,sans-Serif" font-size="12.00">Library Facilities</text>
<text text-anchor="middle" x="283" y="-229.9" font-family="Helvetica,sans-Serif" font-size="12.00"> for JKQTMath</text>
</a>
</g>
</g>
<!-- Node1&#45;&gt;Node4 -->
<g id="edge3" class="edge">
<title>Node1&#45;&gt;Node4</title>
<path fill="none" stroke="black" d="M104.82,-145.76C126.72,-166.4 160.67,-195.47 195,-213.5 204.77,-218.63 215.7,-222.9 226.43,-226.4"/>
<polygon fill="black" stroke="black" points="107.24,-143.23 97.59,-138.85 102.4,-148.29 107.24,-143.23"/>
</g>
<!-- Node3 -->
<g id="Node000003" class="node">
<title>Node3</title>
<g id="a_Node000003"><a xlink:href="group__jkqtptools__algorithms.html" target="_top" xlink:title=" ">
<polygon fill="white" stroke="#666666" points="349,-204.5 217,-204.5 217,-170.5 349,-170.5 349,-204.5"/>
<text text-anchor="start" x="225" y="-190.9" font-family="Helvetica,sans-Serif" font-size="12.00">General Algorithms</text>
<text text-anchor="middle" x="283" y="-177.9" font-family="Helvetica,sans-Serif" font-size="12.00"> (Sorting ...)</text>
</a>
</g>
</g>
<!-- Node1&#45;&gt;Node3 -->
<g id="edge2" class="edge">
<title>Node1&#45;&gt;Node3</title>
<path fill="none" stroke="black" d="M137.35,-141.94C155.69,-148.37 176.15,-155.39 195,-161.5 204.15,-164.46 213.88,-167.49 223.39,-170.38"/>
<polygon fill="black" stroke="black" points="138.28,-138.55 127.69,-138.53 135.96,-145.15 138.28,-138.55"/>
</g>
<!-- Node2 -->
<g id="Node000002" class="node">
<title>Node2</title>
<g id="a_Node000002"><a xlink:href="group__jkqtptools__math__array.html" target="_top" xlink:title=" ">
<polygon fill="white" stroke="#666666" points="340,-152 226,-152 226,-131 340,-131 340,-152"/>
<text text-anchor="middle" x="283" y="-138.4" font-family="Helvetica,sans-Serif" font-size="12.00">Data Array Tools</text>
</a>
</g>
</g>
<!-- Node1&#45;&gt;Node2 -->
<g id="edge1" class="edge">
<title>Node1&#45;&gt;Node2</title>
<path fill="none" stroke="black" d="M169.23,-130.31C188.42,-132.21 208.19,-134.17 225.72,-135.91"/>
<polygon fill="black" stroke="black" points="169.57,-126.82 159.27,-129.32 168.88,-133.79 169.57,-126.82"/>
</g>
<!-- Node5 -->
<g id="Node000005" class="node">
<title>Node5</title>
<g id="a_Node000005"><a xlink:href="group__jkqtptools__math__linalg.html" target="_top" xlink:title=" ">
<polygon fill="white" stroke="#666666" points="351.5,-113 214.5,-113 214.5,-92 351.5,-92 351.5,-113"/>
<text text-anchor="middle" x="283" y="-99.4" font-family="Helvetica,sans-Serif" font-size="12.00">Linear Algebra Tools</text>
</a>
</g>
</g>
<!-- Node1&#45;&gt;Node5 -->
<g id="edge4" class="edge">
<title>Node1&#45;&gt;Node5</title>
<path fill="none" stroke="black" d="M169.61,-113.1C184.64,-111.68 200.02,-110.23 214.39,-108.88"/>
<polygon fill="black" stroke="black" points="168.9,-109.65 159.27,-114.07 169.56,-116.62 168.9,-109.65"/>
</g>
<!-- Node6 -->
<g id="Node000006" class="node">
<title>Node6</title>
<g id="a_Node000006"><a xlink:href="group__jkqtptools__math__parser.html" target="_top" xlink:title=" ">
<polygon fill="white" stroke="#666666" points="371,-73.5 195,-73.5 195,-39.5 371,-39.5 371,-73.5"/>
<text text-anchor="start" x="203" y="-59.9" font-family="Helvetica,sans-Serif" font-size="12.00">Parser/Evaluator for</text>
<text text-anchor="middle" x="283" y="-46.9" font-family="Helvetica,sans-Serif" font-size="12.00"> Mathematical Expressions</text>
</a>
</g>
</g>
<!-- Node1&#45;&gt;Node6 -->
<g id="edge5" class="edge">
<title>Node1&#45;&gt;Node6</title>
<path fill="none" stroke="black" d="M140.69,-101.28C158.18,-95.47 177.33,-89.17 195,-83.5 205.09,-80.26 215.86,-76.87 226.26,-73.62"/>
<polygon fill="black" stroke="black" points="139.54,-97.97 131.16,-104.45 141.75,-104.61 139.54,-97.97"/>
</g>
<!-- Node7 -->
<g id="Node000007" class="node">
<title>Node7</title>
<g id="a_Node000007"><a xlink:href="group__jkqtptools__math__statistics.html" target="_top" xlink:title=" ">
<polygon fill="white" stroke="#666666" points="363.5,-21 202.5,-21 202.5,0 363.5,0 363.5,-21"/>
<text text-anchor="middle" x="283" y="-7.4" font-family="Helvetica,sans-Serif" font-size="12.00">Statistical Computations</text>
</a>
</g>
</g>
<!-- Node1&#45;&gt;Node7 -->
<g id="edge6" class="edge">
<title>Node1&#45;&gt;Node7</title>
<path fill="none" stroke="black" d="M104.49,-97.06C126.25,-76.3 160.16,-47.28 195,-30.5 202.96,-26.67 211.69,-23.55 220.45,-21.02"/>
<polygon fill="black" stroke="black" points="101.78,-94.82 97.05,-104.3 106.66,-99.83 101.78,-94.82"/>
</g>
</g>
</svg>
</svg>

<style type='text/css'>
<![CDATA[
[data-mouse-over-selected='false'] { opacity: 0.7; }
[data-mouse-over-selected='true']  { opacity: 1.0; }
]]>
</style>
<script type="application/ecmascript"><![CDATA[
document.addEventListener('DOMContentLoaded', (event) => {
  highlightEdges();
  highlightAdjacentNodes();
});
]]></script>
</svg>
