<?xml version="1.0" encoding="UTF-8" standalone="no"?>
<!DOCTYPE svg PUBLIC "-//W3C//DTD SVG 1.1//EN"
 "http://www.w3.org/Graphics/SVG/1.1/DTD/svg11.dtd">
<!-- Generated by graphviz version 2.43.0 (0)
 -->
<!-- Title: Non&#45;Graph Plot Elements Pages: 1 -->
<svg width="498pt" height="68pt"
 viewBox="0.00 0.00 498.00 68.00" xmlns="http://www.w3.org/2000/svg" xmlns:xlink="http://www.w3.org/1999/xlink">

<svg id="main" version="1.1" xmlns="http://www.w3.org/2000/svg" xmlns:xlink="http://www.w3.org/1999/xlink" xml:space="preserve">

<style type="text/css"><![CDATA[
.node, .edge {opacity: 0.7;}
.node.selected, .edge.selected {opacity: 1;}
.edge:hover path { stroke: red; }
.edge:hover polygon { stroke: red; fill: red; }
]]></style>
<script type="application/ecmascript" xlink:href="svg.min.js"/>
<svg id="graph" class="graph">
<g id="graph0" class="graph" transform="scale(1 1) rotate(0) translate(4 64)">
<title>Non&#45;Graph Plot Elements</title>
<!-- Node2 -->
<g id="Node000002" class="node">
<title>Node2</title>
<g id="a_Node000002"><a xlink:href="group__jkqtplotter__general.html" target="_top" xlink:title=" ">
<polygon fill="white" stroke="#666666" points="137,-40 0,-40 0,-19 137,-19 137,-40"/>
<text text-anchor="middle" x="68.5" y="-26.4" font-family="Helvetica,sans-Serif" font-size="12.00">General Information</text>
</a>
</g>
</g>
<!-- Node1 -->
<g id="Node000001" class="node">
<title>Node1</title>
<g id="a_Node000001"><a xlink:title=" ">
<polygon fill="#999999" stroke="#666666" points="340,-40 173,-40 173,-19 340,-19 340,-40"/>
<text text-anchor="middle" x="256.5" y="-26.4" font-family="Helvetica,sans-Serif" font-size="12.00">Non&#45;Graph Plot Elements</text>
</a>
</g>
</g>
<!-- Node2&#45;&gt;Node1 -->
<g id="edge1" class="edge">
<title>Node2&#45;&gt;Node1</title>
<path fill="none" stroke="black" d="M147.39,-29.5C155.85,-29.5 164.48,-29.5 172.99,-29.5"/>
<polygon fill="black" stroke="black" points="147.18,-26 137.18,-29.5 147.18,-33 147.18,-26"/>
</g>
<!-- Node3 -->
<g id="Node000003" class="node">
<title>Node3</title>
<g id="a_Node000003"><a xlink:href="group__jkqtplotter__general__basicplotelements__coordinateaxes.html" target="_top" xlink:title=" ">
<polygon fill="white" stroke="#666666" points="490,-60 376,-60 376,-39 490,-39 490,-60"/>
<text text-anchor="middle" x="433" y="-46.4" font-family="Helvetica,sans-Serif" font-size="12.00">Coordinate Axes</text>
</a>
</g>
</g>
<!-- Node1&#45;&gt;Node3 -->
<g id="edge2" class="edge">
<title>Node1&#45;&gt;Node3</title>
<path fill="none" stroke="black" d="M350.27,-40.13C358.87,-41.12 367.41,-42.1 375.53,-43.03"/>
<polygon fill="black" stroke="black" points="350.48,-36.63 340.15,-38.97 349.69,-43.59 350.48,-36.63"/>
</g>
<!-- Node4 -->
<g id="Node000004" class="node">
<title>Node4</title>
<g id="a_Node000004"><a xlink:href="group__jkqtplotter__general__basicplotelements__key.html" target="_top" xlink:title=" ">
<polygon fill="white" stroke="#666666" points="489.5,-21 376.5,-21 376.5,0 489.5,0 489.5,-21"/>
<text text-anchor="middle" x="433" y="-7.4" font-family="Helvetica,sans-Serif" font-size="12.00">Plot Key/Legend</text>
</a>
</g>
</g>
<!-- Node1&#45;&gt;Node4 -->
<g id="edge3" class="edge">
<title>Node1&#45;&gt;Node4</title>
<path fill="none" stroke="black" d="M350.13,-19.41C358.96,-18.45 367.71,-17.5 376.03,-16.59"/>
<polygon fill="black" stroke="black" points="349.71,-15.94 340.15,-20.5 350.47,-22.9 349.71,-15.94"/>
</g>
</g>
</svg>
</svg>

<style type='text/css'>
<![CDATA[
[data-mouse-over-selected='false'] { opacity: 0.7; }
[data-mouse-over-selected='true']  { opacity: 1.0; }
]]>
</style>
<script type="application/ecmascript"><![CDATA[
document.addEventListener('DOMContentLoaded', (event) => {
  highlightEdges();
  highlightAdjacentNodes();
});
]]></script>
</svg>
