<?xml version="1.0" encoding="UTF-8" standalone="no"?>
<!DOCTYPE svg PUBLIC "-//W3C//DTD SVG 1.1//EN"
 "http://www.w3.org/Graphics/SVG/1.1/DTD/svg11.dtd">
<!-- Generated by graphviz version 2.43.0 (0)
 -->
<!-- Title: 1&#45;dimensional Kernel Density Estimates Pages: 1 -->
<svg width="552pt" height="42pt"
 viewBox="0.00 0.00 552.00 42.00" xmlns="http://www.w3.org/2000/svg" xmlns:xlink="http://www.w3.org/1999/xlink">
<g id="graph0" class="graph" transform="scale(1 1) rotate(0) translate(4 38)">
<title>1&#45;dimensional Kernel Density Estimates</title>
<!-- Node2 -->
<g id="Node000002" class="node">
<title>Node2</title>
<g id="a_Node000002"><a xlink:href="group__jkqtptools__math__statistics.html" target="_top" xlink:title=" ">
<polygon fill="white" stroke="#666666" points="161,-27.5 0,-27.5 0,-6.5 161,-6.5 161,-27.5"/>
<text text-anchor="middle" x="80.5" y="-13.9" font-family="Helvetica,sans-Serif" font-size="12.00">Statistical Computations</text>
</a>
</g>
</g>
<!-- Node1 -->
<g id="Node000001" class="node">
<title>Node1</title>
<g id="a_Node000001"><a xlink:title=" ">
<polygon fill="#999999" stroke="#666666" points="339,-34 197,-34 197,0 339,0 339,-34"/>
<text text-anchor="start" x="205" y="-20.4" font-family="Helvetica,sans-Serif" font-size="12.00">1&#45;dimensional Kernel</text>
<text text-anchor="middle" x="268" y="-7.4" font-family="Helvetica,sans-Serif" font-size="12.00"> Density Estimates</text>
</a>
</g>
</g>
<!-- Node2&#45;&gt;Node1 -->
<g id="edge1" class="edge">
<title>Node2&#45;&gt;Node1</title>
<path fill="none" stroke="black" d="M171.32,-17C179.93,-17 188.58,-17 196.96,-17"/>
<polygon fill="black" stroke="black" points="171.25,-13.5 161.25,-17 171.25,-20.5 171.25,-13.5"/>
</g>
<!-- Node3 -->
<g id="Node000003" class="node">
<title>Node3</title>
<g id="a_Node000003"><a xlink:href="group__jkqtptools__math__statistics__1dkde__kernels.html" target="_top" xlink:title=" ">
<polygon fill="white" stroke="#666666" points="544,-34 375,-34 375,0 544,0 544,-34"/>
<text text-anchor="start" x="383" y="-20.4" font-family="Helvetica,sans-Serif" font-size="12.00">Kernels for 1&#45;dimensional</text>
<text text-anchor="middle" x="459.5" y="-7.4" font-family="Helvetica,sans-Serif" font-size="12.00"> Histograms</text>
</a>
</g>
</g>
<!-- Node1&#45;&gt;Node3 -->
<g id="edge2" class="edge">
<title>Node1&#45;&gt;Node3</title>
<path fill="none" stroke="black" d="M349.29,-17C357.79,-17 366.44,-17 374.97,-17"/>
<polygon fill="black" stroke="black" points="349.02,-13.5 339.02,-17 349.02,-20.5 349.02,-13.5"/>
</g>
</g>
</svg>
