<?xml version="1.0" encoding="UTF-8" standalone="no"?>
<!DOCTYPE svg PUBLIC "-//W3C//DTD SVG 1.1//EN"
 "http://www.w3.org/Graphics/SVG/1.1/DTD/svg11.dtd">
<!-- Generated by graphviz version 2.43.0 (0)
 -->
<!-- Title: Statistical Computations Pages: 1 -->
<svg width="573pt" height="382pt"
 viewBox="0.00 0.00 573.00 382.00" xmlns="http://www.w3.org/2000/svg" xmlns:xlink="http://www.w3.org/1999/xlink">
<g id="graph0" class="graph" transform="scale(1 1) rotate(0) translate(4 378)">
<title>Statistical Computations</title>
<!-- Node2 -->
<g id="Node000002" class="node">
<title>Node2</title>
<g id="a_Node000002"><a xlink:href="group__jkqtmath.html" target="_top" xlink:title=" ">
<polygon fill="white" stroke="#666666" points="159,-190.5 0,-190.5 0,-156.5 159,-156.5 159,-190.5"/>
<text text-anchor="start" x="8" y="-176.9" font-family="Helvetica,sans-Serif" font-size="12.00">JKQTMath: Special Math</text>
<text text-anchor="middle" x="79.5" y="-163.9" font-family="Helvetica,sans-Serif" font-size="12.00"> and Statistics Utilities</text>
</a>
</g>
</g>
<!-- Node1 -->
<g id="Node000001" class="node">
<title>Node1</title>
<g id="a_Node000001"><a xlink:title=" ">
<polygon fill="#999999" stroke="#666666" points="356,-184 195,-184 195,-163 356,-163 356,-184"/>
<text text-anchor="middle" x="275.5" y="-170.4" font-family="Helvetica,sans-Serif" font-size="12.00">Statistical Computations</text>
</a>
</g>
</g>
<!-- Node2&#45;&gt;Node1 -->
<g id="edge1" class="edge">
<title>Node2&#45;&gt;Node1</title>
<path fill="none" stroke="black" d="M169.41,-173.5C177.88,-173.5 186.44,-173.5 194.81,-173.5"/>
<polygon fill="black" stroke="black" points="169.13,-170 159.13,-173.5 169.13,-177 169.13,-170"/>
</g>
<!-- Node3 -->
<g id="Node000003" class="node">
<title>Node3</title>
<g id="a_Node000003"><a xlink:href="group__jkqtptools__math__statistics__1dhist.html" target="_top" xlink:title=" ">
<polygon fill="white" stroke="#666666" points="565,-374 392,-374 392,-353 565,-353 565,-374"/>
<text text-anchor="middle" x="478.5" y="-360.4" font-family="Helvetica,sans-Serif" font-size="12.00">1&#45;dimensional Histograms</text>
</a>
</g>
</g>
<!-- Node1&#45;&gt;Node3 -->
<g id="edge2" class="edge">
<title>Node1&#45;&gt;Node3</title>
<path fill="none" stroke="black" d="M284.38,-193.79C299.48,-229.89 336.05,-305.07 392,-343.5 397.53,-347.3 403.68,-350.38 410.08,-352.88"/>
<polygon fill="black" stroke="black" points="287.54,-192.27 280.53,-184.32 281.05,-194.9 287.54,-192.27"/>
</g>
<!-- Node4 -->
<g id="Node000004" class="node">
<title>Node4</title>
<g id="a_Node000004"><a xlink:href="group__jkqtptools__math__statistics__1dkde.html" target="_top" xlink:title=" ">
<polygon fill="white" stroke="#666666" points="549.5,-334.5 407.5,-334.5 407.5,-300.5 549.5,-300.5 549.5,-334.5"/>
<text text-anchor="start" x="415.5" y="-320.9" font-family="Helvetica,sans-Serif" font-size="12.00">1&#45;dimensional Kernel</text>
<text text-anchor="middle" x="478.5" y="-307.9" font-family="Helvetica,sans-Serif" font-size="12.00"> Density Estimates</text>
</a>
</g>
</g>
<!-- Node1&#45;&gt;Node4 -->
<g id="edge3" class="edge">
<title>Node1&#45;&gt;Node4</title>
<path fill="none" stroke="black" d="M289.98,-192.31C309.58,-218.31 348.38,-265.02 392,-291.5 397.57,-294.88 403.61,-297.85 409.83,-300.46"/>
<polygon fill="black" stroke="black" points="292.63,-190.01 283.88,-184.04 287,-194.16 292.63,-190.01"/>
</g>
<!-- Node5 -->
<g id="Node000005" class="node">
<title>Node5</title>
<g id="a_Node000005"><a xlink:href="group__jkqtptools__math__statistics__2dhist.html" target="_top" xlink:title=" ">
<polygon fill="white" stroke="#666666" points="565,-282 392,-282 392,-261 565,-261 565,-282"/>
<text text-anchor="middle" x="478.5" y="-268.4" font-family="Helvetica,sans-Serif" font-size="12.00">2&#45;dimensional Histograms</text>
</a>
</g>
</g>
<!-- Node1&#45;&gt;Node5 -->
<g id="edge4" class="edge">
<title>Node1&#45;&gt;Node5</title>
<path fill="none" stroke="black" d="M296.71,-190.55C318.77,-208.3 355.79,-235.68 392,-251.5 400.66,-255.28 410.14,-258.41 419.54,-260.97"/>
<polygon fill="black" stroke="black" points="298.71,-187.66 288.76,-184.04 294.28,-193.08 298.71,-187.66"/>
</g>
<!-- Node6 -->
<g id="Node000006" class="node">
<title>Node6</title>
<g id="a_Node000006"><a xlink:href="group__jkqtptools__math__statistics__2dkde.html" target="_top" xlink:title=" ">
<polygon fill="white" stroke="#666666" points="549.5,-242.5 407.5,-242.5 407.5,-208.5 549.5,-208.5 549.5,-242.5"/>
<text text-anchor="start" x="415.5" y="-228.9" font-family="Helvetica,sans-Serif" font-size="12.00">2&#45;dimensional Kernel</text>
<text text-anchor="middle" x="478.5" y="-215.9" font-family="Helvetica,sans-Serif" font-size="12.00"> Density Estimates</text>
</a>
</g>
</g>
<!-- Node1&#45;&gt;Node6 -->
<g id="edge5" class="edge">
<title>Node1&#45;&gt;Node6</title>
<path fill="none" stroke="black" d="M327.05,-186.58C352.66,-193.2 384.07,-201.33 411.56,-208.44"/>
<polygon fill="black" stroke="black" points="327.73,-183.14 317.18,-184.02 325.98,-189.92 327.73,-183.14"/>
</g>
<!-- Node11 -->
<g id="Node000011" class="node">
<title>Node11</title>
<g id="a_Node000011"><a xlink:href="group__jkqtptools__math__statistics__adaptors.html" target="_top" xlink:title=" ">
<polygon fill="white" stroke="#666666" points="535,-190.5 422,-190.5 422,-156.5 535,-156.5 535,-190.5"/>
<text text-anchor="start" x="430" y="-176.9" font-family="Helvetica,sans-Serif" font-size="12.00">Statistics To Plot</text>
<text text-anchor="middle" x="478.5" y="-163.9" font-family="Helvetica,sans-Serif" font-size="12.00"> Adaptors</text>
</a>
</g>
</g>
<!-- Node1&#45;&gt;Node11 -->
<g id="edge10" class="edge">
<title>Node1&#45;&gt;Node11</title>
<path fill="none" stroke="black" d="M366.33,-173.5C385.18,-173.5 404.54,-173.5 421.71,-173.5"/>
<polygon fill="black" stroke="black" points="366.23,-170 356.23,-173.5 366.23,-177 366.23,-170"/>
</g>
<!-- Node7 -->
<g id="Node000007" class="node">
<title>Node7</title>
<g id="a_Node000007"><a xlink:href="group__jkqtptools__math__statistics__basic.html" target="_top" xlink:title=" ">
<polygon fill="white" stroke="#666666" points="530.5,-138 426.5,-138 426.5,-117 530.5,-117 530.5,-138"/>
<text text-anchor="middle" x="478.5" y="-124.4" font-family="Helvetica,sans-Serif" font-size="12.00">Basic statistics</text>
</a>
</g>
</g>
<!-- Node1&#45;&gt;Node7 -->
<g id="edge6" class="edge">
<title>Node1&#45;&gt;Node7</title>
<path fill="none" stroke="black" d="M332.48,-160.69C363.72,-153.54 402.15,-144.74 431.6,-138"/>
<polygon fill="black" stroke="black" points="331.58,-157.3 322.61,-162.95 333.14,-164.13 331.58,-157.3"/>
</g>
<!-- Node8 -->
<g id="Node000008" class="node">
<title>Node8</title>
<g id="a_Node000008"><a xlink:href="group__jkqtptools__math__statistics__grouped.html" target="_top" xlink:title=" ">
<polygon fill="white" stroke="#666666" points="540,-99 417,-99 417,-78 540,-78 540,-99"/>
<text text-anchor="middle" x="478.5" y="-85.4" font-family="Helvetica,sans-Serif" font-size="12.00">Grouped statistics</text>
</a>
</g>
</g>
<!-- Node1&#45;&gt;Node8 -->
<g id="edge7" class="edge">
<title>Node1&#45;&gt;Node8</title>
<path fill="none" stroke="black" d="M300.48,-157.33C323.18,-142.69 358.64,-121.48 392,-108.5 401.52,-104.8 411.91,-101.66 422.07,-99.05"/>
<polygon fill="black" stroke="black" points="298.32,-154.57 291.87,-162.97 302.15,-160.42 298.32,-154.57"/>
</g>
<!-- Node9 -->
<g id="Node000009" class="node">
<title>Node9</title>
<g id="a_Node000009"><a xlink:href="group__jkqtptools__math__statistics__poly.html" target="_top" xlink:title=" ">
<polygon fill="white" stroke="#666666" points="565,-60 392,-60 392,-39 565,-39 565,-60"/>
<text text-anchor="middle" x="478.5" y="-46.4" font-family="Helvetica,sans-Serif" font-size="12.00">Polynomial Fits/Regression</text>
</a>
</g>
</g>
<!-- Node1&#45;&gt;Node9 -->
<g id="edge8" class="edge">
<title>Node1&#45;&gt;Node9</title>
<path fill="none" stroke="black" d="M291.77,-154.88C312.13,-131.32 350.46,-91.2 392,-69.5 399.3,-65.69 407.32,-62.59 415.44,-60.09"/>
<polygon fill="black" stroke="black" points="288.9,-152.86 285.1,-162.75 294.24,-157.38 288.9,-152.86"/>
</g>
<!-- Node10 -->
<g id="Node000010" class="node">
<title>Node10</title>
<g id="a_Node000010"><a xlink:href="group__jkqtptools__math__statistics__regression.html" target="_top" xlink:title=" ">
<polygon fill="white" stroke="#666666" points="545,-21 412,-21 412,0 545,0 545,-21"/>
<text text-anchor="middle" x="478.5" y="-7.4" font-family="Helvetica,sans-Serif" font-size="12.00">Regression Analysis</text>
</a>
</g>
</g>
<!-- Node1&#45;&gt;Node10 -->
<g id="edge9" class="edge">
<title>Node1&#45;&gt;Node10</title>
<path fill="none" stroke="black" d="M286.69,-153.84C303.95,-122.58 342,-61.89 392,-30.5 398.07,-26.69 404.79,-23.61 411.72,-21.11"/>
<polygon fill="black" stroke="black" points="283.48,-152.41 281.83,-162.88 289.65,-155.73 283.48,-152.41"/>
</g>
</g>
</svg>
