<?xml version="1.0" encoding="UTF-8" standalone="no"?>
<!DOCTYPE svg PUBLIC "-//W3C//DTD SVG 1.1//EN"
 "http://www.w3.org/Graphics/SVG/1.1/DTD/svg11.dtd">
<!-- Generated by graphviz version 2.43.0 (0)
 -->
<!-- Title: JKQTMathText LaTeX&#45;Renderer for Qt Pages: 1 -->
<svg width="367pt" height="186pt"
 viewBox="0.00 0.00 367.00 185.50" xmlns="http://www.w3.org/2000/svg" xmlns:xlink="http://www.w3.org/1999/xlink">

<svg id="main" version="1.1" xmlns="http://www.w3.org/2000/svg" xmlns:xlink="http://www.w3.org/1999/xlink" xml:space="preserve">

<style type="text/css"><![CDATA[
.node, .edge {opacity: 0.7;}
.node.selected, .edge.selected {opacity: 1;}
.edge:hover path { stroke: red; }
.edge:hover polygon { stroke: red; fill: red; }
]]></style>
<script type="application/ecmascript" xlink:href="svg.min.js"/>
<svg id="graph" class="graph">
<g id="graph0" class="graph" transform="scale(1 1) rotate(0) translate(4 181.5)">
<title>JKQTMathText LaTeX&#45;Renderer for Qt</title>
<!-- Node1 -->
<g id="Node000001" class="node">
<title>Node1</title>
<g id="a_Node000001"><a xlink:title=" ">
<polygon fill="#999999" stroke="#666666" points="138,-99.5 0,-99.5 0,-65.5 138,-65.5 138,-99.5"/>
<text text-anchor="start" x="8" y="-85.9" font-family="Helvetica,sans-Serif" font-size="12.00">JKQTMathText LaTeX</text>
<text text-anchor="middle" x="69" y="-72.9" font-family="Helvetica,sans-Serif" font-size="12.00">&#45;Renderer for Qt</text>
</a>
</g>
</g>
<!-- Node2 -->
<g id="Node000002" class="node">
<title>Node2</title>
<g id="a_Node000002"><a xlink:href="group__jkqtmathtext__general.html" target="_top" xlink:title=" ">
<polygon fill="white" stroke="#666666" points="335,-177.5 198,-177.5 198,-143.5 335,-143.5 335,-177.5"/>
<text text-anchor="start" x="206" y="-163.9" font-family="Helvetica,sans-Serif" font-size="12.00">General Information</text>
<text text-anchor="middle" x="266.5" y="-150.9" font-family="Helvetica,sans-Serif" font-size="12.00"> on JKQTMathText</text>
</a>
</g>
</g>
<!-- Node1&#45;&gt;Node2 -->
<g id="edge1" class="edge">
<title>Node1&#45;&gt;Node2</title>
<path fill="none" stroke="black" d="M109.27,-104.32C128.42,-114.38 152.01,-125.96 174,-134.5 182.16,-137.67 190.86,-140.64 199.53,-143.36"/>
<polygon fill="black" stroke="black" points="110.73,-101.13 100.26,-99.52 107.44,-107.31 110.73,-101.13"/>
</g>
<!-- Node3 -->
<g id="Node000003" class="node">
<title>Node3</title>
<g id="a_Node000003"><a xlink:href="group__jkqtmathtext__interaltools.html" target="_top" xlink:title=" ">
<polygon fill="white" stroke="#666666" points="339,-125.5 194,-125.5 194,-91.5 339,-91.5 339,-125.5"/>
<text text-anchor="start" x="202" y="-111.9" font-family="Helvetica,sans-Serif" font-size="12.00">Library&#45;internal Types</text>
<text text-anchor="middle" x="266.5" y="-98.9" font-family="Helvetica,sans-Serif" font-size="12.00"> and Functions</text>
</a>
</g>
</g>
<!-- Node1&#45;&gt;Node3 -->
<g id="edge2" class="edge">
<title>Node1&#45;&gt;Node3</title>
<path fill="none" stroke="black" d="M148.41,-92.93C163.47,-94.93 179.16,-97.02 193.99,-98.99"/>
<polygon fill="black" stroke="black" points="148.48,-89.41 138.1,-91.56 147.55,-96.34 148.48,-89.41"/>
</g>
<!-- Node4 -->
<g id="Node000004" class="node">
<title>Node4</title>
<g id="a_Node000004"><a xlink:href="group__jkqtmathtext__render.html" target="_top" xlink:title=" ">
<polygon fill="white" stroke="#666666" points="336.5,-73.5 196.5,-73.5 196.5,-39.5 336.5,-39.5 336.5,-73.5"/>
<text text-anchor="start" x="204.5" y="-59.9" font-family="Helvetica,sans-Serif" font-size="12.00">Math Renderer Class</text>
<text text-anchor="middle" x="266.5" y="-46.9" font-family="Helvetica,sans-Serif" font-size="12.00"> (JKQTMathText)</text>
</a>
</g>
</g>
<!-- Node1&#45;&gt;Node4 -->
<g id="edge3" class="edge">
<title>Node1&#45;&gt;Node4</title>
<path fill="none" stroke="black" d="M148.4,-72.07C164.25,-69.97 180.81,-67.76 196.32,-65.7"/>
<polygon fill="black" stroke="black" points="147.55,-68.66 138.1,-73.44 148.48,-75.59 147.55,-68.66"/>
</g>
<!-- Node5 -->
<g id="Node000005" class="node">
<title>Node5</title>
<g id="a_Node000005"><a xlink:href="group__jkqtmathtext__widgets.html" target="_top" xlink:title=" ">
<polygon fill="white" stroke="#666666" points="359,-21 174,-21 174,0 359,0 359,-21"/>
<text text-anchor="middle" x="266.5" y="-7.4" font-family="Helvetica,sans-Serif" font-size="12.00">Widgets using JKQTMathText</text>
</a>
</g>
</g>
<!-- Node1&#45;&gt;Node5 -->
<g id="edge4" class="edge">
<title>Node1&#45;&gt;Node5</title>
<path fill="none" stroke="black" d="M108.21,-60.53C127.45,-50.22 151.43,-38.47 174,-30.5 184.43,-26.82 195.77,-23.68 206.81,-21.06"/>
<polygon fill="black" stroke="black" points="106.28,-57.59 99.18,-65.45 109.63,-63.74 106.28,-57.59"/>
</g>
</g>
</svg>
</svg>

<style type='text/css'>
<![CDATA[
[data-mouse-over-selected='false'] { opacity: 0.7; }
[data-mouse-over-selected='true']  { opacity: 1.0; }
]]>
</style>
<script type="application/ecmascript"><![CDATA[
document.addEventListener('DOMContentLoaded', (event) => {
  highlightEdges();
  highlightAdjacentNodes();
});
]]></script>
</svg>
