<?xml version="1.0" encoding="UTF-8" standalone="no"?>
<!DOCTYPE svg PUBLIC "-//W3C//DTD SVG 1.1//EN"
 "http://www.w3.org/Graphics/SVG/1.1/DTD/svg11.dtd">
<!-- Generated by graphviz version 2.43.0 (0)
 -->
<!-- Title: Line/Symbol Graphs Pages: 1 -->
<!--zoomable 160 -->

<svg id="main" version="1.1" xmlns="http://www.w3.org/2000/svg" xmlns:xlink="http://www.w3.org/1999/xlink" xml:space="preserve" onload="init(evt)">

<style type="text/css"><![CDATA[
.node, .edge {opacity: 0.7;}
.node.selected, .edge.selected {opacity: 1;}
.edge:hover path { stroke: red; }
.edge:hover polygon { stroke: red; fill: red; }
]]></style>

<defs>
  <circle id="rim" cx="0" cy="0" r="7"/>
  <circle id="rim2" cx="0" cy="0" r="3.5"/>
  <g id="zoomPlus">
    <use xlink:href="#rim" fill="#404040"><set attributeName="fill" to="#808080" begin="zoomplus.mouseover" end="zoomplus.mouseout"/></use>
    <path d="M-4,0h8M0,-4v8" fill="none" stroke="white" stroke-width="1.5" pointer-events="none"/>
  </g>
  <g id="zoomMin">
    <use xlink:href="#rim" fill="#404040"><set attributeName="fill" to="#808080" begin="zoomminus.mouseover" end="zoomminus.mouseout"/></use>
    <path d="M-4,0h8" fill="none" stroke="white" stroke-width="1.5" pointer-events="none"/>
  </g>
  <g id="arrowUp" transform="translate(30 24)">
    <use xlink:href="#rim"/>
    <path pointer-events="none" fill="none" stroke="white" stroke-width="1.5" d="M0,-3.0v7 M-2.5,-0.5L0,-3.0L2.5,-0.5"/>
  </g>
  <g id="arrowRight" transform="rotate(90) translate(36 -43)">
    <use xlink:href="#rim"/>
    <path pointer-events="none" fill="none" stroke="white" stroke-width="1.5" d="M0,-3.0v7 M-2.5,-0.5L0,-3.0L2.5,-0.5"/>
  </g>
  <g id="arrowDown" transform="rotate(180) translate(-30 -48)">
    <use xlink:href="#rim"/>
    <path pointer-events="none" fill="none" stroke="white" stroke-width="1.5" d="M0,-3.0v7 M-2.5,-0.5L0,-3.0L2.5,-0.5"/>
  </g>
  <g id="arrowLeft" transform="rotate(270) translate(-36 17)">
    <use xlink:href="#rim"/>
    <path pointer-events="none" fill="none" stroke="white" stroke-width="1.5" d="M0,-3.0v7 M-2.5,-0.5L0,-3.0L2.5,-0.5"/>
  </g>
  <g id="resetDef">
    <use xlink:href="#rim2" fill="#404040"><set attributeName="fill" to="#808080" begin="reset.mouseover" end="reset.mouseout"/></use>
  </g>
</defs>
<script type="application/ecmascript">
var viewWidth = 567;
var viewHeight = 160;
var sectionId = 'dynsection-0';
</script>
<script type="application/ecmascript" xlink:href="svg.min.js"/>
<svg id="graph" class="graph">
<g id="viewport">
<title>Line/Symbol Graphs</title>
<!-- Node2 -->
<g id="Node000002" class="node">
<title>Node2</title>
<g id="a_Node000002"><a xlink:href="group__jkqtplotter__concretegraphs.html" target="_top" xlink:title=" ">
<polygon fill="white" stroke="#666666" points="159,-90 0,-90 0,-69 159,-69 159,-90"/>
<text text-anchor="middle" x="79.5" y="-76.4" font-family="Helvetica,sans-Serif" font-size="12.00">Concrete Graph Classes</text>
</a>
</g>
</g>
<!-- Node1 -->
<g id="Node000001" class="node">
<title>Node1</title>
<g id="a_Node000001"><a xlink:title=" ">
<polygon fill="#999999" stroke="#666666" points="331,-90 195,-90 195,-69 331,-69 331,-90"/>
<text text-anchor="middle" x="263" y="-76.4" font-family="Helvetica,sans-Serif" font-size="12.00">Line/Symbol Graphs</text>
</a>
</g>
</g>
<!-- Node2&#45;&gt;Node1 -->
<g id="edge1" class="edge">
<title>Node2&#45;&gt;Node1</title>
<path fill="none" stroke="black" d="M169.21,-79.5C177.88,-79.5 186.58,-79.5 194.99,-79.5"/>
<polygon fill="black" stroke="black" points="169.05,-76 159.05,-79.5 169.05,-83 169.05,-76"/>
</g>
<!-- Node4 -->
<g id="Node000004" class="node">
<title>Node4</title>
<g id="a_Node000004"><a xlink:href="group__jkqtplotter__functiongraphs.html" target="_top" xlink:title=" ">
<polygon fill="white" stroke="#666666" points="519.5,-152 406.5,-152 406.5,-131 519.5,-131 519.5,-152"/>
<text text-anchor="middle" x="463" y="-138.4" font-family="Helvetica,sans-Serif" font-size="12.00">Function Graphs</text>
</a>
</g>
</g>
<!-- Node1&#45;&gt;Node4 -->
<g id="edge3" class="edge">
<title>Node1&#45;&gt;Node4</title>
<path fill="none" stroke="black" d="M294.93,-94.31C315.08,-103.48 342.15,-114.91 367,-122.5 379.55,-126.33 393.27,-129.59 406.28,-132.28"/>
<polygon fill="black" stroke="black" points="296.18,-91.03 285.64,-90.02 293.25,-97.39 296.18,-91.03"/>
</g>
<!-- Node5 -->
<g id="Node000005" class="node">
<title>Node5</title>
<g id="a_Node000005"><a xlink:href="group__jkqtplotter__linesymbolgraphs__line.html" target="_top" xlink:title=" ">
<polygon fill="white" stroke="#666666" points="507,-113 419,-113 419,-92 507,-92 507,-113"/>
<text text-anchor="middle" x="463" y="-99.4" font-family="Helvetica,sans-Serif" font-size="12.00">Line Graphs</text>
</a>
</g>
</g>
<!-- Node1&#45;&gt;Node5 -->
<g id="edge4" class="edge">
<title>Node1&#45;&gt;Node5</title>
<path fill="none" stroke="black" d="M341.05,-88.45C367.51,-91.52 396.17,-94.85 418.95,-97.5"/>
<polygon fill="black" stroke="black" points="341.37,-84.96 331.03,-87.29 340.56,-91.92 341.37,-84.96"/>
</g>
<!-- Node3 -->
<g id="Node000003" class="node">
<title>Node3</title>
<g id="a_Node000003"><a xlink:href="group__jkqtplotter__linesymbolgraphs__param.html" target="_top" xlink:title=" ">
<polygon fill="white" stroke="#666666" points="559,-73.5 367,-73.5 367,-39.5 559,-39.5 559,-73.5"/>
<text text-anchor="start" x="375" y="-59.9" font-family="Helvetica,sans-Serif" font-size="12.00">Bubble Charts / Parametrized</text>
<text text-anchor="middle" x="463" y="-46.9" font-family="Helvetica,sans-Serif" font-size="12.00"> Scatter Graphs</text>
</a>
</g>
</g>
<!-- Node1&#45;&gt;Node3 -->
<g id="edge2" class="edge">
<title>Node1&#45;&gt;Node3</title>
<path fill="none" stroke="black" d="M341.2,-70.53C349.64,-69.55 358.3,-68.55 366.92,-67.54"/>
<polygon fill="black" stroke="black" points="340.56,-67.08 331.03,-71.71 341.37,-74.04 340.56,-67.08"/>
</g>
<!-- Node6 -->
<g id="Node000006" class="node">
<title>Node6</title>
<g id="a_Node000006"><a xlink:href="group__jkqtplotter__linesymbolgraphs__scatter.html" target="_top" xlink:title=" ">
<polygon fill="white" stroke="#666666" points="516.5,-21 409.5,-21 409.5,0 516.5,0 516.5,-21"/>
<text text-anchor="middle" x="463" y="-7.4" font-family="Helvetica,sans-Serif" font-size="12.00">Scatter Graphs</text>
</a>
</g>
</g>
<!-- Node1&#45;&gt;Node6 -->
<g id="edge5" class="edge">
<title>Node1&#45;&gt;Node6</title>
<path fill="none" stroke="black" d="M291.79,-64.06C312.1,-53.34 340.6,-39.42 367,-30.5 380.41,-25.97 395.25,-22.26 409.14,-19.32"/>
<polygon fill="black" stroke="black" points="289.95,-61.08 282.8,-68.89 293.26,-67.25 289.95,-61.08"/>
</g>
</g>
</svg>

<g id="navigator" transform="translate(0 0)" fill="#404254">
  <rect fill="#f2f5e9" fill-opacity="0.5" stroke="#606060" stroke-width=".5" x="0" y="0" width="60" height="60"/>
  <use id="zoomplus" xlink:href="#zoomPlus" x="17" y="9" onmousedown="handleZoom(evt,'in')"/>
  <use id="zoomminus" xlink:href="#zoomMin" x="42" y="9" onmousedown="handleZoom(evt,'out')"/>
  <use id="reset" xlink:href="#resetDef" x="30" y="36" onmousedown="handleReset()"/>
   <use id="arrowup" xlink:href="#arrowUp" x="0" y="0" onmousedown="handlePan(0,-1)"/>
  <use id="arrowright" xlink:href="#arrowRight" x="0" y="0" onmousedown="handlePan(1,0)"/>
  <use id="arrowdown" xlink:href="#arrowDown" x="0" y="0" onmousedown="handlePan(0,1)"/>
  <use id="arrowleft" xlink:href="#arrowLeft" x="0" y="0" onmousedown="handlePan(-1,0)"/>
</g>
<svg viewBox="0 0 15 15" width="100%" height="30px" preserveAspectRatio="xMaxYMin meet">
 <g id="arrow_out" transform="scale(0.3 0.3)">
  <a xlink:href="group__jkqtplotter__linesymbolgraphs_org.svg" target="_base">
   <rect id="button" ry="5" rx="5" y="6" x="6" height="38" width="38"
        fill="#f2f5e9" fill-opacity="0.5" stroke="#606060" stroke-width="1.0"/>
   <path id="arrow"
     d="M 11.500037,31.436501 C 11.940474,20.09759 22.043105,11.32322 32.158766,21.979434 L 37.068811,17.246167 C 37.068811,17.246167 37.088388,32 37.088388,32 L 22.160133,31.978069 C 22.160133,31.978069 26.997745,27.140456 26.997745,27.140456 C 18.528582,18.264221 13.291696,25.230495 11.500037,31.436501 z"
     style="fill:#404040;"/>
  </a>
 </g>
</svg>

<style type='text/css'>
<![CDATA[
[data-mouse-over-selected='false'] { opacity: 0.7; }
[data-mouse-over-selected='true']  { opacity: 1.0; }
]]>
</style>
<script type="application/ecmascript"><![CDATA[
document.addEventListener('DOMContentLoaded', (event) => {
  highlightEdges();
  highlightAdjacentNodes();
});
]]></script>
</svg>
