<?xml version="1.0" encoding="UTF-8" standalone="no"?>
<!DOCTYPE svg PUBLIC "-//W3C//DTD SVG 1.1//EN"
 "http://www.w3.org/Graphics/SVG/1.1/DTD/svg11.dtd">
<!-- Generated by graphviz version 2.43.0 (0)
 -->
<!-- Title: Line/Symbol Graphs Pages: 1 -->
<svg width="567pt" height="160pt"
 viewBox="0.00 0.00 567.00 160.00" xmlns="http://www.w3.org/2000/svg" xmlns:xlink="http://www.w3.org/1999/xlink">
<g id="graph0" class="graph" transform="scale(1 1) rotate(0) translate(4 156)">
<title>Line/Symbol Graphs</title>
<!-- Node2 -->
<g id="Node000002" class="node">
<title>Node2</title>
<g id="a_Node000002"><a xlink:href="group__jkqtplotter__concretegraphs.html" target="_top" xlink:title=" ">
<polygon fill="white" stroke="#666666" points="159,-90 0,-90 0,-69 159,-69 159,-90"/>
<text text-anchor="middle" x="79.5" y="-76.4" font-family="Helvetica,sans-Serif" font-size="12.00">Concrete Graph Classes</text>
</a>
</g>
</g>
<!-- Node1 -->
<g id="Node000001" class="node">
<title>Node1</title>
<g id="a_Node000001"><a xlink:title=" ">
<polygon fill="#999999" stroke="#666666" points="331,-90 195,-90 195,-69 331,-69 331,-90"/>
<text text-anchor="middle" x="263" y="-76.4" font-family="Helvetica,sans-Serif" font-size="12.00">Line/Symbol Graphs</text>
</a>
</g>
</g>
<!-- Node2&#45;&gt;Node1 -->
<g id="edge1" class="edge">
<title>Node2&#45;&gt;Node1</title>
<path fill="none" stroke="black" d="M169.21,-79.5C177.88,-79.5 186.58,-79.5 194.99,-79.5"/>
<polygon fill="black" stroke="black" points="169.05,-76 159.05,-79.5 169.05,-83 169.05,-76"/>
</g>
<!-- Node4 -->
<g id="Node000004" class="node">
<title>Node4</title>
<g id="a_Node000004"><a xlink:href="group__jkqtplotter__functiongraphs.html" target="_top" xlink:title=" ">
<polygon fill="white" stroke="#666666" points="519.5,-152 406.5,-152 406.5,-131 519.5,-131 519.5,-152"/>
<text text-anchor="middle" x="463" y="-138.4" font-family="Helvetica,sans-Serif" font-size="12.00">Function Graphs</text>
</a>
</g>
</g>
<!-- Node1&#45;&gt;Node4 -->
<g id="edge3" class="edge">
<title>Node1&#45;&gt;Node4</title>
<path fill="none" stroke="black" d="M294.93,-94.31C315.08,-103.48 342.15,-114.91 367,-122.5 379.55,-126.33 393.27,-129.59 406.28,-132.28"/>
<polygon fill="black" stroke="black" points="296.18,-91.03 285.64,-90.02 293.25,-97.39 296.18,-91.03"/>
</g>
<!-- Node5 -->
<g id="Node000005" class="node">
<title>Node5</title>
<g id="a_Node000005"><a xlink:href="group__jkqtplotter__linesymbolgraphs__line.html" target="_top" xlink:title=" ">
<polygon fill="white" stroke="#666666" points="507,-113 419,-113 419,-92 507,-92 507,-113"/>
<text text-anchor="middle" x="463" y="-99.4" font-family="Helvetica,sans-Serif" font-size="12.00">Line Graphs</text>
</a>
</g>
</g>
<!-- Node1&#45;&gt;Node5 -->
<g id="edge4" class="edge">
<title>Node1&#45;&gt;Node5</title>
<path fill="none" stroke="black" d="M341.05,-88.45C367.51,-91.52 396.17,-94.85 418.95,-97.5"/>
<polygon fill="black" stroke="black" points="341.37,-84.96 331.03,-87.29 340.56,-91.92 341.37,-84.96"/>
</g>
<!-- Node3 -->
<g id="Node000003" class="node">
<title>Node3</title>
<g id="a_Node000003"><a xlink:href="group__jkqtplotter__linesymbolgraphs__param.html" target="_top" xlink:title=" ">
<polygon fill="white" stroke="#666666" points="559,-73.5 367,-73.5 367,-39.5 559,-39.5 559,-73.5"/>
<text text-anchor="start" x="375" y="-59.9" font-family="Helvetica,sans-Serif" font-size="12.00">Bubble Charts / Parametrized</text>
<text text-anchor="middle" x="463" y="-46.9" font-family="Helvetica,sans-Serif" font-size="12.00"> Scatter Graphs</text>
</a>
</g>
</g>
<!-- Node1&#45;&gt;Node3 -->
<g id="edge2" class="edge">
<title>Node1&#45;&gt;Node3</title>
<path fill="none" stroke="black" d="M341.2,-70.53C349.64,-69.55 358.3,-68.55 366.92,-67.54"/>
<polygon fill="black" stroke="black" points="340.56,-67.08 331.03,-71.71 341.37,-74.04 340.56,-67.08"/>
</g>
<!-- Node6 -->
<g id="Node000006" class="node">
<title>Node6</title>
<g id="a_Node000006"><a xlink:href="group__jkqtplotter__linesymbolgraphs__scatter.html" target="_top" xlink:title=" ">
<polygon fill="white" stroke="#666666" points="516.5,-21 409.5,-21 409.5,0 516.5,0 516.5,-21"/>
<text text-anchor="middle" x="463" y="-7.4" font-family="Helvetica,sans-Serif" font-size="12.00">Scatter Graphs</text>
</a>
</g>
</g>
<!-- Node1&#45;&gt;Node6 -->
<g id="edge5" class="edge">
<title>Node1&#45;&gt;Node6</title>
<path fill="none" stroke="black" d="M291.79,-64.06C312.1,-53.34 340.6,-39.42 367,-30.5 380.41,-25.97 395.25,-22.26 409.14,-19.32"/>
<polygon fill="black" stroke="black" points="289.95,-61.08 282.8,-68.89 293.26,-67.25 289.95,-61.08"/>
</g>
</g>
</svg>
