<?xml version="1.0" encoding="UTF-8" standalone="no"?>
<!DOCTYPE svg PUBLIC "-//W3C//DTD SVG 1.1//EN"
 "http://www.w3.org/Graphics/SVG/1.1/DTD/svg11.dtd">
<!-- Generated by graphviz version 2.43.0 (0)
 -->
<!-- Title: Mix&#45;in classes for Graphs Pages: 1 -->
<svg width="497pt" height="160pt"
 viewBox="0.00 0.00 497.00 159.50" xmlns="http://www.w3.org/2000/svg" xmlns:xlink="http://www.w3.org/1999/xlink">

<svg id="main" version="1.1" xmlns="http://www.w3.org/2000/svg" xmlns:xlink="http://www.w3.org/1999/xlink" xml:space="preserve">

<style type="text/css"><![CDATA[
.node, .edge {opacity: 0.7;}
.node.selected, .edge.selected {opacity: 1;}
.edge:hover path { stroke: red; }
.edge:hover polygon { stroke: red; fill: red; }
]]></style>
<script type="application/ecmascript" xlink:href="svg.min.js"/>
<svg id="graph" class="graph">
<g id="graph0" class="graph" transform="scale(1 1) rotate(0) translate(4 155.5)">
<title>Mix&#45;in classes for Graphs</title>
<!-- Node4 -->
<g id="Node000004" class="node">
<title>Node4</title>
<g id="a_Node000004"><a xlink:href="group__jkqtplotter__basegraphs__stylemixins.html" target="_top" xlink:title=" ">
<polygon fill="white" stroke="#666666" points="489,-151.5 331,-151.5 331,-117.5 489,-117.5 489,-151.5"/>
<text text-anchor="start" x="339" y="-137.9" font-family="Helvetica,sans-Serif" font-size="12.00">Mix&#45;In Classes for</text>
<text text-anchor="middle" x="410" y="-124.9" font-family="Helvetica,sans-Serif" font-size="12.00"> Styling General Graphs</text>
</a>
</g>
</g>
<!-- Node3 -->
<g id="Node000003" class="node">
<title>Node3</title>
<g id="a_Node000003"><a xlink:href="group__jkqtplotter__basegraphserrors.html" target="_top" xlink:title=" ">
<polygon fill="white" stroke="#666666" points="471,-99.5 349,-99.5 349,-65.5 471,-65.5 471,-99.5"/>
<text text-anchor="start" x="357" y="-85.9" font-family="Helvetica,sans-Serif" font-size="12.00">Mix&#45;In Classes for</text>
<text text-anchor="middle" x="410" y="-72.9" font-family="Helvetica,sans-Serif" font-size="12.00"> Error Indicators</text>
</a>
</g>
</g>
<!-- Node2 -->
<g id="Node000002" class="node">
<title>Node2</title>
<g id="a_Node000002"><a xlink:href="group__jkqtplotter__elements.html" target="_top" xlink:title=" ">
<polygon fill="white" stroke="#666666" points="140,-93 0,-93 0,-72 140,-72 140,-93"/>
<text text-anchor="middle" x="70" y="-79.4" font-family="Helvetica,sans-Serif" font-size="12.00">Plot Element Classes</text>
</a>
</g>
</g>
<!-- Node1 -->
<g id="Node000001" class="node">
<title>Node1</title>
<g id="a_Node000001"><a xlink:title=" ">
<polygon fill="#999999" stroke="#666666" points="295,-99.5 176,-99.5 176,-65.5 295,-65.5 295,-99.5"/>
<text text-anchor="start" x="184" y="-85.9" font-family="Helvetica,sans-Serif" font-size="12.00">Mix&#45;in classes for</text>
<text text-anchor="middle" x="235.5" y="-72.9" font-family="Helvetica,sans-Serif" font-size="12.00"> Graphs</text>
</a>
</g>
</g>
<!-- Node2&#45;&gt;Node1 -->
<g id="edge1" class="edge">
<title>Node2&#45;&gt;Node1</title>
<path fill="none" stroke="black" d="M150.39,-82.5C158.98,-82.5 167.61,-82.5 175.89,-82.5"/>
<polygon fill="black" stroke="black" points="150.34,-79 140.34,-82.5 150.34,-86 150.34,-79"/>
</g>
<!-- Node1&#45;&gt;Node4 -->
<g id="edge3" class="edge">
<title>Node1&#45;&gt;Node4</title>
<path fill="none" stroke="black" d="M302.99,-102.54C319.29,-107.46 336.6,-112.67 352.39,-117.44"/>
<polygon fill="black" stroke="black" points="303.57,-99.06 292.98,-99.53 301.55,-105.76 303.57,-99.06"/>
</g>
<!-- Node1&#45;&gt;Node3 -->
<g id="edge2" class="edge">
<title>Node1&#45;&gt;Node3</title>
<path fill="none" stroke="black" d="M305.67,-82.5C319.98,-82.5 334.96,-82.5 348.92,-82.5"/>
<polygon fill="black" stroke="black" points="305.38,-79 295.38,-82.5 305.38,-86 305.38,-79"/>
</g>
<!-- Node5 -->
<g id="Node000005" class="node">
<title>Node5</title>
<g id="a_Node000005"><a xlink:href="group__jkqtplotter__specialgraphs__stylemixins.html" target="_top" xlink:title=" ">
<polygon fill="white" stroke="#666666" points="486,-47 334,-47 334,0 486,0 486,-47"/>
<text text-anchor="start" x="342" y="-33.4" font-family="Helvetica,sans-Serif" font-size="12.00">Mix&#45;In Classes for</text>
<text text-anchor="start" x="342" y="-20.4" font-family="Helvetica,sans-Serif" font-size="12.00"> Styling Specialized</text>
<text text-anchor="middle" x="410" y="-7.4" font-family="Helvetica,sans-Serif" font-size="12.00"> Graphs (Boxplots etz.)</text>
</a>
</g>
</g>
<!-- Node1&#45;&gt;Node5 -->
<g id="edge4" class="edge">
<title>Node1&#45;&gt;Node5</title>
<path fill="none" stroke="black" d="M296.07,-62.13C310.33,-57.25 325.66,-52 340.29,-47"/>
<polygon fill="black" stroke="black" points="294.72,-58.89 286.39,-65.43 296.99,-65.51 294.72,-58.89"/>
</g>
</g>
</svg>
</svg>

<style type='text/css'>
<![CDATA[
[data-mouse-over-selected='false'] { opacity: 0.7; }
[data-mouse-over-selected='true']  { opacity: 1.0; }
]]>
</style>
<script type="application/ecmascript"><![CDATA[
document.addEventListener('DOMContentLoaded', (event) => {
  highlightEdges();
  highlightAdjacentNodes();
});
]]></script>
</svg>
