<?xml version="1.0" encoding="UTF-8" standalone="no"?>
<!DOCTYPE svg PUBLIC "-//W3C//DTD SVG 1.1//EN"
 "http://www.w3.org/Graphics/SVG/1.1/DTD/svg11.dtd">
<!-- Generated by graphviz version 2.43.0 (0)
 -->
<!-- Title: jkqtp_truncTo Pages: 1 -->
<svg width="337pt" height="82pt"
 viewBox="0.00 0.00 337.00 81.50" xmlns="http://www.w3.org/2000/svg" xmlns:xlink="http://www.w3.org/1999/xlink">
<g id="graph0" class="graph" transform="scale(1 1) rotate(0) translate(4 77.5)">
<title>jkqtp_truncTo</title>
<!-- Node1 -->
<g id="Node000001" class="node">
<title>Node1</title>
<g id="a_Node000001"><a xlink:title="round a double v using trunc() and convert it to a specified type T (static_cast!)">
<polygon fill="#999999" stroke="#666666" points="329,-44 233,-44 233,-23 329,-23 329,-44"/>
<text text-anchor="middle" x="281" y="-30.4" font-family="Helvetica,sans-Serif" font-size="12.00">jkqtp_truncTo</text>
</a>
</g>
</g>
<!-- Node2 -->
<g id="Node000002" class="node">
<title>Node2</title>
<g id="a_Node000002"><a xlink:href="class_j_k_q_t_p_math_image.html#a0aef9cfb82a606eae54cb6139c22e46e" target="_top" xlink:title="return the value (raw data!) of the contained modifier image at the given coordinate">
<polygon fill="white" stroke="#666666" points="197,-73.5 0,-73.5 0,-39.5 197,-39.5 197,-73.5"/>
<text text-anchor="start" x="8" y="-59.9" font-family="Helvetica,sans-Serif" font-size="12.00">JKQTPMathImage::getModifier</text>
<text text-anchor="middle" x="98.5" y="-46.9" font-family="Helvetica,sans-Serif" font-size="12.00">ValueAt</text>
</a>
</g>
</g>
<!-- Node1&#45;&gt;Node2 -->
<g id="edge1_Node000001_Node000002" class="edge">
<title>Node1&#45;&gt;Node2</title>
<g id="a_edge1_Node000001_Node000002"><a xlink:title=" ">
<path fill="none" stroke="#63b8ff" d="M222.54,-40.82C214.43,-41.86 205.91,-42.94 197.29,-44.04"/>
<polygon fill="#63b8ff" stroke="#63b8ff" points="223.1,-44.28 232.58,-39.54 222.21,-37.34 223.1,-44.28"/>
</a>
</g>
</g>
<!-- Node3 -->
<g id="Node000003" class="node">
<title>Node3</title>
<g id="a_Node000003"><a xlink:href="class_j_k_q_t_p_math_image.html#aa2ff3e65866c887bb2b63e1c5e13ded5" target="_top" xlink:title="return the value (raw data!) of the contained image at the given coordinate">
<polygon fill="white" stroke="#666666" points="195.5,-21 1.5,-21 1.5,0 195.5,0 195.5,-21"/>
<text text-anchor="middle" x="98.5" y="-7.4" font-family="Helvetica,sans-Serif" font-size="12.00">JKQTPMathImage::getValueAt</text>
</a>
</g>
</g>
<!-- Node1&#45;&gt;Node3 -->
<g id="edge2_Node000001_Node000003" class="edge">
<title>Node1&#45;&gt;Node3</title>
<g id="a_edge2_Node000001_Node000003"><a xlink:title=" ">
<path fill="none" stroke="#63b8ff" d="M222.53,-26.18C209.69,-24.54 195.83,-22.78 182.21,-21.04"/>
<polygon fill="#63b8ff" stroke="#63b8ff" points="222.21,-29.66 232.58,-27.46 223.1,-22.72 222.21,-29.66"/>
</a>
</g>
</g>
</g>
</svg>
