<?xml version="1.0" encoding="UTF-8" standalone="no"?>
<!DOCTYPE svg PUBLIC "-//W3C//DTD SVG 1.1//EN"
 "http://www.w3.org/Graphics/SVG/1.1/DTD/svg11.dtd">
<!-- Generated by graphviz version 2.43.0 (0)
 -->
<!-- Title: Graphical Class Hierarchy Pages: 1 -->
<svg width="372pt" height="485pt"
 viewBox="0.00 0.00 372.00 485.00" xmlns="http://www.w3.org/2000/svg" xmlns:xlink="http://www.w3.org/1999/xlink">
<g id="graph0" class="graph" transform="scale(1 1) rotate(0) translate(4 481)">
<title>Graphical Class Hierarchy</title>
<!-- Node0 -->
<g id="Node000000" class="node">
<title>Node0</title>
<g id="a_Node000000"><a xlink:title=" ">
<polygon fill="#e0e0e0" stroke="#999999" points="91,-262 0,-262 0,-241 91,-241 91,-262"/>
<text text-anchor="middle" x="45.5" y="-248.4" font-family="Helvetica,sans-Serif" font-size="12.00">QComboBox</text>
</a>
</g>
</g>
<!-- Node1 -->
<g id="Node000001" class="node">
<title>Node1</title>
<g id="a_Node000001"><a xlink:href="class_j_k_q_t_p_c_a_draw_mode_combo_box.html" target="_top" xlink:title="a QComboBox which shows JKQTPCADrawMode">
<polygon fill="white" stroke="#666666" points="344.5,-477 146.5,-477 146.5,-456 344.5,-456 344.5,-477"/>
<text text-anchor="middle" x="245.5" y="-463.4" font-family="Helvetica,sans-Serif" font-size="12.00">JKQTPCADrawModeComboBox</text>
</a>
</g>
</g>
<!-- Node0&#45;&gt;Node1 -->
<g id="edge248_Node000000_Node000001" class="edge">
<title>Node0&#45;&gt;Node1</title>
<g id="a_edge248_Node000000_Node000001"><a xlink:title=" ">
<path fill="none" stroke="#63b8ff" d="M48.49,-272.18C53.57,-312.81 70.89,-402.99 127,-447.5 132.83,-452.12 139.34,-455.82 146.23,-458.77"/>
<polygon fill="#63b8ff" stroke="#63b8ff" points="51.95,-271.66 47.36,-262.11 44.99,-272.44 51.95,-271.66"/>
</a>
</g>
</g>
<!-- Node2 -->
<g id="Node000002" class="node">
<title>Node2</title>
<g id="a_Node000002"><a xlink:href="class_j_k_q_t_p_c_a_label_type_combo_box.html" target="_top" xlink:title="a QComboBox which shows JKQTPCALabelType">
<polygon fill="white" stroke="#666666" points="342,-438 149,-438 149,-417 342,-417 342,-438"/>
<text text-anchor="middle" x="245.5" y="-424.4" font-family="Helvetica,sans-Serif" font-size="12.00">JKQTPCALabelTypeComboBox</text>
</a>
</g>
</g>
<!-- Node0&#45;&gt;Node2 -->
<g id="edge249_Node000000_Node000002" class="edge">
<title>Node0&#45;&gt;Node2</title>
<g id="a_edge249_Node000000_Node000002"><a xlink:title=" ">
<path fill="none" stroke="#63b8ff" d="M50.7,-271.85C58.91,-306.07 80.5,-374.69 127,-408.5 133.69,-413.36 141.15,-417.17 148.99,-420.13"/>
<polygon fill="#63b8ff" stroke="#63b8ff" points="54.11,-271.02 48.49,-262.04 47.28,-272.56 54.11,-271.02"/>
</a>
</g>
</g>
<!-- Node3 -->
<g id="Node000003" class="node">
<title>Node3</title>
<g id="a_Node000003"><a xlink:href="class_j_k_q_t_p_error_plotstyle_combo_box.html" target="_top" xlink:title="a QComboBox which shows JKQTPErrorPlotstyle">
<polygon fill="white" stroke="#666666" points="344,-399 147,-399 147,-378 344,-378 344,-399"/>
<text text-anchor="middle" x="245.5" y="-385.4" font-family="Helvetica,sans-Serif" font-size="12.00">JKQTPErrorPlotstyleComboBox</text>
</a>
</g>
</g>
<!-- Node0&#45;&gt;Node3 -->
<g id="edge250_Node000000_Node000003" class="edge">
<title>Node0&#45;&gt;Node3</title>
<g id="a_edge250_Node000000_Node000003"><a xlink:title=" ">
<path fill="none" stroke="#63b8ff" d="M54.27,-271.75C65.77,-298.79 90.05,-346.01 127,-369.5 133.19,-373.44 139.92,-376.64 146.93,-379.25"/>
<polygon fill="#63b8ff" stroke="#63b8ff" points="57.37,-270.09 50.36,-262.15 50.89,-272.73 57.37,-270.09"/>
</a>
</g>
</g>
<!-- Node4 -->
<g id="Node000004" class="node">
<title>Node4</title>
<g id="a_Node000004"><a xlink:href="class_j_k_q_t_p_image_modifier_mode_combo_box.html" target="_top" xlink:title="a QComboBox which shows JKQTPMathImageModifierMode">
<polygon fill="white" stroke="#666666" points="364,-360 127,-360 127,-339 364,-339 364,-360"/>
<text text-anchor="middle" x="245.5" y="-346.4" font-family="Helvetica,sans-Serif" font-size="12.00">JKQTPImageModifierModeComboBox</text>
</a>
</g>
</g>
<!-- Node0&#45;&gt;Node4 -->
<g id="edge251_Node000000_Node000004" class="edge">
<title>Node0&#45;&gt;Node4</title>
<g id="a_edge251_Node000000_Node000004"><a xlink:title=" ">
<path fill="none" stroke="#63b8ff" d="M59.79,-270.04C74.15,-288.55 98.79,-316.24 127,-330.5 133.64,-333.86 140.73,-336.65 148.03,-338.96"/>
<polygon fill="#63b8ff" stroke="#63b8ff" points="62.57,-267.92 53.77,-262.02 56.98,-272.12 62.57,-267.92"/>
</a>
</g>
</g>
<!-- Node5 -->
<g id="Node000005" class="node">
<title>Node5</title>
<g id="a_Node000005"><a xlink:href="class_j_k_q_t_p_key_layout_combo_box.html" target="_top" xlink:title="a QComboBox which shows JKQTPKeyPosition">
<polygon fill="white" stroke="#666666" points="335,-321 156,-321 156,-300 335,-300 335,-321"/>
<text text-anchor="middle" x="245.5" y="-307.4" font-family="Helvetica,sans-Serif" font-size="12.00">JKQTPKeyLayoutComboBox</text>
</a>
</g>
</g>
<!-- Node0&#45;&gt;Node5 -->
<g id="edge252_Node000000_Node000005" class="edge">
<title>Node0&#45;&gt;Node5</title>
<g id="a_edge252_Node000000_Node000005"><a xlink:title=" ">
<path fill="none" stroke="#63b8ff" d="M72.95,-267.18C88.26,-275.59 108.17,-285.45 127,-291.5 137.53,-294.88 148.78,-297.68 160.01,-299.99"/>
<polygon fill="#63b8ff" stroke="#63b8ff" points="74.5,-264.03 64.07,-262.17 71.06,-270.13 74.5,-264.03"/>
</a>
</g>
</g>
<!-- Node6 -->
<g id="Node000006" class="node">
<title>Node6</title>
<g id="a_Node000006"><a xlink:href="class_j_k_q_t_p_key_position_combo_box.html" target="_top" xlink:title="a QComboBox which shows JKQTPKeyPosition">
<polygon fill="white" stroke="#666666" points="338,-282 153,-282 153,-261 338,-261 338,-282"/>
<text text-anchor="middle" x="245.5" y="-268.4" font-family="Helvetica,sans-Serif" font-size="12.00">JKQTPKeyPositionComboBox</text>
</a>
</g>
</g>
<!-- Node0&#45;&gt;Node6 -->
<g id="edge253_Node000000_Node000006" class="edge">
<title>Node0&#45;&gt;Node6</title>
<g id="a_edge253_Node000000_Node000006"><a xlink:title=" ">
<path fill="none" stroke="#63b8ff" d="M101.59,-257.06C117.5,-258.67 135.31,-260.47 152.82,-262.24"/>
<polygon fill="#63b8ff" stroke="#63b8ff" points="101.73,-253.56 91.43,-256.04 101.03,-260.53 101.73,-253.56"/>
</a>
</g>
</g>
<!-- Node7 -->
<g id="Node000007" class="node">
<title>Node7</title>
<g id="a_Node000007"><a xlink:href="class_j_k_q_t_p_label_position_combo_box.html" target="_top" xlink:title="a QComboBox which shows JKQTPLabelPosition">
<polygon fill="white" stroke="#666666" points="343,-243 148,-243 148,-222 343,-222 343,-243"/>
<text text-anchor="middle" x="245.5" y="-229.4" font-family="Helvetica,sans-Serif" font-size="12.00">JKQTPLabelPositionComboBox</text>
</a>
</g>
</g>
<!-- Node0&#45;&gt;Node7 -->
<g id="edge254_Node000000_Node000007" class="edge">
<title>Node0&#45;&gt;Node7</title>
<g id="a_edge254_Node000000_Node000007"><a xlink:title=" ">
<path fill="none" stroke="#63b8ff" d="M101.58,-246.21C115.92,-244.84 131.8,-243.31 147.61,-241.8"/>
<polygon fill="#63b8ff" stroke="#63b8ff" points="101.05,-242.75 91.43,-247.19 101.72,-249.72 101.05,-242.75"/>
</a>
</g>
</g>
<!-- Node8 -->
<g id="Node000008" class="node">
<title>Node8</title>
<g id="a_Node000008"><a xlink:href="class_j_k_q_t_p_line_plot_style_combo_box.html" target="_top" xlink:title="a QComboBox to select whether a line, symbols or both should be displayed">
<polygon fill="white" stroke="#666666" points="342.5,-204 148.5,-204 148.5,-183 342.5,-183 342.5,-204"/>
<text text-anchor="middle" x="245.5" y="-190.4" font-family="Helvetica,sans-Serif" font-size="12.00">JKQTPLinePlotStyleComboBox</text>
</a>
</g>
</g>
<!-- Node0&#45;&gt;Node8 -->
<g id="edge255_Node000000_Node000008" class="edge">
<title>Node0&#45;&gt;Node8</title>
<g id="a_edge255_Node000000_Node000008"><a xlink:title=" ">
<path fill="none" stroke="#63b8ff" d="M73.98,-236.24C89.19,-228.38 108.69,-219.26 127,-213.5 139.04,-209.71 152.01,-206.59 164.79,-204.04"/>
<polygon fill="#63b8ff" stroke="#63b8ff" points="72.31,-233.16 65.1,-240.93 75.58,-239.35 72.31,-233.16"/>
</a>
</g>
</g>
<!-- Node9 -->
<g id="Node000009" class="node">
<title>Node9</title>
<g id="a_Node000009"><a xlink:href="class_j_k_q_t_p_line_plot_style_with_symbol_size_combo_box.html" target="_top" xlink:title="a QComboBox to select whether a line, symbols or both should be displayed, in addition to JKQTPLinePl...">
<polygon fill="white" stroke="#666666" points="345.5,-164.5 145.5,-164.5 145.5,-130.5 345.5,-130.5 345.5,-164.5"/>
<text text-anchor="start" x="153.5" y="-150.9" font-family="Helvetica,sans-Serif" font-size="12.00">JKQTPLinePlotStyleWithSymbol</text>
<text text-anchor="middle" x="245.5" y="-137.9" font-family="Helvetica,sans-Serif" font-size="12.00">SizeComboBox</text>
</a>
</g>
</g>
<!-- Node0&#45;&gt;Node9 -->
<g id="edge256_Node000000_Node000009" class="edge">
<title>Node0&#45;&gt;Node9</title>
<g id="a_edge256_Node000000_Node000009"><a xlink:title=" ">
<path fill="none" stroke="#63b8ff" d="M60.76,-232.99C75.44,-215.26 99.94,-189.09 127,-174.5 134.09,-170.68 141.71,-167.39 149.53,-164.57"/>
<polygon fill="#63b8ff" stroke="#63b8ff" points="57.91,-230.95 54.37,-240.94 63.37,-235.34 57.91,-230.95"/>
</a>
</g>
</g>
<!-- Node10 -->
<g id="Node000010" class="node">
<title>Node10</title>
<g id="a_Node000010"><a xlink:href="class_j_k_q_t_p_math_image_color_palette_combo_box.html" target="_top" xlink:title="class to plot an image from an 2&#45;dimensional array of values">
<polygon fill="white" stroke="#666666" points="342.5,-112.5 148.5,-112.5 148.5,-78.5 342.5,-78.5 342.5,-112.5"/>
<text text-anchor="start" x="156.5" y="-98.9" font-family="Helvetica,sans-Serif" font-size="12.00">JKQTPMathImageColorPalette</text>
<text text-anchor="middle" x="245.5" y="-85.9" font-family="Helvetica,sans-Serif" font-size="12.00">ComboBox</text>
</a>
</g>
</g>
<!-- Node0&#45;&gt;Node10 -->
<g id="edge257_Node000000_Node000010" class="edge">
<title>Node0&#45;&gt;Node10</title>
<g id="a_edge257_Node000000_Node000010"><a xlink:title=" ">
<path fill="none" stroke="#63b8ff" d="M53.28,-231.2C64.09,-202.13 88.05,-149.13 127,-121.5 133.56,-116.85 140.8,-113 148.38,-109.83"/>
<polygon fill="#63b8ff" stroke="#63b8ff" points="49.95,-230.13 49.9,-240.73 56.54,-232.48 49.95,-230.13"/>
</a>
</g>
</g>
<!-- Node11 -->
<g id="Node000011" class="node">
<title>Node11</title>
<g id="a_Node000011"><a xlink:href="class_j_k_q_t_p_special_line_type_combo_box.html" target="_top" xlink:title="a QComboBox which shows JKQTPSpecialLineType">
<polygon fill="white" stroke="#666666" points="351.5,-60 139.5,-60 139.5,-39 351.5,-39 351.5,-60"/>
<text text-anchor="middle" x="245.5" y="-46.4" font-family="Helvetica,sans-Serif" font-size="12.00">JKQTPSpecialLineTypeComboBox</text>
</a>
</g>
</g>
<!-- Node0&#45;&gt;Node11 -->
<g id="edge258_Node000000_Node000011" class="edge">
<title>Node0&#45;&gt;Node11</title>
<g id="a_edge258_Node000000_Node000011"><a xlink:title=" ">
<path fill="none" stroke="#63b8ff" d="M49.26,-230.73C55.54,-192.29 74.64,-110.26 127,-69.5 131.74,-65.81 136.91,-62.71 142.35,-60.09"/>
<polygon fill="#63b8ff" stroke="#63b8ff" points="45.78,-230.35 47.76,-240.76 52.7,-231.39 45.78,-230.35"/>
</a>
</g>
</g>
<!-- Node12 -->
<g id="Node000012" class="node">
<title>Node12</title>
<g id="a_Node000012"><a xlink:href="class_j_k_q_t_p_symbol_combo_box.html" target="_top" xlink:title="a QComboBox which shows JKQTPGraphSymbols">
<polygon fill="white" stroke="#666666" points="326,-21 165,-21 165,0 326,0 326,-21"/>
<text text-anchor="middle" x="245.5" y="-7.4" font-family="Helvetica,sans-Serif" font-size="12.00">JKQTPSymbolComboBox</text>
</a>
</g>
</g>
<!-- Node0&#45;&gt;Node12 -->
<g id="edge259_Node000000_Node000012" class="edge">
<title>Node0&#45;&gt;Node12</title>
<g id="a_edge259_Node000000_Node000012"><a xlink:title=" ">
<path fill="none" stroke="#63b8ff" d="M47.45,-230.74C50.67,-186.42 64.83,-82.34 127,-30.5 137.81,-21.49 151.16,-15.85 164.95,-12.44"/>
<polygon fill="#63b8ff" stroke="#63b8ff" points="43.95,-230.69 46.83,-240.89 50.93,-231.12 43.95,-230.69"/>
</a>
</g>
</g>
</g>
</svg>
