<?xml version="1.0" encoding="UTF-8" standalone="no"?>
<!DOCTYPE svg PUBLIC "-//W3C//DTD SVG 1.1//EN"
 "http://www.w3.org/Graphics/SVG/1.1/DTD/svg11.dtd">
<!-- Generated by graphviz version 2.43.0 (0)
 -->
<!-- Title: Graphical Class Hierarchy Pages: 1 -->
<svg width="924pt" height="589pt"
 viewBox="0.00 0.00 924.00 589.00" xmlns="http://www.w3.org/2000/svg" xmlns:xlink="http://www.w3.org/1999/xlink">
<g id="graph0" class="graph" transform="scale(1 1) rotate(0) translate(4 585)">
<title>Graphical Class Hierarchy</title>
<!-- Node0 -->
<g id="Node000000" class="node">
<title>Node0</title>
<g id="a_Node000000"><a xlink:href="class_j_k_q_t_math_text_modify_environment_node_mix_in.html" target="_top" xlink:title="mixin extending a node that does not produce any output, but provides a function modifyEnvironment() ...">
<polygon fill="white" stroke="#666666" points="391.5,-404.5 177.5,-404.5 177.5,-370.5 391.5,-370.5 391.5,-404.5"/>
<text text-anchor="start" x="185.5" y="-390.9" font-family="Helvetica,sans-Serif" font-size="12.00">JKQTMathTextModifyEnvironment</text>
<text text-anchor="middle" x="284.5" y="-377.9" font-family="Helvetica,sans-Serif" font-size="12.00">NodeMixIn</text>
</a>
</g>
</g>
<!-- Node1 -->
<g id="Node000001" class="node">
<title>Node1</title>
<g id="a_Node000001"><a xlink:href="class_j_k_q_t_math_text_horizontal_list_node.html" target="_top" xlink:title="subclass representing a list of nodes in the syntax tree, layed out horizontally">
<polygon fill="white" stroke="#666666" points="657,-425 445,-425 445,-404 657,-404 657,-425"/>
<text text-anchor="middle" x="551" y="-411.4" font-family="Helvetica,sans-Serif" font-size="12.00">JKQTMathTextHorizontalListNode</text>
</a>
</g>
</g>
<!-- Node0&#45;&gt;Node1 -->
<g id="edge6_Node000000_Node000001" class="edge">
<title>Node0&#45;&gt;Node1</title>
<g id="a_edge6_Node000000_Node000001"><a xlink:title=" ">
<path fill="none" stroke="#63b8ff" d="M401.89,-399.38C416.89,-400.91 432.16,-402.47 446.93,-403.98"/>
<polygon fill="#63b8ff" stroke="#63b8ff" points="401.86,-395.86 391.56,-398.33 401.15,-402.82 401.86,-395.86"/>
</a>
</g>
</g>
<!-- Node11 -->
<g id="Node000011" class="node">
<title>Node11</title>
<g id="a_Node000011"><a xlink:href="class_j_k_q_t_math_text_modified_environment_instruction_node.html" target="_top" xlink:title="subclass representing an instruction node which modify the current JKQTMathTextEnvironment,...">
<polygon fill="white" stroke="#666666" points="664,-385.5 438,-385.5 438,-351.5 664,-351.5 664,-385.5"/>
<text text-anchor="start" x="446" y="-371.9" font-family="Helvetica,sans-Serif" font-size="12.00">JKQTMathTextModifiedEnvironment</text>
<text text-anchor="middle" x="551" y="-358.9" font-family="Helvetica,sans-Serif" font-size="12.00">InstructionNode</text>
</a>
</g>
</g>
<!-- Node0&#45;&gt;Node11 -->
<g id="edge7_Node000000_Node000011" class="edge">
<title>Node0&#45;&gt;Node11</title>
<g id="a_edge7_Node000000_Node000011"><a xlink:title=" ">
<path fill="none" stroke="#63b8ff" d="M401.62,-379.16C413.65,-378.29 425.87,-377.42 437.86,-376.56"/>
<polygon fill="#63b8ff" stroke="#63b8ff" points="401.28,-375.67 391.56,-379.88 401.78,-382.66 401.28,-375.67"/>
</a>
</g>
</g>
<!-- Node8 -->
<g id="Node000008" class="node">
<title>Node8</title>
<g id="a_Node000008"><a xlink:href="class_j_k_q_t_math_text_node.html" target="_top" xlink:title="subclass representing one node in the syntax tree">
<polygon fill="white" stroke="#666666" points="131,-235 0,-235 0,-214 131,-214 131,-235"/>
<text text-anchor="middle" x="65.5" y="-221.4" font-family="Helvetica,sans-Serif" font-size="12.00">JKQTMathTextNode</text>
</a>
</g>
</g>
<!-- Node9 -->
<g id="Node000009" class="node">
<title>Node9</title>
<g id="a_Node000009"><a xlink:href="class_j_k_q_t_math_text_empty_box_node.html" target="_top" xlink:title="subclass representing an empty bbox with defined width/height in the syntax tree">
<polygon fill="white" stroke="#666666" points="380,-352 189,-352 189,-331 380,-331 380,-352"/>
<text text-anchor="middle" x="284.5" y="-338.4" font-family="Helvetica,sans-Serif" font-size="12.00">JKQTMathTextEmptyBoxNode</text>
</a>
</g>
</g>
<!-- Node8&#45;&gt;Node9 -->
<g id="edge8_Node000008_Node000009" class="edge">
<title>Node8&#45;&gt;Node9</title>
<g id="a_edge8_Node000008_Node000009"><a xlink:title=" ">
<path fill="none" stroke="#63b8ff" d="M80,-243.42C97.35,-266.19 129.74,-303.7 167,-322.5 173.86,-325.96 181.21,-328.82 188.76,-331.17"/>
<polygon fill="#63b8ff" stroke="#63b8ff" points="82.67,-241.16 73.9,-235.21 77.05,-245.33 82.67,-241.16"/>
</a>
</g>
</g>
<!-- Node2 -->
<g id="Node000002" class="node">
<title>Node2</title>
<g id="a_Node000002"><a xlink:href="class_j_k_q_t_math_text_multi_child_node.html" target="_top" xlink:title="subclass representing a node in the syntax tree, that has two children">
<polygon fill="white" stroke="#666666" points="378.5,-483 190.5,-483 190.5,-462 378.5,-462 378.5,-483"/>
<text text-anchor="middle" x="284.5" y="-469.4" font-family="Helvetica,sans-Serif" font-size="12.00">JKQTMathTextMultiChildNode</text>
</a>
</g>
</g>
<!-- Node8&#45;&gt;Node2 -->
<g id="edge9_Node000008_Node000002" class="edge">
<title>Node8&#45;&gt;Node2</title>
<g id="a_edge9_Node000008_Node000002"><a xlink:title=" ">
<path fill="none" stroke="#63b8ff" d="M72.82,-245.18C85.27,-282.95 116.28,-363.78 167,-413.5 190.56,-436.59 224.97,-452.49 250.29,-461.92"/>
<polygon fill="#63b8ff" stroke="#63b8ff" points="76.05,-243.78 69.67,-235.32 69.38,-245.91 76.05,-243.78"/>
</a>
</g>
</g>
<!-- Node10 -->
<g id="Node000010" class="node">
<title>Node10</title>
<g id="a_Node000010"><a xlink:href="class_j_k_q_t_math_text_non_drawing_base_node.html" target="_top" xlink:title="base class for all derived classes that do not draw anything">
<polygon fill="white" stroke="#666666" points="401,-313 168,-313 168,-292 401,-292 401,-313"/>
<text text-anchor="middle" x="284.5" y="-299.4" font-family="Helvetica,sans-Serif" font-size="12.00">JKQTMathTextNonDrawingBaseNode</text>
</a>
</g>
</g>
<!-- Node8&#45;&gt;Node10 -->
<g id="edge16_Node000008_Node000010" class="edge">
<title>Node8&#45;&gt;Node10</title>
<g id="a_edge16_Node000008_Node000010"><a xlink:title=" ">
<path fill="none" stroke="#63b8ff" d="M101.22,-238.95C120.49,-246.81 144.94,-256.52 167,-264.5 194.41,-274.41 225.85,-284.6 249.15,-291.93"/>
<polygon fill="#63b8ff" stroke="#63b8ff" points="102.52,-235.7 91.94,-235.14 99.86,-242.18 102.52,-235.7"/>
</a>
</g>
</g>
<!-- Node13 -->
<g id="Node000013" class="node">
<title>Node13</title>
<g id="a_Node000013"><a xlink:href="class_j_k_q_t_math_text_simple_instruction_node.html" target="_top" xlink:title="subclass representing a simple instruction node which only accepts string arguments,...">
<polygon fill="white" stroke="#666666" points="402,-255 167,-255 167,-234 402,-234 402,-255"/>
<text text-anchor="middle" x="284.5" y="-241.4" font-family="Helvetica,sans-Serif" font-size="12.00">JKQTMathTextSimpleInstructionNode</text>
</a>
</g>
</g>
<!-- Node8&#45;&gt;Node13 -->
<g id="edge19_Node000008_Node000013" class="edge">
<title>Node8&#45;&gt;Node13</title>
<g id="a_edge19_Node000008_Node000013"><a xlink:title=" ">
<path fill="none" stroke="#63b8ff" d="M141.14,-231.38C150.26,-232.22 159.72,-233.09 169.25,-233.97"/>
<polygon fill="#63b8ff" stroke="#63b8ff" points="141.3,-227.88 131.02,-230.45 140.66,-234.85 141.3,-227.88"/>
</a>
</g>
</g>
<!-- Node14 -->
<g id="Node000014" class="node">
<title>Node14</title>
<g id="a_Node000014"><a xlink:href="class_j_k_q_t_math_text_single_child_node.html" target="_top" xlink:title="subclass representing a node in the syntax tree, that has one child">
<polygon fill="white" stroke="#666666" points="382.5,-216 186.5,-216 186.5,-195 382.5,-195 382.5,-216"/>
<text text-anchor="middle" x="284.5" y="-202.4" font-family="Helvetica,sans-Serif" font-size="12.00">JKQTMathTextSingleChildNode</text>
</a>
</g>
</g>
<!-- Node8&#45;&gt;Node14 -->
<g id="edge20_Node000008_Node000014" class="edge">
<title>Node8&#45;&gt;Node14</title>
<g id="a_edge20_Node000008_Node000014"><a xlink:title=" ">
<path fill="none" stroke="#63b8ff" d="M141.39,-217.94C155.86,-216.68 171.22,-215.33 186.28,-214.01"/>
<polygon fill="#63b8ff" stroke="#63b8ff" points="140.68,-214.49 131.02,-218.85 141.29,-221.47 140.68,-214.49"/>
</a>
</g>
</g>
<!-- Node24 -->
<g id="Node000024" class="node">
<title>Node24</title>
<g id="a_Node000024"><a xlink:href="class_j_k_q_t_math_text_symbol_node.html" target="_top" xlink:title="subclass representing one symbol (e.g. \alpha , \cdot ...) node in the syntax tree">
<polygon fill="white" stroke="#666666" points="372,-177 197,-177 197,-156 372,-156 372,-177"/>
<text text-anchor="middle" x="284.5" y="-163.4" font-family="Helvetica,sans-Serif" font-size="12.00">JKQTMathTextSymbolNode</text>
</a>
</g>
</g>
<!-- Node8&#45;&gt;Node24 -->
<g id="edge30_Node000008_Node000024" class="edge">
<title>Node8&#45;&gt;Node24</title>
<g id="a_edge30_Node000008_Node000024"><a xlink:title=" ">
<path fill="none" stroke="#63b8ff" d="M99.71,-210.1C119.05,-202.19 144.06,-192.74 167,-186.5 180.56,-182.81 195.21,-179.66 209.39,-177.03"/>
<polygon fill="#63b8ff" stroke="#63b8ff" points="98.33,-206.89 90.44,-213.96 101.02,-213.35 98.33,-206.89"/>
</a>
</g>
</g>
<!-- Node25 -->
<g id="Node000025" class="node">
<title>Node25</title>
<g id="a_Node000025"><a xlink:href="class_j_k_q_t_math_text_text_base_node.html" target="_top" xlink:title="base class for nodes representing text in the syntax tree">
<polygon fill="white" stroke="#666666" points="376.5,-99 192.5,-99 192.5,-78 376.5,-78 376.5,-99"/>
<text text-anchor="middle" x="284.5" y="-85.4" font-family="Helvetica,sans-Serif" font-size="12.00">JKQTMathTextTextBaseNode</text>
</a>
</g>
</g>
<!-- Node8&#45;&gt;Node25 -->
<g id="edge31_Node000008_Node000025" class="edge">
<title>Node8&#45;&gt;Node25</title>
<g id="a_edge31_Node000008_Node000025"><a xlink:title=" ">
<path fill="none" stroke="#63b8ff" d="M86.34,-207.53C106.06,-191.1 137.53,-166.03 167,-147.5 197.71,-128.19 235.54,-109.97 259.59,-99.02"/>
<polygon fill="#63b8ff" stroke="#63b8ff" points="84.05,-204.88 78.65,-214 88.56,-210.24 84.05,-204.88"/>
</a>
</g>
</g>
<!-- Node28 -->
<g id="Node000028" class="node">
<title>Node28</title>
<g id="a_Node000028"><a xlink:href="class_j_k_q_t_math_text_whitespace_node.html" target="_top" xlink:title="subclass representing one whitepsace node in the syntax tree">
<polygon fill="white" stroke="#666666" points="384.5,-60 184.5,-60 184.5,-39 384.5,-39 384.5,-60"/>
<text text-anchor="middle" x="284.5" y="-46.4" font-family="Helvetica,sans-Serif" font-size="12.00">JKQTMathTextWhitespaceNode</text>
</a>
</g>
</g>
<!-- Node8&#45;&gt;Node28 -->
<g id="edge34_Node000008_Node000028" class="edge">
<title>Node8&#45;&gt;Node28</title>
<g id="a_edge34_Node000008_Node000028"><a xlink:title=" ">
<path fill="none" stroke="#63b8ff" d="M73.6,-203.87C86.45,-169.84 116.98,-102.47 167,-69.5 172.65,-65.77 178.79,-62.67 185.18,-60.1"/>
<polygon fill="#63b8ff" stroke="#63b8ff" points="70.17,-203.06 70.04,-213.65 76.75,-205.45 70.17,-203.06"/>
</a>
</g>
</g>
<!-- Node2&#45;&gt;Node1 -->
<g id="edge12_Node000002_Node000001" class="edge">
<title>Node2&#45;&gt;Node1</title>
<g id="a_edge12_Node000002_Node000001"><a xlink:title=" ">
<path fill="none" stroke="#63b8ff" d="M334.57,-459.38C364.36,-451.63 403.24,-441.93 438,-434.5 453.74,-431.14 470.81,-427.89 486.77,-425.02"/>
<polygon fill="#63b8ff" stroke="#63b8ff" points="333.62,-456.01 324.83,-461.92 335.39,-462.78 333.62,-456.01"/>
</a>
</g>
</g>
<!-- Node3 -->
<g id="Node000003" class="node">
<title>Node3</title>
<g id="a_Node000003"><a xlink:href="class_j_k_q_t_math_text_dual_child_node.html" target="_top" xlink:title="subclass representing a node in the syntax tree, that has two children">
<polygon fill="white" stroke="#666666" points="644.5,-581 457.5,-581 457.5,-560 644.5,-560 644.5,-581"/>
<text text-anchor="middle" x="551" y="-567.4" font-family="Helvetica,sans-Serif" font-size="12.00">JKQTMathTextDualChildNode</text>
</a>
</g>
</g>
<!-- Node2&#45;&gt;Node3 -->
<g id="edge10_Node000002_Node000003" class="edge">
<title>Node2&#45;&gt;Node3</title>
<g id="a_edge10_Node000002_Node000003"><a xlink:title=" ">
<path fill="none" stroke="#63b8ff" d="M310.42,-488.5C339.77,-506.6 390.54,-535.62 438,-551.5 448.1,-554.88 458.92,-557.68 469.71,-559.99"/>
<polygon fill="#63b8ff" stroke="#63b8ff" points="312.01,-485.37 301.67,-483.04 308.3,-491.31 312.01,-485.37"/>
</a>
</g>
</g>
<!-- Node5 -->
<g id="Node000005" class="node">
<title>Node5</title>
<g id="a_Node000005"><a xlink:href="class_j_k_q_t_math_text_matrix_node.html" target="_top" xlink:title="subclass representing a \begin{matrix} , \begin{tabular} , \begin{array} , ... node">
<polygon fill="white" stroke="#666666" points="635,-542 467,-542 467,-521 635,-521 635,-542"/>
<text text-anchor="middle" x="551" y="-528.4" font-family="Helvetica,sans-Serif" font-size="12.00">JKQTMathTextMatrixNode</text>
</a>
</g>
</g>
<!-- Node2&#45;&gt;Node5 -->
<g id="edge13_Node000002_Node000005" class="edge">
<title>Node2&#45;&gt;Node5</title>
<g id="a_edge13_Node000002_Node000005"><a xlink:title=" ">
<path fill="none" stroke="#63b8ff" d="M331.75,-485.77C361.85,-494.13 402.06,-504.75 438,-512.5 452.17,-515.55 467.44,-518.42 482,-520.96"/>
<polygon fill="#63b8ff" stroke="#63b8ff" points="332.52,-482.35 321.95,-483.03 330.64,-489.09 332.52,-482.35"/>
</a>
</g>
</g>
<!-- Node6 -->
<g id="Node000006" class="node">
<title>Node6</title>
<g id="a_Node000006"><a xlink:href="class_j_k_q_t_math_text_sqrt_node.html" target="_top" xlink:title="subclass representing a sqrt node">
<polygon fill="white" stroke="#666666" points="628.5,-503 473.5,-503 473.5,-482 628.5,-482 628.5,-503"/>
<text text-anchor="middle" x="551" y="-489.4" font-family="Helvetica,sans-Serif" font-size="12.00">JKQTMathTextSqrtNode</text>
</a>
</g>
</g>
<!-- Node2&#45;&gt;Node6 -->
<g id="edge14_Node000002_Node000006" class="edge">
<title>Node2&#45;&gt;Node6</title>
<g id="a_edge14_Node000002_Node000006"><a xlink:title=" ">
<path fill="none" stroke="#63b8ff" d="M389.01,-480.33C417.09,-482.45 446.98,-484.71 473.3,-486.7"/>
<polygon fill="#63b8ff" stroke="#63b8ff" points="388.99,-476.82 378.75,-479.55 388.46,-483.8 388.99,-476.82"/>
</a>
</g>
</g>
<!-- Node7 -->
<g id="Node000007" class="node">
<title>Node7</title>
<g id="a_Node000007"><a xlink:href="class_j_k_q_t_math_text_vertical_list_node.html" target="_top" xlink:title="subclass representing a list of nodes in the syntax tree, layed out vertically">
<polygon fill="white" stroke="#666666" points="649,-464 453,-464 453,-443 649,-443 649,-464"/>
<text text-anchor="middle" x="551" y="-450.4" font-family="Helvetica,sans-Serif" font-size="12.00">JKQTMathTextVerticalListNode</text>
</a>
</g>
</g>
<!-- Node2&#45;&gt;Node7 -->
<g id="edge15_Node000002_Node000007" class="edge">
<title>Node2&#45;&gt;Node7</title>
<g id="a_edge15_Node000002_Node000007"><a xlink:title=" ">
<path fill="none" stroke="#63b8ff" d="M388.96,-465.07C409.93,-463.56 431.91,-461.98 452.66,-460.49"/>
<polygon fill="#63b8ff" stroke="#63b8ff" points="388.48,-461.59 378.75,-465.8 388.98,-468.58 388.48,-461.59"/>
</a>
</g>
</g>
<!-- Node4 -->
<g id="Node000004" class="node">
<title>Node4</title>
<g id="a_Node000004"><a xlink:href="class_j_k_q_t_math_text_frac_node.html" target="_top" xlink:title="subclass representing a \frac node">
<polygon fill="white" stroke="#666666" points="886,-581 730,-581 730,-560 886,-560 886,-581"/>
<text text-anchor="middle" x="808" y="-567.4" font-family="Helvetica,sans-Serif" font-size="12.00">JKQTMathTextFracNode</text>
</a>
</g>
</g>
<!-- Node3&#45;&gt;Node4 -->
<g id="edge11_Node000003_Node000004" class="edge">
<title>Node3&#45;&gt;Node4</title>
<g id="a_edge11_Node000003_Node000004"><a xlink:title=" ">
<path fill="none" stroke="#63b8ff" d="M655.02,-570.5C679.98,-570.5 706.25,-570.5 729.79,-570.5"/>
<polygon fill="#63b8ff" stroke="#63b8ff" points="654.78,-567 644.78,-570.5 654.78,-574 654.78,-567"/>
</a>
</g>
</g>
<!-- Node10&#45;&gt;Node11 -->
<g id="edge17_Node000010_Node000011" class="edge">
<title>Node10&#45;&gt;Node11</title>
<g id="a_edge17_Node000010_Node000011"><a xlink:title=" ">
<path fill="none" stroke="#63b8ff" d="M377.66,-315.33C385.99,-317.38 394.21,-319.76 402,-322.5 419.26,-328.58 420.92,-335.92 438,-342.5 446.66,-345.84 455.87,-348.82 465.15,-351.46"/>
<polygon fill="#63b8ff" stroke="#63b8ff" points="378.4,-311.9 367.87,-313.06 376.82,-318.72 378.4,-311.9"/>
</a>
</g>
</g>
<!-- Node12 -->
<g id="Node000012" class="node">
<title>Node12</title>
<g id="a_Node000012"><a xlink:href="class_j_k_q_t_math_text_noop_node.html" target="_top" xlink:title="subclass representing a node that outputs nothing">
<polygon fill="white" stroke="#666666" points="632,-333 470,-333 470,-312 632,-312 632,-333"/>
<text text-anchor="middle" x="551" y="-319.4" font-family="Helvetica,sans-Serif" font-size="12.00">JKQTMathTextNoopNode</text>
</a>
</g>
</g>
<!-- Node10&#45;&gt;Node12 -->
<g id="edge18_Node000010_Node000012" class="edge">
<title>Node10&#45;&gt;Node12</title>
<g id="a_edge18_Node000010_Node000012"><a xlink:title=" ">
<path fill="none" stroke="#63b8ff" d="M411.23,-312.01C431.21,-313.52 451.39,-315.04 469.93,-316.45"/>
<polygon fill="#63b8ff" stroke="#63b8ff" points="411.36,-308.51 401.13,-311.24 410.84,-315.49 411.36,-308.51"/>
</a>
</g>
</g>
<!-- Node15 -->
<g id="Node000015" class="node">
<title>Node15</title>
<g id="a_Node000015"><a xlink:href="class_j_k_q_t_math_text_block_node.html" target="_top" xlink:title="subclass representing a {...} block">
<polygon fill="white" stroke="#666666" points="632.5,-294 469.5,-294 469.5,-273 632.5,-273 632.5,-294"/>
<text text-anchor="middle" x="551" y="-280.4" font-family="Helvetica,sans-Serif" font-size="12.00">JKQTMathTextBlockNode</text>
</a>
</g>
</g>
<!-- Node14&#45;&gt;Node15 -->
<g id="edge21_Node000014_Node000015" class="edge">
<title>Node14&#45;&gt;Node15</title>
<g id="a_edge21_Node000014_Node000015"><a xlink:title=" ">
<path fill="none" stroke="#63b8ff" d="M389.31,-219.55C393.68,-221.32 397.93,-223.29 402,-225.5 422.73,-236.76 417.26,-253.26 438,-264.5 447.62,-269.72 458.34,-273.56 469.22,-276.39"/>
<polygon fill="#63b8ff" stroke="#63b8ff" points="390.15,-216.13 379.55,-216.01 387.76,-222.71 390.15,-216.13"/>
</a>
</g>
</g>
<!-- Node16 -->
<g id="Node000016" class="node">
<title>Node16</title>
<g id="a_Node000016"><a xlink:href="class_j_k_q_t_math_text_brace_node.html" target="_top" xlink:title="subclass representing a brace node">
<polygon fill="white" stroke="#666666" points="634,-255 468,-255 468,-234 634,-234 634,-255"/>
<text text-anchor="middle" x="551" y="-241.4" font-family="Helvetica,sans-Serif" font-size="12.00">JKQTMathTextBraceNode</text>
</a>
</g>
</g>
<!-- Node14&#45;&gt;Node16 -->
<g id="edge22_Node000014_Node000016" class="edge">
<title>Node14&#45;&gt;Node16</title>
<g id="a_edge22_Node000014_Node000016"><a xlink:title=" ">
<path fill="none" stroke="#63b8ff" d="M366.65,-217.47C402.42,-222.74 444.08,-228.88 478.64,-233.98"/>
<polygon fill="#63b8ff" stroke="#63b8ff" points="367.13,-214 356.73,-216 366.11,-220.92 367.13,-214"/>
</a>
</g>
</g>
<!-- Node17 -->
<g id="Node000017" class="node">
<title>Node17</title>
<g id="a_Node000017"><a xlink:href="class_j_k_q_t_math_text_decorated_node.html" target="_top" xlink:title="subclass representing a decorated text m (e.g. \vec \hat ...) node">
<polygon fill="white" stroke="#666666" points="648,-216 454,-216 454,-195 648,-195 648,-216"/>
<text text-anchor="middle" x="551" y="-202.4" font-family="Helvetica,sans-Serif" font-size="12.00">JKQTMathTextDecoratedNode</text>
</a>
</g>
</g>
<!-- Node14&#45;&gt;Node17 -->
<g id="edge23_Node000014_Node000017" class="edge">
<title>Node14&#45;&gt;Node17</title>
<g id="a_edge23_Node000014_Node000017"><a xlink:title=" ">
<path fill="none" stroke="#63b8ff" d="M392.98,-205.5C413.08,-205.5 433.98,-205.5 453.73,-205.5"/>
<polygon fill="#63b8ff" stroke="#63b8ff" points="392.86,-202 382.86,-205.5 392.86,-209 392.86,-202"/>
</a>
</g>
</g>
<!-- Node18 -->
<g id="Node000018" class="node">
<title>Node18</title>
<g id="a_Node000018"><a xlink:href="class_j_k_q_t_math_text_instruction1_node.html" target="_top" xlink:title="subclass representing an instruction node with exactly one argument and possibly additional parameter...">
<polygon fill="white" stroke="#666666" points="652,-177 450,-177 450,-156 652,-156 652,-177"/>
<text text-anchor="middle" x="551" y="-163.4" font-family="Helvetica,sans-Serif" font-size="12.00">JKQTMathTextInstruction1Node</text>
</a>
</g>
</g>
<!-- Node14&#45;&gt;Node18 -->
<g id="edge24_Node000014_Node000018" class="edge">
<title>Node14&#45;&gt;Node18</title>
<g id="a_edge24_Node000014_Node000018"><a xlink:title=" ">
<path fill="none" stroke="#63b8ff" d="M366.65,-193.53C402.42,-188.26 444.08,-182.12 478.64,-177.02"/>
<polygon fill="#63b8ff" stroke="#63b8ff" points="366.11,-190.08 356.73,-195 367.13,-197 366.11,-190.08"/>
</a>
</g>
</g>
<!-- Node22 -->
<g id="Node000022" class="node">
<title>Node22</title>
<g id="a_Node000022"><a xlink:href="class_j_k_q_t_math_text_subscript_node.html" target="_top" xlink:title="subclass representing an subscript node with exactly one argument in the syntax tree">
<polygon fill="white" stroke="#666666" points="644,-138 458,-138 458,-117 644,-117 644,-138"/>
<text text-anchor="middle" x="551" y="-124.4" font-family="Helvetica,sans-Serif" font-size="12.00">JKQTMathTextSubscriptNode</text>
</a>
</g>
</g>
<!-- Node14&#45;&gt;Node22 -->
<g id="edge28_Node000014_Node000022" class="edge">
<title>Node14&#45;&gt;Node22</title>
<g id="a_edge28_Node000014_Node000022"><a xlink:title=" ">
<path fill="none" stroke="#63b8ff" d="M391.74,-191.38C395.26,-189.9 398.69,-188.28 402,-186.5 422.77,-175.33 417.31,-158.83 438,-147.5 444.93,-143.7 452.43,-140.61 460.15,-138.08"/>
<polygon fill="#63b8ff" stroke="#63b8ff" points="390.36,-188.16 382.24,-194.96 392.83,-194.71 390.36,-188.16"/>
</a>
</g>
</g>
<!-- Node23 -->
<g id="Node000023" class="node">
<title>Node23</title>
<g id="a_Node000023"><a xlink:href="class_j_k_q_t_math_text_superscript_node.html" target="_top" xlink:title="subclass representing an superscript node with exactly one argument in the syntax tree">
<polygon fill="white" stroke="#666666" points="650.5,-99 451.5,-99 451.5,-78 650.5,-78 650.5,-99"/>
<text text-anchor="middle" x="551" y="-85.4" font-family="Helvetica,sans-Serif" font-size="12.00">JKQTMathTextSuperscriptNode</text>
</a>
</g>
</g>
<!-- Node14&#45;&gt;Node23 -->
<g id="edge29_Node000014_Node000023" class="edge">
<title>Node14&#45;&gt;Node23</title>
<g id="a_edge29_Node000014_Node000023"><a xlink:title=" ">
<path fill="none" stroke="#63b8ff" d="M391.83,-193.06C395.38,-191.12 398.79,-188.94 402,-186.5 432.39,-163.39 407.78,-131.84 438,-108.5 442.85,-104.76 448.16,-101.63 453.76,-99.02"/>
<polygon fill="#63b8ff" stroke="#63b8ff" points="390.24,-189.94 382.72,-197.41 393.26,-196.26 390.24,-189.94"/>
</a>
</g>
</g>
<!-- Node19 -->
<g id="Node000019" class="node">
<title>Node19</title>
<g id="a_Node000019"><a xlink:href="class_j_k_q_t_math_text_box_instruction_node.html" target="_top" xlink:title="subclass representing an instruction node which draws a (possibly colored) box around it&#39;s contents i...">
<polygon fill="white" stroke="#666666" points="916,-223 700,-223 700,-202 916,-202 916,-223"/>
<text text-anchor="middle" x="808" y="-209.4" font-family="Helvetica,sans-Serif" font-size="12.00">JKQTMathTextBoxInstructionNode</text>
</a>
</g>
</g>
<!-- Node18&#45;&gt;Node19 -->
<g id="edge25_Node000018_Node000019" class="edge">
<title>Node18&#45;&gt;Node19</title>
<g id="a_edge25_Node000018_Node000019"><a xlink:title=" ">
<path fill="none" stroke="#63b8ff" d="M621.18,-178.82C635.35,-181.35 650.16,-184.01 664,-186.5 692.06,-191.56 723.21,-197.21 749.26,-201.96"/>
<polygon fill="#63b8ff" stroke="#63b8ff" points="621.46,-175.31 611,-177 620.23,-182.2 621.46,-175.31"/>
</a>
</g>
</g>
<!-- Node20 -->
<g id="Node000020" class="node">
<title>Node20</title>
<g id="a_Node000020"><a xlink:href="class_j_k_q_t_math_text_modified_text_props_instruction_node.html" target="_top" xlink:title="subclass representing an instruction node which modifies the current font (as defined in JKQTMathText...">
<polygon fill="white" stroke="#666666" points="895,-183.5 721,-183.5 721,-149.5 895,-149.5 895,-183.5"/>
<text text-anchor="start" x="729" y="-169.9" font-family="Helvetica,sans-Serif" font-size="12.00">JKQTMathTextModifiedText</text>
<text text-anchor="middle" x="808" y="-156.9" font-family="Helvetica,sans-Serif" font-size="12.00">PropsInstructionNode</text>
</a>
</g>
</g>
<!-- Node18&#45;&gt;Node20 -->
<g id="edge26_Node000018_Node000020" class="edge">
<title>Node18&#45;&gt;Node20</title>
<g id="a_edge26_Node000018_Node000020"><a xlink:title=" ">
<path fill="none" stroke="#63b8ff" d="M662.25,-166.5C681.87,-166.5 702.04,-166.5 720.87,-166.5"/>
<polygon fill="#63b8ff" stroke="#63b8ff" points="662.05,-163 652.05,-166.5 662.05,-170 662.05,-163"/>
</a>
</g>
</g>
<!-- Node21 -->
<g id="Node000021" class="node">
<title>Node21</title>
<g id="a_Node000021"><a xlink:href="class_j_k_q_t_math_text_phantom_node.html" target="_top" xlink:title="generates whitespace with the size of the contained node">
<polygon fill="white" stroke="#666666" points="900.5,-131 715.5,-131 715.5,-110 900.5,-110 900.5,-131"/>
<text text-anchor="middle" x="808" y="-117.4" font-family="Helvetica,sans-Serif" font-size="12.00">JKQTMathTextPhantomNode</text>
</a>
</g>
</g>
<!-- Node18&#45;&gt;Node21 -->
<g id="edge27_Node000018_Node000021" class="edge">
<title>Node18&#45;&gt;Node21</title>
<g id="a_edge27_Node000018_Node000021"><a xlink:title=" ">
<path fill="none" stroke="#63b8ff" d="M625.83,-154.23C638.57,-152.04 651.68,-149.74 664,-147.5 680.04,-144.58 683.99,-143.55 700,-140.5 716.34,-137.39 734.08,-134.05 750.34,-131.01"/>
<polygon fill="#63b8ff" stroke="#63b8ff" points="624.99,-150.83 615.72,-155.96 626.17,-157.73 624.99,-150.83"/>
</a>
</g>
</g>
<!-- Node26 -->
<g id="Node000026" class="node">
<title>Node26</title>
<g id="a_Node000026"><a xlink:href="class_j_k_q_t_math_text_text_node.html" target="_top" xlink:title="subclass representing one text node in the syntax tree">
<polygon fill="white" stroke="#666666" points="628.5,-60 473.5,-60 473.5,-39 628.5,-39 628.5,-60"/>
<text text-anchor="middle" x="551" y="-46.4" font-family="Helvetica,sans-Serif" font-size="12.00">JKQTMathTextTextNode</text>
</a>
</g>
</g>
<!-- Node25&#45;&gt;Node26 -->
<g id="edge32_Node000025_Node000026" class="edge">
<title>Node25&#45;&gt;Node26</title>
<g id="a_edge32_Node000025_Node000026"><a xlink:title=" ">
<path fill="none" stroke="#63b8ff" d="M366.65,-76.53C402.42,-71.26 444.08,-65.12 478.64,-60.02"/>
<polygon fill="#63b8ff" stroke="#63b8ff" points="366.11,-73.08 356.73,-78 367.13,-80 366.11,-73.08"/>
</a>
</g>
</g>
<!-- Node27 -->
<g id="Node000027" class="node">
<title>Node27</title>
<g id="a_Node000027"><a xlink:href="class_j_k_q_t_math_text_verbatim_node.html" target="_top" xlink:title="subclass representing a verbatim (plain&#45;text) node with support for line&#45;breaks in the syntax tree">
<polygon fill="white" stroke="#666666" points="643.5,-21 458.5,-21 458.5,0 643.5,0 643.5,-21"/>
<text text-anchor="middle" x="551" y="-7.4" font-family="Helvetica,sans-Serif" font-size="12.00">JKQTMathTextVerbatimNode</text>
</a>
</g>
</g>
<!-- Node25&#45;&gt;Node27 -->
<g id="edge33_Node000025_Node000027" class="edge">
<title>Node25&#45;&gt;Node27</title>
<g id="a_edge33_Node000025_Node000027"><a xlink:title=" ">
<path fill="none" stroke="#63b8ff" d="M386.39,-76.49C391.8,-74.49 397.04,-72.17 402,-69.5 422.77,-58.33 417.31,-41.83 438,-30.5 444.93,-26.7 452.43,-23.61 460.15,-21.08"/>
<polygon fill="#63b8ff" stroke="#63b8ff" points="384.9,-73.3 376.52,-79.78 387.11,-79.94 384.9,-73.3"/>
</a>
</g>
</g>
</g>
</svg>
