<?xml version="1.0" encoding="UTF-8" standalone="no"?>
<!DOCTYPE svg PUBLIC "-//W3C//DTD SVG 1.1//EN"
 "http://www.w3.org/Graphics/SVG/1.1/DTD/svg11.dtd">
<!-- Generated by graphviz version 2.43.0 (0)
 -->
<!-- Title: Graphical Class Hierarchy Pages: 1 -->
<svg width="334pt" height="68pt"
 viewBox="0.00 0.00 334.00 68.00" xmlns="http://www.w3.org/2000/svg" xmlns:xlink="http://www.w3.org/1999/xlink">
<g id="graph0" class="graph" transform="scale(1 1) rotate(0) translate(4 64)">
<title>Graphical Class Hierarchy</title>
<!-- Node0 -->
<g id="Node000000" class="node">
<title>Node0</title>
<g id="a_Node000000"><a xlink:title=" ">
<polygon fill="#e0e0e0" stroke="#999999" points="143,-40 0,-40 0,-19 143,-19 143,-40"/>
<text text-anchor="middle" x="71.5" y="-26.4" font-family="Helvetica,sans-Serif" font-size="12.00">QAbstractTableModel</text>
</a>
</g>
</g>
<!-- Node1 -->
<g id="Node000001" class="node">
<title>Node1</title>
<g id="a_Node000001"><a xlink:href="class_j_k_q_t_p_datastore_model.html" target="_top" xlink:title="QAbstractTableModel descendent that allows to view data in a JKQTPDatastore.">
<polygon fill="white" stroke="#666666" points="326,-60 179,-60 179,-39 326,-39 326,-60"/>
<text text-anchor="middle" x="252.5" y="-46.4" font-family="Helvetica,sans-Serif" font-size="12.00">JKQTPDatastoreModel</text>
</a>
</g>
</g>
<!-- Node0&#45;&gt;Node1 -->
<g id="edge246_Node000000_Node000001" class="edge">
<title>Node0&#45;&gt;Node1</title>
<g id="a_edge246_Node000000_Node000001"><a xlink:title=" ">
<path fill="none" stroke="#63b8ff" d="M153.23,-38.52C161.79,-39.48 170.46,-40.45 178.92,-41.39"/>
<polygon fill="#63b8ff" stroke="#63b8ff" points="153.57,-35.04 143.25,-37.4 152.8,-41.99 153.57,-35.04"/>
</a>
</g>
</g>
<!-- Node2 -->
<g id="Node000002" class="node">
<title>Node2</title>
<g id="a_Node000002"><a xlink:href="class_j_k_q_t_p_graphs_model.html" target="_top" xlink:title="data model with all plots ina JKQTBasePlotter (+ allows to switch them visible/invisible)">
<polygon fill="white" stroke="#666666" points="318,-21 187,-21 187,0 318,0 318,-21"/>
<text text-anchor="middle" x="252.5" y="-7.4" font-family="Helvetica,sans-Serif" font-size="12.00">JKQTPGraphsModel</text>
</a>
</g>
</g>
<!-- Node0&#45;&gt;Node2 -->
<g id="edge247_Node000000_Node000002" class="edge">
<title>Node0&#45;&gt;Node2</title>
<g id="a_edge247_Node000000_Node000002"><a xlink:title=" ">
<path fill="none" stroke="#63b8ff" d="M153.44,-20.91C164.61,-19.72 175.97,-18.52 186.79,-17.37"/>
<polygon fill="#63b8ff" stroke="#63b8ff" points="152.82,-17.45 143.25,-21.99 153.56,-24.42 152.82,-17.45"/>
</a>
</g>
</g>
</g>
</svg>
