<?xml version="1.0" encoding="UTF-8" standalone="no"?>
<!DOCTYPE svg PUBLIC "-//W3C//DTD SVG 1.1//EN"
 "http://www.w3.org/Graphics/SVG/1.1/DTD/svg11.dtd">
<!-- Generated by graphviz version 2.43.0 (0)
 -->
<!-- Title: JKQTPPolynomialFunctor Pages: 1 -->
<svg width="170pt" height="257pt"
 viewBox="0.00 0.00 170.00 257.00" xmlns="http://www.w3.org/2000/svg" xmlns:xlink="http://www.w3.org/1999/xlink">
<g id="graph0" class="graph" transform="scale(1 1) rotate(0) translate(4 253)">
<title>JKQTPPolynomialFunctor</title>
<!-- Node1 -->
<g id="Node000001" class="node">
<title>Node1</title>
<g id="a_Node000001"><a xlink:title="a C++&#45;functor, which evaluates a polynomial">
<polygon fill="#999999" stroke="#666666" points="162,-21 0,-21 0,0 162,0 162,-21"/>
<text text-anchor="middle" x="81" y="-7.4" font-family="Helvetica,sans-Serif" font-size="12.00">JKQTPPolynomialFunctor</text>
</a>
</g>
</g>
<!-- Node2 -->
<g id="Node000002" class="node">
<title>Node2</title>
<g id="a_Node000002"><a xlink:title=" ">
<polygon fill="white" stroke="#666666" points="155,-97 7,-97 7,-76 155,-76 155,-97"/>
<text text-anchor="middle" x="81" y="-83.4" font-family="Helvetica,sans-Serif" font-size="12.00">std::vector&lt; double &gt;</text>
</a>
</g>
</g>
<!-- Node2&#45;&gt;Node1 -->
<g id="edge1_Node000001_Node000002" class="edge">
<title>Node2&#45;&gt;Node1</title>
<g id="a_edge1_Node000001_Node000002"><a xlink:title=" ">
<path fill="none" stroke="#9a32cd" stroke-dasharray="5,2" d="M81,-65.53C81,-51.25 81,-32.65 81,-21.41"/>
<polygon fill="#9a32cd" stroke="#9a32cd" points="77.5,-65.83 81,-75.83 84.5,-65.83 77.5,-65.83"/>
</a>
</g>
<text text-anchor="start" x="84" y="-44.9" font-family="Helvetica,sans-Serif" font-size="12.00" fill="grey">P</text>
</g>
<!-- Node3 -->
<g id="Node000003" class="node">
<title>Node3</title>
<g id="a_Node000003"><a xlink:title=" ">
<polygon fill="white" stroke="#666666" points="138.5,-173 23.5,-173 23.5,-152 138.5,-152 138.5,-173"/>
<text text-anchor="middle" x="81" y="-159.4" font-family="Helvetica,sans-Serif" font-size="12.00">std::vector&lt; T &gt;</text>
</a>
</g>
</g>
<!-- Node3&#45;&gt;Node2 -->
<g id="edge2_Node000002_Node000003" class="edge">
<title>Node3&#45;&gt;Node2</title>
<g id="a_edge2_Node000002_Node000003"><a xlink:title=" ">
<path fill="none" stroke="orange" stroke-dasharray="5,2" d="M81,-141.53C81,-127.25 81,-108.65 81,-97.41"/>
<polygon fill="orange" stroke="orange" points="77.5,-141.83 81,-151.83 84.5,-141.83 77.5,-141.83"/>
</a>
</g>
<text text-anchor="start" x="84" y="-120.9" font-family="Helvetica,sans-Serif" font-size="12.00" fill="grey">&lt; double &gt;</text>
</g>
<!-- Node4 -->
<g id="Node000004" class="node">
<title>Node4</title>
<g id="a_Node000004"><a xlink:title=" ">
<polygon fill="white" stroke="#666666" points="95.5,-249 66.5,-249 66.5,-228 95.5,-228 95.5,-249"/>
<text text-anchor="middle" x="81" y="-235.4" font-family="Helvetica,sans-Serif" font-size="12.00">T</text>
</a>
</g>
</g>
<!-- Node4&#45;&gt;Node3 -->
<g id="edge3_Node000003_Node000004" class="edge">
<title>Node4&#45;&gt;Node3</title>
<g id="a_edge3_Node000003_Node000004"><a xlink:title=" ">
<path fill="none" stroke="#9a32cd" stroke-dasharray="5,2" d="M81,-217.53C81,-203.25 81,-184.65 81,-173.41"/>
<polygon fill="#9a32cd" stroke="#9a32cd" points="77.5,-217.83 81,-227.83 84.5,-217.83 77.5,-217.83"/>
</a>
</g>
<text text-anchor="start" x="84" y="-196.9" font-family="Helvetica,sans-Serif" font-size="12.00" fill="grey">elements</text>
</g>
</g>
</svg>
