<?xml version="1.0" encoding="UTF-8" standalone="no"?>
<!DOCTYPE svg PUBLIC "-//W3C//DTD SVG 1.1//EN"
 "http://www.w3.org/Graphics/SVG/1.1/DTD/svg11.dtd">
<!-- Generated by graphviz version 2.43.0 (0)
 -->
<!-- Title: JKQTMathTextNodeSize Pages: 1 -->
<svg width="384pt" height="302pt"
 viewBox="0.00 0.00 384.00 302.00" xmlns="http://www.w3.org/2000/svg" xmlns:xlink="http://www.w3.org/1999/xlink">
<g id="graph0" class="graph" transform="scale(1 1) rotate(0) translate(4 298)">
<title>JKQTMathTextNodeSize</title>
<!-- Node1 -->
<g id="Node000001" class="node">
<title>Node1</title>
<g id="a_Node000001"><a xlink:title="beschreibt die Größe(n) eines Knotens">
<polygon fill="#999999" stroke="#666666" points="155,-157.5 0,-157.5 0,-136.5 155,-136.5 155,-157.5"/>
<text text-anchor="middle" x="77.5" y="-143.9" font-family="Helvetica,sans-Serif" font-size="12.00">JKQTMathTextNodeSize</text>
</a>
</g>
</g>
<!-- Node2 -->
<g id="Node000002" class="node">
<title>Node2</title>
<g id="a_Node000002"><a xlink:href="struct_j_k_q_t_math_text_brace_node_1_1_node_size.html" target="_top" xlink:title="defines the size of the node (JKQTMathTextNodeSize) and additional information">
<polygon fill="white" stroke="#666666" points="366.5,-294 200.5,-294 200.5,-260 366.5,-260 366.5,-294"/>
<text text-anchor="start" x="208.5" y="-280.4" font-family="Helvetica,sans-Serif" font-size="12.00">JKQTMathTextBraceNode</text>
<text text-anchor="middle" x="283.5" y="-267.4" font-family="Helvetica,sans-Serif" font-size="12.00">::NodeSize</text>
</a>
</g>
</g>
<!-- Node1&#45;&gt;Node2 -->
<g id="edge1_Node000001_Node000002" class="edge">
<title>Node1&#45;&gt;Node2</title>
<g id="a_edge1_Node000001_Node000002"><a xlink:title=" ">
<path fill="none" stroke="#63b8ff" d="M93.42,-165.33C113.32,-188.59 150.72,-228.39 191,-251 197.05,-254.4 203.57,-257.38 210.26,-259.99"/>
<polygon fill="#63b8ff" stroke="#63b8ff" points="96.02,-162.99 86.91,-157.58 90.66,-167.49 96.02,-162.99"/>
</a>
</g>
</g>
<!-- Node3 -->
<g id="Node000003" class="node">
<title>Node3</title>
<g id="a_Node000003"><a xlink:href="struct_j_k_q_t_math_text_matrix_node_1_1_layout_info.html" target="_top" xlink:title="describes the layout of the whole node">
<polygon fill="white" stroke="#666666" points="367.5,-242 199.5,-242 199.5,-208 367.5,-208 367.5,-242"/>
<text text-anchor="start" x="207.5" y="-228.4" font-family="Helvetica,sans-Serif" font-size="12.00">JKQTMathTextMatrixNode</text>
<text text-anchor="middle" x="283.5" y="-215.4" font-family="Helvetica,sans-Serif" font-size="12.00">::LayoutInfo</text>
</a>
</g>
</g>
<!-- Node1&#45;&gt;Node3 -->
<g id="edge2_Node000001_Node000003" class="edge">
<title>Node1&#45;&gt;Node3</title>
<g id="a_edge2_Node000001_Node000003"><a xlink:title=" ">
<path fill="none" stroke="#63b8ff" d="M107.81,-162.08C130.2,-173.23 162.05,-188.27 191,-199 199.52,-202.16 208.6,-205.16 217.61,-207.92"/>
<polygon fill="#63b8ff" stroke="#63b8ff" points="109.33,-158.93 98.83,-157.57 106.19,-165.19 109.33,-158.93"/>
</a>
</g>
</g>
<!-- Node4 -->
<g id="Node000004" class="node">
<title>Node4</title>
<g id="a_Node000004"><a xlink:href="struct_j_k_q_t_math_text_symbol_node_1_1_node_size.html" target="_top" xlink:title="return type for getSymbolSize(), extends JKQTMathTextNodeSize with information about x&#45;correction for...">
<polygon fill="white" stroke="#666666" points="371,-190 196,-190 196,-156 371,-156 371,-190"/>
<text text-anchor="start" x="204" y="-176.4" font-family="Helvetica,sans-Serif" font-size="12.00">JKQTMathTextSymbolNode</text>
<text text-anchor="middle" x="283.5" y="-163.4" font-family="Helvetica,sans-Serif" font-size="12.00">::NodeSize</text>
</a>
</g>
</g>
<!-- Node1&#45;&gt;Node4 -->
<g id="edge3_Node000001_Node000004" class="edge">
<title>Node1&#45;&gt;Node4</title>
<g id="a_edge3_Node000001_Node000004"><a xlink:title=" ">
<path fill="none" stroke="#63b8ff" d="M165.15,-158.04C175.34,-159.34 185.74,-160.67 195.93,-161.97"/>
<polygon fill="#63b8ff" stroke="#63b8ff" points="165.4,-154.55 155.04,-156.76 164.52,-161.49 165.4,-154.55"/>
</a>
</g>
</g>
<!-- Node5 -->
<g id="Node000005" class="node">
<title>Node5</title>
<g id="a_Node000005"><a xlink:href="struct_j_k_q_t_math_text_text_node_1_1_layout_info.html" target="_top" xlink:title="describes the layout of the whole node">
<polygon fill="white" stroke="#666666" points="361,-138 206,-138 206,-104 361,-104 361,-138"/>
<text text-anchor="start" x="214" y="-124.4" font-family="Helvetica,sans-Serif" font-size="12.00">JKQTMathTextTextNode</text>
<text text-anchor="middle" x="283.5" y="-111.4" font-family="Helvetica,sans-Serif" font-size="12.00">::LayoutInfo</text>
</a>
</g>
</g>
<!-- Node1&#45;&gt;Node5 -->
<g id="edge4_Node000001_Node000005" class="edge">
<title>Node1&#45;&gt;Node5</title>
<g id="a_edge4_Node000001_Node000005"><a xlink:title=" ">
<path fill="none" stroke="#63b8ff" d="M165.27,-135.94C178.77,-134.22 192.62,-132.46 205.87,-130.77"/>
<polygon fill="#63b8ff" stroke="#63b8ff" points="164.52,-132.51 155.04,-137.24 165.4,-139.45 164.52,-132.51"/>
</a>
</g>
</g>
<!-- Node6 -->
<g id="Node000006" class="node">
<title>Node6</title>
<g id="a_Node000006"><a xlink:href="struct_j_k_q_t_math_text_verbatim_node_1_1_layout_info.html" target="_top" xlink:title="describes the layout of the whole node">
<polygon fill="white" stroke="#666666" points="376,-86 191,-86 191,-52 376,-52 376,-86"/>
<text text-anchor="start" x="199" y="-72.4" font-family="Helvetica,sans-Serif" font-size="12.00">JKQTMathTextVerbatimNode</text>
<text text-anchor="middle" x="283.5" y="-59.4" font-family="Helvetica,sans-Serif" font-size="12.00">::LayoutInfo</text>
</a>
</g>
</g>
<!-- Node1&#45;&gt;Node6 -->
<g id="edge5_Node000001_Node000006" class="edge">
<title>Node1&#45;&gt;Node6</title>
<g id="a_edge5_Node000001_Node000006"><a xlink:title=" ">
<path fill="none" stroke="#63b8ff" d="M107.81,-131.92C130.2,-120.77 162.05,-105.73 191,-95 199.52,-91.84 208.6,-88.84 217.61,-86.08"/>
<polygon fill="#63b8ff" stroke="#63b8ff" points="106.19,-128.81 98.83,-136.43 109.33,-135.07 106.19,-128.81"/>
</a>
</g>
</g>
<!-- Node7 -->
<g id="Node000007" class="node">
<title>Node7</title>
<g id="a_Node000007"><a xlink:href="struct_j_k_q_t_math_text_vertical_list_node_1_1_layout_info.html" target="_top" xlink:title="describes the layout of the whole node">
<polygon fill="white" stroke="#666666" points="365.5,-34 201.5,-34 201.5,0 365.5,0 365.5,-34"/>
<text text-anchor="start" x="209.5" y="-20.4" font-family="Helvetica,sans-Serif" font-size="12.00">JKQTMathTextVerticalList</text>
<text text-anchor="middle" x="283.5" y="-7.4" font-family="Helvetica,sans-Serif" font-size="12.00">Node::LayoutInfo</text>
</a>
</g>
</g>
<!-- Node1&#45;&gt;Node7 -->
<g id="edge6_Node000001_Node000007" class="edge">
<title>Node1&#45;&gt;Node7</title>
<g id="a_edge6_Node000001_Node000007"><a xlink:title=" ">
<path fill="none" stroke="#63b8ff" d="M93.42,-128.67C113.32,-105.41 150.72,-65.61 191,-43 197.05,-39.6 203.57,-36.62 210.26,-34.01"/>
<polygon fill="#63b8ff" stroke="#63b8ff" points="90.66,-126.51 86.91,-136.42 96.02,-131.01 90.66,-126.51"/>
</a>
</g>
</g>
</g>
</svg>
