<?xml version="1.0" encoding="UTF-8" standalone="no"?>
<!DOCTYPE svg PUBLIC "-//W3C//DTD SVG 1.1//EN"
 "http://www.w3.org/Graphics/SVG/1.1/DTD/svg11.dtd">
<!-- Generated by graphviz version 2.43.0 (0)
 -->
<!-- Title: JKQTPCSSParser::GeneralError Pages: 1 -->
<svg width="450pt" height="198pt"
 viewBox="0.00 0.00 450.00 198.00" xmlns="http://www.w3.org/2000/svg" xmlns:xlink="http://www.w3.org/1999/xlink">

<svg id="main" version="1.1" xmlns="http://www.w3.org/2000/svg" xmlns:xlink="http://www.w3.org/1999/xlink" xml:space="preserve">

<style type="text/css"><![CDATA[
.node, .edge {opacity: 0.7;}
.node.selected, .edge.selected {opacity: 1;}
.edge:hover path { stroke: red; }
.edge:hover polygon { stroke: red; fill: red; }
]]></style>
<script type="application/ecmascript" xlink:href="svg.min.js"/>
<svg id="graph" class="graph">
<g id="graph0" class="graph" transform="scale(1 1) rotate(0) translate(4 194)">
<title>JKQTPCSSParser::GeneralError</title>
<!-- Node1 -->
<g id="Node000001" class="node">
<title>Node1</title>
<g id="a_Node000001"><a xlink:title=" ">
<polygon fill="#999999" stroke="#666666" points="197,-105.5 0,-105.5 0,-84.5 197,-84.5 197,-105.5"/>
<text text-anchor="middle" x="98.5" y="-91.9" font-family="Helvetica,sans-Serif" font-size="12.00">JKQTPCSSParser::GeneralError</text>
</a>
</g>
</g>
<!-- Node2 -->
<g id="Node000002" class="node">
<title>Node2</title>
<g id="a_Node000002"><a xlink:href="struct_j_k_q_t_p_c_s_s_parser_1_1_unconvertoble_error.html" target="_top" xlink:title="Exception when a string cannot be converted properly.">
<polygon fill="white" stroke="#666666" points="442,-190 233,-190 233,-156 442,-156 442,-190"/>
<text text-anchor="start" x="241" y="-176.4" font-family="Helvetica,sans-Serif" font-size="12.00">JKQTPCSSParser::Unconvertoble</text>
<text text-anchor="middle" x="337.5" y="-163.4" font-family="Helvetica,sans-Serif" font-size="12.00">Error</text>
</a>
</g>
</g>
<!-- Node1&#45;&gt;Node2 -->
<g id="edge1_Node000001_Node000002" class="edge">
<title>Node1&#45;&gt;Node2</title>
<g id="a_edge1_Node000001_Node000002"><a xlink:title=" ">
<path fill="none" stroke="#63b8ff" d="M133.07,-109.42C159.81,-120.59 198.39,-135.96 233,-147 242.88,-150.15 253.4,-153.17 263.79,-155.96"/>
<polygon fill="#63b8ff" stroke="#63b8ff" points="134.35,-106.17 123.77,-105.52 131.64,-112.62 134.35,-106.17"/>
</a>
</g>
</g>
<!-- Node3 -->
<g id="Node000003" class="node">
<title>Node3</title>
<g id="a_Node000003"><a xlink:href="struct_j_k_q_t_p_c_s_s_parser_1_1_unexpected_term_error.html" target="_top" xlink:title="Exception for unexpected Term.">
<polygon fill="white" stroke="#666666" points="434,-138 241,-138 241,-104 434,-104 434,-138"/>
<text text-anchor="start" x="249" y="-124.4" font-family="Helvetica,sans-Serif" font-size="12.00">JKQTPCSSParser::Unexpected</text>
<text text-anchor="middle" x="337.5" y="-111.4" font-family="Helvetica,sans-Serif" font-size="12.00">TermError</text>
</a>
</g>
</g>
<!-- Node1&#45;&gt;Node3 -->
<g id="edge2_Node000001_Node000003" class="edge">
<title>Node1&#45;&gt;Node3</title>
<g id="a_edge2_Node000001_Node000003"><a xlink:title=" ">
<path fill="none" stroke="#63b8ff" d="M205.5,-106.63C217.26,-107.92 229.19,-109.23 240.81,-110.5"/>
<polygon fill="#63b8ff" stroke="#63b8ff" points="205.54,-103.11 195.21,-105.5 204.77,-110.07 205.54,-103.11"/>
</a>
</g>
</g>
<!-- Node4 -->
<g id="Node000004" class="node">
<title>Node4</title>
<g id="a_Node000004"><a xlink:href="struct_j_k_q_t_p_c_s_s_parser_1_1_unexpected_token_error.html" target="_top" xlink:title="Exception for unexpected Token.">
<polygon fill="white" stroke="#666666" points="434,-86 241,-86 241,-52 434,-52 434,-86"/>
<text text-anchor="start" x="249" y="-72.4" font-family="Helvetica,sans-Serif" font-size="12.00">JKQTPCSSParser::Unexpected</text>
<text text-anchor="middle" x="337.5" y="-59.4" font-family="Helvetica,sans-Serif" font-size="12.00">TokenError</text>
</a>
</g>
</g>
<!-- Node1&#45;&gt;Node4 -->
<g id="edge3_Node000001_Node000004" class="edge">
<title>Node1&#45;&gt;Node4</title>
<g id="a_edge3_Node000001_Node000004"><a xlink:title=" ">
<path fill="none" stroke="#63b8ff" d="M205.5,-83.37C217.26,-82.08 229.19,-80.77 240.81,-79.5"/>
<polygon fill="#63b8ff" stroke="#63b8ff" points="204.77,-79.93 195.21,-84.5 205.54,-86.89 204.77,-79.93"/>
</a>
</g>
</g>
<!-- Node5 -->
<g id="Node000005" class="node">
<title>Node5</title>
<g id="a_Node000005"><a xlink:href="struct_j_k_q_t_p_c_s_s_parser_1_1_wrong_number_of_argument_error.html" target="_top" xlink:title="Exception for wrong number of function arguments.">
<polygon fill="white" stroke="#666666" points="441.5,-34 233.5,-34 233.5,0 441.5,0 441.5,-34"/>
<text text-anchor="start" x="241.5" y="-20.4" font-family="Helvetica,sans-Serif" font-size="12.00">JKQTPCSSParser::WrongNumber</text>
<text text-anchor="middle" x="337.5" y="-7.4" font-family="Helvetica,sans-Serif" font-size="12.00">OfArgumentError</text>
</a>
</g>
</g>
<!-- Node1&#45;&gt;Node5 -->
<g id="edge4_Node000001_Node000005" class="edge">
<title>Node1&#45;&gt;Node5</title>
<g id="a_edge4_Node000001_Node000005"><a xlink:title=" ">
<path fill="none" stroke="#63b8ff" d="M133.07,-80.58C159.81,-69.41 198.39,-54.04 233,-43 242.88,-39.85 253.4,-36.83 263.79,-34.04"/>
<polygon fill="#63b8ff" stroke="#63b8ff" points="131.64,-77.38 123.77,-84.48 134.35,-83.83 131.64,-77.38"/>
</a>
</g>
</g>
</g>
</svg>
</svg>

<style type='text/css'>
<![CDATA[
[data-mouse-over-selected='false'] { opacity: 0.7; }
[data-mouse-over-selected='true']  { opacity: 1.0; }
]]>
</style>
<script type="application/ecmascript"><![CDATA[
document.addEventListener('DOMContentLoaded', (event) => {
  highlightEdges();
  highlightAdjacentNodes();
});
]]></script>
</svg>
