<?xml version="1.0" encoding="UTF-8" standalone="no"?>
<!DOCTYPE svg PUBLIC "-//W3C//DTD SVG 1.1//EN"
 "http://www.w3.org/Graphics/SVG/1.1/DTD/svg11.dtd">
<!-- Generated by graphviz version 2.43.0 (0)
 -->
<!-- Title: JKQTPParsedFunctionLineGraphBase::ParsedFunctionLineGraphFunctionData Pages: 1 -->
<svg width="2742pt" height="528pt"
 viewBox="0.00 0.00 2742.00 528.41" xmlns="http://www.w3.org/2000/svg" xmlns:xlink="http://www.w3.org/1999/xlink">
<g id="graph0" class="graph" transform="scale(1 1) rotate(0) translate(4 524.41)">
<title>JKQTPParsedFunctionLineGraphBase::ParsedFunctionLineGraphFunctionData</title>
<!-- Node1 -->
<g id="Node000001" class="node">
<title>Node1</title>
<g id="a_Node000001"><a xlink:title="INTERNAL data structure combining a JKQTPMathParser and a JKQTPMathParser::jkmpNode.">
<polygon fill="#999999" stroke="#666666" points="2734,-277.41 2450,-277.41 2450,-243.41 2734,-243.41 2734,-277.41"/>
<text text-anchor="start" x="2458" y="-263.81" font-family="Helvetica,sans-Serif" font-size="12.00">JKQTPParsedFunctionLineGraph</text>
<text text-anchor="middle" x="2592" y="-250.81" font-family="Helvetica,sans-Serif" font-size="12.00">Base::ParsedFunctionLineGraphFunctionData</text>
</a>
</g>
</g>
<!-- Node2 -->
<g id="Node000002" class="node">
<title>Node2</title>
<g id="a_Node000002"><a xlink:title=" ">
<polygon fill="white" stroke="#666666" points="2130.5,-318.41 1945.5,-318.41 1945.5,-284.41 2130.5,-284.41 2130.5,-318.41"/>
<text text-anchor="start" x="1953.5" y="-304.81" font-family="Helvetica,sans-Serif" font-size="12.00">std::shared_ptr&lt; JKQTPMath</text>
<text text-anchor="middle" x="2038" y="-291.81" font-family="Helvetica,sans-Serif" font-size="12.00">Parser &gt;</text>
</a>
</g>
</g>
<!-- Node2&#45;&gt;Node1 -->
<g id="edge1_Node000001_Node000002" class="edge">
<title>Node2&#45;&gt;Node1</title>
<g id="a_edge1_Node000001_Node000002"><a xlink:title=" ">
<path fill="none" stroke="#9a32cd" stroke-dasharray="5,2" d="M2140.89,-293.85C2227.67,-287.4 2353.27,-278.07 2449.75,-270.9"/>
<polygon fill="#9a32cd" stroke="#9a32cd" points="2140.48,-290.37 2130.77,-294.6 2141,-297.35 2140.48,-290.37"/>
</a>
</g>
<text text-anchor="start" x="2264.5" y="-296.31" font-family="Helvetica,sans-Serif" font-size="12.00" fill="grey">parser</text>
</g>
<!-- Node3 -->
<g id="Node000003" class="node">
<title>Node3</title>
<g id="a_Node000003"><a xlink:href="class_j_k_q_t_p_math_parser.html" target="_top" xlink:title="A simple function parser to parse (build memory tree representation) and evaluate simple mathematical...">
<polygon fill="white" stroke="#666666" points="1760.5,-312.91 1639.5,-312.91 1639.5,-291.91 1760.5,-291.91 1760.5,-312.91"/>
<text text-anchor="middle" x="1700" y="-299.31" font-family="Helvetica,sans-Serif" font-size="12.00">JKQTPMathParser</text>
</a>
</g>
</g>
<!-- Node3&#45;&gt;Node2 -->
<g id="edge2_Node000002_Node000003" class="edge">
<title>Node3&#45;&gt;Node2</title>
<g id="a_edge2_Node000002_Node000003"><a xlink:title=" ">
<path fill="none" stroke="#9a32cd" stroke-dasharray="5,2" d="M1770.86,-302.21C1821.43,-302.06 1890.27,-301.85 1945.26,-301.69"/>
<polygon fill="#9a32cd" stroke="#9a32cd" points="1770.67,-298.71 1760.68,-302.24 1770.69,-305.71 1770.67,-298.71"/>
</a>
</g>
<text text-anchor="start" x="1848" y="-308.31" font-family="Helvetica,sans-Serif" font-size="12.00" fill="grey">ptr</text>
</g>
<!-- Node24 -->
<g id="Node000024" class="node">
<title>Node24</title>
<g id="a_Node000024"><a xlink:href="class_j_k_q_t_p_math_parser_1_1jkmp_node.html" target="_top" xlink:title="This class is the abstract base class for nodes. All allowed node types must inherit from jkmpNode.">
<polygon fill="white" stroke="#666666" points="2132,-228.91 1944,-228.91 1944,-207.91 2132,-207.91 2132,-228.91"/>
<text text-anchor="middle" x="2038" y="-215.31" font-family="Helvetica,sans-Serif" font-size="12.00">JKQTPMathParser::jkmpNode</text>
</a>
</g>
</g>
<!-- Node3&#45;&gt;Node24 -->
<g id="edge33_Node000024_Node000003" class="edge">
<title>Node3&#45;&gt;Node24</title>
<g id="a_edge33_Node000024_Node000003"><a xlink:title=" ">
<path fill="none" stroke="#9a32cd" stroke-dasharray="5,2" d="M1713.91,-283.47C1728.98,-263.23 1755.95,-232.32 1788,-219.41 1852.36,-193.49 1933.89,-199.68 1985.77,-207.9"/>
<polygon fill="#9a32cd" stroke="#9a32cd" points="1711.02,-281.5 1708.03,-291.66 1716.71,-285.58 1711.02,-281.5"/>
</a>
</g>
<text text-anchor="start" x="1837" y="-225.31" font-family="Helvetica,sans-Serif" font-size="12.00" fill="grey">parser</text>
</g>
<!-- Node4 -->
<g id="Node000004" class="node">
<title>Node4</title>
<g id="a_Node000004"><a xlink:title=" ">
<polygon fill="white" stroke="#666666" points="272.5,-277.91 196.5,-277.91 196.5,-256.91 272.5,-256.91 272.5,-277.91"/>
<text text-anchor="middle" x="234.5" y="-264.31" font-family="Helvetica,sans-Serif" font-size="12.00">std::string</text>
</a>
</g>
</g>
<!-- Node4&#45;&gt;Node3 -->
<g id="edge3_Node000003_Node000004" class="edge">
<title>Node4&#45;&gt;Node3</title>
<g id="a_edge3_Node000003_Node000004"><a xlink:title=" ">
<path fill="none" stroke="#9a32cd" stroke-dasharray="5,2" d="M264.34,-282.66C282.18,-291.38 305.84,-301.7 328,-307.41 394.8,-324.65 413.51,-322.41 482.5,-322.41 482.5,-322.41 482.5,-322.41 1391.5,-322.41 1477.77,-322.41 1577.36,-314.48 1639.26,-308.6"/>
<polygon fill="#9a32cd" stroke="#9a32cd" points="265.58,-279.37 255.07,-278.02 262.44,-285.62 265.58,-279.37"/>
</a>
</g>
<text text-anchor="start" x="853.5" y="-362.31" font-family="Helvetica,sans-Serif" font-size="12.00" fill="grey">StringValue</text>
<text text-anchor="start" x="853.5" y="-345.31" font-family="Helvetica,sans-Serif" font-size="12.00" fill="grey">jkmathparser_exception</text>
<text text-anchor="start" x="853.5" y="-328.31" font-family="Helvetica,sans-Serif" font-size="12.00" fill="grey">  _function</text>
</g>
<!-- Node12 -->
<g id="Node000012" class="node">
<title>Node12</title>
<g id="a_Node000012"><a xlink:href="struct_j_k_q_t_p_math_parser_1_1jkmp_temp_variable.html" target="_top" xlink:title="This struct is for managing temporary variables. It is generally like jkmpVariable.">
<polygon fill="white" stroke="#666666" points="795.5,-284.41 606.5,-284.41 606.5,-250.41 795.5,-250.41 795.5,-284.41"/>
<text text-anchor="start" x="614.5" y="-270.81" font-family="Helvetica,sans-Serif" font-size="12.00">JKQTPMathParser::jkmpTemp</text>
<text text-anchor="middle" x="701" y="-257.81" font-family="Helvetica,sans-Serif" font-size="12.00">Variable</text>
</a>
</g>
</g>
<!-- Node4&#45;&gt;Node12 -->
<g id="edge12_Node000012_Node000004" class="edge">
<title>Node4&#45;&gt;Node12</title>
<g id="a_edge12_Node000012_Node000004"><a xlink:title=" ">
<path fill="none" stroke="#9a32cd" stroke-dasharray="5,2" d="M282.9,-267.41C358.6,-267.41 508.2,-267.41 606.13,-267.41"/>
<polygon fill="#9a32cd" stroke="#9a32cd" points="282.73,-263.91 272.73,-267.41 282.73,-270.91 282.73,-263.91"/>
</a>
</g>
<text text-anchor="start" x="331.5" y="-290.81" font-family="Helvetica,sans-Serif" font-size="12.00" fill="grey">name</text>
<text text-anchor="start" x="331.5" y="-273.81" font-family="Helvetica,sans-Serif" font-size="12.00" fill="grey">str</text>
</g>
<!-- Node15 -->
<g id="Node000015" class="node">
<title>Node15</title>
<g id="a_Node000015"><a xlink:title=" ">
<polygon fill="white" stroke="#666666" points="1502,-406.41 1279,-406.41 1279,-372.41 1502,-372.41 1502,-406.41"/>
<text text-anchor="start" x="1287" y="-392.81" font-family="Helvetica,sans-Serif" font-size="12.00">std::map&lt; std::string,</text>
<text text-anchor="middle" x="1390.5" y="-379.81" font-family="Helvetica,sans-Serif" font-size="12.00"> JKQTPMathParser::jkmpVariable &gt;</text>
</a>
</g>
</g>
<!-- Node4&#45;&gt;Node15 -->
<g id="edge16_Node000015_Node000004" class="edge">
<title>Node4&#45;&gt;Node15</title>
<g id="a_edge16_Node000015_Node000004"><a xlink:title=" ">
<path fill="none" stroke="#9a32cd" stroke-dasharray="5,2" d="M246.92,-286.99C262.22,-311.47 291.71,-352.88 328,-375.41 350.98,-389.69 360.42,-385.35 387,-390.41 667.61,-443.83 743.47,-428.41 1029,-420.41 1132.23,-417.52 1158.22,-417.47 1261,-407.41 1266.83,-406.84 1272.8,-406.2 1278.82,-405.51"/>
<polygon fill="#9a32cd" stroke="#9a32cd" points="249.77,-284.95 241.59,-278.22 243.79,-288.59 249.77,-284.95"/>
</a>
</g>
<text text-anchor="start" x="687" y="-435.31" font-family="Helvetica,sans-Serif" font-size="12.00" fill="grey">keys</text>
</g>
<!-- Node16 -->
<g id="Node000016" class="node">
<title>Node16</title>
<g id="a_Node000016"><a xlink:href="struct_j_k_q_t_p_math_parser_1_1jkmp_variable.html" target="_top" xlink:title="This struct is for managing variables. Unlike jkmpResult this struct only contains pointers to the da...">
<polygon fill="white" stroke="#666666" points="804,-408.91 598,-408.91 598,-387.91 804,-387.91 804,-408.91"/>
<text text-anchor="middle" x="701" y="-395.31" font-family="Helvetica,sans-Serif" font-size="12.00">JKQTPMathParser::jkmpVariable</text>
</a>
</g>
</g>
<!-- Node4&#45;&gt;Node16 -->
<g id="edge18_Node000016_Node000004" class="edge">
<title>Node4&#45;&gt;Node16</title>
<g id="a_edge18_Node000016_Node000004"><a xlink:title=" ">
<path fill="none" stroke="#9a32cd" stroke-dasharray="5,2" d="M253.81,-285.3C271.35,-301.35 299.33,-324.19 328,-336.41 414.43,-373.26 520.85,-388.28 597.69,-394.37"/>
<polygon fill="#9a32cd" stroke="#9a32cd" points="255.76,-282.34 246.08,-278.05 250.97,-287.44 255.76,-282.34"/>
</a>
</g>
<text text-anchor="start" x="340.5" y="-358.31" font-family="Helvetica,sans-Serif" font-size="12.00" fill="grey">str</text>
</g>
<!-- Node19 -->
<g id="Node000019" class="node">
<title>Node19</title>
<g id="a_Node000019"><a xlink:title=" ">
<polygon fill="white" stroke="#666666" points="1496,-57.91 1285,-57.91 1285,-10.91 1496,-10.91 1496,-57.91"/>
<text text-anchor="start" x="1293" y="-44.31" font-family="Helvetica,sans-Serif" font-size="12.00">std::map&lt; std::string,</text>
<text text-anchor="start" x="1293" y="-31.31" font-family="Helvetica,sans-Serif" font-size="12.00"> JKQTPMathParser::jkmpFunction</text>
<text text-anchor="middle" x="1390.5" y="-18.31" font-family="Helvetica,sans-Serif" font-size="12.00">Descriptor &gt;</text>
</a>
</g>
</g>
<!-- Node4&#45;&gt;Node19 -->
<g id="edge23_Node000019_Node000004" class="edge">
<title>Node4&#45;&gt;Node19</title>
<g id="a_edge23_Node000019_Node000004"><a xlink:title=" ">
<path fill="none" stroke="#9a32cd" stroke-dasharray="5,2" d="M237.46,-246.42C242.91,-200.57 262.44,-91.1 328,-34.41 348.39,-16.79 360.24,-23.61 387,-20.41 712.58,18.47 1101.82,-7.45 1284.75,-23.86"/>
<polygon fill="#9a32cd" stroke="#9a32cd" points="233.95,-246.31 236.36,-256.63 240.91,-247.06 233.95,-246.31"/>
</a>
</g>
<text text-anchor="start" x="687" y="-9.31" font-family="Helvetica,sans-Serif" font-size="12.00" fill="grey">keys</text>
</g>
<!-- Node20 -->
<g id="Node000020" class="node">
<title>Node20</title>
<g id="a_Node000020"><a xlink:href="struct_j_k_q_t_p_math_parser_1_1jkmp_function_descriptor.html" target="_top" xlink:title="description of a user registered function">
<polygon fill="white" stroke="#666666" points="1029,-63.41 822,-63.41 822,-29.41 1029,-29.41 1029,-63.41"/>
<text text-anchor="start" x="830" y="-49.81" font-family="Helvetica,sans-Serif" font-size="12.00">JKQTPMathParser::jkmpFunction</text>
<text text-anchor="middle" x="925.5" y="-36.81" font-family="Helvetica,sans-Serif" font-size="12.00">Descriptor</text>
</a>
</g>
</g>
<!-- Node4&#45;&gt;Node20 -->
<g id="edge27_Node000020_Node000004" class="edge">
<title>Node4&#45;&gt;Node20</title>
<g id="a_edge27_Node000020_Node000004"><a xlink:title=" ">
<path fill="none" stroke="#9a32cd" stroke-dasharray="5,2" d="M246.62,-247.78C268.31,-211.66 320.01,-135.36 387,-102.41 470.46,-61.37 711.72,-78.04 804,-66.41 811.15,-65.51 818.53,-64.5 825.95,-63.42"/>
<polygon fill="#9a32cd" stroke="#9a32cd" points="243.36,-246.44 241.32,-256.84 249.39,-249.98 243.36,-246.44"/>
</a>
</g>
<text text-anchor="start" x="466.5" y="-108.31" font-family="Helvetica,sans-Serif" font-size="12.00" fill="grey">name</text>
</g>
<!-- Node21 -->
<g id="Node000021" class="node">
<title>Node21</title>
<g id="a_Node000021"><a xlink:href="struct_j_k_q_t_p_math_parser_1_1jkmp_result.html" target="_top" xlink:title="result of any expression">
<polygon fill="white" stroke="#666666" points="580,-50.91 387,-50.91 387,-29.91 580,-29.91 580,-50.91"/>
<text text-anchor="middle" x="483.5" y="-37.31" font-family="Helvetica,sans-Serif" font-size="12.00">JKQTPMathParser::jkmpResult</text>
</a>
</g>
</g>
<!-- Node4&#45;&gt;Node21 -->
<g id="edge26_Node000021_Node000004" class="edge">
<title>Node4&#45;&gt;Node21</title>
<g id="a_edge26_Node000021_Node000004"><a xlink:title=" ">
<path fill="none" stroke="#9a32cd" stroke-dasharray="5,2" d="M237.65,-246.62C243.39,-202.79 263.37,-101.12 328,-54.41 345.03,-42.11 366.02,-36 386.98,-33.46"/>
<polygon fill="#9a32cd" stroke="#9a32cd" points="234.16,-246.34 236.45,-256.68 241.11,-247.16 234.16,-246.34"/>
</a>
</g>
<text text-anchor="start" x="340.5" y="-60.31" font-family="Helvetica,sans-Serif" font-size="12.00" fill="grey">str</text>
</g>
<!-- Node5 -->
<g id="Node000005" class="node">
<title>Node5</title>
<g id="a_Node000005"><a xlink:title=" ">
<polygon fill="white" stroke="#666666" points="122,-284.41 0,-284.41 0,-250.41 122,-250.41 122,-284.41"/>
<text text-anchor="start" x="8" y="-270.81" font-family="Helvetica,sans-Serif" font-size="12.00">std::basic_string&lt;</text>
<text text-anchor="middle" x="61" y="-257.81" font-family="Helvetica,sans-Serif" font-size="12.00"> Char &gt;</text>
</a>
</g>
</g>
<!-- Node5&#45;&gt;Node4 -->
<g id="edge4_Node000004_Node000005" class="edge">
<title>Node5&#45;&gt;Node4</title>
<g id="a_edge4_Node000004_Node000005"><a xlink:title=" ">
<path fill="none" stroke="#63b8ff" d="M132.74,-267.41C154.63,-267.41 177.86,-267.41 196.5,-267.41"/>
<polygon fill="#63b8ff" stroke="#63b8ff" points="132.46,-263.91 122.46,-267.41 132.46,-270.91 132.46,-263.91"/>
</a>
</g>
</g>
<!-- Node6 -->
<g id="Node000006" class="node">
<title>Node6</title>
<g id="a_Node000006"><a xlink:title=" ">
<polygon fill="white" stroke="#666666" points="1451,-469.91 1330,-469.91 1330,-448.91 1451,-448.91 1451,-469.91"/>
<text text-anchor="middle" x="1390.5" y="-456.31" font-family="Helvetica,sans-Serif" font-size="12.00">std::istringstream</text>
</a>
</g>
</g>
<!-- Node6&#45;&gt;Node3 -->
<g id="edge5_Node000003_Node000006" class="edge">
<title>Node6&#45;&gt;Node3</title>
<g id="a_edge5_Node000003_Node000006"><a xlink:title=" ">
<path fill="none" stroke="#9a32cd" stroke-dasharray="5,2" d="M1451.26,-446.48C1497.4,-434.79 1561.65,-414.72 1612,-384.41 1645.08,-364.5 1676.02,-330.24 1690.46,-312.99"/>
<polygon fill="#9a32cd" stroke="#9a32cd" points="1450.28,-443.11 1441.41,-448.91 1451.96,-449.91 1450.28,-443.11"/>
</a>
</g>
<text text-anchor="start" x="1540" y="-430.31" font-family="Helvetica,sans-Serif" font-size="12.00" fill="grey">program</text>
</g>
<!-- Node7 -->
<g id="Node000007" class="node">
<title>Node7</title>
<g id="a_Node000007"><a xlink:title=" ">
<polygon fill="white" stroke="#666666" points="1004.5,-520.41 846.5,-520.41 846.5,-486.41 1004.5,-486.41 1004.5,-520.41"/>
<text text-anchor="start" x="854.5" y="-506.81" font-family="Helvetica,sans-Serif" font-size="12.00">std::basic_istringstream</text>
<text text-anchor="middle" x="925.5" y="-493.81" font-family="Helvetica,sans-Serif" font-size="12.00">&lt; Char &gt;</text>
</a>
</g>
</g>
<!-- Node7&#45;&gt;Node6 -->
<g id="edge6_Node000006_Node000007" class="edge">
<title>Node7&#45;&gt;Node6</title>
<g id="a_edge6_Node000006_Node000007"><a xlink:title=" ">
<path fill="none" stroke="#63b8ff" d="M1014.74,-495.44C1082.2,-489.29 1177.49,-480.51 1261,-472.41 1283.43,-470.24 1308.05,-467.77 1329.69,-465.57"/>
<polygon fill="#63b8ff" stroke="#63b8ff" points="1014.22,-491.97 1004.58,-496.36 1014.86,-498.94 1014.22,-491.97"/>
</a>
</g>
</g>
<!-- Node8 -->
<g id="Node000008" class="node">
<title>Node8</title>
<g id="a_Node000008"><a xlink:title=" ">
<polygon fill="white" stroke="#666666" points="545.5,-520.41 421.5,-520.41 421.5,-486.41 545.5,-486.41 545.5,-520.41"/>
<text text-anchor="start" x="429.5" y="-506.81" font-family="Helvetica,sans-Serif" font-size="12.00">std::basic_istream</text>
<text text-anchor="middle" x="483.5" y="-493.81" font-family="Helvetica,sans-Serif" font-size="12.00">&lt; Char &gt;</text>
</a>
</g>
</g>
<!-- Node8&#45;&gt;Node7 -->
<g id="edge7_Node000007_Node000008" class="edge">
<title>Node8&#45;&gt;Node7</title>
<g id="a_edge7_Node000007_Node000008"><a xlink:title=" ">
<path fill="none" stroke="#63b8ff" d="M556.11,-503.41C635.81,-503.41 764.19,-503.41 846.42,-503.41"/>
<polygon fill="#63b8ff" stroke="#63b8ff" points="555.68,-499.91 545.68,-503.41 555.68,-506.91 555.68,-499.91"/>
</a>
</g>
</g>
<!-- Node9 -->
<g id="Node000009" class="node">
<title>Node9</title>
<g id="a_Node000009"><a xlink:title=" ">
<polygon fill="white" stroke="#666666" points="310,-513.91 159,-513.91 159,-492.91 310,-492.91 310,-513.91"/>
<text text-anchor="middle" x="234.5" y="-500.31" font-family="Helvetica,sans-Serif" font-size="12.00">std::basic_ios&lt; Char &gt;</text>
</a>
</g>
</g>
<!-- Node9&#45;&gt;Node8 -->
<g id="edge8_Node000008_Node000009" class="edge">
<title>Node9&#45;&gt;Node8</title>
<g id="a_edge8_Node000008_Node000009"><a xlink:title=" ">
<path fill="none" stroke="#63b8ff" d="M320.42,-503.41C353.56,-503.41 390.82,-503.41 421.25,-503.41"/>
<polygon fill="#63b8ff" stroke="#63b8ff" points="320.28,-499.91 310.28,-503.41 320.28,-506.91 320.28,-499.91"/>
</a>
</g>
</g>
<!-- Node10 -->
<g id="Node000010" class="node">
<title>Node10</title>
<g id="a_Node000010"><a xlink:title=" ">
<polygon fill="white" stroke="#666666" points="107.5,-513.91 14.5,-513.91 14.5,-492.91 107.5,-492.91 107.5,-513.91"/>
<text text-anchor="middle" x="61" y="-500.31" font-family="Helvetica,sans-Serif" font-size="12.00">std::ios_base</text>
</a>
</g>
</g>
<!-- Node10&#45;&gt;Node9 -->
<g id="edge9_Node000009_Node000010" class="edge">
<title>Node10&#45;&gt;Node9</title>
<g id="a_edge9_Node000009_Node000010"><a xlink:title=" ">
<path fill="none" stroke="#63b8ff" d="M117.78,-503.41C130.91,-503.41 145.11,-503.41 158.91,-503.41"/>
<polygon fill="#63b8ff" stroke="#63b8ff" points="117.51,-499.91 107.51,-503.41 117.51,-506.91 117.51,-499.91"/>
</a>
</g>
</g>
<!-- Node11 -->
<g id="Node000011" class="node">
<title>Node11</title>
<g id="a_Node000011"><a xlink:title=" ">
<polygon fill="white" stroke="#666666" points="1489.5,-294.41 1291.5,-294.41 1291.5,-260.41 1489.5,-260.41 1489.5,-294.41"/>
<text text-anchor="start" x="1299.5" y="-280.81" font-family="Helvetica,sans-Serif" font-size="12.00">std::vector&lt; JKQTPMathParser</text>
<text text-anchor="middle" x="1390.5" y="-267.81" font-family="Helvetica,sans-Serif" font-size="12.00">::jkmpTempVariable &gt;</text>
</a>
</g>
</g>
<!-- Node11&#45;&gt;Node3 -->
<g id="edge10_Node000003_Node000011" class="edge">
<title>Node11&#45;&gt;Node3</title>
<g id="a_edge10_Node000003_Node000011"><a xlink:title=" ">
<path fill="none" stroke="#9a32cd" stroke-dasharray="5,2" d="M1500.07,-281.29C1535.78,-283.11 1575.64,-285.72 1612,-289.41 1620.81,-290.31 1630.1,-291.47 1639.19,-292.72"/>
<polygon fill="#9a32cd" stroke="#9a32cd" points="1499.78,-277.77 1489.62,-280.78 1499.43,-284.76 1499.78,-277.77"/>
</a>
</g>
<text text-anchor="start" x="1523" y="-295.31" font-family="Helvetica,sans-Serif" font-size="12.00" fill="grey">tempvariables</text>
</g>
<!-- Node12&#45;&gt;Node11 -->
<g id="edge11_Node000011_Node000012" class="edge">
<title>Node12&#45;&gt;Node11</title>
<g id="a_edge11_Node000011_Node000012"><a xlink:title=" ">
<path fill="none" stroke="#9a32cd" stroke-dasharray="5,2" d="M805.98,-270.06C870.3,-272.15 954.52,-275.69 1029,-281.41 1037.03,-282.03 1038.96,-282.97 1047,-283.41 1141.97,-288.67 1165.91,-285.63 1261,-283.41 1270.82,-283.18 1281.07,-282.86 1291.29,-282.47"/>
<polygon fill="#9a32cd" stroke="#9a32cd" points="805.94,-266.56 795.84,-269.74 805.72,-273.56 805.94,-266.56"/>
</a>
</g>
<text text-anchor="start" x="897.5" y="-287.31" font-family="Helvetica,sans-Serif" font-size="12.00" fill="grey">elements</text>
</g>
<!-- Node13 -->
<g id="Node000013" class="node">
<title>Node13</title>
<g id="a_Node000013"><a xlink:title=" ">
<polygon fill="white" stroke="#666666" points="983,-152.91 868,-152.91 868,-131.91 983,-131.91 983,-152.91"/>
<text text-anchor="middle" x="925.5" y="-139.31" font-family="Helvetica,sans-Serif" font-size="12.00">std::vector&lt; T &gt;</text>
</a>
</g>
</g>
<!-- Node13&#45;&gt;Node11 -->
<g id="edge13_Node000011_Node000013" class="edge">
<title>Node13&#45;&gt;Node11</title>
<g id="a_edge13_Node000011_Node000013"><a xlink:title=" ">
<path fill="none" stroke="orange" stroke-dasharray="5,2" d="M986.6,-154.88C1005.84,-158.61 1027.27,-162.47 1047,-165.41 1141.62,-179.5 1171.35,-155.04 1261,-188.41 1304.74,-204.7 1347.71,-239.28 1371.2,-260.22"/>
<polygon fill="orange" stroke="orange" points="987.25,-151.44 976.76,-152.96 985.9,-158.31 987.25,-151.44"/>
</a>
</g>
<text text-anchor="start" x="1088" y="-211.81" font-family="Helvetica,sans-Serif" font-size="12.00" fill="grey">&lt; JKQTPMathParser::</text>
<text text-anchor="start" x="1088" y="-194.81" font-family="Helvetica,sans-Serif" font-size="12.00" fill="grey">  jkmpTempVariable &gt;</text>
</g>
<!-- Node14 -->
<g id="Node000014" class="node">
<title>Node14</title>
<g id="a_Node000014"><a xlink:title=" ">
<polygon fill="white" stroke="#666666" points="498,-151.91 469,-151.91 469,-130.91 498,-130.91 498,-151.91"/>
<text text-anchor="middle" x="483.5" y="-138.31" font-family="Helvetica,sans-Serif" font-size="12.00">T</text>
</a>
</g>
</g>
<!-- Node14&#45;&gt;Node13 -->
<g id="edge14_Node000013_Node000014" class="edge">
<title>Node14&#45;&gt;Node13</title>
<g id="a_edge14_Node000013_Node000014"><a xlink:title=" ">
<path fill="none" stroke="#9a32cd" stroke-dasharray="5,2" d="M508.21,-141.47C575.78,-141.62 770.68,-142.06 867.93,-142.28"/>
<polygon fill="#9a32cd" stroke="#9a32cd" points="508.16,-137.97 498.15,-141.44 508.14,-144.97 508.16,-137.97"/>
</a>
</g>
<text text-anchor="start" x="673" y="-148.31" font-family="Helvetica,sans-Serif" font-size="12.00" fill="grey">elements</text>
</g>
<!-- Node17 -->
<g id="Node000017" class="node">
<title>Node17</title>
<g id="a_Node000017"><a xlink:title=" ">
<polygon fill="white" stroke="#666666" points="985,-211.91 866,-211.91 866,-190.91 985,-190.91 985,-211.91"/>
<text text-anchor="middle" x="925.5" y="-198.31" font-family="Helvetica,sans-Serif" font-size="12.00">std::map&lt; K, T &gt;</text>
</a>
</g>
</g>
<!-- Node14&#45;&gt;Node17 -->
<g id="edge21_Node000017_Node000014" class="edge">
<title>Node14&#45;&gt;Node17</title>
<g id="a_edge21_Node000017_Node000014"><a xlink:title=" ">
<path fill="none" stroke="#9a32cd" stroke-dasharray="5,2" d="M507.93,-145.92C530.83,-150.24 566.73,-156.77 598,-161.41 689.22,-174.98 712.46,-175.16 804,-186.41 824.19,-188.9 846.28,-191.64 865.97,-194.09"/>
<polygon fill="#9a32cd" stroke="#9a32cd" points="508.57,-142.48 498.09,-144.05 507.26,-149.36 508.57,-142.48"/>
</a>
</g>
<text text-anchor="start" x="673" y="-192.31" font-family="Helvetica,sans-Serif" font-size="12.00" fill="grey">elements</text>
</g>
<!-- Node22 -->
<g id="Node000022" class="node">
<title>Node22</title>
<g id="a_Node000022"><a xlink:title=" ">
<polygon fill="white" stroke="#666666" points="1770,-163.91 1630,-163.91 1630,-142.91 1770,-142.91 1770,-163.91"/>
<text text-anchor="middle" x="1700" y="-150.31" font-family="Helvetica,sans-Serif" font-size="12.00">std::shared_ptr&lt; T &gt;</text>
</a>
</g>
</g>
<!-- Node14&#45;&gt;Node22 -->
<g id="edge30_Node000022_Node000014" class="edge">
<title>Node14&#45;&gt;Node22</title>
<g id="a_edge30_Node000022_Node000014"><a xlink:title=" ">
<path fill="none" stroke="#9a32cd" stroke-dasharray="5,2" d="M508.55,-138.04C586.26,-127.33 837.68,-94.18 1047,-83.41 1141.99,-78.53 1166.19,-75.88 1261,-83.41 1403.02,-94.69 1568.51,-126.22 1649.39,-142.85"/>
<polygon fill="#9a32cd" stroke="#9a32cd" points="507.8,-134.61 498.38,-139.45 508.76,-141.54 507.8,-134.61"/>
</a>
</g>
<text text-anchor="start" x="1145" y="-89.31" font-family="Helvetica,sans-Serif" font-size="12.00" fill="grey">ptr</text>
</g>
<!-- Node15&#45;&gt;Node3 -->
<g id="edge15_Node000003_Node000015" class="edge">
<title>Node15&#45;&gt;Node3</title>
<g id="a_edge15_Node000003_Node000015"><a xlink:title=" ">
<path fill="none" stroke="#9a32cd" stroke-dasharray="5,2" d="M1484.11,-370.12C1523.82,-361.08 1570.53,-349.43 1612,-336.41 1633.51,-329.66 1657.31,-320.22 1674.57,-313"/>
<polygon fill="#9a32cd" stroke="#9a32cd" points="1483.15,-366.74 1474.17,-372.36 1484.69,-373.57 1483.15,-366.74"/>
</a>
</g>
<text text-anchor="start" x="1539" y="-367.31" font-family="Helvetica,sans-Serif" font-size="12.00" fill="grey">variables</text>
</g>
<!-- Node16&#45;&gt;Node15 -->
<g id="edge17_Node000015_Node000016" class="edge">
<title>Node16&#45;&gt;Node15</title>
<g id="a_edge17_Node000015_Node000016"><a xlink:title=" ">
<path fill="none" stroke="#9a32cd" stroke-dasharray="5,2" d="M814.43,-396.94C942.71,-395.26 1151.2,-392.53 1278.77,-390.86"/>
<polygon fill="#9a32cd" stroke="#9a32cd" points="814.14,-393.45 804.18,-397.08 814.23,-400.44 814.14,-393.45"/>
</a>
</g>
<text text-anchor="start" x="897.5" y="-403.31" font-family="Helvetica,sans-Serif" font-size="12.00" fill="grey">elements</text>
</g>
<!-- Node17&#45;&gt;Node15 -->
<g id="edge19_Node000015_Node000017" class="edge">
<title>Node17&#45;&gt;Node15</title>
<g id="a_edge19_Node000015_Node000017"><a xlink:title=" ">
<path fill="none" stroke="orange" stroke-dasharray="5,2" d="M961.74,-215.72C1045.69,-249.81 1257.2,-335.69 1347.54,-372.38"/>
<polygon fill="orange" stroke="orange" points="962.97,-212.44 952.38,-211.92 960.33,-218.93 962.97,-212.44"/>
</a>
</g>
<text text-anchor="start" x="1081" y="-357.81" font-family="Helvetica,sans-Serif" font-size="12.00" fill="grey">&lt; std::string, JKQTPMath</text>
<text text-anchor="start" x="1081" y="-340.81" font-family="Helvetica,sans-Serif" font-size="12.00" fill="grey">  Parser::jkmpVariable &gt;</text>
</g>
<!-- Node17&#45;&gt;Node19 -->
<g id="edge28_Node000019_Node000017" class="edge">
<title>Node17&#45;&gt;Node19</title>
<g id="a_edge28_Node000019_Node000017"><a xlink:title=" ">
<path fill="none" stroke="orange" stroke-dasharray="5,2" d="M983.74,-187.44C999.76,-181.43 1016.26,-173.04 1029,-161.41 1042.21,-149.36 1032.21,-135.48 1047,-125.41 1086.46,-98.54 1215.38,-120.51 1261,-106.41 1295.82,-95.66 1331.69,-74.57 1356.65,-57.98"/>
<polygon fill="orange" stroke="orange" points="982.16,-184.28 973.86,-190.87 984.46,-190.89 982.16,-184.28"/>
</a>
</g>
<text text-anchor="start" x="1050" y="-148.81" font-family="Helvetica,sans-Serif" font-size="12.00" fill="grey">&lt; std::string, JKQTPMath</text>
<text text-anchor="start" x="1050" y="-131.81" font-family="Helvetica,sans-Serif" font-size="12.00" fill="grey">  Parser::jkmpFunctionDescriptor &gt;</text>
</g>
<!-- Node18 -->
<g id="Node000018" class="node">
<title>Node18</title>
<g id="a_Node000018"><a xlink:title=" ">
<polygon fill="white" stroke="#666666" points="498,-235.91 469,-235.91 469,-214.91 498,-214.91 498,-235.91"/>
<text text-anchor="middle" x="483.5" y="-222.31" font-family="Helvetica,sans-Serif" font-size="12.00">K</text>
</a>
</g>
</g>
<!-- Node18&#45;&gt;Node17 -->
<g id="edge20_Node000017_Node000018" class="edge">
<title>Node18&#45;&gt;Node17</title>
<g id="a_edge20_Node000017_Node000018"><a xlink:title=" ">
<path fill="none" stroke="#9a32cd" stroke-dasharray="5,2" d="M508.14,-224.12C575.18,-220.47 767.97,-209.95 865.9,-204.61"/>
<polygon fill="#9a32cd" stroke="#9a32cd" points="507.95,-220.63 498.15,-224.67 508.33,-227.62 507.95,-220.63"/>
</a>
</g>
<text text-anchor="start" x="687" y="-225.31" font-family="Helvetica,sans-Serif" font-size="12.00" fill="grey">keys</text>
</g>
<!-- Node19&#45;&gt;Node3 -->
<g id="edge22_Node000003_Node000019" class="edge">
<title>Node19&#45;&gt;Node3</title>
<g id="a_edge22_Node000003_Node000019"><a xlink:title=" ">
<path fill="none" stroke="#9a32cd" stroke-dasharray="5,2" d="M1426.45,-64.87C1494.81,-124.46 1643.38,-253.93 1686.83,-291.81"/>
<polygon fill="#9a32cd" stroke="#9a32cd" points="1428.36,-61.89 1418.52,-57.96 1423.76,-67.17 1428.36,-61.89"/>
</a>
</g>
<text text-anchor="start" x="1539" y="-229.31" font-family="Helvetica,sans-Serif" font-size="12.00" fill="grey">functions</text>
</g>
<!-- Node20&#45;&gt;Node19 -->
<g id="edge24_Node000019_Node000020" class="edge">
<title>Node20&#45;&gt;Node19</title>
<g id="a_edge24_Node000019_Node000020"><a xlink:title=" ">
<path fill="none" stroke="#9a32cd" stroke-dasharray="5,2" d="M1039.65,-43.48C1114.38,-41.54 1211.64,-39.02 1284.63,-37.13"/>
<polygon fill="#9a32cd" stroke="#9a32cd" points="1039.16,-39.99 1029.25,-43.75 1039.34,-46.99 1039.16,-39.99"/>
</a>
</g>
<text text-anchor="start" x="1126" y="-49.31" font-family="Helvetica,sans-Serif" font-size="12.00" fill="grey">elements</text>
</g>
<!-- Node21&#45;&gt;Node20 -->
<g id="edge25_Node000020_Node000021" class="edge">
<title>Node21&#45;&gt;Node20</title>
<g id="a_edge25_Node000020_Node000021"><a xlink:title=" ">
<path fill="none" stroke="#9a32cd" stroke-dasharray="5,2" d="M590.44,-41.86C660.59,-42.81 752.15,-44.06 821.66,-45.01"/>
<polygon fill="#9a32cd" stroke="#9a32cd" points="590.29,-38.36 580.24,-41.72 590.2,-45.36 590.29,-38.36"/>
</a>
</g>
<text text-anchor="start" x="677" y="-51.31" font-family="Helvetica,sans-Serif" font-size="12.00" fill="grey">function</text>
</g>
<!-- Node22&#45;&gt;Node2 -->
<g id="edge29_Node000002_Node000022" class="edge">
<title>Node22&#45;&gt;Node2</title>
<g id="a_edge29_Node000002_Node000022"><a xlink:title=" ">
<path fill="none" stroke="orange" stroke-dasharray="5,2" d="M1714.99,-171.98C1730.66,-191.45 1757.83,-221.51 1788,-238.41 1815.72,-253.95 1889.73,-271.71 1949.91,-284.4"/>
<polygon fill="orange" stroke="orange" points="1717.75,-169.82 1708.82,-164.11 1712.24,-174.14 1717.75,-169.82"/>
</a>
</g>
<text text-anchor="start" x="1791" y="-285.31" font-family="Helvetica,sans-Serif" font-size="12.00" fill="grey">&lt; JKQTPMathParser &gt;</text>
</g>
<!-- Node23 -->
<g id="Node000023" class="node">
<title>Node23</title>
<g id="a_Node000023"><a xlink:title=" ">
<polygon fill="white" stroke="#666666" points="2377,-235.41 2192,-235.41 2192,-201.41 2377,-201.41 2377,-235.41"/>
<text text-anchor="start" x="2200" y="-221.81" font-family="Helvetica,sans-Serif" font-size="12.00">std::shared_ptr&lt; JKQTPMath</text>
<text text-anchor="middle" x="2284.5" y="-208.81" font-family="Helvetica,sans-Serif" font-size="12.00">Parser::jkmpNode &gt;</text>
</a>
</g>
</g>
<!-- Node22&#45;&gt;Node23 -->
<g id="edge35_Node000023_Node000022" class="edge">
<title>Node22&#45;&gt;Node23</title>
<g id="a_edge35_Node000023_Node000022"><a xlink:title=" ">
<path fill="none" stroke="orange" stroke-dasharray="5,2" d="M1780.1,-147.27C1867.17,-142.3 2010.87,-139.44 2132,-162.41 2173.05,-170.2 2217.64,-187.89 2247.74,-201.32"/>
<polygon fill="orange" stroke="orange" points="1779.81,-143.78 1770.03,-147.87 1780.22,-150.77 1779.81,-143.78"/>
</a>
</g>
<text text-anchor="start" x="1976" y="-185.81" font-family="Helvetica,sans-Serif" font-size="12.00" fill="grey">&lt; JKQTPMathParser::</text>
<text text-anchor="start" x="1976" y="-168.81" font-family="Helvetica,sans-Serif" font-size="12.00" fill="grey">  jkmpNode &gt;</text>
</g>
<!-- Node23&#45;&gt;Node1 -->
<g id="edge31_Node000001_Node000023" class="edge">
<title>Node23&#45;&gt;Node1</title>
<g id="a_edge31_Node000001_Node000023"><a xlink:title=" ">
<path fill="none" stroke="#9a32cd" stroke-dasharray="5,2" d="M2387.24,-232.4C2412.85,-235.92 2440.63,-239.74 2467.19,-243.39"/>
<polygon fill="#9a32cd" stroke="#9a32cd" points="2387.54,-228.91 2377.16,-231.01 2386.59,-235.84 2387.54,-228.91"/>
</a>
</g>
<text text-anchor="start" x="2398.5" y="-244.31" font-family="Helvetica,sans-Serif" font-size="12.00" fill="grey">node</text>
</g>
<!-- Node24&#45;&gt;Node23 -->
<g id="edge32_Node000023_Node000024" class="edge">
<title>Node24&#45;&gt;Node23</title>
<g id="a_edge32_Node000023_Node000024"><a xlink:title=" ">
<path fill="none" stroke="#9a32cd" stroke-dasharray="5,2" d="M2142.3,-218.41C2158.76,-218.41 2175.68,-218.41 2191.84,-218.41"/>
<polygon fill="#9a32cd" stroke="#9a32cd" points="2142.13,-214.91 2132.13,-218.41 2142.13,-221.91 2142.13,-214.91"/>
</a>
</g>
<text text-anchor="start" x="2153" y="-224.31" font-family="Helvetica,sans-Serif" font-size="12.00" fill="grey">ptr</text>
</g>
<!-- Node24&#45;&gt;Node24 -->
<g id="edge34_Node000024_Node000024" class="edge">
<title>Node24&#45;&gt;Node24</title>
<g id="a_edge34_Node000024_Node000024"><a xlink:title=" ">
<path fill="none" stroke="#9a32cd" stroke-dasharray="5,2" d="M2015.15,-238.49C2016.91,-243.33 2024.53,-246.91 2038,-246.91 2059.55,-246.91 2066.12,-237.73 2057.7,-228.94"/>
<polygon fill="#9a32cd" stroke="#9a32cd" points="2018.49,-239.53 2018.3,-228.94 2011.84,-237.34 2018.49,-239.53"/>
</a>
</g>
<text text-anchor="start" x="2018" y="-252.81" font-family="Helvetica,sans-Serif" font-size="12.00" fill="grey">parent</text>
</g>
</g>
</svg>
