<?xml version="1.0" encoding="UTF-8" standalone="no"?>
<!DOCTYPE svg PUBLIC "-//W3C//DTD SVG 1.1//EN"
 "http://www.w3.org/Graphics/SVG/1.1/DTD/svg11.dtd">
<!-- Generated by graphviz version 2.43.0 (0)
 -->
<!-- Title: JKQTPBaseKey::KeySizeDescription Pages: 1 -->
<svg width="469pt" height="287pt"
 viewBox="0.00 0.00 469.00 287.00" xmlns="http://www.w3.org/2000/svg" xmlns:xlink="http://www.w3.org/1999/xlink">
<g id="graph0" class="graph" transform="scale(1 1) rotate(0) translate(4 283)">
<title>JKQTPBaseKey::KeySizeDescription</title>
<!-- Node1 -->
<g id="Node000001" class="node">
<title>Node1</title>
<g id="a_Node000001"><a xlink:title="struct, describing basic layout and size properties of a key/legend, mostly used as return value of g...">
<polygon fill="#999999" stroke="#666666" points="295,-21 71,-21 71,0 295,0 295,-21"/>
<text text-anchor="middle" x="183" y="-7.4" font-family="Helvetica,sans-Serif" font-size="12.00">JKQTPBaseKey::KeySizeDescription</text>
</a>
</g>
</g>
<!-- Node2 -->
<g id="Node000002" class="node">
<title>Node2</title>
<g id="a_Node000002"><a xlink:title=" ">
<polygon fill="white" stroke="#666666" points="277,-110 89,-110 89,-76 277,-76 277,-110"/>
<text text-anchor="start" x="97" y="-96.4" font-family="Helvetica,sans-Serif" font-size="12.00">std::unique_ptr&lt; JKQTPBase</text>
<text text-anchor="middle" x="183" y="-83.4" font-family="Helvetica,sans-Serif" font-size="12.00">Key::KeyLayoutDescription &gt;</text>
</a>
</g>
</g>
<!-- Node2&#45;&gt;Node1 -->
<g id="edge1_Node000001_Node000002" class="edge">
<title>Node2&#45;&gt;Node1</title>
<g id="a_edge1_Node000001_Node000002"><a xlink:title=" ">
<path fill="none" stroke="#9a32cd" stroke-dasharray="5,2" d="M183,-65.32C183,-50.15 183,-32.06 183,-21.2"/>
<polygon fill="#9a32cd" stroke="#9a32cd" points="179.5,-65.71 183,-75.71 186.5,-65.71 179.5,-65.71"/>
</a>
</g>
<text text-anchor="start" x="186" y="-44.9" font-family="Helvetica,sans-Serif" font-size="12.00" fill="grey">d</text>
</g>
<!-- Node3 -->
<g id="Node000003" class="node">
<title>Node3</title>
<g id="a_Node000003"><a xlink:href="struct_j_k_q_t_p_base_key_1_1_key_layout_description.html" target="_top" xlink:title="struct, describing basic layout and size properties of a key/legend, mostly used as return value of g...">
<polygon fill="white" stroke="#666666" points="240,-203 0,-203 0,-182 240,-182 240,-203"/>
<text text-anchor="middle" x="120" y="-189.4" font-family="Helvetica,sans-Serif" font-size="12.00">JKQTPBaseKey::KeyLayoutDescription</text>
</a>
</g>
</g>
<!-- Node3&#45;&gt;Node2 -->
<g id="edge2_Node000002_Node000003" class="edge">
<title>Node3&#45;&gt;Node2</title>
<g id="a_edge2_Node000002_Node000003"><a xlink:title=" ">
<path fill="none" stroke="#9a32cd" stroke-dasharray="5,2" d="M131.79,-173.26C143.53,-155.09 161.37,-127.47 172.6,-110.09"/>
<polygon fill="#9a32cd" stroke="#9a32cd" points="128.76,-171.5 126.27,-181.79 134.64,-175.3 128.76,-171.5"/>
</a>
</g>
<text text-anchor="start" x="163" y="-142.4" font-family="Helvetica,sans-Serif" font-size="12.00" fill="grey">ptr</text>
</g>
<!-- Node4 -->
<g id="Node000004" class="node">
<title>Node4</title>
<g id="a_Node000004"><a xlink:title=" ">
<polygon fill="white" stroke="#666666" points="398,-203 258,-203 258,-182 398,-182 398,-203"/>
<text text-anchor="middle" x="328" y="-189.4" font-family="Helvetica,sans-Serif" font-size="12.00">std::unique_ptr&lt; T &gt;</text>
</a>
</g>
</g>
<!-- Node4&#45;&gt;Node2 -->
<g id="edge3_Node000002_Node000004" class="edge">
<title>Node4&#45;&gt;Node2</title>
<g id="a_edge3_Node000002_Node000004"><a xlink:title=" ">
<path fill="none" stroke="orange" stroke-dasharray="5,2" d="M305.5,-176.37C278.78,-158.41 234.41,-128.57 207.04,-110.16"/>
<polygon fill="orange" stroke="orange" points="303.58,-179.3 313.83,-181.97 307.49,-173.49 303.58,-179.3"/>
</a>
</g>
<text text-anchor="start" x="288" y="-151.4" font-family="Helvetica,sans-Serif" font-size="12.00" fill="grey">&lt; JKQTPBaseKey::KeyLayout</text>
<text text-anchor="start" x="288" y="-134.4" font-family="Helvetica,sans-Serif" font-size="12.00" fill="grey">  Description &gt;</text>
</g>
<!-- Node5 -->
<g id="Node000005" class="node">
<title>Node5</title>
<g id="a_Node000005"><a xlink:title=" ">
<polygon fill="white" stroke="#666666" points="342.5,-279 313.5,-279 313.5,-258 342.5,-258 342.5,-279"/>
<text text-anchor="middle" x="328" y="-265.4" font-family="Helvetica,sans-Serif" font-size="12.00">T</text>
</a>
</g>
</g>
<!-- Node5&#45;&gt;Node4 -->
<g id="edge4_Node000004_Node000005" class="edge">
<title>Node5&#45;&gt;Node4</title>
<g id="a_edge4_Node000004_Node000005"><a xlink:title=" ">
<path fill="none" stroke="#9a32cd" stroke-dasharray="5,2" d="M328,-247.53C328,-233.25 328,-214.65 328,-203.41"/>
<polygon fill="#9a32cd" stroke="#9a32cd" points="324.5,-247.83 328,-257.83 331.5,-247.83 324.5,-247.83"/>
</a>
</g>
<text text-anchor="start" x="331" y="-226.9" font-family="Helvetica,sans-Serif" font-size="12.00" fill="grey">ptr</text>
</g>
</g>
</svg>
