<?xml version="1.0" encoding="UTF-8" standalone="no"?>
<!DOCTYPE svg PUBLIC "-//W3C//DTD SVG 1.1//EN"
 "http://www.w3.org/Graphics/SVG/1.1/DTD/svg11.dtd">
<!-- Generated by graphviz version 2.43.0 (0)
 -->
<!-- Title: JKQTPDataCache&lt; TData, TKey, ThreadSafe, TKeyInSignature &gt; Pages: 1 -->
<svg width="1581pt" height="178pt"
 viewBox="0.00 0.00 1581.00 177.50" xmlns="http://www.w3.org/2000/svg" xmlns:xlink="http://www.w3.org/1999/xlink">
<g id="graph0" class="graph" transform="scale(1 1) rotate(0) translate(4 173.5)">
<title>JKQTPDataCache&lt; TData, TKey, ThreadSafe, TKeyInSignature &gt;</title>
<!-- Node1 -->
<g id="Node000001" class="node">
<title>Node1</title>
<g id="a_Node000001"><a xlink:title="this class can be used to implement a general cache for values">
<polygon fill="#999999" stroke="#666666" points="1573,-131.5 1328,-131.5 1328,-97.5 1573,-97.5 1573,-131.5"/>
<text text-anchor="start" x="1336" y="-117.9" font-family="Helvetica,sans-Serif" font-size="12.00">JKQTPDataCache&lt; TData,</text>
<text text-anchor="middle" x="1450.5" y="-104.9" font-family="Helvetica,sans-Serif" font-size="12.00"> TKey, ThreadSafe, TKeyInSignature &gt;</text>
</a>
</g>
</g>
<!-- Node2 -->
<g id="Node000002" class="node">
<title>Node2</title>
<g id="a_Node000002"><a xlink:title=" ">
<polygon fill="white" stroke="#666666" points="1097.5,-169.5 960.5,-169.5 960.5,-135.5 1097.5,-135.5 1097.5,-169.5"/>
<text text-anchor="start" x="968.5" y="-155.9" font-family="Helvetica,sans-Serif" font-size="12.00">std::unordered_map</text>
<text text-anchor="middle" x="1029" y="-142.9" font-family="Helvetica,sans-Serif" font-size="12.00">&lt; TKey, TData &gt;</text>
</a>
</g>
</g>
<!-- Node2&#45;&gt;Node1 -->
<g id="edge1_Node000001_Node000002" class="edge">
<title>Node2&#45;&gt;Node1</title>
<g id="a_edge1_Node000001_Node000002"><a xlink:title=" ">
<path fill="none" stroke="#9a32cd" stroke-dasharray="5,2" d="M1107.93,-145.44C1169.68,-139.85 1257.04,-131.93 1327.96,-125.51"/>
<polygon fill="#9a32cd" stroke="#9a32cd" points="1107.51,-141.96 1097.87,-146.35 1108.14,-148.94 1107.51,-141.96"/>
</a>
</g>
<text text-anchor="start" x="1192.5" y="-148.4" font-family="Helvetica,sans-Serif" font-size="12.00" fill="grey">m_cache</text>
</g>
<!-- Node3 -->
<g id="Node000003" class="node">
<title>Node3</title>
<g id="a_Node000003"><a xlink:title=" ">
<polygon fill="white" stroke="#666666" points="745.5,-157.5 608.5,-157.5 608.5,-123.5 745.5,-123.5 745.5,-157.5"/>
<text text-anchor="start" x="616.5" y="-143.9" font-family="Helvetica,sans-Serif" font-size="12.00">std::unordered_map</text>
<text text-anchor="middle" x="677" y="-130.9" font-family="Helvetica,sans-Serif" font-size="12.00">&lt; K, T &gt;</text>
</a>
</g>
</g>
<!-- Node3&#45;&gt;Node2 -->
<g id="edge2_Node000002_Node000003" class="edge">
<title>Node3&#45;&gt;Node2</title>
<g id="a_edge2_Node000002_Node000003"><a xlink:title=" ">
<path fill="none" stroke="orange" stroke-dasharray="5,2" d="M755.91,-143.17C817.22,-145.27 901.78,-148.17 960.29,-150.18"/>
<polygon fill="orange" stroke="orange" points="756.01,-139.67 745.9,-142.83 755.77,-146.67 756.01,-139.67"/>
</a>
</g>
<text text-anchor="start" x="798.5" y="-154.4" font-family="Helvetica,sans-Serif" font-size="12.00" fill="grey">&lt; TKey, TData &gt;</text>
</g>
<!-- Node6 -->
<g id="Node000006" class="node">
<title>Node6</title>
<g id="a_Node000006"><a xlink:title=" ">
<polygon fill="white" stroke="#666666" points="1111,-112.5 947,-112.5 947,-52.5 1111,-52.5 1111,-112.5"/>
<text text-anchor="start" x="955" y="-98.9" font-family="Helvetica,sans-Serif" font-size="12.00">std::unordered_map</text>
<text text-anchor="start" x="955" y="-85.9" font-family="Helvetica,sans-Serif" font-size="12.00">&lt; TKey, std::shared</text>
<text text-anchor="start" x="955" y="-72.9" font-family="Helvetica,sans-Serif" font-size="12.00">_ptr&lt; std::atomic&lt; int64</text>
<text text-anchor="middle" x="1029" y="-59.9" font-family="Helvetica,sans-Serif" font-size="12.00">_t &gt; &gt; &gt;</text>
</a>
</g>
</g>
<!-- Node3&#45;&gt;Node6 -->
<g id="edge12_Node000006_Node000003" class="edge">
<title>Node3&#45;&gt;Node6</title>
<g id="a_edge12_Node000006_Node000003"><a xlink:title=" ">
<path fill="none" stroke="orange" stroke-dasharray="5,2" d="M707.3,-117.51C724.06,-105.81 746.07,-92.76 768,-86.5 826.17,-69.9 894.68,-69.59 946.77,-73.05"/>
<polygon fill="orange" stroke="orange" points="705.11,-114.78 699.04,-123.46 709.2,-120.45 705.11,-114.78"/>
</a>
</g>
<text text-anchor="start" x="771.5" y="-126.4" font-family="Helvetica,sans-Serif" font-size="12.00" fill="grey">&lt; TKey, std::shared</text>
<text text-anchor="start" x="771.5" y="-109.4" font-family="Helvetica,sans-Serif" font-size="12.00" fill="grey">  _ptr&lt; std::atomic&lt; int64</text>
<text text-anchor="start" x="771.5" y="-92.4" font-family="Helvetica,sans-Serif" font-size="12.00" fill="grey">  _t &gt; &gt; &gt;</text>
</g>
<!-- Node4 -->
<g id="Node000004" class="node">
<title>Node4</title>
<g id="a_Node000004"><a xlink:title=" ">
<polygon fill="white" stroke="#666666" points="473,-133 444,-133 444,-112 473,-112 473,-133"/>
<text text-anchor="middle" x="458.5" y="-119.4" font-family="Helvetica,sans-Serif" font-size="12.00">K</text>
</a>
</g>
</g>
<!-- Node4&#45;&gt;Node3 -->
<g id="edge3_Node000003_Node000004" class="edge">
<title>Node4&#45;&gt;Node3</title>
<g id="a_edge3_Node000003_Node000004"><a xlink:title=" ">
<path fill="none" stroke="#9a32cd" stroke-dasharray="5,2" d="M483.37,-123.03C508.84,-123.73 550.33,-125.28 586,-128.5 593.22,-129.15 600.75,-129.96 608.25,-130.84"/>
<polygon fill="#9a32cd" stroke="#9a32cd" points="483.28,-119.52 473.19,-122.77 483.1,-126.52 483.28,-119.52"/>
</a>
</g>
<text text-anchor="start" x="555" y="-134.4" font-family="Helvetica,sans-Serif" font-size="12.00" fill="grey">keys</text>
</g>
<!-- Node5 -->
<g id="Node000005" class="node">
<title>Node5</title>
<g id="a_Node000005"><a xlink:title=" ">
<polygon fill="white" stroke="#666666" points="29,-68 0,-68 0,-47 29,-47 29,-68"/>
<text text-anchor="middle" x="14.5" y="-54.4" font-family="Helvetica,sans-Serif" font-size="12.00">T</text>
</a>
</g>
</g>
<!-- Node5&#45;&gt;Node3 -->
<g id="edge4_Node000003_Node000005" class="edge">
<title>Node5&#45;&gt;Node3</title>
<g id="a_edge4_Node000003_Node000005"><a xlink:title=" ">
<path fill="none" stroke="#9a32cd" stroke-dasharray="5,2" d="M35.34,-74C39.05,-76.48 43.01,-78.78 47,-80.5 254.95,-170.04 325.61,-144.15 552,-147.5 567.11,-147.72 570.9,-148.09 586,-147.5 593.2,-147.22 600.72,-146.82 608.22,-146.34"/>
<polygon fill="#9a32cd" stroke="#9a32cd" points="37.41,-71.18 27.28,-68.06 33.25,-76.81 37.41,-71.18"/>
</a>
</g>
<text text-anchor="start" x="267" y="-154.4" font-family="Helvetica,sans-Serif" font-size="12.00" fill="grey">elements</text>
</g>
<!-- Node9 -->
<g id="Node000009" class="node">
<title>Node9</title>
<g id="a_Node000009"><a xlink:title=" ">
<polygon fill="white" stroke="#666666" points="207,-24 89,-24 89,-3 207,-3 207,-24"/>
<text text-anchor="middle" x="148" y="-10.4" font-family="Helvetica,sans-Serif" font-size="12.00">std::atomic&lt; T &gt;</text>
</a>
</g>
</g>
<!-- Node5&#45;&gt;Node9 -->
<g id="edge9_Node000009_Node000005" class="edge">
<title>Node5&#45;&gt;Node9</title>
<g id="a_edge9_Node000009_Node000005"><a xlink:title=" ">
<path fill="none" stroke="#9a32cd" stroke-dasharray="5,2" d="M25.31,-38.12C30.55,-29.92 37.83,-21.19 47,-16.5 59.68,-10.01 74.5,-7.37 88.78,-6.78"/>
<polygon fill="#9a32cd" stroke="#9a32cd" points="22.2,-36.5 20.26,-46.91 28.27,-39.98 22.2,-36.5"/>
</a>
</g>
<text text-anchor="start" x="50" y="-22.4" font-family="Helvetica,sans-Serif" font-size="12.00" fill="grey">ptr</text>
</g>
<!-- Node10 -->
<g id="Node000010" class="node">
<title>Node10</title>
<g id="a_Node000010"><a xlink:title=" ">
<polygon fill="white" stroke="#666666" points="365,-68 225,-68 225,-47 365,-47 365,-68"/>
<text text-anchor="middle" x="295" y="-54.4" font-family="Helvetica,sans-Serif" font-size="12.00">std::shared_ptr&lt; T &gt;</text>
</a>
</g>
</g>
<!-- Node5&#45;&gt;Node10 -->
<g id="edge11_Node000010_Node000005" class="edge">
<title>Node5&#45;&gt;Node10</title>
<g id="a_edge11_Node000010_Node000005"><a xlink:title=" ">
<path fill="none" stroke="#9a32cd" stroke-dasharray="5,2" d="M39.35,-57.5C80.03,-57.5 164.29,-57.5 224.76,-57.5"/>
<polygon fill="#9a32cd" stroke="#9a32cd" points="39.31,-54 29.31,-57.5 39.31,-61 39.31,-54"/>
</a>
</g>
<text text-anchor="start" x="50" y="-63.4" font-family="Helvetica,sans-Serif" font-size="12.00" fill="grey">ptr</text>
</g>
<!-- Node6&#45;&gt;Node1 -->
<g id="edge5_Node000001_Node000006" class="edge">
<title>Node6&#45;&gt;Node1</title>
<g id="a_edge5_Node000001_Node000006"><a xlink:title=" ">
<path fill="none" stroke="#9a32cd" stroke-dasharray="5,2" d="M1121.26,-87.54C1176.02,-90.77 1247.04,-95.32 1310,-100.5 1315.82,-100.98 1321.78,-101.49 1327.79,-102.03"/>
<polygon fill="#9a32cd" stroke="#9a32cd" points="1121.42,-84.04 1111.23,-86.95 1121.01,-91.03 1121.42,-84.04"/>
</a>
</g>
<text text-anchor="start" x="1132.5" y="-106.4" font-family="Helvetica,sans-Serif" font-size="12.00" fill="grey">m_cacheLastUseTimestamps</text>
</g>
<!-- Node7 -->
<g id="Node000007" class="node">
<title>Node7</title>
<g id="a_Node000007"><a xlink:title=" ">
<polygon fill="white" stroke="#666666" points="750,-57.5 604,-57.5 604,-23.5 750,-23.5 750,-57.5"/>
<text text-anchor="start" x="612" y="-43.9" font-family="Helvetica,sans-Serif" font-size="12.00">std::shared_ptr&lt; std</text>
<text text-anchor="middle" x="677" y="-30.9" font-family="Helvetica,sans-Serif" font-size="12.00">::atomic&lt; int64_t &gt; &gt;</text>
</a>
</g>
</g>
<!-- Node7&#45;&gt;Node6 -->
<g id="edge6_Node000006_Node000007" class="edge">
<title>Node7&#45;&gt;Node6</title>
<g id="a_edge6_Node000006_Node000007"><a xlink:title=" ">
<path fill="none" stroke="#9a32cd" stroke-dasharray="5,2" d="M760.15,-32.88C809.56,-30.26 873.44,-30.34 929,-41.5 941.22,-43.96 953.82,-47.93 965.78,-52.47"/>
<polygon fill="#9a32cd" stroke="#9a32cd" points="759.93,-29.39 750.15,-33.46 760.34,-36.37 759.93,-29.39"/>
</a>
</g>
<text text-anchor="start" x="820.5" y="-47.4" font-family="Helvetica,sans-Serif" font-size="12.00" fill="grey">elements</text>
</g>
<!-- Node8 -->
<g id="Node000008" class="node">
<title>Node8</title>
<g id="a_Node000008"><a xlink:title=" ">
<polygon fill="white" stroke="#666666" points="534,-21 383,-21 383,0 534,0 534,-21"/>
<text text-anchor="middle" x="458.5" y="-7.4" font-family="Helvetica,sans-Serif" font-size="12.00">std::atomic&lt; int64_t &gt;</text>
</a>
</g>
</g>
<!-- Node8&#45;&gt;Node7 -->
<g id="edge7_Node000007_Node000008" class="edge">
<title>Node8&#45;&gt;Node7</title>
<g id="a_edge7_Node000007_Node000008"><a xlink:title=" ">
<path fill="none" stroke="#9a32cd" stroke-dasharray="5,2" d="M544.27,-19.1C558.23,-20.74 572.54,-22.56 586,-24.5 591.81,-25.34 597.82,-26.27 603.86,-27.24"/>
<polygon fill="#9a32cd" stroke="#9a32cd" points="544.52,-15.61 534.19,-17.94 543.72,-22.56 544.52,-15.61"/>
</a>
</g>
<text text-anchor="start" x="560" y="-30.4" font-family="Helvetica,sans-Serif" font-size="12.00" fill="grey">ptr</text>
</g>
<!-- Node9&#45;&gt;Node8 -->
<g id="edge8_Node000008_Node000009" class="edge">
<title>Node9&#45;&gt;Node8</title>
<g id="a_edge8_Node000008_Node000009"><a xlink:title=" ">
<path fill="none" stroke="orange" stroke-dasharray="5,2" d="M217.22,-12.84C266.25,-12.36 332.33,-11.72 382.79,-11.23"/>
<polygon fill="orange" stroke="orange" points="216.99,-9.34 207.03,-12.94 217.06,-16.34 216.99,-9.34"/>
</a>
</g>
<text text-anchor="start" x="261" y="-19.4" font-family="Helvetica,sans-Serif" font-size="12.00" fill="grey">&lt; int64_t &gt;</text>
</g>
<!-- Node10&#45;&gt;Node7 -->
<g id="edge10_Node000007_Node000010" class="edge">
<title>Node10&#45;&gt;Node7</title>
<g id="a_edge10_Node000007_Node000010"><a xlink:title=" ">
<path fill="none" stroke="orange" stroke-dasharray="5,2" d="M375.41,-53.95C442.83,-50.93 538.77,-46.64 603.99,-43.72"/>
<polygon fill="orange" stroke="orange" points="375.09,-50.46 365.26,-54.4 375.4,-57.45 375.09,-50.46"/>
</a>
</g>
<text text-anchor="start" x="396.5" y="-77.9" font-family="Helvetica,sans-Serif" font-size="12.00" fill="grey">&lt; std::atomic&lt; int64</text>
<text text-anchor="start" x="396.5" y="-60.9" font-family="Helvetica,sans-Serif" font-size="12.00" fill="grey">  _t &gt; &gt;</text>
</g>
</g>
</svg>
