<?xml version="1.0" encoding="UTF-8" standalone="no"?>
<!DOCTYPE svg PUBLIC "-//W3C//DTD SVG 1.1//EN"
 "http://www.w3.org/Graphics/SVG/1.1/DTD/svg11.dtd">
<!-- Generated by graphviz version 2.43.0 (0)
 -->
<!-- Title: JKQTPMathParser::jkmpTempVariable Pages: 1 -->
<svg width="197pt" height="206pt"
 viewBox="0.00 0.00 197.00 206.00" xmlns="http://www.w3.org/2000/svg" xmlns:xlink="http://www.w3.org/1999/xlink">
<g id="graph0" class="graph" transform="scale(1 1) rotate(0) translate(4 202)">
<title>JKQTPMathParser::jkmpTempVariable</title>
<!-- Node1 -->
<g id="Node000001" class="node">
<title>Node1</title>
<g id="a_Node000001"><a xlink:title="This struct is for managing temporary variables. It is generally like jkmpVariable.">
<polygon fill="#999999" stroke="#666666" points="189,-34 0,-34 0,0 189,0 189,-34"/>
<text text-anchor="start" x="8" y="-20.4" font-family="Helvetica,sans-Serif" font-size="12.00">JKQTPMathParser::jkmpTemp</text>
<text text-anchor="middle" x="94.5" y="-7.4" font-family="Helvetica,sans-Serif" font-size="12.00">Variable</text>
</a>
</g>
</g>
<!-- Node2 -->
<g id="Node000002" class="node">
<title>Node2</title>
<g id="a_Node000002"><a xlink:title=" ">
<polygon fill="white" stroke="#666666" points="132.5,-127 56.5,-127 56.5,-106 132.5,-106 132.5,-127"/>
<text text-anchor="middle" x="94.5" y="-113.4" font-family="Helvetica,sans-Serif" font-size="12.00">std::string</text>
</a>
</g>
</g>
<!-- Node2&#45;&gt;Node1 -->
<g id="edge1_Node000001_Node000002" class="edge">
<title>Node2&#45;&gt;Node1</title>
<g id="a_edge1_Node000001_Node000002"><a xlink:title=" ">
<path fill="none" stroke="#9a32cd" stroke-dasharray="5,2" d="M94.5,-95.74C94.5,-77.58 94.5,-50.99 94.5,-34.09"/>
<polygon fill="#9a32cd" stroke="#9a32cd" points="91,-95.79 94.5,-105.79 98,-95.79 91,-95.79"/>
</a>
</g>
<text text-anchor="start" x="98" y="-75.4" font-family="Helvetica,sans-Serif" font-size="12.00" fill="grey">name</text>
<text text-anchor="start" x="98" y="-58.4" font-family="Helvetica,sans-Serif" font-size="12.00" fill="grey">str</text>
</g>
<!-- Node3 -->
<g id="Node000003" class="node">
<title>Node3</title>
<g id="a_Node000003"><a xlink:title=" ">
<polygon fill="white" stroke="#666666" points="155.5,-198 33.5,-198 33.5,-164 155.5,-164 155.5,-198"/>
<text text-anchor="start" x="41.5" y="-184.4" font-family="Helvetica,sans-Serif" font-size="12.00">std::basic_string&lt;</text>
<text text-anchor="middle" x="94.5" y="-171.4" font-family="Helvetica,sans-Serif" font-size="12.00"> Char &gt;</text>
</a>
</g>
</g>
<!-- Node3&#45;&gt;Node2 -->
<g id="edge2_Node000002_Node000003" class="edge">
<title>Node3&#45;&gt;Node2</title>
<g id="a_edge2_Node000002_Node000003"><a xlink:title=" ">
<path fill="none" stroke="#63b8ff" d="M94.5,-153.78C94.5,-144.41 94.5,-134.42 94.5,-127.3"/>
<polygon fill="#63b8ff" stroke="#63b8ff" points="91,-153.9 94.5,-163.9 98,-153.9 91,-153.9"/>
</a>
</g>
</g>
</g>
</svg>
