<?xml version="1.0" encoding="UTF-8" standalone="no"?>
<!DOCTYPE svg PUBLIC "-//W3C//DTD SVG 1.1//EN"
 "http://www.w3.org/Graphics/SVG/1.1/DTD/svg11.dtd">
<!-- Generated by graphviz version 2.43.0 (0)
 -->
<!-- Title: JKQTPStat5NumberStatistics Pages: 1 -->
<svg width="194pt" height="257pt"
 viewBox="0.00 0.00 194.00 257.00" xmlns="http://www.w3.org/2000/svg" xmlns:xlink="http://www.w3.org/1999/xlink">
<g id="graph0" class="graph" transform="scale(1 1) rotate(0) translate(4 253)">
<title>JKQTPStat5NumberStatistics</title>
<!-- Node1 -->
<g id="Node000001" class="node">
<title>Node1</title>
<g id="a_Node000001"><a xlink:title="represents the Five&#45;Number Statistical Summary (minimum, median, maximum and two user&#45;defined quantil...">
<polygon fill="#999999" stroke="#666666" points="186,-21 0,-21 0,0 186,0 186,-21"/>
<text text-anchor="middle" x="93" y="-7.4" font-family="Helvetica,sans-Serif" font-size="12.00">JKQTPStat5NumberStatistics</text>
</a>
</g>
</g>
<!-- Node2 -->
<g id="Node000002" class="node">
<title>Node2</title>
<g id="a_Node000002"><a xlink:title=" ">
<polygon fill="white" stroke="#666666" points="167,-97 19,-97 19,-76 167,-76 167,-97"/>
<text text-anchor="middle" x="93" y="-83.4" font-family="Helvetica,sans-Serif" font-size="12.00">std::vector&lt; double &gt;</text>
</a>
</g>
</g>
<!-- Node2&#45;&gt;Node1 -->
<g id="edge1_Node000001_Node000002" class="edge">
<title>Node2&#45;&gt;Node1</title>
<g id="a_edge1_Node000001_Node000002"><a xlink:title=" ">
<path fill="none" stroke="#9a32cd" stroke-dasharray="5,2" d="M93,-65.53C93,-51.25 93,-32.65 93,-21.41"/>
<polygon fill="#9a32cd" stroke="#9a32cd" points="89.5,-65.83 93,-75.83 96.5,-65.83 89.5,-65.83"/>
</a>
</g>
<text text-anchor="start" x="96.5" y="-44.9" font-family="Helvetica,sans-Serif" font-size="12.00" fill="grey">outliers</text>
</g>
<!-- Node3 -->
<g id="Node000003" class="node">
<title>Node3</title>
<g id="a_Node000003"><a xlink:title=" ">
<polygon fill="white" stroke="#666666" points="150.5,-173 35.5,-173 35.5,-152 150.5,-152 150.5,-173"/>
<text text-anchor="middle" x="93" y="-159.4" font-family="Helvetica,sans-Serif" font-size="12.00">std::vector&lt; T &gt;</text>
</a>
</g>
</g>
<!-- Node3&#45;&gt;Node2 -->
<g id="edge2_Node000002_Node000003" class="edge">
<title>Node3&#45;&gt;Node2</title>
<g id="a_edge2_Node000002_Node000003"><a xlink:title=" ">
<path fill="none" stroke="orange" stroke-dasharray="5,2" d="M93,-141.53C93,-127.25 93,-108.65 93,-97.41"/>
<polygon fill="orange" stroke="orange" points="89.5,-141.83 93,-151.83 96.5,-141.83 89.5,-141.83"/>
</a>
</g>
<text text-anchor="start" x="96" y="-120.9" font-family="Helvetica,sans-Serif" font-size="12.00" fill="grey">&lt; double &gt;</text>
</g>
<!-- Node4 -->
<g id="Node000004" class="node">
<title>Node4</title>
<g id="a_Node000004"><a xlink:title=" ">
<polygon fill="white" stroke="#666666" points="107.5,-249 78.5,-249 78.5,-228 107.5,-228 107.5,-249"/>
<text text-anchor="middle" x="93" y="-235.4" font-family="Helvetica,sans-Serif" font-size="12.00">T</text>
</a>
</g>
</g>
<!-- Node4&#45;&gt;Node3 -->
<g id="edge3_Node000003_Node000004" class="edge">
<title>Node4&#45;&gt;Node3</title>
<g id="a_edge3_Node000003_Node000004"><a xlink:title=" ">
<path fill="none" stroke="#9a32cd" stroke-dasharray="5,2" d="M93,-217.53C93,-203.25 93,-184.65 93,-173.41"/>
<polygon fill="#9a32cd" stroke="#9a32cd" points="89.5,-217.83 93,-227.83 96.5,-217.83 89.5,-217.83"/>
</a>
</g>
<text text-anchor="start" x="96" y="-196.9" font-family="Helvetica,sans-Serif" font-size="12.00" fill="grey">elements</text>
</g>
</g>
</svg>
